<svg width="48" height="48" viewBox="0 0 48 48" fill="none" xmlns="http://www.w3.org/2000/svg">
<rect x="0.5" y="0.5" width="47" height="47" rx="11.5" fill="#FFF5D0"/>
<rect x="0.5" y="0.5" width="47" height="47" rx="11.5" stroke="#FBD336"/>
<path d="M16 25.9999L17.5746 32.2985C17.6189 32.4756 17.6411 32.5642 17.6673 32.6415C17.9232 33.397 18.6035 33.9282 19.3985 33.9933C19.4799 33.9999 19.5712 33.9999 19.7538 33.9999C19.9824 33.9999 20.0968 33.9999 20.1931 33.9906C21.145 33.8982 21.8983 33.1449 21.9907 32.193C22 32.0967 22 31.9823 22 31.7537V17.4999M30.5 25.4999C32.433 25.4999 34 23.9329 34 21.9999C34 20.0669 32.433 18.4999 30.5 18.4999M22.25 17.4999H18.5C16.0147 17.4999 14 19.5146 14 21.9999C14 24.4852 16.0147 26.4999 18.5 26.4999H22.25C24.0164 26.4999 26.1772 27.4468 27.8443 28.3556C28.8168 28.8857 29.3031 29.1508 29.6216 29.1118C29.9169 29.0756 30.1402 28.943 30.3133 28.701C30.5 28.4401 30.5 27.9179 30.5 26.8736V17.1262C30.5 16.0819 30.5 15.5598 30.3133 15.2988C30.1402 15.0568 29.9169 14.9242 29.6216 14.888C29.3031 14.849 28.8168 15.1141 27.8443 15.6443C26.1772 16.553 24.0164 17.4999 22.25 17.4999Z" stroke="black" stroke-width="2" stroke-linecap="round" stroke-linejoin="round"/>
</svg>
