<svg width="48" height="48" viewBox="0 0 48 48" fill="none" xmlns="http://www.w3.org/2000/svg">
<rect x="0.5" y="0.5" width="47" height="47" rx="11.5" fill="#FFF5D0"/>
<rect x="0.5" y="0.5" width="47" height="47" rx="11.5" stroke="#FBD336"/>
<path d="M17 21V29M21.5 21V29M26.5 21V29M31 21V29M15 30.6L15 31.4C15 31.9601 15 32.2401 15.109 32.454C15.2049 32.6422 15.3578 32.7952 15.546 32.891C15.7599 33 16.0399 33 16.6 33H31.4C31.9601 33 32.2401 33 32.454 32.891C32.6422 32.7952 32.7951 32.6422 32.891 32.454C33 32.2401 33 31.9601 33 31.4V30.6C33 30.04 33 29.7599 32.891 29.546C32.7951 29.3579 32.6422 29.2049 32.454 29.109C32.2401 29 31.9601 29 31.4 29H16.6C16.0399 29 15.7599 29 15.546 29.109C15.3578 29.2049 15.2049 29.3579 15.109 29.546C15 29.7599 15 30.04 15 30.6ZM23.6529 15.0772L16.2529 16.7216C15.8059 16.8209 15.5823 16.8706 15.4155 16.9908C15.2683 17.0969 15.1527 17.2409 15.0811 17.4076C15 17.5965 15 17.8255 15 18.2835L15 19.4C15 19.9601 15 20.2401 15.109 20.454C15.2049 20.6422 15.3578 20.7952 15.546 20.891C15.7599 21 16.0399 21 16.6 21H31.4C31.9601 21 32.2401 21 32.454 20.891C32.6422 20.7952 32.7951 20.6422 32.891 20.454C33 20.2401 33 19.9601 33 19.4V18.2835C33 17.8255 33 17.5965 32.9188 17.4076C32.8473 17.2409 32.7317 17.0969 32.5845 16.9908C32.4177 16.8706 32.1942 16.8209 31.7471 16.7216L24.3471 15.0772C24.2176 15.0484 24.1528 15.034 24.0874 15.0282C24.0292 15.0231 23.9708 15.0231 23.9126 15.0282C23.8472 15.034 23.7824 15.0484 23.6529 15.0772Z" stroke="#3F3F46" stroke-width="2" stroke-linecap="round" stroke-linejoin="round"/>
</svg>
