<svg width="48" height="48" viewBox="0 0 48 48" fill="none" xmlns="http://www.w3.org/2000/svg">
<rect x="0.5" y="0.5" width="47" height="47" rx="11.5" fill="#FFF5D0"/>
<rect x="0.5" y="0.5" width="47" height="47" rx="11.5" stroke="#FBD336"/>
<path d="M28 30L31 33M31 33L34 30M31 33V27M34 22H14M34 24V20.2C34 19.0799 34 18.5198 33.782 18.092C33.5903 17.7157 33.2843 17.4097 32.908 17.218C32.4802 17 31.9201 17 30.8 17H17.2C16.0799 17 15.5198 17 15.092 17.218C14.7157 17.4097 14.4097 17.7157 14.218 18.092C14 18.5198 14 19.0799 14 20.2V27.8C14 28.9201 14 29.4802 14.218 29.908C14.4097 30.2843 14.7157 30.5903 15.092 30.782C15.5198 31 16.0799 31 17.2 31H24" stroke="black" stroke-width="2" stroke-linecap="round" stroke-linejoin="round"/>
</svg>
