<svg width="49" height="48" viewBox="0 0 49 48" fill="none" xmlns="http://www.w3.org/2000/svg">
<rect x="1.16602" y="0.5" width="47" height="47" rx="11.5" fill="#FFF5D0"/>
<rect x="1.16602" y="0.5" width="47" height="47" rx="11.5" stroke="#FBD336"/>
<path d="M24.9998 21.0002V25.0002M24.9998 29.0002H25.0098M23.6151 15.892L15.3902 30.0986C14.934 30.8866 14.7059 31.2806 14.7396 31.6039C14.769 31.886 14.9168 32.1423 15.1461 32.309C15.4091 32.5002 15.8643 32.5002 16.7749 32.5002H33.2246C34.1352 32.5002 34.5904 32.5002 34.8534 32.309C35.0827 32.1423 35.2305 31.886 35.2599 31.6039C35.2936 31.2806 35.0655 30.8866 34.6093 30.0986L26.3844 15.892C25.9299 15.1068 25.7026 14.7142 25.4061 14.5824C25.1474 14.4673 24.8521 14.4673 24.5935 14.5824C24.2969 14.7142 24.0696 15.1068 23.6151 15.892Z" stroke="#3F3F46" stroke-width="2" stroke-linecap="round" stroke-linejoin="round"/>
</svg>
