<svg width="48" height="48" viewBox="0 0 48 48" fill="none" xmlns="http://www.w3.org/2000/svg">
<rect x="0.5" y="0.5" width="47" height="47" rx="11.5" fill="#FFF5D0"/>
<rect x="0.5" y="0.5" width="47" height="47" rx="11.5" stroke="#FBD336"/>
<path d="M17.4749 30.5304C17.4926 30.5005 17.5107 30.4709 17.5293 30.4413C18.8838 28.2881 19.6679 25.7418 19.6679 23C19.6679 20.7909 21.4587 19 23.6679 19C25.877 19 27.6679 20.7909 27.6679 23C27.6679 24.017 27.5986 25.0186 27.4646 26M25.3472 32.8436C25.9589 31.6226 26.4604 30.3369 26.8387 29M30.6776 30.132C31.3227 27.8657 31.668 25.4732 31.668 23C31.668 18.5817 28.0862 15 23.668 15C22.2108 15 20.8447 15.3896 19.668 16.0703M14.668 27.3641C15.3086 26.0454 15.668 24.5646 15.668 23C15.668 21.5429 16.0575 20.1767 16.7382 19M23.6678 23C23.6678 26.5172 22.6591 29.7988 20.915 32.5712" stroke="black" stroke-width="2" stroke-linecap="round" stroke-linejoin="round"/>
</svg>
