<svg width="48" height="48" viewBox="0 0 48 48" fill="none" xmlns="http://www.w3.org/2000/svg">
<rect x="0.5" y="0.5" width="47" height="47" rx="11.5" fill="#FFF5D0"/>
<rect x="0.5" y="0.5" width="47" height="47" rx="11.5" stroke="#FBD336"/>
<path d="M27.5 23.5H26.5L25 26.5L23 20.5L21.5 23.5H20.5M23.9932 17.1358C21.9938 14.7984 18.6597 14.1696 16.1547 16.31C13.6496 18.4504 13.297 22.029 15.2642 24.5604C16.7501 26.4724 20.9713 30.311 22.948 32.0749C23.3114 32.3991 23.4931 32.5613 23.7058 32.6251C23.8905 32.6805 24.0958 32.6805 24.2805 32.6251C24.4932 32.5613 24.6749 32.3991 25.0383 32.0749C27.015 30.311 31.2362 26.4724 32.7221 24.5604C34.6893 22.029 34.3797 18.4279 31.8316 16.31C29.2835 14.1922 25.9925 14.7984 23.9932 17.1358Z" stroke="#3F3F46" stroke-width="2" stroke-linecap="round" stroke-linejoin="round"/>
</svg>
