<svg width="48" height="48" viewBox="0 0 48 48" fill="none" xmlns="http://www.w3.org/2000/svg">
<rect x="0.5" y="0.5" width="47" height="47" rx="11.5" fill="#FFF5D0"/>
<rect x="0.5" y="0.5" width="47" height="47" rx="11.5" stroke="#FBD336"/>
<path d="M33 33H16.6C16.0399 33 15.7599 33 15.546 32.891C15.3578 32.7951 15.2049 32.6422 15.109 32.454C15 32.2401 15 31.9601 15 31.4V15M33 27L27.5657 21.5657C27.3677 21.3677 27.2687 21.2687 27.1545 21.2316C27.0541 21.1989 26.9459 21.1989 26.8455 21.2316C26.7313 21.2687 26.6323 21.3677 26.4343 21.5657L24.5657 23.4343C24.3677 23.6323 24.2687 23.7313 24.1545 23.7684C24.0541 23.8011 23.9459 23.8011 23.8455 23.7684C23.7313 23.7313 23.6323 23.6323 23.4343 23.4343L19 19M33 27H29M33 27V23" stroke="black" stroke-width="2" stroke-linecap="round" stroke-linejoin="round"/>
</svg>
