<svg width="44" height="45" viewBox="0 0 44 45" fill="none" xmlns="http://www.w3.org/2000/svg">
<g filter="url(#filter0_d_709_30503)">
<rect x="2" y="1.66388" width="40" height="40" rx="8" fill="white"/>
<rect x="2.5" y="2.16388" width="39" height="39" rx="7.5" stroke="#D0D5DD"/>
<g clip-path="url(#clip0_709_30503)">
<path d="M30.5236 11.6639H13.4764C13.0848 11.6639 12.7093 11.8194 12.4324 12.0963C12.1555 12.3732 12 12.7487 12 13.1403V30.1875C12 30.5791 12.1555 30.9546 12.4324 31.2315C12.7093 31.5083 13.0848 31.6639 13.4764 31.6639H30.5236C30.9152 31.6639 31.2907 31.5083 31.5676 31.2315C31.8445 30.9546 32 30.5791 32 30.1875V13.1403C32 12.7487 31.8445 12.3732 31.5676 12.0963C31.2907 11.8194 30.9152 11.6639 30.5236 11.6639ZM17.9611 28.7014H14.9542V19.15H17.9611V28.7014ZM16.4556 17.8264C16.1145 17.8245 15.7816 17.7215 15.4989 17.5306C15.2163 17.3397 14.9965 17.0693 14.8674 16.7536C14.7383 16.4379 14.7055 16.091 14.7734 15.7568C14.8412 15.4225 15.0065 15.1158 15.2485 14.8754C15.4904 14.635 15.7982 14.4716 16.1329 14.4059C16.4676 14.3403 16.8143 14.3752 17.1291 14.5064C17.444 14.6375 17.7129 14.859 17.9021 15.1429C18.0912 15.4268 18.1919 15.7603 18.1917 16.1014C18.1949 16.3297 18.1521 16.5564 18.0658 16.7679C17.9796 16.9794 17.8517 17.1713 17.6896 17.3323C17.5276 17.4932 17.3349 17.6199 17.1229 17.7048C16.9108 17.7897 16.6839 17.8311 16.4556 17.8264ZM29.0444 28.7097H26.0389V23.4917C26.0389 21.9528 25.3847 21.4778 24.5403 21.4778C23.6486 21.4778 22.7736 22.15 22.7736 23.5305V28.7097H19.7667V19.1569H22.6583V20.4805H22.6972C22.9875 19.893 24.0042 18.8889 25.5556 18.8889C27.2333 18.8889 29.0458 19.8847 29.0458 22.8014L29.0444 28.7097Z" fill="#98A2B3"/>
</g>
</g>
<defs>
<filter id="filter0_d_709_30503" x="0" y="0.663879" width="44" height="44" filterUnits="userSpaceOnUse" color-interpolation-filters="sRGB">
<feFlood flood-opacity="0" result="BackgroundImageFix"/>
<feColorMatrix in="SourceAlpha" type="matrix" values="0 0 0 0 0 0 0 0 0 0 0 0 0 0 0 0 0 0 127 0" result="hardAlpha"/>
<feOffset dy="1"/>
<feGaussianBlur stdDeviation="1"/>
<feColorMatrix type="matrix" values="0 0 0 0 0.0627451 0 0 0 0 0.0941176 0 0 0 0 0.156863 0 0 0 0.05 0"/>
<feBlend mode="normal" in2="BackgroundImageFix" result="effect1_dropShadow_709_30503"/>
<feBlend mode="normal" in="SourceGraphic" in2="effect1_dropShadow_709_30503" result="shape"/>
</filter>
<clipPath id="clip0_709_30503">
<rect width="20" height="20" fill="white" transform="translate(12 11.6639)"/>
</clipPath>
</defs>
</svg>
