<svg width="47" height="51" viewBox="0 0 47 51" fill="none" xmlns="http://www.w3.org/2000/svg">
<path d="M13.1678 27.8627C13.1678 28.4292 13.229 28.8885 13.3362 29.2254C13.4587 29.5622 13.6118 29.9297 13.8261 30.3278C13.9027 30.4503 13.9333 30.5728 13.9333 30.68C13.9333 30.8331 13.8415 30.9862 13.6424 31.1393L12.6778 31.7824C12.54 31.8742 12.4022 31.9202 12.2797 31.9202C12.1266 31.9202 11.9735 31.8436 11.8204 31.7058C11.606 31.4761 11.4223 31.2312 11.2692 30.9862C11.116 30.7259 10.9629 30.435 10.7945 30.0828C9.60021 31.4915 8.0997 32.1958 6.29296 32.1958C5.00681 32.1958 3.98095 31.8283 3.23069 31.0934C2.48044 30.3584 2.09766 29.3785 2.09766 28.1536C2.09766 26.8521 2.557 25.7956 3.49099 24.9995C4.42498 24.2033 5.66519 23.8052 7.24226 23.8052C7.76285 23.8052 8.29874 23.8511 8.86526 23.9277C9.43178 24.0042 10.0136 24.1267 10.6261 24.2645V23.1468C10.6261 21.9831 10.3811 21.1716 9.90643 20.697C9.41647 20.2223 8.58966 19.9927 7.41069 19.9927C6.87479 19.9927 6.32358 20.0539 5.75706 20.1917C5.19054 20.3295 4.63934 20.4979 4.10344 20.7123C3.85846 20.8195 3.67472 20.8807 3.56754 20.9113C3.46036 20.942 3.38381 20.9573 3.32256 20.9573C3.1082 20.9573 3.00102 20.8042 3.00102 20.4826V19.7324C3.00102 19.4874 3.03165 19.3036 3.1082 19.1965C3.18476 19.0893 3.32256 18.9821 3.53692 18.8749C4.07282 18.5993 4.71589 18.3697 5.46615 18.1859C6.2164 17.9869 7.01259 17.895 7.85471 17.895C9.67676 17.895 11.0089 18.3084 11.8663 19.1352C12.7084 19.962 13.1371 21.2176 13.1371 22.9018V27.8627H13.1678ZM6.95135 30.19C7.45662 30.19 7.9772 30.0981 8.52841 29.9144C9.07962 29.7307 9.56958 29.3938 9.98299 28.9345C10.228 28.6436 10.4117 28.322 10.5036 27.9545C10.5955 27.5871 10.6567 27.143 10.6567 26.6225V25.9794C10.2127 25.8722 9.73801 25.7803 9.24804 25.7191C8.75808 25.6578 8.28343 25.6272 7.80878 25.6272C6.78292 25.6272 6.03267 25.8263 5.52739 26.2397C5.02212 26.6531 4.77714 27.2349 4.77714 28.0005C4.77714 28.7201 4.96087 29.256 5.34366 29.6235C5.71113 30.0063 6.24702 30.19 6.95135 30.19ZM19.2464 31.8436C18.9707 31.8436 18.787 31.7977 18.6645 31.6905C18.542 31.5986 18.4349 31.3843 18.343 31.0934L14.7448 19.2577C14.653 18.9515 14.607 18.7524 14.607 18.6453C14.607 18.4003 14.7295 18.2625 14.9745 18.2625H16.475C16.7659 18.2625 16.965 18.3084 17.0721 18.4156C17.1946 18.5075 17.2865 18.7218 17.3784 19.0127L19.9507 29.1488L22.3392 19.0127C22.4158 18.7065 22.5077 18.5075 22.6302 18.4156C22.7526 18.3237 22.967 18.2625 23.2426 18.2625H24.4675C24.7584 18.2625 24.9575 18.3084 25.08 18.4156C25.2025 18.5075 25.3096 18.7218 25.3709 19.0127L27.7901 29.2713L30.4389 19.0127C30.5308 18.7065 30.638 18.5075 30.7452 18.4156C30.8676 18.3237 31.0667 18.2625 31.3423 18.2625H32.7663C33.0112 18.2625 33.149 18.385 33.149 18.6453C33.149 18.7218 33.1337 18.7984 33.1184 18.8902C33.1031 18.9821 33.0725 19.1046 33.0112 19.273L29.3212 31.1087C29.2293 31.4149 29.1222 31.6139 28.9997 31.7058C28.8772 31.7977 28.6781 31.8589 28.4178 31.8589H27.1011C26.8101 31.8589 26.6111 31.813 26.4886 31.7058C26.3661 31.5986 26.2589 31.3996 26.1977 31.0934L23.8244 21.2176L21.4665 31.0781C21.3899 31.3843 21.2981 31.5833 21.1756 31.6905C21.0531 31.7977 20.8387 31.8436 20.5631 31.8436H19.2464ZM38.9214 32.257C38.1252 32.257 37.329 32.1652 36.5635 31.9814C35.7979 31.7977 35.2008 31.5986 34.8027 31.369C34.5577 31.2312 34.3893 31.0781 34.328 30.9403C34.2668 30.8024 34.2361 30.6493 34.2361 30.5115V29.7307C34.2361 29.4091 34.3586 29.256 34.5883 29.256C34.6802 29.256 34.772 29.2713 34.8639 29.3019C34.9558 29.3326 35.0936 29.3938 35.2467 29.4551C35.7673 29.6847 36.3338 29.8685 36.9309 29.9909C37.5434 30.1134 38.1405 30.1747 38.753 30.1747C39.7176 30.1747 40.4678 30.0063 40.9884 29.6694C41.509 29.3326 41.7846 28.8426 41.7846 28.2148C41.7846 27.7861 41.6468 27.434 41.3712 27.143C41.0956 26.8521 40.575 26.5918 39.8248 26.3469L37.6046 25.6578C36.4869 25.3057 35.6601 24.7851 35.1548 24.0961C34.6495 23.4224 34.3892 22.6721 34.3892 21.8759C34.3892 21.2329 34.5271 20.6664 34.8027 20.1764C35.0783 19.6864 35.4457 19.2577 35.9051 18.9209C36.3644 18.5687 36.885 18.3084 37.4975 18.1247C38.1099 17.9409 38.753 17.8644 39.4267 17.8644C39.7635 17.8644 40.1157 17.8797 40.4525 17.9256C40.8047 17.9716 41.1262 18.0328 41.4478 18.094C41.754 18.1706 42.0449 18.2472 42.3205 18.339C42.5961 18.4309 42.8105 18.5228 42.9636 18.6146C43.178 18.7371 43.3311 18.8596 43.4229 18.9974C43.5148 19.1199 43.5607 19.2883 43.5607 19.5027V20.2223C43.5607 20.5439 43.4382 20.7123 43.2086 20.7123C43.0861 20.7123 42.887 20.651 42.6267 20.5286C41.754 20.1305 40.7741 19.9314 39.687 19.9314C38.8142 19.9314 38.1252 20.0692 37.6506 20.3601C37.1759 20.651 36.9309 21.0951 36.9309 21.7228C36.9309 22.1516 37.084 22.519 37.3903 22.8099C37.6965 23.1009 38.263 23.3918 39.0745 23.6521L41.2487 24.3411C42.3511 24.6932 43.1473 25.1832 43.622 25.811C44.0966 26.4387 44.3263 27.1584 44.3263 27.9545C44.3263 28.6129 44.1885 29.2101 43.9282 29.7307C43.6526 30.2512 43.2851 30.7106 42.8105 31.0781C42.3358 31.4608 41.7693 31.7364 41.1109 31.9355C40.4219 32.1498 39.7023 32.257 38.9214 32.257Z" fill="#252F3E"/>
<path fill-rule="evenodd" clip-rule="evenodd" d="M41.8164 39.6984C36.779 43.419 29.4601 45.3942 23.1672 45.3942C14.3479 45.3942 6.4013 42.1329 0.399262 36.7127C-0.075389 36.2839 0.353328 35.7021 0.919847 36.039C7.41185 39.8055 15.4197 42.0869 23.7031 42.0869C29.2917 42.0869 35.4316 40.9233 41.0814 38.5347C41.9236 38.1519 42.6432 39.0859 41.8164 39.6984Z" fill="#FF9900"/>
<path fill-rule="evenodd" clip-rule="evenodd" d="M43.9158 37.3098C43.2727 36.483 39.6593 36.9117 38.021 37.1107C37.531 37.172 37.4544 36.7433 37.8985 36.4217C40.777 34.4006 45.5082 34.9825 46.0594 35.6562C46.6106 36.3452 45.9063 41.0764 43.2115 43.3425C42.7981 43.6946 42.4 43.5109 42.5837 43.0515C43.1962 41.5357 44.5589 38.1213 43.9158 37.3098Z" fill="#FF9900"/>
</svg>
