<svg width="48" height="48" viewBox="0 0 48 48" fill="none" xmlns="http://www.w3.org/2000/svg">
<rect x="0.5" y="0.5" width="47" height="47" rx="11.5" fill="#FFF5D0"/>
<rect x="0.5" y="0.5" width="47" height="47" rx="11.5" stroke="#FBD336"/>
<path d="M20 33V19C20 18.07 20 17.605 20.1022 17.2235C20.3796 16.1883 21.1883 15.3796 22.2235 15.1022C22.605 15 23.07 15 24 15C24.93 15 25.395 15 25.7765 15.1022C26.8117 15.3796 27.6204 16.1883 27.8978 17.2235C28 17.605 28 18.07 28 19V25.5M28 29.5V33M18.8 33H29.2C30.8802 33 31.7202 33 32.362 32.673C32.9265 32.3854 33.3854 31.9265 33.673 31.362C34 30.7202 34 29.8802 34 28.2V23.8C34 22.1198 34 21.2798 33.673 20.638C33.3854 20.0735 32.9265 19.6146 32.362 19.327C31.7202 19 30.8802 19 29.2 19H18.8C17.1198 19 16.2798 19 15.638 19.327C15.0735 19.6146 14.6146 20.0735 14.327 20.638C14 21.2798 14 22.1198 14 23.8V28.2C14 29.8802 14 30.7202 14.327 31.362C14.6146 31.9265 15.0735 32.3854 15.638 32.673C16.2798 33 17.1198 33 18.8 33ZM24.8 29.5H29.7C29.98 29.5 30.12 29.5 30.227 29.4455C30.3211 29.3976 30.3976 29.3211 30.4455 29.227C30.5 29.12 30.5 28.98 30.5 28.7V26.3C30.5 26.02 30.5 25.88 30.4455 25.773C30.3976 25.6789 30.3211 25.6024 30.227 25.5545C30.12 25.5 29.98 25.5 29.7 25.5H24.8C24.52 25.5 24.38 25.5 24.273 25.5545C24.1789 25.6024 24.1024 25.6789 24.0545 25.773C24 25.88 24 26.02 24 26.3V28.7C24 28.98 24 29.12 24.0545 29.227C24.1024 29.3211 24.1789 29.3976 24.273 29.4455C24.38 29.5 24.52 29.5 24.8 29.5Z" stroke="#3F3F46" stroke-width="2" stroke-linecap="round" stroke-linejoin="round"/>
</svg>
