<svg width="25" height="24" viewBox="0 0 25 24" fill="none" xmlns="http://www.w3.org/2000/svg">
<path d="M12.3887 8V16M8.38867 12H16.3887M8.18867 21H16.5887C18.2688 21 19.1089 21 19.7506 20.673C20.3151 20.3854 20.7741 19.9265 21.0617 19.362C21.3887 18.7202 21.3887 17.8802 21.3887 16.2V7.8C21.3887 6.11984 21.3887 5.27976 21.0617 4.63803C20.7741 4.07354 20.3151 3.6146 19.7506 3.32698C19.1089 3 18.2688 3 16.5887 3H8.18867C6.50851 3 5.66844 3 5.0267 3.32698C4.46221 3.6146 4.00327 4.07354 3.71565 4.63803C3.38867 5.27976 3.38867 6.11984 3.38867 7.8V16.2C3.38867 17.8802 3.38867 18.7202 3.71565 19.362C4.00327 19.9265 4.46221 20.3854 5.0267 20.673C5.66844 21 6.50851 21 8.18867 21Z" stroke="black" stroke-width="2" stroke-linecap="round" stroke-linejoin="round"/>
</svg>
