<svg width="48" height="48" viewBox="0 0 48 48" fill="none" xmlns="http://www.w3.org/2000/svg">
<rect x="0.5" y="0.5" width="47" height="47" rx="11.5" fill="#FFF5D0"/>
<rect x="0.5" y="0.5" width="47" height="47" rx="11.5" stroke="#FBD336"/>
<path d="M24 27L21 24M24 27C25.3968 26.4687 26.7369 25.7987 28 25M24 27V32C24 32 27.03 31.45 28 30C29.08 28.38 28 25 28 25M21 24C21.5321 22.6194 22.2022 21.2961 23 20.05C24.1652 18.187 25.7876 16.6531 27.713 15.5941C29.6384 14.5351 31.8027 13.9864 34 14C34 16.72 33.22 21.5 28 25M21 24H16C16 24 16.55 20.97 18 20C19.62 18.92 23 20 23 20M16.5 28.5C15 29.76 14.5 33.5 14.5 33.5C14.5 33.5 18.24 33 19.5 31.5C20.21 30.66 20.2 29.37 19.41 28.59C19.0213 28.219 18.5093 28.0046 17.9722 27.988C17.4352 27.9714 16.9109 28.1537 16.5 28.5Z" stroke="black" stroke-width="2" stroke-linecap="round" stroke-linejoin="round"/>
</svg>
