<svg width="48" height="48" viewBox="0 0 48 48" fill="none" xmlns="http://www.w3.org/2000/svg">
<rect x="0.5" y="0.5" width="47" height="47" rx="11.5" fill="#FFF5D0"/>
<rect x="0.5" y="0.5" width="47" height="47" rx="11.5" stroke="#FBD336"/>
<path d="M23.5 17H23.9344C26.9816 17 28.5053 17 29.0836 17.5473C29.5836 18.0204 29.8051 18.7173 29.6702 19.3922C29.514 20.173 28.2701 21.0529 25.7823 22.8125L21.7177 25.6875C19.2299 27.4471 17.986 28.327 17.8298 29.1078C17.6949 29.7827 17.9164 30.4796 18.4164 30.9527C18.9947 31.5 20.5184 31.5 23.5656 31.5H24.5M20 17C20 18.6569 18.6569 20 17 20C15.3431 20 14 18.6569 14 17C14 15.3431 15.3431 14 17 14C18.6569 14 20 15.3431 20 17ZM34 31C34 32.6569 32.6569 34 31 34C29.3431 34 28 32.6569 28 31C28 29.3431 29.3431 28 31 28C32.6569 28 34 29.3431 34 31Z" stroke="black" stroke-width="2" stroke-linecap="round" stroke-linejoin="round"/>
</svg>
