<svg width="48" height="48" viewBox="0 0 48 48" fill="none" xmlns="http://www.w3.org/2000/svg">
<rect x="0.5" y="0.5" width="47" height="47" rx="11.5" fill="#FFF5D0"/>
<rect x="0.5" y="0.5" width="47" height="47" rx="11.5" stroke="#FBD336"/>
<path d="M32 24C32 28.4183 28.4183 32 24 32M32 24C32 19.5817 28.4183 16 24 16M32 24H16M24 32C19.5817 32 16 28.4183 16 24M24 32C26.001 29.8093 27.1388 26.9664 27.2006 24C27.1388 21.0336 26.001 18.1907 24 16M24 32C21.999 29.8093 20.8623 26.9664 20.8006 24C20.8623 21.0336 21.999 18.1907 24 16M16 24C16 19.5817 19.5817 16 24 16M18 32C18 33.1046 17.1046 34 16 34C14.8954 34 14 33.1046 14 32C14 30.8954 14.8954 30 16 30C17.1046 30 18 30.8954 18 32ZM34 32C34 33.1046 33.1046 34 32 34C30.8954 34 30 33.1046 30 32C30 30.8954 30.8954 30 32 30C33.1046 30 34 30.8954 34 32ZM18 16C18 17.1046 17.1046 18 16 18C14.8954 18 14 17.1046 14 16C14 14.8954 14.8954 14 16 14C17.1046 14 18 14.8954 18 16ZM34 16C34 17.1046 33.1046 18 32 18C30.8954 18 30 17.1046 30 16C30 14.8954 30.8954 14 32 14C33.1046 14 34 14.8954 34 16Z" stroke="black" stroke-width="2" stroke-linecap="round" stroke-linejoin="round"/>
<path d="M32 24C32 28.4183 28.4183 32 24 32M32 24C32 19.5817 28.4183 16 24 16M32 24H16M24 32C19.5817 32 16 28.4183 16 24M24 32C26.001 29.8093 27.1388 26.9664 27.2006 24C27.1388 21.0336 26.001 18.1907 24 16M24 32C21.999 29.8093 20.8623 26.9664 20.8006 24C20.8623 21.0336 21.999 18.1907 24 16M16 24C16 19.5817 19.5817 16 24 16M18 32C18 33.1046 17.1046 34 16 34C14.8954 34 14 33.1046 14 32C14 30.8954 14.8954 30 16 30C17.1046 30 18 30.8954 18 32ZM34 32C34 33.1046 33.1046 34 32 34C30.8954 34 30 33.1046 30 32C30 30.8954 30.8954 30 32 30C33.1046 30 34 30.8954 34 32ZM18 16C18 17.1046 17.1046 18 16 18C14.8954 18 14 17.1046 14 16C14 14.8954 14.8954 14 16 14C17.1046 14 18 14.8954 18 16ZM34 16C34 17.1046 33.1046 18 32 18C30.8954 18 30 17.1046 30 16C30 14.8954 30.8954 14 32 14C33.1046 14 34 14.8954 34 16Z" stroke="black" stroke-width="2" stroke-linecap="round" stroke-linejoin="round"/>
</svg>
