<svg width="48" height="48" viewBox="0 0 48 48" fill="none" xmlns="http://www.w3.org/2000/svg">
<rect x="0.5" y="0.5" width="47" height="47" rx="11.5" fill="#FFF5D0"/>
<rect x="0.5" y="0.5" width="47" height="47" rx="11.5" stroke="#FBD336"/>
<path d="M28.832 26H28.842M15.332 17V31C15.332 32.1046 16.2275 33 17.332 33H31.332C32.4366 33 33.332 32.1046 33.332 31V21C33.332 19.8954 32.4366 19 31.332 19L17.332 19C16.2275 19 15.332 18.1046 15.332 17ZM15.332 17C15.332 15.8954 16.2275 15 17.332 15H29.332M29.332 26C29.332 26.2761 29.1082 26.5 28.832 26.5C28.5559 26.5 28.332 26.2761 28.332 26C28.332 25.7239 28.5559 25.5 28.832 25.5C29.1082 25.5 29.332 25.7239 29.332 26Z" stroke="black" stroke-width="2" stroke-linecap="round" stroke-linejoin="round"/>
</svg>
