<svg width="44" height="45" viewBox="0 0 44 45" fill="none" xmlns="http://www.w3.org/2000/svg">
<g filter="url(#filter0_d_709_30501)">
<rect x="2" y="1.66388" width="40" height="40" rx="8" fill="white"/>
<rect x="2.5" y="2.16388" width="39" height="39" rx="7.5" stroke="#D0D5DD"/>
<path d="M18.2896 29.7895C25.8368 29.7895 29.9648 23.5367 29.9648 18.1143C29.9648 17.9367 29.9648 17.7599 29.9528 17.5839C30.7559 17.003 31.4491 16.2838 32 15.4599C31.2512 15.7919 30.4567 16.0095 29.6432 16.1055C30.4998 15.5927 31.141 14.7861 31.4472 13.8359C30.6417 14.3139 29.7605 14.6507 28.8416 14.8319C28.2229 14.174 27.4047 13.7384 26.5135 13.5925C25.6223 13.4465 24.7078 13.5983 23.9116 14.0244C23.1154 14.4506 22.4819 15.1272 22.109 15.9497C21.7361 16.7722 21.6446 17.6946 21.8488 18.5743C20.2174 18.4925 18.6215 18.0685 17.1645 17.3299C15.7076 16.5913 14.4223 15.5546 13.392 14.2871C12.8673 15.1904 12.7066 16.2598 12.9426 17.2774C13.1786 18.2951 13.7936 19.1846 14.6624 19.7647C14.0094 19.7456 13.3705 19.5694 12.8 19.2511V19.3031C12.8003 20.2505 13.1282 21.1686 13.7282 21.9017C14.3282 22.6349 15.1634 23.1379 16.092 23.3255C15.4879 23.4903 14.8541 23.5144 14.2392 23.3959C14.5015 24.2112 15.012 24.9241 15.6994 25.435C16.3867 25.9459 17.2165 26.2293 18.0728 26.2455C17.222 26.9142 16.2478 27.4087 15.2057 27.7005C14.1637 27.9923 13.0743 28.0759 12 27.9463C13.8765 29.1505 16.0599 29.7892 18.2896 29.7863" fill="#98A2B3"/>
</g>
<defs>
<filter id="filter0_d_709_30501" x="0" y="0.663879" width="44" height="44" filterUnits="userSpaceOnUse" color-interpolation-filters="sRGB">
<feFlood flood-opacity="0" result="BackgroundImageFix"/>
<feColorMatrix in="SourceAlpha" type="matrix" values="0 0 0 0 0 0 0 0 0 0 0 0 0 0 0 0 0 0 127 0" result="hardAlpha"/>
<feOffset dy="1"/>
<feGaussianBlur stdDeviation="1"/>
<feColorMatrix type="matrix" values="0 0 0 0 0.0627451 0 0 0 0 0.0941176 0 0 0 0 0.156863 0 0 0 0.05 0"/>
<feBlend mode="normal" in2="BackgroundImageFix" result="effect1_dropShadow_709_30501"/>
<feBlend mode="normal" in="SourceGraphic" in2="effect1_dropShadow_709_30501" result="shape"/>
</filter>
</defs>
</svg>
