<svg width="56" height="56" viewBox="0 0 56 56" fill="none" xmlns="http://www.w3.org/2000/svg">
<rect x="0.5" y="0.5" width="55" height="55" rx="11.5" fill="#FFF5D0"/>
<rect x="0.5" y="0.5" width="55" height="55" rx="11.5" stroke="#FBD336"/>
<path d="M24.5007 34.4167H18.084M21.584 28H16.334M24.5007 21.5833H18.6673M33.834 17.5L26.1381 28.2742C25.7975 28.7511 25.6272 28.9895 25.6346 29.1883C25.641 29.3614 25.724 29.5226 25.8611 29.6285C26.0186 29.75 26.3116 29.75 26.8976 29.75H32.6673L31.5007 38.5L39.1965 27.7258C39.5371 27.2489 39.7074 27.0105 39.7001 26.8117C39.6936 26.6386 39.6106 26.4774 39.4735 26.3715C39.3161 26.25 39.023 26.25 38.437 26.25H32.6673L33.834 17.5Z" stroke="#3F3F46" stroke-width="2" stroke-linecap="round" stroke-linejoin="round"/>
</svg>
