<svg width="337" height="318" viewBox="0 0 337 318" fill="none" xmlns="http://www.w3.org/2000/svg">
<path d="M231.455 26.6825C233.268 15.7367 225.641 5.42938 214.419 3.66037C203.197 1.89136 192.629 9.33057 190.815 20.2763C189.002 31.2221 196.629 41.5294 207.851 43.2984C219.073 45.0674 229.641 37.6282 231.455 26.6825Z" fill="#EBEBEB"/>
<path d="M231.544 27.8209C233.29 17.4086 226.051 7.58694 215.376 5.88371C204.701 4.18049 194.631 11.2406 192.885 21.653C191.138 32.0653 198.377 41.887 209.052 43.5902C219.728 45.2934 229.797 38.2333 231.544 27.8209Z" fill="#DBDBDB"/>
<path d="M220.289 40.9671C229.713 37.2114 234.231 26.7154 230.38 17.5237C226.53 8.33201 215.769 3.92531 206.345 7.68106C196.921 11.4368 192.403 21.9328 196.253 31.1245C200.104 40.3162 210.865 44.7229 220.289 40.9671Z" fill="white"/>
<path d="M212.461 8.13757H211.992V10.8538H212.461V8.13757Z" fill="#EBEBEB"/>
<path d="M203.93 10.2678L203.523 10.4966L204.915 12.8492L205.322 12.6204L203.93 10.2678Z" fill="#EBEBEB"/>
<path d="M197.832 15.3941L197.598 15.792L200.02 17.1497L200.254 16.7518L197.832 15.3941Z" fill="#EBEBEB"/>
<path d="M198 24.51H195.215V24.9676H198V24.51Z" fill="#EBEBEB"/>
<path d="M199.79 31.4925L197.379 32.8506L197.613 33.2466L200.024 31.8885L199.79 31.4925Z" fill="#EBEBEB"/>
<path d="M204.911 36.64L203.52 38.993L203.926 39.2217L205.317 36.8686L204.911 36.64Z" fill="#EBEBEB"/>
<path d="M212.461 38.6233H211.992V41.3395H212.461V38.6233Z" fill="#EBEBEB"/>
<path d="M219.551 36.6659L219.145 36.8948L220.537 39.2471L220.943 39.0183L219.551 36.6659Z" fill="#EBEBEB"/>
<path d="M224.668 31.4832L224.434 31.8793L226.838 33.2332L227.072 32.8372L224.668 31.4832Z" fill="#EBEBEB"/>
<path d="M229.246 24.51H226.461V24.9676H229.246V24.51Z" fill="#EBEBEB"/>
<path d="M226.838 16.2361L224.434 17.5901L224.668 17.9862L227.072 16.6322L226.838 16.2361Z" fill="#EBEBEB"/>
<path d="M220.547 10.2595L219.156 12.6125L219.563 12.8412L220.954 10.4881L220.547 10.2595Z" fill="#EBEBEB"/>
<path d="M214.948 18.9946L206.898 34.4305L207.317 34.6381L215.366 19.2021L214.948 18.9946Z" fill="#EBEBEB"/>
<path d="M211.291 18.585L210.68 18.7043L214.112 35.4279L214.723 35.3086L211.291 18.585Z" fill="#DBDBDB"/>
<path d="M151.941 153.899H19.8672V5.13525H151.941V153.899ZM22.9367 150.897H148.864V8.13663H22.9444L22.9367 150.897Z" fill="#EBEBEB"/>
<path d="M86.2413 8.92505H83.1641V152.399H86.2413V8.92505Z" fill="#EBEBEB"/>
<path d="M154.741 11.2059H17.0742V15.3854H154.741V11.2059Z" fill="#EBEBEB"/>
<path d="M154.741 15.9106H17.0742V20.0901H154.741V15.9106Z" fill="#EBEBEB"/>
<path d="M154.741 20.6077H17.0742V24.7871H154.741V20.6077Z" fill="#EBEBEB"/>
<path d="M154.741 25.3131H17.0742V29.4925H154.741V25.3131Z" fill="#EBEBEB"/>
<path d="M154.741 30.0177H17.0742V34.1971H154.741V30.0177Z" fill="#EBEBEB"/>
<path d="M154.741 34.7148H17.0742V38.8943H154.741V34.7148Z" fill="#EBEBEB"/>
<path d="M154.741 39.4185H17.0742V43.5979H154.741V39.4185Z" fill="#EBEBEB"/>
<path d="M154.741 44.1235H17.0742V48.303H154.741V44.1235Z" fill="#EBEBEB"/>
<path d="M154.741 48.8212H17.0742V53.0006H154.741V48.8212Z" fill="#EBEBEB"/>
<path d="M145.601 10.3582H144.832V106.695H145.601V10.3582Z" fill="#263238"/>
<path d="M146.579 110.191H143.848L144.532 106.365H145.894L146.579 110.191Z" fill="#263238"/>
<path d="M148.371 10.3582H147.602V149.72H148.371V10.3582Z" fill="#263238"/>
<path d="M149.344 152.534H146.621L147.298 148.707H148.667L149.344 152.534Z" fill="#263238"/>
<path d="M159.51 4.55017H12.2969V13.2917H159.51V4.55017Z" fill="#DBDBDB"/>
<path d="M330.785 38.9761H247.793V140.911H330.785V38.9761Z" fill="#EBEBEB"/>
<path d="M320.226 60.0385H258.074V61.9668H320.226V60.0385Z" fill="#DBDBDB"/>
<path d="M310.702 64.0756H258.074V66.0039H310.702V64.0756Z" fill="#DBDBDB"/>
<path d="M298.209 68.1044H258.074V70.0328H298.209V68.1044Z" fill="#DBDBDB"/>
<path d="M318.057 72.1411H258.074V74.0695H318.057V72.1411Z" fill="#DBDBDB"/>
<path d="M312.956 76.1705H258.074V78.0989H312.956V76.1705Z" fill="#DBDBDB"/>
<path d="M315.026 84.2374H258.074V86.1658H315.026V84.2374Z" fill="#DBDBDB"/>
<path d="M279.892 88.2739H258.074V90.2023H279.892V88.2739Z" fill="#DBDBDB"/>
<path d="M302.071 92.3022H258.074V94.2306H302.071V92.3022Z" fill="#DBDBDB"/>
<path d="M318.057 96.3402H258.074V98.2686H318.057V96.3402Z" fill="#DBDBDB"/>
<path d="M309.794 100.369H258.074V102.298H309.794V100.369Z" fill="#DBDBDB"/>
<path d="M314.118 108.435H258.074V110.363H314.118V108.435Z" fill="#DBDBDB"/>
<path d="M292 112.473H258.074V114.401H292V112.473Z" fill="#DBDBDB"/>
<path d="M292 124.681H258.074V126.609H292V124.681Z" fill="#DBDBDB"/>
<path d="M314.984 132.739C318.456 132.739 321.27 129.995 321.27 126.609C321.27 123.223 318.456 120.479 314.984 120.479C311.513 120.479 308.699 123.223 308.699 126.609C308.699 129.995 311.513 132.739 314.984 132.739Z" fill="#FFC727"/>
<path d="M267.332 46.8317C268.087 46.832 268.821 47.0776 269.417 47.5295C269.442 47.5471 269.462 47.5695 269.478 47.5952C269.493 47.6209 269.503 47.6494 269.506 47.6789C269.51 47.7085 269.507 47.7384 269.499 47.7669C269.49 47.7954 269.475 47.8219 269.456 47.8446C269.438 47.868 269.416 47.8878 269.391 47.9028C269.365 47.9177 269.337 47.9276 269.308 47.9318C269.278 47.936 269.248 47.9344 269.22 47.9272C269.191 47.92 269.164 47.9072 269.14 47.8897C268.626 47.4909 267.989 47.2739 267.332 47.2744C266.584 47.2744 265.865 47.5645 265.336 48.0809C264.807 48.5974 264.509 49.2978 264.509 50.0281C264.509 50.7585 264.807 51.4589 265.336 51.9754C265.865 52.4918 266.584 52.7819 267.332 52.7819C267.985 52.7915 268.619 52.5763 269.125 52.1741C269.149 52.1546 269.177 52.1403 269.207 52.1323C269.237 52.1243 269.268 52.1228 269.299 52.1278C269.33 52.1328 269.359 52.1442 269.385 52.1613C269.41 52.1783 269.432 52.2006 269.448 52.2267C269.471 52.2464 269.489 52.2706 269.502 52.2978C269.514 52.325 269.521 52.3544 269.521 52.3842C269.521 52.414 269.514 52.4435 269.502 52.4707C269.489 52.4978 269.471 52.5221 269.448 52.5418C268.849 52.9864 268.116 53.2263 267.363 53.2246C266.933 53.2246 266.507 53.1419 266.109 52.9813C265.711 52.8207 265.35 52.5852 265.046 52.2884C264.741 51.9916 264.5 51.6392 264.335 51.2514C264.171 50.8636 264.086 50.4479 264.086 50.0281C264.086 49.6084 264.171 49.1927 264.335 48.8049C264.5 48.4171 264.741 48.0647 265.046 47.7679C265.35 47.4711 265.711 47.2356 266.109 47.075C266.507 46.9143 266.933 46.8317 267.363 46.8317H267.332Z" fill="#A6A6A6"/>
<path d="M274.008 46.8329C274.664 46.7999 275.315 46.9595 275.877 47.2913C276.44 47.623 276.887 48.1115 277.162 48.6937C277.436 49.276 277.525 49.9251 277.418 50.5573C277.31 51.1895 277.011 51.7757 276.558 52.2402C276.105 52.7046 275.52 53.026 274.878 53.1628C274.236 53.2995 273.567 53.2454 272.957 53.0073C272.347 52.7693 271.824 52.3583 271.456 51.8274C271.088 51.2965 270.892 50.6702 270.892 50.0293C270.879 49.6193 270.949 49.2107 271.099 48.8273C271.249 48.4439 271.475 48.0934 271.765 47.796C272.055 47.4987 272.403 47.2604 272.788 47.0951C273.173 46.9297 273.587 46.8406 274.008 46.8329ZM274.008 52.7831C274.572 52.8146 275.133 52.6803 275.618 52.3976C276.103 52.1148 276.49 51.6965 276.729 51.1969C276.967 50.6973 277.047 50.1394 276.957 49.5953C276.867 49.0511 276.611 48.5459 276.224 48.1448C275.836 47.7438 275.334 47.4654 274.782 47.3458C274.231 47.2261 273.655 47.2706 273.13 47.4736C272.604 47.6766 272.153 48.0287 271.835 48.4843C271.518 48.94 271.347 49.4782 271.346 50.0293C271.325 50.7386 271.594 51.4269 272.093 51.9432C272.592 52.4595 273.281 52.7615 274.008 52.7831Z" fill="#A6A6A6"/>
<path d="M279.252 47.8529V53.0077C279.258 53.0392 279.256 53.0715 279.248 53.1025C279.24 53.1335 279.225 53.1623 279.204 53.1869C279.183 53.2115 279.157 53.2313 279.127 53.2449C279.097 53.2585 279.065 53.2656 279.032 53.2656C278.999 53.2656 278.967 53.2585 278.937 53.2449C278.908 53.2313 278.881 53.2115 278.861 53.1869C278.84 53.1623 278.825 53.1335 278.816 53.1025C278.808 53.0715 278.807 53.0392 278.813 53.0077V47.2301C278.798 47.1873 278.797 47.1408 278.811 47.0976C278.824 47.0543 278.852 47.0165 278.89 46.99C278.939 46.9573 279 46.9445 279.059 46.9543C279.117 46.9641 279.17 46.9957 279.205 47.0425L283.121 52.2949V47.1701C283.121 47.1136 283.144 47.0594 283.184 47.0188C283.224 46.9782 283.279 46.9544 283.337 46.9525C283.366 46.9514 283.396 46.9563 283.424 46.9668C283.452 46.9773 283.478 46.9932 283.499 47.0135C283.521 47.0338 283.538 47.0581 283.55 47.085C283.561 47.1119 283.567 47.1408 283.567 47.1701V52.9702C283.567 52.9994 283.561 53.0284 283.55 53.0553C283.538 53.0822 283.521 53.1065 283.499 53.1268C283.478 53.1471 283.452 53.163 283.424 53.1735C283.396 53.1839 283.366 53.1888 283.337 53.1878C283.304 53.1875 283.271 53.18 283.242 53.1657C283.213 53.1513 283.187 53.1307 283.167 53.1053C283.158 53.1023 283.15 53.0974 283.144 53.0909C283.137 53.0844 283.132 53.0765 283.129 53.0678L279.252 47.8529Z" fill="#A6A6A6"/>
<path d="M287.478 47.3649H285.532C285.472 47.363 285.415 47.3384 285.373 47.2964C285.332 47.2544 285.309 47.1983 285.309 47.1398C285.311 47.0827 285.335 47.0285 285.376 46.9881C285.417 46.9476 285.473 46.9241 285.532 46.9222H289.871C289.929 46.9241 289.985 46.9476 290.026 46.9881C290.068 47.0285 290.092 47.0827 290.094 47.1398C290.094 47.1983 290.07 47.2544 290.029 47.2964C289.987 47.3384 289.93 47.363 289.871 47.3649H287.924V53.0075C287.924 53.0653 287.901 53.1206 287.859 53.1614C287.817 53.2022 287.76 53.2251 287.701 53.2251C287.642 53.2251 287.585 53.2022 287.543 53.1614C287.502 53.1206 287.478 53.0653 287.478 53.0075V47.3649Z" fill="#A6A6A6"/>
<path d="M295.03 51.799C295.031 51.6104 294.983 51.4246 294.892 51.2583C294.801 51.092 294.668 50.9503 294.507 50.8461C294.273 50.6949 294.012 50.588 293.738 50.5309H293.692H292.153V53.0221C292.143 53.0738 292.115 53.1205 292.074 53.1542C292.032 53.1878 291.98 53.2063 291.926 53.2063C291.872 53.2063 291.82 53.1878 291.779 53.1542C291.737 53.1205 291.709 53.0738 291.699 53.0221V47.1544C291.702 47.1013 291.723 47.0507 291.76 47.0111C291.796 46.9715 291.845 46.9453 291.899 46.9368H293.746C294.163 46.941 294.567 47.0833 294.891 47.3405C295.216 47.5977 295.441 47.9545 295.53 48.3526C295.619 48.7507 295.568 49.1665 295.383 49.5322C295.199 49.8979 294.893 50.1918 294.515 50.3658C294.543 50.3853 294.574 50.4005 294.607 50.4109C294.867 50.5476 295.085 50.7499 295.238 50.9967C295.391 51.2435 295.473 51.5257 295.476 51.814C295.463 52.0665 295.489 52.3195 295.553 52.5644C295.57 52.6213 295.602 52.673 295.646 52.7144C295.698 52.7085 295.751 52.7192 295.797 52.7449C295.842 52.7705 295.879 52.8099 295.9 52.857C295.914 52.9148 295.907 52.9756 295.881 53.029C295.854 53.0824 295.809 53.1251 295.753 53.1496H295.623C295.533 53.1412 295.447 53.1096 295.374 53.0582C295.301 53.0068 295.244 52.9373 295.207 52.857C295.057 52.5246 294.997 52.1606 295.03 51.799ZM293.738 47.3645H292.145V50.0807H293.776C294.146 50.0757 294.498 49.9279 294.755 49.6697C295.013 49.4115 295.155 49.064 295.15 48.7038C295.144 48.3436 294.993 48.0002 294.728 47.749C294.463 47.4978 294.107 47.3595 293.738 47.3645Z" fill="#A6A6A6"/>
<path d="M301.094 51.597H298.147L297.578 53.0977C297.562 53.1393 297.534 53.1752 297.497 53.2006C297.46 53.2261 297.415 53.2399 297.37 53.2403H297.285C297.23 53.217 297.185 53.1737 297.16 53.1193C297.136 53.0649 297.134 53.0035 297.155 52.9476L299.393 47.1099C299.414 47.0692 299.445 47.0349 299.485 47.011C299.524 46.9871 299.57 46.9746 299.616 46.9749C299.663 46.9726 299.71 46.9843 299.75 47.0085C299.789 47.0326 299.821 47.068 299.84 47.1099L302.078 52.9476C302.1 53.0017 302.1 53.0616 302.079 53.1158C302.057 53.1699 302.016 53.2143 301.963 53.2403H301.878C301.832 53.2394 301.787 53.2255 301.749 53.2002C301.711 53.1749 301.681 53.1393 301.663 53.0977L301.094 51.597ZM298.316 51.1543H300.932L299.624 47.7703L298.316 51.1543Z" fill="#A6A6A6"/>
<path d="M306.223 46.8317C306.978 46.832 307.712 47.0776 308.308 47.5295C308.332 47.5471 308.353 47.5695 308.368 47.5952C308.384 47.6209 308.393 47.6494 308.397 47.6789C308.401 47.7085 308.398 47.7384 308.389 47.7669C308.381 47.7954 308.366 47.8219 308.346 47.8446C308.329 47.868 308.307 47.8878 308.281 47.9028C308.256 47.9177 308.228 47.9276 308.198 47.9318C308.169 47.936 308.139 47.9344 308.11 47.9272C308.081 47.92 308.055 47.9072 308.031 47.8897C307.517 47.4909 306.88 47.2739 306.223 47.2744C305.474 47.2744 304.756 47.5645 304.227 48.0809C303.697 48.5974 303.4 49.2978 303.4 50.0281C303.4 50.7585 303.697 51.4589 304.227 51.9754C304.756 52.4918 305.474 52.7819 306.223 52.7819C306.875 52.7915 307.51 52.5763 308.016 52.1741C308.039 52.1546 308.067 52.1403 308.097 52.1323C308.127 52.1243 308.159 52.1228 308.189 52.1278C308.22 52.1328 308.249 52.1442 308.275 52.1613C308.301 52.1783 308.323 52.2006 308.339 52.2267C308.362 52.2464 308.38 52.2706 308.392 52.2978C308.405 52.325 308.412 52.3544 308.412 52.3842C308.412 52.414 308.405 52.4435 308.392 52.4707C308.38 52.4978 308.362 52.5221 308.339 52.5418C307.739 52.9864 307.007 53.2263 306.254 53.2246C305.823 53.2246 305.397 53.1419 305 52.9813C304.602 52.8207 304.241 52.5852 303.936 52.2884C303.632 51.9916 303.391 51.6392 303.226 51.2514C303.061 50.8636 302.977 50.4479 302.977 50.0281C302.977 49.6084 303.061 49.1927 303.226 48.8049C303.391 48.4171 303.632 48.0647 303.936 47.7679C304.241 47.4711 304.602 47.2356 305 47.075C305.397 46.9143 305.823 46.8317 306.254 46.8317H306.223Z" fill="#A6A6A6"/>
<path d="M311.958 47.3649H310.012C309.952 47.363 309.896 47.3384 309.854 47.2964C309.812 47.2544 309.789 47.1983 309.789 47.1398C309.791 47.0827 309.815 47.0285 309.857 46.9881C309.898 46.9476 309.954 46.9241 310.012 46.9222H314.351C314.41 46.9241 314.465 46.9476 314.507 46.9881C314.548 47.0285 314.572 47.0827 314.574 47.1398C314.575 47.169 314.57 47.1981 314.559 47.2254C314.549 47.2527 314.532 47.2776 314.512 47.2986C314.491 47.3196 314.466 47.3363 314.438 47.3477C314.411 47.3591 314.381 47.365 314.351 47.3649H312.405V53.0075C312.405 53.0653 312.381 53.1206 312.339 53.1614C312.298 53.2022 312.241 53.2251 312.182 53.2251C312.122 53.2251 312.066 53.2022 312.024 53.1614C311.982 53.1206 311.958 53.0653 311.958 53.0075V47.3649Z" fill="#A6A6A6"/>
<path d="M175.013 237.428H327.42L330.589 176.439H171.844L175.013 237.428Z" fill="#EBEBEB"/>
<path d="M320.191 204.36H256.47L255.277 183.185H321.583L320.191 204.36ZM257.201 203.609H319.468L320.76 183.935H256.093L257.201 203.609Z" fill="#DBDBDB"/>
<path d="M319.021 228.716H258.977L258 209.604H320.244L319.021 228.716ZM259.708 227.965H318.298L319.429 210.355H258.808L259.708 227.965Z" fill="#DBDBDB"/>
<path d="M294.468 196.053H283.759L283.09 190.943H295.145L294.468 196.053ZM284.467 195.303H293.822L294.299 191.694H283.99L284.467 195.303Z" fill="#DBDBDB"/>
<path d="M294.468 221.715H283.759L283.09 216.605H295.145L294.468 221.715ZM284.467 220.965H293.822L294.299 217.356H283.99L284.467 220.965Z" fill="#DBDBDB"/>
<path d="M245.246 204.36H181.524L180.332 183.185H246.638L245.246 204.36ZM182.255 203.609H244.523L245.792 183.935H181.171L182.255 203.609Z" fill="#DBDBDB"/>
<path d="M244.072 228.716H184.028L183.051 209.604H245.295L244.072 228.716ZM184.759 227.965H243.349L244.48 210.355H183.859L184.759 227.965Z" fill="#DBDBDB"/>
<path d="M219.523 196.053H208.814L208.145 190.943H220.2L219.523 196.053ZM209.522 195.303H218.869L219.346 191.694H209.037L209.522 195.303Z" fill="#DBDBDB"/>
<path d="M219.523 221.715H208.814L208.145 216.605H220.2L219.523 221.715ZM209.522 220.965H218.869L219.346 217.356H209.037L209.522 220.965Z" fill="#DBDBDB"/>
<path d="M188.686 237.428L187.724 244.076L185.801 257.424H182.039V237.428H188.686Z" fill="#EBEBEB"/>
<path d="M188.686 237.428L187.724 244.076H182.039V237.428H188.686Z" fill="#DBDBDB"/>
<path d="M313.75 237.428L314.704 244.076L316.635 257.424H320.397V237.428H313.75Z" fill="#EBEBEB"/>
<path d="M313.75 237.428L314.704 244.076H320.397V237.428H313.75Z" fill="#DBDBDB"/>
<path d="M169.633 317.543C246.297 317.543 308.446 309.645 308.446 299.902C308.446 290.159 246.297 282.261 169.633 282.261C92.9689 282.261 30.8203 290.159 30.8203 299.902C30.8203 309.645 92.9689 317.543 169.633 317.543Z" fill="#EBEBEB"/>
<path d="M42.2999 280.595C65.2515 280.595 83.8576 276.248 83.8576 270.885C83.8576 265.523 65.2515 261.176 42.2999 261.176C19.3482 261.176 0.742188 265.523 0.742188 270.885C0.742188 276.248 19.3482 280.595 42.2999 280.595Z" fill="#EBEBEB"/>
<path d="M3 257.423L44.6577 257.243L86.3154 257.176L169.631 257.056L252.946 257.176L294.604 257.243L336.262 257.423L294.604 257.611L252.946 257.678L169.631 257.798L86.3154 257.678L44.6577 257.611L3 257.423Z" fill="#263238"/>
<path d="M43.528 127.479C43.528 127.479 22.8415 124.658 27.6727 100.294C27.6727 100.294 50.7903 105.359 43.528 127.479Z" fill="#FFC727"/>
<path opacity="0.1" d="M43.528 127.479C43.528 127.479 22.8415 124.658 27.6727 100.294C27.6727 100.294 50.7903 105.359 43.528 127.479Z" fill="black"/>
<path d="M42.479 122.393C42.0749 121.162 41.605 119.952 41.0712 118.769C41.0712 118.611 41.0712 118.453 41.0174 118.303C41.0174 117.966 40.9558 117.636 40.9327 117.298C40.8712 116.548 40.825 115.842 40.7789 115.114C40.6942 113.659 40.6019 112.203 40.5788 110.747C40.5788 110.665 40.4481 110.672 40.4481 110.747C40.4481 112.211 40.4481 113.666 40.4481 115.122C40.4481 115.872 40.525 116.578 40.5712 117.305C40.5712 117.471 40.5712 117.628 40.5712 117.793C39.4085 115.367 38.0178 113.051 36.4169 110.875C35.7424 109.905 35.0157 108.971 34.2398 108.076C33.4167 107.153 32.5473 106.275 31.7088 105.367C31.6549 105.307 31.5703 105.367 31.6242 105.457C33.1097 107.06 34.4434 108.79 35.6092 110.627C36.24 111.55 36.8324 112.503 37.4016 113.471L37.2093 113.404L36.44 113.111L34.7475 112.488C33.6398 112.083 32.532 111.693 31.4242 111.28C31.3549 111.28 31.3088 111.37 31.378 111.393C32.4781 111.82 33.5628 112.271 34.6552 112.728L36.2554 113.404L37.0631 113.726C37.2364 113.811 37.4199 113.874 37.6093 113.914C38.0248 114.664 38.4402 115.377 38.8248 116.127C39.7843 118.015 40.6269 119.957 41.3482 121.943C41.402 122.078 41.4482 122.22 41.502 122.363C40.9556 122.056 40.3874 121.788 39.8019 121.56L37.6632 120.614C36.2092 119.962 34.7706 119.301 33.3782 118.536C33.3639 118.528 33.347 118.526 33.3311 118.53C33.3152 118.534 33.3017 118.545 33.2936 118.559C33.2854 118.572 33.2832 118.589 33.2876 118.604C33.2919 118.62 33.3024 118.633 33.3166 118.641C34.7399 119.391 36.1323 120.209 37.5555 120.96C38.2709 121.335 38.9864 121.71 39.7172 122.048C40.3187 122.396 40.973 122.65 41.6559 122.798C42.35 124.644 42.8073 126.567 43.0175 128.523C43.2483 131.277 43.2252 134.053 43.2945 136.814H43.3637C43.5714 134.308 43.6868 131.78 43.7022 129.266C43.672 126.926 43.2591 124.606 42.479 122.393Z" fill="#263238"/>
<path d="M39.2958 108.068C39.0961 109.492 39.0265 110.931 39.0881 112.367C39.0881 112.405 39.1496 112.405 39.1496 112.367C39.2343 110.941 39.2497 109.516 39.4189 108.098C39.4266 108.023 39.3035 107.993 39.2958 108.068Z" fill="#263238"/>
<path d="M33.3787 109.291C32.4538 108.945 31.5629 108.518 30.7169 108.015C30.6477 107.97 30.5861 108.083 30.6554 108.121C31.4842 108.666 32.3916 109.089 33.3479 109.374C33.3941 109.389 33.471 109.314 33.3787 109.291Z" fill="#263238"/>
<path d="M44.1899 166.152C44.1899 163.901 44.1284 161.695 44.1053 159.467C44.0592 152.061 43.9976 144.655 43.8591 137.249C43.7514 131.366 43.6104 125.488 43.436 119.616C43.4355 119.6 43.431 119.586 43.4229 119.572C43.4148 119.559 43.4035 119.548 43.3899 119.541C43.3899 117.935 43.3899 116.329 43.3899 114.723C43.3899 114.678 43.3437 114.663 43.2899 114.663C43.236 114.663 43.1898 114.663 43.1975 114.723C43.1975 116.334 43.1975 117.942 43.1975 119.548C43.1975 119.548 43.1437 119.586 43.1437 119.616C42.8437 130.121 42.5744 140.543 42.5052 151.01C42.5052 153.141 42.5052 155.265 42.5052 157.396C42.4282 164.214 42.4 171.037 42.4205 177.865C42.4205 178.946 42.4205 180.034 42.4205 181.122C42.4205 187.364 42.4898 193.607 42.4898 199.88C42.4898 200.21 42.8744 200.383 43.2591 200.398C43.6437 200.413 44.2207 200.233 44.2207 199.85C44.2207 192.97 44.2669 186.081 44.2669 179.201C44.2438 174.834 44.2438 170.489 44.1899 166.152Z" fill="#263238"/>
<path d="M35.5485 159.377C35.5485 159.377 25.5938 152.189 16.1544 157.036C6.7151 161.883 5.22266 180.627 5.22266 180.627C5.22266 180.627 19.0701 182.563 27.8247 174.452C36.2409 166.648 35.5485 159.377 35.5485 159.377Z" fill="#FFC727"/>
<path d="M38.255 159.819C36.4274 159.109 34.4477 158.851 32.493 159.069C32.0915 158.999 31.6852 158.959 31.2775 158.949L29.8696 158.844L26.9694 158.649C25.0077 158.506 23.0382 158.386 21.0765 158.191C21.063 158.196 21.0512 158.204 21.0429 158.216C21.0345 158.227 21.0301 158.241 21.0301 158.255C21.0301 158.269 21.0345 158.282 21.0429 158.294C21.0512 158.305 21.063 158.314 21.0765 158.318C23.0152 158.559 24.923 158.829 26.8848 159.016C27.8849 159.114 28.8849 159.219 29.8927 159.286L30.6159 159.354C30.3235 159.421 30.0235 159.489 29.7312 159.572C28.1698 160.015 26.6592 160.613 25.2231 161.357C24.4538 161.492 23.6845 161.71 22.9152 161.883C21.6843 162.168 20.4611 162.475 19.2379 162.791C16.8223 163.406 14.4298 164.104 12.0295 164.786C11.9526 164.786 11.9911 164.922 12.0295 164.899C14.4221 164.329 16.8377 163.803 19.2379 163.248L22.7305 162.43L23.646 162.22C20.9758 163.84 18.589 165.867 16.5761 168.223C14.639 170.549 12.9914 173.09 11.668 175.794C11.668 175.862 11.7295 175.929 11.7757 175.862C13.4139 173.098 15.4128 170.553 17.7224 168.291C17.6762 168.418 17.6378 168.553 17.5916 168.681L17.0377 170.392C16.6684 171.54 16.2684 172.68 15.9453 173.828C15.9453 173.903 16.0453 173.926 16.0684 173.828C16.4915 172.718 16.8915 171.577 17.2916 170.489C17.4839 169.941 17.6839 169.401 17.8762 168.853C17.9839 168.568 18.0839 168.283 18.1763 167.998C18.1763 167.915 18.2455 167.825 18.2763 167.735C19.3853 166.685 20.5622 165.705 21.7997 164.801C23.4428 163.629 25.2156 162.64 27.0848 161.853C27.0848 162.018 27.0232 162.19 26.9848 162.348C26.8848 162.791 26.7848 163.233 26.6924 163.676C26.5001 164.591 26.3155 165.514 26.1308 166.437C25.7539 168.313 25.5231 170.189 25.1615 172.095C25.1615 172.177 25.2692 172.207 25.2846 172.095C25.7308 170.204 26.3078 168.343 26.7386 166.452C26.954 165.507 27.1694 164.561 27.3771 163.616L27.6541 162.28C27.7002 162.033 27.7618 161.785 27.7925 161.53L28.331 161.312C30.939 160.367 33.8239 159.684 36.6087 160.209C37.926 160.447 39.1625 160.999 40.2081 161.816C41.2537 162.633 42.0759 163.69 42.6016 164.891C42.6939 165.102 43.0324 164.967 42.9786 164.749C42.44 162.453 40.4475 160.72 38.255 159.819Z" fill="#263238"/>
<path d="M23.0231 167.818C22.7461 169.049 22.4615 170.279 22.1846 171.51C21.8702 172.689 21.6389 173.887 21.4922 175.097C21.4922 175.149 21.5537 175.149 21.5691 175.097C21.9355 173.914 22.2182 172.708 22.4154 171.487C22.6615 170.272 22.9077 169.056 23.1462 167.841C23.1616 167.773 23.0385 167.743 23.0231 167.818Z" fill="#263238"/>
<path d="M13.3973 170.947C12.1279 171.57 10.9048 172.283 9.55078 172.8C9.5432 172.803 9.5363 172.808 9.53046 172.813C9.52462 172.819 9.51996 172.826 9.51674 172.833C9.51353 172.84 9.51182 172.848 9.51172 172.856C9.51162 172.864 9.51313 172.872 9.51616 172.879C9.51919 172.887 9.52369 172.893 9.52939 172.899C9.53509 172.905 9.54188 172.909 9.54938 172.912C9.55688 172.916 9.56494 172.917 9.5731 172.917C9.58126 172.917 9.58936 172.916 9.59694 172.913C10.9212 172.341 12.213 171.7 13.4665 170.992C13.4665 170.992 13.4665 170.932 13.3973 170.947Z" fill="#263238"/>
<path d="M37.7863 146.17C37.7863 146.17 25.6236 146.92 19.9616 139.109C14.2995 131.298 15.5765 120.11 15.5765 120.11C15.5765 120.11 28.3546 121.611 33.4243 127.246C38.494 132.881 37.7863 146.17 37.7863 146.17Z" fill="#FFC727"/>
<path d="M43.4755 157.876C43.0524 156.608 42.5292 155.355 42.0369 154.124C41.5445 152.894 41.0599 151.738 40.4983 150.568C39.4151 148.177 38.2004 145.845 36.8595 143.582C35.9979 142.141 35.0747 140.738 34.1285 139.358C34.1285 139.148 34.0669 138.937 34.0362 138.727C33.9823 138.36 33.9285 137.977 33.8669 137.624C33.7438 136.874 33.613 136.124 33.4823 135.373C33.2053 133.73 32.8591 132.102 32.5899 130.466C32.5899 130.391 32.4514 130.391 32.4668 130.466C32.7053 132.087 32.8745 133.715 33.1053 135.336C33.2207 136.131 33.3284 136.926 33.4515 137.722L33.59 138.585C31.7349 135.936 29.7263 133.394 27.574 130.969L26.7355 130.023C26.7355 129.933 26.6586 129.843 26.6201 129.753C26.5278 129.528 26.4432 129.303 26.3585 129.07C26.1739 128.605 26.0046 128.132 25.8277 127.66C25.4892 126.729 25.1815 125.791 24.9199 124.838C24.9199 124.763 24.7815 124.801 24.8045 124.838C25.0507 125.814 25.3046 126.782 25.5738 127.742C25.72 128.207 25.8739 128.665 26.0431 129.123C26.0431 129.198 26.097 129.273 26.1277 129.348C24.5891 127.697 22.9505 126.107 21.3119 124.531C21.2581 124.478 21.1734 124.531 21.2273 124.621C24.37 127.828 27.2509 131.27 29.8435 134.916C29.5484 134.825 29.2478 134.752 28.9434 134.698C28.0048 134.518 27.0663 134.39 26.12 134.27C24.1352 134.023 22.1581 133.783 20.1887 133.475C20.1041 133.475 20.0733 133.58 20.1887 133.595C22.0735 133.955 23.9352 134.345 25.8123 134.796C26.697 134.991 27.5817 135.156 28.4664 135.328C29.1921 135.479 29.9066 135.677 30.6051 135.921C30.7974 136.199 31.0051 136.469 31.1974 136.746C32.0898 138.007 32.9438 139.305 33.7823 140.603L32.5437 140.371C31.6052 140.19 30.6589 140.025 29.7204 139.875C27.8664 139.575 26.0046 139.26 24.1737 138.855C24.0968 138.855 24.066 138.96 24.1737 138.975C26.0354 139.403 27.8741 139.898 29.7204 140.378C30.6128 140.611 31.5129 140.821 32.4129 141.016L33.7592 141.301C33.9406 141.347 34.126 141.378 34.3131 141.391C36.0902 144.197 37.7519 147.079 39.2982 150.013C39.9752 151.303 40.6291 152.609 41.2599 153.914C41.8907 155.22 42.4677 156.638 43.0678 158.004C43.1524 158.289 43.5909 158.176 43.4755 157.876Z" fill="#263238"/>
<path d="M31.042 130.616C30.8112 129.483 30.5651 128.365 30.2727 127.224C30.2727 127.149 30.1342 127.186 30.1496 127.224C30.3804 128.334 30.6035 129.475 30.8112 130.563C30.9809 131.682 31.2095 132.791 31.4959 133.887C31.4234 132.788 31.2717 131.694 31.042 130.616Z" fill="#263238"/>
<path d="M23.9434 130.286C23.3818 130.008 22.7818 129.791 22.1971 129.536L21.274 129.183L20.8047 129.003C20.6249 128.946 20.4521 128.871 20.2893 128.778C20.1969 128.718 20.1431 128.868 20.2354 128.883C20.4158 128.931 20.5891 129.001 20.7508 129.093L21.2124 129.295L22.1048 129.678C22.6878 129.945 23.2863 130.178 23.8973 130.376C23.9665 130.428 24.0127 130.316 23.9434 130.286Z" fill="#263238"/>
<path d="M50.2344 136.843C50.2344 136.843 57.5966 123.435 68.7899 121.356C79.9833 119.278 86.8455 130.518 86.8455 130.518C86.8455 130.518 78.6755 140.693 68.3822 142.471C58.0889 144.249 50.2344 136.843 50.2344 136.843Z" fill="#FFC727"/>
<path d="M76.3002 127.366C73.3823 126.981 70.4221 127.016 67.5147 127.471L68.0148 127.209L70.4996 125.963C72.2069 125.042 73.9606 124.206 75.754 123.457C75.8386 123.419 75.754 123.307 75.7078 123.344C73.9538 124.14 72.1383 124.845 70.3842 125.596C69.4995 125.986 68.6379 126.398 67.784 126.841C67.2301 127.126 66.6224 127.396 66.0762 127.741C63.6165 128.223 61.2266 128.996 58.9601 130.045L60.3602 128.544C61.3988 127.426 62.4297 126.256 63.5759 125.243C63.6375 125.19 63.5759 125.108 63.4836 125.16C62.3143 126.196 61.0757 127.156 59.9371 128.237C59.3909 128.762 58.8601 129.302 58.3447 129.865C58.0908 130.143 57.8292 130.428 57.5754 130.728C53.7297 132.736 50.3883 135.551 47.7917 138.97C45.1951 142.388 43.4078 146.326 42.5586 150.499C42.5586 150.575 42.6586 150.612 42.6817 150.537C44.2588 145.425 47.0833 140.762 50.9132 136.948C55.0407 132.861 60.2323 129.947 65.93 128.522C69.3098 127.682 72.8052 127.373 76.2848 127.606C76.3174 127.608 76.3496 127.598 76.3741 127.577C76.3986 127.555 76.4135 127.526 76.4156 127.494C76.4176 127.462 76.4066 127.431 76.385 127.407C76.3633 127.383 76.3328 127.368 76.3002 127.366Z" fill="#263238"/>
<path opacity="0.1" d="M86.8439 130.518C86.8439 130.518 78.6739 140.693 68.3806 142.471C60.5415 143.822 54.0947 139.838 51.456 137.872L50.8867 136.964C50.8867 136.964 56.1872 132.612 66.2189 130.098C76.2506 127.585 86.8439 130.518 86.8439 130.518Z" fill="black"/>
<path d="M69.7861 122.588C68.929 123.076 68.0995 123.61 67.3012 124.186C66.5232 124.765 65.7998 125.41 65.1395 126.114C65.1309 126.128 65.1274 126.143 65.1295 126.159C65.1317 126.175 65.1393 126.189 65.1512 126.2C65.1631 126.21 65.1784 126.217 65.1945 126.217C65.2106 126.218 65.2265 126.214 65.2395 126.204C66.0088 125.574 66.7242 124.944 67.5012 124.351C68.2496 123.751 69.0358 123.197 69.8553 122.693C69.8624 122.688 69.8685 122.682 69.8733 122.676C69.8781 122.669 69.8815 122.661 69.8832 122.653C69.885 122.645 69.8852 122.637 69.8837 122.629C69.8822 122.621 69.8791 122.613 69.8745 122.606C69.87 122.599 69.8641 122.593 69.8572 122.589C69.8503 122.584 69.8425 122.581 69.8343 122.579C69.8261 122.577 69.8176 122.577 69.8093 122.579C69.801 122.58 69.7931 122.583 69.7861 122.588Z" fill="#263238"/>
<path d="M75.9378 124.854C75.5224 125.027 75.0993 125.169 74.6839 125.342L73.4376 125.845C73.353 125.845 73.3914 126.025 73.4837 125.987L74.73 125.492C75.1531 125.327 75.5609 125.139 75.9763 124.974C76.0532 124.944 76.0147 124.824 75.9378 124.854Z" fill="#263238"/>
<path d="M48.7656 153.719C48.7656 153.719 50.735 167.023 60.9898 171.675C71.2446 176.327 83.7458 171.675 83.7458 171.675C83.7458 171.675 78.8607 142.899 48.7656 153.719Z" fill="#FFC727"/>
<path d="M76.6727 163.038C75.7341 162.933 74.7879 162.775 73.857 162.61L72.4723 162.355L71.7568 162.213C71.4799 161.965 71.2106 161.71 70.926 161.462C68.9783 159.798 66.8768 158.314 64.6485 157.028C63.4368 156.327 62.1831 155.699 60.8943 155.144H61.0866L64.4638 155.287C66.7102 155.392 68.9643 155.437 71.2106 155.58C71.2952 155.58 71.2875 155.467 71.2106 155.46C68.9489 155.31 66.7025 155.069 64.4485 154.882L61.1712 154.597L59.4788 154.454L59.048 154.409C58.4633 154.192 57.8786 153.989 57.2786 153.809C54.4833 152.873 51.4767 152.712 48.5932 153.344C46.016 153.989 43.4388 155.64 42.7695 158.288C42.7695 158.378 42.8926 158.446 42.9311 158.356C43.8927 156.105 46.416 155.017 48.6932 154.559C50.2158 154.277 51.776 154.247 53.309 154.469C53.4124 155.154 53.585 155.828 53.8244 156.48C54.109 157.418 54.386 158.356 54.6783 159.286C55.263 161.155 55.9015 163.038 56.4708 164.876C56.4708 164.892 56.4773 164.908 56.4888 164.919C56.5004 164.93 56.516 164.936 56.5323 164.936C56.5487 164.936 56.5643 164.93 56.5759 164.919C56.5874 164.908 56.5939 164.892 56.5939 164.876C56.1169 163.008 55.7092 161.125 55.2476 159.249C55.0245 158.333 54.786 157.418 54.5552 156.503C54.4212 155.863 54.2491 155.232 54.0398 154.612C54.9382 154.765 55.827 154.967 56.7016 155.22C58.2748 155.679 59.8165 156.235 61.3174 156.885C61.4636 157.831 61.6867 158.769 61.9098 159.707C62.1867 160.877 62.5021 162.04 62.8791 163.188C62.8835 163.2 62.8913 163.21 62.9016 163.217C62.912 163.224 62.9242 163.227 62.9368 163.227C62.9493 163.227 62.9616 163.224 62.9719 163.217C62.9822 163.21 62.9901 163.2 62.9945 163.188L62.9483 162.971C62.7175 161.883 62.4714 160.795 62.2329 159.707C62.0482 158.829 61.8713 157.951 61.679 157.08C62.9563 157.634 64.2041 158.25 65.4178 158.926C65.4178 159.196 65.5101 159.474 65.5486 159.722C65.6255 160.172 65.7101 160.629 65.7947 161.087C65.9871 162.108 66.1948 163.136 66.4486 164.149C66.9128 166.111 67.5011 168.043 68.2103 169.934C68.2016 169.944 68.1968 169.958 68.1968 169.971C68.1968 169.985 68.2016 169.998 68.2103 170.009L68.2719 170.076C68.318 170.129 68.3873 170.076 68.3719 170.016C67.9026 168.043 67.3564 166.085 66.9102 164.111C66.6948 163.121 66.4717 162.13 66.264 161.11C66.164 160.614 66.0717 160.119 65.9717 159.609L65.9024 159.166C67.2837 159.956 68.6168 160.823 69.8951 161.763C72.1088 163.379 74.1569 165.201 76.0111 167.203C76.0803 167.285 76.2265 167.203 76.1572 167.082C75.396 166.074 74.582 165.105 73.7185 164.179C73.2031 163.638 72.6646 163.113 72.1184 162.603H72.2876C72.7723 162.685 73.2493 162.753 73.7339 162.813C74.6802 162.941 75.6341 163.031 76.588 163.136C76.7265 163.151 76.7573 163.038 76.6727 163.038Z" fill="#263238"/>
<path d="M69.4751 167.54C69.4751 167.427 69.4751 167.307 69.4136 167.195C69.3521 167.082 69.3136 166.909 69.2905 166.759C69.0828 165.866 68.9059 164.974 68.7366 164.073C68.7366 164.013 68.6289 164.028 68.6289 164.073C68.6914 165.264 68.9512 166.437 69.3982 167.547C69.3982 167.585 69.4828 167.547 69.4751 167.547V167.54Z" fill="#263238"/>
<path d="M60.8867 167.323C60.8867 167.323 60.8867 167.263 60.8252 167.263C60.5329 166.085 60.2559 164.907 60.0097 163.721C59.8789 163.098 59.7482 162.476 59.6251 161.853C59.5558 161.515 59.4943 161.177 59.4328 160.84C59.4059 160.542 59.3306 160.251 59.2097 159.977C59.2053 159.965 59.1974 159.956 59.1871 159.949C59.1768 159.942 59.1645 159.938 59.152 159.938C59.1394 159.938 59.1271 159.942 59.1168 159.949C59.1065 159.956 59.0986 159.965 59.0943 159.977C59.0862 160.582 59.1744 161.184 59.3558 161.763C59.4789 162.408 59.6097 163.061 59.7559 163.706C60.0559 165.019 60.3867 166.325 60.7713 167.615C60.7761 167.629 60.7849 167.64 60.7966 167.648C60.8083 167.656 60.8224 167.661 60.8367 167.661C60.8511 167.661 60.8651 167.656 60.8768 167.648C60.8886 167.64 60.8974 167.629 60.9021 167.615L60.8867 167.323Z" fill="#263238"/>
<path d="M75.7831 159.189C73.9061 158.941 72.0367 158.678 70.1596 158.438C70.0826 158.438 70.0519 158.551 70.1596 158.558C72.029 158.829 73.9061 159.054 75.7831 159.309C75.7831 159.324 75.8216 159.204 75.7831 159.189Z" fill="#263238"/>
<path d="M43.5144 122.519C43.5144 122.519 37.2369 95.6719 66.8165 84.7994C66.8165 84.7994 75.0173 120.148 43.5144 122.519Z" fill="#FFC727"/>
<path d="M49.8964 107.295L50.2118 107.108L51.8889 106.192L55.32 104.324C57.574 103.086 59.805 101.81 62.0744 100.572C62.1514 100.572 62.0744 100.43 62.0129 100.467C59.705 101.675 57.3971 102.808 55.1276 103.986L51.735 105.734L50.3503 106.485C51.335 104.661 52.3889 102.876 53.5506 101.15C55.0892 98.8463 56.7893 96.6478 58.551 94.5168C58.5694 94.4979 58.5793 94.4727 58.5786 94.4466C58.5779 94.4206 58.5666 94.3959 58.5472 94.378C58.5278 94.3601 58.5019 94.3504 58.4752 94.3511C58.4485 94.3518 58.4232 94.3628 58.4049 94.3817C55.8074 96.8398 53.5122 99.5846 51.5658 102.561C51.5658 102.463 51.5658 102.365 51.5658 102.275C51.5658 101.608 51.6196 100.94 51.6273 100.272C51.6273 98.9589 51.5811 97.6457 51.6273 96.3401C51.6273 96.2576 51.5042 96.2651 51.4965 96.3401C51.4427 97.6307 51.2811 98.9213 51.2042 100.212C51.2042 100.85 51.1426 101.495 51.1196 102.14C51.1196 102.485 51.1196 102.891 51.1196 103.266C50.5144 104.211 49.9323 105.169 49.3732 106.14C48.3819 107.89 47.4982 109.697 46.7269 111.55C46.7269 110.882 46.6576 110.214 46.6191 109.546C46.5268 108.046 46.3499 106.612 46.2807 105.142C46.2807 105.126 46.2742 105.111 46.2626 105.099C46.2511 105.088 46.2354 105.082 46.2191 105.082C46.2028 105.082 46.1871 105.088 46.1756 105.099C46.164 105.111 46.1576 105.126 46.1576 105.142C46.1576 106.642 46.1576 108.083 46.1576 109.554C46.1576 110.304 46.2037 111.054 46.2499 111.76C46.2499 112.03 46.2499 112.308 46.3037 112.578C45.3632 114.978 44.6173 117.447 44.0728 119.961C43.5597 122.644 43.1924 125.351 42.9727 128.072C43.2708 125.625 43.7856 123.207 44.5113 120.846C44.8728 119.578 45.2806 118.318 45.6806 117.095C46.9115 116.532 48.0885 115.827 49.2732 115.181L52.989 113.2C55.4584 111.88 57.9202 110.537 60.4666 109.374C60.5358 109.374 60.4666 109.231 60.3973 109.269C57.8202 110.402 55.2199 111.52 52.7043 112.728C51.4427 113.35 50.2041 114.011 48.9732 114.686C47.95 115.249 46.8884 115.812 45.896 116.464C46.1806 115.624 46.4807 114.791 46.8115 113.973C47.7192 111.696 48.7489 109.467 49.8964 107.295Z" fill="#263238"/>
<path d="M47.4042 101.15C47.3995 101.137 47.3907 101.126 47.3789 101.118C47.3672 101.109 47.3532 101.105 47.3388 101.105C47.3245 101.105 47.3104 101.109 47.2987 101.118C47.287 101.126 47.2782 101.137 47.2734 101.15C47.3811 102.651 47.435 104.212 47.6042 105.743C47.6042 105.76 47.6115 105.778 47.6245 105.79C47.6375 105.803 47.6551 105.81 47.6735 105.81C47.6918 105.81 47.7094 105.803 47.7224 105.79C47.7354 105.778 47.7427 105.76 47.7427 105.743C47.6889 104.212 47.5196 102.689 47.4042 101.15Z" fill="#263238"/>
<path d="M61.5826 106.282C59.7362 107.032 57.8668 107.7 56.0205 108.451C55.9744 108.451 56.0205 108.556 56.0205 108.533C57.8899 107.85 59.7286 107.108 61.5903 106.402C61.698 106.372 61.6595 106.252 61.5826 106.282Z" fill="#263238"/>
<path d="M64.3971 93.8943C62.5862 94.7047 60.8288 95.6245 59.1351 96.6481C59.1229 96.6613 59.1153 96.678 59.1136 96.6957C59.112 96.7134 59.1162 96.7312 59.1257 96.7464C59.1352 96.7616 59.1495 96.7734 59.1665 96.78C59.1834 96.7866 59.2021 96.7877 59.2197 96.7831C60.9353 95.8002 62.6816 94.8622 64.4587 93.9993C64.5356 94.0068 64.4664 93.8643 64.3971 93.8943Z" fill="#263238"/>
<path d="M63.939 180.589H21.2812V224.446H63.939V180.589Z" fill="#455A64"/>
<path d="M20.5403 196.115H18.3555V271.239H20.5403V196.115Z" fill="#263238"/>
<path d="M66.6575 196.115H64.4727V271.239H66.6575V196.115Z" fill="#263238"/>
<path d="M44.759 196.115H42.5742V271.239H44.759V196.115Z" fill="#263238"/>
<path d="M65.565 221.64H19.4453V227.711H65.565V221.64Z" fill="#263238"/>
<path d="M235.514 246.702C235.514 246.702 235.514 279.019 235.514 279.042C235.514 285.217 235.46 290.635 235.144 293.433C235.148 293.44 235.151 293.448 235.151 293.456C235.151 293.464 235.148 293.472 235.144 293.478C235.145 294.142 234.987 294.798 234.683 295.392L234.644 295.429C232.767 296.682 182.147 298.378 180.362 297.853C178.578 297.328 179.955 292.33 181.901 290.732C183.847 289.134 202.903 280.04 202.903 280.04L203.218 247.737L235.514 246.702Z" fill="#AD6359"/>
<path d="M235.502 272.401V279.041C235.502 285.217 235.448 290.634 235.133 293.433C235.137 293.44 235.139 293.448 235.139 293.456C235.139 293.463 235.137 293.471 235.133 293.478C235.053 294.131 234.898 294.773 234.671 295.391L234.633 295.429C232.756 296.682 182.135 298.378 180.351 297.853C178.566 297.327 179.943 292.33 181.889 290.732C183.836 289.134 202.891 280.039 202.891 280.039L202.799 273.286L235.502 272.401Z" fill="#C7C7C7"/>
<path d="M180.355 297.853C182.14 298.378 232.76 296.69 234.645 295.43C235.368 294.964 235.545 287.754 235.506 279.042V278.764L202.834 279.515L202.872 280.055C202.872 280.055 183.794 289.157 181.87 290.755C179.947 292.353 178.562 297.35 180.355 297.853Z" fill="#263238"/>
<path d="M180.859 295.925C189.391 295.43 223.825 294.244 232.287 294.424C232.356 294.424 232.356 294.469 232.287 294.477C223.825 295.137 189.406 296.06 180.867 296.09C180.69 296.06 180.682 295.932 180.859 295.925Z" fill="#455A64"/>
<path d="M200.116 280.227C203.455 279.477 207.578 279.867 210.224 282.118C210.332 282.208 210.224 282.343 210.094 282.313C206.848 281.412 203.514 280.851 200.147 280.64C200.096 280.635 200.049 280.613 200.014 280.577C199.979 280.542 199.957 280.495 199.954 280.446C199.95 280.397 199.964 280.348 199.994 280.308C200.024 280.268 200.067 280.239 200.116 280.227Z" fill="#455A64"/>
<path d="M197.751 281.735C201.082 280.985 205.213 281.375 207.86 283.626C207.96 283.709 207.86 283.851 207.721 283.821C204.476 282.918 201.142 282.357 197.774 282.148C197.724 282.142 197.678 282.118 197.644 282.083C197.609 282.047 197.589 282 197.586 281.951C197.584 281.902 197.599 281.853 197.629 281.814C197.659 281.774 197.702 281.747 197.751 281.735Z" fill="#455A64"/>
<path d="M195.37 283.237C198.708 282.487 202.832 282.884 205.478 285.128C205.586 285.218 205.478 285.36 205.348 285.33C202.103 284.426 198.768 283.863 195.4 283.65C195.35 283.645 195.303 283.622 195.268 283.587C195.233 283.551 195.211 283.505 195.208 283.456C195.204 283.407 195.218 283.358 195.248 283.318C195.277 283.278 195.321 283.249 195.37 283.237Z" fill="#455A64"/>
<path d="M238.415 126.894L238.384 129.032L237.145 223.471L237.138 223.831L236.407 280.4L200.973 279.709L207.812 127.006L207.904 124.966L208.25 107.25H238.176L238.415 126.894Z" fill="#455A64"/>
<path d="M202.454 273.947C207.985 273.895 206.393 273.835 211.924 273.85C214.632 273.85 232.426 273.917 234.95 274.352C235.003 274.352 235.003 274.457 234.95 274.464C232.411 274.839 214.625 274.464 211.917 274.419C206.385 274.307 207.978 274.277 202.447 274.104C202.429 274.098 202.415 274.087 202.405 274.073C202.395 274.058 202.39 274.041 202.391 274.023C202.392 274.005 202.398 273.988 202.41 273.975C202.421 273.961 202.437 273.951 202.454 273.947Z" fill="#263238"/>
<path d="M218.323 136.829C218.323 136.813 218.316 136.798 218.305 136.787C218.293 136.775 218.278 136.769 218.261 136.769C218.245 136.769 218.229 136.775 218.218 136.787C218.206 136.798 218.2 136.813 218.2 136.829C218.2 145.871 217.823 150.936 217.6 159.97C217.377 169.004 217.107 178.038 216.83 187.065C216.33 205.125 215.584 223.171 214.9 241.225C214.515 251.349 214.035 261.469 213.461 271.584C213.461 271.598 213.467 271.611 213.477 271.621C213.487 271.631 213.501 271.636 213.515 271.636C213.529 271.636 213.543 271.631 213.553 271.621C213.563 271.611 213.569 271.598 213.569 271.584C214.915 253.575 216.2 235.507 216.938 217.446C217.677 199.385 218.2 181.332 218.284 163.271C218.361 153.134 218.3 146.966 218.323 136.829Z" fill="#263238"/>
<path d="M238.405 126.894L237.143 223.471L213.395 107.25H238.166L238.405 126.894Z" fill="#263238"/>
<path d="M275.254 244.954C275.254 244.954 279.716 276.971 279.716 276.994C280.609 283.116 281.255 288.496 281.347 291.31C281.347 291.31 281.347 291.31 281.347 291.355C281.437 292.011 281.374 292.678 281.163 293.306C281.162 293.321 281.162 293.336 281.163 293.351C279.47 294.852 229.542 303.181 227.704 302.896C225.865 302.61 226.542 297.478 228.211 295.64C229.881 293.801 247.544 282.284 247.544 282.284L243.39 250.236L275.254 244.954Z" fill="#AD6359"/>
<path d="M278.801 270.421C278.801 270.421 279.716 276.971 279.716 276.994C280.609 283.116 281.255 288.496 281.347 291.31C281.347 291.31 281.347 291.31 281.347 291.355C281.362 292.01 281.3 292.665 281.163 293.306C281.162 293.321 281.162 293.336 281.163 293.351C279.47 294.852 229.542 303.181 227.704 302.896C225.865 302.61 226.542 297.478 228.211 295.64C229.881 293.801 247.544 282.284 247.544 282.284L246.49 275.59L278.801 270.421Z" fill="#C7C7C7"/>
<path d="M227.674 302.895C229.52 303.181 279.44 294.844 281.133 293.351C281.787 292.788 280.964 285.63 279.717 276.994L279.671 276.723L247.407 281.751L247.514 282.283C247.514 282.283 229.867 293.809 228.182 295.647C226.497 297.485 225.797 302.603 227.674 302.895Z" fill="#263238"/>
<path d="M227.901 300.914C236.286 299.309 270.212 293.598 278.675 292.661C278.744 292.661 278.752 292.698 278.675 292.713C270.405 294.484 236.409 299.924 227.947 301.079C227.747 301.102 227.724 300.952 227.901 300.914Z" fill="#455A64"/>
<path d="M244.819 282.831C248.027 281.675 252.166 281.495 255.097 283.371C255.212 283.446 255.097 283.604 254.989 283.589C251.65 283.119 248.269 283 244.904 283.236C244.853 283.237 244.804 283.221 244.765 283.19C244.725 283.159 244.698 283.116 244.688 283.068C244.678 283.02 244.685 282.97 244.709 282.926C244.733 282.883 244.772 282.849 244.819 282.831Z" fill="#455A64"/>
<path d="M242.679 284.632C245.887 283.477 250.025 283.297 252.956 285.18C253.072 285.247 252.956 285.405 252.849 285.39C249.509 284.923 246.128 284.805 242.763 285.037C242.713 285.038 242.663 285.022 242.624 284.991C242.585 284.961 242.557 284.917 242.547 284.869C242.537 284.821 242.545 284.771 242.569 284.727C242.593 284.684 242.632 284.65 242.679 284.632Z" fill="#455A64"/>
<path d="M240.534 286.44C243.742 285.284 247.873 285.104 250.812 286.98C250.927 287.055 250.812 287.213 250.704 287.198C247.365 286.724 243.984 286.606 240.619 286.845C240.568 286.846 240.519 286.83 240.479 286.799C240.44 286.768 240.413 286.725 240.403 286.677C240.393 286.629 240.4 286.578 240.424 286.535C240.448 286.492 240.487 286.458 240.534 286.44Z" fill="#455A64"/>
<path d="M211.293 107.22C211.424 107.82 213.516 117.29 215.686 125.423C217.263 131.366 218.886 136.588 219.817 137.129C220.871 137.737 226.01 139.958 227.733 140.655L235.603 214.062L246.242 282.028L281.03 276.776L256.274 128.027L252.243 107.22H211.293Z" fill="#455A64"/>
<path d="M246.449 275.207C251.911 274.352 250.295 274.517 255.803 273.707C258.48 273.316 276.082 270.773 278.644 270.84C278.698 270.84 278.713 270.93 278.644 270.945C276.197 271.696 258.55 273.947 255.865 274.277C250.38 274.967 251.949 274.712 246.456 275.35C246.443 275.343 246.432 275.333 246.424 275.321C246.416 275.309 246.411 275.295 246.41 275.281C246.409 275.266 246.413 275.252 246.419 275.239C246.426 275.226 246.436 275.215 246.449 275.207Z" fill="#263238"/>
<path d="M266.573 254.91C265.703 250.198 264.842 245.486 263.949 240.774C262.17 231.35 260.374 221.928 258.564 212.508C254.933 193.655 251.343 174.786 247.794 155.902C245.809 145.247 245.855 146.245 244.124 135.538C244.124 135.47 243.986 135.478 244.001 135.538C245.663 145.052 244.878 142.966 246.448 152.496C248.017 162.025 249.663 171.352 251.394 180.754C254.871 199.655 258.518 218.526 262.203 237.39C263.229 242.682 264.277 247.967 265.349 253.245C266.426 258.632 267.657 263.99 268.796 269.362C268.796 269.482 269.019 269.475 268.996 269.362C268.196 264.552 267.473 259.72 266.573 254.91Z" fill="#263238"/>
<path d="M257.008 136.243C256.085 136.01 255.092 135.935 254.154 135.793C253.385 135.672 252.615 135.537 251.846 135.38C250.398 135.127 249.026 134.563 247.83 133.729C246.522 132.739 245.853 131.23 245.222 129.782C244.843 128.927 244.458 128.071 244.068 127.216L243.491 125.978C243.223 125.492 242.984 124.991 242.776 124.477C242.776 124.402 242.63 124.477 242.661 124.477C242.791 124.828 242.899 125.186 242.984 125.55C243.114 125.963 243.23 126.376 243.361 126.788C243.599 127.539 243.83 128.289 244.076 129.039C244.45 130.393 244.99 131.698 245.684 132.926C247.084 135.087 249.577 135.965 252.069 136.273C252.785 136.355 253.508 136.408 254.231 136.445C255.137 136.524 256.048 136.524 256.954 136.445C256.975 136.44 256.994 136.429 257.01 136.414C257.025 136.399 257.036 136.38 257.042 136.359C257.047 136.339 257.047 136.317 257.041 136.297C257.035 136.276 257.024 136.258 257.008 136.243Z" fill="#263238"/>
<path d="M217.088 135.831C220.757 137.131 224.302 138.743 227.681 140.649C227.71 140.661 227.732 140.685 227.743 140.714C227.753 140.743 227.752 140.775 227.739 140.802C227.726 140.83 227.701 140.852 227.672 140.862C227.642 140.873 227.61 140.872 227.581 140.859C224.012 139.358 220.373 137.932 216.895 136.252C216.847 136.222 216.812 136.176 216.795 136.122C216.779 136.069 216.783 136.011 216.806 135.961C216.829 135.91 216.87 135.869 216.922 135.845C216.974 135.821 217.033 135.816 217.088 135.831Z" fill="#263238"/>
<path d="M216.01 112.015C216.01 111.895 216.24 111.865 216.24 112.015C216.238 115.899 216.438 119.781 216.84 123.645C217.002 125.439 218.479 135.343 221.672 134.623C222.203 134.503 222.441 133.985 222.556 133.205C222.545 132.179 222.403 131.158 222.133 130.166C221.779 128.087 221.495 126.009 221.318 123.915C220.942 120.015 220.986 116.087 221.449 112.195C221.449 112.169 221.459 112.144 221.478 112.126C221.497 112.108 221.522 112.097 221.549 112.097C221.575 112.097 221.601 112.108 221.619 112.126C221.638 112.144 221.649 112.169 221.649 112.195C221.56 117.606 221.884 123.016 222.618 128.38C223.018 130.954 224.349 134.833 221.587 135.231C218.825 135.628 216.971 129.138 216.61 127.36C215.728 122.292 215.527 117.134 216.01 112.015Z" fill="#263238"/>
<path d="M221.588 134.849C221.869 135.519 222.108 136.206 222.304 136.905C222.509 137.445 222.611 138.017 222.604 138.593C222.599 138.616 222.588 138.638 222.571 138.655C222.554 138.672 222.532 138.684 222.508 138.688C222.484 138.693 222.459 138.691 222.436 138.682C222.414 138.673 222.394 138.658 222.381 138.638C222.037 138.133 221.778 137.578 221.611 136.995C221.365 136.364 221.111 135.727 220.888 135.089C220.856 134.998 220.861 134.899 220.904 134.812C220.946 134.726 221.022 134.659 221.115 134.627C221.208 134.595 221.31 134.601 221.399 134.642C221.487 134.684 221.556 134.758 221.588 134.849Z" fill="#263238"/>
<path d="M256.638 130.211C252.422 129.94 207.902 124.958 207.902 124.958L208.249 107.242H211.326H252.276L256.307 128.05L256.638 130.211Z" fill="#263238"/>
<path d="M225.461 66.5592C220.369 82.1064 211.745 98.1563 209.252 101.315C202.567 109.809 182.48 118.176 176.349 119.256C173.695 119.721 167.333 103.026 168.979 100.73C170.625 98.4339 195.589 89.1296 196.813 87.8916C197.659 87.0287 208.19 73.7926 215.276 65.8089C224.13 55.8818 226.8 62.4924 225.461 66.5592Z" fill="#AD6359"/>
<path d="M174.309 97.4888L184.171 116.998C184.171 116.998 205.135 108.136 210.127 101.811C215.12 95.4854 224.167 74.048 225.513 67.2199C226.86 60.3917 224.536 55.5145 215.159 65.4941C205.781 75.4737 198.011 85.4158 196.334 87.0815C194.657 88.7473 174.309 97.4888 174.309 97.4888Z" fill="#EBEBEB"/>
<path d="M175.141 96.497L186.957 116.711C186.957 116.711 205.42 108.105 210.128 102.455C214.837 96.8047 222.599 79.4567 225.03 70.0924C227.461 60.7281 226.038 54.0875 215.167 65.5453C204.297 77.0031 198.15 85.3244 195.935 87.1927C194.881 88.0031 175.141 96.497 175.141 96.497Z" fill="#37474F"/>
<path d="M180.116 98.3661C180.715 98.3661 181.201 97.8924 181.201 97.3081C181.201 96.7238 180.715 96.2501 180.116 96.2501C179.517 96.2501 179.031 96.7238 179.031 97.3081C179.031 97.8924 179.517 98.3661 180.116 98.3661Z" fill="#263238"/>
<path d="M185.233 96.0704C185.832 96.0704 186.318 95.5968 186.318 95.0125C186.318 94.4281 185.832 93.9545 185.233 93.9545C184.634 93.9545 184.148 94.4281 184.148 95.0125C184.148 95.5968 184.634 96.0704 185.233 96.0704Z" fill="#263238"/>
<path d="M225.027 70.0641C222.596 79.4284 214.841 96.7464 210.125 102.427C208.11 104.85 203.602 107.807 199.086 110.403L222.88 59.5743C226.565 58.5988 226.681 63.7012 225.027 70.0641Z" fill="#263238"/>
<path d="M258.961 122.775C258.838 122.91 205.618 123.067 205.11 122.535C204.425 121.784 216.45 65.5084 221.912 58.5977C223.073 57.097 226.928 56.6994 230.205 57.097C231.059 57.1911 231.904 57.3593 232.728 57.5998H232.82C233.485 57.791 234.112 58.0903 234.674 58.4852C243.783 65.5835 251.461 90.3974 253.253 97.8483C256.253 110.147 259.4 122.287 258.961 122.775Z" fill="#EBEBEB"/>
<path d="M234.52 57.8247C234.52 57.8247 230.189 80.8603 229.435 86.8481C228.681 92.8359 229.789 124.463 229.789 124.463L263.207 126.872C263.207 126.872 255.983 105.937 255.899 104.609C255.899 104.609 249.898 79.5322 244.275 69.0574C241.818 64.7197 238.502 60.9015 234.52 57.8247Z" fill="#37474F"/>
<path d="M263.206 126.872L248.051 125.776L237.234 60.1434V60.1885L244.02 68.6674C244.097 68.8024 244.173 68.9375 244.243 69.0726C249.866 79.5774 255.867 104.624 255.867 104.624C255.982 105.937 263.206 126.872 263.206 126.872Z" fill="#263238"/>
<path d="M221.591 58.3286C221.591 58.3286 218.044 81.6569 217.66 83.5852C217.275 85.5136 211.905 123.556 211.905 123.556L203.543 123.811L207.905 106.418C207.905 106.418 217.606 63.2959 221.591 58.3286Z" fill="#37474F"/>
<path d="M226.474 71.129L224.105 66.627L221.043 69.8835L221.797 73.125L224.813 73.5076L226.474 71.129Z" fill="#263238"/>
<path d="M224.814 73.5073L226.26 106.628L219.898 117.583L216.59 105.254L221.798 73.1246L224.814 73.5073Z" fill="#263238"/>
<path d="M223.479 165.046L223.438 203.944L289.259 204.011L289.301 165.113L223.479 165.046Z" fill="#FFC727"/>
<path opacity="0.1" d="M223.477 165.05L223.457 183.366L289.279 183.433L289.298 165.117L223.477 165.05Z" fill="black"/>
<path d="M221.907 177.47L290.844 177.541L290.863 159.39L221.926 159.32L221.907 177.47Z" fill="#FFC727"/>
<path d="M241.89 148.993L241.875 159.34L246.868 159.347L246.875 153.457L265.916 153.48L265.908 159.37H270.901L270.908 149.015L241.89 148.993Z" fill="#263238"/>
<path d="M276.882 181.854L281.375 181.858L281.384 173.184L276.892 173.18L276.882 181.854Z" fill="#263238"/>
<path d="M231.359 181.818L235.852 181.822L235.861 173.148L231.368 173.144L231.359 181.818Z" fill="#263238"/>
<path d="M241.878 64.7428C256.725 77.8814 266.149 96.6475 266.788 100.437C268.327 109.598 270.273 125.656 269.942 132.702C269.819 135.313 249.532 132.146 249.571 129.355C249.702 120.621 248.509 101.412 248.455 101.075C248.094 98.726 243.678 88.1686 239.224 76.7183C234.77 65.2681 235.631 59.2278 241.878 64.7428Z" fill="#AD6359"/>
<path d="M247.429 156.728C248.02 156.991 248.68 157.07 249.32 156.956C249.959 156.842 250.548 156.54 251.006 156.09C251.585 157.007 252.475 157.698 253.522 158.041C255.391 158.566 257.053 155.933 257.053 155.933C257.859 156.762 258.901 157.337 260.045 157.583C261.884 157.906 263.953 155.482 263.953 155.482C265.123 155.842 266.386 155.783 267.515 155.317C269.431 154.44 271.054 149.082 271.454 145.998C271.854 142.914 270.015 133.798 269.846 132.027L249.567 129.37C249.567 129.37 243.751 142.712 243.813 146.403C243.867 149.532 245.198 155.648 247.429 156.728Z" fill="#AD6359"/>
<path d="M250.697 155.911C249.828 152.617 250.005 149.248 249.99 145.886C249.99 145.87 249.996 145.855 250.008 145.844C250.019 145.832 250.035 145.826 250.051 145.826C250.067 145.826 250.083 145.832 250.095 145.844C250.106 145.855 250.113 145.87 250.113 145.886C250.113 149.232 250.744 152.542 250.882 155.888C250.885 155.912 250.878 155.936 250.863 155.955C250.848 155.974 250.826 155.986 250.801 155.989C250.777 155.992 250.752 155.986 250.733 155.971C250.713 155.956 250.7 155.934 250.697 155.911Z" fill="#263238"/>
<path d="M256.795 155.835C256.671 155.068 256.65 154.289 256.734 153.517C256.734 152.699 256.826 151.873 256.895 151.055C257.029 149.415 257.201 147.779 257.411 146.148C257.411 146.073 257.534 146.073 257.526 146.148C257.403 147.784 257.303 149.42 257.242 151.055C257.242 151.881 257.195 152.699 257.18 153.517C257.214 154.293 257.162 155.07 257.026 155.835C257.017 155.858 257.002 155.878 256.981 155.892C256.96 155.906 256.936 155.913 256.911 155.913C256.886 155.913 256.861 155.906 256.841 155.892C256.82 155.878 256.804 155.858 256.795 155.835Z" fill="#263238"/>
<path d="M263.952 155.415C263.853 154.719 263.874 154.012 264.013 153.322C264.09 152.571 264.159 151.821 264.229 151.071C264.367 149.57 264.498 148.069 264.575 146.569C264.575 146.494 264.698 146.494 264.698 146.569C264.621 148.069 264.567 149.615 264.483 151.138L264.344 153.389C264.36 154.075 264.254 154.758 264.029 155.408C264.025 155.414 264.02 155.42 264.014 155.424C264.007 155.429 264 155.431 263.992 155.432C263.985 155.433 263.977 155.431 263.97 155.429C263.963 155.426 263.957 155.421 263.952 155.415Z" fill="#263238"/>
<path d="M248.578 129.46L271.065 130.646C271.065 130.646 269.403 106.635 267.619 99.9642C265.834 93.2937 250.602 71.0609 241.608 63.0022C233.146 55.4162 233.146 61.7266 236.354 70.6182C239.562 79.5098 247.501 101 247.771 102.568C248.04 104.136 248.578 129.46 248.578 129.46Z" fill="#37474F"/>
<path d="M249.584 125.034C250.445 124.959 251.315 125.034 252.176 125.034C253.038 125.034 253.9 125.071 254.761 125.109C256.423 125.176 258.085 125.274 259.746 125.379L264.724 125.701C266.439 125.814 268.193 125.844 269.893 126.092C269.905 126.096 269.915 126.104 269.922 126.114C269.93 126.124 269.933 126.136 269.933 126.148C269.933 126.16 269.93 126.172 269.922 126.182C269.915 126.192 269.905 126.2 269.893 126.204C268.178 126.272 266.431 126.122 264.716 126.062L259.639 125.859C257.946 125.784 256.254 125.701 254.561 125.596C253.73 125.551 252.899 125.491 252.076 125.401C251.253 125.311 250.392 125.304 249.576 125.146C249.499 125.131 249.522 125.041 249.584 125.034Z" fill="#263238"/>
<path d="M224.904 66.0262C225.781 65.9887 231.604 61.5241 233.366 58.0875C233.489 57.8474 233.035 55.4013 232.635 52.4074C232.397 50.5916 232.173 48.5581 232.112 46.6898C232.112 46.3071 230.789 47.0575 230.789 47.0575L228.327 47.7178L220.203 49.9238C220.968 52.2373 221.439 54.6339 221.603 57.0596C221.612 57.3108 221.594 57.5623 221.549 57.8099C221.553 57.8524 221.553 57.895 221.549 57.9375C221.372 59.4156 223.488 66.0787 224.904 66.0262Z" fill="#AD6359"/>
<path d="M221.581 57.8248C221.584 57.8673 221.584 57.9099 221.581 57.9524C221.993 57.9904 222.408 57.9904 222.819 57.9524C230.897 57.5172 231.566 47.4475 231.566 47.4475L228.374 47.6876L220.25 49.8936C221.015 52.2072 221.486 54.6038 221.65 57.0294C221.657 57.2962 221.634 57.563 221.581 57.8248Z" fill="#263238"/>
<path d="M231.813 30.8569C233.752 34.7662 233.429 46.9668 230.852 50.0657C227.128 54.5678 220.081 56.0009 215.927 51.4163C211.904 46.9818 212.619 31.0895 215.581 28.1556C219.943 23.8937 228.951 25.0792 231.813 30.8569Z" fill="#AD6359"/>
<path d="M221.087 39.7568C221.087 39.7568 221.149 39.7568 221.149 39.8319C221.102 40.6498 221.195 41.6027 221.918 41.8878C221.918 41.8878 221.918 41.9403 221.918 41.9328C221.018 41.7903 220.91 40.5297 221.087 39.7568Z" fill="#263238"/>
<path d="M221.855 38.9162C223.209 38.8412 223.263 41.4974 222.002 41.565C220.74 41.6325 220.717 38.9763 221.855 38.9162Z" fill="#263238"/>
<path d="M216.209 39.9827C216.209 39.9827 216.147 40.0202 216.147 40.0577C216.186 40.8756 216.094 41.8285 215.332 42.1136V42.1587C216.271 42.0086 216.386 40.733 216.209 39.9827Z" fill="#263238"/>
<path d="M215.438 39.1253C214.084 39.0503 214.023 41.7065 215.284 41.7741C216.546 41.8416 216.562 39.2304 215.438 39.1253Z" fill="#263238"/>
<path d="M222.913 37.6853C222.536 37.5953 222.206 37.4602 221.852 37.3402C221.459 37.2721 221.101 37.0764 220.836 36.7849C220.77 36.6795 220.743 36.5555 220.758 36.4329C220.773 36.3103 220.831 36.1964 220.921 36.1096C221.122 35.9591 221.361 35.8638 221.612 35.8335C221.864 35.8032 222.119 35.8389 222.352 35.937C222.855 36.0668 223.291 36.3744 223.575 36.7999C223.634 36.9004 223.662 37.0154 223.655 37.1311C223.649 37.2467 223.608 37.358 223.538 37.4516C223.468 37.5452 223.372 37.6171 223.261 37.6585C223.15 37.7 223.03 37.7093 222.913 37.6853Z" fill="#263238"/>
<path d="M214.364 37.8138C214.728 37.7357 215.088 37.638 215.441 37.5212C215.834 37.4678 216.199 37.2913 216.48 37.0185C216.551 36.916 216.586 36.793 216.577 36.6693C216.569 36.5455 216.518 36.4281 216.434 36.3356C216.24 36.1747 216.006 36.0675 215.756 36.0252C215.505 35.983 215.248 36.0072 215.01 36.0955C214.502 36.2004 214.052 36.4867 213.749 36.8984C213.685 36.9959 213.652 37.1093 213.652 37.2249C213.653 37.3405 213.688 37.4534 213.753 37.5501C213.818 37.6468 213.91 37.7231 214.019 37.7699C214.127 37.8167 214.247 37.8319 214.364 37.8138Z" fill="#263238"/>
<path d="M221.072 44.9265C220.865 45.2552 220.589 45.5384 220.263 45.7579C219.938 45.9775 219.569 46.1287 219.18 46.2021C218.842 46.2736 218.494 46.2963 218.149 46.2696C218.083 46.2774 218.016 46.2774 217.949 46.2696H217.764C217.72 46.2616 217.679 46.2397 217.649 46.2072C217.618 46.1747 217.6 46.1334 217.595 46.0895C217.591 46.0621 217.591 46.0344 217.595 46.007V45.932C217.595 45.3017 217.595 44.3412 217.595 44.3412C217.357 44.4613 216.157 45.009 216.172 44.6789C216.197 41.8256 216.519 38.9822 217.134 36.1925C217.134 36.1726 217.142 36.1535 217.156 36.1394C217.171 36.1253 217.19 36.1174 217.211 36.1174C217.231 36.1174 217.251 36.1253 217.265 36.1394C217.279 36.1535 217.288 36.1726 217.288 36.1925C217.288 38.8337 216.795 41.4449 216.749 44.1011C217.175 43.8979 217.628 43.754 218.095 43.6734C218.188 43.6734 217.972 45.5343 218.011 45.8194C218.542 45.8622 219.077 45.7999 219.584 45.6361C220.09 45.4724 220.557 45.2106 220.957 44.8665C221.057 44.8064 221.119 44.859 221.072 44.9265Z" fill="#263238"/>
<path d="M218.527 45.9391C218.888 46.3858 219.363 46.7324 219.904 46.9445C220.202 47.053 220.528 47.0688 220.835 46.9895C221.512 46.802 221.512 46.2392 221.381 45.6839C221.306 45.4229 221.2 45.1712 221.066 44.9336C220.351 45.5233 219.462 45.8755 218.527 45.9391Z" fill="#263238"/>
<path d="M219.906 46.9444C220.204 47.0529 220.53 47.0687 220.837 46.9894C221.514 46.8019 221.514 46.2391 221.383 45.6838C221.029 45.7041 220.691 45.8391 220.423 46.0673C220.156 46.2956 219.974 46.6042 219.906 46.9444Z" fill="#FF9ABB"/>
<path d="M213.859 32.2373C214.298 31.1868 214.813 30.1288 215.452 29.9037C216.09 29.6786 216.544 31.2093 218.014 31.2768C219.991 31.3744 220.914 29.5885 223.676 29.3484C227.638 29.0033 229.445 32.2072 229.653 37.6998C229.83 42.5995 232.884 43.0047 232.884 43.0047C232.884 43.0047 234.515 32.1547 231.346 28.6281C228.176 25.1015 220.945 23.6533 216.19 27.1274C214.429 28.4405 213.859 32.2373 213.859 32.2373Z" fill="#263238"/>
<path d="M230.305 41.1221C230.305 41.1221 232.528 36.9126 234.451 37.633C236.375 38.3533 235.074 44.206 233.074 45.249C232.827 45.3991 232.552 45.4988 232.265 45.5423C231.977 45.5858 231.684 45.5721 231.402 45.5019C231.12 45.4318 230.856 45.3068 230.625 45.1344C230.394 44.9619 230.202 44.7457 230.059 44.4986L230.305 41.1221Z" fill="#AD6359"/>
<path d="M234.036 39.3068C234.036 39.3068 234.082 39.3443 234.036 39.3593C232.643 40.1096 232.051 41.5653 231.728 43.021C231.793 42.8649 231.892 42.7245 232.018 42.6097C232.144 42.4948 232.295 42.4083 232.459 42.3561C232.623 42.3039 232.797 42.2874 232.968 42.3076C233.14 42.3278 233.305 42.3844 233.451 42.4732C233.49 42.4732 233.451 42.5558 233.451 42.5558C233.181 42.5089 232.903 42.5452 232.655 42.6594C232.407 42.7737 232.201 42.9603 232.066 43.1936C231.841 43.5834 231.661 43.996 231.528 44.4241C231.482 44.5667 231.228 44.5292 231.259 44.3716C230.936 42.5107 232.043 39.757 234.036 39.3068Z" fill="#263238"/>
<path d="M221.542 58.1098L224.442 65.058L233.243 56.2789L235.751 59.0852C235.751 59.0852 227.15 72.9966 227.096 72.3889L224.157 66.4311L219.949 70.588L220.265 60.1657L221.542 58.1098Z" fill="#EBEBEB"/>
<path d="M219.803 65.4332C219.919 63.7149 219.98 61.9741 220.173 60.2634C220.173 60.2033 220.28 60.1808 220.296 60.2634C220.65 61.9216 220.188 68.5172 220.196 70.0704C220.373 69.8903 224.096 66.4162 224.135 66.4687C224.773 67.4142 226.927 71.7211 227.073 72.1488C228.435 69.9353 233.643 61.8916 235.259 59.7981C235.269 59.7898 235.281 59.7847 235.294 59.7836C235.307 59.7826 235.32 59.7857 235.331 59.7923C235.342 59.799 235.351 59.809 235.356 59.8209C235.361 59.8327 235.362 59.8458 235.359 59.8582C234.182 62.1542 227.289 72.9967 227.181 72.9967C226.046 70.948 225.019 68.8444 224.104 66.6938C223.473 67.4442 219.711 71.3835 219.696 71.1284C219.63 69.2295 219.666 67.3285 219.803 65.4332Z" fill="#263238"/>
<path d="M122.175 65.268C131.852 83.8991 141.684 128.717 142.6 134.713C143.223 138.787 121.259 142.471 121.259 139.65C121.259 136.033 116.828 93.7287 117.251 77.011C117.482 67.7892 120.174 61.4187 122.175 65.268Z" fill="#EB9481"/>
<path d="M121.17 137.865C120.816 140.319 121.655 148.82 123.301 155.123C124.07 158.199 127.363 166.791 129.832 166.378C132.302 165.965 131.571 163.377 131.571 163.377C131.571 163.377 133.51 166.798 135.948 166.16C138.387 165.523 137.133 161.516 137.133 161.516C137.133 161.516 139.379 164.9 141.749 164.09C144.118 163.279 142.172 159.46 142.172 159.46C142.172 159.46 144.087 162.649 145.764 161.171C147.788 159.392 143.587 153.915 142.88 150.471C142.718 149.72 140.756 134.398 140.756 134.398L121.17 137.865Z" fill="#EB9481"/>
<path d="M142.207 159.406C139.129 155.369 138.499 153.081 138.114 148.151C138.109 148.134 138.098 148.119 138.083 148.109C138.069 148.099 138.051 148.093 138.033 148.093C138.015 148.093 137.998 148.099 137.983 148.109C137.969 148.119 137.958 148.134 137.952 148.151C137.883 153.021 138.252 155.999 142.014 159.579C142.199 159.736 142.353 159.594 142.207 159.406Z" fill="#263238"/>
<path d="M137.201 161.733C134.377 157.268 133.669 154.792 132.869 149.652C132.869 149.577 132.731 149.585 132.739 149.652C133.085 154.762 133.508 157.726 136.947 161.83C137.101 162.025 137.331 161.935 137.201 161.733Z" fill="#263238"/>
<path d="M131.344 163.039C128.936 158.537 128.044 155.843 127.929 150.756C127.923 150.735 127.91 150.717 127.893 150.704C127.875 150.692 127.854 150.685 127.832 150.685C127.811 150.685 127.79 150.692 127.772 150.704C127.755 150.717 127.742 150.735 127.736 150.756C127.336 155.955 128.429 159.31 131.198 163.106C131.39 163.324 131.498 163.294 131.344 163.039Z" fill="#263238"/>
<path d="M142.457 133.648C142.457 133.648 145.995 138.9 147.026 141.579C148.057 144.258 148.173 155.49 145.68 155.655C142.464 155.866 141.064 149.375 140.833 146.111C140.833 146.111 133.387 146.599 131.371 142.149C129.355 137.7 142.457 133.648 142.457 133.648Z" fill="#EB9481"/>
<path d="M144.779 155.423C141.702 153.554 141.656 149.247 141.171 146.096C141.166 146.049 141.15 146.004 141.123 145.964C141.096 145.925 141.06 145.893 141.018 145.87C140.976 145.847 140.928 145.834 140.88 145.833C140.832 145.832 140.784 145.842 140.74 145.863C137.609 145.863 133.186 144.978 131.293 142.337C131.289 142.326 131.283 142.317 131.275 142.31C131.267 142.302 131.257 142.296 131.247 142.293C131.236 142.289 131.225 142.288 131.214 142.289C131.203 142.29 131.192 142.293 131.182 142.299C131.173 142.304 131.165 142.312 131.158 142.321C131.152 142.33 131.148 142.34 131.146 142.351C131.144 142.361 131.144 142.372 131.147 142.383C131.15 142.393 131.155 142.403 131.163 142.412C132.793 145.518 137.071 146.734 140.502 146.516C140.948 149.75 141.187 154.072 144.756 155.453C144.779 155.46 144.795 155.438 144.779 155.423Z" fill="#263238"/>
<path d="M144.704 132.386L119.755 136.138C119.755 136.138 115.778 90.9596 115.632 75.7951C115.486 60.6307 121.071 56.9165 127.064 72.4261C133.056 87.9357 144.704 132.386 144.704 132.386Z" fill="#FFC727"/>
<path d="M119.633 132.334C129.842 130.083 140.912 129.25 142.835 128.972C142.927 128.972 142.935 129.1 142.835 129.107C140.943 129.288 128.388 131.591 119.633 132.484C119.564 132.492 119.556 132.349 119.633 132.334Z" fill="#263238"/>
<path d="M174.931 297.815C173.2 298.363 122.465 297.62 120.603 296.427C120.38 296.292 120.349 291.82 120.411 285.69L117.941 249.276L150.044 249.366L152.583 280.88C152.583 280.88 159.784 284.122 165.723 286.958C168.321 288.11 170.847 289.413 173.285 290.86C175.201 292.42 176.662 297.275 174.931 297.815Z" fill="#EB9481"/>
<path d="M174.927 297.815C173.196 298.363 122.461 297.62 120.599 296.427C120.376 296.292 120.345 291.82 120.407 285.689C132.939 288.413 166.357 292.825 167.334 290.266C167.726 289.238 166.926 288.075 165.734 287.002C168.333 288.154 170.858 289.457 173.296 290.904C175.196 292.42 176.658 297.275 174.927 297.815Z" fill="#263238"/>
<path d="M104.387 116.743C104.387 116.743 113.48 210.852 113.68 211.992C113.68 212.142 113.78 213.883 113.865 216.712C114.372 232.236 115.619 280.649 115.619 280.649H153.761C153.761 280.649 151.276 223.307 149.845 209.936C148.022 192.866 136.813 116.743 136.813 116.743H104.387Z" fill="#37474F"/>
<path d="M118.221 215.173C117.046 195.634 115.279 176.125 112.92 156.646C111.581 145.691 109.966 134.773 108.366 123.848C108.366 123.751 108.197 123.758 108.212 123.848C111.166 143.29 113.251 162.866 115.051 182.458C116.851 202.049 118.128 221.596 118.898 241.21C119.367 252.315 119.721 263.435 120.082 274.548C120.092 274.596 120.118 274.639 120.157 274.67C120.195 274.701 120.244 274.718 120.294 274.718C120.344 274.718 120.392 274.701 120.431 274.67C120.47 274.639 120.496 274.596 120.505 274.548C119.998 254.769 119.413 234.96 118.221 215.173Z" fill="#263238"/>
<path d="M151.348 274.653C150.348 274.526 149.263 274.563 148.271 274.533C147.132 274.533 145.963 274.481 144.84 274.443C142.632 274.36 140.416 274.3 138.208 274.27C133.754 274.195 129.292 274.225 124.846 274.36L121.168 274.488C119.861 274.533 118.553 274.653 117.245 274.646C117.153 274.646 117.153 274.758 117.245 274.758C119.484 274.758 121.753 274.946 123.999 275.028C126.246 275.111 128.415 275.141 130.623 275.171C135.077 275.231 139.547 275.171 143.994 275.036C145.217 274.991 146.44 274.976 147.663 274.938L149.633 274.841C150.217 274.841 150.794 274.841 151.379 274.788C151.456 274.788 151.448 274.668 151.348 274.653Z" fill="#263238"/>
<path d="M131.943 116.743L114.518 239.32C114.272 230.181 114.026 221.732 113.865 216.712C113.78 213.883 113.711 212.142 113.68 211.992C113.464 210.852 104.387 116.743 104.387 116.743H131.943Z" fill="#263238"/>
<path d="M111.032 304.343C109.217 304.2 62.6739 284.481 61.4277 282.68C61.2738 282.478 62.9663 278.336 65.4819 272.701L75.7444 237.434L105.439 249.057L97.0617 280.369C97.0617 280.369 102.447 286.064 106.801 290.874C108.746 292.915 110.565 295.068 112.248 297.319C113.409 299.458 112.84 304.493 111.032 304.343Z" fill="#EB9481"/>
<path d="M111.032 304.343C109.217 304.2 62.6739 284.481 61.4277 282.68C61.2738 282.478 62.9663 278.336 65.4819 272.701C75.9829 279.919 105.086 296.517 107.024 294.521C107.793 293.726 107.509 292.345 106.832 290.904C108.777 292.946 110.595 295.098 112.279 297.35C113.409 299.458 112.84 304.493 111.032 304.343Z" fill="#263238"/>
<path d="M62.1406 269.07L99.3518 280.325C99.3518 280.325 117.523 218.159 118.915 203.557C120.292 189.083 121.623 159.512 122.215 138.06C122.215 138.06 128.431 134.473 130.008 132.515C131.586 130.556 133.001 123.51 136.109 116.757H90.5817C79.7038 137.369 87.8892 146.539 87.8892 151.033C87.8892 172.733 84.5273 201.539 83.458 205.808C81.227 214.707 62.1406 269.07 62.1406 269.07Z" fill="#37474F"/>
<path d="M99.267 272.386C98.3361 272.011 97.2822 271.778 96.3129 271.486C95.2128 271.163 94.105 270.863 93.0125 270.533C90.9047 269.895 88.7814 269.287 86.6581 268.702C82.3757 267.511 78.0625 266.416 73.7185 265.415L70.1335 264.613C68.8642 264.327 67.564 264.11 66.287 263.78C66.187 263.78 66.1639 263.862 66.287 263.892C68.4564 264.447 70.5951 265.205 72.7414 265.851C74.8878 266.496 76.9803 267.074 79.1036 267.666C83.3886 268.844 87.7121 269.917 92.0509 270.9C93.251 271.163 94.4358 271.456 95.6282 271.733L97.5437 272.146C98.113 272.274 98.6669 272.454 99.2439 272.536C99.2643 272.539 99.2851 272.534 99.3017 272.522C99.3183 272.51 99.3293 272.492 99.3324 272.472C99.3354 272.453 99.3302 272.432 99.318 272.416C99.3057 272.4 99.2874 272.389 99.267 272.386Z" fill="#263238"/>
<path d="M131.072 132.026C128.899 133 126.836 134.192 124.917 135.583C122.878 136.949 121.001 138.517 119.04 139.98C118.963 140.04 119.04 140.16 119.117 140.108C121.186 138.817 123.355 137.684 125.402 136.356C127.456 135.14 129.393 133.744 131.187 132.184C131.241 132.124 131.172 131.989 131.072 132.026Z" fill="#263238"/>
<path d="M131.359 119.519C131.097 120.899 130.751 122.272 130.444 123.645C130.136 125.019 129.944 126.249 129.597 127.525C129.311 128.759 128.668 129.886 127.743 130.774C127.228 131.246 126.651 131.659 126.097 132.094C125.805 132.327 125.482 132.545 125.174 132.785C125.212 132.597 125.243 132.417 125.274 132.222C125.374 131.704 125.466 131.179 125.551 130.654C125.751 129.491 125.943 128.32 126.128 127.157C126.489 124.861 126.82 122.542 127.313 120.269C127.318 120.249 127.314 120.228 127.304 120.21C127.293 120.193 127.275 120.18 127.255 120.175C127.234 120.17 127.213 120.173 127.195 120.184C127.177 120.194 127.164 120.211 127.159 120.231C126.574 122.482 125.928 124.733 125.42 126.984C125.166 128.095 124.274 133.588 124.235 133.978C124.197 134.368 124.158 134.781 124.143 135.186C124.093 135.597 124.093 136.013 124.143 136.424C124.143 136.521 124.297 136.506 124.335 136.424C124.508 136.043 124.629 135.642 124.697 135.231C124.797 134.841 124.889 134.443 124.958 134.045C124.958 133.903 125.005 133.753 125.028 133.603C125.582 133.272 126.097 132.852 126.62 132.477C127.143 132.102 127.743 131.727 128.274 131.261C129.252 130.456 129.958 129.381 130.297 128.178C130.639 126.881 130.863 125.558 130.967 124.223C131.144 122.662 131.274 121.094 131.498 119.541C131.521 119.519 131.374 119.443 131.359 119.519Z" fill="#263238"/>
<path d="M130.404 59.6864C129.673 68.5029 128.765 77.5671 126.657 86.1811C125.011 92.8892 121.272 98.1041 113.81 98.8019C106.886 99.4472 97.3084 98.0516 92.231 92.9417C89.8616 90.5631 89.3462 87.5768 89.9693 84.3953C90.8386 79.9757 97.8931 56.0547 100.039 48.5812C101.347 44.0341 102.64 39.4195 104.763 35.1425C109.21 26.1384 113.995 26.8887 114.656 26.7762C115.279 26.491 119.157 25.3955 124.142 27.7066C125.453 28.3038 126.621 29.1647 127.567 30.2328C128.514 31.3009 129.218 32.5522 129.634 33.9045C132.281 41.9482 131.112 51.4326 130.404 59.6864Z" fill="#263238"/>
<path d="M113.009 27.8795C106.908 29.7254 104.677 35.6531 102.523 40.9355C99.5229 48.2964 96.6457 55.7098 94.1378 63.2508C92.9377 66.875 91.8299 70.5292 90.8067 74.2059C89.8451 77.7325 88.5911 81.4617 88.3296 85.1159C87.8988 91.1187 93.13 94.6303 98.4536 96.2135C98.5066 96.2304 98.5644 96.2261 98.6142 96.2015C98.664 96.1768 98.7017 96.1339 98.719 96.0822C98.7364 96.0305 98.7319 95.9741 98.7067 95.9256C98.6814 95.877 98.6374 95.8402 98.5844 95.8233C95.5687 94.8104 92.53 93.5723 90.5375 90.9986C87.9757 87.7271 88.8527 84.0204 89.722 80.3287C91.2145 74.0408 93.0685 67.8504 95.1071 61.7276C97.1458 55.6048 99.4999 49.542 101.9 43.5317C104.208 37.8066 106.339 30.1531 112.993 27.9771C113.093 27.9771 113.07 27.857 113.009 27.8795Z" fill="#263238"/>
<path d="M131.334 40.6494C130.888 35.9297 129.072 31.1425 124.325 29.1541C130.434 31.9904 131.034 39.0061 131.08 44.7988C131.131 50.9066 130.954 57.0044 130.549 63.0922C130.164 68.9524 129.641 74.8427 128.71 80.6428C127.703 86.9007 125.71 92.6484 121.187 97.293C121.177 97.3019 121.168 97.3126 121.162 97.3246C121.157 97.3366 121.153 97.3495 121.152 97.3628C121.152 97.376 121.154 97.3893 121.158 97.4018C121.163 97.4143 121.17 97.4258 121.179 97.4356C121.188 97.4455 121.199 97.4535 121.211 97.4592C121.224 97.4649 121.237 97.4682 121.25 97.4689C121.264 97.4696 121.278 97.4677 121.29 97.4632C121.303 97.4588 121.315 97.452 121.325 97.4431C125.656 93.7589 127.71 88.1613 128.764 82.8039C130.036 75.6915 130.825 68.5051 131.126 61.2914C131.526 54.5008 131.98 47.485 131.334 40.6494Z" fill="#263238"/>
<path d="M112.647 60.8862C112.939 61.6365 117.424 66.2137 121.055 65.5909C122.232 65.3808 121.363 59.0403 121.363 59.0403L121.409 58.5601L122.04 51.807L113.478 47.8602L112.254 47.35C112.254 47.35 112.201 49.2108 112.17 51.5219C112.17 51.6344 112.17 51.7395 112.17 51.852C112.162 51.9795 112.162 52.1073 112.17 52.2347C112.17 52.5799 112.17 52.9325 112.17 53.2852C112.17 53.6379 112.17 53.8105 112.17 54.0881C112.17 54.3657 112.17 54.6508 112.17 54.9285C112.19 56.9226 112.349 58.9131 112.647 60.8862Z" fill="#EB9481"/>
<path d="M112.172 51.5219C113.095 53.278 114.399 54.8171 115.993 56.0324C117.587 57.2478 119.433 58.1103 121.403 58.5601L122.034 51.807L113.48 47.8602L112.256 47.35C112.256 47.35 112.203 49.2108 112.172 51.5219Z" fill="#263238"/>
<path d="M130.847 41.865C131.816 53.7204 124.646 55.6263 122.023 55.8289C119.638 56.009 111.506 56.3391 109.291 44.6337C107.075 32.9284 112.422 28.7264 117.845 28.0511C123.269 27.3758 129.885 30.002 130.847 41.865Z" fill="#EB9481"/>
<path d="M128.791 39.3442C128.513 39.3043 128.238 39.2492 127.967 39.1791C127.667 39.1614 127.38 39.0481 127.152 38.8565C127.094 38.782 127.062 38.6911 127.062 38.5976C127.062 38.5041 127.094 38.4132 127.152 38.3387C127.289 38.2096 127.459 38.1181 127.644 38.0733C127.829 38.0285 128.023 38.032 128.206 38.0836C128.598 38.1317 128.956 38.3252 129.206 38.6239C129.261 38.6938 129.293 38.7777 129.299 38.8654C129.305 38.9531 129.285 39.0406 129.241 39.1171C129.197 39.1937 129.131 39.256 129.051 39.2964C128.971 39.3367 128.88 39.3533 128.791 39.3442Z" fill="#263238"/>
<path d="M120.703 39.5086C120.987 39.471 121.241 39.396 121.526 39.336C121.812 39.3047 122.081 39.1866 122.295 38.9983C122.354 38.9244 122.386 38.8333 122.386 38.7395C122.386 38.6456 122.354 38.5545 122.295 38.4806C122.156 38.3521 121.984 38.2621 121.798 38.2199C121.611 38.1777 121.416 38.1848 121.233 38.2405C120.846 38.301 120.496 38.4987 120.249 38.7957C120.193 38.8683 120.161 38.9556 120.157 39.0462C120.153 39.1368 120.177 39.2265 120.226 39.3035C120.275 39.3806 120.347 39.4414 120.432 39.478C120.517 39.5145 120.611 39.5252 120.703 39.5086Z" fill="#263238"/>
<path d="M122.6 42.5031C122.6 42.5031 122.539 42.503 122.539 42.5706C122.593 43.381 122.539 44.3189 121.77 44.6115C121.77 44.6115 121.77 44.664 121.77 44.6565C122.708 44.484 122.785 43.2609 122.6 42.5031Z" fill="#263238"/>
<path d="M121.833 41.6784C120.495 41.6259 120.479 44.2371 121.718 44.2896C122.957 44.3421 122.957 41.7234 121.833 41.6784Z" fill="#263238"/>
<path d="M121.311 41.813C121.073 41.963 120.842 42.2181 120.542 42.2481C120.242 42.2782 119.973 42.0005 119.773 41.7379H119.727C119.727 42.2331 119.904 42.7509 120.496 42.8259C121.088 42.901 121.365 42.4582 121.496 41.9555C121.488 41.8955 121.404 41.7529 121.311 41.813Z" fill="#263238"/>
<path d="M127.218 42.3231C127.218 42.3231 127.279 42.3231 127.279 42.3906C127.241 43.201 127.333 44.139 128.087 44.4166C128.087 44.4166 128.087 44.4691 128.087 44.4616C127.164 44.3265 127.049 43.081 127.218 42.3231Z" fill="#263238"/>
<path d="M127.971 41.4822C129.302 41.4071 129.371 44.0183 128.132 44.0934C126.894 44.1684 126.847 41.5497 127.971 41.4822Z" fill="#263238"/>
<path d="M128.534 41.6474C128.749 41.7749 128.965 42.0225 129.218 42.0376C129.472 42.0526 129.718 41.7599 129.903 41.4823H129.942C129.942 41.9775 129.811 42.5028 129.326 42.6078C128.841 42.7129 128.557 42.2852 128.403 41.7974C128.38 41.7299 128.449 41.5873 128.534 41.6474Z" fill="#263238"/>
<path d="M126.007 45.9846C126.007 45.9846 126.184 47.1927 126.184 47.763C126.184 47.823 126.046 47.8455 125.845 47.8605C125.344 47.9531 124.825 47.9089 124.348 47.7329C123.87 47.5568 123.451 47.2557 123.138 46.8626C123.126 46.8506 123.12 46.8348 123.121 46.8186C123.122 46.8024 123.129 46.7872 123.141 46.7763C123.154 46.7653 123.17 46.7596 123.186 46.7603C123.203 46.761 123.219 46.7681 123.23 46.78C123.976 47.2754 124.867 47.5204 125.769 47.4778C125.807 47.3203 125.392 45.4144 125.484 45.4069C125.939 45.4424 126.387 45.5384 126.815 45.692C126.522 43.1633 125.815 40.7022 125.553 38.1886C125.553 38.1687 125.561 38.1496 125.576 38.1355C125.59 38.1214 125.61 38.1135 125.63 38.1135C125.65 38.1135 125.67 38.1214 125.684 38.1355C125.699 38.1496 125.707 38.1687 125.707 38.1886C126.551 40.8052 127.125 43.4972 127.423 46.2248C127.446 46.4799 126.238 46.0597 126.007 45.9846Z" fill="#263238"/>
<path d="M126.942 43.1107C126.757 41.1748 127.672 39.5091 128.98 39.359C130.288 39.2089 131.511 40.7096 131.696 42.6455C131.881 44.5814 130.927 46.2472 129.657 46.3972C128.388 46.5473 127.126 45.0466 126.942 43.1107ZM127.426 43.0657C127.588 44.739 128.565 46.022 129.611 45.932C130.657 45.842 131.381 44.3938 131.219 42.7205C131.057 41.0473 130.073 39.7642 129.026 39.8542C127.98 39.9443 127.265 41.3924 127.426 43.0657Z" fill="#263238"/>
<path d="M117.903 43.944C117.887 43.3027 118.063 42.6706 118.41 42.1254C118.756 41.5803 119.259 41.1457 119.855 40.8751C120.451 40.6044 121.116 40.5096 121.766 40.602C122.417 40.6945 123.026 40.9704 123.519 41.3957C124.011 41.821 124.365 42.3774 124.538 42.9963C124.711 43.6153 124.695 44.2701 124.491 44.8801C124.288 45.4902 123.906 46.0291 123.393 46.4307C122.88 46.8322 122.258 47.0789 121.604 47.1405C120.679 47.1918 119.772 46.8846 119.078 46.2858C118.385 45.6871 117.963 44.8453 117.903 43.944ZM118.388 43.899C118.486 44.4385 118.743 44.9385 119.127 45.338C119.512 45.7374 120.007 46.0191 120.553 46.1485C121.099 46.2779 121.672 46.2495 122.201 46.0667C122.731 45.884 123.194 45.5548 123.535 45.1193C123.876 44.6838 124.08 44.161 124.121 43.6146C124.162 43.0681 124.04 42.5218 123.768 42.0423C123.496 41.5627 123.087 41.1708 122.591 40.9142C122.095 40.6576 121.532 40.5475 120.973 40.5974C120.182 40.7019 119.465 41.1082 118.981 41.7271C118.496 42.3459 118.283 43.127 118.388 43.899Z" fill="#263238"/>
<path d="M124.423 43.0215C126.161 42.2711 127.031 42.7439 127.038 42.7514L127.3 42.3537C127.261 42.3537 126.231 41.6934 124.223 42.5938L124.423 43.0215Z" fill="#263238"/>
<path d="M118.096 43.6134L118.142 43.1407C117.819 43.1407 110.356 42.4653 109.556 42.4954C108.756 42.5254 106.856 43.7784 106.648 43.921L106.925 44.3112C107.716 43.7282 108.6 43.2769 109.541 42.9756H109.633C110.218 42.9831 115.442 43.3808 118.096 43.6134Z" fill="#263238"/>
<path d="M109.633 43.7858C110.948 43.7107 114.379 40.1616 114.487 33.9487C114.487 33.9487 113.995 39.5238 113.572 40.3417C113.148 41.1596 115.487 38.3458 115.641 33.341C117.262 34.4686 119.039 35.3655 120.918 36.0047C123.342 36.665 124.826 36.6425 125.003 36.4699C125.18 36.2973 121.603 35.2018 120.634 34.1213C120.634 34.1213 127.096 37.0402 130.065 37.2653C130.412 37.2653 130.835 30.3846 126.219 27.4582C121.603 24.5319 114.333 27.6983 112.371 29.5442C112.371 29.5442 110.064 29.8593 107.579 33.1834C105.094 36.5074 108.217 43.8683 109.633 43.7858Z" fill="#263238"/>
<path d="M111.291 45.3992C111.291 45.3992 108.652 41.6474 106.921 42.5779C105.19 43.5083 107.144 48.8883 109.168 49.6386C109.42 49.7523 109.694 49.815 109.972 49.8231C110.251 49.8312 110.528 49.7845 110.787 49.6857C111.046 49.5869 111.282 49.4382 111.481 49.2483C111.68 49.0584 111.838 48.8313 111.945 48.5806L111.291 45.3992Z" fill="#EB9481"/>
<path d="M107.523 44.109V44.1615C108.939 44.7393 109.677 46.0299 110.193 47.3655C110.112 47.2253 110.001 47.104 109.867 47.0101C109.733 46.9162 109.58 46.852 109.418 46.822C109.256 46.792 109.089 46.7969 108.929 46.8363C108.77 46.8758 108.621 46.9488 108.493 47.0504C108.493 47.0504 108.493 47.1329 108.531 47.1254C108.782 47.0487 109.05 47.0502 109.3 47.1295C109.55 47.2089 109.768 47.3622 109.924 47.5681C110.184 47.9118 110.406 48.2815 110.585 48.6711C110.647 48.7987 110.878 48.7311 110.831 48.5886C110.862 46.7877 109.47 44.3041 107.523 44.109Z" fill="#263238"/>
<path d="M110.871 49.3684C110.872 49.5409 110.821 49.7099 110.724 49.854C110.627 49.9981 110.488 50.1108 110.325 50.1779C110.162 50.2449 109.983 50.2632 109.809 50.2305C109.635 50.1977 109.476 50.1154 109.35 49.994C109.224 49.8726 109.139 49.7175 109.104 49.5485C109.069 49.3794 109.086 49.204 109.153 49.0446C109.22 48.8851 109.335 48.7487 109.482 48.6527C109.629 48.5567 109.801 48.5055 109.978 48.5055C110.214 48.5055 110.439 48.5962 110.607 48.7578C110.774 48.9194 110.869 49.1389 110.871 49.3684Z" fill="white"/>
<path d="M138.092 120.756C138.092 120.756 97.1194 121.349 86.9492 120.651C86.9492 120.651 95.2423 74.8047 106.182 63.2194C106.589 62.7842 107.021 62.3709 107.474 61.9813C108.143 61.4336 108.051 57.059 108.367 56.7289C108.682 56.3987 121.976 58.102 122.145 58.4172C122.314 58.7323 122.999 62.8592 122.999 62.8592C126.014 66.611 135.715 79.5769 136.846 84.9269C137.977 90.2769 134.415 96.1821 134.415 96.1821L138.092 120.756Z" fill="#FFC727"/>
<path d="M103.057 71.399C100.634 82.7893 102.072 107.416 107.673 111.918C116.905 119.286 139.091 121.44 145.284 122.152C147.954 122.46 153.269 105.42 151.439 103.221C149.608 101.023 122.336 97.6011 121.036 96.4681C120.136 95.6577 115.897 80.7784 112.243 72.3895C107.327 61.0368 103.942 67.1971 103.057 71.399Z" fill="#EB9481"/>
<path d="M146.819 101.847C146.819 101.847 155.005 101.765 160.359 101.96C163.351 102.065 168.452 102.71 170.614 103.76C173.837 105.344 186.3 113.973 184.215 116.967C182.33 119.675 178.622 116.111 178.622 116.111C178.622 116.111 183.053 119.63 180.338 121.761C177.622 123.892 173.229 118.805 173.229 118.805C173.229 118.805 178.199 122.226 175.076 124.222C172.368 125.963 166.683 120.621 166.683 120.621C166.683 120.621 172.306 123.622 169.706 125.701C166.836 127.952 157.282 120.988 157.282 120.988C150.435 122.489 146.119 122.489 141.088 121.686C140.165 121.536 146.819 101.847 146.819 101.847Z" fill="#EB9481"/>
<path d="M174.601 119.991L173.485 118.843C172.795 118.082 172.06 117.36 171.285 116.682C170.516 116.037 169.746 115.421 168.9 114.836C168.054 114.251 167.1 113.665 166.254 113.028C166.184 112.975 166.107 113.073 166.184 113.118C167.025 113.75 167.831 114.423 168.6 115.136C169.369 115.811 170.139 116.502 170.908 117.185C171.677 117.867 172.447 118.475 173.216 119.128C173.593 119.451 173.985 119.788 174.331 120.126C174.659 120.473 175.017 120.791 175.401 121.079C175.439 121.079 175.485 121.079 175.462 121.019C175.213 120.647 174.925 120.303 174.601 119.991Z" fill="#263238"/>
<path d="M179.532 116.863C178.298 115.408 176.961 114.039 175.532 112.766C174.085 111.501 172.51 110.382 170.831 109.427C170.77 109.427 170.708 109.472 170.754 109.517C172.201 110.785 173.67 112.03 175.139 113.269C175.855 113.876 179.024 116.743 179.394 117.02C179.478 117.065 179.586 116.945 179.532 116.863Z" fill="#263238"/>
<path d="M170.035 123.053C168.838 121.71 167.553 120.444 166.188 119.264C164.687 118.185 163.106 117.217 161.457 116.367C161.396 116.367 161.334 116.427 161.388 116.465C162.88 117.545 164.388 118.588 165.827 119.736C166.534 120.299 169.196 122.685 169.919 123.158C169.996 123.203 170.081 123.113 170.035 123.053Z" fill="#263238"/>
<path d="M139.141 122.857L148.904 100.654C148.904 100.654 122.163 96.3396 121.34 95.8144C120.516 95.2891 115.639 77.9712 112.508 71.173C109.377 64.3749 104 60.383 101.922 74.9773C99.8453 89.5715 102.853 107.392 105.861 111.099C109.508 115.586 123.948 121.266 139.141 122.857Z" fill="#FFC727"/>
<path d="M125.406 120.051C121.405 118.993 117.505 117.147 113.682 115.549C110.397 114.206 107.043 112.547 105.219 109.403C104.369 107.803 103.775 106.084 103.458 104.309C103.035 102.328 102.688 100.324 102.396 98.3058C102.042 96.0047 101.724 93.6987 101.442 91.3876C101.304 90.202 101.165 89.0165 101.042 87.831C100.919 86.6454 100.696 85.4599 100.65 84.2668C100.65 84.2509 100.643 84.2356 100.632 84.2244C100.62 84.2131 100.604 84.2068 100.588 84.2068C100.572 84.2068 100.556 84.2131 100.545 84.2244C100.533 84.2356 100.527 84.2509 100.527 84.2668C100.611 85.3623 100.527 86.4653 100.619 87.5683C100.619 88.3187 100.711 89.009 100.765 89.7293L100.55 89.2716C100.313 88.746 100.132 88.1978 100.011 87.6359C100.011 87.5683 99.8804 87.5983 99.8958 87.6359C100.034 88.1986 100.173 88.7689 100.334 89.3241C100.411 89.5943 100.504 89.8644 100.611 90.1345C100.676 90.3159 100.75 90.4938 100.834 90.6673C101.019 92.8233 101.257 94.9692 101.55 97.1052C101.834 99.1762 102.165 101.232 102.542 103.288C102.821 105.106 103.317 106.887 104.019 108.593C104.718 110.201 105.786 111.632 107.143 112.772C108.548 113.898 110.1 114.836 111.758 115.564C115.508 117.253 119.384 118.663 123.352 119.781C128.098 121.236 129.545 121.139 125.406 120.051Z" fill="#263238"/>
<path d="M135.438 98.3428C134.453 98.2152 122.813 95.8291 122.36 95.7016C122.132 95.634 121.927 95.5099 121.764 95.3415C121.601 95.1731 121.485 94.9662 121.429 94.7411C121.067 93.8257 120.752 92.8878 120.413 91.9648C119.829 90.3741 119.234 88.7909 118.628 87.2151C118.628 86.8625 118.559 86.4648 118.521 86.1572C118.482 85.8495 118.405 85.3168 118.336 84.8966C118.182 83.9887 117.905 83.0957 117.79 82.1878C117.79 82.0978 117.644 82.1278 117.667 82.1878C117.901 83.0819 118.04 83.9972 118.082 84.9191C118.121 85.2793 118.144 85.6694 118.167 86.0071C117.813 85.0842 117.451 84.1612 117.074 83.2458C116.636 82.1803 116.136 81.1073 115.782 80.0118C115.782 79.9368 115.644 79.9743 115.667 80.0118C116.067 80.9948 116.351 82.0378 116.667 83.0132C116.982 83.9887 117.321 85.0391 117.659 86.0521C118.321 88.0405 119.021 90.0139 119.729 91.9949C120.067 92.9478 120.398 93.9157 120.759 94.8612C120.859 95.2152 121.054 95.5366 121.325 95.7914C121.596 96.0463 121.932 96.2252 122.298 96.3094C124.321 96.8421 134.215 98.4403 135.415 98.4854C135.538 98.5604 135.568 98.3578 135.438 98.3428Z" fill="#263238"/>
<path d="M143.963 100.999C142.425 104.188 140.886 107.355 139.494 110.611C138.085 113.815 136.85 117.088 135.794 120.418C135.787 120.433 135.788 120.45 135.794 120.465C135.801 120.48 135.813 120.491 135.828 120.497C135.843 120.503 135.861 120.503 135.876 120.497C135.891 120.49 135.903 120.478 135.909 120.463C137.448 117.334 138.794 114.085 140.155 110.866C141.517 107.647 142.756 104.338 144.133 101.112C144.202 100.977 144.025 100.872 143.963 100.999Z" fill="#263238"/>
<path d="M172.714 98.4635C171.537 99.1088 164.798 97.2929 162.067 99.2889C160.259 100.609 158.49 103.791 158.105 107.94C157.713 112.225 161.182 112.007 162.467 110.191C164.032 107.801 165.398 105.292 166.552 102.688C167.787 102.928 169.005 103.246 170.198 103.641L172.714 98.4635Z" fill="#AD6359"/>
<path d="M164.452 113.417C162.367 111.286 151.95 119.097 155.22 122.646C158.489 126.195 166.806 115.833 164.452 113.417Z" fill="#AD6359"/>
<path d="M167.932 116.472C165.847 114.341 155.431 122.152 158.7 125.702C161.97 129.251 170.286 118.888 167.932 116.472Z" fill="#AD6359"/>
<path d="M170.67 117.552C168.478 115.893 160.123 124.41 163.623 127.186C167.124 129.962 173.155 119.428 170.67 117.552Z" fill="#AD6359"/>
<path d="M173.647 118.018C171.131 117.08 165.831 127.285 169.885 128.898C173.939 130.512 176.501 119.046 173.647 118.018Z" fill="#AD6359"/>
<path d="M164.147 116.929C163.568 117.307 163.023 117.731 162.516 118.197C161.954 118.678 161.401 119.165 160.893 119.698C160.398 120.202 159.933 120.733 159.5 121.289C159.046 121.889 158.67 122.542 158.208 123.127C158.2 123.132 158.193 123.139 158.188 123.148C158.183 123.156 158.18 123.166 158.18 123.175C158.179 123.185 158.181 123.195 158.186 123.203C158.19 123.212 158.196 123.22 158.204 123.226C158.212 123.231 158.222 123.235 158.231 123.237C158.241 123.238 158.251 123.238 158.261 123.235C158.27 123.231 158.279 123.226 158.285 123.219C158.292 123.212 158.297 123.204 158.3 123.195C158.756 122.629 159.252 122.095 159.785 121.596C160.285 121.086 160.754 120.553 161.254 120.036C161.754 119.518 162.201 119.015 162.693 118.535C163.185 118.055 163.739 117.559 164.232 117.034C164.255 116.967 164.201 116.899 164.147 116.929Z" fill="#263238"/>
<path d="M168.283 117.883C167.836 118.551 166.275 121.139 165.798 121.792C165.321 122.445 164.821 123.098 164.313 123.735C163.805 124.373 163.313 125.071 162.736 125.671C162.69 125.724 162.774 125.806 162.828 125.754C163.405 125.154 164.036 124.606 164.582 123.976C165.128 123.345 165.629 122.707 166.121 122.04C166.975 120.716 167.746 119.343 168.429 117.928C168.429 117.86 168.321 117.823 168.283 117.883Z" fill="#263238"/>
<path d="M171.175 119.338C170.713 120.329 170.313 121.357 169.844 122.34C169.613 122.827 169.375 123.315 169.144 123.84L168.821 124.553C168.719 124.837 168.59 125.111 168.436 125.371C168.39 125.431 168.513 125.498 168.544 125.416C168.698 125.119 168.878 124.835 169.082 124.568C169.213 124.343 169.351 124.118 169.475 123.893C169.736 123.393 169.975 122.905 170.19 122.43C170.639 121.457 171.015 120.454 171.313 119.428C171.325 119.41 171.33 119.388 171.326 119.367C171.321 119.346 171.308 119.328 171.29 119.316C171.272 119.304 171.249 119.299 171.228 119.304C171.206 119.308 171.187 119.32 171.175 119.338Z" fill="#263238"/>
<path d="M177.966 34.0531C177.598 37.4806 176.261 40.7411 174.104 43.4708C171.947 46.2005 169.055 48.2921 165.751 49.5122C162.446 50.7324 158.859 51.0331 155.39 50.3809C151.92 49.7287 148.705 48.1491 146.102 45.8185L136.555 47.1841L141.332 39.1404C140.091 36.1648 139.661 32.9262 140.084 29.7403C140.507 26.5543 141.769 23.5296 143.746 20.9606C145.724 18.3916 148.35 16.3661 151.369 15.0812C154.388 13.7963 157.696 13.2958 160.972 13.6287C166.002 14.1414 170.617 16.5806 173.803 20.4104C176.99 24.2401 178.487 29.1471 177.966 34.0531Z" fill="white"/>
<path d="M177.964 34.0534C177.594 37.4798 176.263 40.7405 174.118 43.4778C173.587 44.1614 173.012 44.8105 172.394 45.4212C171.759 46.0142 171.085 46.568 170.379 47.0794C168.971 48.1237 167.416 48.9652 165.763 49.5781C164.119 50.2101 162.391 50.6118 160.632 50.7711C159.752 50.8523 158.868 50.8698 157.985 50.8237C157.1 50.8017 156.218 50.7114 155.347 50.5535C151.833 49.9365 148.564 48.3776 145.907 46.0515L146.138 46.119L136.614 47.4846L135.922 47.5897L136.268 46.9969L141.015 38.9382V39.2533C139.902 36.5947 139.427 33.7229 139.627 30.8578C139.827 27.9927 140.696 25.2102 142.169 22.7232C143.653 20.2419 145.694 18.1205 148.138 16.5179C151.177 14.5339 154.732 13.4358 158.387 13.3521C162.042 13.2684 165.646 14.2027 168.776 16.0454C171.906 17.8882 174.433 20.563 176.061 23.7564C177.688 26.9499 178.348 30.5296 177.964 34.076V34.0534ZM177.964 34.0534C178.268 31.2524 177.909 28.4206 176.915 25.7762C175.92 23.1319 174.317 20.7454 172.228 18.8006C170.139 16.8558 167.62 15.4046 164.865 14.5588C162.111 13.7129 159.194 13.4949 156.339 13.9217C153.514 14.3264 150.82 15.3528 148.461 16.9231C146.132 18.5189 144.187 20.5904 142.761 22.9934C141.352 25.4039 140.523 28.0955 140.338 30.8645C140.163 33.6266 140.62 36.3922 141.676 38.9607L141.745 39.1258L141.653 39.2834L136.853 47.312L136.514 46.8168L146.061 45.5112H146.192L146.292 45.5938C148.838 47.9194 151.997 49.5093 155.416 50.1859C156.271 50.352 157.138 50.4548 158.009 50.4935C158.877 50.5535 159.748 50.5535 160.616 50.4935C162.358 50.3622 164.072 49.9935 165.709 49.398C167.363 48.8215 168.919 48.0071 170.325 46.9819C171.756 45.9937 173.02 44.7937 174.072 43.4253C176.224 40.7077 177.571 37.466 177.964 34.0534Z" fill="#263238"/>
<path d="M156.764 42.7284L148.625 34.6847L151.356 32.051L156.118 36.7481L166.004 21.6287L169.242 23.6471L156.764 42.7284Z" fill="#FFC727"/>
</svg>
