<svg width="432" height="227" viewBox="0 0 432 227" fill="none" xmlns="http://www.w3.org/2000/svg">
<path d="M421.712 167.015L413.2 167.197L408.879 167.268C407.432 167.301 405.978 167.268 404.531 167.307H404.246V167.015L404.207 159.735V159.411H404.531L413.122 159.45C415.99 159.45 418.851 159.521 421.712 159.554H421.894V159.735C421.894 160.968 421.842 162.194 421.81 163.408L421.712 167.015ZM421.712 167.015L421.622 163.349C421.589 162.143 421.55 160.949 421.537 159.755L421.712 159.937C418.851 159.969 415.99 160.04 413.122 160.04L404.531 160.079L404.856 159.755V167.015L404.564 166.73C405.978 166.73 407.393 166.73 408.814 166.762L413.038 166.873L421.712 167.015Z" fill="#EBEBEB"/>
<path d="M412.131 176.17L403.618 176.352L399.29 176.423C397.85 176.423 396.396 176.423 394.95 176.462H394.664V176.17V168.91V168.585H394.988L403.579 168.631C406.44 168.631 409.308 168.702 412.169 168.735H412.351V168.91C412.351 170.143 412.299 171.369 412.267 172.582L412.131 176.17ZM412.131 176.17L412.04 172.504C412.007 171.298 411.968 170.104 411.955 168.91L412.131 169.092C409.269 169.124 406.401 169.195 403.54 169.195L394.95 169.234L395.274 168.91V176.17L394.982 175.885C396.396 175.885 397.811 175.885 399.232 175.917L403.495 175.995L412.131 176.17Z" fill="#EBEBEB"/>
<path d="M431.298 176.17L422.786 176.352L418.465 176.423C417.018 176.423 415.564 176.423 414.117 176.462H413.832V176.17L413.793 168.91V168.585H414.117L422.708 168.631C425.576 168.631 428.437 168.702 431.298 168.735H431.48V168.91C431.48 170.143 431.422 171.369 431.396 172.582L431.298 176.17ZM431.298 176.17L431.208 172.504C431.208 171.298 431.136 170.104 431.123 168.91L431.298 169.092C428.437 169.124 425.576 169.195 422.708 169.195L414.117 169.234L414.442 168.91V176.17L414.15 175.885C415.571 175.885 416.979 175.885 418.4 175.917L422.669 175.995L431.298 176.17Z" fill="#EBEBEB"/>
<path d="M176.728 80.6236L168.215 80.8053L163.894 80.8767C162.447 80.8767 160.994 80.8767 159.547 80.8767H159.262V80.5847L159.223 73.3243V72.9999H159.547L168.138 73.0388C171.005 73.0388 173.867 73.1102 176.728 73.1426H176.91V73.3178C176.91 74.5506 176.851 75.7704 176.819 76.9837L176.728 80.6236ZM176.728 80.6236L176.637 76.9512C176.637 75.7444 176.566 74.5506 176.553 73.3632L176.728 73.5384C173.867 73.5384 171.005 73.6422 168.138 73.6422L159.547 73.6876L159.871 73.3632L159.839 80.6236L159.547 80.3316C160.962 80.3316 162.376 80.3316 163.797 80.3706L168.066 80.4419L176.728 80.6236Z" fill="#EBEBEB"/>
<path d="M167.132 89.7786L158.619 89.9603L154.291 90.0317C152.851 90.0317 151.398 90.0317 149.951 90.0641H149.665V89.7722L149.613 82.5247V82.2003H149.938L158.528 82.2392C161.39 82.2392 164.257 82.3106 167.119 82.3431H167.3V82.5247C167.3 83.7575 167.248 84.9773 167.216 86.1906L167.132 89.7786ZM167.132 89.7786L167.041 86.1063C167.008 84.8995 166.969 83.7056 166.957 82.5182L167.132 82.6934C164.27 82.7259 161.403 82.7972 158.541 82.7972L149.951 82.8427L150.275 82.5182L150.262 89.7786L149.97 89.4867C151.385 89.4867 152.799 89.4867 154.22 89.5256L158.483 89.597L167.132 89.7786Z" fill="#EBEBEB"/>
<path d="M186.31 89.7786L177.797 89.9603L173.476 90.0317C172.029 90.0317 170.582 90.0317 169.129 90.0641H168.844V89.7722L168.805 82.5247V82.2003H169.129L177.72 82.2392C180.587 82.2392 183.449 82.3106 186.31 82.3431H186.492V82.5247C186.492 83.7575 186.433 84.9773 186.407 86.1906L186.31 89.7786ZM186.31 89.7786L186.219 86.1063C186.219 84.8995 186.148 83.7056 186.135 82.5182L186.31 82.6934C183.449 82.7259 180.587 82.7972 177.72 82.7972L169.129 82.8427L169.454 82.5182L169.421 89.7786L169.129 89.4867C170.55 89.4867 171.958 89.4867 173.379 89.5256L177.648 89.597L186.31 89.7786Z" fill="#EBEBEB"/>
<path d="M36.6359 128.663L28.1232 128.845L23.7955 128.916C22.3551 128.916 20.9017 128.916 19.4548 128.948H19.1953V128.656V121.396V121.072H19.5197L28.1102 121.111C30.9716 121.111 33.8394 121.182 36.7007 121.214H36.8824V121.39C36.8824 122.622 36.8305 123.842 36.7981 125.055L36.6359 128.663ZM36.6359 128.663L36.545 124.991C36.545 123.784 36.4737 122.59 36.4607 121.403L36.6359 121.578C33.7745 121.61 30.9067 121.682 28.0454 121.682L19.4548 121.727L19.7793 121.403L19.7468 128.663L19.4548 128.371C20.8693 128.371 22.2837 128.371 23.7047 128.41L27.9675 128.481L36.6359 128.663Z" fill="#EBEBEB"/>
<path d="M321.462 80.6171L312.95 80.7987L308.629 80.8701C307.182 80.9025 305.728 80.8701 304.281 80.9026H303.996V80.6106L303.957 73.3502V73.0258H304.281L312.872 73.0647C315.74 73.0647 318.601 73.1425 321.462 73.175H321.644V73.3502C321.644 74.5829 321.592 75.8092 321.56 77.0161L321.462 80.6171ZM321.462 80.6171L321.372 76.9512C321.339 75.7379 321.3 74.544 321.287 73.3567L321.462 73.5318C318.601 73.5643 315.74 73.6357 312.872 73.6421L304.281 73.6811L304.606 73.3567L304.573 80.6171L304.281 80.3251C305.696 80.3251 307.11 80.3251 308.531 80.364L312.801 80.4354L321.462 80.6171Z" fill="#EBEBEB"/>
<path d="M420.72 10.1023L412.208 10.284L407.88 10.3553C406.44 10.3553 404.986 10.3553 403.539 10.3943H403.254V10.1023V2.84187V2.51746H403.578L412.169 2.55639C415.03 2.55639 417.898 2.63425 420.759 2.66669H420.941V2.84187C420.941 4.07465 420.889 5.30094 420.857 6.50776L420.72 10.1023ZM420.72 10.1023L420.63 6.43639C420.597 5.22308 420.558 4.02923 420.545 2.84187L420.72 3.01706C417.859 3.01706 414.991 3.12087 412.13 3.12736L403.539 3.16629L403.864 2.84187L403.831 10.1023L403.539 9.81031C404.954 9.81031 406.368 9.8103 407.789 9.84923L412.052 9.9206L420.72 10.1023Z" fill="#EBEBEB"/>
<path d="M430.302 19.2572L421.79 19.4389L417.468 19.5102C416.022 19.5427 414.568 19.5102 413.121 19.5427H412.836V19.2507L412.797 11.9903V11.6659H413.121L421.712 11.7048C424.58 11.7048 427.441 11.7827 430.302 11.8151H430.484V11.9903C430.484 13.2231 430.426 14.4494 430.393 15.6562L430.302 19.2572ZM430.302 19.2572L430.211 15.5913C430.211 14.378 430.14 13.1842 430.127 11.9968L430.302 12.172C427.441 12.2044 424.58 12.2758 421.712 12.2823L413.121 12.3212L413.446 11.9968V19.2572L413.154 18.9652C414.568 18.9652 415.983 18.9652 417.404 19.0042L421.673 19.0755L430.302 19.2572Z" fill="#EBEBEB"/>
<path d="M17.473 10.1087L8.95385 10.2904L4.63264 10.3618C3.19224 10.3618 1.73886 10.3618 0.291974 10.4007H0V10.1087V2.84834V2.52393H0.330902L8.92141 2.56934C11.7827 2.56934 14.6441 2.64071 17.5119 2.67316H17.6871V2.84834C17.6871 4.08112 17.6287 5.30741 17.6028 6.52072L17.473 10.1087ZM17.473 10.1087L17.3757 6.44286C17.3757 5.22955 17.3043 4.0357 17.2913 2.84834L17.473 3.02353C14.6052 3.06245 11.7438 3.12734 8.88248 3.13382L0.291974 3.17276L0.616389 2.84834L0.577458 10.1087L0.291974 9.8557C1.70642 9.8557 3.11438 9.8557 4.53532 9.8557L8.80462 9.92707L17.473 10.1087Z" fill="#EBEBEB"/>
<path d="M227.915 100.166C227.119 100.918 226.131 101.437 225.06 101.665C224.412 101.834 223.691 101.931 223.004 102.055H220.655C219.688 101.905 218.708 101.789 217.768 101.6C214.252 100.846 210.921 99.3989 207.97 97.344C200.199 92.2066 193.651 85.4243 188.791 77.4769C187.161 74.8544 186.039 71.9492 185.482 68.9123C185.339 68.1143 185.229 67.3097 185.105 66.5052V64.1564C185.3 63.2545 185.456 62.3397 185.696 61.4508C185.933 60.6165 186.379 59.8569 186.994 59.2448C187.11 59.3486 187.214 59.4329 187.318 59.5367C191.055 63.2697 194.795 67.0026 198.536 70.7355C198.657 70.8363 198.744 70.9725 198.783 71.125C198.823 71.2775 198.814 71.4386 198.757 71.5855C198.473 72.5106 198.434 73.4938 198.646 74.4382C198.858 75.3826 199.312 76.2555 199.964 76.9708C203.155 80.5959 206.573 84.0156 210.196 87.2093C210.918 87.8651 211.799 88.3209 212.752 88.5314C213.704 88.742 214.695 88.7 215.626 88.4097C215.899 88.3383 216.094 88.2929 216.327 88.5264C220.147 92.3675 223.975 96.1999 227.811 100.024C227.831 100.043 227.857 100.102 227.915 100.166Z" fill="#EBEBEB"/>
<path d="M235.261 91.7771V92.5557C234.923 93.0434 234.557 93.5113 234.165 93.9571C233.01 95.1575 231.816 96.3189 230.642 97.4933L230.278 97.8372L218.742 86.3074C220.254 84.8151 221.759 83.2904 223.316 81.8046C223.485 81.6479 223.684 81.5267 223.9 81.4482C224.117 81.3697 224.347 81.3355 224.577 81.3476C224.807 81.3597 225.032 81.4179 225.239 81.5187C225.446 81.6194 225.631 81.7608 225.782 81.9343C226.651 82.7778 227.495 83.6408 228.377 84.4907C230.382 86.5021 232.4 88.5005 234.385 90.5248C234.71 90.9186 235.003 91.3373 235.261 91.7771Z" fill="#EBEBEB"/>
<path d="M205.021 64.2148C203.593 65.5968 202.133 66.9463 200.719 68.2829L189.273 56.8441C189.526 56.617 189.818 56.3769 190.084 56.1174C191.136 55.0728 192.167 54.0022 193.238 52.977C193.673 52.5955 194.13 52.2402 194.607 51.913H195.392C195.829 52.1817 196.246 52.4832 196.638 52.8148C199.441 55.5918 202.233 58.3818 205.014 61.1847C206.065 62.2358 206.065 63.1831 205.021 64.2148Z" fill="#EBEBEB"/>
<path d="M13.2031 70.5797H88.2922V22.9426H13.2031V70.5797Z" fill="#EBEBEB"/>
<path d="M102.34 70.5797H88.293V55.9486L102.34 70.5797Z" fill="#EBEBEB"/>
<path d="M79.6015 31.1764H21.8945V32.0848H79.6015V31.1764Z" fill="white"/>
<path d="M51.7212 36.0684H21.8945V36.9767H51.7212V36.0684Z" fill="white"/>
<path d="M68.5584 45.8463H21.8945V46.7547H68.5584V45.8463Z" fill="white"/>
<path d="M79.6015 50.7319H21.8945V51.6403H79.6015V50.7319Z" fill="white"/>
<path d="M79.6015 55.6177H21.8945V56.526H79.6015V55.6177Z" fill="white"/>
<path d="M42.3976 60.5099H21.8945V61.4182H42.3976V60.5099Z" fill="white"/>
<path d="M418.386 89.6034H343.297V131.615H418.386V89.6034Z" fill="#DBDBDB"/>
<path d="M329.25 131.622H343.297V116.99L329.25 131.622Z" fill="#DBDBDB"/>
<path d="M402.399 111.54H352.16V112.449H402.399V111.54Z" fill="white"/>
<path d="M392.07 116.432H352.16V117.341H392.07V116.432Z" fill="white"/>
<path d="M395.08 101.762H352.16V102.671H395.08V101.762Z" fill="white"/>
<path d="M408.2 96.8768H352.16V97.7852H408.2V96.8768Z" fill="white"/>
<path d="M396.209 121.318H352.16V122.227H396.209V121.318Z" fill="white"/>
<path d="M380.445 44.9509H242.562V50.998H380.445V44.9509Z" fill="#EBEBEB"/>
<path d="M256.34 51.0045H250.293V71.0015H256.34V51.0045Z" fill="#EBEBEB"/>
<path d="M256.34 51.0045H250.293V57.1879H256.34V51.0045Z" fill="#DBDBDB"/>
<path d="M372.723 51.0045H366.676V71.0015H372.723V51.0045Z" fill="#EBEBEB"/>
<path d="M372.723 51.0045H366.676V57.1879H372.723V51.0045Z" fill="#DBDBDB"/>
<path d="M278.012 44.9509V6.41687L268.305 6.41687V44.9509H278.012Z" fill="#C7C7C7"/>
<path d="M278.012 8.5905V4.35364L268.305 4.35364V8.5905H278.012Z" fill="#DBDBDB"/>
<path d="M278.004 15.5914V14.0212H268.297V15.5914H278.004Z" fill="#DBDBDB"/>
<path d="M279.219 39.903V35.6661H268.305V39.903H279.219Z" fill="#DBDBDB"/>
<path d="M284.793 44.9509V0L278.013 0V44.9509H284.793Z" fill="#DBDBDB"/>
<path d="M283.41 21.5152V4.22388H279.342V21.5152H283.41Z" fill="#EBEBEB"/>
<path d="M333.018 40.1494L301.051 8.54785L296.284 13.3698L328.252 44.9713L333.018 40.1494Z" fill="#C7C7C7"/>
<path d="M324.582 33.6873L312.285 21.5311L309.425 24.4243L321.722 36.5805L324.582 33.6873Z" fill="#DBDBDB"/>
<path d="M296.301 44.964V10.816H284.784V44.964H296.301Z" fill="#A6A6A6"/>
<path d="M296.301 41.337V38.1577H284.784V41.337H296.301Z" fill="#C7C7C7"/>
<path d="M296.301 36.0749V34.8422H284.784V36.0749H296.301Z" fill="#C7C7C7"/>
<path d="M268.305 44.9639V12.8728H260.35V44.9639H268.305Z" fill="#A6A6A6"/>
<path d="M268.305 41.5575V38.5664H260.35V41.5575H268.305Z" fill="#C7C7C7"/>
<path d="M268.305 22.4755V19.4844H260.35V22.4755H268.305Z" fill="#C7C7C7"/>
<path d="M268.305 25.6872V24.5258H260.35V25.6872H268.305Z" fill="#C7C7C7"/>
<path d="M365.952 30.0019L365.089 32.2922L364.557 33.6872L363.688 35.9841L360.301 44.9574H341.985L338.585 35.9841L337.715 33.6872L337.19 32.2922L336.32 30.0019L343.081 20.1462L339.577 13.6514H362.715L359.192 20.1462L365.952 30.0019Z" fill="#DBDBDB"/>
<path d="M365.952 30.002L365.089 32.2923H337.19L336.32 30.002H365.952Z" fill="#A6A6A6"/>
<path d="M364.557 33.6873L363.688 35.9841H338.584L337.715 33.6873H364.557Z" fill="#A6A6A6"/>
<path d="M8.70312 219.837L60.4797 219.681L112.25 219.622L215.797 219.519L319.343 219.622L371.113 219.681L422.89 219.837L371.113 219.999L319.343 220.057L215.797 220.161L112.25 220.057L60.4797 219.999L8.70312 219.837Z" fill="#263238"/>
<path d="M210.18 219.824H289.765L273.901 127.515H214.384L210.18 219.824Z" fill="#DBDBDB"/>
<path d="M210.18 219.824H217.161L221.074 127.515H214.384L210.18 219.824Z" fill="#A6A6A6"/>
<path d="M279.33 145.61C288.335 165.724 310.097 199.106 319.836 190.834C334.402 178.467 344.265 151.112 348.158 140.05C350.344 133.854 318.779 123.485 316.845 129.111C314.094 137.104 309.779 153.812 307.281 156.18C305.984 157.419 295.641 142.905 287.816 136.021C276.52 126.1 276.455 139.187 279.33 145.61Z" fill="#AD6359"/>
<path d="M356.042 130.739C353.233 137.059 342.417 147.745 338.822 149.322C335.228 150.898 316.243 133.75 316.639 129.714C317.035 125.678 328.363 104.539 334.637 101.295C340.912 98.0511 358.956 124.186 356.042 130.739Z" fill="#AD6359"/>
<path d="M318.127 125.276C318.127 125.276 318.581 116.283 316.311 108.679C314.403 102.288 310.854 93.0163 314.247 91.8613C321.229 89.4931 330.079 112.624 330.079 112.624C330.079 112.624 332.35 123.459 325.647 126.418C321.443 128.274 318.127 125.276 318.127 125.276Z" fill="#AD6359"/>
<path d="M325.994 108.218C326.448 111.858 330.477 109.237 330.477 109.237C330.477 109.237 325.591 114.428 327.512 117.977C329.381 121.409 334.13 118.068 334.474 117.834C334.214 118.113 329.854 122.979 332.158 126.366C334.552 129.883 338.743 125.717 339.016 125.445C338.853 125.776 336.816 130.259 339.152 132.439C343.162 136.17 348.69 124.854 352.946 123.589C352.946 123.589 355.918 130.551 356.041 130.726C356.041 130.726 361.524 120.059 359.499 114.415C359.215 113.59 358.659 112.887 357.922 112.421C357.185 111.955 356.311 111.754 355.444 111.852C355.444 111.852 357.592 108.608 355.866 105.883C354.97 104.488 351.973 104.669 351.973 104.669C351.973 104.669 353.582 102.003 351.895 99.6797C350.552 97.8176 347.729 98.2912 347.729 98.2912C347.729 98.2912 348.086 95.0081 346.101 93.5548C342.065 90.6221 325.014 100.426 325.994 108.218Z" fill="#AD6359"/>
<path d="M347.245 98.3107C347.303 98.2782 347.245 98.1939 347.212 98.2133C340.815 100.069 334.359 104.053 330.245 109.354C330.109 109.529 330.33 109.821 330.518 109.659C335.832 105.02 340.86 101.341 347.245 98.3107Z" fill="#263238"/>
<path d="M352.016 104.585C352.087 104.552 352.016 104.436 351.958 104.455C345.372 106.402 338.228 111.112 334.199 117.763C334.063 117.99 334.167 118.334 334.348 118.087C337.359 113.883 346.254 107.291 352.016 104.585Z" fill="#263238"/>
<path d="M338.891 125.996C342.998 119.767 348.688 115.479 355.17 111.917C355.248 111.871 355.17 111.761 355.099 111.78C351.452 112.656 347.559 115.355 344.717 117.717C342.028 119.854 339.947 122.66 338.683 125.853C338.625 125.996 338.806 126.139 338.891 125.996Z" fill="#263238"/>
<path d="M330.35 109.23C330.188 109.438 330.675 109.445 330.519 109.659C329.87 110.554 326.399 116.296 327.989 118.093C329.286 119.527 332.07 118.801 333.043 118.093L335.476 116.335L333.802 118.859C333.049 119.965 332.479 121.185 332.115 122.473C331.914 123.059 331.839 123.682 331.896 124.299C331.953 124.917 332.141 125.515 332.446 126.055C332.733 126.555 333.183 126.941 333.72 127.147C334.258 127.354 334.851 127.369 335.398 127.19C336.619 126.77 337.711 126.044 338.571 125.081L341.037 122.486L339.557 125.73C339.144 126.628 338.845 127.574 338.668 128.546C338.47 129.46 338.545 130.412 338.883 131.284C339.05 131.668 339.32 131.998 339.664 132.238C340.008 132.477 340.411 132.616 340.829 132.64C341.777 132.544 342.677 132.179 343.424 131.589C345.062 130.337 346.601 128.96 348.025 127.469C348.771 126.742 349.517 126.009 350.302 125.308C351.039 124.571 351.924 123.996 352.897 123.622C351.972 124.09 351.147 124.736 350.471 125.523C349.75 126.269 349.063 127.047 348.375 127.832C347.023 129.453 345.525 130.945 343.898 132.29C343.026 133.03 341.957 133.501 340.823 133.646C340.197 133.652 339.583 133.477 339.055 133.142C338.526 132.807 338.106 132.326 337.844 131.758C337.39 130.687 337.266 129.506 337.488 128.364C337.662 127.279 337.978 126.221 338.428 125.218L339.415 125.866C338.415 127.02 337.131 127.893 335.69 128.397C334.883 128.655 334.011 128.623 333.225 128.306C332.465 127.973 331.823 127.419 331.382 126.716C330.996 126.032 330.759 125.273 330.687 124.49C330.616 123.707 330.711 122.918 330.967 122.175C331.381 120.764 332.028 119.433 332.881 118.236L333.64 118.976C332.342 119.819 329.332 120.974 327.067 119.008C324.563 115.965 329.397 110.217 330.35 109.23Z" fill="#263238"/>
<path d="M330.48 109.237C329.778 109.517 329.039 109.689 328.287 109.749C327.984 109.781 327.679 109.73 327.403 109.604C327.127 109.477 326.89 109.279 326.716 109.029C326.411 108.429 326.287 107.753 326.36 107.083C326.399 106.343 326.476 105.571 326.593 104.773C326.099 105.425 325.75 106.175 325.568 106.972C325.443 107.403 325.405 107.854 325.455 108.299C325.505 108.745 325.643 109.176 325.86 109.568C326.144 109.975 326.544 110.287 327.008 110.463C327.455 110.609 327.934 110.627 328.39 110.515C329.204 110.32 329.935 109.872 330.48 109.237Z" fill="#263238"/>
<path d="M314.926 129.714L347.783 152.598C347.783 152.598 328.155 193.261 316.029 193.15C303.902 193.04 286.384 162.584 280.343 149.419C274.303 136.254 277.904 125.101 290.128 137.091C302.351 149.082 306.731 154.026 307.127 153.864C307.867 153.565 314.926 129.714 314.926 129.714Z" fill="#FFC727"/>
<path d="M347.784 152.598C347.784 152.598 334.159 180.796 322.616 190.166C320.3 192.047 318.074 193.17 316.031 193.144C303.904 193.04 286.386 162.577 280.313 149.419C276.556 141.27 276.523 133.893 279.936 132.303C282.045 131.323 285.451 132.53 290.103 137.111C302.431 149.185 306.7 154.039 307.103 153.877C307.868 153.565 314.934 129.721 314.934 129.721L347.784 152.598Z" fill="#FFC727"/>
<path d="M327.448 185.364C327.046 185.831 326.637 186.285 326.228 186.727C322.531 189.055 318.383 190.574 314.056 191.184C312.863 191.316 311.662 191.364 310.462 191.327L309.716 190.86C311.148 190.946 312.585 190.909 314.011 190.749C315.718 190.563 317.397 190.175 319.013 189.594L320.24 189.192L321.427 188.693C321.823 188.524 322.232 188.381 322.614 188.186L323.763 187.603C325.04 186.94 326.272 186.193 327.448 185.364ZM302.52 149.542C298.771 151.247 295.351 153.6 292.418 156.491C290.515 158.366 288.756 160.381 287.156 162.519C287.234 162.662 287.318 162.811 287.409 162.953C289.028 160.779 290.814 158.734 292.749 156.835C295.207 154.42 298.008 152.38 301.06 150.781L302.209 150.197C302.42 150.091 302.636 149.995 302.858 149.912L302.52 149.542ZM330.9 151.612C327.784 150.087 324.524 148.876 321.168 147.998C320.817 147.914 320.467 147.829 320.11 147.758C319.883 147.706 319.649 147.654 319.422 147.615C316.586 147.021 313.675 146.872 310.793 147.174C310.371 147.232 309.956 147.297 309.534 147.375C309.489 147.524 309.437 147.68 309.391 147.823C309.871 147.738 310.358 147.667 310.845 147.609C313.52 147.326 316.222 147.438 318.864 147.94L319.571 148.069C320.071 148.173 320.571 148.283 321.07 148.407C324.398 149.264 327.632 150.451 330.725 151.949C335.357 154.222 339.851 156.768 344.182 159.573C344.246 159.463 344.305 159.352 344.357 159.249C340.027 156.438 335.533 153.888 330.9 151.612ZM334.306 143.216C329.046 143.433 323.92 144.944 319.383 147.615L318.825 147.94C317.68 148.626 316.573 149.376 315.51 150.185C309.949 154.415 305.511 159.852 301.287 165.322C299.172 168.066 297.096 170.83 294.903 173.503C294.747 173.698 294.585 173.886 294.423 174.081L294.669 174.438C294.857 174.217 295.046 173.997 295.227 173.789C297.433 171.109 299.516 168.345 301.638 165.607C305.862 160.157 310.293 154.759 315.795 150.587C316.988 149.677 318.236 148.843 319.532 148.089C319.708 147.978 319.889 147.875 320.071 147.777C321.582 146.929 323.157 146.2 324.781 145.597L325.995 145.156C326.397 145.013 326.819 144.916 327.234 144.793L328.473 144.449L329.771 144.196C331.446 143.818 333.16 143.64 334.877 143.664H334.955L334.306 143.216ZM293.982 140.952C291.715 141.959 289.346 142.718 286.916 143.216L285.651 143.463C285.229 143.54 284.801 143.566 284.353 143.625L283.055 143.774L281.758 143.826C280.573 143.908 279.383 143.887 278.202 143.761L278.319 144.189C283.803 144.59 289.3 143.599 294.299 141.309C294.228 141.185 294.105 141.068 293.982 140.952ZM284.625 132.893C282.328 134.454 279.945 135.886 277.488 137.182C277.488 137.357 277.488 137.532 277.488 137.714C280.11 136.343 282.645 134.813 285.08 133.133C284.924 133.049 284.775 132.965 284.625 132.893Z" fill="white"/>
<path d="M340.015 156.413C339.146 155.693 338.27 154.992 337.387 154.292C335.597 152.877 333.806 151.469 332.015 150.068C328.447 147.284 324.8 144.598 321.128 141.958C319.045 140.452 316.995 138.869 314.847 137.461C314.837 137.453 314.825 137.448 314.813 137.445C314.801 137.442 314.788 137.441 314.775 137.443C314.762 137.444 314.75 137.449 314.739 137.455C314.728 137.462 314.719 137.47 314.711 137.481C314.703 137.491 314.698 137.502 314.694 137.515C314.691 137.527 314.691 137.54 314.692 137.553C314.694 137.565 314.698 137.578 314.705 137.589C314.711 137.6 314.72 137.609 314.73 137.617C316.437 139.122 318.266 140.498 320.038 141.932C321.809 143.365 323.567 144.806 325.365 146.207C328.938 148.984 332.554 151.707 336.213 154.376C337.232 155.129 338.237 155.92 339.295 156.628C339.834 156.991 340.346 157.393 340.891 157.744C341.436 158.094 342.02 158.392 342.552 158.788C342.564 158.795 342.579 158.797 342.592 158.795C342.606 158.792 342.618 158.785 342.627 158.774C342.636 158.762 342.64 158.749 342.639 158.735C342.639 158.721 342.633 158.707 342.624 158.697C341.735 157.951 340.904 157.14 340.015 156.413Z" fill="#263238"/>
<path d="M307.378 153.137C306.124 156.526 305.092 159.994 304.289 163.518C303.861 165.257 303.524 167.015 303.193 168.767C302.843 170.508 302.609 172.27 302.492 174.042C302.492 174.107 302.59 174.107 302.602 174.042C303.148 172.349 303.55 170.584 303.939 168.851C304.328 167.119 304.77 165.374 305.159 163.661C305.944 160.17 306.865 156.712 307.547 153.202C307.551 153.191 307.553 153.179 307.553 153.167C307.552 153.155 307.55 153.143 307.545 153.133C307.54 153.122 307.533 153.112 307.524 153.104C307.516 153.096 307.506 153.089 307.495 153.085C307.484 153.081 307.472 153.079 307.46 153.079C307.448 153.079 307.436 153.082 307.426 153.087C307.415 153.091 307.405 153.098 307.397 153.107C307.389 153.116 307.382 153.126 307.378 153.137Z" fill="#263238"/>
<path opacity="0.1" d="M322.616 190.166C320.3 192.047 318.074 193.17 316.031 193.144C303.904 193.04 286.386 162.577 280.313 149.419C276.556 141.27 276.523 133.892 279.936 132.303L322.616 190.166Z" fill="black"/>
<path d="M303.806 219.824H224.928C224.058 218.227 236.983 149.14 263.585 129.682C269.489 125.367 279.962 128.144 282.868 132.342C297.506 153.435 303.806 219.824 303.806 219.824Z" fill="#FFC727"/>
<path d="M299.704 189.153C297.735 188.456 295.805 187.653 293.923 186.746C291.283 185.481 288.733 184.079 286.196 182.6L285.826 182.38C283.231 180.842 280.635 179.213 278.092 177.572L277.728 177.338L276.003 176.222C270.163 172.478 264.414 168.624 258.179 165.627C255.097 164.086 251.825 162.96 248.447 162.279C246.752 161.977 245.026 161.881 243.308 161.993C242.88 161.993 242.458 162.084 242.01 162.143C241.718 162.201 241.426 162.24 241.128 162.298C241.173 162.194 241.212 162.097 241.264 161.993C241.498 161.948 241.738 161.909 241.971 161.857C242.4 161.805 242.834 161.74 243.269 161.708C245.004 161.591 246.747 161.685 248.46 161.987C251.873 162.662 255.181 163.79 258.296 165.341C264.564 168.339 270.351 172.193 276.178 175.924L277.891 177.02L278.26 177.254C280.856 178.921 283.451 180.576 286.144 182.139L286.514 182.36C288.979 183.794 291.49 185.157 294.072 186.383C295.876 187.246 297.724 188.015 299.607 188.686L299.704 189.153ZM292.684 156.212L292.418 156.465C287.415 161.338 283.678 167.281 280.155 173.225C279.411 174.492 278.663 175.757 277.91 177.02C277.852 177.131 277.793 177.234 277.728 177.338C276.775 178.947 275.814 180.55 274.815 182.127C273.939 183.515 273.024 184.884 272.051 186.208C271.96 186.331 271.876 186.454 271.785 186.571C270.8 187.901 269.739 189.173 268.606 190.38C267.425 191.632 266.121 192.763 264.713 193.754L264.187 194.123C264.012 194.247 263.818 194.344 263.636 194.454L262.526 195.103C261.762 195.489 260.973 195.825 260.165 196.109C256.892 197.196 253.466 197.75 250.017 197.75C246.581 197.737 243.156 197.347 239.804 196.589C236.56 195.901 233.413 194.98 230.241 194.058C230.241 194.162 230.189 194.266 230.156 194.363C233.323 195.291 236.502 196.226 239.733 196.92C243.124 197.694 246.59 198.094 250.069 198.114C253.556 198.116 257.022 197.559 260.333 196.466C261.16 196.181 261.967 195.841 262.747 195.447L263.882 194.798C264.074 194.696 264.261 194.583 264.44 194.461L264.979 194.084C266.408 193.084 267.732 191.94 268.93 190.672C270.138 189.379 271.269 188.016 272.317 186.59C272.415 186.467 272.499 186.35 272.583 186.227C273.505 184.968 274.374 183.677 275.179 182.367C276.184 180.79 277.125 179.187 278.098 177.585L278.286 177.267L280.538 173.465C284.068 167.528 287.805 161.636 292.755 156.822L292.84 156.744C292.781 156.556 292.729 156.381 292.684 156.212ZM296.428 171.622C295.928 172.271 295.422 172.881 294.909 173.504C292.761 176.204 290.36 178.694 287.74 180.939C287.221 181.348 286.702 181.757 286.163 182.139L285.826 182.38C285.075 182.909 284.288 183.386 283.471 183.807L282.906 184.112C282.718 184.216 282.51 184.287 282.316 184.378L281.135 184.884C280.33 185.175 279.506 185.411 278.669 185.591C276.658 186.022 274.607 186.239 272.551 186.24H272.051C270.831 186.24 269.612 186.143 268.398 186.013C264.974 185.582 261.608 184.775 258.361 183.606C255.117 182.483 251.918 181.101 248.739 179.713C245.574 178.281 242.324 177.048 239.006 176.021C238.027 175.742 237.06 175.495 236.022 175.314L235.924 175.593C236.937 175.781 237.942 176.021 238.922 176.307C242.22 177.337 245.451 178.572 248.596 180.005C251.775 181.374 254.955 182.762 258.231 183.898C261.506 185.076 264.9 185.894 268.353 186.337C269.495 186.467 270.637 186.552 271.779 186.571C271.947 186.571 272.11 186.571 272.278 186.571C274.457 186.606 276.633 186.402 278.767 185.961C279.62 185.773 280.46 185.532 281.284 185.241L282.491 184.722C282.692 184.631 282.893 184.56 283.088 184.456L283.665 184.144C284.551 183.693 285.401 183.174 286.209 182.594L286.546 182.354C287.039 181.997 287.526 181.62 288.006 181.238C290.653 178.983 293.078 176.48 295.247 173.763C295.679 173.231 296.112 172.693 296.545 172.148C296.506 171.979 296.467 171.797 296.428 171.622ZM288.278 142.911C287.824 143.022 287.37 143.125 286.916 143.216L285.651 143.463C285.229 143.541 284.801 143.567 284.353 143.625L283.055 143.774L281.758 143.826C280.044 143.937 278.324 143.846 276.632 143.554C273.978 143.095 271.406 142.244 269.002 141.03L268.353 140.712C267.899 140.478 267.451 140.232 267.01 139.979C264.04 138.235 261.253 136.196 258.692 133.893L258.406 134.178C260.991 136.506 263.802 138.57 266.796 140.342C267.107 140.524 267.444 140.699 267.743 140.867L268.392 141.192C270.957 142.538 273.715 143.481 276.567 143.988C280.521 144.543 284.545 144.323 288.415 143.339C288.389 143.197 288.33 143.054 288.278 142.911ZM283.659 133.536C280.213 135.847 276.536 137.793 272.687 139.343C271.291 139.887 269.863 140.344 268.411 140.712L267.801 140.867C266.115 141.26 264.402 141.526 262.676 141.665L261.378 141.75C260.95 141.782 260.521 141.75 260.08 141.75H258.783L257.485 141.646C255.922 141.556 254.373 141.297 252.865 140.874C252.774 140.997 252.684 141.12 252.599 141.25C257.781 142.552 263.207 142.531 268.379 141.192L269.028 141.03C270.322 140.687 271.596 140.271 272.843 139.784C276.711 138.224 280.408 136.267 283.873 133.944L283.659 133.536ZM303.065 213.037C302.416 213.037 301.716 213.095 301.041 213.115H300.989L300.593 213.147C297.268 213.495 294.036 214.456 291.062 215.982C288.934 217.094 286.9 218.379 284.982 219.824H285.391C287.221 218.469 289.156 217.262 291.179 216.216C294.179 214.684 297.441 213.731 300.794 213.407H301.034H301.19C301.839 213.407 302.449 213.335 303.072 213.342C303.085 213.225 303.078 213.134 303.065 213.037ZM303.403 216.021C302.698 215.126 301.969 214.246 301.216 213.381C301.145 213.29 301.067 213.205 300.989 213.121L300.723 212.81C298.456 210.167 295.849 207.837 292.969 205.88C291.508 204.927 289.935 204.157 288.285 203.59C287.876 203.454 287.448 203.337 287.033 203.22C286.617 203.103 286.183 203.012 285.735 202.954C284.879 202.792 284.003 202.779 283.14 202.694C279.651 202.567 276.172 203.12 272.895 204.323C269.648 205.557 266.547 207.146 263.649 209.059C258.458 212.401 253.728 216.333 248.674 219.824H248.888C253.916 216.391 258.62 212.531 263.759 209.261C266.647 207.36 269.737 205.787 272.973 204.57C276.217 203.382 279.661 202.838 283.114 202.967C283.964 203.058 284.833 203.071 285.677 203.233C286.105 203.291 286.514 203.415 286.935 203.499C287.357 203.583 287.766 203.726 288.168 203.862C289.794 204.425 291.344 205.188 292.781 206.133C295.636 208.077 298.217 210.395 300.457 213.024C300.496 213.069 300.535 213.108 300.567 213.154L300.794 213.407C301.703 214.464 302.592 215.541 303.448 216.651C303.455 216.443 303.429 216.242 303.39 216.021H303.403Z" fill="white"/>
<path d="M253.114 138.149C237.056 156.725 215.411 189.536 224.254 196.79C238.795 208.716 281.26 215.606 291.006 216.761C295.21 217.267 303.632 189.783 300.823 186.227C298.013 182.672 253.114 180.161 252.809 177.403C252.634 175.839 259.453 162.24 263.839 145.558C268.881 126.327 257.637 132.913 253.114 138.149Z" fill="#AD6359"/>
<path d="M293.463 183.963C293.463 183.963 306.348 183.865 314.777 184.196C319.481 184.378 327.513 185.416 330.906 187.135C335.98 189.698 355.562 203.681 352.279 208.501C349.301 212.862 334.001 198.717 334.001 198.717C334.001 198.717 350.702 211.629 346.154 216.235C341.606 220.842 326.443 202.558 326.443 202.558C326.443 202.558 343.312 216.184 337.868 220.206C333.755 223.223 319.091 207.444 319.091 207.444C319.091 207.444 333.502 219.272 329.408 222.562C324.866 226.195 310.429 212.479 310.429 212.479C298.621 219.084 290.316 217.397 284.476 215.496C283.107 215.009 293.463 183.963 293.463 183.963Z" fill="#AD6359"/>
<path d="M328.514 193.883C330.532 195.33 332.582 196.777 334.464 198.425C336.345 200.073 338.169 201.728 339.894 203.518C344.118 207.905 346.078 211.304 345.929 211.11C342.529 206.445 335.885 200.547 334.003 198.925C332.121 197.303 330.324 195.596 328.449 193.981C328.404 193.909 328.468 193.851 328.514 193.883Z" fill="#263238"/>
<path d="M322.546 200.573C325.038 202.519 327.588 204.375 329.995 206.445C332.402 208.514 335.659 211.499 337.91 213.718C338.079 213.887 337.91 214.211 337.729 214.049C335.393 211.921 331.922 209.014 329.56 206.912C327.198 204.81 324.921 202.623 322.494 200.618C322.455 200.612 322.507 200.54 322.546 200.573Z" fill="#263238"/>
<path d="M316.367 205.387C320.332 208.184 323.777 211.707 327.073 215.243C327.242 215.418 327.073 215.444 326.865 215.275C323.368 211.934 320.643 209.287 316.27 205.543C316.218 205.465 316.302 205.329 316.367 205.387Z" fill="#263238"/>
<path d="M291.652 183.554C297.53 183.515 314.795 183.47 320.661 183.924C325.851 184.32 330.127 185.436 334.481 188.316C343.824 194.493 349.845 201.747 351.35 203.888C352.259 205.186 353.576 207.282 352.376 208.735C350.903 210.5 345.485 208.774 339.769 203.603C339.561 203.415 339.691 203.298 339.905 203.473C347.931 209.961 351.123 209.222 351.96 208.112C352.505 207.392 351.96 206.166 351.493 205.192C350.712 203.815 349.757 202.544 348.651 201.41C344.965 197.466 340.886 193.907 336.479 190.788C331.758 187.264 326.133 185.151 320.259 184.696C314.25 184.203 297.627 184.358 291.626 183.781C291.502 183.742 291.522 183.56 291.652 183.554Z" fill="#263238"/>
<path d="M347.106 213.64C346.775 212.038 345.62 210.571 344.705 209.248C343.594 207.582 342.318 206.032 340.897 204.621C340.838 204.563 340.728 204.621 340.786 204.712C341.997 206.127 343.121 207.614 344.154 209.163C344.703 210.016 345.201 210.9 345.646 211.811C346.068 212.686 346.568 213.699 346.347 214.698C345.932 216.605 343.505 216.56 342.071 216.047C341.142 215.698 340.247 215.263 339.398 214.75C338.241 214.012 337.143 213.186 336.115 212.278C336.031 212.2 335.797 212.232 335.888 212.317C338.029 214.354 342.084 218.591 345.393 217.04C346.028 216.759 346.546 216.267 346.859 215.647C347.171 215.027 347.258 214.318 347.106 213.64Z" fill="#263238"/>
<path d="M293.657 182.295L278.222 217.332C278.222 217.332 224.278 205.154 221.151 194.915C218.023 184.676 234.925 157.283 250.179 140.18C265.18 123.375 267.399 134.775 263.669 147.771C259.938 160.767 253.819 175.749 254.501 176.871C255.182 177.993 293.657 182.295 293.657 182.295Z" fill="#FFC727"/>
<path d="M257.972 165.186C257.933 165.283 257.901 165.387 257.862 165.484C254.865 164.01 251.69 162.933 248.415 162.279C246.72 161.976 244.994 161.881 243.276 161.993C242.848 161.993 242.426 162.084 241.979 162.143C241.531 162.201 241.135 162.272 240.72 162.389C239.876 162.571 239.078 162.895 238.254 163.148C235.075 164.358 232.158 166.169 229.664 168.482L230.073 167.774C232.452 165.673 235.191 164.018 238.157 162.889C238.988 162.629 239.799 162.298 240.655 162.117C241.077 162 241.511 161.948 241.953 161.857C242.394 161.766 242.816 161.74 243.25 161.708C244.985 161.591 246.728 161.685 248.441 161.987C251.744 162.634 254.948 163.709 257.972 165.186ZM286.521 182.36L286.151 182.139L284.672 181.264L283.776 181.16C284.425 181.568 285.132 181.984 285.814 182.38L286.183 182.6C288.13 183.736 290.076 184.826 292.075 185.844L292.231 185.487C290.31 184.495 288.409 183.45 286.521 182.36ZM275.99 180.212C275.601 180.861 275.205 181.51 274.803 182.126C273.927 183.515 273.012 184.884 272.039 186.208C271.948 186.331 271.864 186.454 271.773 186.571C270.788 187.901 269.726 189.173 268.594 190.38C267.413 191.632 266.109 192.763 264.701 193.753L264.175 194.123C264 194.247 263.805 194.344 263.624 194.454L262.514 195.103C261.749 195.489 260.96 195.825 260.152 196.109C256.88 197.196 253.453 197.75 250.005 197.75C246.573 197.736 243.153 197.346 239.805 196.589C236.425 195.869 233.109 194.889 229.781 193.922C226.828 193.066 223.857 192.203 220.82 191.638C220.82 191.742 220.82 191.846 220.82 191.943C223.824 192.508 226.764 193.377 229.703 194.227C233.025 195.2 236.353 196.174 239.747 196.92C243.138 197.693 246.604 198.094 250.083 198.114C253.57 198.115 257.035 197.559 260.347 196.466C261.174 196.181 261.98 195.841 262.761 195.447L263.896 194.798C264.088 194.696 264.274 194.583 264.454 194.461L264.993 194.084C266.422 193.084 267.746 191.94 268.944 190.672C270.152 189.379 271.283 188.016 272.331 186.59C272.428 186.467 272.513 186.35 272.597 186.227C273.518 184.968 274.388 183.677 275.192 182.367C275.633 181.679 276.062 180.978 276.49 180.284L275.99 180.212ZM286.969 181.51C286.702 181.718 286.43 181.925 286.151 182.12L285.814 182.36C285.063 182.89 284.276 183.367 283.458 183.787L282.894 184.092C282.706 184.196 282.498 184.268 282.303 184.358L281.123 184.865C280.317 185.155 279.494 185.392 278.657 185.572C276.646 186.002 274.595 186.22 272.539 186.221H272.039C270.819 186.221 269.599 186.123 268.386 185.993C264.962 185.562 261.596 184.755 258.349 183.586C255.104 182.464 251.906 181.082 248.726 179.693C245.562 178.262 242.312 177.029 238.994 176.002C235.666 175.048 232.116 174.529 228.671 175.203C227.575 175.424 226.514 175.793 225.518 176.3C225.453 176.43 225.388 176.566 225.33 176.696C226.396 176.127 227.539 175.716 228.723 175.476C232.11 174.827 235.614 175.333 238.91 176.287C242.208 177.318 245.439 178.553 248.584 179.985C251.763 181.354 254.942 182.743 258.219 183.878C261.498 185.064 264.896 185.889 268.354 186.337C269.496 186.467 270.637 186.551 271.779 186.571C271.948 186.571 272.11 186.571 272.279 186.571C274.458 186.606 276.633 186.402 278.767 185.961C279.62 185.773 280.461 185.532 281.285 185.241L282.492 184.722C282.693 184.631 282.894 184.56 283.089 184.456L283.666 184.144C284.552 183.693 285.402 183.174 286.209 182.594L286.547 182.354C286.884 182.107 287.196 181.847 287.559 181.588L286.969 181.51ZM258.718 133.86C258.439 133.613 258.167 133.373 257.894 133.12L257.544 133.347L258.452 134.158C260.565 136.05 262.821 137.775 265.2 139.317C265.2 139.154 265.2 138.992 265.2 138.837C262.923 137.349 260.76 135.692 258.731 133.879L258.718 133.86ZM262.663 141.646L261.366 141.73C260.937 141.763 260.509 141.73 260.068 141.73H258.77L257.473 141.627C255.757 141.524 254.059 141.223 252.412 140.731C251.692 140.517 250.978 140.27 250.277 139.985L250.121 140.16L249.972 140.329C250.729 140.646 251.502 140.921 252.289 141.153C256.398 142.25 260.69 142.489 264.895 141.854C264.895 141.691 264.941 141.536 264.967 141.373C264.246 141.516 263.461 141.607 262.676 141.665L262.663 141.646ZM283.14 202.675C279.651 202.554 276.171 203.113 272.895 204.323C269.649 205.557 266.548 207.146 263.65 209.059C262.028 210.11 260.444 211.214 258.881 212.349L259.134 212.42C260.652 211.324 262.19 210.266 263.766 209.261C266.654 207.36 269.744 205.787 272.98 204.569C276.224 203.382 279.669 202.838 283.121 202.967C283.569 203.012 284.016 203.038 284.464 203.077L284.587 202.805C284.127 202.766 283.634 202.74 283.153 202.694L283.14 202.675Z" fill="white"/>
<path d="M272.033 211.538C272.558 210.539 273.064 209.54 273.571 208.534C274.587 206.497 275.599 204.455 276.607 202.409C278.605 198.347 280.5 194.234 282.323 190.081C283.368 187.732 284.503 185.41 285.444 183.015C285.455 182.991 285.457 182.964 285.447 182.939C285.438 182.914 285.42 182.894 285.396 182.882C285.371 182.871 285.344 182.87 285.319 182.879C285.294 182.888 285.274 182.907 285.262 182.931C284.14 184.91 283.167 186.98 282.129 189.011C281.091 191.042 280.033 193.053 279.034 195.103C277.044 199.165 275.115 203.259 273.246 207.386C272.721 208.54 272.15 209.682 271.676 210.863C271.429 211.467 271.144 212.051 270.904 212.661C270.664 213.27 270.482 213.893 270.255 214.497C270.252 214.503 270.25 214.51 270.25 214.517C270.25 214.524 270.251 214.531 270.253 214.538C270.256 214.544 270.259 214.551 270.264 214.556C270.269 214.561 270.275 214.565 270.281 214.568C270.287 214.571 270.294 214.573 270.301 214.573C270.308 214.573 270.315 214.572 270.322 214.57C270.329 214.567 270.335 214.564 270.34 214.559C270.345 214.554 270.349 214.549 270.352 214.542C270.878 213.536 271.494 212.563 272.033 211.538Z" fill="#263238"/>
<path d="M279.385 214.925L278.301 217.377L278.269 217.455H278.165C273.059 216.508 267.985 215.373 262.943 214.107C257.902 212.842 252.9 211.408 247.949 209.812C242.981 208.242 238.108 206.383 233.357 204.245C230.973 203.173 228.67 201.928 226.466 200.521C225.367 199.804 224.327 198.999 223.358 198.114C222.359 197.257 221.593 196.161 221.133 194.928C221.707 196.086 222.545 197.093 223.579 197.867C224.603 198.654 225.69 199.355 226.83 199.963C229.083 201.216 231.41 202.332 233.798 203.304C238.567 205.283 243.466 206.97 248.39 208.553C253.315 210.137 258.285 211.609 263.268 213.024C268.251 214.438 273.253 215.84 278.262 217.183L278.133 217.248L279.385 214.925Z" fill="#263238"/>
<path d="M293.04 183.658L293.578 182.263L293.637 182.36C288.225 182.003 282.821 181.568 277.416 181.004C272.011 180.44 266.639 179.823 261.266 179.019C259.923 178.811 258.58 178.59 257.237 178.331C256.588 178.195 255.894 178.065 255.2 177.87C255.025 177.818 254.856 177.766 254.668 177.695C254.56 177.66 254.456 177.614 254.356 177.559C254.281 177.518 254.209 177.47 254.142 177.416C254.072 177.357 254.013 177.287 253.967 177.208C253.941 177.158 253.917 177.106 253.896 177.053C253.892 177.027 253.892 177.001 253.896 176.975C253.87 176.728 253.883 176.478 253.935 176.235C253.967 176.06 254 175.872 254.045 175.71C254.733 173.017 255.602 170.474 256.485 167.924C258.249 162.791 260.17 157.724 262.194 152.689C260.631 157.88 259.028 163.07 257.432 168.261C256.666 170.856 255.823 173.452 255.232 176.047C255.193 176.209 255.174 176.358 255.142 176.514C255.109 176.67 255.142 176.852 255.109 176.787C255.102 176.752 255.089 176.719 255.07 176.689C255.07 176.624 254.953 176.56 254.979 176.573C254.947 176.573 255.005 176.585 254.979 176.573L255.142 176.637L255.57 176.774C256.219 176.942 256.867 177.066 257.516 177.195C258.814 177.435 260.17 177.643 261.5 177.844C264.173 178.246 266.851 178.625 269.533 178.98L277.585 180.063C282.95 180.777 288.316 181.543 293.682 182.328H293.779L293.74 182.412L293.04 183.658Z" fill="#263238"/>
<path d="M262.775 156.011C262.394 156.926 261.913 157.797 261.341 158.606C260.803 159.435 260.147 160.18 259.395 160.819C259.888 159.956 260.413 159.138 260.971 158.327C261.513 157.511 262.116 156.736 262.775 156.011Z" fill="#263238"/>
<path d="M278.497 144.027C273.916 145.325 265.663 138.622 262.276 133.036C262.043 132.653 262.964 116.874 262.821 113.727C262.821 113.078 282.766 117.62 282.766 117.62C282.766 117.62 281.125 124.303 281.41 129.785C281.43 130.253 282.916 142.769 278.497 144.027Z" fill="#AD6359"/>
<path d="M262.516 123.609C271.852 130.201 280.949 127.67 281.332 127.553C281.485 124.209 281.948 120.886 282.714 117.626C282.714 117.626 262.73 113.085 262.762 113.733C262.879 115.206 262.717 119.463 262.516 123.609Z" fill="#263238"/>
<path d="M282.668 104.624C283.18 109.282 286.911 112.695 290.992 112.241C295.074 111.787 297.974 107.654 297.481 103.002C296.988 98.3496 293.244 94.9303 289.156 95.3845C285.069 95.8387 282.155 99.9717 282.668 104.624Z" fill="#455A64"/>
<path d="M280.308 105.182C280.879 110.372 285.025 114.155 289.567 113.655C294.108 113.156 297.353 108.556 296.762 103.371C296.172 98.1873 292.052 94.3982 287.503 94.8978C282.955 95.3974 279.737 100.004 280.308 105.182Z" fill="#C7C7C7"/>
<path d="M260.055 90.0186C257.875 97.013 261.45 117.269 266.401 121.811C273.583 128.397 285.405 129.091 291.011 120.449C296.448 112.066 291.322 85.7558 285.781 81.6228C277.626 75.5238 263.273 79.6957 260.055 90.0186Z" fill="#AD6359"/>
<path d="M276.886 102.736C276.886 102.69 276.795 102.82 276.808 102.879C277.106 104.228 277.23 105.831 276.088 106.518C276.049 106.518 276.088 106.609 276.088 106.59C277.573 106.09 277.392 103.969 276.886 102.736Z" fill="#263238"/>
<path d="M275.4 101.548C273.181 101.801 273.849 106.226 275.906 105.993C277.963 105.759 277.262 101.341 275.4 101.548Z" fill="#263238"/>
<path d="M284.763 101.672C284.763 101.62 284.88 101.723 284.886 101.782C285.049 103.157 285.47 104.702 286.774 104.974C286.813 104.974 286.826 105.052 286.774 105.052C285.224 105.065 284.698 103.002 284.763 101.672Z" fill="#263238"/>
<path d="M285.769 100.043C287.949 99.5433 288.786 103.936 286.768 104.403C284.75 104.87 283.926 100.478 285.769 100.043Z" fill="#263238"/>
<path d="M273.35 99.79C273.907 99.5333 274.448 99.2451 274.972 98.9271C275.585 98.7031 276.107 98.2835 276.458 97.7332C276.534 97.5384 276.543 97.324 276.485 97.1233C276.426 96.9226 276.302 96.7469 276.134 96.6237C275.764 96.4301 275.35 96.3387 274.933 96.3593C274.517 96.3798 274.114 96.5115 273.765 96.7405C272.983 97.0931 272.361 97.7247 272.02 98.5118C271.952 98.6955 271.939 98.8951 271.982 99.0862C272.026 99.2772 272.125 99.4513 272.266 99.587C272.407 99.7228 272.585 99.8144 272.778 99.8504C272.97 99.8865 273.169 99.8655 273.35 99.79Z" fill="#263238"/>
<path d="M287.172 97.571C286.559 97.5407 285.948 97.4779 285.342 97.3828C284.691 97.4074 284.05 97.2157 283.519 96.8378C283.373 96.6863 283.282 96.4905 283.259 96.2814C283.237 96.0723 283.285 95.8618 283.395 95.6829C283.667 95.3657 284.018 95.126 284.412 94.9881C284.806 94.8502 285.23 94.8191 285.64 94.8978C286.497 94.9333 287.309 95.2874 287.918 95.8905C288.048 96.0349 288.134 96.214 288.165 96.4062C288.196 96.5985 288.17 96.7955 288.091 96.9734C288.012 97.1513 287.883 97.3025 287.72 97.4086C287.557 97.5146 287.366 97.5711 287.172 97.571Z" fill="#263238"/>
<path d="M277.639 115.576C278.015 115.848 278.411 116.225 278.936 116.225C279.445 116.139 279.929 115.947 280.357 115.66C280.365 115.651 280.376 115.645 280.388 115.644C280.401 115.642 280.413 115.646 280.422 115.654C280.432 115.662 280.438 115.673 280.439 115.685C280.44 115.697 280.436 115.709 280.429 115.719C280.275 116.019 280.042 116.271 279.755 116.449C279.468 116.626 279.138 116.721 278.8 116.724C278.51 116.695 278.236 116.58 278.012 116.394C277.787 116.208 277.624 115.959 277.541 115.68C277.483 115.615 277.58 115.537 277.639 115.576Z" fill="#263238"/>
<path d="M278.455 111.261C278.884 111.75 279.411 112.145 280 112.421C280.59 112.696 281.23 112.847 281.88 112.864C282.45 112.886 283.021 112.827 283.574 112.689C283.681 112.669 283.785 112.639 283.885 112.598C283.984 112.573 284.082 112.542 284.177 112.507C284.248 112.483 284.31 112.437 284.352 112.374C284.394 112.312 284.415 112.238 284.411 112.163C284.407 112.116 284.396 112.07 284.378 112.027V111.91C284.242 110.853 283.898 109.263 283.898 109.263C284.314 109.399 286.416 109.983 286.299 109.438C285.339 104.896 284.268 99.8874 282.354 95.5986C282.341 95.5703 282.318 95.5477 282.29 95.5347C282.262 95.5218 282.23 95.5194 282.2 95.5281C282.17 95.5367 282.144 95.5558 282.127 95.5818C282.11 95.6079 282.103 95.6391 282.108 95.67C282.86 100.05 284.378 104.267 285.209 108.647C284.461 108.427 283.685 108.316 282.906 108.316C282.763 108.381 283.626 111.372 283.645 111.852C283.649 111.869 283.649 111.887 283.645 111.904C281.906 112.397 280.492 112.066 278.591 111.138C278.448 111.073 278.357 111.164 278.455 111.261Z" fill="#263238"/>
<path d="M282.871 112.248C282.41 113.087 281.739 113.794 280.925 114.298C280.47 114.557 279.947 114.67 279.426 114.622C278.291 114.499 278.128 113.5 278.18 112.611C278.223 112.138 278.321 111.672 278.472 111.222C279.792 112.024 281.333 112.383 282.871 112.248Z" fill="#263238"/>
<path d="M280.913 114.317C280.458 114.576 279.935 114.689 279.414 114.642C278.279 114.518 278.117 113.519 278.169 112.63C279.382 112.552 280.641 113.175 280.913 114.317Z" fill="#FF99BA"/>
<path opacity="0.2" d="M263.376 97.2141C262.578 99.2255 260.936 103.949 260.002 104.28C259.113 97.7137 259.081 91.7574 260.709 88.098C261.383 86.5866 262.329 85.212 263.499 84.0428C263.636 85.8012 264.226 95.1119 263.376 97.2141Z" fill="#263238"/>
<path d="M280.928 87.8256C280.373 88.7885 279.579 89.5926 278.624 90.1606C277.668 90.7287 276.583 91.0418 275.471 91.0698C274.34 91.0994 273.22 90.8395 272.218 90.315C271.215 89.7904 270.363 89.0184 269.742 88.0722C269.739 88.0662 269.734 88.061 269.729 88.0568C269.723 88.0526 269.717 88.0495 269.711 88.0477C269.704 88.0459 269.697 88.0454 269.69 88.0463C269.683 88.0471 269.677 88.0493 269.671 88.0527C269.665 88.0561 269.66 88.0607 269.655 88.0661C269.651 88.0715 269.648 88.0778 269.646 88.0844C269.645 88.091 269.644 88.0979 269.645 88.1047C269.646 88.1116 269.648 88.1181 269.651 88.1241C270.216 89.1801 271.058 90.0618 272.087 90.6736C273.117 91.2854 274.294 91.6042 275.491 91.5953C276.664 91.5292 277.799 91.1556 278.781 90.5122C279.764 89.8687 280.561 88.978 281.09 87.9295C281.104 87.9079 281.109 87.8818 281.103 87.8569C281.098 87.832 281.083 87.8102 281.061 87.7964C281.04 87.7827 281.013 87.778 280.989 87.7835C280.964 87.789 280.942 87.8041 280.928 87.8256Z" fill="#263238"/>
<path d="M294.465 77.3859C293.53 75.6618 292.015 74.3241 290.189 73.6097C287.658 72.6105 285.121 73.2788 282.61 73.999C282.597 73.999 282.584 74.0045 282.574 74.0143C282.564 74.024 282.559 74.0372 282.559 74.051C282.559 74.0647 282.564 74.0779 282.574 74.0877C282.584 74.0974 282.597 74.1029 282.61 74.1029C284.745 73.4995 286.951 73.0128 289.131 73.6746C290.936 74.2145 292.499 75.3603 293.556 76.9188C294.588 78.5326 295.004 80.4638 294.729 82.3593C294.454 84.2548 293.505 85.9879 292.057 87.2417C291.204 87.9419 290.216 88.4603 289.155 88.7649C288.094 89.0695 286.982 89.1539 285.887 89.013C285.803 89.013 285.764 89.1298 285.855 89.1427C287.345 89.3956 288.876 89.2279 290.277 88.6584C291.677 88.089 292.891 87.1403 293.782 85.9191C294.673 84.6978 295.206 83.2523 295.321 81.745C295.436 80.2376 295.128 78.7281 294.432 77.3859H294.465Z" fill="#263238"/>
<path d="M259.463 94.0608C259.463 94.0608 254.772 88.0332 257.043 83.6795C258.34 81.2075 263.927 80.5262 263.927 80.5262C263.927 80.5262 265.224 77.6649 269.643 75.8092C274.061 73.9536 280.024 75.0436 280.024 75.0436C280.024 75.0436 283.988 71.7476 288.53 73.3826C294.863 75.6665 295.667 84.562 290.373 88.39C286.649 91.0827 280.498 88.4485 280.498 88.4485C279.979 88.6107 275.112 92.841 270.155 88.708C270.155 88.708 267.333 92.2636 263.966 90.7064C263.647 91.6582 263.045 92.4897 262.24 93.0894C261.435 93.689 260.466 94.028 259.463 94.0608Z" fill="#263238"/>
<path d="M264.281 106.531C264.281 106.531 259.616 100.043 256.67 101.724C253.725 103.404 257.319 112.831 260.797 114.051C261.234 114.243 261.705 114.345 262.182 114.351C262.659 114.357 263.132 114.266 263.573 114.084C264.014 113.902 264.414 113.633 264.749 113.293C265.083 112.953 265.346 112.549 265.52 112.105L264.281 106.531Z" fill="#AD6359"/>
<path d="M257.757 104.41C257.699 104.41 257.692 104.481 257.757 104.501C260.216 105.461 261.533 107.706 262.468 110.042C261.728 109.146 260.735 108.666 259.535 109.548C259.47 109.594 259.535 109.691 259.6 109.678C260.027 109.542 260.486 109.54 260.915 109.674C261.343 109.807 261.72 110.069 261.994 110.424C262.456 111.028 262.849 111.681 263.168 112.371C263.285 112.585 263.675 112.462 263.59 112.215V112.157C263.59 109.003 261.105 104.676 257.757 104.41Z" fill="#263238"/>
<path d="M260.393 101.99C260.393 101.99 257.869 91.9327 259.835 85.7688C262.022 78.9172 270.268 72.2083 280.014 75.0566C280.014 75.0566 269.198 76.4516 263.942 85.4898C261.529 89.6423 263.845 101.633 263.845 101.633L260.393 101.99Z" fill="#C7C7C7"/>
<path d="M270.865 105.376C271.851 110.567 268.977 115.459 264.435 116.329C259.893 117.198 255.403 113.733 254.411 108.543C253.418 103.352 256.299 98.4599 260.84 97.5905C265.382 96.721 269.872 100.199 270.865 105.376Z" fill="#C7C7C7"/>
<path d="M268.411 105.545C269.3 110.197 266.711 114.629 262.63 115.388C258.549 116.147 254.513 113.02 253.624 108.374C252.735 103.728 255.318 99.2904 259.399 98.5312C263.48 97.7721 267.516 100.886 268.411 105.545Z" fill="#455A64"/>
<path d="M10.957 219.824H90.5425L74.6721 127.515H15.1614L10.957 219.824Z" fill="#DBDBDB"/>
<path d="M10.957 219.824H17.932L21.8509 127.515H15.1614L10.957 219.824Z" fill="#A6A6A6"/>
<path d="M58.1272 87.2546C50.737 94.6058 48.6153 106.719 48.6153 106.719C48.6153 106.719 41.5301 118.911 43.509 125.536C44.0325 127.414 45.0037 129.137 46.3395 130.558C47.6752 131.978 49.3356 133.053 51.1782 133.691L50.4775 130.032C50.4775 130.032 52.8522 134.736 60.7874 136.631C68.7226 138.525 79.2206 136.086 84.6838 133.321C87.9218 131.701 90.6847 129.268 92.7033 126.262L90.6595 131.583C90.6595 131.583 98.3611 131.31 102.935 123.115C107.51 114.921 94.3708 103.144 93.2548 100.607C92.1388 98.0705 90.7244 79.5854 71.279 82.7711C71.3049 82.7257 63.24 82.1937 58.1272 87.2546Z" fill="#263238"/>
<path d="M48.3943 133.166C46.3699 131.654 44.3715 129.922 43.2555 127.781C42.0386 125.561 41.6065 122.996 42.0292 120.501C42.5678 117.51 44.1444 114.869 45.6757 112.293C47.2069 109.717 49.0496 107.102 50.5873 104.397C50.6717 104.248 50.4446 104.124 50.3408 104.241C48.613 106.27 47.0014 108.395 45.5135 110.606C43.9913 112.628 42.7109 114.821 41.6983 117.14C40.752 119.275 40.4411 121.638 40.803 123.946C41.1857 125.822 42.0185 127.576 43.2296 129.059C44.6635 130.843 46.4737 131.985 48.2905 133.328C48.3943 133.412 48.5046 133.25 48.3943 133.166Z" fill="#263238"/>
<path d="M104.603 114.642C102.267 107.836 96.1682 103.514 92.4244 97.5776C90.4131 94.3659 88.8494 90.8103 86.2281 88.0203C86.1567 87.9424 86.027 88.0657 86.0919 88.1436C88.246 90.6545 89.4917 93.6781 91.0489 96.5784C92.708 99.4324 94.6467 102.114 96.8365 104.585C100.691 109.205 105.304 114.674 104.421 121.143C104.013 124.128 102.248 127.437 99.1852 128.365C99.0684 128.403 99.1398 128.598 99.2566 128.546C100.464 128.061 101.561 127.335 102.479 126.413C103.397 125.49 104.117 124.391 104.596 123.18C105.628 120.428 105.631 117.396 104.603 114.642Z" fill="#263238"/>
<path d="M104.882 116.471C105.093 113.894 104.499 111.314 103.182 109.088C101.839 106.895 99.7302 105.312 97.6215 103.897C95.1884 102.282 92.6255 100.744 91.0813 98.1809C91.0164 98.0706 90.8607 98.1809 90.9191 98.2912C93.3717 102.522 98.0562 104.494 101.19 108.056C104.791 112.124 104.798 118.048 102.319 122.7C100.744 125.536 98.5207 127.959 95.8308 129.772C95.7853 129.772 95.8308 129.87 95.8827 129.837C100.47 126.827 104.512 122.194 104.882 116.471Z" fill="#263238"/>
<path d="M75.4772 147.479C95.1692 158.288 118.741 171.856 133.184 168.663C139.588 167.249 168.344 129.552 169.564 125.192C170.609 121.448 144.571 106.376 141.664 109.328C136.759 114.278 123.497 142.152 121.551 142.619C119.604 143.086 103.072 139.732 85.8649 136.624C69.3068 133.652 61.8063 139.978 75.4772 147.479Z" fill="#EB9481"/>
<path d="M166.769 129.889C169.014 127.06 178.175 113.188 179.856 108.757C181.536 104.325 185.468 91.2385 182.211 89.5904C178.954 87.9424 177.513 91.6732 177.513 91.6732C177.513 91.6732 178.299 85.8791 174.866 84.536C171.434 83.193 169.358 89.0779 169.358 89.0779C169.358 89.0779 169.727 83.0697 166.204 81.9407C162.681 80.8118 161.591 87.1314 161.591 87.1314C161.591 87.1314 162.188 81.6552 158.905 81.9407C154.96 82.3235 155.012 92.5491 152.78 97.2985C152.274 98.3756 140.965 118.437 140.965 118.437L166.769 129.889Z" fill="#EB9481"/>
<path d="M161.668 86.6188C161.668 94.1387 160.371 97.4348 156.478 103.702C156.4 103.819 156.562 103.962 156.659 103.845C161.071 98.0576 163.29 94.1647 162.057 86.5993C161.973 86.2295 161.668 86.2619 161.668 86.6188Z" fill="#263238"/>
<path d="M169.316 88.4874C168.667 96.2734 167.279 99.8809 163.639 106.752C163.587 106.849 163.749 106.947 163.808 106.849C167.941 100.413 170.069 96.4681 169.706 88.5848C169.725 88.2279 169.349 88.1306 169.316 88.4874Z" fill="#263238"/>
<path d="M177.293 92.017C176.106 99.5305 174.769 103.527 170.383 109.743C170.371 109.757 170.363 109.773 170.357 109.791C170.352 109.808 170.35 109.826 170.352 109.844C170.354 109.862 170.359 109.88 170.368 109.896C170.377 109.912 170.388 109.926 170.402 109.938C170.416 109.949 170.433 109.958 170.45 109.963C170.467 109.968 170.486 109.97 170.504 109.968C170.522 109.966 170.539 109.961 170.555 109.953C170.571 109.944 170.585 109.932 170.597 109.918C175.69 104.014 177.397 99.0438 177.52 92.0754C177.513 91.6082 177.371 91.5434 177.293 92.017Z" fill="#263238"/>
<path d="M135.392 120.708C135.392 120.708 134.84 111.307 135.515 107.122C136.19 102.937 144.424 88.2603 147.668 89.8564C151.892 91.9261 148.803 101.334 146.688 105.746C146.688 105.746 156.459 110.509 155.707 117.743C154.954 124.978 135.392 120.708 135.392 120.708Z" fill="#EB9481"/>
<path d="M148.667 90.8038C151.159 95.4688 148.018 101.081 146.279 105.513C146.251 105.577 146.239 105.647 146.243 105.717C146.248 105.787 146.269 105.854 146.305 105.914C146.342 105.974 146.392 106.024 146.452 106.061C146.512 106.097 146.579 106.118 146.649 106.123C150.614 108.394 155.545 112.754 155.966 117.555C155.966 117.584 155.978 117.612 155.999 117.633C156.019 117.654 156.048 117.665 156.077 117.665C156.106 117.665 156.134 117.654 156.155 117.633C156.175 117.612 156.187 117.584 156.187 117.555C156.434 112.364 151.937 107.667 147.441 105.454C149.284 100.913 152.197 95.1704 148.739 90.7778C148.693 90.7583 148.654 90.7778 148.667 90.8038Z" fill="#263238"/>
<path d="M116.867 141.082L93.1656 160.949C93.1656 160.949 78.6967 153.422 68.0104 144.773C57.3242 136.125 69.1589 131.92 87.5078 135.002C105.857 138.084 116.867 141.082 116.867 141.082Z" fill="#FFC727"/>
<path d="M88.7911 145.072C88.1196 144.155 87.3421 143.321 86.4748 142.587C87.4346 144.65 88.8212 146.485 90.543 147.972C90.0779 146.938 89.4897 145.965 88.7911 145.072ZM68.0286 144.786L68.3141 145.007C68.5022 144.806 68.6904 144.592 68.8656 144.358C68.5671 144.494 68.2881 144.637 68.0156 144.812L68.0286 144.786ZM107.705 144.916C106.583 144.752 105.447 144.717 104.318 144.812C105.377 145.212 106.478 145.488 107.601 145.636C108.721 145.806 109.858 145.843 110.988 145.747C109.925 145.343 108.819 145.065 107.692 144.916H107.705ZM99.7693 137.234C99.7547 137.667 99.7699 138.101 99.8148 138.532C99.973 138.142 100.107 137.744 100.217 137.338L99.7693 137.234Z" fill="white"/>
<path d="M87.8591 156.705C92.6799 152.073 97.8317 147.771 103.055 143.58C104.534 142.399 106.039 141.244 107.597 140.134C107.642 140.102 107.7 140.134 107.655 140.193C105.202 142.457 102.652 144.618 100.116 146.791C97.5786 148.965 95.0092 151.138 92.4074 153.247C90.9346 154.441 89.4682 155.635 87.9759 156.796C87.8851 156.842 87.8007 156.764 87.8591 156.705Z" fill="#263238"/>
<path d="M103.237 152.508L93.1605 160.942C93.1605 160.942 78.6916 153.422 68.0054 144.773C64.2097 141.705 63.2559 139.2 64.4173 137.377L103.237 152.508Z" fill="#263238"/>
<path d="M98.3584 219.746H22.8281C22.8281 219.746 39.237 156.374 54.4261 138.532C54.7635 138.123 55.1139 137.734 55.4643 137.37C55.5356 137.286 55.6005 137.228 55.6719 137.156C56.8477 135.9 58.2167 134.84 59.7271 134.016C59.9931 133.873 60.2591 133.737 60.5381 133.62C66.3776 130.927 72.5674 133.159 77.0249 136.974C78.4393 138.181 94.4525 159.035 95.841 166.957C97.0672 173.971 92.3308 181.504 92.3308 181.504L98.3584 219.746Z" fill="#FFC727"/>
<path d="M81.0136 178.792C77.7976 179.105 74.6095 179.658 71.4758 180.446C69.9186 180.861 68.4003 181.341 66.8756 181.854C66.1164 182.114 65.3573 182.347 64.5917 182.574C63.7945 182.834 62.9688 182.995 62.1326 183.054C62.1171 183.054 62.1023 183.061 62.0913 183.071C62.0804 183.082 62.0742 183.097 62.0742 183.113C62.0742 183.128 62.0804 183.143 62.0913 183.154C62.1023 183.165 62.1171 183.171 62.1326 183.171C62.9247 183.205 63.7182 183.183 64.5073 183.106C65.2671 183.011 66.0193 182.864 66.7588 182.665C68.3419 182.256 69.8991 181.783 71.4758 181.367C74.655 180.524 77.8278 179.68 81.059 179.064C81.0951 179.058 81.1274 179.038 81.1487 179.008C81.17 178.978 81.1785 178.941 81.1725 178.905C81.1665 178.869 81.1464 178.837 81.1166 178.815C81.0867 178.794 81.0497 178.786 81.0136 178.792Z" fill="#263238"/>
<path d="M88.9966 181.575C86.3423 181.32 83.6757 181.214 81.0095 181.257C79.7118 181.29 78.3558 181.393 77.0257 181.53C76.3769 181.601 75.728 181.679 75.1311 181.763C74.5342 181.848 73.7556 182.042 73.0613 182.127C72.99 182.127 72.99 182.25 73.0613 182.243C73.7102 182.185 74.3914 182.243 75.0533 182.211L77.0452 182.139C78.3428 182.101 79.6989 182.068 81.029 182.01C83.6892 181.899 86.3429 181.815 89.0031 181.789C89.1458 181.796 89.1329 181.588 88.9966 181.575Z" fill="#263238"/>
<path d="M47.2499 153.429C46.893 152.975 46.5297 152.527 46.1339 152.131L45.8549 152.715C46.1144 153.117 46.3934 153.513 46.6789 153.896C47.3511 154.806 48.1286 155.634 48.9952 156.361C48.5216 155.323 47.9364 154.34 47.2499 153.429ZM56.0156 136.806C55.8834 137.819 55.8617 138.844 55.9507 139.862C56.3538 138.798 56.6261 137.689 56.7617 136.559C56.7617 136.391 56.8071 136.215 56.8266 136.047C56.5541 136.287 56.2816 136.54 56.0156 136.806ZM78.9387 157.919C78.5347 158.981 78.2559 160.088 78.1082 161.215C77.9448 162.338 77.9078 163.476 77.9979 164.608C78.4053 163.547 78.6799 162.44 78.8155 161.312C78.9935 160.19 79.0349 159.051 78.9387 157.919ZM64.5023 194.461C64.1024 195.519 63.828 196.621 63.6847 197.744C63.5202 198.867 63.4854 200.006 63.5809 201.137C64.3521 199.001 64.666 196.726 64.5023 194.461ZM39.9635 166.873C39.5673 167.939 39.2931 169.047 39.146 170.175C38.9809 171.296 38.946 172.433 39.0422 173.562C39.4393 172.498 39.7114 171.392 39.8532 170.266C40.0233 169.143 40.0603 168.004 39.9635 166.873ZM60.2719 162.24C59.1507 162.075 58.0142 162.04 56.885 162.136C57.9441 162.536 59.0457 162.812 60.1681 162.96C61.2888 163.13 62.4256 163.167 63.555 163.07C62.4994 162.66 61.3999 162.372 60.2784 162.214L60.2719 162.24ZM87.4449 193.384C86.3215 193.219 85.1829 193.184 84.0515 193.28C86.1879 194.051 88.4625 194.365 90.728 194.201C89.671 193.8 88.5717 193.522 87.4514 193.371L87.4449 193.384ZM36.7194 190.393C35.6174 190.233 34.5013 190.194 33.3909 190.276H33.326H33.3844C34.4325 190.662 35.5207 190.93 36.6285 191.074C37.7498 191.239 38.8862 191.273 40.0154 191.178C38.9508 190.789 37.8447 190.526 36.7194 190.393ZM65.216 217.183C64.0947 217.018 62.9583 216.983 61.8291 217.079C63.9674 217.852 66.2448 218.163 68.512 217.994C67.4392 217.598 66.3246 217.326 65.19 217.183H65.216ZM34.5653 213.9C33.4419 213.735 32.3032 213.7 31.1719 213.796C32.2317 214.191 33.3332 214.463 34.455 214.607C35.5775 214.781 36.7173 214.816 37.8483 214.711C36.7802 214.314 35.6698 214.042 34.5393 213.9H34.5653ZM65.9556 146.11C65.0417 146.79 64.208 147.571 63.4706 148.439C64.5059 147.968 65.4852 147.383 66.3904 146.694C67.3026 146.017 68.1304 145.232 68.8559 144.358C67.8277 144.834 66.855 145.421 65.9556 146.11ZM74.0401 180.842C73.1282 181.512 72.3004 182.29 71.5745 183.158C72.6067 182.69 73.5801 182.102 74.4748 181.406C75.3881 180.738 76.2162 179.96 76.9403 179.09C75.9088 179.565 74.9356 180.157 74.0401 180.855V180.842ZM45.6927 202.072C44.7757 202.74 43.9453 203.521 43.2206 204.394C44.2489 203.919 45.2216 203.331 46.1209 202.643C47.033 201.965 47.8665 201.189 48.6059 200.326C47.5643 200.787 46.5854 201.377 45.6927 202.085V202.072ZM92.7718 171.531C92.1002 170.614 91.3227 169.78 90.4555 169.046C91.4152 171.109 92.8018 172.944 94.5236 174.431C94.0576 173.402 93.4694 172.433 92.7718 171.544V171.531ZM83.1107 210.831C82.4338 209.919 81.6568 209.085 80.7944 208.346C81.2492 209.387 81.8358 210.367 82.5397 211.259C83.2101 212.173 83.9877 213.003 84.8561 213.731C84.3829 212.703 83.7975 211.73 83.1107 210.831ZM54.666 179.921C53.9926 179.005 53.2153 178.171 52.3497 177.435C52.8097 178.476 53.3983 179.455 54.1015 180.349C54.7699 181.264 55.5478 182.094 56.4178 182.821C55.9454 181.791 55.3577 180.818 54.666 179.921Z" fill="white"/>
<path d="M52.8795 139.025C38.3522 150.736 1.14827 197.147 9.53764 207.872C17.927 218.597 73.6874 213.712 89.8757 208.638C94.6901 207.132 81.5577 176.579 76.3541 175.171C72.0199 173.997 47.9873 181.101 47.5201 179.713C46.9946 178.143 53.4569 169.455 61.6711 150.632C71.144 128.922 59.2964 133.854 52.8795 139.025Z" fill="#EB9481"/>
<path d="M102.602 172.621C113.703 173.919 116.357 175.937 126.303 172.044C132.831 169.494 137.262 172.563 132.487 178.071C124.701 187.084 110.011 188.453 104.788 187.441L102.602 172.621Z" fill="#EB9481"/>
<path d="M71.4609 175.56C71.4609 175.56 85.2356 171.998 97.2 172.193C105.479 172.329 123.452 174.633 135.65 196.115C138.543 201.209 139.056 210.526 131.303 203.901C125.8 199.21 123.731 194.571 120.032 192.424C120.032 192.424 119.273 204.343 114.057 207.048C109.494 209.407 104.769 211.439 99.9186 213.128C99.4047 212.311 98.9452 211.461 98.5431 210.584C98.5431 210.584 93.4303 212.648 85.5665 209.786L71.4609 175.56Z" fill="#EB9481"/>
<path d="M105.084 173.588C108.328 176.495 115.024 182.762 118.709 189.809C122.836 197.634 128.675 213.815 122.868 216.806C118.612 218.999 115.835 213.011 115.835 213.011C115.835 213.011 116.84 220.213 112.59 221.348C108.698 222.386 106.822 217.624 106.822 217.624C106.822 217.624 106.68 222.094 102.735 222.373C97.9853 222.698 99.0624 213.29 93.9626 209.455C92.8142 208.592 105.084 173.588 105.084 173.588Z" fill="#EB9481"/>
<path d="M109.746 192.826C112.341 196.07 116.306 204.894 115.968 212.894C115.968 213.076 115.819 213.167 115.793 212.998C114.576 206.07 112.521 199.316 109.674 192.884C109.667 192.875 109.663 192.863 109.664 192.85C109.666 192.838 109.672 192.827 109.681 192.819C109.69 192.812 109.703 192.808 109.715 192.809C109.727 192.81 109.738 192.816 109.746 192.826Z" fill="#263238"/>
<path d="M101.965 197.186C103.911 200.203 107.603 209.514 106.98 217.592C106.98 217.773 106.818 217.851 106.798 217.682C105.941 210.697 104.293 203.832 101.887 197.218C101.887 197.209 101.889 197.2 101.894 197.193C101.899 197.185 101.906 197.179 101.915 197.176C101.923 197.172 101.932 197.171 101.941 197.173C101.95 197.175 101.958 197.179 101.965 197.186Z" fill="#263238"/>
<path d="M120.054 192.372C123.298 194.318 125.109 196.608 127.522 199.418C128.702 200.825 129.958 202.166 131.285 203.434C132.505 204.57 134.302 206.276 136.132 205.465C137.151 205.011 137.43 203.791 137.514 202.779C137.594 201.641 137.428 200.499 137.028 199.431C137.028 199.379 137.105 199.34 137.125 199.398C137.523 200.341 137.785 201.335 137.903 202.351C138.058 203.306 137.92 204.285 137.508 205.16C136.495 206.951 134.16 206.613 132.693 205.673C131.826 205.072 131.02 204.387 130.286 203.629C129.566 202.922 128.878 202.182 128.21 201.429C126.841 199.872 125.563 198.244 124.213 196.68C122.891 195.189 121.473 193.784 119.97 192.475C119.911 192.424 119.989 192.333 120.054 192.372Z" fill="#263238"/>
<path d="M124.177 206.555C123.794 204.329 121.043 194.766 119.953 192.436C119.946 192.424 119.945 192.41 119.948 192.397C119.952 192.383 119.961 192.372 119.973 192.365C119.985 192.358 119.999 192.356 120.013 192.36C120.026 192.364 120.037 192.372 120.044 192.385C122.101 195.674 124.696 203.661 125.15 206.12C125.605 208.579 126.039 211.622 125.41 214.042C124.463 217.689 121.867 217.754 120.927 217.702C119.815 217.621 118.765 217.163 117.948 216.404C117.019 215.435 116.295 214.287 115.82 213.03C115.82 212.972 115.879 212.92 115.911 212.978C116.807 214.743 118.539 216.709 120.589 216.962C121.043 217.033 121.507 217.011 121.952 216.9C122.398 216.789 122.817 216.589 123.185 216.313C123.955 215.576 124.432 214.585 124.528 213.523C124.811 211.198 124.692 208.841 124.177 206.555Z" fill="#263238"/>
<path d="M106.98 217.592C107.376 218.156 108.031 219.94 109.608 220.693C110.156 221.005 110.772 221.18 111.403 221.201C112.033 221.223 112.66 221.091 113.228 220.816C114.312 220.143 115.091 219.075 115.402 217.838C115.664 216.255 115.805 214.654 115.823 213.05C115.823 212.972 115.921 212.965 115.927 213.05C116.129 214.79 116.068 216.551 115.745 218.273C115.593 218.947 115.307 219.585 114.905 220.148C114.503 220.71 113.992 221.187 113.403 221.549C112.779 221.89 112.073 222.052 111.363 222.016C110.654 221.981 109.967 221.75 109.38 221.348C108.79 220.939 107.077 219.09 106.785 217.637C106.792 217.592 106.96 217.566 106.98 217.592Z" fill="#263238"/>
<path d="M94.4646 208.884C94.9338 209.404 95.3409 209.977 95.6779 210.591C96.0608 211.24 96.4241 211.856 96.768 212.505C97.4514 213.816 97.9972 215.195 98.3965 216.618C98.8118 218.046 99.1362 219.603 100.116 220.777C100.575 221.358 101.204 221.779 101.916 221.982C102.627 222.185 103.385 222.158 104.08 221.906C104.817 221.614 105.429 221.075 105.813 220.382C106.257 219.634 106.555 218.808 106.689 217.948C106.686 217.941 106.685 217.932 106.686 217.924C106.687 217.916 106.69 217.908 106.695 217.901C106.699 217.894 106.706 217.888 106.713 217.884C106.721 217.88 106.729 217.878 106.737 217.878C106.746 217.878 106.754 217.88 106.761 217.884C106.769 217.888 106.775 217.894 106.78 217.901C106.785 217.908 106.788 217.916 106.789 217.924C106.79 217.932 106.789 217.941 106.786 217.948C106.73 218.728 106.596 219.5 106.384 220.252C106.138 220.928 105.72 221.527 105.17 221.991C104.594 222.431 103.908 222.704 103.187 222.779C102.466 222.855 101.738 222.73 101.083 222.419C99.6293 221.77 98.8118 220.304 98.3057 218.85C97.7412 217.235 97.3649 215.567 96.7226 213.971C96.3917 213.128 96.0737 212.284 95.6715 211.473C95.2692 210.662 94.7112 209.819 94.3738 208.949C94.3349 208.897 94.4127 208.826 94.4646 208.884Z" fill="#263238"/>
<path d="M89.3941 210.896C91.4454 211.192 93.52 211.294 95.5905 211.201C95.6553 211.201 95.6943 211.389 95.6294 211.402C94.603 211.594 93.5587 211.675 92.515 211.642C91.4568 211.597 90.4113 211.394 89.4136 211.038C89.3292 210.993 89.3292 210.883 89.3941 210.896Z" fill="#263238"/>
<path d="M25.6869 186.662C29.1553 184.988 32.7396 183.566 36.412 182.406C40.0461 181.269 43.7587 180.402 47.52 179.81C49.6676 179.453 51.8217 179.2 54.0083 178.934C54.0732 178.934 54.0862 179.025 54.0083 179.032C50.229 179.643 46.4878 180.471 42.803 181.51C39.1349 182.509 35.4885 183.576 31.8637 184.709C29.8134 185.358 27.7891 186.084 25.7582 186.792C25.6869 186.844 25.622 186.707 25.6869 186.662Z" fill="#263238"/>
<path d="M22.5273 167.203L53.2754 170.545C53.2754 170.545 61.1197 156.271 65.2009 143.119C69.282 129.967 57.6939 132.523 44.1528 145.273C30.6118 158.022 22.5273 167.203 22.5273 167.203Z" fill="#FFC727"/>
<path d="M22.5273 167.203L53.2754 170.545C53.2754 170.545 61.1197 156.271 65.2009 143.119C69.282 129.967 57.6939 132.523 44.1528 145.273C30.6118 158.022 22.5273 167.203 22.5273 167.203Z" fill="#FFC727"/>
<path d="M56.0653 136.378C56.0684 136.41 56.0684 136.443 56.0653 136.475C55.9006 137.598 55.8658 138.737 55.9615 139.868C56.3646 138.804 56.6369 137.695 56.7725 136.566C56.7725 136.371 56.8244 136.183 56.8439 135.988L56.0653 136.378ZM39.9613 166.873C39.6797 167.58 39.4625 168.312 39.3125 169.059L39.9613 169.124C40.0326 168.375 40.0326 167.621 39.9613 166.873ZM29.2946 159.95L28.9961 160.261C29.3335 160.261 29.6449 160.261 30.0148 160.203C29.7682 160.105 29.5346 160.021 29.2946 159.95ZM56.8893 162.11C57.071 162.182 57.2591 162.253 57.4473 162.311C57.4809 162.227 57.5199 162.144 57.5641 162.065C57.3435 162.071 57.1164 162.084 56.8893 162.11ZM47.2477 153.429C46.5708 152.517 45.7938 151.683 44.9314 150.944C45.3876 151.987 45.974 152.968 46.6767 153.864C47.3489 154.774 48.1264 155.601 48.993 156.329C48.5174 155.302 47.9322 154.33 47.2477 153.429Z" fill="white"/>
<path d="M52.0291 170.259C52.1978 170.259 53.3268 170.259 53.3268 170.259C53.463 169.864 56.1102 163.771 56.7591 162.474C58.0957 159.807 59.588 157.212 61.0413 154.61C61.0868 154.525 61.2165 154.61 61.1711 154.668C60.146 156.939 59.1597 159.21 58.1151 161.494C58.3746 161.189 58.6342 160.884 58.8872 160.572C59.3998 159.924 59.867 159.275 60.3536 158.587C60.399 158.529 60.4898 158.587 60.4574 158.658C59.9931 159.597 59.4061 160.47 58.712 161.254C58.4174 161.598 58.0986 161.921 57.7583 162.22C57.6739 162.409 57.5896 162.603 57.4987 162.785C56.8499 164.083 53.6512 170.623 53.5344 170.616L52.055 170.435C51.9447 170.461 51.9447 170.253 52.0291 170.259Z" fill="#263238"/>
<path d="M28.3219 161.98C34.9919 162.428 41.6424 163.343 48.254 164.381C50.1312 164.679 51.9956 165.019 53.8469 165.4C53.8988 165.4 53.8988 165.491 53.8469 165.484C50.5249 165.192 47.2093 164.764 43.8938 164.355C40.5783 163.946 37.2368 163.505 33.9213 162.98C32.0527 162.694 30.1776 162.409 28.3154 162.091C28.2376 162.097 28.2376 161.974 28.3219 161.98Z" fill="#263238"/>
<path d="M63.6641 134.496C63.7809 135.846 68.8028 145.228 74.8174 145.805C76.7639 145.987 78.2627 135.339 78.2627 135.339L78.5482 134.58L82.5904 123.927L70.8466 113.772L69.1402 112.41C69.1402 112.41 68.2253 115.394 67.1288 119.125C67.0769 119.3 67.0185 119.476 66.9666 119.657C66.9147 119.839 66.8368 120.066 66.7784 120.261C66.6098 120.819 66.4346 121.383 66.2788 121.954C66.1556 122.389 66.0323 122.811 65.9155 123.252C65.7987 123.693 65.6819 124.16 65.5522 124.614C64.6986 127.861 64.0678 131.163 63.6641 134.496Z" fill="#EB9481"/>
<path d="M67.1289 119.125C67.7976 122.375 69.1654 125.441 71.1373 128.11C73.1091 130.779 75.638 132.986 78.5483 134.58L82.5905 123.927L70.8467 113.772L69.1403 112.41C69.1403 112.41 68.2254 115.394 67.1289 119.125Z" fill="#263238"/>
<path d="M86.145 107.563C87.1766 112.105 91.2642 115.096 95.274 114.194C99.2838 113.292 101.691 108.848 100.659 104.28C99.6277 99.7122 95.54 96.7406 91.5303 97.649C87.5205 98.5573 85.1133 102.989 86.145 107.563Z" fill="#455A64"/>
<path d="M83.8552 108.381C85.0101 113.461 89.5519 116.763 94.0159 115.758C98.4798 114.752 101.153 109.815 100.005 104.728C98.8561 99.6409 94.3078 96.3448 89.8504 97.3505C85.3929 98.3562 82.7068 103.287 83.8552 108.381Z" fill="#C7C7C7"/>
<path d="M96.9738 101.879C102.424 121.117 91.5172 126.535 87.3647 127.729C83.595 128.793 70.6314 131.933 63.2217 113.357C55.8121 94.781 63.0336 86.1646 71.5202 83.2773C80.0069 80.39 91.5237 82.6349 96.9738 101.879Z" fill="#EB9481"/>
<path d="M90.2769 99.4591C89.8198 99.5044 89.3606 99.5239 88.9013 99.5175C88.4185 99.6097 87.9187 99.5389 87.4804 99.3163C87.3556 99.2199 87.2663 99.0848 87.2264 98.9322C87.1864 98.7796 87.1982 98.6181 87.2598 98.4729C87.4253 98.2055 87.6595 97.9875 87.938 97.8414C88.2164 97.6953 88.5289 97.6266 88.843 97.6424C89.4821 97.5713 90.1249 97.7401 90.6467 98.116C90.7593 98.2102 90.8424 98.3348 90.8862 98.475C90.9299 98.6151 90.9325 98.7649 90.8935 98.9064C90.8545 99.048 90.7757 99.1753 90.6664 99.2733C90.557 99.3713 90.4218 99.4358 90.2769 99.4591Z" fill="#263238"/>
<path d="M77.5923 103.936C78.0332 103.799 78.4664 103.639 78.89 103.456C79.3704 103.35 79.8031 103.09 80.1228 102.716C80.1986 102.578 80.2269 102.419 80.2035 102.263C80.18 102.107 80.1061 101.963 79.993 101.853C79.7357 101.672 79.4347 101.563 79.1211 101.537C78.8075 101.51 78.4926 101.568 78.2087 101.704C77.5933 101.889 77.0685 102.296 76.7359 102.846C76.6676 102.976 76.6383 103.122 76.6516 103.268C76.6648 103.414 76.7201 103.553 76.8107 103.669C76.9012 103.784 77.0232 103.871 77.162 103.918C77.3007 103.965 77.4502 103.972 77.5923 103.936Z" fill="#263238"/>
<path d="M81.4871 107.329C81.4871 107.278 81.4028 107.42 81.4223 107.472C81.8375 108.77 82.0711 110.327 81.033 111.099C81.0005 111.099 81.033 111.183 81.0654 111.17C82.4409 110.554 82.0776 108.478 81.4871 107.329Z" fill="#263238"/>
<path d="M79.9188 106.291C77.7646 106.733 78.8028 111.002 80.8012 110.593C82.7996 110.184 81.7225 105.922 79.9188 106.291Z" fill="#263238"/>
<path d="M79.131 106.72C78.8195 107.057 78.5535 107.57 78.1188 107.725C77.6841 107.881 77.1066 107.55 76.6654 107.2C76.62 107.167 76.5876 107.2 76.6005 107.271C76.7887 108.089 77.3078 108.854 78.2161 108.763C79.1245 108.673 79.4424 107.816 79.4424 106.94C79.4489 106.778 79.2607 106.59 79.131 106.72Z" fill="#263238"/>
<path d="M89.0703 104.987C89.0703 104.935 89.1936 105.026 89.2001 105.078C89.4726 106.415 90.0046 107.9 91.3088 108.056C91.3477 108.056 91.3607 108.128 91.3088 108.134C89.8035 108.27 89.1157 106.291 89.0703 104.987Z" fill="#263238"/>
<path d="M89.9205 103.326C92.0097 102.677 93.1647 106.895 91.2182 107.511C89.2717 108.128 88.1752 103.878 89.9205 103.326Z" fill="#263238"/>
<path d="M90.8945 103.359C91.2903 103.488 91.7315 103.806 92.1402 103.722C92.549 103.638 92.828 103.073 93.0032 102.548C93.0032 102.496 93.0681 102.548 93.081 102.548C93.3276 103.352 93.2952 104.267 92.5555 104.637C91.8158 105.007 91.1735 104.423 90.7582 103.67C90.6804 103.566 90.7323 103.287 90.8945 103.359Z" fill="#263238"/>
<path d="M84.4853 117.996C84.8616 118.249 85.2639 118.645 85.783 118.561C86.2793 118.453 86.7478 118.243 87.1585 117.944C87.1662 117.935 87.1774 117.929 87.1896 117.928C87.2017 117.926 87.2139 117.93 87.2234 117.938C87.2328 117.946 87.2388 117.957 87.24 117.969C87.2413 117.981 87.2376 117.993 87.2298 118.003C87.0893 118.303 86.8705 118.559 86.5965 118.745C86.3224 118.931 86.0033 119.04 85.6727 119.06C85.3831 119.046 85.1046 118.945 84.8732 118.77C84.6418 118.595 84.4682 118.355 84.375 118.081C84.3296 118.009 84.4269 117.964 84.4853 117.996Z" fill="#263238"/>
<path d="M88.8371 111.404C88.8371 111.404 89.6092 113.305 89.8492 114.233C89.8492 114.324 86.657 115.881 84.5937 113.973C84.5722 113.959 84.5574 113.936 84.5525 113.911C84.5476 113.885 84.5531 113.859 84.5678 113.837C84.5824 113.816 84.605 113.801 84.6305 113.796C84.6561 113.791 84.6825 113.797 84.704 113.811C86.0955 114.318 87.6136 114.361 89.0317 113.935C89.0317 113.662 87.5913 110.723 87.7341 110.69C88.4718 110.569 89.2225 110.547 89.966 110.626C88.4607 106.622 86.3326 102.891 84.8987 98.8752C84.886 98.8455 84.8848 98.8121 84.8954 98.7816C84.9061 98.7511 84.9277 98.7256 84.9561 98.7102C84.9845 98.6948 85.0176 98.6905 85.049 98.6982C85.0804 98.7059 85.1077 98.7251 85.1258 98.7519C87.6367 102.509 89.4664 107.083 91.1209 111.177C91.3415 111.677 89.2718 111.469 88.8371 111.404Z" fill="#263238"/>
<path d="M89.0234 114.382C88.6788 115.243 88.1206 116.003 87.4014 116.588C86.9976 116.891 86.5108 117.063 86.0064 117.081C84.8969 117.081 84.6049 116.167 84.566 115.304C84.5503 114.847 84.5874 114.389 84.6763 113.941C86.0408 114.549 87.5645 114.704 89.0234 114.382Z" fill="#263238"/>
<path d="M87.4018 116.588C86.998 116.891 86.5112 117.063 86.0068 117.081C84.8973 117.081 84.6053 116.167 84.5664 115.304C85.7019 115.102 86.9995 115.544 87.4018 116.588Z" fill="#FF99BA"/>
<path d="M64.1485 112.715C67.8728 112.955 68.301 104.436 68.301 104.436C68.301 104.436 83.8729 100.809 84.4309 87.91C84.4309 87.91 87.6297 95.9165 96.1099 99.1088C96.1099 99.1088 94.7019 85.094 83.3993 83.0437C83.3993 83.0437 69.2678 78.8523 62.1631 90.2976C55.0584 101.743 61.6505 112.553 64.1485 112.715Z" fill="#263238"/>
<path d="M84.4308 86.9562C84.7384 88.9241 84.6211 90.9351 84.087 92.854C83.5828 94.8042 82.6767 96.6274 81.4268 98.2069C81.1203 98.604 80.7887 98.9811 80.4341 99.3359L79.915 99.8874C79.7333 100.056 79.5387 100.212 79.344 100.374C78.9547 100.685 78.5784 101.023 78.1761 101.315C77.7738 101.607 77.3326 101.847 76.8785 102.106C76.6643 102.23 76.4567 102.366 76.2296 102.483L75.5808 102.794L74.2247 103.411C73.2904 103.735 72.3431 104.007 71.4023 104.267C72.2783 103.819 73.1866 103.462 74.0496 103.015L75.3148 102.301L75.9636 101.944C76.1648 101.814 76.3529 101.665 76.5476 101.522C76.9369 101.237 77.3262 100.958 77.7219 100.685C78.1177 100.413 78.4357 100.037 78.7925 99.7446L79.331 99.271L79.8112 98.7389C80.1412 98.3984 80.4511 98.0387 80.739 97.6619C81.9181 96.1575 82.833 94.4638 83.4446 92.6529C83.7576 91.7438 83.9963 90.8107 84.1583 89.8629C84.3309 88.9034 84.422 87.931 84.4308 86.9562Z" fill="#263238"/>
<path d="M66.9275 112.514C66.9275 112.514 61.4643 107.2 58.9793 109.269C56.4943 111.339 61.4189 119.605 64.9161 120.189C65.3593 120.296 65.8194 120.312 66.2688 120.236C66.7183 120.16 67.1477 119.994 67.5314 119.748C67.915 119.502 68.245 119.181 68.5013 118.804C68.7577 118.427 68.9352 118.002 69.0232 117.555L66.9275 112.514Z" fill="#EB9481"/>
<path d="M60.4517 111.599C60.4396 111.599 60.4281 111.604 60.4196 111.612C60.411 111.621 60.4062 111.632 60.4062 111.644C60.4062 111.656 60.411 111.668 60.4196 111.676C60.4281 111.685 60.4396 111.69 60.4517 111.69C62.9237 112.176 64.5328 114.071 65.8045 116.108C64.961 115.394 63.9424 115.109 62.9626 116.108C62.9107 116.167 62.9626 116.244 63.047 116.218C63.4259 116.014 63.8586 115.932 64.286 115.983C64.7134 116.034 65.1146 116.216 65.4347 116.504C65.9673 116.987 66.446 117.527 66.8621 118.113C67.0049 118.301 67.3552 118.113 67.2319 117.899L67.1995 117.847C66.6934 114.966 63.6374 111.294 60.4517 111.599Z" fill="#263238"/>
<path d="M63.1877 109.808C63.1877 109.808 59.645 100.367 60.8713 94.2036C62.2339 87.339 70.74 79.5076 80.466 82.4403C80.466 82.4403 68.8974 84.1727 64.8097 93.4704C62.9281 97.7527 66.4837 109.088 66.4837 109.088L63.1877 109.808Z" fill="#C7C7C7"/>
<path d="M68.652 123.263C72.9457 121.925 75.1903 116.872 73.6654 111.976C72.1405 107.081 67.4236 104.196 63.1299 105.533C58.8362 106.87 56.5916 111.923 58.1165 116.819C59.6414 121.715 64.3583 124.6 68.652 123.263Z" fill="#C7C7C7"/>
<path d="M71.3246 112.371C72.6937 116.77 70.6758 121.312 66.7828 122.512C62.8898 123.712 58.6854 121.124 57.3099 116.724C55.9344 112.325 57.9587 107.784 61.8517 106.577C65.7447 105.37 69.9556 107.998 71.3246 112.371Z" fill="#455A64"/>
<path d="M78.5026 134.645L74.9341 143.651L63.7093 132.329L60.5625 135.988C60.5625 135.988 71.5926 154.013 71.6315 153.195L75.3039 145.409L80.6762 150.775L80.1896 137.266L78.5026 134.645Z" fill="#EBEBEB"/>
<path d="M80.8374 144.092C80.6752 141.867 80.5844 139.609 80.3248 137.39C80.3248 137.312 80.1886 137.279 80.1691 137.39C79.7344 139.544 80.3767 148.076 80.3767 150.12C80.1561 149.886 75.4002 145.396 75.3548 145.468C74.5567 146.7 71.8641 152.358 71.6824 152.871C69.9371 150.009 62.5534 138.726 60.4966 136.001C60.4843 135.989 60.4682 135.981 60.4509 135.979C60.4336 135.976 60.4161 135.98 60.4011 135.989C60.3861 135.998 60.3746 136.012 60.3684 136.028C60.3622 136.044 60.3616 136.062 60.3668 136.079C61.9045 139.103 71.4423 153.993 71.5786 153.954C72.9975 151.285 74.2795 148.546 75.4197 145.747C76.2242 146.726 81.0256 151.794 81.0385 151.463C81.0987 149.004 81.0316 146.544 80.8374 144.092Z" fill="#263238"/>
<path d="M143.432 74.6414C143.043 78.3737 141.624 81.9244 139.334 84.8973C137.044 87.8701 133.973 90.1482 130.463 91.4772C126.954 92.8063 123.144 93.134 119.46 92.4239C115.775 91.7138 112.36 89.9938 109.596 87.4558L99.4609 88.9416L104.535 80.1824C103.386 77.3333 102.901 74.2602 103.116 71.1959C103.331 68.1316 104.24 65.1563 105.775 62.4953C107.31 59.8343 109.429 57.5573 111.974 55.8368C114.519 54.1162 117.422 52.9971 120.463 52.5642C123.504 52.1314 126.604 52.3961 129.528 53.3383C132.452 54.2805 135.123 55.8756 137.339 58.0027C139.555 60.1298 141.258 62.7333 142.32 65.616C143.381 68.4986 143.772 71.585 143.465 74.6414H143.432Z" fill="white"/>
<path d="M143.435 74.6413C143.043 78.3757 141.628 81.9296 139.347 84.9123C138.227 86.4021 136.888 87.7146 135.377 88.8052C133.884 89.9366 132.239 90.8518 130.491 91.5238C128.741 92.2082 126.905 92.645 125.034 92.8215C124.1 92.9069 123.161 92.9242 122.225 92.8734C121.284 92.8511 120.347 92.7534 119.422 92.5814C115.685 91.9088 112.209 90.2079 109.384 87.6698L109.624 87.7412L99.5027 89.2984L98.7695 89.4087L99.1394 88.7598L104.194 79.9812V80.3315C103.005 77.428 102.5 74.2902 102.717 71.1604C102.934 68.0307 103.868 64.9927 105.446 62.2811C107.022 59.5797 109.189 57.2704 111.785 55.5268C114.379 53.8089 117.328 52.7006 120.412 52.2849C123.495 51.8691 126.633 52.1567 129.589 53.1261C132.509 54.1239 135.17 55.7622 137.375 57.9209C139.583 60.0685 141.276 62.6889 142.326 65.585C143.375 68.4811 143.755 71.5775 143.435 74.6413ZM143.435 74.6413C143.759 71.5911 143.378 68.5074 142.321 65.6277C141.265 62.748 139.562 60.1493 137.343 58.0317C135.124 55.9142 132.448 54.3344 129.522 53.4142C126.596 52.4939 123.498 52.2577 120.466 52.7238C117.463 53.175 114.602 54.3068 112.103 56.0329C109.628 57.7691 107.56 60.0229 106.043 62.6379C104.55 65.2625 103.672 68.1914 103.474 71.2043C103.276 74.2173 103.764 77.2359 104.901 80.0331L104.972 80.2147L104.875 80.377L99.7752 89.1232L99.4119 88.5846L109.553 87.1637H109.696L109.793 87.261C112.511 89.7975 115.881 91.5274 119.526 92.257C120.43 92.4387 121.348 92.5493 122.27 92.5879C123.193 92.6528 124.118 92.6528 125.041 92.5879C126.891 92.4436 128.712 92.044 130.452 91.4006C132.202 90.7701 133.849 89.8822 135.338 88.7663C136.859 87.6828 138.203 86.3695 139.321 84.8733C141.609 81.9069 143.033 78.3659 143.435 74.6413Z" fill="#263238"/>
<path d="M132.132 75.6016C133.487 75.6016 134.585 74.5035 134.585 73.149C134.585 71.7945 133.487 70.6964 132.132 70.6964C130.778 70.6964 129.68 71.7945 129.68 73.149C129.68 74.5035 130.778 75.6016 132.132 75.6016Z" fill="#263238"/>
<path d="M123.339 75.6016C124.694 75.6016 125.792 74.5035 125.792 73.149C125.792 71.7945 124.694 70.6964 123.339 70.6964C121.985 70.6964 120.887 71.7945 120.887 73.149C120.887 74.5035 121.985 75.6016 123.339 75.6016Z" fill="#263238"/>
<path d="M114.554 75.6016C115.909 75.6016 117.007 74.5035 117.007 73.149C117.007 71.7945 115.909 70.6964 114.554 70.6964C113.2 70.6964 112.102 71.7945 112.102 73.149C112.102 74.5035 113.2 75.6016 114.554 75.6016Z" fill="#263238"/>
<path d="M344.913 74.6414C344.523 78.3737 343.104 81.9244 340.814 84.8973C338.524 87.8702 335.453 90.1482 331.944 91.4773C328.434 92.8063 324.625 93.1341 320.94 92.424C317.255 91.7139 313.84 89.9938 311.076 87.4558L300.941 88.9416L306.009 80.1824C304.855 77.3318 304.366 74.2561 304.578 71.1884C304.791 68.1207 305.698 65.1415 307.233 62.4767C308.767 59.812 310.888 57.5315 313.435 55.8083C315.982 54.0852 318.888 52.9644 321.932 52.5311C324.977 52.0978 328.08 52.3633 331.006 53.3074C333.933 54.2516 336.606 55.8496 338.823 57.9804C341.04 60.1112 342.743 62.7188 343.803 65.6055C344.862 68.4922 345.251 71.5823 344.939 74.6414H344.913Z" fill="white"/>
<path d="M344.91 74.6413C344.515 78.375 343.101 81.9281 340.823 84.9123C340.253 85.6508 339.64 86.355 338.986 87.021C338.311 87.6679 337.596 88.2725 336.845 88.8312C335.354 89.9652 333.709 90.8806 331.96 91.5498C330.212 92.2345 328.378 92.6713 326.509 92.8475C325.573 92.9329 324.632 92.9503 323.694 92.8994C322.753 92.8767 321.816 92.7791 320.891 92.6074C317.157 91.9217 313.688 90.2097 310.873 87.6633L311.113 87.7347L300.991 89.2919L300.258 89.4022L300.628 88.7534L305.669 79.9747V80.3251C304.481 77.4217 303.976 74.2844 304.192 71.1549C304.408 68.0254 305.339 64.9872 306.915 62.2746C308.493 59.5729 310.662 57.2637 313.26 55.5203C315.854 53.8025 318.804 52.6941 321.887 52.2784C324.97 51.8626 328.108 52.1502 331.064 53.1196C333.985 54.1167 336.645 55.755 338.85 57.9145C341.061 60.0619 342.755 62.6832 343.805 65.5807C344.854 68.4783 345.232 71.5764 344.91 74.6413ZM344.91 74.6413C345.234 71.5912 344.853 68.5074 343.797 65.6277C342.741 62.748 341.037 60.1493 338.818 58.0318C336.599 55.9142 333.924 54.3345 330.998 53.4142C328.072 52.4939 324.973 52.2578 321.942 52.7239C318.938 53.175 316.077 54.3069 313.578 56.0329C311.103 57.7691 309.035 60.0229 307.518 62.638C306.015 65.2614 305.127 68.1922 304.923 71.209C304.732 74.2195 305.218 77.2346 306.344 80.0331L306.422 80.2148L306.324 80.377L301.225 89.1232L300.861 88.5847L311.002 87.1637H311.145L311.242 87.2611C313.951 89.7922 317.309 91.5218 320.943 92.257C321.847 92.4387 322.765 92.5493 323.687 92.588C324.609 92.6528 325.535 92.6528 326.458 92.588C328.307 92.4437 330.128 92.0441 331.869 91.4006C333.619 90.7689 335.265 89.8811 336.754 88.7663C338.272 87.6807 339.614 86.3676 340.732 84.8734C343.045 81.9154 344.492 78.3731 344.91 74.6413Z" fill="#263238"/>
<path d="M333.574 75.6016C334.928 75.6016 336.026 74.5035 336.026 73.149C336.026 71.7945 334.928 70.6964 333.574 70.6964C332.219 70.6964 331.121 71.7945 331.121 73.149C331.121 74.5035 332.219 75.6016 333.574 75.6016Z" fill="#263238"/>
<path d="M324.792 75.6016C326.147 75.6016 327.245 74.5035 327.245 73.149C327.245 71.7945 326.147 70.6964 324.792 70.6964C323.438 70.6964 322.34 71.7945 322.34 73.149C322.34 74.5035 323.438 75.6016 324.792 75.6016Z" fill="#263238"/>
<path d="M318.456 73.149C318.457 73.6343 318.314 74.1091 318.046 74.5133C317.777 74.9175 317.394 75.2329 316.946 75.4195C316.498 75.6061 316.005 75.6556 315.529 75.5617C315.053 75.4678 314.615 75.2347 314.271 74.892C313.928 74.5493 313.694 74.1123 313.598 73.6363C313.503 73.1604 313.551 72.6669 313.737 72.2184C313.922 71.7699 314.237 71.3864 314.64 71.1167C315.044 70.8469 315.518 70.7029 316.003 70.7029C316.653 70.7029 317.276 70.9604 317.735 71.4189C318.195 71.8775 318.454 72.4996 318.456 73.149Z" fill="#263238"/>
<path d="M109.903 218.24H105.562V221.076H109.903V218.24Z" fill="#455A64"/>
<path d="M115.532 218.052H111.191V220.888H115.532V218.052Z" fill="#455A64"/>
<path d="M121.165 217.864H116.824V220.7H121.165V217.864Z" fill="#455A64"/>
<path d="M126.794 217.676H122.453V220.511H126.794V217.676Z" fill="#455A64"/>
<path d="M132.427 217.488H128.086V220.323H132.427V217.488Z" fill="#455A64"/>
<path d="M138.056 217.306H133.715V220.141H138.056V217.306Z" fill="#455A64"/>
<path d="M143.68 217.118H139.34V219.953H143.68V217.118Z" fill="#455A64"/>
<path d="M149.313 216.93H144.973V219.765H149.313V216.93Z" fill="#455A64"/>
<path d="M154.938 216.742H150.598V219.577H154.938V216.742Z" fill="#455A64"/>
<path d="M156 222.704H104.496V219.253L156 217.819V222.704Z" fill="#37474F"/>
<path d="M206.273 209.105H121.25L134.772 145.805H219.794L206.273 209.105Z" fill="#455A64"/>
<path d="M209.42 209.105H124.391L137.912 145.805H222.941L209.42 209.105Z" fill="#37474F"/>
<path d="M181.012 173.789C180.751 175.23 180.004 176.538 178.895 177.494C177.786 178.451 176.383 178.998 174.919 179.045C174.259 179.065 173.602 178.936 172.999 178.666C172.396 178.396 171.861 177.994 171.436 177.488C171.011 176.982 170.706 176.386 170.544 175.746C170.382 175.105 170.367 174.436 170.501 173.789C170.759 172.347 171.504 171.038 172.612 170.08C173.72 169.122 175.123 168.574 176.587 168.527C177.248 168.505 177.906 168.634 178.511 168.904C179.116 169.173 179.651 169.577 180.077 170.083C180.503 170.59 180.809 171.187 180.971 171.829C181.133 172.471 181.147 173.141 181.012 173.789Z" fill="#263238"/>
<path d="M185.372 225.637H143.555V222.386L185.372 221.037V225.637Z" fill="#455A64"/>
<path d="M196.743 225.631H174.287L160.766 190.159H183.222L196.743 225.631Z" fill="#455A64"/>
<path d="M200.432 225.631H177.983L164.461 190.159H186.91L200.432 225.631Z" fill="#263238"/>
<path d="M102.895 226.5H59.7997C56.1208 226.5 61.4412 216.021 74.872 212.005C88.3028 207.989 107.145 222.568 102.895 226.5Z" fill="#37474F"/>
<path d="M86.0273 226.5C86.0563 225.306 86.2529 224.123 86.6113 222.983C86.9573 221.832 87.4432 220.727 88.0582 219.694C88.6747 218.654 89.4471 217.716 90.3486 216.91C91.2424 216.111 92.2704 215.477 93.3851 215.035C92.9244 215.412 92.3989 215.684 91.9771 216.093L91.3283 216.657L90.7184 217.306C89.9214 218.141 89.2226 219.064 88.6356 220.057C88.0389 221.051 87.5267 222.092 87.1044 223.172C86.6716 224.256 86.3118 225.368 86.0273 226.5Z" fill="#263238"/>
<path d="M91.0977 216.528C93.6621 217.339 96.0884 218.536 98.2932 220.077C99.409 220.848 100.419 221.762 101.297 222.795C102.219 223.823 102.779 225.124 102.893 226.5C102.536 225.231 101.851 224.079 100.908 223.159C99.9886 222.222 98.9828 221.375 97.9039 220.628C96.8333 219.856 95.7108 219.162 94.5689 218.481C93.4269 217.799 92.2785 217.157 91.0977 216.528Z" fill="#263238"/>
<path d="M309.001 218.24H304.66V221.076H309.001V218.24Z" fill="#455A64"/>
<path d="M314.634 218.052H310.293V220.888H314.634V218.052Z" fill="#455A64"/>
<path d="M320.266 217.864H315.926V220.7H320.266V217.864Z" fill="#455A64"/>
<path d="M325.891 217.676H321.551V220.511H325.891V217.676Z" fill="#455A64"/>
<path d="M331.524 217.488H327.184V220.323H331.524V217.488Z" fill="#455A64"/>
<path d="M337.153 217.306H332.812V220.141H337.153V217.306Z" fill="#455A64"/>
<path d="M342.778 217.118H338.438V219.953H342.778V217.118Z" fill="#455A64"/>
<path d="M348.411 216.93H344.07V219.765H348.411V216.93Z" fill="#455A64"/>
<path d="M354.044 216.742H349.703V219.577H354.044V216.742Z" fill="#455A64"/>
<path d="M355.106 222.704H303.602V219.253L355.106 217.819V222.704Z" fill="#37474F"/>
<path d="M405.37 209.105H320.348L333.869 145.805H418.892L405.37 209.105Z" fill="#455A64"/>
<path d="M408.523 209.105H323.5L337.022 145.805H422.044L408.523 209.105Z" fill="#37474F"/>
<path d="M380.117 173.789C379.857 175.229 379.11 176.536 378.003 177.493C376.895 178.449 375.494 178.997 374.031 179.045C373.37 179.066 372.713 178.937 372.109 178.668C371.505 178.399 370.969 177.996 370.544 177.49C370.118 176.984 369.812 176.389 369.649 175.747C369.487 175.106 369.472 174.437 369.606 173.789C369.865 172.348 370.611 171.039 371.718 170.082C372.826 169.124 374.229 168.575 375.692 168.527C376.354 168.505 377.012 168.634 377.616 168.904C378.221 169.173 378.757 169.577 379.183 170.083C379.609 170.59 379.914 171.187 380.076 171.829C380.238 172.471 380.252 173.141 380.117 173.789Z" fill="#263238"/>
<path d="M384.473 225.637H342.656V222.386L384.473 221.037V225.637Z" fill="#455A64"/>
<path d="M395.841 225.631H373.385L359.863 190.159H382.319L395.841 225.631Z" fill="#455A64"/>
<path d="M399.54 225.631H377.084L363.562 190.159H386.018L399.54 225.631Z" fill="#263238"/>
<path d="M302.012 226.5H258.897C255.218 226.5 260.539 216.021 273.97 212.005C287.4 207.989 306.242 222.568 302.012 226.5Z" fill="#37474F"/>
<path d="M285.094 226.5C285.126 225.307 285.322 224.123 285.678 222.983C286.026 221.833 286.512 220.728 287.125 219.694C287.745 218.657 288.517 217.719 289.415 216.91C290.309 216.111 291.337 215.477 292.451 215.035C291.991 215.412 291.465 215.684 291.044 216.093L290.395 216.657L289.785 217.306C288.984 218.139 288.283 219.062 287.696 220.057C287.099 221.051 286.587 222.092 286.164 223.172C285.734 224.256 285.376 225.368 285.094 226.5Z" fill="#263238"/>
<path d="M290.199 216.528C292.764 217.339 295.19 218.536 297.395 220.077C298.511 220.849 299.523 221.763 300.405 222.795C301.324 223.816 301.888 225.107 302.014 226.474C301.655 225.205 300.968 224.053 300.023 223.133C299.103 222.196 298.097 221.349 297.018 220.602C295.954 219.83 294.825 219.136 293.683 218.455C292.541 217.773 291.387 217.157 290.199 216.528Z" fill="#263238"/>
</svg>
