<svg width="392" height="398" viewBox="0 0 392 398" fill="none" xmlns="http://www.w3.org/2000/svg">
<path d="M178.107 35.969L184.109 26.3486L181.158 24.5213C180.738 24.252 180.4 23.8731 180.179 23.4255C179.959 22.9779 179.864 22.4786 179.907 21.9814C179.962 21.4198 179.98 20.8552 179.962 20.2912C179.955 19.7969 180.083 19.3101 180.33 18.8823C180.578 18.4544 180.937 18.1016 181.369 17.861L184.42 16.2165L179.039 6.23977L175.987 7.87515C175.548 8.10955 175.052 8.21663 174.554 8.18435C174.057 8.15207 173.579 7.9817 173.173 7.69243C172.712 7.36192 172.233 7.05692 171.739 6.77881C171.302 6.53993 170.939 6.18666 170.688 5.75691C170.437 5.32715 170.307 4.83713 170.314 4.33944L170.423 0.867684L159.113 0.520508L159.003 3.99226C158.985 4.49098 158.829 4.97484 158.551 5.38957C158.274 5.8043 157.886 6.13351 157.432 6.34027C157.176 6.45904 156.929 6.57781 156.683 6.71485C156.436 6.85189 156.198 6.9798 155.961 7.12598C155.538 7.38619 155.051 7.52396 154.554 7.52396C154.057 7.52396 153.57 7.38619 153.147 7.12598L150.178 5.29874L144.212 14.9192L147.163 16.7464C147.581 17.015 147.919 17.3924 148.139 17.8382C148.36 18.284 148.455 18.7814 148.414 19.2771C148.359 19.8387 148.341 20.4033 148.359 20.9673C148.368 21.4632 148.241 21.9519 147.993 22.3815C147.745 22.8111 147.386 23.1654 146.953 23.4067L143.91 25.0878L149.255 35.0645L152.315 33.4291C152.754 33.1965 153.248 33.0905 153.744 33.1227C154.239 33.155 154.716 33.3243 155.12 33.6118C155.586 33.9316 156.034 34.224 156.555 34.5255C156.995 34.7595 157.362 35.1118 157.614 35.5426C157.866 35.9735 157.992 36.466 157.98 36.9648L157.87 40.4366L169.19 40.7929L169.3 37.312C169.318 36.8156 169.475 36.3343 169.752 35.9225C170.03 35.5108 170.418 35.185 170.871 34.9823C171.118 34.8635 171.374 34.7356 171.62 34.5985C171.867 34.4615 172.104 34.3336 172.342 34.1874C172.769 33.9295 173.259 33.7932 173.758 33.7932C174.257 33.7932 174.747 33.9295 175.174 34.1874L178.107 35.969ZM168.578 28.8245C166.961 29.6911 165.124 30.059 163.299 29.8815C161.473 29.7041 159.741 28.9892 158.322 27.8274C156.903 26.6656 155.86 25.109 155.325 23.3545C154.791 21.6 154.789 19.7264 155.319 17.9706C155.849 16.2148 156.888 14.6557 158.305 13.4904C159.721 12.3252 161.451 11.6062 163.276 11.4243C165.102 11.2424 166.94 11.6058 168.558 12.4686C170.177 13.3313 171.503 14.6547 172.369 16.2713C172.946 17.3443 173.305 18.5204 173.426 19.7323C173.548 20.9442 173.429 22.1682 173.077 23.3341C172.725 24.5001 172.146 25.5852 171.374 26.5273C170.602 27.4694 169.652 28.25 168.578 28.8245Z" fill="#EBEBEB"/>
<path d="M19.0102 159.975L25.8806 155.982L24.6655 153.881C24.4929 153.576 24.4083 153.229 24.4212 152.879C24.4341 152.529 24.544 152.19 24.7386 151.898C24.9487 151.569 25.1497 151.231 25.3324 150.875C25.4837 150.571 25.7169 150.314 26.0058 150.135C26.2947 149.956 26.6279 149.861 26.9678 149.861H29.4346V141.921H26.9678C26.6188 141.926 26.2758 141.83 25.9795 141.645C25.6832 141.461 25.446 141.195 25.2959 140.88C25.1132 140.524 24.9122 140.186 24.702 139.857C24.5075 139.565 24.3976 139.226 24.3847 138.876C24.3718 138.526 24.4563 138.179 24.629 137.874L25.8441 135.773L18.9737 131.808L17.8316 133.918C17.6535 134.217 17.3962 134.46 17.0882 134.621C16.7802 134.783 16.4335 134.856 16.0866 134.832C15.8948 134.832 15.6938 134.832 15.5019 134.832C15.31 134.832 15.109 134.832 14.9172 134.832C14.5705 134.855 14.2242 134.781 13.9163 134.62C13.6085 134.459 13.351 134.216 13.1722 133.918L11.9479 131.799L5.04094 135.773L6.26519 137.883C6.43804 138.186 6.52278 138.532 6.50987 138.88C6.49695 139.229 6.38689 139.567 6.1921 139.857C5.97665 140.187 5.77843 140.529 5.59825 140.88C5.44817 141.195 5.21095 141.461 4.91465 141.645C4.61835 141.83 4.27538 141.926 3.92632 141.921H1.49609V149.861H3.92632C4.27538 149.857 4.61835 149.952 4.91465 150.137C5.21095 150.322 5.44817 150.587 5.59825 150.902C5.77843 151.253 5.97665 151.595 6.1921 151.926C6.38689 152.215 6.49695 152.553 6.50987 152.902C6.52278 153.251 6.43804 153.596 6.26519 153.899L5.04094 155.982L11.9114 159.947L13.1356 157.837C13.3129 157.537 13.5701 157.293 13.8783 157.132C14.1865 156.971 14.5336 156.898 14.8806 156.923H15.4653H16.0501C16.3971 156.898 16.7442 156.971 17.0524 157.132C17.3606 157.293 17.6178 157.537 17.7951 157.837L19.0102 159.975ZM15.4653 152.392C14.1765 152.393 12.9161 152.012 11.8442 151.296C10.7723 150.581 9.93714 149.563 9.44477 148.372C8.95239 147.18 8.82496 145.87 9.07865 144.606C9.33233 143.343 9.9557 142.183 10.8697 141.274C11.7836 140.365 12.9469 139.748 14.212 139.502C15.4771 139.255 16.7869 139.39 17.9753 139.889C19.1636 140.388 20.1769 141.229 20.8865 142.305C21.5962 143.381 21.9702 144.643 21.9612 145.932C21.9515 147.649 21.2629 149.292 20.0457 150.502C18.8286 151.712 17.1818 152.392 15.4653 152.392Z" fill="#EBEBEB"/>
<path d="M226.216 44.5204L222.251 37.65L220.15 38.8651C219.848 39.0393 219.503 39.1256 219.154 39.1143C218.805 39.103 218.467 38.9945 218.177 38.8012C217.844 38.5837 217.499 38.3854 217.144 38.2073C216.824 38.0518 216.555 37.8088 216.367 37.5064C216.179 37.204 216.081 36.8547 216.084 36.4988V34.0686H208.154V36.4988C208.158 36.8489 208.06 37.1925 207.874 37.4889C207.688 37.7853 207.42 38.022 207.103 38.1708C206.752 38.3509 206.411 38.5492 206.08 38.7646C205.79 38.958 205.451 39.0665 205.103 39.0778C204.754 39.0891 204.409 39.0027 204.107 38.8286L202.005 37.6135L198.059 44.5204L200.169 45.7355C200.468 45.9151 200.712 46.1741 200.873 46.4837C201.035 46.7933 201.107 47.1415 201.083 47.4897C201.083 47.6815 201.083 47.8734 201.083 48.0744C201.083 48.2754 201.083 48.4673 201.083 48.6591C201.111 49.0054 201.04 49.3526 200.879 49.6601C200.717 49.9675 200.471 50.2225 200.169 50.395L198.059 51.6192L202.024 58.4897L204.125 57.2746C204.43 57.1019 204.777 57.0174 205.127 57.0303C205.477 57.0432 205.816 57.1531 206.108 57.3477C206.436 57.5578 206.775 57.7588 207.131 57.9415C207.442 58.0968 207.704 58.3352 207.888 58.6303C208.072 58.9254 208.17 59.2657 208.172 59.6134V62.0437H216.084V59.6134C216.087 59.2657 216.185 58.9254 216.369 58.6303C216.553 58.3352 216.815 58.0968 217.126 57.9415C217.482 57.7588 217.82 57.5578 218.149 57.3477C218.439 57.1529 218.777 57.0428 219.125 57.0299C219.474 57.017 219.819 57.1017 220.123 57.2746L222.233 58.4897L226.198 51.6192L224.088 50.4041C223.789 50.226 223.546 49.9687 223.384 49.6607C223.223 49.3527 223.15 49.006 223.174 48.6591C223.174 48.4673 223.174 48.2663 223.174 48.0744C223.174 47.8825 223.174 47.6815 223.174 47.4897C223.15 47.1415 223.222 46.7933 223.383 46.4837C223.544 46.1741 223.788 45.9151 224.088 45.7355L226.216 44.5204ZM218.633 48.0744C218.632 49.3588 218.249 50.6138 217.534 51.6808C216.819 52.7478 215.804 53.579 214.617 54.0693C213.43 54.5595 212.124 54.6869 210.865 54.4352C209.605 54.1835 208.449 53.5641 207.541 52.6553C206.633 51.7465 206.016 50.589 205.766 49.3292C205.516 48.0694 205.645 46.7637 206.137 45.5773C206.629 44.3909 207.461 43.3769 208.53 42.6635C209.598 41.9502 210.853 41.5694 212.137 41.5694C213.856 41.5694 215.504 42.25 216.721 43.4623C217.938 44.6746 218.626 46.3198 218.633 48.0379V48.0744Z" fill="#EBEBEB"/>
<path d="M377.802 265.169L365.605 265.425L359.593 265.525C357.593 265.571 355.61 265.525 353.609 265.58L354.02 265.169L354.066 275.392L353.609 274.935L365.706 274.99C369.744 274.99 373.773 275.1 377.802 275.146L377.555 275.392C377.555 273.72 377.637 272.039 377.674 270.331L377.802 265.169ZM377.802 265.169L377.939 270.23C377.939 271.93 378.039 273.656 378.058 275.392V275.666H377.802C373.773 275.666 369.744 275.813 365.706 275.822L353.609 275.877H353.152V275.42L353.207 265.196V264.785H353.609C355.656 264.785 357.693 264.785 359.73 264.831L365.815 264.931L377.802 265.169Z" fill="#EBEBEB"/>
<path d="M255.564 183.016H231.371V193.24H255.564V183.016Z" fill="#EBEBEB"/>
<path d="M242.067 170.125L229.871 170.372L223.859 170.481C221.858 170.481 219.866 170.481 217.875 170.481L218.286 170.079V180.294L217.829 179.846L229.925 179.901C233.964 179.901 237.993 180.001 242.022 180.047L241.775 180.294C241.775 178.622 241.857 176.941 241.894 175.241L242.067 170.125ZM242.067 170.125L242.195 175.177C242.241 176.886 242.305 178.612 242.323 180.339V180.586H242.067C238.038 180.632 234.009 180.732 229.971 180.732L217.875 180.787H217.418V180.321L217.473 170.107V169.686H217.911C219.949 169.686 221.995 169.686 224.033 169.732L230.117 169.842L242.067 170.125Z" fill="#EBEBEB"/>
<path d="M269.078 170.125L256.872 170.372L250.86 170.481C248.859 170.481 246.877 170.481 244.885 170.481L245.287 170.079L245.342 180.294L244.885 179.846L256.982 179.901C261.011 179.901 265.04 180.001 269.078 180.047L268.822 180.294C268.822 178.622 268.904 176.941 268.941 175.241L269.078 170.125ZM269.078 170.125L269.206 175.177C269.206 176.886 269.306 178.612 269.325 180.339V180.586H269.078C265.04 180.632 261.011 180.732 256.982 180.732L244.885 180.787H244.41V180.321L244.456 170.107V169.686H244.867C246.904 169.686 248.942 169.686 250.979 169.732L257.064 169.842L269.078 170.125Z" fill="#EBEBEB"/>
<path d="M23.9785 20.7115L36.1753 20.4648L42.1869 20.3552C44.1878 20.3552 46.1794 20.3552 48.1711 20.3552L47.76 20.7572L47.7143 10.5337L48.1711 10.9906L36.1022 10.8901C32.064 10.8901 28.0349 10.7896 24.0059 10.7439L24.2526 10.4881C24.2526 12.1691 24.1703 13.8502 24.1338 15.5495L23.9785 20.7115ZM23.9785 20.7115L23.8414 15.6592C23.8414 13.9507 23.7409 12.2239 23.7227 10.4881V10.2414H23.9785C28.0075 10.2414 32.0366 10.0952 36.0748 10.0952L48.1711 10.0312H48.6279V10.4881L48.5731 20.7115V21.1226H48.1711C46.1338 21.1226 44.0873 21.1226 42.0499 21.0678L35.9652 20.9673L23.9785 20.7115Z" fill="#EBEBEB"/>
<path d="M10.4753 33.6118H34.668V23.3884L10.4753 23.3884V33.6118Z" fill="#EBEBEB"/>
<path d="M353.641 20.7663L365.847 20.5105L371.859 20.41C373.86 20.41 375.842 20.41 377.834 20.3552L377.432 20.7663L377.386 10.5429L377.834 10.9997L365.738 10.8992C361.708 10.8992 357.679 10.7987 353.641 10.753L353.897 10.5064C353.897 12.1783 353.815 13.8594 353.778 15.5587L353.641 20.7663ZM353.641 20.7663L353.513 15.7049C353.513 13.9964 353.413 12.2697 353.395 10.5429V10.2597H353.641C357.679 10.214 361.708 10.1135 365.738 10.1135L377.797 10.0496H378.263V10.5155L378.245 20.7663V21.1775H377.797C375.76 21.1775 373.723 21.1775 371.685 21.1775L365.6 21.0678L353.641 20.7663Z" fill="#EBEBEB"/>
<path d="M191.033 320.863H166.84V331.087H191.033V320.863Z" fill="#EBEBEB"/>
<path d="M34.6807 268.988L22.4747 269.271L16.4631 269.372C14.4622 269.417 12.4797 269.372 10.488 269.426L10.89 269.015L10.9357 279.239L10.488 278.782L22.5843 278.837C26.6134 278.837 30.6425 278.946 34.6807 278.992L34.4248 279.239C34.4248 277.567 34.5071 275.886 34.5436 274.177L34.6807 268.988ZM34.6807 268.988L34.8086 274.049C34.8086 275.749 34.9091 277.475 34.9273 279.211V279.458H34.6807C30.6425 279.504 26.6134 279.604 22.5843 279.613L10.5245 279.668H10.0586V279.211V268.988V268.577H10.5245C12.5619 268.577 14.5993 268.577 16.6367 268.631L22.7214 268.732L34.6807 268.988Z" fill="#EBEBEB"/>
<path d="M177.544 307.972L165.338 308.228L159.326 308.328C157.335 308.374 155.343 308.328 153.351 308.383L153.753 307.972L153.808 318.195L153.351 317.739L165.448 317.803C169.477 317.803 173.515 317.903 177.544 317.949L177.297 318.195C177.297 316.524 177.37 314.842 177.416 313.143L177.544 307.972ZM177.544 307.972L177.672 313.033C177.718 314.742 177.772 316.46 177.791 318.195V318.442H177.544C173.515 318.488 169.477 318.579 165.448 318.588L153.351 318.643H152.895V318.186V307.963V307.552H153.306C155.343 307.552 157.39 307.552 159.418 307.597L165.502 307.698L177.544 307.972Z" fill="#EBEBEB"/>
<path d="M266.395 219.47V357.426H349.799V219.47H266.395ZM342.225 306.528H273.968V270.605H342.225V306.528ZM342.225 262.053H273.968V226.139H342.225V262.053Z" fill="#DBDBDB"/>
<path d="M387.515 219.479H349.801V357.445H387.515V219.479Z" fill="#EBEBEB"/>
<path d="M290.182 226.139H273.965V262.053H290.182V226.139Z" fill="#EBEBEB"/>
<path d="M342.461 349.012H274.168V314.294H342.461V349.012ZM274.625 348.555H342.004V314.751H274.625V348.555Z" fill="#EBEBEB"/>
<path d="M315.05 324.17H301.574V329.095H315.05V324.17Z" fill="#EBEBEB"/>
<path d="M290.182 270.614H273.965V306.528H290.182V270.614Z" fill="#EBEBEB"/>
<path d="M332.887 306.519V273.41H321.476V306.519H332.887Z" fill="#A6A6A6"/>
<path d="M332.895 301.211V294.067H321.483V301.211H332.895Z" fill="#DBDBDB"/>
<path d="M332.887 288.311V284.072H321.476V288.311H332.887Z" fill="#DBDBDB"/>
<path d="M322.714 234.343H293.871V262.053H322.714V234.343Z" fill="#EBEBEB"/>
<path d="M333.67 234.343H322.707V262.053H333.67V234.343Z" fill="#C7C7C7"/>
<path d="M293.871 248.203H322.705L300.184 248.916L293.871 248.203Z" fill="#C7C7C7"/>
<path d="M322.705 258.71H293.871L316.392 259.422L322.705 258.71Z" fill="#C7C7C7"/>
<path d="M293.871 240.455H312.134L295.899 241.04L293.871 240.455Z" fill="#C7C7C7"/>
<path d="M322.709 254.626H304.445L320.68 255.21L322.709 254.626Z" fill="#C7C7C7"/>
<path d="M300.785 237.367H321.387L317.952 237.715L300.785 237.367Z" fill="#C7C7C7"/>
<path d="M296.676 251.172H317.278L313.843 251.519L296.676 251.172Z" fill="#C7C7C7"/>
<path d="M309.34 243.096H322.706L325.1 244.028L309.34 243.096Z" fill="#EBEBEB"/>
<path d="M290.191 243.096H303.558L305.942 244.028L290.191 243.096Z" fill="#EBEBEB"/>
<path d="M307.341 255.548H293.974L291.59 256.48L307.341 255.548Z" fill="#EBEBEB"/>
<path d="M322.707 252.387H333.442L335.827 253.319L322.707 252.387Z" fill="#C7C7C7"/>
<path d="M326.449 248.203H334.772L333.667 247.436L326.449 248.203Z" fill="#C7C7C7"/>
<path d="M342.232 271.199H332.895V306.519H342.232V271.199Z" fill="#EBEBEB"/>
<path d="M337.6 278.17C337.214 278.172 336.837 278.059 336.516 277.846C336.195 277.633 335.944 277.33 335.795 276.975C335.647 276.619 335.607 276.228 335.681 275.85C335.755 275.472 335.939 275.124 336.211 274.851C336.483 274.578 336.83 274.392 337.208 274.316C337.585 274.24 337.977 274.278 338.333 274.425C338.689 274.572 338.994 274.821 339.208 275.142C339.422 275.462 339.537 275.838 339.537 276.224C339.537 276.738 339.333 277.232 338.97 277.597C338.607 277.961 338.114 278.167 337.6 278.17Z" fill="white"/>
<path d="M337.596 277.338C337.376 277.34 337.159 277.276 336.975 277.155C336.79 277.034 336.646 276.86 336.56 276.657C336.474 276.453 336.451 276.229 336.493 276.012C336.535 275.795 336.64 275.596 336.796 275.439C336.951 275.282 337.15 275.175 337.366 275.131C337.583 275.087 337.807 275.109 338.012 275.193C338.216 275.277 338.391 275.42 338.513 275.604C338.636 275.787 338.702 276.003 338.702 276.224C338.702 276.518 338.586 276.8 338.379 277.009C338.172 277.217 337.89 277.336 337.596 277.338Z" fill="#A6A6A6"/>
<path d="M342.23 300.965V292.367H332.893V300.965H342.23Z" fill="white"/>
<path d="M321.473 299.229H286.152V306.574H321.473V299.229Z" fill="#C7C7C7"/>
<path d="M314.512 302.901C314.512 302.516 314.626 302.14 314.84 301.82C315.054 301.5 315.357 301.251 315.713 301.103C316.069 300.956 316.46 300.918 316.837 300.993C317.215 301.068 317.562 301.253 317.834 301.525C318.106 301.797 318.291 302.144 318.366 302.522C318.441 302.899 318.403 303.29 318.256 303.646C318.108 304.002 317.859 304.306 317.539 304.519C317.219 304.733 316.843 304.847 316.458 304.847C316.202 304.849 315.948 304.799 315.712 304.702C315.475 304.604 315.26 304.461 315.079 304.28C314.898 304.099 314.755 303.884 314.657 303.647C314.56 303.411 314.511 303.157 314.512 302.901Z" fill="white"/>
<path d="M315.34 302.901C315.34 302.681 315.405 302.465 315.528 302.282C315.65 302.099 315.824 301.956 316.028 301.872C316.232 301.787 316.456 301.765 316.672 301.808C316.888 301.851 317.087 301.957 317.243 302.113C317.399 302.269 317.505 302.468 317.548 302.684C317.591 302.9 317.569 303.124 317.484 303.328C317.4 303.532 317.257 303.706 317.074 303.828C316.89 303.951 316.675 304.016 316.454 304.016C316.308 304.017 316.162 303.989 316.026 303.934C315.891 303.878 315.767 303.796 315.664 303.692C315.56 303.588 315.478 303.465 315.422 303.329C315.367 303.194 315.339 303.048 315.34 302.901Z" fill="#A6A6A6"/>
<path d="M291.719 306.583H300.316V299.238H291.719V306.583Z" fill="white"/>
<path d="M377.864 167.115C385.672 144.668 374.083 120.239 351.98 112.55C329.877 104.862 305.629 116.825 297.821 139.272C290.013 161.718 301.602 186.148 323.705 193.836C345.809 201.525 370.056 189.561 377.864 167.115Z" fill="#EBEBEB"/>
<path d="M369.042 164.026C375.132 146.516 366.092 127.46 348.85 121.463C331.607 115.465 312.693 124.797 306.602 142.306C300.512 159.815 309.552 178.871 326.794 184.869C344.036 190.867 362.951 181.535 369.042 164.026Z" fill="white"/>
<path d="M361.717 152.803C361.779 159.195 359.321 165.355 354.876 169.95C350.43 174.544 344.354 177.203 337.963 177.352C334.821 177.388 331.702 176.8 328.788 175.623C325.875 174.445 323.224 172.701 320.989 170.492C318.754 168.283 316.98 165.652 315.769 162.752C314.558 159.852 313.935 156.74 313.935 153.598C313.873 147.205 316.331 141.045 320.776 136.451C325.222 131.856 331.298 129.197 337.689 129.049C340.831 129.012 343.95 129.6 346.863 130.777C349.777 131.955 352.428 133.699 354.663 135.908C356.898 138.118 358.672 140.749 359.883 143.649C361.094 146.549 361.717 149.66 361.717 152.803Z" fill="#EBEBEB"/>
<path d="M352.379 152.949C352.409 156.832 350.912 160.572 348.21 163.361C345.507 166.15 341.817 167.766 337.935 167.859C336.022 167.881 334.123 167.523 332.349 166.805C330.575 166.087 328.962 165.024 327.602 163.678C326.242 162.332 325.163 160.729 324.428 158.962C323.692 157.196 323.315 155.301 323.317 153.387C323.28 149.499 324.774 145.753 327.477 142.958C330.18 140.163 333.874 138.543 337.761 138.45C339.677 138.427 341.579 138.785 343.355 139.504C345.131 140.223 346.747 141.288 348.107 142.638C349.468 143.987 350.546 145.594 351.279 147.364C352.013 149.134 352.387 151.033 352.379 152.949Z" fill="white"/>
<path d="M344.312 153.086C344.332 154.812 343.673 156.477 342.476 157.721C341.28 158.965 339.642 159.689 337.917 159.737C337.063 159.753 336.215 159.598 335.422 159.281C334.63 158.963 333.908 158.491 333.301 157.89C332.694 157.29 332.213 156.574 331.887 155.785C331.561 154.996 331.397 154.15 331.403 153.296C331.383 151.57 332.042 149.905 333.239 148.661C334.435 147.417 336.073 146.693 337.798 146.645C338.652 146.629 339.5 146.784 340.293 147.101C341.085 147.419 341.807 147.891 342.414 148.492C343.021 149.092 343.502 149.808 343.828 150.597C344.154 151.386 344.318 152.232 344.312 153.086Z" fill="#EBEBEB"/>
<path d="M275.616 120.158L275.277 120.806L337.499 153.335L337.838 152.687L275.616 120.158Z" fill="#C7C7C7"/>
<path d="M272.659 121.941L272.815 121.877L275.665 121L270.046 118.058L267.004 118.98L272.659 121.941Z" fill="#C7C7C7"/>
<path d="M269.371 114.458L270.385 117.418L276.004 120.351C275.558 119.409 275.224 118.419 275.008 117.4L269.371 114.458Z" fill="#C7C7C7"/>
<path d="M339.204 152.465L338.026 154.575L334.91 154.31L336.957 152.629L337.167 149.998L339.204 152.465Z" fill="#C7C7C7"/>
<path d="M129.662 238.528C129.98 240.218 129.861 241.962 129.318 243.594C128.774 245.226 127.824 246.693 126.556 247.856L115.94 249.838C114.294 249.192 112.845 248.126 111.737 246.748C110.629 245.369 109.9 243.726 109.622 241.979C109.344 240.233 109.527 238.444 110.153 236.79C110.778 235.135 111.825 233.673 113.189 232.547C114.553 231.422 116.187 230.671 117.93 230.371C119.673 230.071 121.464 230.23 123.126 230.834C124.788 231.438 126.264 232.466 127.407 233.815C128.55 235.165 129.321 236.789 129.644 238.528H129.662Z" fill="#EBEBEB"/>
<path d="M131.84 246.875L110.652 250.821L111.221 253.875L132.409 249.929L131.84 246.875Z" fill="#EBEBEB"/>
<path d="M150.52 286.918L107.605 294.911L108.174 297.964L151.089 289.972L150.52 286.918Z" fill="#DBDBDB"/>
<path d="M152.114 295.48L109.199 303.472L109.768 306.526L152.683 298.534L152.114 295.48Z" fill="#DBDBDB"/>
<path d="M149.495 290.271L109.777 297.668L110.803 303.174L150.52 295.777L149.495 290.271Z" fill="#EBEBEB"/>
<path d="M130.457 250.3L113.176 253.519L113.745 256.572L131.025 253.354L130.457 250.3Z" fill="#DBDBDB"/>
<path d="M146.653 287.635L111.543 294.176C111.543 294.176 118.057 284.675 117.938 274.771C117.829 266.43 116.604 256.042 116.604 256.042L128.189 253.886C128.189 253.886 130.784 264.018 133.671 271.838C137.133 281.148 146.653 287.635 146.653 287.635Z" fill="#EBEBEB"/>
<path d="M88.8018 397.699C135.233 397.699 172.873 393.833 172.873 389.065C172.873 384.297 135.233 380.431 88.8018 380.431C42.3705 380.431 4.73047 384.297 4.73047 389.065C4.73047 393.833 42.3705 397.699 88.8018 397.699Z" fill="#EBEBEB"/>
<path d="M0.8125 357.445L49.1521 357.216L97.4827 357.143L194.162 356.988L290.841 357.143L339.181 357.216L387.511 357.445L339.181 357.664L290.841 357.746L194.162 357.901L97.4827 357.746L49.1521 357.664L0.8125 357.445Z" fill="#263238"/>
<path d="M28.5415 69.1151C28.4794 62.0884 29.6037 55.1015 31.8671 48.449C35.355 38.4174 41.3688 29.4536 49.3285 22.4221C57.2882 15.3905 66.9253 10.5284 77.3106 8.30454C80.7636 7.60371 84.2685 7.18813 87.7898 7.06202C88.7034 7.06202 89.5531 7.0072 90.4301 7.0072L93.0705 7.1077C94.8338 7.1077 96.5879 7.38179 98.333 7.57365C105.355 8.45122 112.162 10.5801 118.433 13.8594C124.685 17.0757 130.337 21.3436 135.143 26.4764C139.92 31.6363 143.809 37.5512 146.654 43.9814C140.726 31.2099 130.668 20.8078 118.104 14.4532C114.99 12.8955 111.758 11.5879 108.438 10.5429C106.766 10.0861 105.094 9.62929 103.394 9.23644L100.836 8.76135L99.5481 8.51468L98.2325 8.3685C96.5083 8.13435 94.7731 7.99102 93.034 7.9391L90.4301 7.84773C89.5165 7.84773 88.6943 7.84773 87.8263 7.90255C84.3526 8.05542 80.897 8.48929 77.4933 9.19989C70.6819 10.6473 64.1643 13.2358 58.2159 16.856C52.2795 20.5304 46.9914 25.161 42.5656 30.5603C33.6676 41.4575 28.7242 55.0478 28.5415 69.1151Z" fill="#263238"/>
<path d="M38.1367 23.7539C41.0304 19.9832 44.3713 16.5779 48.086 13.6127C55.5396 7.62283 64.3061 3.48381 73.6674 1.53466C74.8368 1.33366 76.0063 1.08698 77.1757 0.922532C78.3451 0.75808 79.5329 0.602767 80.7114 0.493132L84.2654 0.30127H87.8194L84.2837 0.52054L80.7662 0.913397C79.5968 1.06871 78.4365 1.27884 77.2762 1.46157C76.1159 1.64429 74.9739 1.95492 73.8227 2.19246C64.6559 4.39107 56.0408 8.45603 48.5154 14.1335C44.7509 16.9947 41.2748 20.2168 38.1367 23.7539Z" fill="#263238"/>
<path d="M309.133 133.379C323.044 131.168 335.794 124.301 345.294 113.901C349.977 108.737 353.774 102.835 356.531 96.4324C359.256 90.0217 360.869 83.1937 361.301 76.2414C361.514 72.7728 361.444 69.2925 361.09 65.8353C360.981 64.9765 360.889 64.1086 360.771 63.2498L360.296 60.6825C359.989 58.9733 359.596 57.2809 359.117 55.6119C358.998 55.1916 358.898 54.7714 358.779 54.3511L358.359 53.1177L357.509 50.6509C356.897 49.0247 356.184 47.435 355.481 45.8453C353.963 42.7175 352.2 39.7145 350.209 36.8644C342.101 25.3534 330.35 16.911 316.853 12.9001C323.626 14.7703 330.042 17.7528 335.838 21.7257C341.631 25.738 346.687 30.7204 350.785 36.4533C354.936 42.1673 358.03 48.5786 359.921 55.3835C360.415 57.0764 360.824 58.7932 361.145 60.5272L361.629 63.1219C361.757 64.0355 361.849 64.8669 361.967 65.7439C362.341 69.2516 362.426 72.7838 362.223 76.3054C361.35 90.4927 355.581 103.937 345.901 114.346C336.221 124.754 323.229 131.481 309.142 133.379H309.133Z" fill="#263238"/>
<path d="M369.303 70.0014C369.165 65.2831 368.568 60.5893 367.522 55.9865C365.405 46.8005 361.415 38.1506 355.8 30.5787C355.069 29.6651 354.384 28.6966 353.625 27.8378C352.867 26.979 352.1 26.0106 351.305 25.1792L348.865 22.5936L346.289 20.1451L349.03 22.4109L351.625 24.8411C352.465 25.6817 353.251 26.5679 354.064 27.4358C354.877 28.3038 355.59 29.2631 356.357 30.1767C359.295 33.9265 361.793 38.0004 363.803 42.3187C365.777 46.6545 367.255 51.1997 368.207 55.8677C369.143 60.5171 369.511 65.2631 369.303 70.0014Z" fill="#263238"/>
<path d="M265.882 146.572C261.684 162.687 252.057 176.862 238.624 186.705C225.191 196.547 208.775 201.456 192.143 200.603C188.016 200.364 183.915 199.783 179.883 198.867C178.878 198.621 177.873 198.392 176.877 198.127L173.917 197.214C171.942 196.61 170 195.905 168.097 195.103C167.622 194.911 167.138 194.729 166.663 194.528L165.265 193.852L162.478 192.527C161.565 192.088 160.651 191.513 159.737 191.019C158.824 190.526 157.91 189.996 157.06 189.448C153.579 187.225 150.296 184.706 147.248 181.92L144.982 179.828L142.863 177.571C141.392 176.109 140.122 174.456 138.843 172.866C138.167 172.089 137.609 171.221 137.016 170.381L135.271 167.859L133.672 165.219C133.142 164.305 132.584 163.465 132.146 162.533C128.297 155.244 125.679 147.369 124.398 139.226C127.217 155.515 135.447 170.377 147.76 181.408C150.812 184.127 154.078 186.596 157.526 188.79C158.385 189.329 159.29 189.813 160.167 190.334C161.044 190.855 161.921 191.385 162.853 191.814L165.594 193.13L166.973 193.797C167.439 193.998 167.887 194.171 168.398 194.354C170.278 195.15 172.199 195.842 174.154 196.428L177.087 197.342C178.074 197.598 179.069 197.817 180.056 198.063C184.042 198.949 188.094 199.508 192.171 199.735C200.343 200.173 208.531 199.215 216.382 196.903C228.208 193.4 238.952 186.952 247.606 178.163C256.261 169.375 262.542 158.533 265.863 146.654L265.882 146.572Z" fill="#263238"/>
<path d="M241.224 195.076C236.789 198.447 231.964 201.272 226.853 203.49C216.583 207.985 205.403 210.009 194.209 209.402C192.821 209.283 191.469 209.21 190.043 209.045C188.618 208.881 187.302 208.698 185.914 208.46C184.525 208.223 183.173 207.921 181.83 207.62L177.801 206.533L181.876 207.382C183.237 207.611 184.616 207.803 185.978 208.022C187.339 208.241 188.719 208.323 190.098 208.47C191.478 208.616 192.839 208.616 194.237 208.698C199.747 208.875 205.26 208.461 210.682 207.465C216.117 206.492 221.434 204.945 226.542 202.851C231.682 200.751 236.6 198.147 241.224 195.076Z" fill="#263238"/>
<path d="M246.301 129.542C245.741 134.685 244.411 139.714 242.354 144.461L251.618 151.113L246.822 159.408L236.462 154.721C233.4 158.893 229.736 162.588 225.589 165.685L230.285 176.082L221.99 180.86L215.357 171.642C210.623 173.724 205.603 175.083 200.465 175.671L199.332 187.045H189.757L188.624 175.735C183.486 175.172 178.46 173.845 173.714 171.797L167.063 181.052L158.767 176.265L163.436 165.895C159.268 162.832 155.574 159.172 152.472 155.032L142.085 159.637L137.315 151.414L146.552 144.781C144.465 140.048 143.104 135.028 142.514 129.889L131.121 128.72V119.145L142.441 118.021C143.002 112.876 144.333 107.843 146.388 103.093L137.124 96.4415L141.92 88.155L152.281 92.8327C155.34 88.6583 159.004 84.9632 163.153 81.8693L158.53 71.4997L166.825 66.7032L173.449 75.9307C178.18 73.8621 183.193 72.5132 188.323 71.9291L189.447 60.5911H199.021L200.154 71.9017C205.294 72.4556 210.321 73.7831 215.065 75.8394L221.725 66.5844L230.011 71.3809L225.343 81.7414C229.511 84.8077 233.205 88.471 236.306 92.6135L246.703 87.9174L251.491 96.2223L242.254 102.846C244.321 107.566 245.663 112.571 246.237 117.692L257.603 118.834V128.418L246.301 129.542Z" fill="#FFC727"/>
<path d="M131.568 81.0653C130.524 86.5456 128.4 91.7633 125.319 96.4141L132.08 104.755L121.518 114.805L114.017 108.035C109.261 111.302 103.889 113.568 98.23 114.696L97.1793 124.691L82.6984 124.307L82.1685 114.869C76.3011 113.816 70.7257 111.524 65.8147 108.145L58.4053 114.147L48.3554 103.604L54.5041 96.7978C51.129 91.8218 48.8609 86.1796 47.853 80.2521L38.4609 79.238L38.8447 64.6932L48.2001 64.2181C49.4087 58.4313 51.8245 52.9645 55.2898 48.1749L49.0224 40.4457L59.5747 30.3959L66.975 37.0744C71.7914 34.0087 77.1763 31.9455 82.8081 31.008L83.9135 20.4557L98.4492 20.8394L98.9883 31.4374C104.402 32.6503 109.523 34.9233 114.054 38.1251L122.697 31.1085L132.701 41.6699L125.392 49.7829C128.401 54.3552 130.492 59.4689 131.55 64.8394L142.65 65.9997L142.266 80.5354L131.568 81.0653Z" fill="#455A64"/>
<path d="M95.6629 87.086L84.8822 86.9855V86.8028C84.5556 85.0898 84.1316 83.3969 83.6122 81.7322C83.0882 80.8059 82.3792 79.9973 81.5292 79.3568C79.689 77.8622 78.1728 76.0082 77.0732 73.908C75.9736 71.8078 75.3137 69.5055 75.1338 67.1417C74.9872 64.9353 75.2871 62.722 76.0155 60.6342C76.7438 58.5464 77.8858 56.6269 79.373 54.9905C80.821 53.4456 82.5735 52.2178 84.5201 51.3846C86.4666 50.5514 88.5648 50.131 90.6821 50.1499C92.7993 50.1688 94.8897 50.6266 96.821 51.4944C98.7524 52.3621 100.483 53.621 101.903 55.1915C103.363 56.8546 104.473 58.7953 105.165 60.8974C105.857 62.9994 106.118 65.2196 105.932 67.4249C105.702 69.7889 104.992 72.0811 103.845 74.1611C102.698 76.241 101.139 78.065 99.2626 79.5212C98.3996 80.1433 97.6774 80.9403 97.143 81.8601C96.5908 83.5138 96.1332 85.1976 95.7725 86.9033L95.6629 87.086ZM85.2568 86.547L95.3066 86.6383C95.6556 84.9676 96.1072 83.32 96.6587 81.7048C97.2106 80.7125 97.9749 79.8546 98.8971 79.1923C101.282 77.1001 104.543 74.2314 105.411 67.3883C105.592 65.2467 105.338 63.0905 104.665 61.0494C103.991 59.0084 102.912 57.1246 101.492 55.5113C100.115 53.9887 98.4367 52.7683 96.564 51.9272C94.6913 51.086 92.6644 50.6424 90.6115 50.6244C88.5587 50.6064 86.5243 51.0143 84.6371 51.8224C82.7499 52.6305 81.0508 53.8213 79.6471 55.3194C78.2004 56.9063 77.0888 58.7689 76.3793 60.7956C75.6697 62.8224 75.3766 64.9715 75.5176 67.1143C76.2576 73.9664 79.4644 76.8991 81.8124 79.037C82.7191 79.7181 83.4672 80.5877 84.0051 81.586C84.5246 83.2122 84.9426 84.869 85.2568 86.547Z" fill="white"/>
<path d="M85.288 70.1525L84.6133 70.272L87.5503 86.8611L88.2251 86.7417L85.288 70.1525Z" fill="white"/>
<path d="M95.8958 70.2515L92.6523 86.7834L93.3247 86.9154L96.5682 70.3834L95.8958 70.2515Z" fill="white"/>
<path d="M90.5404 75.8119C89.5629 75.8119 88.7132 74.8983 88.1376 73.8202C88.028 73.9586 87.8894 74.0712 87.7316 74.1501C87.5737 74.2291 87.4004 74.2724 87.224 74.277C85.6343 74.277 85.0313 71.0154 85.0039 70.8784L85.3419 70.8236C85.4973 71.6824 86.1368 73.9299 87.224 73.939C87.3684 73.9209 87.5074 73.8725 87.6318 73.7969C87.7562 73.7213 87.8632 73.6203 87.9458 73.5005C87.4961 72.5824 87.2439 71.5802 87.2057 70.5586C87.2057 69.645 87.5712 69.1151 88.1833 69.1151C88.3679 69.1082 88.5508 69.1523 88.712 69.2425C88.8732 69.3328 89.0064 69.4657 89.0969 69.6267C89.5811 70.4855 89.1974 72.1666 88.567 73.2264C88.5066 73.339 88.4363 73.446 88.3569 73.5461C88.9142 74.6151 89.6908 75.4647 90.5313 75.4739C91.2988 75.4739 91.9748 74.7887 92.4682 73.8659C91.8455 73.0663 91.5223 72.074 91.5546 71.0611C91.5546 69.8825 92.0205 69.1516 92.7423 69.1608C93.327 69.1608 93.6559 69.7455 93.6559 70.7505C93.6094 71.8102 93.3451 72.849 92.8793 73.802C93.1447 74.064 93.5022 74.2116 93.8752 74.2131C94.7888 74.2131 95.6476 71.9747 95.9034 71.1068L96.2323 71.1981C96.1318 71.5453 95.2182 74.5694 93.866 74.5603C93.4408 74.5466 93.0337 74.3851 92.7149 74.1035C92.5364 74.5554 92.241 74.9518 91.8589 75.252C91.4768 75.5522 91.0218 75.7455 90.5404 75.8119ZM92.7423 69.4988C92.121 69.4988 91.9017 70.3393 91.8926 71.0611C91.8801 71.944 92.1419 72.8091 92.6418 73.537C93.0489 72.6619 93.2787 71.7148 93.3178 70.7505C93.3178 70.3759 93.2722 69.4988 92.7423 69.4988ZM88.1742 69.4988C87.6534 69.4988 87.5438 70.1018 87.5346 70.6134C87.5699 71.5234 87.7842 72.4175 88.165 73.2447L88.2473 73.0985C88.8228 72.1849 89.1609 70.5586 88.768 69.846C88.7115 69.7383 88.6259 69.6486 88.5209 69.5872C88.4159 69.5258 88.2957 69.4952 88.1742 69.4988Z" fill="white"/>
<path d="M96.9065 89.1599L83.6133 89.0412V86.0719L96.9156 86.1907L96.9065 89.1599ZM84.0701 88.5844L96.4496 88.7031V86.6475L84.0884 86.547L84.0701 88.5844Z" fill="white"/>
<path d="M96.8791 92.0744L83.6133 91.9556V88.9863L96.9156 89.1051L96.8791 92.0744ZM84.0427 91.4988L96.4314 91.6176V89.5619L84.0427 89.4523V91.4988Z" fill="white"/>
<path d="M96.8531 94.9889L83.5508 94.8701V91.9009L96.8531 92.0288V94.9889ZM84.0167 94.4133L96.4054 94.5321V92.4765L84.0167 92.3668V94.4133Z" fill="white"/>
<path d="M215.17 107.378L206.152 99.6849L206.262 99.5113C206.353 99.3742 208.491 96.2405 211.543 95.8568C212.322 95.7707 213.11 95.8552 213.853 96.1044C214.596 96.3537 215.276 96.7618 215.846 97.3003C216.474 97.782 216.99 98.394 217.359 99.0943C217.728 99.7945 217.941 100.566 217.984 101.357C218.102 104.472 215.435 107.149 215.325 107.259L215.17 107.378ZM206.764 99.6026L215.142 106.747C215.691 106.144 217.627 103.851 217.527 101.329C217.484 100.604 217.286 99.8969 216.945 99.2553C216.605 98.6137 216.13 98.0529 215.554 97.611C215.032 97.1147 214.409 96.7382 213.727 96.5078C213.046 96.2775 212.322 96.1987 211.607 96.2771C209.176 96.5968 207.276 98.954 206.792 99.6026H206.764Z" fill="white"/>
<path d="M181.075 148.701L180.719 148.408L215.062 106.857L206.702 99.7304L172.368 141.273L172.012 140.98L206.647 99.0818L215.701 106.802L215.564 106.975L181.075 148.701Z" fill="white"/>
<path d="M214.965 109.214L204.449 100.251L206.112 98.2413L216.619 107.213L214.965 109.214ZM205.125 100.187L214.938 108.565L216.025 107.259L206.203 98.8809L205.125 100.187Z" fill="white"/>
<path d="M213.449 111.041L202.934 102.079L204.596 100.069L215.112 109.031L213.449 111.041ZM203.573 102.024L213.349 110.393L214.436 109.086L204.615 100.717L203.573 102.024Z" fill="white"/>
<path d="M170.715 151.871L172.049 141.117H172.231L173.885 140.843L174.15 140.798V142.515L175.886 142.278V143.995L177.567 143.712V145.43L179.23 145.137V146.864L180.637 146.617H180.893V148.783L170.715 151.871ZM172.46 141.547L171.254 151.222L173.328 150.583L180.445 148.363V147.065L179.047 147.312L178.782 147.358V145.631L177.11 145.923V144.206L175.429 144.489V142.771L173.748 143.054V141.364L172.46 141.547Z" fill="white"/>
<path d="M170.883 151.56L171.431 147.239L175.012 150.29L170.883 151.56ZM171.796 148.134L171.44 150.921L174.099 150.098L171.796 148.134Z" fill="white"/>
<path d="M176.707 140.606C178.881 137.573 181.166 134.622 183.468 131.689C185.77 128.756 188.146 125.887 190.484 122.973C192.823 120.059 195.263 117.263 197.711 114.449C200.16 111.635 202.636 108.839 205.203 106.126C203.028 109.168 200.744 112.11 198.442 115.052C196.14 117.994 193.764 120.853 191.425 123.759C189.087 126.664 186.647 129.478 184.19 132.283C181.732 135.088 179.274 137.892 176.707 140.606Z" fill="white"/>
<path d="M180.664 143.895C182.848 140.853 185.132 137.911 187.425 134.969C189.718 132.027 192.103 129.167 194.441 126.262C196.78 123.357 199.22 120.543 201.677 117.729C204.135 114.915 206.593 112.119 209.16 109.415C206.985 112.448 204.701 115.399 202.399 118.332C200.097 121.265 197.721 124.142 195.382 127.039C193.044 129.935 190.604 132.758 188.156 135.572C185.707 138.386 183.195 141.181 180.664 143.895Z" fill="white"/>
<path d="M338.783 81.0653C337.739 86.5456 335.615 91.7633 332.534 96.4141L339.294 104.755L328.733 114.805L321.232 108.035C316.483 111.321 311.114 113.605 305.454 114.75L304.403 124.745L289.868 124.362L289.383 114.869C283.516 113.816 277.941 111.524 273.03 108.145L265.62 114.147L255.57 103.604L261.719 96.7978C258.341 91.8234 256.073 86.1805 255.068 80.2522L245.676 79.2381L246.059 64.6932L255.415 64.2181C256.624 58.4297 259.043 52.9624 262.514 48.175L256.283 40.464L266.835 30.4142L274.236 37.0928C279.052 34.027 284.437 31.9638 290.069 31.0263L291.174 20.474L305.71 20.8577L306.249 31.4557C311.645 32.6708 316.749 34.9371 321.269 38.1251L329.902 31.1085L339.952 41.67L332.643 49.7829C335.652 54.3552 337.744 59.4689 338.801 64.8394L349.902 65.9997L349.472 80.4988L338.783 81.0653Z" fill="#455A64"/>
<path d="M285.862 97.3185H283.633V54.3053H285.862V97.3185ZM284.09 96.8617H285.405V54.7621H284.09V96.8617Z" fill="white"/>
<path d="M315.926 76.0404H285.402V55.2738H315.926L305.52 65.6525L315.926 76.0404ZM285.859 75.5836H314.821L304.872 65.6525L314.821 55.7306H285.859V75.5836Z" fill="white"/>
<path d="M290.562 223.553H97.7695V235.732H290.562V223.553Z" fill="white"/>
<path d="M290.56 235.723L97.7859 236.052H97.457V235.723V223.553V223.206H97.8042L194.164 223.316L290.56 223.517V235.723ZM290.56 235.723V223.553L194.164 223.791L97.7677 223.892L98.1057 223.553V235.723L97.7768 235.403L290.56 235.723Z" fill="#263238"/>
<path d="M224.863 225.7H100.117V233.576H224.863V225.7Z" fill="#FFC727"/>
<path opacity="0.1" d="M112.661 225.7H106.202L100.117 233.576H106.576L112.661 225.7Z" fill="black"/>
<path opacity="0.1" d="M125.131 225.7H118.672L112.578 233.576H119.037L125.131 225.7Z" fill="black"/>
<path opacity="0.1" d="M137.6 225.7H131.141L125.047 233.576H131.506L137.6 225.7Z" fill="black"/>
<path opacity="0.1" d="M150.065 225.7H143.606L137.512 233.576H143.971L150.065 225.7Z" fill="black"/>
<path opacity="0.1" d="M162.534 225.7H156.074L149.98 233.576H156.44L162.534 225.7Z" fill="black"/>
<path opacity="0.1" d="M174.997 225.7H168.547L162.453 233.576H168.912L174.997 225.7Z" fill="black"/>
<path opacity="0.1" d="M187.467 225.7H181.008L174.914 233.576H181.373L187.467 225.7Z" fill="black"/>
<path opacity="0.1" d="M199.936 225.7H193.477L187.383 233.576H193.842L199.936 225.7Z" fill="black"/>
<path opacity="0.1" d="M212.399 225.7H205.94L199.855 233.576H206.315L212.399 225.7Z" fill="black"/>
<path opacity="0.1" d="M224.851 225.728V225.7H218.41L212.316 233.576H218.776L224.851 225.728Z" fill="black"/>
<path opacity="0.1" d="M224.853 233.576V233.494L224.789 233.576H224.853Z" fill="black"/>
<path d="M177.718 243.754H176.804V245.27C176.804 245.321 176.794 245.37 176.775 245.417C176.755 245.464 176.727 245.506 176.692 245.542C176.656 245.577 176.614 245.605 176.567 245.625C176.52 245.644 176.471 245.654 176.42 245.654C176.318 245.654 176.219 245.614 176.146 245.542C176.072 245.47 176.03 245.373 176.027 245.27V241.141C176.027 241.089 176.038 241.039 176.057 240.992C176.077 240.945 176.106 240.902 176.143 240.866C176.18 240.83 176.223 240.802 176.271 240.783C176.318 240.765 176.369 240.756 176.42 240.757H177.718C178.115 240.757 178.496 240.915 178.777 241.196C179.058 241.477 179.216 241.858 179.216 242.255C179.216 242.653 179.058 243.034 178.777 243.315C178.496 243.596 178.115 243.754 177.718 243.754ZM176.85 242.977H177.718C177.909 242.977 178.093 242.901 178.228 242.766C178.363 242.63 178.439 242.447 178.439 242.255C178.439 242.064 178.363 241.88 178.228 241.745C178.093 241.61 177.909 241.534 177.718 241.534H176.804L176.85 242.977Z" fill="black"/>
<path d="M183.365 245.069C183.382 245.118 183.389 245.169 183.386 245.221C183.383 245.272 183.369 245.322 183.346 245.368C183.323 245.414 183.291 245.455 183.252 245.489C183.213 245.522 183.167 245.547 183.118 245.563H182.972C182.875 245.566 182.78 245.54 182.698 245.489C182.604 245.426 182.526 245.341 182.469 245.243C182.36 244.977 182.31 244.69 182.323 244.402C182.328 244.296 182.299 244.19 182.241 244.101C182.187 244.019 182.115 243.95 182.031 243.9C181.912 243.82 181.778 243.764 181.638 243.735H180.816V245.252C180.816 245.303 180.806 245.354 180.786 245.401C180.766 245.448 180.737 245.491 180.7 245.527C180.664 245.562 180.62 245.59 180.573 245.609C180.525 245.628 180.474 245.637 180.423 245.636C180.373 245.636 180.323 245.626 180.276 245.606C180.23 245.587 180.187 245.559 180.152 245.523C180.116 245.488 180.088 245.445 180.068 245.399C180.049 245.352 180.039 245.302 180.039 245.252V241.122C180.038 241.072 180.047 241.021 180.066 240.974C180.085 240.927 180.113 240.884 180.149 240.848C180.185 240.812 180.227 240.784 180.275 240.765C180.322 240.746 180.372 240.737 180.423 240.739H181.675C181.872 240.739 182.068 240.778 182.25 240.854C182.432 240.929 182.598 241.041 182.737 241.181C182.877 241.321 182.987 241.487 183.061 241.67C183.136 241.853 183.174 242.049 183.173 242.246C183.173 242.465 183.124 242.682 183.029 242.88C182.934 243.077 182.796 243.251 182.625 243.388C182.718 243.462 182.801 243.548 182.871 243.644C183.02 243.869 183.099 244.133 183.1 244.402C183.09 244.539 183.09 244.677 183.1 244.813C183.162 244.83 183.219 244.862 183.266 244.907C183.312 244.951 183.346 245.007 183.365 245.069ZM182.387 242.264C182.388 242.169 182.371 242.074 182.335 241.985C182.299 241.897 182.246 241.816 182.179 241.748C182.112 241.68 182.032 241.626 181.944 241.589C181.856 241.552 181.761 241.534 181.665 241.534H180.807V242.977H181.665C181.855 242.977 182.037 242.902 182.173 242.769C182.308 242.635 182.385 242.454 182.387 242.264Z" fill="black"/>
<path d="M188.245 241.369C188.696 241.847 188.947 242.48 188.947 243.137C188.947 243.794 188.696 244.427 188.245 244.905C188.033 245.138 187.775 245.325 187.488 245.454C187.2 245.583 186.889 245.651 186.573 245.654C186.251 245.653 185.932 245.586 185.637 245.457C185.341 245.329 185.075 245.14 184.856 244.905C184.409 244.425 184.16 243.793 184.16 243.137C184.16 242.481 184.409 241.849 184.856 241.369C185.074 241.132 185.34 240.942 185.635 240.813C185.931 240.684 186.251 240.619 186.573 240.62C186.889 240.621 187.201 240.688 187.489 240.817C187.777 240.946 188.034 241.134 188.245 241.369ZM188.154 243.132C188.153 242.679 187.983 242.243 187.679 241.908C187.537 241.753 187.364 241.629 187.171 241.544C186.978 241.459 186.77 241.415 186.56 241.415C186.349 241.415 186.141 241.459 185.948 241.544C185.755 241.629 185.582 241.753 185.44 241.908C185.137 242.244 184.97 242.68 184.97 243.132C184.97 243.585 185.137 244.021 185.44 244.357C185.581 244.515 185.753 244.641 185.946 244.727C186.139 244.814 186.348 244.859 186.56 244.859C186.771 244.859 186.98 244.814 187.173 244.727C187.366 244.641 187.538 244.515 187.679 244.357C187.983 244.021 188.153 243.585 188.154 243.132Z" fill="black"/>
<path d="M189.898 243.132C189.913 242.461 190.19 241.822 190.669 241.352C191.149 240.883 191.794 240.62 192.466 240.62C193.049 240.617 193.618 240.806 194.083 241.159C194.161 241.229 194.211 241.325 194.224 241.429C194.238 241.533 194.213 241.638 194.156 241.725C194.088 241.807 193.992 241.859 193.887 241.873C193.782 241.886 193.676 241.86 193.589 241.798C193.273 241.54 192.874 241.404 192.466 241.415C191.997 241.414 191.545 241.594 191.205 241.917C191.043 242.076 190.914 242.266 190.826 242.476C190.738 242.685 190.693 242.91 190.693 243.137C190.693 243.364 190.738 243.589 190.826 243.798C190.914 244.008 191.043 244.198 191.205 244.357C191.548 244.675 191.998 244.854 192.466 244.859C192.873 244.86 193.268 244.725 193.589 244.475C193.677 244.418 193.782 244.394 193.886 244.407C193.99 244.42 194.086 244.471 194.156 244.548C194.215 244.634 194.24 244.738 194.226 244.841C194.213 244.944 194.162 245.038 194.083 245.106C193.621 245.466 193.051 245.659 192.466 245.654C191.792 245.656 191.144 245.393 190.664 244.921C190.183 244.449 189.908 243.806 189.898 243.132Z" fill="black"/>
<path d="M195.508 245.27V241.141C195.507 241.09 195.516 241.039 195.535 240.992C195.553 240.945 195.582 240.902 195.618 240.867C195.653 240.831 195.696 240.802 195.743 240.784C195.79 240.765 195.841 240.756 195.892 240.757H198.176C198.277 240.757 198.375 240.797 198.447 240.869C198.519 240.941 198.559 241.039 198.559 241.141C198.561 241.192 198.552 241.243 198.533 241.29C198.514 241.338 198.486 241.381 198.45 241.418C198.415 241.455 198.372 241.484 198.325 241.503C198.278 241.523 198.227 241.534 198.176 241.534H196.285V242.776H197.911C198.012 242.778 198.108 242.82 198.18 242.891C198.251 242.962 198.292 243.059 198.294 243.16C198.296 243.211 198.287 243.262 198.268 243.309C198.249 243.357 198.221 243.4 198.185 243.437C198.15 243.474 198.107 243.503 198.06 243.523C198.013 243.542 197.962 243.553 197.911 243.553H196.285V244.841H198.176C198.268 244.855 198.353 244.902 198.414 244.973C198.475 245.045 198.509 245.135 198.509 245.229C198.509 245.323 198.475 245.414 198.414 245.485C198.353 245.556 198.268 245.603 198.176 245.617H195.892C195.796 245.618 195.703 245.582 195.632 245.518C195.561 245.454 195.517 245.366 195.508 245.27Z" fill="black"/>
<path d="M199.5 244.439C199.562 244.366 199.65 244.32 199.745 244.31C199.84 244.3 199.935 244.326 200.012 244.384C200.383 244.708 200.853 244.898 201.345 244.923C201.67 244.938 201.99 244.849 202.259 244.667C202.346 244.614 202.419 244.541 202.472 244.453C202.524 244.366 202.555 244.267 202.561 244.165C202.559 244.084 202.537 244.006 202.497 243.936C202.439 243.855 202.368 243.784 202.287 243.726C201.987 243.565 201.663 243.454 201.327 243.397C201.013 243.348 200.706 243.259 200.414 243.132C200.15 243.015 199.925 242.825 199.765 242.584C199.663 242.41 199.609 242.211 199.61 242.009C199.616 241.806 199.67 241.609 199.767 241.431C199.864 241.253 200.001 241.101 200.167 240.985C200.52 240.74 200.942 240.612 201.373 240.62C201.926 240.647 202.458 240.842 202.899 241.177C202.977 241.229 203.032 241.311 203.051 241.403C203.07 241.496 203.051 241.592 202.999 241.671C202.975 241.711 202.943 241.747 202.904 241.774C202.866 241.802 202.822 241.822 202.776 241.832C202.73 241.842 202.682 241.843 202.636 241.834C202.589 241.825 202.545 241.807 202.506 241.78C202.182 241.52 201.787 241.363 201.373 241.333C201.095 241.325 200.822 241.408 200.596 241.57C200.519 241.616 200.453 241.679 200.405 241.756C200.358 241.832 200.329 241.919 200.322 242.009C200.32 242.077 200.339 242.144 200.377 242.201C200.423 242.275 200.486 242.337 200.56 242.383C200.841 242.546 201.151 242.651 201.473 242.694C201.803 242.754 202.125 242.853 202.433 242.986C202.718 243.111 202.962 243.313 203.136 243.571C203.248 243.749 203.305 243.955 203.301 244.165C203.295 244.38 203.238 244.591 203.135 244.78C203.031 244.969 202.885 245.131 202.707 245.252C202.325 245.513 201.872 245.651 201.409 245.645C200.739 245.626 200.095 245.382 199.582 244.951C199.505 244.892 199.454 244.807 199.438 244.711C199.423 244.616 199.445 244.518 199.5 244.439Z" fill="black"/>
<path d="M204.084 244.439C204.146 244.366 204.234 244.32 204.329 244.31C204.424 244.3 204.52 244.326 204.596 244.384C204.972 244.706 205.444 244.896 205.939 244.923C206.248 244.931 206.551 244.841 206.807 244.667C206.894 244.614 206.967 244.541 207.02 244.453C207.072 244.366 207.103 244.267 207.108 244.165C207.111 244.084 207.089 244.004 207.044 243.936C206.993 243.853 206.924 243.782 206.843 243.726C206.544 243.565 206.22 243.454 205.884 243.397C205.57 243.348 205.263 243.259 204.97 243.132C204.706 243.015 204.481 242.825 204.322 242.584C204.217 242.41 204.16 242.212 204.157 242.009C204.164 241.805 204.218 241.606 204.317 241.429C204.415 241.251 204.555 241.099 204.724 240.985C205.077 240.74 205.499 240.612 205.93 240.62C206.483 240.647 207.015 240.842 207.456 241.177C207.522 241.236 207.566 241.316 207.577 241.404C207.589 241.492 207.568 241.581 207.519 241.655C207.47 241.729 207.396 241.782 207.31 241.805C207.224 241.828 207.133 241.819 207.054 241.78C206.734 241.52 206.341 241.363 205.93 241.333C205.649 241.326 205.374 241.409 205.144 241.57C205.069 241.617 205.005 241.682 204.959 241.758C204.913 241.834 204.886 241.92 204.879 242.009C204.876 242.077 204.896 242.144 204.934 242.201C204.978 242.277 205.041 242.34 205.117 242.383C205.398 242.546 205.708 242.651 206.03 242.694C206.36 242.754 206.682 242.853 206.99 242.986C207.275 243.111 207.519 243.313 207.693 243.571C207.801 243.75 207.858 243.956 207.858 244.165C207.851 244.381 207.793 244.593 207.688 244.782C207.583 244.971 207.435 245.132 207.255 245.252C206.877 245.514 206.426 245.652 205.966 245.645C205.296 245.626 204.652 245.382 204.139 244.951C204.066 244.888 204.02 244.801 204.01 244.706C204 244.61 204.026 244.515 204.084 244.439Z" fill="black"/>
<path d="M209.275 244.658C209.414 244.66 209.546 244.717 209.644 244.816C209.741 244.916 209.796 245.049 209.795 245.188C209.793 245.325 209.737 245.455 209.64 245.55C209.542 245.646 209.411 245.7 209.275 245.7C209.207 245.701 209.139 245.688 209.076 245.663C209.013 245.638 208.956 245.601 208.907 245.553C208.859 245.505 208.82 245.449 208.794 245.386C208.767 245.323 208.754 245.256 208.754 245.188C208.753 245.119 208.765 245.05 208.791 244.986C208.817 244.922 208.855 244.863 208.903 244.814C208.952 244.764 209.01 244.725 209.073 244.699C209.137 244.672 209.206 244.658 209.275 244.658Z" fill="black"/>
<path d="M210.884 244.658C211.023 244.66 211.156 244.717 211.253 244.816C211.35 244.916 211.405 245.049 211.405 245.188C211.402 245.325 211.347 245.455 211.249 245.55C211.152 245.646 211.021 245.7 210.884 245.7C210.816 245.701 210.749 245.688 210.686 245.663C210.622 245.638 210.565 245.601 210.516 245.553C210.468 245.505 210.429 245.449 210.403 245.386C210.377 245.323 210.363 245.256 210.363 245.188C210.362 245.119 210.375 245.05 210.4 244.986C210.426 244.922 210.464 244.863 210.513 244.814C210.561 244.764 210.619 244.725 210.683 244.699C210.746 244.672 210.815 244.658 210.884 244.658Z" fill="black"/>
<path d="M212.49 244.658C212.629 244.66 212.761 244.717 212.858 244.816C212.956 244.916 213.01 245.049 213.01 245.188C213.008 245.325 212.952 245.455 212.855 245.55C212.757 245.646 212.626 245.7 212.49 245.7C212.422 245.701 212.354 245.688 212.291 245.663C212.228 245.638 212.17 245.601 212.122 245.553C212.073 245.505 212.035 245.449 212.009 245.386C211.982 245.323 211.969 245.256 211.969 245.188C211.968 245.119 211.98 245.05 212.006 244.986C212.031 244.922 212.07 244.863 212.118 244.814C212.167 244.764 212.224 244.725 212.288 244.699C212.352 244.672 212.42 244.658 212.49 244.658Z" fill="black"/>
<path d="M56.6423 113.152C59.4928 134.22 68.7569 155.863 72.247 159.125C76.0476 162.688 94.9687 164.561 104.571 165.036C107.714 165.201 110.171 143.63 107.641 141.41C105.11 139.19 88.8109 141.648 86.0061 139.583C85.0925 138.925 72.0185 121.584 65.1755 111.26C58.7893 101.613 55.7744 106.747 56.6423 113.152Z" fill="#F7A9A0"/>
<path d="M101.888 168.079L104.957 139.592C104.957 139.592 89.2796 140.314 87.3153 138.916C85.3511 137.518 70.4316 116.779 64.822 109.68C59.2124 102.581 52.5978 102.828 56.5994 119.446C60.8752 137.399 67.0055 155.379 70.7788 159.134C75.6758 164.049 101.888 168.079 101.888 168.079Z" fill="#FFC727"/>
<path d="M95.9414 164.991C95.96 163.966 96.0424 162.944 96.1881 161.93C96.2612 161.016 96.3251 160.103 96.4073 159.189C96.5992 157.197 96.7819 155.215 96.9829 153.232C97.1839 151.25 97.3666 149.267 97.5859 147.285C97.8052 145.302 97.9605 143.338 98.2803 141.383C98.2855 141.369 98.2948 141.357 98.3071 141.348C98.3193 141.34 98.3339 141.335 98.3488 141.335C98.3637 141.335 98.3783 141.34 98.3905 141.348C98.4028 141.357 98.4121 141.369 98.4173 141.383C98.4721 143.365 98.3351 145.357 98.2255 147.339C98.1158 149.322 97.9422 151.241 97.7504 153.177C97.5585 155.114 97.3027 157.133 97.0377 159.107C96.9098 160.02 96.7454 161.007 96.5901 161.948C96.4771 162.971 96.294 163.984 96.0419 164.981C96.0386 164.992 96.0324 165.001 96.024 165.007C96.0156 165.014 96.0054 165.018 95.9947 165.019C95.984 165.02 95.9732 165.018 95.9637 165.013C95.9543 165.008 95.9465 165 95.9414 164.991Z" fill="#263238"/>
<path opacity="0.1" d="M89.0428 165.648C81.6425 164.004 73.3011 161.683 70.7155 159.107C66.9423 155.352 60.7754 137.372 56.5362 119.437C54.0237 108.876 55.7779 104.92 58.8294 105.258L89.0428 165.648Z" fill="black"/>
<path d="M108.685 103.76C111.696 100.821 115.468 98.7812 119.576 97.8692C123.683 96.9573 127.964 97.2096 131.936 98.5978L118.689 111.535L123.165 121.237L132.758 125.952L146.024 113.042C147.26 116.878 147.448 120.974 146.57 124.907C145.692 128.84 143.779 132.467 141.029 135.413C138.279 138.359 134.793 140.517 130.93 141.664C127.066 142.81 122.967 142.904 119.055 141.936C115.143 140.967 111.562 138.971 108.68 136.154C105.798 133.337 103.721 129.802 102.664 125.913C101.606 122.024 101.607 117.924 102.665 114.036C103.724 110.147 105.802 106.612 108.685 103.796V103.76Z" fill="#DBDBDB"/>
<path d="M47.262 226.961C44.2529 229.901 40.4827 231.942 36.3762 232.854C32.2696 233.766 27.9899 233.513 24.0195 232.123L37.2669 219.186L32.7902 209.484L23.1881 204.77L9.93143 217.716C8.6945 213.88 8.50495 209.783 9.38238 205.849C10.2598 201.915 12.1724 198.287 14.9222 195.34C17.672 192.393 21.1592 190.235 25.0231 189.088C28.887 187.94 32.9872 187.847 36.8995 188.816C40.8118 189.785 44.3942 191.781 47.276 194.599C50.1579 197.417 52.2346 200.954 53.2912 204.843C54.3478 208.733 54.346 212.834 53.286 216.723C52.226 220.611 50.1463 224.146 47.262 226.961Z" fill="#DBDBDB"/>
<path d="M33.4291 194.775L47.5078 209.197L126.234 132.344L112.155 117.922L33.4291 194.775Z" fill="#DBDBDB"/>
<path d="M60.7247 176.412L66.5195 182.349L98.9395 150.7L93.1446 144.764L60.7247 176.412Z" fill="#C7C7C7"/>
<path d="M91.2805 158.303C90.9881 155.297 94.6974 156.677 94.6974 156.677C94.6974 156.677 89.8278 153.406 90.7232 150.19C91.6185 146.974 96.0222 148.911 96.3419 149.039C96.0861 148.865 91.6916 145.74 92.925 142.643C94.1584 139.546 98.3336 141.967 98.5986 142.132C98.4159 141.894 95.9582 138.66 97.4383 136.495C99.9782 132.758 107.771 141.401 111.417 141.638L115.912 136.522C115.473 138.219 115.54 140.006 116.104 141.666C116.834 144.078 117.337 145.695 117.063 147.248C116.961 147.953 116.635 148.606 116.133 149.111C115.631 149.616 114.98 149.946 114.276 150.053C114.276 150.053 116.588 152.264 115.702 154.767C115.236 156.046 112.769 156.457 112.769 156.457C113.267 156.984 113.61 157.638 113.76 158.348C113.909 159.057 113.861 159.794 113.619 160.477C112.878 162.222 110.521 162.35 110.521 162.35C110.521 162.35 111.435 164.927 110.074 166.452C107.369 169.513 91.9109 164.744 91.2805 158.303Z" fill="#F7A9A0"/>
<path d="M112.629 140.588L115.827 136.595C115.982 136.476 116.137 136.348 116.283 136.248C121.601 132.429 129.677 134.658 126.817 138.377C124.643 141.209 118.595 140.706 116.768 143.932L112.629 140.588Z" fill="#F7A9A0"/>
<path d="M112.855 156.476C112.919 156.476 112.855 156.585 112.855 156.585C106.58 156.171 100.659 153.527 96.1631 149.13C96.0169 148.975 96.0352 148.673 96.227 148.847C99.379 151.688 107.73 155.361 112.855 156.476Z" fill="#263238"/>
<path d="M98.4035 141.675C102.835 145.923 108.188 148.335 114.036 150.016C114.118 150.016 114.036 150.144 114.036 150.144C110.948 150.098 107.33 148.637 104.607 147.266C102.055 146.021 99.8729 144.132 98.2756 141.784C98.2299 141.73 98.303 141.583 98.4035 141.675Z" fill="#263238"/>
<path d="M120.16 389.43C118.049 390.088 58.3169 388.809 56.0694 387.32C55.2197 386.763 54.9 378.047 54.8086 367.513C54.8086 365.238 54.8086 362.89 54.8086 360.496C54.8086 357.673 54.8086 354.813 54.8634 352.036C55.0279 339.556 55.4024 325.833 55.4024 325.833L94.2861 326.555L93.8385 352.758L93.674 361.218L93.336 368.225C93.336 368.225 115.985 378.951 118.278 380.842C120.571 382.734 122.261 388.782 120.16 389.43Z" fill="#F7A9A0"/>
<path d="M120.16 389.43C118.049 390.088 58.3169 388.809 56.0694 387.32C55.2197 386.763 54.9 378.047 54.8086 367.513C54.8086 365.238 54.8086 362.89 54.8086 360.496C54.8086 357.673 54.8086 354.813 54.8634 352.036L93.8385 352.758L93.674 361.218L93.336 368.225C93.336 368.225 115.985 378.951 118.278 380.842C120.571 382.734 122.261 388.782 120.16 389.43Z" fill="white"/>
<path d="M120.345 389.522C118.974 389.942 93.5298 389.568 75.0107 388.837C70.7259 388.663 66.7882 388.48 63.6453 388.279C59.2965 387.996 56.3363 387.704 55.9069 387.366C54.8654 386.671 54.6005 373.89 54.6096 360.405L93.6943 361.127L93.3562 368.171C93.3562 368.171 116.133 378.951 118.435 380.861C120.737 382.77 122.455 388.855 120.345 389.522Z" fill="#FFC727"/>
<path d="M119.528 387.128C109.478 386.662 68.8314 385.749 58.8546 386.059C58.7724 386.059 58.7724 386.114 58.8546 386.123C68.8131 386.799 109.451 387.384 119.528 387.293C119.738 387.265 119.747 387.128 119.528 387.128Z" fill="#263238"/>
<path d="M94.8236 365.987C90.8768 365.165 86.0163 365.667 82.9466 368.426C82.8278 368.536 82.9465 368.7 83.111 368.664C86.9247 367.529 90.8476 366.8 94.8145 366.489C94.8731 366.479 94.9265 366.449 94.9652 366.404C95.004 366.359 95.0258 366.302 95.0269 366.242C95.028 366.182 95.0083 366.124 94.9712 366.078C94.9341 366.031 94.8819 365.999 94.8236 365.987Z" fill="#263238"/>
<path d="M97.6478 367.778C93.701 366.955 88.8405 367.458 85.7708 370.217C85.652 370.317 85.7708 370.491 85.9352 370.455C89.7468 369.311 93.6707 368.582 97.6387 368.28C97.6974 368.27 97.7507 368.24 97.7895 368.195C97.8282 368.149 97.85 368.092 97.8511 368.033C97.8522 367.973 97.8325 367.915 97.7954 367.869C97.7583 367.822 97.7061 367.79 97.6478 367.778Z" fill="#263238"/>
<path d="M100.468 369.559C96.5213 368.737 91.6608 369.239 88.5911 371.998C88.4723 372.108 88.5911 372.273 88.7555 372.236C92.5671 371.092 96.491 370.363 100.459 370.062C100.518 370.052 100.571 370.021 100.61 369.976C100.649 369.931 100.67 369.874 100.671 369.814C100.673 369.755 100.653 369.697 100.616 369.65C100.579 369.603 100.526 369.571 100.468 369.559Z" fill="#263238"/>
<path d="M103.296 371.341C99.3494 370.518 94.489 371.021 91.4192 373.78C91.3004 373.89 91.4192 374.054 91.5837 374.018C95.3974 372.883 99.3203 372.154 103.287 371.843C103.346 371.833 103.399 371.803 103.438 371.758C103.477 371.713 103.498 371.655 103.5 371.596C103.501 371.536 103.481 371.478 103.444 371.432C103.407 371.385 103.355 371.353 103.296 371.341Z" fill="#263238"/>
<path d="M102.341 356.979C100.824 354.795 97.9095 355.7 96.2193 357.052C93.3756 359.432 91.2053 362.516 89.9245 365.996C89.9188 366.012 89.9168 366.028 89.9186 366.045C89.9203 366.061 89.9258 366.077 89.9346 366.091C89.9434 366.105 89.9553 366.117 89.9694 366.126C89.9834 366.135 89.9993 366.141 90.0158 366.142C90.0158 366.444 90.2808 366.773 90.6279 366.654C93.9261 365.512 97.5897 364.699 100.44 362.579C102.103 361.355 103.766 359.043 102.341 356.979ZM95.2691 363.904C93.6612 364.498 92.0349 365.019 90.4544 365.676C91.6878 363.94 92.8389 362.15 94.2459 360.533C94.9095 359.744 95.6269 359.002 96.3929 358.313C97.5897 357.262 102.313 355.078 101.518 359.418C101.08 361.812 97.1877 363.191 95.2691 363.913V363.904Z" fill="#263238"/>
<path d="M79.8786 364.763C83.122 366.225 86.877 366.234 90.3396 366.645C90.4169 366.646 90.4936 366.63 90.5633 366.596C90.6331 366.563 90.694 366.513 90.7411 366.452C90.7883 366.391 90.8203 366.319 90.8347 366.243C90.849 366.167 90.8453 366.089 90.8238 366.014C90.8404 366.01 90.8557 366.002 90.8684 365.99C90.8812 365.979 90.8911 365.964 90.8973 365.948C90.9035 365.932 90.9059 365.915 90.9042 365.898C90.9026 365.881 90.8969 365.864 90.8878 365.85C88.8912 362.723 86.1096 360.175 82.8205 358.459C80.8928 357.499 77.8413 357.234 76.8363 359.692C75.877 362.004 77.9966 363.904 79.8786 364.763ZM78.1336 361.894C76.4343 357.828 81.514 358.961 82.9118 359.729C83.8072 360.236 84.6652 360.807 85.4791 361.437C87.1502 362.76 88.7541 364.166 90.2848 365.649C88.5946 365.347 86.8952 365.192 85.1959 364.945C83.1859 364.653 79.0929 364.132 78.1336 361.894Z" fill="#263238"/>
<path opacity="0.1" d="M89.7733 389.303C84.7393 389.175 79.6595 389.01 75.0092 388.837C70.7243 388.672 66.7866 388.48 63.6438 388.279C59.2949 387.996 56.3348 387.704 55.9054 387.366C54.9918 386.754 54.672 376.877 54.6172 365.375C63.5158 371.332 80.8746 383.236 89.7733 389.303Z" fill="black"/>
<path d="M94.435 364.087L52.7922 364.132C52.7922 364.132 55.2315 265.151 54.7473 262.821C53.6053 257.266 28.3711 169.193 28.3711 169.193L63.4084 169.796L69.8038 170.006C69.8038 170.006 92.0322 244.073 94.371 257.604C98.4275 281.039 94.435 364.087 94.435 364.087Z" fill="#263238"/>
<path d="M92.0757 356.668C85.1596 356.494 64.2925 355.754 55.0558 356.449C54.9918 356.449 54.9918 356.577 55.0558 356.586C58.2169 357.097 85.1504 356.951 92.0757 356.86C92.0907 356.865 92.1067 356.866 92.1222 356.863C92.1378 356.861 92.1525 356.854 92.1652 356.845C92.1779 356.836 92.1882 356.823 92.1953 356.809C92.2024 356.795 92.2061 356.78 92.2061 356.764C92.2061 356.748 92.2024 356.733 92.1953 356.719C92.1882 356.705 92.1779 356.692 92.1652 356.683C92.1525 356.674 92.1378 356.667 92.1222 356.665C92.1067 356.662 92.0907 356.663 92.0757 356.668Z" fill="#37474F"/>
<path d="M58.2257 260.61C56.901 255.21 47.0156 221.571 43.9915 210.946C40.9675 200.32 38.1352 189.649 35.5314 178.923C35.1934 177.562 34.8645 176.182 34.499 174.848C34.499 174.739 34.3072 174.784 34.3254 174.903C35.3213 180.303 36.646 185.657 37.916 191.001C39.1859 196.346 40.5381 201.672 41.9633 206.98C44.826 217.652 47.9506 228.243 51.3371 238.756C53.0272 244 55.8229 254.754 57.303 260.053C58.7831 265.352 56.3894 351.415 56.5173 352.849C56.53 352.923 56.5686 352.991 56.6263 353.04C56.684 353.088 56.757 353.115 56.8325 353.115C56.9079 353.115 56.981 353.088 57.0387 353.04C57.0964 352.991 57.135 352.923 57.1477 352.849C57.3395 342.589 59.5414 265.945 58.2257 260.61Z" fill="#37474F"/>
<path d="M63.415 169.787C63.415 169.787 54.8452 263.269 54.7539 262.812C53.6484 257.44 29.9217 174.62 28.4325 169.44C28.3776 169.275 28.3594 169.193 28.3594 169.193L63.415 169.787Z" fill="#37474F"/>
<path d="M74.1403 391.806C72.0299 392.464 12.2974 391.185 10.0499 389.695C9.20019 389.138 8.88042 380.422 8.78906 369.888C8.78906 367.613 8.78906 365.274 8.78906 362.881C8.78906 360.048 8.78906 357.189 8.85302 354.411C9.00833 341.94 9.38292 330.95 9.38292 330.95L48.2757 331.671L47.8007 355.151L47.6362 363.612L47.3073 370.619C47.3073 370.619 69.9559 381.345 72.24 383.245C74.524 385.146 76.2325 391.157 74.1403 391.806Z" fill="#F7A9A0"/>
<path d="M74.1403 391.806C72.0299 392.464 12.2974 391.185 10.0499 389.695C9.20019 389.138 8.88042 380.422 8.78906 369.888C8.78906 367.613 8.78906 365.274 8.78906 362.881C8.78906 360.048 8.78906 357.189 8.85302 354.411L47.8007 355.151L47.6362 363.612L47.3073 370.619C47.3073 370.619 69.9559 381.345 72.24 383.245C74.524 385.146 76.2325 391.157 74.1403 391.806Z" fill="white"/>
<path d="M74.3172 391.897C72.9468 392.327 47.5025 391.897 28.9834 391.221C24.6985 391.048 20.7608 390.856 17.6271 390.655C13.2691 390.381 10.3181 390.088 9.8796 389.741C8.83807 389.047 8.57312 376.256 8.58226 362.771L47.6669 363.493L47.3289 370.537C47.3289 370.537 70.1054 381.318 72.4169 383.227C74.7284 385.136 76.4277 391.239 74.3172 391.897Z" fill="#FFC727"/>
<path d="M73.51 389.476C63.4601 389.019 22.8132 388.097 12.8273 388.407C12.7451 388.407 12.7451 388.462 12.8273 388.471C22.7858 389.147 63.4327 389.732 73.5008 389.641C73.711 389.641 73.7201 389.485 73.51 389.476Z" fill="#263238"/>
<path d="M48.7966 368.371C44.8497 367.549 39.9984 368.052 36.9195 370.811C36.7916 370.911 36.9195 371.085 37.0748 371.048C40.8829 369.9 44.8037 369.165 48.7692 368.856C48.8208 368.842 48.8668 368.812 48.9005 368.77C48.9342 368.728 48.9539 368.677 48.9569 368.623C48.96 368.57 48.9461 368.517 48.9173 368.472C48.8886 368.426 48.8463 368.391 48.7966 368.371Z" fill="#263238"/>
<path d="M51.6403 370.153C47.6935 369.331 42.8422 369.833 39.7633 372.592C39.6353 372.702 39.7633 372.867 39.9186 372.83C43.7373 371.695 47.6673 370.975 51.6403 370.683C51.7106 370.683 51.778 370.655 51.8277 370.605C51.8774 370.556 51.9053 370.488 51.9053 370.418C51.9053 370.348 51.8774 370.28 51.8277 370.231C51.778 370.181 51.7106 370.153 51.6403 370.153Z" fill="#263238"/>
<path d="M54.4411 371.935C50.4943 371.112 45.6429 371.615 42.564 374.374C42.4361 374.484 42.564 374.648 42.7193 374.612C46.5185 373.481 50.4258 372.752 54.3771 372.437C54.4388 372.436 54.498 372.413 54.5439 372.372C54.5899 372.331 54.6194 372.275 54.6272 372.214C54.635 372.152 54.6204 372.091 54.5862 372.039C54.5521 371.988 54.5005 371.951 54.4411 371.935Z" fill="#263238"/>
<path d="M57.2692 373.725C53.3224 372.903 48.4711 373.406 45.3922 376.165C45.2643 376.265 45.3922 376.439 45.5475 376.402C49.3593 375.259 53.283 374.53 57.2509 374.228C57.3099 374.219 57.364 374.19 57.4037 374.145C57.4434 374.101 57.4663 374.044 57.4685 373.984C57.4707 373.924 57.4519 373.866 57.4156 373.819C57.3792 373.771 57.3274 373.738 57.2692 373.725Z" fill="#263238"/>
<path d="M56.3184 359.363C54.8018 357.189 51.8874 358.084 50.2063 359.446C47.3555 361.821 45.1811 364.906 43.9023 368.39C43.9023 368.472 43.9023 368.518 43.9937 368.536C43.9937 368.838 44.2678 369.157 44.6058 369.039C47.904 367.897 51.5676 367.083 54.4181 364.964C56.0809 363.73 57.7437 361.419 56.3184 359.363ZM49.2562 366.289C47.6482 366.892 46.0128 367.403 44.4322 368.07C45.6085 366.293 46.874 364.576 48.2238 362.926C48.8874 362.135 49.6048 361.39 50.3708 360.697C51.5768 359.656 56.291 357.472 55.4962 361.803C55.0577 364.187 51.1656 365.576 49.2562 366.289Z" fill="#263238"/>
<path d="M33.8571 367.138C37.0913 368.6 40.8463 368.609 44.3089 369.02C44.6652 369.066 44.8571 368.691 44.8023 368.39C44.8178 368.385 44.8321 368.377 44.8439 368.366C44.8558 368.355 44.8647 368.342 44.8701 368.326C44.8755 368.311 44.8771 368.295 44.8748 368.279C44.8726 368.263 44.8665 368.248 44.8571 368.235C42.8634 365.103 40.0813 362.551 36.7898 360.834C34.8621 359.875 31.8106 359.619 30.8056 362.068C29.8006 364.516 31.9659 366.288 33.8571 367.138ZM32.1212 364.288C30.4219 360.222 35.5016 361.346 36.8994 362.113C37.7921 362.625 38.6498 363.196 39.4667 363.822C41.1421 365.143 42.7462 366.552 44.2724 368.043C42.5822 367.732 40.8828 367.577 39.1835 367.33C37.1553 367.029 33.0622 366.517 32.1212 364.288Z" fill="#263238"/>
<path d="M49.0073 367.695L6.87109 366.901C6.87109 366.901 18.9583 213.412 17.4508 205.19C14.9932 191.723 17.0945 176.347 23.5721 169.047L65.5347 169.824C65.5347 169.824 66.1468 187.584 61.6883 194.537C61.6883 194.537 57.7049 196.958 55.768 198.018L49.0073 367.695Z" fill="#263238"/>
<path d="M47.8176 360.048C41.2853 359.756 44.0809 359.747 37.5485 359.528C34.3509 359.427 13.3467 358.742 10.3409 359.162C10.277 359.162 10.277 359.281 10.3409 359.299C13.3193 359.866 34.3326 360.213 37.5303 360.213C44.0627 360.313 41.2761 360.213 47.8085 360.213C47.8222 360.204 47.8337 360.193 47.842 360.179C47.8502 360.165 47.855 360.149 47.8559 360.133C47.8568 360.117 47.8538 360.101 47.8471 360.086C47.8405 360.071 47.8304 360.058 47.8176 360.048Z" fill="#37474F"/>
<path d="M24.2326 204.769C23.995 201.681 23.5473 198.612 23.2641 195.524C22.7482 189.336 23.2419 183.106 24.7259 177.078C24.7274 177.056 24.7214 177.035 24.709 177.018C24.6966 177.001 24.6786 176.988 24.658 176.983C24.6375 176.978 24.6157 176.98 24.5964 176.988C24.5771 176.997 24.5615 177.013 24.5523 177.032C23.4286 182.377 22.4327 187.721 22.6063 193.212C22.7799 198.703 23.6296 204.039 23.6204 209.493C23.6113 214.947 23.0723 220.52 22.6155 226.02C22.1586 231.52 21.7018 237.084 21.2359 242.621C19.4086 264.858 17.6636 287.096 15.8912 309.315C15.3978 315.528 14.9776 321.731 14.4568 327.944C13.9361 334.156 13.2417 348.043 12.8945 354.347C12.8945 354.896 13.6802 354.868 13.7351 354.347C14.8862 343.192 15.8181 324.545 16.7317 313.372C17.6454 302.198 18.495 291.244 19.3812 280.18C20.2674 269.116 21.1262 258.052 21.9942 246.988C22.4205 241.451 22.8439 235.918 23.2641 230.387C23.6844 224.906 24.1777 219.369 24.3787 213.842C24.4981 210.817 24.4493 207.789 24.2326 204.769Z" fill="#37474F"/>
<path d="M48.8962 183.391C48.8962 183.309 48.8048 183.181 48.7317 183.254C46.5931 186.76 43.629 189.69 40.098 191.787C35.9411 194.327 30.2401 195.642 27.0607 196.035C26.8505 196.035 26.9236 196.236 27.1155 196.245C30.4685 196.456 35.1279 195.597 40.2259 192.847C47.5714 188.873 48.7774 184.186 48.8962 183.391Z" fill="#37474F"/>
<path d="M62.9476 194.016C59.0793 195.421 55.3407 197.161 51.7741 199.215C51.637 199.297 51.7284 199.516 51.8837 199.443C55.6387 197.835 59.4759 196.282 63.1486 194.464C63.2014 194.433 63.241 194.384 63.2597 194.326C63.2784 194.268 63.275 194.205 63.25 194.149C63.225 194.094 63.1802 194.049 63.1244 194.025C63.0686 194 63.0056 193.997 62.9476 194.016Z" fill="#37474F"/>
<path d="M64.2563 170.152C64.2563 170.034 64.0188 170.006 64.0188 170.152C63.999 174.024 63.7702 177.891 63.3335 181.737C63.1417 183.564 61.5063 193.395 58.1807 192.701C57.6234 192.582 57.3402 192.079 57.2671 191.294C57.2872 190.269 57.4439 189.252 57.733 188.27C58.1168 186.196 58.4274 184.122 58.6467 182.039C59.0534 178.159 59.0258 174.246 58.5644 170.372C58.5644 170.343 58.5529 170.315 58.5323 170.294C58.5118 170.274 58.4839 170.262 58.4548 170.262C58.4257 170.262 58.3978 170.274 58.3773 170.294C58.3567 170.315 58.3452 170.343 58.3452 170.372C58.4184 175.765 58.0517 181.155 57.2488 186.488C56.8103 189.055 55.4216 192.883 58.2995 193.304C61.1774 193.724 63.2148 187.219 63.5894 185.446C64.5246 180.405 64.7491 175.257 64.2563 170.152Z" fill="#37474F"/>
<path d="M58.2697 192.911C57.9652 193.632 57.7118 194.374 57.5114 195.131C57.2907 195.714 57.1852 196.335 57.2007 196.958C57.2007 197.077 57.3652 197.086 57.4291 197.013C57.7794 196.446 58.0442 195.83 58.2148 195.186C58.4706 194.5 58.7356 193.824 58.9731 193.13C58.9837 193.043 58.9634 192.955 58.9158 192.882C58.8683 192.808 58.7964 192.753 58.7128 192.727C58.6291 192.701 58.539 192.705 58.458 192.739C58.377 192.772 58.3104 192.833 58.2697 192.911Z" fill="#37474F"/>
<path d="M15.5133 181.792C15.6503 181.956 74.0672 183.309 74.652 182.706C75.4742 181.838 70.1478 120.36 60.5182 106.61C58.1154 103.175 49.3447 100.69 45.608 104.07C34.7998 113.828 32.4518 122.178 29.5191 128.985C27.3812 134.019 24.7409 142.634 22.3381 151.478C18.3638 166.032 15.02 181.189 15.5133 181.792Z" fill="#FFC727"/>
<path d="M37.0208 112.238C24.9427 126.856 11.1562 153.442 12.9469 158.942C17.7982 173.898 22.613 186.826 27.4643 194.912C29.7118 198.648 50.3688 187.045 48.2857 183.391C44.01 175.99 35.7691 158.184 34.4901 155.662C33.75 154.21 40.6661 130.255 44.8414 117.025C49.3821 102.654 42.8497 105.167 37.0208 112.238Z" fill="#F7A9A0"/>
<path d="M20.4003 189.786L45.8447 177.352C45.8447 177.352 35.7948 155.032 35.7948 152.62C35.7948 150.208 44.0174 123.156 46.5207 114.431C49.0241 105.706 45.3787 100.251 34.5158 113.398C23.6528 126.545 12.5067 148.116 11.4286 153.305C10.3505 158.495 20.4003 189.786 20.4003 189.786Z" fill="#FFC727"/>
<path d="M42.5031 128.135C43.1609 126.363 43.901 124.627 44.6136 122.863C44.6684 122.745 44.8877 122.863 44.842 122.955C44.0015 125.303 43.2066 127.678 42.4209 130.044C43.0148 128.966 43.6178 127.888 44.2481 126.828C44.2591 126.809 44.2772 126.795 44.2986 126.789C44.32 126.783 44.343 126.786 44.3624 126.797C44.3817 126.807 44.396 126.826 44.402 126.847C44.408 126.868 44.4052 126.891 44.3943 126.911C43.6817 128.217 42.9325 129.505 42.1742 130.784C41.9824 131.36 36.4276 151.158 36.3727 151.917C36.3406 152.777 36.4707 153.635 36.7565 154.447C37.2133 155.936 37.734 157.417 38.2639 158.887C39.3237 161.838 40.4749 164.762 41.69 167.658C43.0696 170.947 44.641 174.209 46.2033 177.416C46.2033 177.416 45.2897 177.671 45.2257 177.69C45.1618 177.708 45.1526 177.69 45.1709 177.635C45.1892 177.58 45.7739 177.324 45.7922 177.324C44.1933 174.538 42.6767 171.843 41.3428 168.892C40.009 165.941 38.8304 163.054 37.7614 160.066C37.2133 158.522 36.6834 156.978 36.19 155.416C35.6441 153.958 35.4959 152.381 35.7606 150.848C36.1078 149.276 41.7814 129.962 42.5031 128.135Z" fill="#263238"/>
<path d="M19.991 182.569C20.8772 182.078 21.7925 181.641 22.7319 181.262C23.5541 180.869 24.3764 180.476 25.2169 180.102C27.0442 179.28 28.8714 178.448 30.6987 177.635C32.5259 176.822 34.3531 176.009 36.1804 175.214C38.0076 174.419 39.8349 173.579 41.6621 172.893C41.726 172.893 41.7809 172.976 41.7169 173.012C40.0267 174.044 38.2177 174.912 36.4453 175.799C34.6729 176.685 32.9279 177.489 31.1463 178.284C29.3648 179.079 27.4918 179.864 25.6646 180.613C24.751 180.97 23.8374 181.299 22.9237 181.628C21.9801 182.038 21.0094 182.383 20.0184 182.66C20.0063 182.664 19.9932 182.662 19.9821 182.656C19.971 182.65 19.9627 182.64 19.959 182.628C19.9554 182.616 19.9567 182.603 19.9627 182.592C19.9687 182.58 19.9789 182.572 19.991 182.569Z" fill="#263238"/>
<path d="M56.5199 112.859C53.9343 113.316 47.8953 109.205 45.2549 105.358C45.0722 105.094 45.191 102.124 45.1636 98.5063C45.1636 96.3136 45.0539 93.8743 44.8164 91.645L59.1237 93.5636C58.6225 96.4278 58.4722 99.3424 58.676 102.243C58.7183 102.552 58.7824 102.857 58.8679 103.157C58.8679 103.157 58.8679 103.248 58.8679 103.303C59.3704 105.002 60.5581 112.128 56.5199 112.859Z" fill="#F7A9A0"/>
<path d="M58.8661 103.148C58.8634 103.196 58.8634 103.245 58.8661 103.294C58.3947 103.407 57.9151 103.484 57.4318 103.522C49.3279 104.198 46.2673 94.4591 45.5547 91.7639L59.058 93.5912C58.5568 96.4554 58.4065 99.37 58.6103 102.271C58.6752 102.568 58.7606 102.862 58.8661 103.148Z" fill="#263238"/>
<path d="M42.5757 72.8428C40.9769 77.7855 43.3797 92.1933 46.8606 95.4549C51.9221 100.178 60.3091 100.754 64.3473 94.6509C68.2667 88.7398 64.8041 69.9832 60.9029 67.0413C55.1471 62.6468 44.9329 65.5339 42.5757 72.8428Z" fill="#F7A9A0"/>
<path d="M56.9571 81.8328C56.9571 81.8328 56.8932 81.8876 56.9023 81.9333C57.1033 82.8469 57.1855 84.0255 56.3633 84.5097C56.3633 84.5097 56.3633 84.5736 56.3633 84.5645C57.4231 84.2173 57.3134 82.7098 56.9571 81.8328Z" fill="#263238"/>
<path d="M55.9052 80.9831C54.3338 81.1475 54.7815 84.2904 56.2433 84.1351C57.7051 83.9798 57.23 80.8369 55.9052 80.9831Z" fill="#263238"/>
<path d="M62.4857 80.9465C62.4857 80.9465 62.568 80.9465 62.568 81.0196C62.6776 81.9972 62.97 83.1027 63.8927 83.2945V83.3585C62.7964 83.3585 62.4309 81.8876 62.4857 80.9465Z" fill="#263238"/>
<path d="M63.2053 79.8045C64.7494 79.4573 65.3249 82.5454 63.8906 82.9017C62.4562 83.258 61.908 80.0877 63.2053 79.8045Z" fill="#263238"/>
<path d="M54.4588 79.7223C54.8527 79.5414 55.237 79.3401 55.61 79.1193C56.0483 78.9629 56.4236 78.6678 56.6789 78.2787C56.7326 78.1394 56.7394 77.9864 56.6981 77.843C56.6569 77.6995 56.5699 77.5734 56.4505 77.4839C56.1891 77.3455 55.8955 77.2792 55.6 77.2921C55.3045 77.3049 55.0178 77.3964 54.7694 77.557C54.2138 77.8035 53.7683 78.2457 53.5178 78.7995C53.4693 78.9302 53.4596 79.0721 53.49 79.2081C53.5204 79.3441 53.5896 79.4684 53.6891 79.566C53.7886 79.6636 53.9142 79.7303 54.0508 79.758C54.1874 79.7857 54.3291 79.7733 54.4588 79.7223Z" fill="#263238"/>
<path d="M64.1184 78.425C63.6838 78.3984 63.2508 78.3496 62.8211 78.2788C62.3595 78.2874 61.9076 78.1464 61.5329 77.8768C61.4323 77.7688 61.3698 77.6309 61.355 77.4841C61.3401 77.3373 61.3737 77.1896 61.4506 77.0637C61.6444 76.8385 61.8947 76.669 62.1757 76.5727C62.4567 76.4763 62.7583 76.4566 63.0495 76.5155C63.6576 76.5469 64.2331 76.8005 64.6666 77.2281C64.7581 77.3328 64.8175 77.4617 64.8375 77.5993C64.8575 77.7369 64.8374 77.8774 64.7795 78.0038C64.7216 78.1302 64.6284 78.2372 64.5111 78.3119C64.3938 78.3866 64.2575 78.4259 64.1184 78.425Z" fill="#263238"/>
<path d="M57.6585 87.9723C57.9618 88.3228 58.3342 88.6067 58.7524 88.8064C59.1706 89.0061 59.6256 89.1171 60.0888 89.1326C60.4914 89.152 60.8947 89.112 61.2856 89.0138C61.3608 89.0053 61.4345 88.9869 61.5049 88.959L61.715 88.8951C61.7654 88.8773 61.8088 88.8437 61.8384 88.7992C61.8681 88.7547 61.8825 88.7018 61.8795 88.6484C61.8795 88.6484 61.8795 88.5844 61.8795 88.5479V88.4565C61.7881 87.7074 61.5597 86.5745 61.5597 86.5745C61.8521 86.675 63.3321 87.1044 63.259 86.7115C62.6819 83.3441 61.7636 80.0441 60.5182 76.8627C60.5094 76.8416 60.4931 76.8245 60.4723 76.8148C60.4516 76.8052 60.428 76.8036 60.4062 76.8105C60.3844 76.8174 60.366 76.8322 60.3546 76.852C60.3432 76.8718 60.3396 76.8952 60.3446 76.9175C60.8471 80.0329 61.9069 83.0296 62.4642 86.1542C61.937 85.9934 61.3891 85.9103 60.8379 85.9075C60.7374 85.9532 61.3313 88.0819 61.3404 88.42C60.7354 88.5699 60.1064 88.5962 59.491 88.4973C58.8757 88.3984 58.2866 88.1764 57.759 87.8444C57.6585 87.8261 57.5854 87.9083 57.6585 87.9723Z" fill="#263238"/>
<path d="M60.7749 88.7033C60.4365 89.2964 59.9522 89.7932 59.3679 90.1468C59.0449 90.3252 58.6755 90.4016 58.3082 90.366C57.495 90.2747 57.3945 89.5621 57.3945 88.9317C57.4282 88.5952 57.5018 88.264 57.6138 87.9449C58.5578 88.5328 59.6669 88.7989 60.7749 88.7033Z" fill="#263238"/>
<path d="M59.3836 90.1468C59.0606 90.3252 58.6911 90.4017 58.3238 90.366C57.5107 90.2747 57.4102 89.5621 57.4102 88.9317C57.8289 88.8748 58.2543 88.9648 58.6141 89.1863C58.974 89.4079 59.2459 89.7473 59.3836 90.1468Z" fill="#FF9BBC"/>
<path d="M63.9004 72.523C63.6902 72.121 62.466 69.2796 61.8996 69.307C61.1869 69.307 60.8032 70.5404 59.4967 71.0064C57.6695 71.6733 54.2251 69.8552 51.6944 70.7506C49.1637 71.6459 47.8115 74.2132 47.6562 78.8452C47.5009 83.4773 44.1479 87.4516 42.8962 84.5097C42.8962 84.4001 42.7775 84.2082 42.6678 83.9432C41.9552 79.567 41.5989 74.4325 42.3572 72.0662C44.7052 64.7572 56.162 62.8203 61.2052 66.5845C62.0756 67.305 62.7706 68.2141 63.2375 69.243C63.7045 70.2719 63.9311 71.3935 63.9004 72.523Z" fill="#263238"/>
<path d="M46.6612 85.0031C46.6612 85.0031 43.3904 80.371 41.2891 81.5405C39.1878 82.7099 41.6546 89.4341 44.1305 90.3386C44.4401 90.4788 44.7749 90.5547 45.1148 90.5618C45.4546 90.5688 45.7923 90.5068 46.1074 90.3795C46.4226 90.2523 46.7087 90.0624 46.9483 89.8214C47.188 89.5803 47.3763 89.2932 47.5017 88.9773L46.6612 85.0031Z" fill="#F7A9A0"/>
<path d="M42.0439 83.45C42.0439 83.45 41.9891 83.5048 42.0439 83.5139C43.7798 84.2082 44.7025 85.8162 45.3512 87.479C45.2493 87.3057 45.1109 87.1565 44.9456 87.0419C44.7804 86.9272 44.5922 86.8499 44.3941 86.8151C44.196 86.7804 43.9927 86.7891 43.7983 86.8406C43.6039 86.8921 43.423 86.9853 43.2681 87.1136C43.2681 87.1136 43.2681 87.2141 43.3138 87.2049C43.6185 87.1064 43.9462 87.1044 44.252 87.1992C44.5578 87.2941 44.8269 87.4812 45.0223 87.7348C45.3467 88.1628 45.6224 88.6255 45.8446 89.1144C45.9268 89.2697 46.21 89.1875 46.146 89.0048C46.1552 86.7481 44.4193 83.6601 42.0439 83.45Z" fill="#263238"/>
<path d="M59.2282 104.545L57.7299 111.58L45.1219 102.444L42.582 106.19C42.582 106.19 54.7515 121.795 54.724 121.027L58.2689 113.197L62.837 117.829L61.3569 107.204L59.2282 104.545Z" fill="#EBEBEB"/>
<path d="M62.3001 111.58C61.9164 109.515 61.9986 109.351 61.5235 107.305C61.5235 107.231 61.3865 107.213 61.3773 107.305C61.2037 109.36 62.291 115.317 62.5102 117.217C62.2727 117.025 58.3258 113.152 58.2893 113.216C57.6772 114.449 54.8175 120.214 54.6988 120.707C52.771 118.231 45.4529 109.26 43.2511 106.957C43.2391 106.945 43.223 106.937 43.2056 106.935C43.1882 106.933 43.1708 106.938 43.1565 106.948C43.1421 106.958 43.1318 106.972 43.1274 106.989C43.123 107.006 43.1247 107.024 43.1323 107.04C44.8956 109.698 54.6074 121.795 54.7262 121.749C56.1296 119.094 57.3505 116.347 58.3807 113.526C59.2303 114.349 63.2868 118.761 63.2685 118.451C63.0663 116.145 62.743 113.852 62.3001 111.58Z" fill="#263238"/>
<path d="M349.695 308.73C349.977 301.522 349.88 294.303 349.403 287.105C348.335 272.258 346.068 257.522 342.624 243.041C340.733 234.882 338.412 226.87 335.982 218.858C335.909 218.62 335.525 218.684 335.589 218.94C343.09 247.171 349.239 276.297 348.818 305.642C348.7 313.865 347.749 321.923 346.991 330.082C346.991 330.301 347.329 330.383 347.384 330.164C348.779 323.1 349.552 315.929 349.695 308.73Z" fill="#FFC727"/>
<path d="M335.59 218.94C335.59 218.94 324.234 247.764 326.783 254.571C329.332 261.377 334.567 262.793 334.567 262.793C334.567 262.793 327.614 272.715 332.475 282.025C337.335 291.335 348.116 290.887 348.829 301.44C348.829 301.403 349.477 257.284 335.59 218.94Z" fill="#FFC727"/>
<path d="M347.597 283.186C347.616 283.135 347.616 283.08 347.597 283.03C346.103 263.353 342.408 243.905 336.579 225.052C336.579 224.988 336.47 225.006 336.488 225.052C338.735 233.488 340.724 241.963 342.454 250.478C340.925 249.036 339.059 247.999 337.027 247.463C337.027 247.463 336.972 247.463 337.027 247.518C339.162 248.304 341.081 249.585 342.627 251.255C342.956 252.926 343.285 254.598 343.541 256.27C341.01 253.438 337.484 252.031 333.966 250.688C333.911 250.688 333.893 250.752 333.966 250.77C337.621 252.259 341.275 254.187 343.769 257.348C344.634 262.124 345.396 266.923 346.053 271.747C344.219 269.826 341.868 268.477 339.283 267.864C339.201 267.864 339.156 267.965 339.238 267.983C341.905 268.756 344.292 270.286 346.108 272.387C346.337 274.086 346.556 275.776 346.757 277.475C345.334 276.277 343.731 275.312 342.006 274.616C341.96 274.616 341.933 274.671 342.006 274.689C343.765 275.448 345.377 276.512 346.766 277.832H346.821C347.013 279.449 347.205 281.057 347.36 282.674C344.803 279.584 341.484 277.215 337.73 275.803C337.657 275.803 337.621 275.886 337.73 275.913C341.435 277.553 344.691 280.06 347.223 283.222C347.249 283.258 347.287 283.284 347.33 283.298C347.372 283.311 347.418 283.31 347.46 283.295C347.707 285.78 347.926 288.256 348.109 290.75H348.164C347.981 288.274 347.808 285.716 347.597 283.186Z" fill="#263238"/>
<path d="M338.514 244.603C336.46 243.326 334.114 242.594 331.698 242.475C331.686 242.475 331.674 242.479 331.666 242.488C331.657 242.497 331.652 242.508 331.652 242.52C331.652 242.532 331.657 242.544 331.666 242.553C331.674 242.561 331.686 242.566 331.698 242.566C334.033 242.997 336.301 243.738 338.441 244.768C338.514 244.823 338.559 244.667 338.514 244.603Z" fill="#263238"/>
<path d="M339.849 275.127C338.271 274.225 336.534 273.633 334.733 273.382C334.727 273.382 334.721 273.384 334.716 273.386C334.71 273.388 334.705 273.391 334.701 273.396C334.697 273.4 334.693 273.405 334.691 273.411C334.689 273.416 334.688 273.422 334.688 273.428C334.688 273.434 334.689 273.44 334.691 273.445C334.693 273.451 334.697 273.456 334.701 273.46C334.705 273.465 334.71 273.468 334.716 273.47C334.721 273.473 334.727 273.474 334.733 273.474C336.498 273.829 338.205 274.429 339.804 275.255C339.859 275.292 339.923 275.173 339.849 275.127Z" fill="#263238"/>
<path d="M379.555 255.01C374.751 258.34 370.34 262.205 366.408 266.53C362.353 271.096 359.223 276.405 357.19 282.162C352.881 294.158 350.56 306.777 350.319 319.52C350.177 326.58 350.858 333.632 352.348 340.534C352.362 340.581 352.393 340.621 352.435 340.647C352.478 340.673 352.528 340.682 352.577 340.673C352.625 340.664 352.669 340.637 352.699 340.598C352.729 340.559 352.744 340.51 352.74 340.46C350.887 328.273 350.958 315.871 352.95 303.705C354.896 291.828 357.966 278.809 365.54 269.116C369.67 263.835 374.813 259.687 379.902 255.411C380.167 255.192 379.829 254.818 379.555 255.01Z" fill="#FFC727"/>
<path d="M351.992 310.941C354.727 306.518 357.941 302.409 361.576 298.69C367.259 293.007 372.046 288.978 372.777 285.214C373.508 281.45 367.094 278.69 367.094 278.69C367.094 278.69 374.951 280.107 377.144 276.808C379.337 273.51 380.333 254.397 380.333 254.397C380.333 254.397 366.025 264.612 359.319 278.919C352.613 293.226 351.992 310.941 351.992 310.941Z" fill="#FFC727"/>
<path d="M375.187 272.323C374.243 272.189 373.288 272.155 372.337 272.222C372.227 272.222 372.236 272.423 372.337 272.423C373.25 272.423 374.219 272.423 375.16 272.423C375.171 272.422 375.182 272.418 375.191 272.411C375.2 272.404 375.207 272.394 375.21 272.383C375.213 272.372 375.212 272.36 375.208 272.349C375.204 272.338 375.197 272.329 375.187 272.323Z" fill="#263238"/>
<path d="M364.889 290.86C363.376 290.901 361.882 291.21 360.477 291.773C360.477 291.773 360.477 291.847 360.477 291.837C361.929 291.49 363.4 291.353 364.871 291.107C365.008 291.061 365.008 290.86 364.889 290.86Z" fill="#263238"/>
<path d="M361.803 284.455C361.174 284.449 360.547 284.507 359.93 284.629C359.915 284.629 359.901 284.635 359.891 284.645C359.881 284.655 359.875 284.669 359.875 284.684C359.875 284.698 359.881 284.712 359.891 284.723C359.901 284.733 359.915 284.739 359.93 284.739C360.556 284.772 361.183 284.742 361.803 284.647C361.823 284.641 361.841 284.628 361.854 284.611C361.866 284.594 361.873 284.573 361.873 284.551C361.873 284.53 361.866 284.509 361.854 284.492C361.841 284.475 361.823 284.462 361.803 284.455Z" fill="#263238"/>
<path d="M310.065 275.292C314.719 276.867 319.179 278.966 323.358 281.55C327.699 284.319 331.46 287.907 334.431 292.112C340.7 300.828 345.499 310.513 348.638 320.781C350.383 326.466 351.462 332.334 351.854 338.268C351.845 338.306 351.823 338.34 351.793 338.364C351.762 338.388 351.724 338.402 351.685 338.402C351.646 338.402 351.608 338.388 351.577 338.364C351.546 338.34 351.525 338.306 351.516 338.268C350.199 327.978 347.277 317.959 342.855 308.575C338.524 299.375 333.042 289.581 324.674 283.487C320.106 280.171 314.989 278.005 309.873 275.703C309.608 275.575 309.8 275.2 310.065 275.292Z" fill="#FFC727"/>
<path d="M345.293 314.185C342.061 311.236 338.513 308.653 334.714 306.483C328.803 303.203 323.997 301.001 322.526 298.169C321.055 295.337 325.623 291.582 325.623 291.582C325.623 291.582 319.593 294.533 317.09 292.367C314.587 290.202 309.324 275.009 309.324 275.009C309.324 275.009 323.257 279.97 331.964 290.01C340.671 300.051 345.293 314.185 345.293 314.185Z" fill="#FFC727"/>
<path d="M344.571 311.042C337.6 297.959 328.3 286.127 315.555 278.316C318.88 280.459 322 282.906 324.874 285.625C322.281 285.484 319.697 286.029 317.382 287.205C317.336 287.205 317.382 287.297 317.428 287.279C319.888 286.358 322.503 285.917 325.129 285.981C325.159 285.99 325.191 285.99 325.221 285.981L326.564 287.288C325.214 287.349 323.872 287.527 322.553 287.818C322.553 287.818 322.553 287.882 322.553 287.872C323.944 287.611 325.359 287.494 326.774 287.525C329.108 289.885 331.304 292.378 333.352 294.989C332.413 294.859 331.458 294.927 330.547 295.19C330.533 295.19 330.519 295.196 330.508 295.207C330.498 295.217 330.492 295.231 330.492 295.245C330.492 295.26 330.498 295.274 330.508 295.284C330.519 295.294 330.533 295.3 330.547 295.3C331.539 295.184 332.54 295.169 333.535 295.254C333.918 295.739 334.302 296.223 334.677 296.716C331.831 296.541 328.975 296.819 326.217 297.538C326.217 297.538 326.217 297.612 326.217 297.602C329.077 297.045 331.997 296.854 334.905 297.036C335.261 297.511 335.6 297.95 335.947 298.47C334.25 298.429 332.556 298.623 330.913 299.046C330.849 299.046 330.867 299.165 330.913 299.146C332.623 298.78 334.374 298.645 336.12 298.744C337.628 300.809 339.062 302.92 340.442 305.058C339.705 304.922 338.947 304.965 338.231 305.185C338.231 305.185 338.231 305.259 338.231 305.249C339.03 305.188 339.835 305.228 340.624 305.368C341.867 307.296 343.064 309.251 344.215 311.206C344.398 311.343 344.663 311.215 344.571 311.042Z" fill="#263238"/>
<path d="M333.727 300.188C332.359 300.1 330.986 300.267 329.68 300.681C329.68 300.681 329.68 300.754 329.68 300.745C331.012 300.522 332.358 300.384 333.709 300.334C333.809 300.334 333.828 300.197 333.727 300.188Z" fill="#263238"/>
<path d="M321.575 284.245C320.964 284.203 320.35 284.24 319.748 284.355C319.675 284.355 319.703 284.474 319.748 284.465C320.36 284.401 320.963 284.465 321.575 284.41C321.597 284.41 321.618 284.401 321.634 284.386C321.649 284.37 321.658 284.349 321.658 284.328C321.658 284.306 321.649 284.285 321.634 284.269C321.618 284.254 321.597 284.245 321.575 284.245Z" fill="#263238"/>
<path d="M363.272 357.445H331.816L336.293 324.591L337.444 316.167H357.635L358.786 324.591L363.272 357.445Z" fill="#455A64"/>
<path d="M358.786 324.591H336.293L337.444 316.167H357.635L358.786 324.591Z" fill="#263238"/>
<path d="M360.524 313.244H334.559V320.379H360.524V313.244Z" fill="#455A64"/>
</svg>
