<svg width="308" height="310" viewBox="0 0 308 310" fill="none" xmlns="http://www.w3.org/2000/svg">
<path d="M14.1501 68.4172L134.711 68.4172V63.1283L14.1501 63.1283V68.4172Z" fill="#EBEBEB"/>
<path d="M127.941 68.4247H122.652V85.9123H127.941V68.4247Z" fill="#EBEBEB"/>
<path d="M127.941 68.4247H122.652V73.8294H127.941V68.4247Z" fill="#DBDBDB"/>
<path d="M26.1874 68.4247H20.8984V85.9123H26.1874V68.4247Z" fill="#EBEBEB"/>
<path d="M26.1874 68.4247H20.8984V73.8294H26.1874V68.4247Z" fill="#DBDBDB"/>
<path d="M112.199 63.1356V29.441H103.712V63.1356H112.199Z" fill="#C7C7C7"/>
<path d="M112.199 31.3439V27.6394H103.712V31.3439H112.199Z" fill="#DBDBDB"/>
<path d="M112.199 37.4577V36.083H103.712V37.4577H112.199Z" fill="#DBDBDB"/>
<path d="M112.199 58.7148V55.0104H102.656V58.7148H112.199Z" fill="#DBDBDB"/>
<path d="M103.711 63.1355V23.8264H97.778V63.1355H103.711Z" fill="#DBDBDB"/>
<path d="M102.555 42.6382V27.5238H98.995V42.6382H102.555Z" fill="#EBEBEB"/>
<path d="M59.7673 63.1491L87.7227 35.5139L83.5517 31.2946L55.5964 58.9298L59.7673 63.1491Z" fill="#C7C7C7"/>
<path d="M65.4777 55.8073L76.2266 45.1815L73.724 42.6499L62.9751 53.2757L65.4777 55.8073Z" fill="#DBDBDB"/>
<path d="M97.7891 63.1356V33.283H87.7176V63.1356H97.7891Z" fill="#A6A6A6"/>
<path d="M97.7891 59.9809V57.1953H87.7176V59.9809H97.7891Z" fill="#C7C7C7"/>
<path d="M97.7891 55.3648V54.2867H87.7176V55.3648H97.7891Z" fill="#C7C7C7"/>
<path d="M119.16 63.1427V35.0845H112.207V63.1427H119.16Z" fill="#A6A6A6"/>
<path d="M119.16 60.1618V57.5499H112.207V60.1618H119.16Z" fill="#C7C7C7"/>
<path d="M119.16 43.4773V40.8654H112.207V43.4773H119.16Z" fill="#C7C7C7"/>
<path d="M119.156 46.2847V45.2717H112.203V46.2847H119.156Z" fill="#C7C7C7"/>
<path d="M38.5242 27.1909C44.4571 32.9791 45.4555 41.9942 44.2038 49.8661C44.2038 50.0398 43.8927 49.9963 43.8927 49.8227C43.8927 48.0356 43.9506 46.2557 43.9434 44.4903C43.9434 44.4035 43.8855 44.3311 43.8493 44.2516C42.2506 43.1982 40.928 41.7764 39.9929 40.1058C39.0017 38.1595 38.611 35.96 37.8585 33.9196C37.7862 33.7243 37.996 33.7822 38.1262 33.8835C41.7439 36.546 42.887 39.4112 43.9144 43.2386C43.8907 41.2361 43.68 39.2401 43.285 37.2768C42.5959 33.5761 40.8926 30.1395 38.365 27.35C38.3514 27.3279 38.3457 27.3018 38.3488 27.276C38.3518 27.2502 38.3635 27.2261 38.3819 27.2077C38.4003 27.1894 38.4243 27.1777 38.4501 27.1746C38.4759 27.1716 38.502 27.1773 38.5242 27.1909Z" fill="#A6A6A6"/>
<path d="M37.4162 27.8709C36.3888 27.8709 35.7521 29.535 34.9562 30.0415C34.8725 30.1095 34.7753 30.159 34.6711 30.1869C34.5669 30.2148 34.458 30.2204 34.3515 30.2034C34.2449 30.1863 34.1432 30.1469 34.0529 30.0879C33.9627 30.0288 33.8858 29.9514 33.8275 29.8606C33.0389 28.7608 34.1242 27.4078 35.1371 26.6481C34.4663 27.0242 33.7583 27.3297 33.0244 27.5598C32.9242 27.595 32.8174 27.6078 32.7117 27.5971C32.606 27.5865 32.504 27.5527 32.4128 27.4981C32.3216 27.4435 32.2436 27.3696 32.1842 27.2814C32.1249 27.1933 32.0857 27.0932 32.0694 26.9882C31.7221 25.4905 33.6033 24.8176 34.8984 24.8176C34.2689 24.3835 32.4746 23.2042 33.4513 22.6471C34.4281 22.0899 36.5263 23.7541 37.2064 24.3112C38.2193 25.1287 39.4204 26.3587 39.471 27.6394C39.5072 29.1009 38.1976 28.182 37.4162 27.8709Z" fill="#DBDBDB"/>
<path d="M37.7033 28.124C36.4009 27.5234 33.8903 28.3844 33.6805 27.8852C33.2463 26.8795 35.2505 26.1922 36.3358 26.0547C35.3373 25.787 33.4417 25.3312 33.4851 24.3978C33.5575 23.2257 36.4154 24.2314 37.8624 25.3384C39.6785 26.7348 39.6712 28.0878 39.3674 28.3555C38.955 28.7245 37.9203 28.218 37.7033 28.124Z" fill="#EBEBEB"/>
<path d="M52.0389 26.6192C45.8889 32.1976 44.5504 41.1404 45.5272 49.0485C45.5272 49.2294 45.8311 49.1932 45.8383 49.0485C45.9034 47.2614 45.9179 45.4815 45.9902 43.7161L46.0915 43.4774C47.7293 42.4908 49.1044 41.1231 50.0999 39.4907C51.1707 37.5806 51.641 35.3956 52.473 33.3914C52.5526 33.1961 52.3428 33.2467 52.2053 33.3408C48.4936 35.8659 47.2347 38.6876 46.0554 42.4717C46.154 40.4717 46.4398 38.4854 46.9091 36.5388C47.7421 32.8629 49.5808 29.4911 52.2198 26.8001C52.2438 26.7761 52.2572 26.7436 52.2572 26.7097C52.2572 26.6758 52.2438 26.6432 52.2198 26.6192C52.1958 26.5953 52.1633 26.5818 52.1293 26.5818C52.0954 26.5818 52.0629 26.5953 52.0389 26.6192Z" fill="#A6A6A6"/>
<path d="M53.1272 27.3355C54.1474 27.4078 54.7262 29.0647 55.5004 29.5712C55.5815 29.6425 55.6768 29.6959 55.7799 29.7279C55.8831 29.7599 55.9919 29.7697 56.0991 29.7567C56.2064 29.7438 56.3097 29.7083 56.4022 29.6526C56.4948 29.5969 56.5746 29.5223 56.6363 29.4337C57.4684 28.3629 56.4337 26.9665 55.4497 26.1706C56.1042 26.5924 56.8 26.9464 57.5263 27.2269C57.6252 27.2661 57.7315 27.283 57.8376 27.2764C57.9438 27.2697 58.0472 27.2398 58.1404 27.1887C58.2337 27.1376 58.3145 27.0665 58.3772 26.9806C58.4399 26.8946 58.4828 26.796 58.503 26.6915C58.901 25.2011 57.056 24.4631 55.7609 24.3835C56.3976 23.9711 58.2353 22.8569 57.3092 22.2129C56.3831 21.569 54.2125 23.2186 53.489 23.7613C52.4471 24.5427 51.2027 25.722 51.1086 26.9954C50.9928 28.4859 52.3314 27.6176 53.1272 27.3355Z" fill="#DBDBDB"/>
<path d="M52.8187 27.5597C54.15 27.0171 56.6172 27.9649 56.8487 27.4802C57.319 26.4962 55.3438 25.7292 54.273 25.5556C55.2787 25.3241 57.1671 24.9623 57.1671 24C57.1671 22.8279 54.273 23.7251 52.7608 24.7814C50.8941 26.1055 50.8507 27.4512 51.1401 27.7334C51.5453 28.1313 52.6016 27.6683 52.8187 27.5597Z" fill="#EBEBEB"/>
<path d="M45.7426 41.3575C45.3307 44.3416 44.6922 47.2901 43.8325 50.1773C43.821 50.2339 43.7874 50.2836 43.7393 50.3155C43.6911 50.3473 43.6322 50.3588 43.5756 50.3473C43.519 50.3358 43.4693 50.3022 43.4374 50.2541C43.4055 50.2059 43.3941 50.147 43.4056 50.0904C43.8108 47.37 44.5488 44.7002 44.9467 41.987C45.3911 39.2348 45.5512 36.4442 45.4242 33.6592C45.1638 29.0793 43.9193 24.2027 40.9311 20.6358C40.866 20.5489 41.0035 20.4259 41.0686 20.5055C47.0594 27.4875 46.1333 36.0468 46.1333 36.8138C46.9798 33.9197 47.8553 30.6132 51.0605 27.6684C51.198 27.5382 51.3065 27.6033 51.2848 27.8204C50.7132 33.1744 49.2227 35.9745 46.1116 38.8396C45.9886 39.6717 45.88 40.5182 45.7426 41.3575Z" fill="#A6A6A6"/>
<path d="M40.8762 21.4243C39.7981 20.9468 38.3149 22.3143 37.2586 22.4083C37.1399 22.4368 37.0167 22.4403 36.8966 22.4187C36.7765 22.3971 36.6623 22.3509 36.561 22.2829C36.4597 22.2149 36.3736 22.1266 36.3081 22.0237C36.2426 21.9208 36.1992 21.8054 36.1805 21.6848C35.9128 20.1509 37.7216 19.2827 39.1542 19.0078C38.2498 18.9499 37.3599 19.1959 36.4699 18.9571C36.3474 18.9429 36.2293 18.9022 36.124 18.8379C36.0186 18.7737 35.9285 18.6873 35.8597 18.5849C35.7909 18.4824 35.7452 18.3662 35.7256 18.2444C35.7061 18.1225 35.7132 17.9979 35.7464 17.8791C36.1443 16.1498 38.4307 16.432 39.7909 17.0181C39.3568 16.2946 38.0906 14.124 39.3713 14.001C40.6519 13.878 42.0049 16.6925 42.4318 17.6186C43.0685 18.9788 43.7052 20.8528 43.1046 22.2057C42.4318 23.7541 41.5346 22.1406 40.8762 21.4243Z" fill="#DBDBDB"/>
<path d="M41.0592 21.8296C40.0028 20.5634 36.9713 20.1872 37.0002 19.5649C37.0581 18.306 39.4819 18.5954 40.6757 19.0006C39.7785 18.2192 38.0131 16.83 38.5558 15.846C39.2214 14.6667 41.6742 17.1484 42.622 19.0295C43.8086 21.3954 43.114 22.7846 42.6654 22.9148C42.0504 23.0885 41.2328 22.0466 41.0592 21.8296Z" fill="#EBEBEB"/>
<path d="M49.6864 42.9636L52.3273 63.1354H36.2578C36.5906 61.3483 39.5788 42.9419 39.5788 42.9419L49.6864 42.9636Z" fill="#DBDBDB"/>
<path d="M241.32 48.1298C241.758 46.2739 242.554 44.5215 243.664 42.971C244.721 41.524 246.423 40.4725 248.772 39.8165C249.496 39.5994 250.342 39.3679 251.363 39.0929C252.412 38.8378 253.439 38.4941 254.43 38.0655C255.439 37.6348 256.371 37.0408 257.187 36.3074C258.014 35.5607 258.592 34.5784 258.844 33.4929C259.06 32.7122 259.087 31.8913 258.923 31.098C258.771 30.3852 258.476 29.7108 258.055 29.1155C257.62 28.5152 257.069 28.0084 256.434 27.6251C255.785 27.2232 255.077 26.9253 254.336 26.7424C253.486 26.5238 252.599 26.4819 251.732 26.6194C250.943 26.7366 250.174 26.9606 249.445 27.285C248.735 27.6033 248.065 28.004 247.448 28.4788C246.88 28.9105 246.336 29.3743 245.82 29.868L241.407 24.8033C242.229 23.6933 243.231 22.7296 244.373 21.9527C245.485 21.1974 246.705 20.6144 247.991 20.2234C249.301 19.8315 250.66 19.6245 252.028 19.6084C253.441 19.5882 254.849 19.7561 256.217 20.1077C257.776 20.5012 259.27 21.1177 260.653 21.9382C262.034 22.7529 263.24 23.8352 264.198 25.1217C265.186 26.4652 265.867 28.0087 266.195 29.6437C266.563 31.5661 266.479 33.5477 265.949 35.4319C265.674 36.6107 265.225 37.7421 264.617 38.7891C264.078 39.6907 263.399 40.5014 262.606 41.1912C261.821 41.8654 260.953 42.4368 260.023 42.8914C259.014 43.3775 257.972 43.791 256.905 44.1287C255.957 44.4181 255.024 44.6785 254.09 44.9245C253.19 45.1569 252.313 45.4718 251.471 45.8651C250.666 46.2305 249.931 46.7351 249.3 47.3556C248.653 48.0378 248.203 48.8831 247.998 49.8011L241.32 48.1298ZM237.84 62.4772L239.974 53.9975L246.797 55.7123L244.663 64.192L237.84 62.4772Z" fill="#EBEBEB"/>
<path d="M26.0469 205.388C26.3574 206.758 26.3968 208.177 26.1627 209.562C25.8173 211.037 24.9929 212.355 23.8185 213.31C23.4133 213.679 22.9141 214.113 22.3208 214.605C21.7065 215.112 21.1376 215.671 20.6205 216.277C20.0873 216.887 19.6594 217.581 19.3543 218.332C19.0481 219.094 18.9825 219.932 19.1662 220.734C19.2788 221.322 19.5265 221.877 19.8897 222.354C20.2219 222.777 20.6351 223.129 21.1052 223.389C21.5886 223.642 22.1173 223.797 22.6608 223.845C23.2215 223.903 23.7878 223.874 24.3394 223.758C24.9678 223.636 25.5656 223.39 26.0976 223.034C26.5841 222.703 27.0224 222.307 27.3999 221.855C27.7675 221.41 28.083 220.925 28.3405 220.408C28.5808 219.94 28.7911 219.456 28.9699 218.961L33.5281 220.871C33.3381 221.874 32.981 222.837 32.4718 223.722C31.9769 224.586 31.3522 225.369 30.6196 226.044C29.879 226.732 29.0432 227.31 28.1379 227.759C27.2077 228.226 26.2201 228.569 25.2004 228.779C24.0404 229.024 22.8512 229.099 21.6696 229.003C20.4906 228.91 19.342 228.583 18.2907 228.041C17.2 227.466 16.2471 226.662 15.4979 225.683C14.6367 224.526 14.0548 223.187 13.7977 221.768C13.5967 220.898 13.5284 220.003 13.5951 219.113C13.6594 218.34 13.8475 217.583 14.1522 216.87C14.4513 216.167 14.843 215.508 15.317 214.909C15.8253 214.256 16.3815 213.642 16.9812 213.071C17.5166 212.579 18.052 212.102 18.5946 211.624C19.1192 211.186 19.6035 210.702 20.0417 210.177C20.4324 209.672 20.7312 209.101 20.9244 208.492C21.1356 207.829 21.1606 207.12 20.9967 206.444L26.0469 205.388ZM23.7172 194.745L25.0412 201.061L19.9765 202.125L18.6525 195.815L23.7172 194.745Z" fill="#EBEBEB"/>
<path d="M253.901 140.828C254.753 141.946 255.38 143.219 255.746 144.576C256.038 146.066 255.826 147.61 255.146 148.967C254.936 149.474 254.661 150.074 254.328 150.769C253.977 151.484 253.691 152.23 253.474 152.997C253.243 153.774 253.143 154.583 253.178 155.392C253.219 156.213 253.507 157.002 254.003 157.657C254.348 158.145 254.804 158.544 255.334 158.822C255.813 159.069 256.337 159.217 256.875 159.256C257.42 159.291 257.967 159.215 258.481 159.032C259.012 158.847 259.512 158.584 259.964 158.25C260.486 157.88 260.927 157.408 261.26 156.861C261.577 156.358 261.82 155.812 261.983 155.24C262.129 154.684 262.214 154.114 262.236 153.54C262.266 153.017 262.266 152.493 262.236 151.97L267.171 151.811C267.419 152.798 267.498 153.821 267.402 154.835C267.308 155.831 267.064 156.806 266.679 157.729C266.287 158.661 265.765 159.533 265.13 160.319C264.481 161.138 263.727 161.868 262.887 162.49C261.932 163.196 260.879 163.759 259.762 164.161C258.651 164.565 257.47 164.745 256.289 164.689C255.06 164.62 253.861 164.287 252.773 163.713C251.509 163.016 250.422 162.039 249.596 160.855C249.052 160.147 248.618 159.362 248.308 158.525C248.044 157.796 247.9 157.029 247.882 156.253C247.86 155.489 247.941 154.725 248.12 153.981C248.317 153.178 248.571 152.39 248.88 151.623C249.162 150.95 249.444 150.291 249.748 149.647C250.05 149.028 250.292 148.381 250.472 147.716C250.635 147.091 250.689 146.442 250.631 145.798C250.545 145.109 250.273 144.456 249.842 143.91L253.901 140.828ZM247.39 132.145L251.217 137.333L247.042 140.415L243.215 135.228L247.39 132.145Z" fill="#EBEBEB"/>
<path d="M277.666 127.775C277.641 126.228 277.921 124.691 278.491 123.253C279.197 121.743 280.39 120.512 281.877 119.758C282.39 119.447 283.027 119.1 283.78 118.702C284.543 118.296 285.269 117.823 285.95 117.291C286.663 116.758 287.28 116.107 287.773 115.367C288.269 114.611 288.521 113.723 288.497 112.82C288.509 112.196 288.382 111.577 288.124 111.008C287.866 110.44 287.484 109.937 287.007 109.535C286.549 109.15 286.017 108.862 285.444 108.688C284.854 108.502 284.239 108.407 283.62 108.406C282.917 108.398 282.219 108.528 281.566 108.79C280.968 109.04 280.406 109.369 279.894 109.766C279.397 110.159 278.948 110.608 278.556 111.105C278.195 111.555 277.861 112.026 277.557 112.516L273.086 109.434C273.515 108.399 274.114 107.442 274.859 106.605C275.59 105.791 276.439 105.091 277.376 104.528C278.332 103.959 279.362 103.525 280.437 103.24C281.542 102.949 282.68 102.803 283.823 102.806C285.129 102.807 286.428 102.997 287.679 103.371C288.927 103.737 290.088 104.35 291.094 105.172C292.134 106.034 292.975 107.11 293.562 108.327C294.246 109.765 294.59 111.342 294.567 112.936C294.581 113.914 294.452 114.889 294.184 115.83C293.935 116.644 293.561 117.415 293.077 118.116C292.596 118.803 292.027 119.423 291.384 119.961C290.685 120.544 289.945 121.076 289.17 121.553C288.49 121.965 287.802 122.363 287.115 122.739C286.454 123.101 285.826 123.523 285.241 123.998C284.69 124.443 284.222 124.982 283.859 125.59C283.483 126.25 283.295 127.001 283.317 127.761L277.666 127.775ZM277.767 139.742V132.652H283.468V139.742H277.767Z" fill="#EBEBEB"/>
<path d="M99.2997 168.879C98.9557 167.37 98.9115 165.809 99.1694 164.284C99.5486 162.661 100.461 161.212 101.76 160.167C102.201 159.755 102.744 159.285 103.402 158.72C104.072 158.158 104.696 157.544 105.269 156.883C105.849 156.208 106.316 155.443 106.651 154.618C106.987 153.779 107.058 152.857 106.853 151.977C106.73 151.33 106.458 150.72 106.057 150.197C105.686 149.749 105.228 149.38 104.712 149.112C104.183 148.829 103.602 148.657 103.004 148.605C102.39 148.548 101.771 148.582 101.166 148.707C100.476 148.846 99.8199 149.119 99.2345 149.51C98.6961 149.877 98.2094 150.315 97.7875 150.812C97.3863 151.3 97.0416 151.831 96.7601 152.397C96.4862 152.912 96.2446 153.443 96.0366 153.988L91.1094 151.876C91.3154 150.775 91.7043 149.716 92.2598 148.743C92.8027 147.792 93.4884 146.931 94.2929 146.189C95.1048 145.431 96.0209 144.792 97.0133 144.293C98.037 143.782 99.1212 143.403 100.24 143.165C101.517 142.898 102.825 142.815 104.126 142.919C105.42 143.02 106.681 143.376 107.837 143.968C109.036 144.594 110.084 145.476 110.905 146.551C112.412 148.652 113.157 151.204 113.018 153.786C112.945 154.633 112.74 155.463 112.41 156.246C112.083 157.022 111.654 157.752 111.137 158.416C110.573 159.13 109.961 159.804 109.306 160.435C108.72 160.978 108.134 161.506 107.541 162.012C106.968 162.505 106.44 163.047 105.963 163.633C105.519 164.186 105.172 164.81 104.936 165.478C104.71 166.208 104.685 166.985 104.864 167.728L99.2997 168.879ZM101.883 180.564L100.436 173.632L106.014 172.446L107.461 179.384L101.883 180.564Z" fill="#EBEBEB"/>
<path d="M273.285 225.002L282.951 224.8L287.712 224.72C289.297 224.684 290.867 224.72 292.444 224.677L292.126 225.002L292.082 216.906L292.444 217.268L282.843 217.224C279.652 217.224 276.461 217.138 273.264 217.101L273.466 216.906C273.466 218.23 273.401 219.561 273.365 220.914L273.285 225.002ZM273.285 225.002L273.184 220.994C273.184 219.648 273.104 218.281 273.09 216.906V216.711H273.285C276.483 216.675 279.674 216.595 282.865 216.588L292.444 216.544H292.806V216.906V225.002V225.328H292.48C290.867 225.328 289.246 225.328 287.64 225.284L282.821 225.205L273.285 225.002Z" fill="#EBEBEB"/>
<path d="M283.969 235.211L293.635 235.009L298.396 234.929C299.98 234.893 301.55 234.929 303.128 234.886L302.809 235.211L302.773 227.115L303.128 227.477L293.548 227.433C290.357 227.433 287.167 227.346 283.969 227.31L284.171 227.115C284.171 228.439 284.106 229.77 284.077 231.123L283.969 235.211ZM283.969 235.211L283.867 231.203C283.867 229.857 283.788 228.49 283.773 227.115V226.92H283.969C287.167 226.883 290.357 226.804 293.548 226.797L303.128 226.753H303.497V227.115L303.453 235.211V235.537H303.099C301.485 235.537 299.872 235.537 298.258 235.493L293.44 235.414L283.969 235.211Z" fill="#EBEBEB"/>
<path d="M262.586 235.211L272.252 235.009L277.013 234.929C278.59 234.893 280.168 234.929 281.745 234.886L281.427 235.211L281.398 227.115L281.759 227.477L272.18 227.433C268.989 227.433 265.791 227.346 262.6 227.31L262.796 227.115C262.796 228.439 262.738 229.77 262.702 231.123L262.586 235.211ZM262.586 235.211L262.485 231.203C262.448 229.857 262.405 228.49 262.391 227.115V226.92H262.586C265.777 226.883 268.975 226.804 272.165 226.797L281.745 226.753H282.107V227.115L282.121 235.211V235.537H281.803C280.189 235.537 278.569 235.537 276.962 235.493L272.144 235.414L262.586 235.211Z" fill="#EBEBEB"/>
<path d="M15.6752 235.211L25.3343 235.009L30.0951 234.929C31.6796 234.893 33.2569 234.929 34.8342 234.886L34.5086 235.211L34.4724 227.115L34.8342 227.477L25.2764 227.433C22.0784 227.433 18.8877 227.346 15.6969 227.31L15.8923 227.115C15.8923 228.439 15.8272 229.77 15.7982 231.123L15.6752 235.211ZM15.6752 235.211L15.5667 231.203C15.5667 229.857 15.4871 228.49 15.4727 227.115V226.92H15.6752C18.866 226.883 22.0567 226.804 25.2547 226.797L34.8342 226.753H35.1959V227.115L35.1525 235.211V235.537H34.8342C33.2207 235.537 31.6 235.537 29.9865 235.493L25.1679 235.414L15.6752 235.211Z" fill="#EBEBEB"/>
<path d="M15.6752 10.0288L25.3343 9.82618L30.0951 9.73935C31.6796 9.73935 33.2569 9.73935 34.8342 9.73935L34.5086 10.0649L34.4724 1.96871L34.8342 2.32323L25.2764 2.23641C22.0784 2.23641 18.8877 2.15682 15.6969 2.12065L15.8923 1.92529C15.8923 3.24934 15.8272 4.58063 15.7982 5.92638L15.6752 10.0288ZM15.6752 10.0288L15.5667 6.02044C15.5667 4.66745 15.4871 3.29999 15.4727 1.93253V1.73718H15.6752C18.866 1.73718 22.0567 1.62142 25.2547 1.62142L34.8342 1.578H35.1959V1.947L35.1525 10.0432V10.3616H34.8342C33.2207 10.3616 31.6 10.3616 29.9865 10.3254L25.1679 10.1952L15.6752 10.0288Z" fill="#EBEBEB"/>
<path d="M5.01118 20.2377L14.6702 20.0352L19.431 19.9483C21.0155 19.9483 22.5856 19.9483 24.1701 19.9483L23.8445 20.2739V12.1777L24.2063 12.5322L14.5617 12.4526C11.3637 12.4526 8.17298 12.3658 5.01118 12.3658L5.20653 12.1705C5.20653 13.4945 5.14141 14.8258 5.11247 16.1715L5.01118 20.2377ZM5.01118 20.2377L4.90265 16.2294C4.90265 14.8764 4.82306 13.509 4.80859 12.1415V11.9462H5.01118C8.20192 11.9462 11.3927 11.8304 14.5906 11.8304L24.1701 11.787H24.5319V12.156L24.4884 20.2522V20.5706H24.1701C22.5494 20.5706 20.9359 20.5706 19.3225 20.5706L14.5038 20.4837L5.01118 20.2377Z" fill="#EBEBEB"/>
<path d="M283.969 10.036L293.635 9.83341L298.396 9.75382C299.98 9.75382 301.55 9.75383 303.128 9.71041L302.809 10.036L302.773 1.93976L303.128 2.30153L293.548 2.23641C290.357 2.23641 287.167 2.15682 283.969 2.12065L284.171 1.92529C284.171 3.24934 284.106 4.58063 284.077 5.92638L283.969 10.036ZM283.969 10.036L283.867 6.02768C283.867 4.67469 283.788 3.31446 283.773 1.93976V1.74441H283.969C287.167 1.70824 290.357 1.63588 293.548 1.62865L303.099 1.578H303.468V1.93976L303.432 10.036V10.3616H303.099C301.485 10.3616 299.872 10.3616 298.258 10.3616L293.44 10.282L283.969 10.036Z" fill="#EBEBEB"/>
<path d="M180.259 114.983L170.6 115.186L165.839 115.265C164.255 115.302 162.677 115.265 161.1 115.309L161.426 114.983L161.462 123.079L161.1 122.718L170.679 122.768C173.877 122.768 177.068 122.848 180.259 122.884L180.064 123.079C180.064 121.755 180.129 120.424 180.158 119.078L180.259 114.983ZM180.259 114.983L180.367 118.992C180.367 120.345 180.447 121.705 180.462 123.079V123.275H180.259C177.068 123.275 173.877 123.383 170.679 123.391L161.1 123.434H160.738V123.065L160.782 114.969V114.643H161.1C162.714 114.643 164.334 114.643 165.948 114.679L170.766 114.759L180.259 114.983Z" fill="#EBEBEB"/>
<path d="M169.567 104.774L159.908 104.977L155.147 105.056C153.563 105.056 151.985 105.056 150.408 105.1L150.734 104.774L150.77 112.87L150.408 112.509L159.988 112.559C163.178 112.559 166.376 112.639 169.567 112.675L169.372 112.87C169.372 111.546 169.43 110.215 169.466 108.869L169.567 104.774ZM169.567 104.774L169.668 108.783C169.704 110.136 169.755 111.496 169.762 112.87V113.066H169.56C166.369 113.102 163.171 113.174 159.98 113.182L150.401 113.225H150.039V112.863L150.082 104.767V104.441H150.437C152.05 104.441 153.671 104.441 155.285 104.478L160.103 104.557L169.567 104.774Z" fill="#EBEBEB"/>
<path d="M0.933594 271.764L39.2152 271.59L77.4969 271.525L154.053 271.402L230.609 271.525L268.891 271.59L307.172 271.764L268.891 271.945L230.609 272.01L154.053 272.126L77.4969 272.01L39.2152 271.945L0.933594 271.764Z" fill="#263238"/>
<path d="M154.056 309.156C226.138 309.156 284.572 303.467 284.572 296.45C284.572 289.434 226.138 283.745 154.056 283.745C81.9733 283.745 23.5391 289.434 23.5391 296.45C23.5391 303.467 81.9733 309.156 154.056 309.156Z" fill="#EBEBEB"/>
<path d="M282.121 192.154C279.371 189.463 275.819 186.207 271.615 187.372C267.665 188.464 266.152 192.777 265.443 196.373C264.532 201.01 263.823 205.684 263.085 210.351C262.347 215.018 261.638 219.757 260.965 224.496C260.579 227.158 260.203 229.823 259.836 232.491C259.648 233.822 259.462 235.153 259.279 236.485C259.098 237.794 258.881 239.104 258.809 240.421C258.809 240.84 259.445 240.898 259.532 240.5C260.046 238.279 260.256 235.964 260.581 233.714C260.907 231.463 261.24 229.17 261.565 226.905C262.224 222.398 262.911 217.897 263.584 213.39C264.257 208.882 264.966 204.389 265.689 199.889C266.297 196.069 266.586 191.33 269.965 188.812C270.884 188.184 271.947 187.801 273.054 187.697C274.162 187.593 275.277 187.773 276.296 188.218C278.517 189.072 280.297 190.664 282.041 192.241C282.121 192.292 282.193 192.212 282.121 192.154Z" fill="#263238"/>
<path d="M278.376 189.405C278.376 189.405 272.754 187.387 269.983 191.482C267.212 195.577 270.525 206.01 296.102 211.892C295.354 203.898 293.275 196.085 289.952 188.776C284.468 176.816 274.693 181.345 278.376 189.405Z" fill="#FFC727"/>
<path d="M294.634 210.185C294.248 209.469 293.817 208.778 293.346 208.115C292.919 207.457 292.485 206.799 292.051 206.147C291.725 205.655 291.385 205.163 291.052 204.7C291.052 204.585 291.052 204.462 291.096 204.339L291.183 203.673C291.248 203.195 291.32 202.711 291.385 202.226C291.45 201.741 291.537 201.278 291.631 200.779C291.69 200.267 291.801 199.763 291.964 199.274C291.964 199.194 291.863 199.158 291.855 199.274C291.8 199.564 291.723 199.85 291.624 200.128L291.45 200.772C291.327 201.256 291.212 201.741 291.103 202.219C290.995 202.696 290.915 203.123 290.835 203.572C290.799 203.796 290.77 204.013 290.741 204.23C290.285 203.579 289.815 202.935 289.338 202.305C287.977 200.518 286.545 198.796 285.054 197.111C285.054 197.111 285.054 197.111 285.054 197.067C285.192 194.383 285.127 191.72 285.72 189.108C285.72 189.036 285.633 188.993 285.611 189.065C284.937 191.557 284.616 194.131 284.656 196.713C284.128 196.119 283.586 195.526 283.043 194.94C281.791 193.602 280.525 192.277 279.23 190.99C279.179 190.939 279.093 190.99 279.143 191.069C281.314 193.392 283.347 195.808 285.344 198.268C283.781 198.243 282.219 198.301 280.663 198.442C278.933 198.565 277.211 198.789 275.489 199.028C275.41 199.028 275.431 199.151 275.489 199.144C277.201 198.892 278.926 198.737 280.655 198.681C282.327 198.608 283.984 198.681 285.655 198.681C286.735 200.012 287.799 201.358 288.846 202.718H288.629C288.238 202.718 287.847 202.718 287.456 202.718C286.675 202.718 285.901 202.79 285.127 202.855C283.537 202.987 281.958 203.229 280.402 203.579C280.387 203.579 280.372 203.585 280.361 203.596C280.35 203.607 280.344 203.621 280.344 203.637C280.344 203.652 280.35 203.667 280.361 203.678C280.372 203.689 280.387 203.695 280.402 203.695C281.972 203.514 283.549 203.369 285.127 203.311C285.85 203.311 286.639 203.311 287.391 203.311H288.629C288.845 203.341 289.065 203.321 289.273 203.253C289.957 204.146 290.642 205.04 291.327 205.938C291.87 206.661 292.405 207.385 292.934 208.108C293.462 208.832 293.961 209.664 294.554 210.358C294.583 210.308 294.663 210.243 294.634 210.185Z" fill="#263238"/>
<path d="M280.827 195.215C279.92 195.099 279.006 195.056 278.092 195.085C277.18 195.085 276.262 195.085 275.35 195.143C275.27 195.143 275.278 195.258 275.35 195.258C276.276 195.186 277.202 195.172 278.128 195.186C279.054 195.201 279.923 195.287 280.813 195.258C280.856 195.258 280.856 195.222 280.827 195.215Z" fill="#263238"/>
<path d="M288.854 197.277C288.955 196.402 289.064 195.526 289.252 194.665C289.252 194.65 289.246 194.635 289.235 194.624C289.224 194.613 289.209 194.607 289.194 194.607C289.179 194.607 289.164 194.613 289.153 194.624C289.142 194.635 289.136 194.65 289.136 194.665C289.006 195.526 288.839 196.38 288.716 197.241C288.651 197.668 288.593 198.102 288.536 198.529C288.462 198.932 288.428 199.342 288.434 199.751C288.439 199.768 288.449 199.782 288.463 199.792C288.477 199.802 288.493 199.807 288.51 199.807C288.527 199.807 288.544 199.802 288.557 199.792C288.571 199.782 288.581 199.768 288.586 199.751C288.662 199.348 288.706 198.939 288.716 198.529C288.753 198.109 288.803 197.689 288.854 197.277Z" fill="#263238"/>
<path d="M287.185 187.596C286.961 188.45 286.737 189.311 286.585 190.172C286.505 190.613 286.433 191.055 286.375 191.496C286.296 191.923 286.266 192.357 286.288 192.791C286.288 192.801 286.292 192.81 286.299 192.817C286.306 192.823 286.315 192.827 286.324 192.827C286.334 192.827 286.343 192.823 286.35 192.817C286.357 192.81 286.361 192.801 286.361 192.791C286.462 192.388 286.527 191.976 286.556 191.561C286.614 191.134 286.679 190.715 286.751 190.288C286.91 189.398 287.07 188.515 287.294 187.64C287.301 187.567 287.185 187.524 287.185 187.596Z" fill="#263238"/>
<path d="M253.903 239.473C253.758 237.867 253.599 236.253 253.432 234.647C253.09 231.463 252.706 228.282 252.282 225.104C251.855 221.942 251.45 218.766 250.936 215.611C250.751 214.136 250.424 212.682 249.959 211.27C249.794 210.668 249.493 210.111 249.079 209.643C248.665 209.175 248.15 208.809 247.572 208.571C244.562 207.536 242.507 210.655 241.321 212.862C241.284 212.927 241.379 212.977 241.422 212.92C242.145 211.87 244.157 208.94 246.443 209.078C247.977 209.164 249.207 210.257 249.945 214.084C251.783 223.628 253.44 243.025 253.635 244.263C253.736 244.935 254.207 244.907 254.214 244.183C254.185 242.635 254.004 241.05 253.903 239.473Z" fill="#263238"/>
<path d="M242.095 211.711C242.095 211.711 244.729 202.421 238.911 207.066C229.231 214.801 228.891 231.594 228.891 231.594C228.891 231.594 246.096 221.602 248.23 215.011C251.421 205.214 242.095 211.711 242.095 211.711Z" fill="#FFC727"/>
<path d="M245.351 216.27C244.005 216.545 242.63 216.726 241.27 216.921L239.331 217.196C238.897 217.254 238.456 217.297 238.014 217.348C239.295 215.582 240.59 213.824 241.82 212.023C241.831 212.007 241.836 211.988 241.834 211.969C241.831 211.95 241.821 211.933 241.805 211.921C241.79 211.91 241.771 211.905 241.752 211.908C241.733 211.91 241.716 211.92 241.704 211.936C240.678 212.988 239.712 214.097 238.81 215.257L238.043 213.086C237.754 212.254 237.435 211.429 237.226 210.568C237.226 210.496 237.095 210.568 237.117 210.604C237.349 211.451 237.515 212.326 237.747 213.18C237.978 214.034 238.217 214.815 238.506 215.619C237.877 216.436 237.269 217.275 236.683 218.122C236.386 217.283 236.017 216.472 235.764 215.619C235.764 215.546 235.627 215.582 235.648 215.619C235.959 216.566 236.126 217.543 236.415 218.513C236.017 219.091 235.627 219.67 235.25 220.249C234.527 221.327 233.897 222.42 233.261 223.519C233.211 223.541 233.169 223.578 233.142 223.625C233.114 223.671 233.103 223.726 233.109 223.78C232.023 225.661 230.989 227.564 229.969 229.488C229.961 229.502 229.959 229.518 229.963 229.533C229.967 229.548 229.977 229.56 229.99 229.568C230.004 229.576 230.02 229.578 230.035 229.574C230.05 229.57 230.062 229.56 230.07 229.546C231.09 227.643 232.24 225.791 233.405 223.975C233.588 223.915 233.778 223.878 233.97 223.867L234.563 223.736C235.004 223.642 235.446 223.527 235.887 223.418C236.763 223.201 237.624 222.991 238.513 222.839C238.586 222.839 238.55 222.716 238.513 222.731C237.472 222.926 236.43 223.049 235.373 223.165C234.874 223.223 234.382 223.288 233.89 223.367H233.818C234.43 222.432 235.057 221.501 235.699 220.575C236.321 219.67 236.965 218.773 237.609 217.876C238.21 217.796 238.796 217.637 239.389 217.529L241.386 217.138C242.717 216.87 244.048 216.574 245.387 216.357C245.459 216.4 245.423 216.255 245.351 216.27Z" fill="#263238"/>
<path d="M235.017 217.188C234.937 216.942 234.865 216.696 234.785 216.465C234.624 215.952 234.491 215.43 234.387 214.902C234.387 214.83 234.264 214.866 234.279 214.902C234.394 215.43 234.517 215.951 234.633 216.472C234.738 216.998 234.888 217.513 235.082 218.013C235.094 218.034 235.112 218.051 235.135 218.06C235.157 218.069 235.182 218.07 235.206 218.063C235.229 218.057 235.249 218.043 235.264 218.023C235.278 218.003 235.285 217.98 235.284 217.955C235.205 217.709 235.096 217.449 235.017 217.188Z" fill="#263238"/>
<path d="M247.109 214.121C246.327 214.236 245.539 214.294 244.743 214.367C243.947 214.439 243.173 214.54 242.384 214.663C242.341 214.663 242.341 214.736 242.384 214.728C243.173 214.678 243.961 214.613 244.75 214.511C245.539 214.41 246.32 214.294 247.116 214.236C247.188 214.229 247.181 214.113 247.109 214.121Z" fill="#263238"/>
<path d="M266.528 227.716C266.217 220.878 265.805 214.048 265.081 207.24C264.741 203.847 264.358 200.46 263.88 197.111C263.458 193.791 262.803 190.505 261.919 187.278C261.313 184.769 260.2 182.41 258.649 180.346C257.883 179.343 256.873 178.551 255.717 178.044C254.56 177.538 253.293 177.334 252.036 177.452C249.048 177.821 246.631 179.71 244.547 181.757C242.21 184.058 240.069 186.569 237.905 188.993C237.356 189.615 236.813 190.244 236.27 190.874C236.227 190.932 236.306 191.011 236.357 190.953C238.477 188.522 240.698 186.156 242.977 183.899C245.105 181.808 247.319 179.558 250.213 178.661C251.583 178.226 253.048 178.191 254.438 178.559C255.545 178.909 256.542 179.54 257.332 180.39C258.996 182.112 259.922 184.449 260.588 186.713C262.426 193.001 263.084 199.592 263.764 206.082C264.444 212.572 264.929 219.287 265.262 225.914C265.595 232.541 265.855 239.234 266.499 245.876C266.579 246.694 266.68 247.511 266.789 248.329C266.854 248.871 267.707 248.879 267.664 248.329C267.15 241.455 266.832 234.589 266.528 227.716Z" fill="#263238"/>
<path d="M244.186 182.481C244.186 182.481 248.093 175.246 243.462 172.931C238.832 170.615 223.406 187.85 218.898 213.057C218.898 213.057 243.838 202.023 252.311 191.026C260.783 180.028 251.189 177.612 244.186 182.481Z" fill="#FFC727"/>
<path d="M247.854 188.356C245.054 188.356 242.254 188.146 239.454 188.161L241.031 186.359C241.81 185.559 242.535 184.708 243.202 183.812C243.238 183.754 243.159 183.675 243.101 183.718C242.339 184.37 241.63 185.081 240.981 185.845C240.257 186.569 239.577 187.336 238.883 188.088C237.812 189.253 236.763 190.425 235.713 191.612C235.713 191.496 235.713 191.38 235.713 191.272C235.713 190.78 235.713 190.288 235.713 189.825C235.713 188.877 235.713 187.922 235.713 186.974C235.713 185.049 235.713 183.11 235.858 181.186C235.858 181.114 235.75 181.114 235.742 181.186C235.612 183.125 235.41 185.049 235.316 186.974C235.272 187.929 235.25 188.877 235.236 189.832C235.236 190.317 235.236 190.809 235.236 191.279C235.236 191.547 235.236 191.829 235.236 192.104C235.077 192.292 234.903 192.473 234.744 192.654C232.508 195.215 230.403 197.856 228.305 200.547C228.305 200.403 228.305 200.243 228.268 200.099C228.268 199.802 228.203 199.505 228.174 199.209C228.102 198.565 228.015 197.928 227.914 197.284C227.813 196.64 227.733 196.083 227.632 195.483C227.53 194.882 227.35 194.13 227.299 193.45C227.302 193.441 227.303 193.431 227.302 193.422C227.301 193.413 227.297 193.404 227.292 193.396C227.287 193.389 227.28 193.382 227.271 193.378C227.263 193.374 227.254 193.372 227.245 193.372C227.235 193.372 227.226 193.374 227.218 193.378C227.21 193.382 227.202 193.389 227.197 193.396C227.192 193.404 227.188 193.413 227.187 193.422C227.186 193.431 227.187 193.441 227.19 193.45C227.304 194.13 227.381 194.816 227.422 195.504L227.596 197.357C227.646 197.972 227.704 198.587 227.769 199.209L227.856 200.099C227.856 200.243 227.892 200.395 227.914 200.54C227.921 200.666 227.961 200.789 228.03 200.895L226.966 202.284C225.519 204.158 224.159 206.053 222.77 207.942C222.726 208 222.813 208.079 222.856 208.021C224.173 206.307 225.526 204.621 226.894 202.957C227.921 203 228.97 202.921 229.998 202.906C231.025 202.892 232.168 202.906 233.239 202.906C233.254 202.906 233.269 202.9 233.28 202.889C233.291 202.878 233.297 202.864 233.297 202.848C233.297 202.833 233.291 202.818 233.28 202.807C233.269 202.796 233.254 202.79 233.239 202.79C232.154 202.79 231.068 202.826 229.99 202.834C228.912 202.841 228.001 202.79 227.017 202.834C228.218 201.387 229.441 199.94 230.634 198.456L232.052 196.865C232.467 196.919 232.886 196.933 233.304 196.908H234.751C235.67 196.908 236.589 196.908 237.515 196.872C239.418 196.872 241.321 196.778 243.224 196.771C243.232 196.774 243.242 196.775 243.251 196.774C243.26 196.773 243.269 196.769 243.277 196.764C243.285 196.759 243.291 196.751 243.295 196.743C243.299 196.735 243.302 196.726 243.302 196.716C243.302 196.707 243.299 196.698 243.295 196.689C243.291 196.681 243.285 196.674 243.277 196.669C243.269 196.663 243.26 196.66 243.251 196.659C243.242 196.658 243.232 196.659 243.224 196.662C241.314 196.662 239.411 196.554 237.508 196.503C236.582 196.503 235.663 196.452 234.737 196.438H233.29C233.015 196.438 232.725 196.438 232.436 196.438L235.583 192.712C235.608 192.695 235.628 192.673 235.641 192.646C236.661 191.438 237.681 190.237 238.716 189.029C238.861 188.87 239.006 188.711 239.143 188.544C242.037 188.631 244.931 188.443 247.825 188.501C247.934 188.472 247.934 188.356 247.854 188.356Z" fill="#263238"/>
<path d="M246.422 193.312H245.742C245.729 193.312 245.716 193.317 245.706 193.327C245.697 193.336 245.691 193.349 245.691 193.363C245.691 193.376 245.697 193.389 245.706 193.399C245.716 193.408 245.729 193.413 245.742 193.413H246.415C246.424 193.409 246.432 193.402 246.438 193.394C246.444 193.385 246.448 193.375 246.449 193.365C246.449 193.355 246.447 193.344 246.443 193.335C246.438 193.326 246.431 193.318 246.422 193.312Z" fill="#263238"/>
<path d="M244.907 193.319C244.01 193.319 243.113 193.319 242.216 193.261L240.877 193.247C240.461 193.196 240.041 193.196 239.625 193.247C239.614 193.247 239.603 193.252 239.595 193.26C239.587 193.268 239.582 193.279 239.582 193.29C239.582 193.302 239.587 193.313 239.595 193.321C239.603 193.329 239.614 193.334 239.625 193.334C240.04 193.417 240.463 193.446 240.884 193.421H242.23H244.922C244.987 193.435 244.987 193.319 244.907 193.319Z" fill="#263238"/>
<path d="M237.071 201.741C235.247 201.434 233.401 201.267 231.551 201.242V201.278C233.389 201.452 235.219 201.553 237.042 201.85C237.115 201.864 237.144 201.748 237.071 201.741Z" fill="#263238"/>
<path d="M229.57 193.71C229.57 193.551 229.534 193.392 229.513 193.233C229.469 192.871 229.411 192.509 229.353 192.155C229.245 191.467 229.129 190.787 228.999 190.1C228.999 190.042 228.876 190.056 228.883 190.1C228.97 190.823 229.05 191.511 229.115 192.22L229.201 193.261C229.192 193.595 229.238 193.928 229.339 194.246C229.353 194.267 229.374 194.284 229.397 194.295C229.421 194.306 229.448 194.309 229.473 194.305C229.499 194.302 229.523 194.291 229.543 194.274C229.563 194.257 229.577 194.234 229.585 194.209C229.61 194.043 229.605 193.874 229.57 193.71Z" fill="#263238"/>
<path d="M266.286 173.198C265.389 171.534 264.253 169.342 262.025 169.479C260.187 169.595 259.355 171.469 258.964 173.024C257.749 177.821 257.662 182.886 257.43 187.806C256.924 198.203 256.475 208.607 256.41 219.019C256.41 221.913 256.41 224.807 256.41 227.701C256.41 230.646 256.41 233.605 256.613 236.543C256.613 236.6 256.636 236.655 256.676 236.696C256.717 236.737 256.772 236.76 256.83 236.76C256.887 236.76 256.943 236.737 256.983 236.696C257.024 236.655 257.047 236.6 257.047 236.543C257.047 234.025 256.975 231.478 256.967 228.989C256.96 226.5 256.967 224.076 257.011 221.616C257.093 216.643 257.225 211.67 257.409 206.697C257.597 201.755 257.814 196.814 258.024 191.872C258.125 189.405 258.233 186.93 258.342 184.463C258.451 181.996 258.552 179.681 258.827 177.3C258.979 175.962 259.174 174.631 259.456 173.321C259.594 172.344 259.991 171.422 260.607 170.651C261.031 170.231 261.592 169.977 262.188 169.935C262.784 169.892 263.375 170.064 263.855 170.42C264.875 171.155 265.674 172.156 266.163 173.314C266.179 173.33 266.2 173.34 266.222 173.34C266.245 173.341 266.266 173.333 266.283 173.317C266.299 173.302 266.308 173.281 266.309 173.258C266.31 173.236 266.302 173.214 266.286 173.198Z" fill="#263238"/>
<path d="M265.672 172.402C265.672 172.402 263.842 165.934 267.894 169.168C274.637 174.551 274.876 186.265 274.876 186.265C274.876 186.265 262.887 179.305 261.396 174.689C259.175 167.873 265.672 172.402 265.672 172.402Z" fill="#FFC727"/>
<path d="M272.352 181.468C272.243 181.287 272.128 181.113 272.012 180.933C272.026 180.75 272.026 180.566 272.012 180.383C272.012 180.108 272.012 179.826 272.012 179.551C272.012 179.001 272.012 178.451 272.07 177.908C272.07 177.893 272.064 177.878 272.053 177.867C272.042 177.856 272.027 177.85 272.012 177.85C271.997 177.85 271.982 177.856 271.971 177.867C271.96 177.878 271.954 177.893 271.954 177.908C271.954 178.444 271.903 178.986 271.889 179.522C271.889 179.789 271.889 180.057 271.889 180.325C271.889 180.426 271.889 180.549 271.889 180.672C271.419 179.949 270.934 179.225 270.442 178.502C270.297 178.292 270.145 178.089 270 177.887C269.923 177.185 269.911 176.478 269.964 175.774C269.964 175.05 269.964 174.269 270.008 173.516C270.008 173.444 269.892 173.444 269.892 173.516C269.892 174.298 269.834 175.079 269.791 175.861C269.744 176.416 269.729 176.975 269.747 177.532C268.59 175.962 267.36 174.443 266.13 172.93C266.086 172.88 265.999 172.93 266.043 173.003C266.81 173.979 267.548 174.978 268.271 175.991C266.86 175.658 265.428 175.47 263.995 175.267C263.923 175.267 263.894 175.369 263.995 175.383C265.515 175.615 267.005 175.991 268.503 176.324C269.074 177.134 269.646 177.944 270.203 178.762L270.883 179.76H270.825L270.355 179.695L269.357 179.608C268.669 179.551 267.975 179.514 267.28 179.478C267.208 179.478 267.215 179.594 267.28 179.594C267.96 179.594 268.64 179.659 269.313 179.732L270.391 179.862L270.854 179.92H270.992C271.375 180.484 271.766 181.048 272.142 181.613C272.822 182.618 273.43 183.689 274.146 184.651C274.156 184.66 274.167 184.664 274.18 184.665C274.192 184.666 274.204 184.663 274.215 184.657C274.225 184.651 274.233 184.641 274.238 184.63C274.242 184.618 274.243 184.606 274.24 184.594C273.674 183.515 273.044 182.471 272.352 181.468Z" fill="#263238"/>
<path d="M269.374 174.16C269.374 173.907 269.374 173.654 269.374 173.401C269.36 172.872 269.382 172.342 269.439 171.816C269.443 171.807 269.444 171.798 269.443 171.789C269.441 171.78 269.438 171.771 269.433 171.763C269.427 171.755 269.42 171.749 269.412 171.745C269.404 171.74 269.395 171.738 269.385 171.738C269.376 171.738 269.367 171.74 269.358 171.745C269.35 171.749 269.343 171.755 269.338 171.763C269.332 171.771 269.329 171.78 269.328 171.789C269.327 171.798 269.328 171.807 269.331 171.816C269.331 172.344 269.273 172.865 269.244 173.386C269.244 173.654 269.244 173.914 269.244 174.175V174.537C269.226 174.661 269.226 174.788 269.244 174.913C269.244 174.926 269.249 174.939 269.259 174.949C269.268 174.958 269.281 174.964 269.295 174.964C269.308 174.964 269.321 174.958 269.331 174.949C269.34 174.939 269.345 174.926 269.345 174.913C269.364 174.798 269.364 174.681 269.345 174.566L269.374 174.16Z" fill="#263238"/>
<path d="M267.889 176.838C267.441 176.758 266.985 176.736 266.536 176.7C266.088 176.664 265.552 176.613 265.089 176.548C265.074 176.548 265.059 176.554 265.048 176.565C265.037 176.576 265.031 176.591 265.031 176.606C265.031 176.621 265.037 176.636 265.048 176.647C265.059 176.658 265.074 176.664 265.089 176.664C266.037 176.722 266.978 176.895 267.925 176.924C267.933 176.932 267.94 176.845 267.889 176.838Z" fill="#263238"/>
<path d="M271.649 176.874C271.685 176.924 271.649 177.069 271.649 177.127V177.785C271.649 177.937 271.649 178.089 271.649 178.241C271.623 178.37 271.623 178.503 271.649 178.632C271.649 178.632 271.685 178.632 271.692 178.632C271.707 178.57 271.707 178.506 271.692 178.444C271.688 178.374 271.688 178.304 271.692 178.234V177.785C271.692 177.633 271.692 177.481 271.692 177.33V177.127C271.692 177.062 271.692 176.924 271.692 176.874C271.692 176.823 271.576 176.765 271.649 176.874Z" fill="#263238"/>
<path d="M266.559 207.717C264.041 205.829 261.776 203.109 258.383 202.971C255.583 202.863 253.622 204.968 252.5 207.312C251.94 208.563 251.482 209.858 251.133 211.183C250.627 212.949 250.144 214.726 249.686 216.516C248.813 220.032 248.065 223.577 247.443 227.151C247.103 229.141 246.785 231.138 246.531 233.142C246.213 235.174 246.018 237.223 245.945 239.278C245.944 239.357 245.972 239.433 246.024 239.493C246.076 239.552 246.149 239.59 246.227 239.599C246.306 239.608 246.385 239.587 246.449 239.541C246.513 239.495 246.558 239.427 246.575 239.35C246.915 237.671 247.06 235.942 247.298 234.249C247.537 232.556 247.805 230.841 248.087 229.148C248.666 225.772 249.336 222.395 250.098 219.019C250.822 215.843 251.545 212.623 252.551 209.534C253.275 207.32 254.461 204.737 256.856 203.941C260.474 202.732 263.795 205.807 266.457 207.812C266.537 207.848 266.616 207.761 266.559 207.717Z" fill="#263238"/>
<path d="M263.948 205.909C263.948 205.909 261.618 199.274 264.982 197.95C270.047 196.004 283.201 210.85 280.618 233.598C280.618 233.598 270.438 227.991 262.913 221.674C255.388 215.358 253.507 207.117 256.785 204.99C260.062 202.863 263.948 205.909 263.948 205.909Z" fill="#FFC727"/>
<path d="M279.103 228.743C278.753 227.949 278.344 227.183 277.88 226.45C277.446 225.668 277.012 224.894 276.563 224.127C275.688 222.629 274.819 221.132 273.922 219.641L273.481 218.918C273.481 218.831 273.517 218.737 273.531 218.65L273.683 217.992C273.799 217.5 273.886 217 273.973 216.501C274.161 215.532 274.327 214.548 274.588 213.607C274.588 213.542 274.494 213.52 274.479 213.607C274.269 214.577 273.958 215.539 273.676 216.501C273.531 216.971 273.379 217.434 273.256 217.912L273.126 218.397C272.048 216.624 270.956 214.859 269.755 213.151C269.832 212.918 269.874 212.674 269.878 212.428C269.914 212.095 269.95 211.762 269.993 211.429C270.08 210.706 270.167 209.932 270.276 209.186C270.493 207.739 270.71 206.292 271.071 204.845C271.071 204.773 270.977 204.751 270.963 204.845C270.594 206.292 270.203 207.739 269.928 209.186C269.798 209.91 269.668 210.633 269.574 211.357C269.53 211.719 269.487 212.08 269.451 212.442C269.451 212.543 269.451 212.659 269.407 212.768C269.046 212.254 268.684 211.733 268.3 211.234C267.135 209.7 265.927 208.21 264.683 206.719C264.639 206.661 264.538 206.719 264.589 206.784C266.672 209.449 268.586 212.243 270.319 215.148L271.31 216.762L270.977 216.718C270.55 216.66 270.124 216.639 269.697 216.595L267.121 216.371C265.406 216.233 263.684 216.132 261.977 215.951C261.904 215.951 261.883 216.053 261.977 216.06C263.713 216.262 265.435 216.537 267.164 216.783C268.018 216.906 268.865 217.022 269.718 217.131C270.364 217.259 271.021 217.324 271.679 217.326C272.352 218.426 273.032 219.497 273.705 220.611C273.553 220.611 273.394 220.611 273.249 220.611H270.796C269.689 220.611 268.582 220.611 267.483 220.611C267.403 220.611 267.418 220.719 267.483 220.719C268.604 220.719 269.718 220.792 270.84 220.849L272.432 220.944L273.228 221.001C273.466 221.057 273.713 221.057 273.951 221.001L275.673 223.794C276.201 224.655 276.737 225.509 277.279 226.363C277.791 227.268 278.369 228.134 279.008 228.953C279.037 228.852 279.131 228.815 279.103 228.743Z" fill="#263238"/>
<path d="M274.25 210.358C274.149 211.092 273.997 211.817 273.795 212.529C273.606 213.253 273.397 213.976 273.158 214.7C273.154 214.709 273.152 214.719 273.152 214.729C273.153 214.739 273.155 214.749 273.159 214.758C273.163 214.767 273.169 214.775 273.177 214.782C273.185 214.788 273.193 214.793 273.203 214.796C273.212 214.799 273.223 214.8 273.233 214.799C273.243 214.798 273.252 214.795 273.261 214.79C273.27 214.785 273.277 214.778 273.283 214.77C273.289 214.762 273.293 214.753 273.295 214.743C273.52 214.019 273.722 213.296 273.896 212.572C274.069 211.849 274.185 211.125 274.366 210.366C274.367 210.35 274.362 210.335 274.352 210.324C274.342 210.312 274.327 210.305 274.312 210.304C274.297 210.303 274.281 210.308 274.27 210.319C274.258 210.329 274.251 210.343 274.25 210.358Z" fill="#263238"/>
<path d="M266.767 214.801C266.611 214.669 266.414 214.595 266.21 214.591L265.248 214.461C264.655 214.381 264.054 214.316 263.461 214.244C262.216 214.099 260.979 213.976 259.735 213.824C259.662 213.824 259.64 213.925 259.735 213.932C260.907 214.077 262.072 214.258 263.244 214.41L264.958 214.634L265.79 214.721C266.111 214.724 266.429 214.78 266.731 214.888C266.741 214.888 266.751 214.885 266.76 214.879C266.768 214.874 266.775 214.866 266.779 214.856C266.782 214.847 266.783 214.837 266.781 214.827C266.779 214.817 266.774 214.808 266.767 214.801Z" fill="#263238"/>
<path d="M274.233 224.807C273.647 224.757 273.054 224.735 272.468 224.72H271.578H271.151C270.966 224.738 270.779 224.738 270.594 224.72C270.514 224.72 270.507 224.843 270.594 224.829C270.767 224.811 270.941 224.811 271.115 224.829H271.578L272.46 224.887C273.046 224.923 273.64 224.959 274.226 224.959C274.298 224.93 274.305 224.807 274.233 224.807Z" fill="#263238"/>
<path d="M277.82 222.26L278.015 221.262C278.131 220.603 278.254 219.945 278.377 219.294C278.377 219.278 278.371 219.264 278.36 219.253C278.349 219.242 278.334 219.236 278.319 219.236C278.304 219.236 278.289 219.242 278.278 219.253C278.267 219.264 278.261 219.278 278.261 219.294L277.827 221.211C277.755 221.53 277.682 221.848 277.617 222.166C277.617 222.318 277.559 222.463 277.523 222.615C277.477 222.767 277.46 222.927 277.473 223.085C277.474 223.1 277.48 223.114 277.489 223.125C277.499 223.136 277.511 223.144 277.525 223.148C277.539 223.152 277.554 223.151 277.568 223.147C277.582 223.142 277.594 223.133 277.603 223.121C277.729 222.851 277.803 222.558 277.82 222.26Z" fill="#263238"/>
<path d="M243.34 236.731L244.049 244.798L246.458 272.024H267.78L270.79 244.798L271.68 236.731H243.34Z" fill="#37474F"/>
<path d="M243.34 236.731L244.049 244.798H270.79L271.68 236.731H243.34Z" fill="#263238"/>
<path d="M241.227 241.079H273.793V234.539H241.227V241.079Z" fill="#37474F"/>
<path d="M128.004 209.982C128.004 198.406 129.895 188.004 133.677 178.777C137.458 169.549 145.258 161.511 157.075 154.662C160.625 152.534 165 150.123 170.2 147.426C175.551 144.616 180.651 141.353 185.445 137.673C190.345 133.967 194.599 129.476 198.034 124.382C201.497 119.189 203.292 113.063 203.178 106.822C203.282 102.277 202.315 97.7713 200.357 93.6685C198.55 90.0058 196.017 86.749 192.912 84.0963C189.722 81.4384 186.032 79.4479 182.059 78.243C177.986 76.9574 173.74 76.301 169.469 76.2967C164.629 76.2305 159.824 77.1257 155.332 78.9303C151.2 80.6331 147.323 82.8999 143.813 85.6664C140.392 88.3747 137.297 91.4703 134.588 94.8913C132.095 98.001 129.788 101.255 127.679 104.637H122.339L96.8203 83.3655C99.772 76.2126 103.908 69.6084 109.055 63.8304C114.088 58.1967 119.942 53.3548 126.42 49.4684C133.009 45.5508 140.119 42.5839 147.539 40.6559C155.177 38.6385 163.045 37.6243 170.945 37.6388C179.953 37.6439 188.912 38.9575 197.542 41.5386C206.148 44.0714 214.164 48.292 221.122 53.9543C228.31 59.904 234.118 67.3447 238.146 75.7613C242.516 84.6269 244.701 95.2072 244.701 107.502C244.811 114.275 243.916 121.026 242.046 127.537C240.349 133.168 237.772 138.496 234.413 143.324C231.086 148.07 227.153 152.361 222.713 156.087C217.893 160.103 212.797 163.775 207.462 167.077C202.73 169.923 198.003 172.644 193.281 175.239C188.71 177.732 184.378 180.638 180.337 183.921C176.531 187.005 173.29 190.726 170.757 194.918C168.278 199.057 167.038 204.081 167.038 209.989L128.004 209.982ZM128.728 292.601V243.67H168.087V292.601H128.728Z" fill="#FFC727"/>
<g opacity="0.2">
<path d="M128.008 209.982C128.008 198.406 129.899 188.004 133.681 178.776C137.462 169.549 145.262 161.511 157.079 154.661C160.629 152.534 165.004 150.122 170.204 147.426C175.555 144.616 180.655 141.353 185.449 137.673C190.349 133.967 194.603 129.476 198.038 124.382C201.501 119.189 203.296 113.063 203.182 106.822C203.286 102.277 202.319 97.771 200.361 93.6683C198.554 90.0056 196.021 86.7488 192.915 84.0961C189.726 81.4381 186.036 79.4477 182.063 78.2428C177.99 76.9571 173.744 76.3008 169.473 76.2965C164.633 76.2303 159.827 77.1254 155.336 78.9301C151.204 80.6328 147.327 82.8997 143.817 85.6661C140.396 88.3744 137.3 91.47 134.592 94.891C132.099 98.0007 129.792 101.255 127.683 104.637H122.343L96.8242 83.3653C99.7759 76.2124 103.912 69.6082 109.059 63.8302C114.092 58.1964 119.946 53.3546 126.424 49.4682C133.013 45.5505 140.123 42.5837 147.543 40.6557C155.181 38.6383 163.049 37.624 170.949 37.6386C179.957 37.6436 188.916 38.9573 197.546 41.5384C206.152 44.0712 214.168 48.2917 221.126 53.9541C228.313 59.9038 234.122 67.3445 238.15 75.7611C242.52 84.6266 244.705 95.207 244.705 107.502C244.815 114.275 243.92 121.026 242.05 127.536C240.352 133.168 237.776 138.496 234.417 143.324C231.09 148.07 227.157 152.361 222.717 156.087C217.897 160.103 212.8 163.775 207.466 167.077C202.734 169.923 198.007 172.643 193.284 175.238C188.714 177.732 184.381 180.638 180.341 183.921C176.535 187.005 173.294 190.726 170.761 194.918C168.282 199.057 167.042 204.08 167.042 209.989L128.008 209.982ZM128.732 292.601V243.669H168.091V292.601H128.732Z" fill="black"/>
</g>
<path d="M122.694 209.982C122.694 198.406 124.585 188.004 128.366 178.777C132.148 169.549 139.95 161.511 151.772 154.662C155.318 152.534 159.69 150.123 164.89 147.426C170.244 144.618 175.346 141.355 180.142 137.673C185.041 133.966 189.294 129.475 192.731 124.382C196.188 119.187 197.98 113.062 197.868 106.822C197.961 102.288 196.99 97.7952 195.032 93.7046C193.225 90.0419 190.692 86.7851 187.587 84.1324C184.397 81.4745 180.707 79.4841 176.734 78.2791C172.661 76.9935 168.416 76.3372 164.145 76.3328C159.304 76.2526 154.496 77.1356 150 78.9303C145.865 80.6333 141.987 82.9002 138.474 85.6663C135.055 88.3747 131.962 91.4704 129.256 94.8912C126.761 98.0009 124.451 101.255 122.339 104.637L91.4883 83.3655C94.4378 76.2115 98.5742 69.6069 103.723 63.8303C108.754 58.1945 114.608 53.3524 121.088 49.4684C127.675 45.5518 134.783 42.5851 142.2 40.6559C149.845 38.6359 157.721 37.6217 165.628 37.6388C174.635 37.6433 183.595 38.957 192.225 41.5386C200.831 44.0697 208.847 48.2905 215.804 53.9542C222.994 59.9023 228.803 67.3434 232.829 75.7612C237.199 84.6268 239.386 95.2072 239.391 107.502C239.498 114.275 238.601 121.027 236.728 127.537C235.027 133.17 232.443 138.499 229.074 143.324C225.747 148.07 221.814 152.361 217.374 156.087C212.556 160.106 207.46 163.779 202.122 167.077C197.4 169.923 192.673 172.644 187.941 175.239C183.371 177.732 179.038 180.638 174.997 183.921C171.194 187.005 167.956 190.726 165.425 194.918C162.946 199.057 161.704 204.081 161.699 209.989L122.694 209.982ZM123.417 292.601V243.669H162.734V292.601H123.417Z" fill="#FFC727"/>
<path d="M106.478 296.516C104.937 297.008 60.9977 296.443 59.3409 295.358C58.7042 294.953 58.4148 288.55 58.2845 280.794V280.555C58.2845 278.956 58.2339 277.306 58.2267 275.642C58.2267 275.411 58.2267 275.179 58.2267 274.955C58.1688 263.769 58.3424 252.156 58.3424 252.156L87.7392 252.453L86.8493 275.005L86.8131 275.903L86.6322 280.577V281.054C86.6322 281.054 103.338 288.825 105.039 290.199C106.739 291.574 108.02 296.024 106.478 296.516Z" fill="#AD6359"/>
<path d="M106.474 296.516C104.933 297.008 60.9937 296.443 59.3369 295.358C58.7002 294.953 58.4108 288.55 58.2805 280.794V280.555C58.2805 278.956 58.2299 277.306 58.2227 275.642C58.2227 275.411 58.2227 275.179 58.2227 274.955L86.8525 275.034L86.8163 275.931L86.6354 280.605V281.083C86.6354 281.083 103.334 288.825 105.035 290.199C106.735 291.574 108.016 296.024 106.474 296.516Z" fill="#EBEBEB"/>
<path d="M106.472 296.516C105.524 296.819 88.4995 296.718 75.1722 296.342C66.8517 296.118 59.9782 295.77 59.3343 295.358C58.6903 294.945 58.4154 288.73 58.2852 281.119C58.2852 281.01 58.2852 280.902 58.2852 280.793C58.2852 280.685 58.2852 280.627 58.2852 280.547L86.6401 280.605V281.083C86.6401 281.083 103.368 288.824 105.061 290.206C106.754 291.588 108.013 296.024 106.472 296.516Z" fill="#FFC727"/>
<path d="M106.005 294.801C98.5963 294.526 68.7075 294.077 61.3637 294.389C61.3058 294.389 61.3058 294.432 61.3637 294.439C68.7003 294.873 98.589 295.054 105.998 294.924C106.157 294.924 106.157 294.808 106.005 294.801Z" fill="#263238"/>
<path d="M89.7837 280.721C86.8896 280.142 83.3081 280.54 81.0507 282.588C80.9639 282.668 81.0507 282.791 81.1737 282.762C83.9716 281.902 86.8529 281.341 89.7692 281.09C89.8123 281.084 89.8518 281.062 89.8808 281.03C89.9099 280.997 89.9267 280.955 89.9284 280.912C89.9301 280.868 89.9166 280.825 89.8902 280.79C89.8638 280.756 89.8261 280.731 89.7837 280.721Z" fill="#263238"/>
<path d="M91.8735 282.016C88.9794 281.437 85.398 281.835 83.1406 283.883C83.0538 283.962 83.1406 284.085 83.2636 284.057C86.0519 283.198 88.9235 282.638 91.8301 282.385C91.8748 282.383 91.9174 282.366 91.9503 282.335C91.9831 282.305 92.004 282.264 92.0092 282.219C92.0145 282.175 92.0037 282.13 91.9788 282.093C91.9539 282.055 91.9166 282.028 91.8735 282.016Z" fill="#263238"/>
<path d="M93.9634 283.311C91.0693 282.733 87.4878 283.13 85.2304 285.178C85.1436 285.258 85.2304 285.381 85.3534 285.352C88.1516 284.494 91.0329 283.936 93.9489 283.688C93.9988 283.689 94.0474 283.671 94.084 283.638C94.1207 283.604 94.1423 283.557 94.1442 283.507C94.1462 283.457 94.1282 283.408 94.0943 283.372C94.0603 283.335 94.0133 283.313 93.9634 283.311Z" fill="#263238"/>
<path d="M93.6572 274.412C92.5285 272.82 90.3868 273.508 89.1568 274.513C87.0771 276.28 85.4999 278.563 84.5842 281.134C84.5794 281.145 84.5774 281.156 84.5784 281.168C84.5793 281.18 84.5832 281.192 84.5896 281.202C84.5961 281.212 84.6049 281.22 84.6153 281.226C84.6257 281.232 84.6374 281.235 84.6493 281.235C84.6493 281.459 84.8519 281.698 85.1051 281.604C87.5217 280.743 90.2132 280.157 92.2969 278.551C93.5125 277.632 94.7207 275.924 93.6572 274.412ZM88.4984 279.549C87.3191 280.005 86.1253 280.396 84.9676 280.888C85.8648 279.6 86.6969 278.283 87.7243 277.082C88.2113 276.501 88.7332 275.95 89.2871 275.432C90.1698 274.658 93.6282 273.023 93.0639 276.214C92.76 277.972 89.9093 279.014 88.4984 279.549Z" fill="#263238"/>
<path d="M77.1863 280.273C79.5739 281.329 82.3378 281.314 84.8918 281.597C85.1523 281.597 85.2898 281.343 85.2464 281.126C85.2576 281.123 85.2679 281.116 85.2764 281.108C85.2849 281.1 85.2915 281.09 85.2957 281.079C85.2998 281.068 85.3014 281.056 85.3004 281.044C85.2994 281.032 85.2958 281.021 85.2898 281.011C83.8019 278.723 81.7416 276.865 79.3135 275.62C77.8664 274.897 75.638 274.752 74.9144 276.561C74.1909 278.37 75.7899 279.658 77.1863 280.273ZM75.8984 278.174C74.625 275.201 78.3656 276.004 79.3931 276.554C80.0567 276.922 80.6927 277.338 81.2959 277.798C82.5352 278.758 83.7234 279.782 84.8557 280.866C83.6112 280.649 82.3595 280.548 81.1078 280.374C79.6173 280.179 76.6364 279.817 75.9129 278.174H75.8984Z" fill="#263238"/>
<path d="M75.1917 296.342C66.8712 296.118 59.9977 295.77 59.3538 295.358C58.7099 294.946 58.4349 288.73 58.3047 281.119C61.7053 284.165 70.1849 291.726 75.1917 296.342Z" fill="#263238"/>
<path d="M49.3164 125.583C49.3164 125.583 55.9149 199.831 56.9858 205.496C57.239 206.791 57.3909 213.81 57.4922 222.825C57.7165 242.512 57.5863 278.008 57.5863 278.008H88.5603C88.5603 278.008 87.6415 216.508 86.2668 205.185C84.8921 193.862 76.1374 125.597 76.1374 125.597L49.3164 125.583Z" fill="#37474F"/>
<path d="M87.156 272.61C82.3228 272.509 83.712 272.473 78.8789 272.422C76.513 272.422 60.9717 272.27 58.7577 272.632C58.7442 272.632 58.7314 272.637 58.7219 272.647C58.7124 272.656 58.707 272.669 58.707 272.683C58.707 272.696 58.7124 272.709 58.7219 272.719C58.7314 272.728 58.7442 272.733 58.7577 272.733C60.9717 273.095 76.513 272.965 78.8789 272.936C83.712 272.893 82.3228 272.856 87.156 272.755C87.1752 272.755 87.1936 272.747 87.2072 272.734C87.2207 272.72 87.2283 272.702 87.2283 272.683C87.2283 272.664 87.2207 272.645 87.2072 272.632C87.1936 272.618 87.1752 272.61 87.156 272.61Z" fill="#263238"/>
<path d="M63.4726 237.454C63.434 232.959 63.4002 228.466 63.3713 223.975C63.3713 219.634 63.3713 215.293 63.1397 210.952C62.7201 202.146 60.9692 193.493 59.6668 184.789C58.3645 176.085 57.3371 167.345 56.3748 158.598C55.2967 148.787 54.3489 138.954 53.3432 129.136C53.3432 129.071 53.2275 129.071 53.2347 129.136C54.6817 146.674 56.3241 164.205 58.748 181.635C59.3557 185.976 60.0165 190.302 60.7304 194.615C61.4539 198.956 62.1775 203.355 62.5175 207.775C62.8576 212.196 62.9082 216.458 62.9516 220.799C63.0047 225.294 63.0505 229.785 63.0891 234.271C63.1832 244.241 63.2772 259.594 63.3785 269.564C63.386 269.598 63.4048 269.628 63.4318 269.65C63.4587 269.672 63.4923 269.683 63.5268 269.683C63.5614 269.683 63.5949 269.672 63.6219 269.65C63.6489 269.628 63.6677 269.598 63.6752 269.564C63.6173 260.622 63.5377 246.347 63.4726 237.454Z" fill="#263238"/>
<path d="M42.7852 125.583C42.7852 125.583 55.9171 199.831 56.9879 205.496C57.2412 206.791 57.3931 213.81 57.4944 222.825L72.2977 125.583H42.7852Z" fill="#263238"/>
<path d="M70.51 299.135C68.9399 299.518 25.145 295.836 23.5677 294.642C22.96 294.193 23.1264 287.783 23.5677 280.041C23.5677 279.961 23.5677 279.875 23.5677 279.795C23.6546 278.203 23.7486 276.561 23.8644 274.897L23.9078 274.173C24.6313 263.009 25.637 251.44 25.637 251.44L54.9325 253.857L52.4508 276.286L52.3568 277.176L51.8503 281.828L51.7996 282.306C51.7996 282.306 67.927 291.212 69.526 292.71C71.125 294.208 72.08 298.751 70.51 299.135Z" fill="#AD6359"/>
<path d="M70.51 299.135C68.9399 299.518 25.145 295.836 23.5677 294.642C22.96 294.193 23.1264 287.783 23.5677 280.041C23.5677 279.962 23.5677 279.875 23.5677 279.795C23.6546 278.203 23.7486 276.561 23.8644 274.897L23.9078 274.173L52.4508 276.279L52.3568 277.169L51.8503 281.821L51.7996 282.299C51.7996 282.299 67.927 291.205 69.526 292.703C71.125 294.2 72.08 298.751 70.51 299.135Z" fill="#EBEBEB"/>
<path d="M70.51 299.135C68.9399 299.518 25.145 295.836 23.5677 294.642C22.96 294.193 23.1264 287.783 23.5677 280.041C23.5677 279.961 23.5677 279.875 23.5677 279.795L51.8503 281.857L51.7996 282.335C51.7996 282.335 67.927 291.241 69.526 292.739C71.125 294.237 72.08 298.751 70.51 299.135Z" fill="#FFC727"/>
<path d="M70.1249 297.391C62.7595 296.588 32.972 294.056 25.6282 293.817C25.5703 293.817 25.5631 293.86 25.6282 293.868C32.9068 294.823 62.716 297.116 70.1177 297.485C70.2986 297.521 70.313 297.435 70.1249 297.391Z" fill="#263238"/>
<path d="M54.9738 282.197C52.0797 281.416 48.5272 281.56 46.1324 283.442C46.0383 283.514 46.1324 283.651 46.2409 283.63C49.0886 282.965 51.9994 282.609 54.9232 282.566C54.9685 282.566 55.0121 282.549 55.0462 282.519C55.0802 282.49 55.1024 282.448 55.1085 282.404C55.1147 282.359 55.1045 282.313 55.0797 282.275C55.055 282.237 55.0174 282.21 54.9738 282.197Z" fill="#263238"/>
<path d="M56.974 283.637C54.0799 282.855 50.5201 283 48.1253 284.881C48.0385 284.954 48.1253 285.091 48.2338 285.069C51.0816 284.406 53.9923 284.049 56.9161 284.006C56.9621 284.008 57.007 283.992 57.0425 283.963C57.0779 283.934 57.1014 283.892 57.1086 283.847C57.1157 283.802 57.1059 283.755 57.0811 283.716C57.0563 283.678 57.0182 283.649 56.974 283.637Z" fill="#263238"/>
<path d="M58.9621 285.077C56.068 284.295 52.5083 284.44 50.1134 286.321C50.0266 286.394 50.1134 286.531 50.2292 286.509C53.0768 285.845 55.9876 285.488 58.9115 285.446C58.9567 285.446 59.0004 285.429 59.0345 285.399C59.0685 285.369 59.0907 285.328 59.0968 285.283C59.103 285.238 59.0927 285.193 59.068 285.155C59.0432 285.117 59.0056 285.089 58.9621 285.077Z" fill="#263238"/>
<path d="M59.2687 276.185C58.263 274.513 56.0779 275.042 54.7756 275.96C52.5628 277.57 50.8154 279.737 49.7109 282.241C49.7109 282.298 49.7109 282.335 49.7688 282.349C49.7621 282.406 49.7688 282.463 49.7884 282.516C49.808 282.569 49.8398 282.618 49.8814 282.656C49.923 282.695 49.9731 282.723 50.0277 282.739C50.0823 282.755 50.1399 282.758 50.1957 282.747C52.6629 282.06 55.3978 281.633 57.5829 280.207C58.9142 279.346 60.2382 277.762 59.2687 276.185ZM53.7627 280.938C52.5544 281.307 51.3389 281.611 50.1451 282.024C51.0885 280.767 52.0955 279.56 53.1621 278.406C53.6864 277.857 54.2472 277.345 54.8407 276.872C55.7741 276.148 59.3338 274.767 58.5524 277.914C58.14 279.665 55.217 280.504 53.7771 280.938H53.7627Z" fill="#263238"/>
<path d="M42.4436 280.859C44.7517 282.081 47.5083 282.262 50.0334 282.718C50.2939 282.769 50.4531 282.501 50.4241 282.284C50.4354 282.28 50.4456 282.274 50.4541 282.266C50.4627 282.257 50.4693 282.247 50.4734 282.236C50.4776 282.225 50.4792 282.213 50.4782 282.202C50.4772 282.19 50.4735 282.178 50.4675 282.168C49.1501 279.781 47.2258 277.785 44.8892 276.38C43.5145 275.577 41.2715 275.251 40.4395 277.002C39.6074 278.753 41.0979 280.142 42.4436 280.859ZM41.3077 278.688C40.2441 275.627 43.9196 276.691 44.9253 277.313C45.5588 277.733 46.1631 278.194 46.7341 278.695C47.9029 279.741 49.0162 280.847 50.0696 282.009C48.8396 281.705 47.6024 281.51 46.3652 281.285C44.8747 280.931 41.9082 280.367 41.3077 278.673V278.688Z" fill="#263238"/>
<path d="M53.1014 279.679L22.1562 278.37C22.1562 278.37 30.607 210.46 30.7589 206.27C31.1641 195.418 38.3632 125.532 38.3632 125.532H76.1601C76.1601 125.532 73.7725 141.674 69.699 151.905C66.9571 152.864 64.3099 154.075 61.7909 155.522C61.7909 155.522 58.2456 201.748 58.1154 207.515C57.826 218.932 53.1014 279.679 53.1014 279.679Z" fill="#37474F"/>
<path d="M52.2785 274.007C47.4598 273.703 48.849 273.725 44.0158 273.471C41.6571 273.348 26.1303 272.56 23.9091 272.827C23.8584 272.827 23.8584 272.914 23.9091 272.929C26.0797 273.385 41.6427 273.913 44.0013 273.985C48.8345 274.144 47.4525 274.05 52.2857 274.151C52.3049 274.151 52.3229 274.142 52.3358 274.128C52.3487 274.113 52.3554 274.095 52.3544 274.075C52.3535 274.056 52.3449 274.038 52.3307 274.025C52.3164 274.013 52.2976 274.006 52.2785 274.007Z" fill="#263238"/>
<path d="M41.1322 129.7C39.7286 147.303 38.2888 164.914 36.6753 182.517C35.0619 200.121 33.1735 217.796 30.8871 235.371C29.6065 245.174 28.1594 259.001 26.6328 268.783C26.6328 268.848 26.7196 268.877 26.7341 268.783C29.8525 251.418 32.1461 229.828 34.0923 212.283C36.0386 194.738 37.6376 177.141 39.063 159.545C39.8661 149.59 40.5896 139.627 41.3565 129.671C41.3638 129.577 41.1829 129.577 41.1322 129.7Z" fill="#263238"/>
<path d="M71.0445 151.225C67.839 152.399 64.7425 153.851 61.7907 155.566C61.7657 155.577 61.7464 155.598 61.7369 155.624C61.7274 155.65 61.7285 155.678 61.74 155.703C61.7515 155.728 61.7725 155.748 61.7982 155.757C61.824 155.767 61.8525 155.765 61.8775 155.754C64.9959 154.415 68.1721 153.135 71.2109 151.623C71.2637 151.601 71.3055 151.558 71.3273 151.506C71.349 151.453 71.3488 151.393 71.3267 151.34C71.3046 151.288 71.2625 151.246 71.2096 151.224C71.1567 151.202 71.0973 151.203 71.0445 151.225Z" fill="#263238"/>
<path d="M72.0366 129.83C72.0366 129.722 71.8412 129.7 71.8412 129.83C71.8412 133.527 71.6314 136.783 71.3203 140.249C71.1756 141.855 69.8732 150.726 67.0949 150.082C66.6318 149.973 66.3714 149.51 66.3207 148.808C66.326 147.889 66.45 146.975 66.6897 146.088C66.9936 144.228 67.2468 142.369 67.4133 140.488C67.7365 136.994 67.6977 133.475 67.2975 129.989C67.2919 129.97 67.28 129.952 67.2637 129.94C67.2474 129.928 67.2275 129.921 67.207 129.921C67.1866 129.921 67.1667 129.928 67.1504 129.94C67.1341 129.952 67.1222 129.97 67.1166 129.989C67.199 134.827 66.916 139.665 66.2701 144.46C65.9228 146.768 64.7579 150.248 67.1745 150.595C69.5911 150.943 71.2262 145.14 71.5156 143.548C72.2835 139.017 72.4586 134.406 72.0366 129.83Z" fill="#263238"/>
<path d="M67.1687 150.306C66.9183 150.903 66.7104 151.517 66.5465 152.144C66.3638 152.626 66.2754 153.14 66.286 153.656C66.286 153.757 66.4235 153.764 66.4741 153.699C66.7619 153.252 66.9813 152.764 67.1253 152.252C67.3351 151.681 67.5594 151.116 67.7548 150.537C67.7855 150.46 67.784 150.373 67.7508 150.296C67.7175 150.22 67.6552 150.159 67.5775 150.129C67.4998 150.098 67.4131 150.099 67.3364 150.133C67.2597 150.166 67.1994 150.228 67.1687 150.306Z" fill="#263238"/>
<path d="M54.566 132.731C54.5749 132.345 54.536 131.958 54.4503 131.581C54.4448 131.57 54.4365 131.562 54.4263 131.555C54.4161 131.549 54.4044 131.546 54.3924 131.546C54.3804 131.546 54.3687 131.549 54.3585 131.555C54.3483 131.562 54.34 131.57 54.3345 131.581C54.2581 131.909 54.2144 132.243 54.2043 132.58C54.2043 132.963 54.1175 133.303 54.0741 133.723C53.9937 134.505 53.8583 135.281 53.6689 136.045C53.3167 137.487 52.5818 138.807 51.5417 139.865C50.5045 140.886 49.2748 141.69 47.9241 142.231C46.4292 142.761 44.9048 143.203 43.3587 143.555C43.3433 143.555 43.3286 143.561 43.3177 143.572C43.3069 143.583 43.3008 143.598 43.3008 143.613C43.3008 143.629 43.3069 143.643 43.3177 143.654C43.3286 143.665 43.3433 143.671 43.3587 143.671C45.0706 143.668 46.7658 143.334 48.351 142.687C49.7562 142.16 51.0354 141.344 52.1061 140.292C53.1749 139.206 53.9256 137.847 54.2766 136.364C54.4538 135.599 54.5556 134.818 54.5805 134.034C54.601 133.6 54.5962 133.165 54.566 132.731Z" fill="#263238"/>
<path d="M91.5526 61.9853C93.8823 64.7998 96.4147 72.404 96.3206 74.4806C96.2265 76.5571 83.4274 81.2744 81.6186 80.1457C79.8098 79.017 72.6903 68.9601 72.6252 65.2339C72.5601 61.5078 89.136 59.0767 91.5526 61.9853Z" fill="#AD6359"/>
<path d="M72.2951 56.8193C71.123 55.5966 67.3318 51.9428 65.646 53.5924C64.5896 54.6198 67.1364 57.4343 68.2072 58.5486C70.414 60.8349 72.1215 64.8794 72.9174 66.8546C73.7133 68.8298 77.4394 64.93 77.4394 64.93C77.4394 64.93 75.3557 59.9956 72.2951 56.8193Z" fill="#AD6359"/>
<path d="M75.4057 69.0613C75.4057 69.0613 76.7153 72.5777 78.8497 72.4981C80.9841 72.4185 80.4414 69.3942 80.4125 69.1771C80.4776 69.3652 81.7655 72.5632 83.9071 72.2665C86.0488 71.9699 85.1371 68.9962 85.072 68.8081C85.1878 68.96 86.8374 70.9787 88.4075 70.3781C91.1134 69.3507 87.0545 64.0907 87.4452 61.7827C87.4452 61.7827 91.439 62.007 91.5548 61.9853C91.5548 61.9853 87.7925 56.9206 84.6451 56.5444C84.1871 56.4809 83.7212 56.5772 83.3258 56.8171C82.9305 57.0569 82.6299 57.4256 82.4746 57.8612C82.4746 57.8612 81.4399 56.0885 79.7469 56.2694C78.8786 56.3635 78.2564 57.8395 78.2564 57.8395C78.0026 57.4499 77.6458 57.1382 77.2256 56.939C76.8054 56.7397 76.3383 56.6608 75.876 56.7108C74.6822 56.9061 74.0889 58.3966 74.0238 58.9754C73.5173 63.4034 75.4057 69.0613 75.4057 69.0613Z" fill="#AD6359"/>
<path d="M74.1676 58.5703C74.1676 58.5703 74.1169 58.5703 74.1097 58.5703C73.4573 62.1663 73.914 65.8757 75.4193 69.2061C75.4699 69.3074 75.658 69.2712 75.6218 69.1482C74.629 65.7109 74.1392 62.148 74.1676 58.5703Z" fill="#263238"/>
<path d="M78.2479 57.7889C78.2479 57.7455 78.1828 57.7455 78.1756 57.7889C77.501 61.7598 78.271 65.8409 80.3461 69.2929C80.4257 69.4159 80.6138 69.4449 80.5343 69.2929C79.2102 66.8908 78.1756 61.1388 78.2479 57.7889Z" fill="#263238"/>
<path d="M85.3227 68.9962C83.3402 65.5957 82.6384 61.9057 82.472 58.0059C82.472 57.9553 82.3997 57.9625 82.3852 58.0059C81.9511 59.9377 82.3201 62.4049 82.7687 64.3078C83.1529 66.0779 83.9934 67.7166 85.2069 69.0614C85.2431 69.1192 85.3227 69.0686 85.3227 68.9962Z" fill="#263238"/>
<path d="M75.4102 69.0614C75.725 69.7111 76.0979 70.3311 76.5244 70.9136C76.9161 71.4971 77.4553 71.9664 78.0872 72.2738C78.3876 72.3892 78.7201 72.3892 79.0205 72.2738C79.3278 72.1639 79.6018 71.9771 79.8164 71.7312C80.0061 71.4677 80.1389 71.1675 80.2061 70.8499C80.2734 70.5322 80.2737 70.204 80.2071 69.8862L79.9394 68.3234L80.7353 69.6981C81.0832 70.3127 81.5278 70.8673 82.0521 71.3405C82.2811 71.5729 82.557 71.7538 82.8614 71.8711C83.1659 71.9883 83.4918 72.0393 83.8175 72.0206C84.1209 72.0023 84.4088 71.8801 84.6328 71.6745C84.8568 71.469 85.0032 71.1927 85.0475 70.8919C85.1315 70.2156 85.0444 69.529 84.7943 68.895L84.1503 67.1296L85.3297 68.5766C85.6578 68.9807 86.0345 69.3427 86.4511 69.6547C86.8378 69.9607 87.3056 70.1469 87.7969 70.1901C88.0184 70.2002 88.2385 70.1488 88.4326 70.0415C88.6267 69.9342 88.7873 69.7753 88.8966 69.5823C89.0672 69.1196 89.1048 68.6183 89.0052 68.1353C88.7978 67.0676 88.5075 66.0177 88.1369 64.9952C87.9633 64.4743 87.7897 63.9461 87.6449 63.4107C87.4675 62.885 87.4034 62.3277 87.4568 61.7755C87.4665 62.3223 87.5794 62.8624 87.7897 63.3673C87.9778 63.881 88.1876 64.3874 88.3974 64.9011C88.8463 65.9245 89.1975 66.988 89.4465 68.0774C89.5954 68.6627 89.5702 69.2788 89.3742 69.85C89.2328 70.1497 89.0066 70.4012 88.7237 70.5735C88.4408 70.7459 88.1135 70.8314 87.7824 70.8196C87.171 70.7851 86.5838 70.5684 86.0966 70.1973C85.6257 69.8602 85.2002 69.4638 84.8304 69.018L85.3658 68.6996C85.6778 69.4416 85.7901 70.2523 85.6914 71.0511C85.6253 71.4956 85.405 71.9028 85.0692 72.2015C84.7344 72.4801 84.3234 72.6515 83.8899 72.6935C83.4761 72.719 83.0618 72.6553 82.6748 72.5067C82.2879 72.3582 81.9373 72.1283 81.6469 71.8325C81.065 71.3108 80.5758 70.6944 80.1999 70.0092L80.7281 69.8211C80.7958 70.2178 80.7765 70.6245 80.6715 71.013C80.5666 71.4015 80.3785 71.7626 80.1203 72.0713C79.8415 72.362 79.4927 72.5763 79.1074 72.6935C78.715 72.8146 78.2914 72.7836 77.9208 72.6067C77.2554 72.2428 76.7062 71.6986 76.3363 71.0366C75.9538 70.4154 75.6431 69.7527 75.4102 69.0614Z" fill="#263238"/>
<path d="M80.1091 78.6481C80.1091 78.6481 66.3115 71.5937 71.7162 67.5564C73.3152 66.3554 81.3391 63.3383 81.9758 64.9373C82.8006 66.9993 79.6822 68.8877 77.5406 69.756C77.5406 69.756 82.5691 71.4996 82.4027 75.356C82.3608 76.0628 82.1245 76.7443 81.7198 77.3252C81.315 77.9062 80.7576 78.364 80.1091 78.6481Z" fill="#AD6359"/>
<path d="M71.293 67.9181C71.8624 67.3705 72.5112 66.9119 73.2175 66.5579C73.9193 66.1839 74.6443 65.8553 75.3881 65.5739C76.8655 64.9936 78.3907 64.5433 79.9463 64.2282C80.36 64.1414 80.7843 64.117 81.2052 64.1558C81.4599 64.1715 81.7075 64.2458 81.9288 64.3729C82.0437 64.4395 82.1464 64.5251 82.2326 64.6261C82.3179 64.7267 82.3841 64.8419 82.428 64.9662C82.5944 65.4118 82.5944 65.9025 82.428 66.3481C82.2755 66.7546 82.0499 67.1298 81.7624 67.4551C81.2172 68.0719 80.5683 68.5886 79.845 68.9817C79.1492 69.3799 78.4235 69.7234 77.6744 70.0091V69.4954C78.2413 69.7168 78.7863 69.9905 79.3024 70.313C79.8214 70.6259 80.3064 70.992 80.7494 71.4055C81.186 71.8305 81.5567 72.3182 81.8492 72.8526C82.1453 73.373 82.3393 73.9452 82.4208 74.5384C82.2676 73.9743 82.0232 73.4391 81.6972 72.9539C81.3644 72.4839 80.9702 72.0605 80.5251 71.6949C80.0784 71.3216 79.5933 70.9966 79.0781 70.7254C78.5774 70.4496 78.0517 70.2218 77.508 70.0453L76.8352 69.8355L77.4863 69.5316C78.1919 69.226 78.8759 68.873 79.5339 68.4753C80.184 68.1001 80.7701 67.6239 81.2704 67.0644C81.51 66.8326 81.6863 66.5434 81.7825 66.2243C81.8788 65.9051 81.8918 65.5667 81.8202 65.2411C81.6611 64.7346 80.8001 64.7563 80.0693 64.8649C79.3386 64.9734 78.5644 65.1687 77.8047 65.3569C77.045 65.545 76.2998 65.7548 75.5545 65.9936C74.0429 66.4104 72.6052 67.0596 71.293 67.9181Z" fill="#263238"/>
<path d="M64.2267 88.6327C76.4253 103.689 94.1589 113.442 98.5362 110.266C102.914 107.09 88.1609 90.4632 87.9076 90.2172C87.0466 89.3924 80.5205 85.9991 68.6691 81.0068C57.0421 76.1085 58.7786 81.9112 64.2267 88.6327Z" fill="#AD6359"/>
<path d="M82.4235 86.889L73.2348 98.9719C73.2348 98.9719 65.522 91.0131 61.4413 85.7458C57.3607 80.4786 57.7658 76.3834 66.8967 79.784C72.2418 81.7628 77.4319 84.1377 82.4235 86.889Z" fill="#FFC727"/>
<path d="M72.3612 96.2008C73.4826 94.5512 74.6548 92.9305 75.8558 91.346C76.4563 90.5646 77.0351 89.7687 77.6501 88.9945C78.2651 88.2204 78.967 87.4462 79.5964 86.6503C79.6398 86.5924 79.7267 86.6503 79.6833 86.7082C79.1044 87.5041 78.5835 88.3361 78.0047 89.132C77.4259 89.9279 76.7892 90.7527 76.1742 91.5631C74.9635 93.1548 73.7166 94.7176 72.4335 96.2515C72.3974 96.2949 72.2961 96.2515 72.3612 96.2008Z" fill="#263238"/>
<path d="M77.6319 93.1693L73.2329 98.9575C73.2329 98.9575 65.5201 90.9987 61.4394 85.7315L61.0487 85.2178L60.8823 84.979L60.6291 84.61C60.412 84.2917 60.2167 83.9805 60.043 83.6766C59.9779 83.5681 59.92 83.4596 59.8621 83.3511C59.5604 82.8019 59.3178 82.2223 59.1386 81.6218C59.0853 81.4366 59.0443 81.2481 59.0156 81.0575C59.0156 80.9634 59.0156 80.8766 59.0156 80.7898C63.0239 83.5681 72.4298 89.653 77.6319 93.1693Z" fill="#263238"/>
<path d="M78.0071 132.999C78.0071 132.999 36.1368 133.723 35.8908 133.462C35.2396 132.739 43.6976 89.624 52.445 80.7391C55.5345 77.599 61.9087 78.8796 62.9723 79.3933C65.425 80.5799 67.7331 83.1412 69.6649 87.8875C73.5285 97.3801 78.5353 132.319 78.0071 132.999Z" fill="#FFC727"/>
<path opacity="0.1" d="M65.0603 80.8114H52.377L52.4421 80.7391C52.7372 80.4406 53.0648 80.176 53.4188 79.9504H63.9461C64.3402 80.2068 64.7128 80.4947 65.0603 80.8114ZM66.4567 82.2585H51.1831C50.9806 82.5262 50.7852 82.8156 50.5898 83.1195H67.1224C66.9126 82.8156 66.6955 82.5479 66.5074 82.2585H66.4567ZM68.034 84.5665H49.7144C49.5552 84.8487 49.396 85.1381 49.2441 85.4348H68.526C68.3741 85.1381 68.2149 84.8415 68.0485 84.5665H68.034ZM69.2134 86.8818H48.5133L48.1009 87.7428H69.5968C69.4811 87.4461 69.3581 87.1567 69.2278 86.889L69.2134 86.8818ZM70.1322 89.1898H47.4642L47.0952 90.0508H70.4289C70.3348 89.7831 70.2408 89.4648 70.125 89.1898H70.1322ZM70.8557 91.4979H46.5092C46.4006 91.7873 46.2849 92.0695 46.1691 92.3661H71.109L70.8557 91.4979ZM71.478 93.8059H45.6337C45.5324 94.0953 45.4239 94.3775 45.3226 94.6741H71.7095C71.6179 94.3799 71.5455 94.0905 71.4925 93.8059H71.478ZM72.0423 96.1212H44.8017C44.7004 96.4034 44.6063 96.6928 44.5122 96.9822H72.2377L72.0423 96.1212ZM72.5633 98.4292H44.0781C43.9841 98.7114 43.8973 99.0008 43.8032 99.2902H72.802C72.7007 99.0008 72.6429 98.7114 72.5777 98.4654L72.5633 98.4292ZM73.0553 100.737H43.3546C43.2605 101.019 43.1737 101.309 43.0869 101.606H73.2868C73.1927 101.316 73.1349 101.027 73.0697 100.737H73.0553ZM73.5256 103.045H42.6311C42.5443 103.335 42.4574 103.624 42.3779 103.914H73.7426L73.5256 103.045ZM73.9741 105.361H41.951C41.8641 105.65 41.7846 105.932 41.705 106.222H74.1478C74.0971 105.932 74.0465 105.643 73.9886 105.361H73.9741ZM74.401 107.669H41.307C41.2274 107.958 41.1479 108.247 41.0755 108.53H74.5747C74.524 108.24 74.4661 107.958 74.4155 107.669H74.401ZM74.8134 109.977H40.692C40.6125 110.266 40.5401 110.556 40.4677 110.845H74.9798C74.9364 110.556 74.8858 110.266 74.8279 109.977H74.8134ZM75.2258 112.292H40.0915C40.0264 112.581 39.954 112.864 39.8817 113.153H75.3778C75.3344 112.871 75.2837 112.581 75.2403 112.292H75.2258ZM75.6021 114.6H39.5199C39.4548 114.889 39.3825 115.179 39.3173 115.461H75.7612C75.7178 115.179 75.6672 114.889 75.6165 114.6H75.6021ZM75.9783 116.908H38.9701C38.9049 117.205 38.8398 117.494 38.7675 117.776H76.1302C76.0868 117.487 76.0434 117.205 75.9928 116.908H75.9783ZM76.3473 119.216H38.4419C38.3768 119.505 38.3116 119.802 38.2465 120.084H76.4848C76.4414 119.802 76.3979 119.513 76.3618 119.216H76.3473ZM76.6874 121.531H37.9282C37.8703 121.821 37.8052 122.11 37.7473 122.392H76.8176L76.6874 121.531ZM77.0202 123.839H37.4362C37.3783 124.136 37.3204 124.418 37.2625 124.7H77.1576C77.1142 124.418 77.0781 124.129 77.0346 123.839H77.0202ZM77.3385 126.147H36.9804C36.9128 126.447 36.8549 126.736 36.8067 127.016H77.4688C77.4326 126.734 77.3602 126.444 77.3602 126.147H77.3385ZM77.6279 128.455H36.539C36.4811 128.759 36.4305 129.049 36.3798 129.324H77.7509C77.722 129.049 77.6858 128.759 77.6424 128.455H77.6279ZM77.8956 130.771H36.1194C36.0687 131.082 36.0325 131.371 35.9891 131.632H77.9535C77.968 131.379 77.939 131.089 77.9101 130.771H77.8956ZM35.8444 133.079C35.8123 133.205 35.8123 133.336 35.8444 133.462C36.0398 133.658 62.0071 133.26 73.0697 133.079H35.8444Z" fill="#030402"/>
<path d="M54.83 85.9628C52.0083 89.8337 37.5378 105.831 37.0024 107.314C36.467 108.797 39.8169 112.075 39.759 112.69C39.5419 115.193 34.1372 131.849 31.9739 130.156C29.1232 127.927 17.0548 111.966 18.7623 105.057C20.4699 98.147 48.6511 81.5565 53.1225 80.1167C57.5939 78.6769 57.6156 82.1426 54.83 85.9628Z" fill="#AD6359"/>
<path d="M43.4614 100.528L35.2422 88.9873C35.2422 88.9873 44.4382 82.9531 50.5881 80.3774C56.7381 77.8016 59.7696 79.2342 54.1479 87.1857C50.8616 91.8471 47.2928 96.3027 43.4614 100.528Z" fill="#FFC727"/>
<path d="M37.6723 88.2347C38.9747 89.7445 40.2408 91.288 41.4708 92.8653C42.0786 93.6395 42.6936 94.4064 43.2796 95.195C43.8657 95.9837 44.4445 96.8664 45.0595 97.6767C45.1029 97.7346 45.0161 97.807 44.9727 97.7491C44.3505 97.0255 43.6848 96.302 43.0626 95.5062C42.4404 94.7103 41.8037 93.9144 41.1814 93.1185C39.9514 91.5412 38.7576 89.9278 37.6072 88.2926C37.5638 88.2492 37.6362 88.1913 37.6723 88.2347Z" fill="#263238"/>
<path d="M43.4501 100.585C44.709 98.9139 46.1922 97.4234 47.5524 95.8389C48.9127 94.2544 50.2657 92.6192 51.5608 90.9696C51.5608 90.9696 51.6548 90.9696 51.6259 91.013C51.0254 91.874 50.4393 92.7422 49.8098 93.5815C49.4987 93.9939 49.1731 94.3991 48.8403 94.8043L49.3251 94.4063C49.821 94.0335 50.3354 93.6858 50.8662 93.3645C50.8662 93.3645 50.9241 93.3645 50.8662 93.4079C50.4057 93.8339 49.9227 94.2348 49.4191 94.6089C49.0574 94.8839 48.6956 95.1371 48.3121 95.3903L47.7333 96.1139C46.4704 97.7441 45.0635 99.2575 43.5297 100.636C43.4862 100.701 43.4067 100.636 43.4501 100.585Z" fill="#263238"/>
<path d="M39.0524 136.479C40.9842 135.17 38.3288 133.636 38.3288 133.636C38.3288 133.636 42.67 134.924 44.117 132.804C45.5641 130.684 42.2648 129.02 42.0333 128.89C42.2648 128.962 46.2876 130.033 47.5465 127.754C48.8055 125.475 45.2747 124.201 45.0431 124.136C45.2819 124.136 48.4148 123.999 48.9791 122.045C49.9414 118.695 40.9408 118.304 39.0017 116.257C39.0017 116.257 39.8699 111.829 39.9423 111.706C39.3601 112.7 38.4567 113.465 37.381 113.877C35.4347 114.426 33.6838 114.745 32.8952 115.678C32.5272 116.086 32.3004 116.602 32.2483 117.15C32.1962 117.697 32.3215 118.246 32.6058 118.717C32.6058 118.717 30.1458 118.435 29.0967 120.2C28.5613 121.105 29.538 122.776 29.538 122.776C28.9813 122.736 28.4244 122.85 27.9281 123.105C27.4317 123.36 27.0151 123.747 26.7235 124.223C26.0506 125.525 27.1359 126.994 27.1359 126.994C27.1359 126.994 25.1679 127.718 24.9147 129.28C24.4299 132.413 34.9138 139.272 39.0524 136.479Z" fill="#AD6359"/>
<path d="M27.307 127.262C27.307 127.262 27.2274 127.262 27.2563 127.312C30.2554 130.543 34.1671 132.784 38.471 133.737C38.6084 133.737 38.7097 133.549 38.565 133.491C34.5303 131.971 30.738 129.873 27.307 127.262Z" fill="#263238"/>
<path d="M29.5089 122.747C29.5041 122.743 29.4987 122.74 29.4928 122.739C29.487 122.737 29.4808 122.736 29.4748 122.737C29.4688 122.738 29.4629 122.74 29.4576 122.742C29.4522 122.745 29.4475 122.749 29.4437 122.754C29.4399 122.759 29.4371 122.764 29.4354 122.77C29.4337 122.776 29.4332 122.782 29.4339 122.788C29.4345 122.794 29.4364 122.8 29.4393 122.805C29.4423 122.811 29.4462 122.815 29.451 122.819C32.7944 126.345 37.2875 128.559 42.1199 129.063C42.2863 129.063 42.4527 128.919 42.2574 128.89C39.016 128.398 32.6924 125.236 29.5089 122.747Z" fill="#263238"/>
<path d="M45.4302 124.027C40.7129 123.492 36.6394 121.495 32.7541 118.847C32.7034 118.847 32.66 118.883 32.689 118.927C34.2373 120.743 36.8926 122.175 39.056 123.116C41.0425 124.025 43.2331 124.397 45.4085 124.194C45.5243 124.187 45.5243 124.042 45.4302 124.027Z" fill="#263238"/>
<path d="M27.0367 126.994C26.6437 126.598 26.3681 126.102 26.2404 125.559C26.1126 125.016 26.1379 124.448 26.3132 123.919C26.5398 123.421 26.9378 123.02 27.4347 122.79C28.0269 122.585 28.6603 122.528 29.2796 122.624C28.9343 122.137 28.7446 121.557 28.7355 120.96C28.7265 120.364 28.8986 119.778 29.229 119.281C29.5995 118.856 30.1157 118.585 30.6761 118.522C31.3155 118.459 31.9604 118.484 32.5934 118.594C32.3297 118.283 32.1421 117.916 32.0454 117.52C31.9486 117.125 31.9455 116.712 32.0363 116.315C32.156 115.884 32.3756 115.487 32.6773 115.156C32.979 114.825 33.3542 114.571 33.7727 114.412C34.7572 114.056 35.7792 113.813 36.8188 113.688C37.3524 113.608 37.8746 113.465 38.3743 113.262C38.9129 113.015 39.3643 112.612 39.6695 112.104C39.7273 112.017 39.7273 112.104 39.6695 112.183C39.4668 112.528 39.2076 112.836 38.9025 113.095C38.5858 113.371 38.2328 113.602 37.8534 113.782C36.9116 114.138 35.9441 114.421 34.9593 114.629C34.096 114.859 33.333 115.368 32.7887 116.076C32.54 116.451 32.4002 116.888 32.3849 117.337C32.3696 117.787 32.4793 118.232 32.7019 118.623C32.7019 118.623 32.7019 118.717 32.6368 118.71C32.0591 118.707 31.4833 118.775 30.922 118.912C30.4565 119.023 30.0369 119.276 29.721 119.636C29.4283 120.094 29.2609 120.621 29.2355 121.165C29.2101 121.708 29.3276 122.249 29.5763 122.732C28.9523 122.774 28.3415 122.931 27.7747 123.196C27.4067 123.422 27.1107 123.748 26.921 124.136C26.7042 124.583 26.6159 125.082 26.6657 125.576C26.7155 126.07 26.9016 126.541 27.2031 126.936C27.2059 126.948 27.2059 126.96 27.2031 126.972C27.2031 126.972 26.5737 127.233 26.5447 127.233C26.7037 127.143 26.868 127.063 27.0367 126.994Z" fill="#263238"/>
<path d="M62.9528 85.8111C60.652 86.6576 56.1517 83.5247 54.1909 80.7898C54.0607 80.6017 53.9304 72.462 53.7423 70.8558C53.6989 70.523 64.1394 72.1003 64.1394 72.1003C63.8056 74.1812 63.7279 76.2951 63.9078 78.3949C63.9368 78.6265 65.174 85.0007 62.9528 85.8111Z" fill="#AD6359"/>
<path d="M64.1394 72.1002C64.1394 72.1002 64.0236 72.7731 63.9295 73.7715C61.0354 77.324 56.3904 77.7003 54.0317 77.6207C53.9521 75.0956 53.8581 71.8325 53.7423 70.8557C53.6989 70.5301 64.1394 72.1002 64.1394 72.1002Z" fill="#263238"/>
<path d="M53.7857 53.5128C53.7857 53.5128 50.4575 54.8007 49.7774 58.1289C49.0972 61.4571 49.7774 64.9879 50.0523 65.1688C50.3272 65.3497 53.7857 53.5128 53.7857 53.5128Z" fill="#263238"/>
<path d="M67.2306 57.8106C68.0844 61.4789 65.4942 71.7457 62.7737 73.8873C58.8378 76.9985 52.7312 76.9116 50.1699 72.2594C47.6955 67.7518 51.3131 54.439 54.3157 52.5217C58.7292 49.7071 65.95 52.3842 67.2306 57.8106Z" fill="#AD6359"/>
<path d="M56.9084 63.577C56.9084 63.577 56.959 63.6204 56.9518 63.6494C56.8071 64.3729 56.7564 65.1905 57.3642 65.5378C57.3642 65.5378 57.3642 65.5812 57.3642 65.574C56.5828 65.328 56.6551 64.221 56.9084 63.577Z" fill="#263238"/>
<path d="M57.664 62.9403C58.8288 63.0488 58.5177 65.3641 57.4469 65.2628C56.3761 65.1615 56.6944 62.8462 57.664 62.9403Z" fill="#263238"/>
<path d="M52.8729 62.8608C52.8729 62.8608 52.815 62.8608 52.8078 62.9187C52.7426 63.6422 52.5473 64.4454 51.8672 64.6045V64.6479C52.6775 64.6335 52.9235 63.5482 52.8729 62.8608Z" fill="#263238"/>
<path d="M52.3272 62.0288C51.184 61.7973 50.8006 64.0981 51.8641 64.3151C52.9277 64.5322 53.2823 62.2241 52.3272 62.0288Z" fill="#263238"/>
<path d="M56.7474 69.5607C56.5593 69.7126 56.3639 69.9297 56.1035 69.9297C55.8358 69.9019 55.5769 69.8181 55.3438 69.6837C55.4325 69.8348 55.5611 69.9587 55.7155 70.0416C55.8699 70.1246 56.0442 70.1634 56.2192 70.1539C56.3717 70.135 56.5142 70.068 56.6261 69.9626C56.738 69.8573 56.8134 69.719 56.8414 69.5679C56.8414 69.5679 56.7763 69.5245 56.7474 69.5607Z" fill="#263238"/>
<path d="M53.397 66.2613C53.397 66.2613 53.0932 67.3032 53.0208 67.8096C54.0044 67.9534 54.9621 68.2386 55.8642 68.6562C56.0741 68.7575 56.103 68.5766 55.8642 68.3884C55.1911 67.8416 54.3695 67.509 53.5056 67.4334C53.5056 67.2887 54.0048 65.8344 53.9252 65.8127C53.5344 65.7902 53.1424 65.8219 52.7603 65.9068C53.3247 63.7362 54.2074 61.6235 54.7717 59.3951C54.7717 59.3155 54.6777 59.2721 54.6415 59.3372C53.5975 61.5469 52.7735 63.854 52.1815 66.2251C52.0875 66.5435 53.18 66.3192 53.397 66.2613Z" fill="#263238"/>
<path d="M58.5505 62.1517C58.2756 61.9781 58.0585 61.7682 57.827 61.5729C57.5955 61.3775 57.2916 61.1966 57.183 60.8494C57.1598 60.7448 57.173 60.6355 57.2204 60.5394C57.2677 60.4434 57.3465 60.3664 57.4435 60.3212C57.647 60.2546 57.8648 60.2443 58.0737 60.2914C58.2826 60.3386 58.4749 60.4413 58.6301 60.5889C58.9955 60.8343 59.2541 61.2092 59.3536 61.638C59.3727 61.7387 59.3612 61.8429 59.3205 61.937C59.2799 62.0312 59.2121 62.111 59.1257 62.1663C59.0393 62.2215 58.9384 62.2497 58.8359 62.2471C58.7334 62.2445 58.634 62.2113 58.5505 62.1517Z" fill="#263238"/>
<path d="M51.8167 59.4821C52.135 59.4315 52.4244 59.3446 52.7355 59.265C53.0707 59.2364 53.3865 59.0963 53.6327 58.8671C53.6973 58.7817 53.7322 58.6775 53.7322 58.5705C53.7322 58.4634 53.6973 58.3592 53.6327 58.2738C53.4741 58.1295 53.2799 58.0299 53.0701 57.9854C52.8603 57.9409 52.6425 57.953 52.4389 58.0206C52.0041 58.0933 51.612 58.3255 51.3391 58.6718C51.2841 58.7533 51.2533 58.8489 51.2502 58.9472C51.2472 59.0456 51.2722 59.1428 51.3221 59.2277C51.3721 59.3125 51.4451 59.3814 51.5326 59.4264C51.6201 59.4714 51.7186 59.4907 51.8167 59.4821Z" fill="#263238"/>
<path d="M65.5263 66.5797C63.3991 66.3699 64.5567 56.9858 64.5567 56.9858C63.2437 57.433 61.87 57.677 60.4833 57.7093C59.0822 57.66 57.6913 57.4513 56.3375 57.0871C56.0481 56.9785 59.89 55.8933 59.89 55.8933C59.89 55.8933 50.4408 56.7181 50.1224 54.9382C50.0067 54.3232 51.7648 48.7231 59.6078 49.0777C65.396 49.3381 68.0948 55.3868 68.0948 55.3868C68.0948 55.3868 70.9093 58.5196 70.4245 59.9378C69.5997 62.4267 67.7837 66.804 65.5263 66.5797Z" fill="#263238"/>
<path d="M64.2371 66.6303C64.2371 66.6303 66.878 63.4757 68.3323 64.4597C69.7866 65.4437 67.6088 70.1394 65.7421 70.6531C65.5095 70.7339 65.263 70.767 65.0174 70.7503C64.7718 70.7337 64.532 70.6677 64.3125 70.5562C64.0929 70.4448 63.8982 70.2902 63.7398 70.1017C63.5814 69.9132 63.4626 69.6947 63.3906 69.4593L64.2371 66.6303Z" fill="#AD6359"/>
<path d="M99.48 109.723C105.355 105.187 99.7405 82.1571 96.3254 73.6774C95.3197 71.1813 79.366 75.848 80.1112 78.648C84.3728 94.486 93.0479 114.694 99.48 109.723Z" fill="#AD6359"/>
<path d="M82.75 87.3376L84.5082 91.6788C85.1087 93.1258 85.6947 94.5729 86.3459 96.0199C86.9971 97.467 87.6266 98.8634 88.2922 100.274C88.9578 101.685 89.6958 103.067 90.4194 104.456C89.504 103.181 88.6702 101.85 87.9232 100.47C87.1997 99.0877 86.4761 97.6696 85.8467 96.237C85.2172 94.8044 84.6384 93.3429 84.1175 91.8524C83.5965 90.362 83.1479 88.8643 82.75 87.3376Z" fill="#263238"/>
<path d="M81.7046 41.5602C81.7744 42.3739 81.6014 43.1901 81.2076 43.9056C80.8137 44.621 80.2167 45.2037 79.4918 45.58C78.767 45.9563 77.9469 46.1093 77.1351 46.0197C76.3233 45.9301 75.5563 45.6019 74.931 45.0766C74.3057 44.5513 73.8501 43.8524 73.6218 43.0682C73.3934 42.2841 73.4027 41.4499 73.6482 40.671C73.8938 39.8921 74.3648 39.2035 75.0015 38.6921C75.6383 38.1807 76.4124 37.8696 77.2259 37.7979C77.7672 37.7502 78.3125 37.8098 78.8307 37.9732C79.3488 38.1366 79.8297 38.4006 80.2457 38.75C80.6617 39.0995 81.0047 39.5276 81.255 40.0098C81.5054 40.492 81.6581 41.0189 81.7046 41.5602Z" fill="white"/>
<path d="M81.7049 41.5601C81.7944 42.6679 81.4557 43.7679 80.7585 44.6335C80.0612 45.499 79.0585 46.0641 77.957 46.2124C77.3572 46.3327 76.7387 46.325 76.1421 46.1896C75.5455 46.0542 74.9842 45.7942 74.4951 45.4267C74.006 45.0592 73.6001 44.5925 73.304 44.0571C73.0079 43.5217 72.8283 42.9298 72.777 42.3202C72.7257 41.7106 72.8038 41.097 73.0063 40.5197C73.2087 39.9424 73.5308 39.4143 73.9516 38.9702C74.3724 38.5262 74.8823 38.176 75.4479 37.9428C76.0135 37.7096 76.622 37.5985 77.2335 37.6169C78.3413 37.5791 79.4217 37.9664 80.2531 38.6996C81.0845 39.4328 81.6039 40.4562 81.7049 41.5601ZM81.7049 41.5601C81.6586 41.0279 81.5051 40.5105 81.2535 40.0392C81.0019 39.5679 80.6575 39.1524 80.2411 38.8178C79.8247 38.4831 79.3448 38.2363 78.8304 38.0921C78.3159 37.9478 77.7777 37.9093 77.2479 37.9787C76.2352 38.1088 75.3119 38.6253 74.6711 39.4203C74.0303 40.2153 73.7215 41.2271 73.8093 42.2444C73.8971 43.2617 74.3747 44.2057 75.1423 44.8791C75.9099 45.5525 76.908 45.9032 77.9281 45.8579C78.4623 45.8354 78.9865 45.705 79.4689 45.4744C79.9513 45.2438 80.382 44.9178 80.735 44.5162C81.088 44.1145 81.3559 43.6455 81.5226 43.1374C81.6893 42.6294 81.7513 42.0928 81.7049 41.5601Z" fill="#263238"/>
<path d="M72.7145 49.1789C72.7529 49.6322 72.656 50.0868 72.4361 50.4851C72.2163 50.8834 71.8832 51.2075 71.4791 51.4166C71.075 51.6256 70.618 51.7102 70.1659 51.6596C69.7138 51.609 69.2868 51.4254 68.9389 51.1322C68.5911 50.8389 68.338 50.4491 68.2116 50.0121C68.0853 49.575 68.0913 49.1103 68.229 48.6767C68.3667 48.243 68.6299 47.86 68.9853 47.5759C69.3406 47.2918 69.7723 47.1195 70.2256 47.0807C70.527 47.0539 70.8307 47.087 71.1193 47.1781C71.4078 47.2693 71.6755 47.4166 71.9068 47.6116C72.1382 47.8067 72.3286 48.0456 72.4673 48.3145C72.6059 48.5835 72.6899 48.8773 72.7145 49.1789Z" fill="white"/>
<path d="M72.7168 49.1789C72.7575 49.6754 72.6477 50.1727 72.4019 50.606C72.156 51.0393 71.7854 51.3886 71.3384 51.6084C70.8913 51.8282 70.3884 51.9083 69.8952 51.8384C69.4019 51.7685 68.9411 51.5518 68.5727 51.2164C68.2043 50.881 67.9454 50.4425 67.8297 49.958C67.7139 49.4734 67.7466 48.9653 67.9236 48.4996C68.1006 48.0339 68.4137 47.6323 68.8221 47.3469C69.2305 47.0616 69.7153 46.9058 70.2134 46.8998C70.8403 46.8973 71.4453 47.13 71.9088 47.552C72.3723 47.974 72.6607 48.5546 72.7168 49.1789ZM72.7168 49.1789C72.693 48.8853 72.6083 48.6 72.468 48.341C72.3278 48.082 72.1351 47.8551 71.9023 47.6747C71.6695 47.4943 71.4017 47.3644 71.1159 47.2933C70.8301 47.2221 70.5326 47.2113 70.2424 47.2616C69.835 47.3305 69.4564 47.5166 69.1531 47.7972C68.8497 48.0777 68.6346 48.4405 68.5341 48.8413C68.4335 49.2421 68.4519 49.6635 68.5869 50.054C68.7219 50.4445 68.9678 50.7873 69.2944 51.0404C69.621 51.2935 70.0143 51.4459 70.4262 51.4792C70.838 51.5124 71.2507 51.425 71.6137 51.2275C71.9766 51.0301 72.2743 50.7312 72.4702 50.3674C72.6661 50.0036 72.7518 49.5906 72.7168 49.1789Z" fill="#263238"/>
<path d="M112.567 22.3434C112.951 25.5197 112.059 28.7186 110.086 31.2377C108.114 33.7568 105.222 35.3902 102.047 35.7792C99.9565 36.0394 97.8348 35.7424 95.8966 34.9182C94.9511 36.1558 93.7331 37.1586 92.3371 37.8489C90.9411 38.5392 89.4047 38.8983 87.8473 38.8983C86.29 38.8983 84.7536 38.5392 83.3576 37.8489C81.9616 37.1586 80.7436 36.1558 79.7981 34.9182C79.3533 35.0497 78.8983 35.1441 78.4379 35.2004C76.8625 35.3928 75.2651 35.124 73.8392 34.4268C72.4134 33.7296 71.2205 32.6338 70.4049 31.2722C69.5893 29.9106 69.1862 28.3417 69.2443 26.7556C69.3024 25.1696 69.8193 23.6344 70.7324 22.3362C68.9544 20.0741 68.0431 17.2512 68.1628 14.3765C68.2825 11.5018 69.4252 8.76444 71.3851 6.65796C73.3449 4.55147 75.9928 3.21447 78.8514 2.88802C81.71 2.56156 84.5912 3.26714 86.9755 4.87752C88.0938 3.48698 89.5597 2.41655 91.2246 1.77456C92.8896 1.13257 94.6946 0.941813 96.457 1.22159C98.2194 1.50137 99.8766 2.24175 101.261 3.36781C102.645 4.49387 103.707 5.96563 104.34 7.63415C104.763 7.49197 105.199 7.39496 105.642 7.34474C106.98 7.18439 108.335 7.43563 109.527 8.06497C110.718 8.6943 111.689 9.67184 112.311 10.8673C112.933 12.0627 113.175 13.4192 113.006 14.756C112.837 16.0928 112.265 17.3463 111.366 18.3495C111.998 19.5996 112.405 20.9517 112.567 22.3434Z" fill="white"/>
<path d="M112.57 22.3434C112.946 25.5186 112.066 28.715 110.118 31.2499C109.464 32.0757 108.711 32.8169 107.875 33.4567C106.181 34.7384 104.183 35.5567 102.077 35.8307C99.9705 36.1048 97.8293 35.8252 95.8641 35.0195H95.9799C95.0291 36.2807 93.7998 37.3052 92.3879 38.013C90.976 38.7209 89.4196 39.0929 87.8402 39.1002C86.2534 39.1058 84.6865 38.7469 83.2603 38.0511C81.8348 37.3431 80.5862 36.3245 79.6065 35.0701L79.867 35.157C78.1836 35.6653 76.384 35.64 74.7155 35.0846C73.0393 34.5314 71.5791 33.466 70.5408 32.0386C70.0326 31.321 69.6305 30.5339 69.347 29.7016C69.0758 28.8644 68.9319 27.9913 68.9201 27.1114C68.9043 25.3379 69.4404 23.6034 70.4539 22.148V22.5532C68.6033 20.2363 67.6595 17.3249 67.7986 14.3629C67.8771 12.1565 68.548 10.0119 69.741 8.15416C70.9339 6.29641 72.6048 4.794 74.5785 3.80457C76.5522 2.81515 78.7558 2.3752 80.9581 2.53088C83.1604 2.68656 85.2801 3.43214 87.095 4.68937L86.7766 4.73279C87.9257 3.31841 89.4286 2.23334 91.1327 1.58778C92.8368 0.942232 94.6814 0.7592 96.4791 1.05728C98.2659 1.35376 99.9428 2.1167 101.34 3.26898C102.738 4.42126 103.806 5.92205 104.438 7.61964L104.344 7.569C105.758 7.1092 107.284 7.12955 108.685 7.62688C109.715 7.99527 110.638 8.61213 111.373 9.42277C112.108 10.2334 112.631 11.2128 112.896 12.274C113.162 13.3353 113.161 14.4457 112.895 15.5067C112.629 16.5678 112.105 17.5467 111.369 18.3567C112.002 19.604 112.409 20.9539 112.57 22.3434ZM112.57 22.3434C112.4 20.9521 111.983 19.6023 111.34 18.3567C112.324 17.2773 112.919 15.9011 113.033 14.4455C113.147 12.9898 112.773 11.5377 111.97 10.3184C111.175 9.10244 110 8.18474 108.627 7.70937C107.255 7.234 105.763 7.22789 104.387 7.692H104.315V7.61964C103.673 5.97698 102.613 4.53045 101.24 3.42321C99.8663 2.31788 98.223 1.59861 96.4791 1.33946C94.7432 1.0802 92.9697 1.27976 91.3348 1.91828C89.71 2.56339 88.2847 3.62675 87.2035 5.00049L87.0661 5.17414L86.8779 5.0439C84.549 3.49172 81.7437 2.81897 78.9641 3.14604C76.1845 3.47311 73.612 4.77865 71.7069 6.82902C69.8019 8.8794 68.6887 11.5408 68.5665 14.3369C68.4443 17.133 69.3211 19.8814 71.04 22.0901L71.1992 22.2927L71.0472 22.5025C70.102 23.8369 69.5962 25.4327 69.6002 27.068C69.6117 27.8806 69.7409 28.6873 69.9837 29.4628C70.2374 30.2369 70.6056 30.9685 71.0762 31.6334C72.0337 32.9725 73.3828 33.9817 74.9377 34.522C76.4927 35.0624 78.1769 35.1073 79.7585 34.6505L79.9249 34.6071L80.0189 34.7373C80.9396 35.9496 82.1217 36.9389 83.4774 37.6314C85.5414 38.677 87.905 38.9716 90.1626 38.4647C92.4201 37.9577 94.4308 36.6808 95.8496 34.8531L95.9003 34.788H95.9726C97.9006 35.6219 100.015 35.9315 102.101 35.6851C104.199 35.4272 106.194 34.6267 107.889 33.3626C108.724 32.7351 109.477 32.0059 110.132 31.1921C110.775 30.3595 111.312 29.4506 111.731 28.4861C112.534 26.5447 112.823 24.429 112.57 22.3434Z" fill="#263238"/>
<path d="M91.9458 22.7196C91.9307 21.8391 92.088 20.9641 92.4089 20.1439C92.812 19.2832 93.4923 18.5826 94.3407 18.1542C94.6373 17.9733 94.9919 17.778 95.426 17.5537C95.8654 17.3223 96.2842 17.0536 96.6777 16.7506C97.0823 16.4429 97.4342 16.0715 97.7195 15.6508C98.0051 15.2228 98.154 14.7182 98.1464 14.2038C98.1538 13.8282 98.072 13.4562 97.9077 13.1185C97.7592 12.816 97.5498 12.5475 97.2927 12.3298C97.0314 12.112 96.7287 11.9496 96.4027 11.8523C96.0685 11.7437 95.7195 11.6876 95.3681 11.6859C94.966 11.6784 94.5669 11.7548 94.196 11.9102C93.8567 12.0499 93.5378 12.2349 93.2482 12.4601C92.9776 12.6863 92.7348 12.9438 92.5246 13.227C92.3171 13.4822 92.1262 13.7504 91.9531 14.0301L89.4062 12.272C89.6532 11.6844 89.9954 11.1417 90.4192 10.6657C90.8268 10.1964 91.3053 9.79358 91.8373 9.47192C92.3801 9.15197 92.9644 8.9085 93.5737 8.74839C94.2041 8.58217 94.8536 8.49946 95.5056 8.50239C96.2404 8.5062 96.9711 8.61337 97.6761 8.82074C98.3859 9.03252 99.0471 9.38159 99.6224 9.84815C100.215 10.3374 100.694 10.9496 101.026 11.6425C101.401 12.4637 101.584 13.3593 101.561 14.2616C101.57 14.8192 101.497 15.375 101.344 15.9113C101.206 16.3763 100.993 16.816 100.715 17.2136C100.441 17.6057 100.118 17.9608 99.7526 18.27C99.356 18.6022 98.9352 18.9045 98.4937 19.1744L97.3216 19.8473C96.9462 20.0561 96.5902 20.2983 96.258 20.5708C95.9374 20.8208 95.6653 21.1273 95.4549 21.4752C95.2372 21.8529 95.1294 22.2839 95.1438 22.7196H91.9458ZM92.0037 29.5352V25.498H95.2451V29.5352H92.0037Z" fill="#FFC727"/>
<path d="M84.7025 15.1659C84.9028 16.0228 84.9274 16.9113 84.7748 17.7779C84.5684 18.6992 84.0589 19.5247 83.3278 20.1221C83.0746 20.3536 82.7634 20.6213 82.3872 20.9324C82.0045 21.2497 81.6488 21.5982 81.3236 21.9743C80.9922 22.3576 80.7257 22.7927 80.535 23.2622C80.3439 23.7403 80.3035 24.2654 80.4192 24.7671C80.4849 25.1338 80.6388 25.479 80.8678 25.7728C81.0754 26.0408 81.3366 26.2626 81.6347 26.424C81.9351 26.5849 82.2649 26.6833 82.6043 26.7134C82.9549 26.7453 83.3084 26.7258 83.6534 26.6555C84.0472 26.58 84.4214 26.4249 84.7531 26.1997C85.0559 25.9949 85.3307 25.7517 85.5707 25.4762C85.8023 25.1998 85.9992 24.8961 86.1568 24.5718C86.3047 24.2783 86.4352 23.9763 86.5475 23.6674L89.3982 24.8684C89.2815 25.4948 89.0589 26.0968 88.7398 26.6483C88.4303 27.1871 88.0399 27.6751 87.5821 28.0953C87.1177 28.5217 86.5966 28.8821 86.0338 29.1661C85.452 29.4586 84.834 29.6727 84.196 29.8028C83.4688 29.9575 82.7228 30.0038 81.982 29.9403C81.2445 29.885 80.5257 29.6807 79.8694 29.3398C79.1922 28.9864 78.5978 28.4932 78.1257 27.8927C77.2714 26.696 76.8503 25.244 76.9318 23.7759C76.972 23.2948 77.0892 22.8233 77.2791 22.3795C77.465 21.9393 77.7082 21.5258 78.0027 21.1495C78.3216 20.7413 78.6699 20.3568 79.0445 19.9991C79.3774 19.6952 79.7174 19.3913 80.0502 19.1019C80.3719 18.8149 80.665 18.4975 80.9257 18.1541C81.18 17.8408 81.3783 17.4858 81.5117 17.105C81.6437 16.6902 81.6588 16.2471 81.5552 15.8244L84.7025 15.1659ZM83.2554 8.50952L84.0875 12.46L80.9112 13.1256L80.0792 9.17517L83.2554 8.50952Z" fill="#FFC727"/>
</svg>
