<svg width="286" height="351" viewBox="0 0 286 351" fill="none" xmlns="http://www.w3.org/2000/svg">
<path d="M0.503906 309.706L36.1892 309.501L71.8821 309.425L143.253 309.28L214.623 309.425L250.316 309.501L286.001 309.706L250.316 309.911L214.623 309.987L143.253 310.132L71.8821 309.987L36.1892 309.911L0.503906 309.706Z" fill="#263238"/>
<path d="M99.5308 3.32117H0.302734V86.2158H99.5308V3.32117Z" fill="#DBDBDB"/>
<path d="M93.1228 9.74072H6.70312V79.7956H93.1228V9.74072Z" fill="#EBEBEB"/>
<path d="M38.7668 19.7888H17.9082V70.6696H38.7668V19.7888Z" fill="white"/>
<path d="M81.9194 19.7888H45.6816V47.3037H81.9194V19.7888Z" fill="white"/>
<path d="M62.7492 51.6829H45.6816V70.6692H62.7492V51.6829Z" fill="white"/>
<path d="M81.9202 51.6829H70.0098V70.6692H81.9202V51.6829Z" fill="white"/>
<path d="M38.7968 41.7461C44.2474 41.7461 48.6659 36.8308 48.6659 30.7674C48.6659 24.7041 44.2474 19.7888 38.7968 19.7888C33.3463 19.7888 28.9277 24.7041 28.9277 30.7674C28.9277 36.8308 33.3463 41.7461 38.7968 41.7461Z" fill="#DBDBDB"/>
<path d="M45.6816 70.6693H74.7747V38.3054L45.6816 70.6693Z" fill="#DBDBDB"/>
<path d="M286.001 0H183.918V174.121H286.001V0Z" fill="#EBEBEB"/>
<path d="M232.587 6.97461H189.48V84.4226H232.587V6.97461Z" fill="white"/>
<path d="M280.434 6.97461H237.328V84.4226H280.434V6.97461Z" fill="white"/>
<path d="M232.587 89.6899H189.48V167.138H232.587V89.6899Z" fill="white"/>
<path d="M280.434 89.6899H237.328V167.138H280.434V89.6899Z" fill="white"/>
<path d="M246.414 0H285.998V249.102H263.083L279.076 122.344L246.414 0Z" fill="#DBDBDB"/>
<path d="M253.273 6.72754L259.904 35.5827L266.419 64.472L279.45 122.242L279.466 122.319L279.458 122.396L273.296 182.812L270.211 213.016L267.01 243.212L269.834 212.974L272.789 182.744L278.698 122.302L278.706 122.447L265.928 64.6086L259.543 35.6852L253.273 6.72754Z" fill="#EBEBEB"/>
<path d="M283.643 11.8409L283.828 36.8203L283.935 61.8082L284.027 111.767L283.935 161.734L283.835 186.714L283.643 211.701L283.452 186.714L283.352 161.734L283.26 111.767L283.352 61.8082L283.459 36.8203L283.643 11.8409Z" fill="#EBEBEB"/>
<path d="M276.246 16.5192L277.827 43.0523L279.3 69.5939L282.224 122.669C282.032 132.529 281.733 142.389 281.495 152.25L280.728 181.822L279.96 211.403L279.086 241.009L279.592 211.428L280.214 181.847L280.843 152.267C281.058 142.406 281.227 132.537 281.495 122.686L278.809 69.5854L277.474 43.0779L276.246 16.5192Z" fill="#EBEBEB"/>
<path d="M271.095 237.219L273.283 208.517L275.585 179.824C277.173 160.701 278.693 141.57 280.328 122.455V122.566L273.183 77.8833L269.66 55.5333L266.199 33.1748L269.983 55.4735L273.712 77.7381L281.057 122.378V122.489C279.522 141.612 277.833 160.727 276.229 179.85L273.712 208.517L271.095 237.219Z" fill="#EBEBEB"/>
<path d="M285.999 120.252H277.059V126.058H285.999V120.252Z" fill="#DBDBDB"/>
<path d="M208.1 0H183.918V249.111H208.1V0Z" fill="#DBDBDB"/>
<path d="M203.509 11.8409L203.701 38.7753L203.77 65.7096L203.893 119.578L203.77 173.447L203.701 200.381L203.509 227.316L203.325 200.381L203.256 173.447L203.133 119.578L203.256 65.7096L203.325 38.7753L203.509 11.8409Z" fill="#EBEBEB"/>
<path d="M192.411 18.0811L192.595 42.1384L192.703 66.1873L192.795 114.285L192.703 162.383L192.595 186.431L192.411 210.489L192.219 186.431L192.112 162.383L192.027 114.285L192.119 66.1873L192.219 42.1384L192.411 18.0811Z" fill="#EBEBEB"/>
<path d="M197.962 23.767L198.154 51.9221L198.215 80.0858L198.346 136.405L198.215 192.723L198.154 220.887L197.962 249.051L197.778 220.887L197.709 192.723L197.578 136.405L197.709 80.0858L197.778 51.9221L197.962 23.767Z" fill="#EBEBEB"/>
<path d="M188.282 13.2584L188.466 42.7368L188.535 72.2066L188.666 131.155L188.535 190.103L188.466 219.573L188.282 249.051L188.09 219.573L188.029 190.103L187.898 131.155L188.029 72.2066L188.098 42.7368L188.282 13.2584Z" fill="#EBEBEB"/>
<path d="M54.9363 101.727H24.1855V125.136H54.9363V101.727Z" fill="#EBEBEB"/>
<path d="M24.1855 103.443C26.8332 105.099 29.4424 106.858 32.0363 108.565C33.3409 109.419 34.6149 110.332 35.8734 111.22L39.7106 113.892H39.2961L43.1333 111.22C44.4225 110.366 45.6965 109.427 46.9704 108.565L50.8766 105.961C52.1889 105.108 53.4935 104.254 54.8211 103.4C53.5856 104.382 52.3193 105.321 51.0761 106.277L47.4155 109.163C46.1569 110.11 44.8676 110.998 43.5784 111.92L39.7413 114.661L39.534 114.806L39.3268 114.661L35.4897 111.92C34.2158 110.998 32.9342 110.11 31.6526 109.163C29.1892 107.267 26.6643 105.398 24.1855 103.443Z" fill="white"/>
<path d="M24.2988 120.97C26.1559 119.16 28.1058 117.473 30.1389 115.916C32.1525 114.325 34.2486 112.869 36.4165 111.553C34.5615 113.368 32.6113 115.058 30.5764 116.616C28.5627 118.203 26.4665 119.657 24.2988 120.97Z" fill="white"/>
<path d="M54.8717 120.97C52.705 119.655 50.6089 118.201 48.5941 116.616C46.5603 115.06 44.6126 113.37 42.7617 111.553C44.9271 112.869 47.0207 114.325 49.0316 115.916C51.0674 117.469 53.0177 119.156 54.8717 120.97Z" fill="white"/>
<path d="M24.5702 93.9928H23.8027V96.8186H24.5702V93.9928Z" fill="#DBDBDB"/>
<path d="M19.3434 96.0436L18.8008 96.6472L20.597 98.6453L21.1396 98.0417L19.3434 96.0436Z" fill="#DBDBDB"/>
<path d="M19.4972 101.608H16.957V102.46H19.4972V101.608Z" fill="#DBDBDB"/>
<path d="M20.6067 105.427L18.8105 107.426L19.3532 108.029L21.1494 106.031L20.6067 105.427Z" fill="#DBDBDB"/>
<path d="M24.5702 107.259H23.8027V110.085H24.5702V107.259Z" fill="#DBDBDB"/>
<path d="M27.7829 105.426L27.2402 106.03L29.0364 108.028L29.5791 107.424L27.7829 105.426Z" fill="#DBDBDB"/>
<path d="M31.421 101.608H28.8809V102.46H31.421V101.608Z" fill="#DBDBDB"/>
<path d="M29.0286 96.0496L27.2324 98.0477L27.7751 98.6514L29.5713 96.6533L29.0286 96.0496Z" fill="#DBDBDB"/>
<path d="M146.645 351C214.903 351 270.238 343.551 270.238 334.361C270.238 325.172 214.903 317.723 146.645 317.723C78.3856 317.723 23.0508 325.172 23.0508 334.361C23.0508 343.551 78.3856 351 146.645 351Z" fill="#EBEBEB"/>
<path d="M208.838 275.815H162.439V279.23H208.838V275.815Z" fill="#455A64"/>
<path d="M165.925 157.013L165.703 173.191L164.291 275.814L164.245 279.229L163.623 324.245H161.259L160.638 279.229L160.592 275.814L159.18 173.191L158.957 157.013H165.925Z" fill="#455A64"/>
<path d="M158.957 157.013H165.925L165.703 173.191H159.18L158.957 157.013Z" fill="#263238"/>
<path d="M212.314 157.013L212.091 173.191L210.012 324.245H207.648L207.026 279.229L206.98 275.814L205.568 173.191L205.346 157.013H212.314Z" fill="#455A64"/>
<path d="M212.314 157.013L212.091 173.191H205.568L205.346 157.013H212.314Z" fill="#263238"/>
<path d="M187.197 275.815H140.799V279.23H187.197V275.815Z" fill="#37474F"/>
<path d="M144.279 157.013L144.056 173.191L142.644 275.814L142.598 279.229L141.976 324.245H139.613L137.533 173.191L137.311 157.013H144.279Z" fill="#37474F"/>
<path d="M137.311 157.013H144.279L144.056 173.191H137.533L137.311 157.013Z" fill="#263238"/>
<path d="M190.681 157.013L190.459 173.19L189.047 275.814L189 279.229L188.379 324.245H186.015L185.394 279.229L185.348 275.814L183.935 173.19L183.713 157.013H190.681Z" fill="#37474F"/>
<path d="M183.713 157.013H190.681L190.459 173.19H183.935L183.713 157.013Z" fill="#263238"/>
<path d="M215.936 149.484H134.543V158.346H215.936V149.484Z" fill="#FFC727"/>
<path opacity="0.1" d="M200.066 149.484H134.543V158.346H200.066V149.484Z" fill="#263238"/>
<path d="M221.116 71.4722L215.921 149.484H167.374L166.936 141.997L162.738 70.8063L214.609 71.3953L221.116 71.4722Z" fill="#FFC727"/>
<path opacity="0.1" d="M214.609 71.3953L211.04 149.484H167.374L166.936 141.997L162.738 70.8063L214.609 71.3953Z" fill="#263238"/>
<path d="M216.421 141.997L215.922 149.484H167.375L166.938 141.997H216.421Z" fill="#263238"/>
<path d="M157.619 29.0858C148.088 40.3888 147.205 68.2025 160.297 86.2242C171.379 101.48 195.714 103.23 205.721 93.2758C216.342 82.7155 214.6 65.7524 205.652 59.1276C197.011 52.7334 187.096 54.1164 181.755 47.1331C179.191 43.7866 177.987 36.4874 174.403 31.3652C170.404 25.6625 162.5 23.2892 157.619 29.0858Z" fill="#263238"/>
<path d="M169.069 71.8314C166.59 90.1092 164.41 104.272 160.205 108.242C156.813 111.418 151.848 113.987 146.675 116.011C141.137 118.092 135.482 119.766 129.746 121.022C127.981 121.423 126.507 121.722 125.464 121.944C122.877 122.473 116.569 103.897 118.165 101.318C118.534 100.729 120.207 100.089 122.578 99.4316C130.567 97.2291 146.506 94.8558 147.351 93.7204C148.195 92.5849 152.561 84.2784 158.478 73.3937C162.561 65.8725 166.291 63.3285 168.109 65.0274C169.13 65.9921 169.545 68.3056 169.069 71.8314Z" fill="#EB9481"/>
<path d="M129.745 121.021C127.179 122.729 124.512 124.243 121.764 125.555C119.554 126.494 113.13 128.969 111.964 126.408C111.196 124.633 114.788 122.669 117.336 121.218C118.671 120.449 120.26 118.657 119.776 117.735C118.94 116.027 115.509 118.127 113.284 119.852C108.979 123.181 103.307 128.995 100.391 126.682C99.2784 125.828 100.391 123.941 102.003 122.063C99.2784 124.334 96.3238 126.255 95.0959 125.341C94.7714 125.106 94.5389 124.743 94.445 124.325C94.351 123.907 94.4026 123.465 94.5894 123.087C94.2403 123.309 93.8399 123.409 93.4393 123.375C93.0388 123.342 92.6563 123.176 92.3408 122.9C91.3278 121.892 91.6655 120.245 92.5634 118.503C92.3872 118.499 92.2145 118.448 92.0596 118.354C91.9048 118.261 91.7723 118.127 91.6732 117.965C89.44 114.781 98.6491 104.238 102.018 103.025C111.91 99.4398 122.739 99.4398 122.739 99.4398C126.852 102.599 129.753 121.013 129.745 121.021Z" fill="#EB9481"/>
<path d="M114.146 111.903C111.769 112.516 109.543 113.709 107.63 115.395C105.405 117.41 103.717 120.031 101.691 122.225C101.686 122.231 101.682 122.238 101.679 122.246C101.677 122.254 101.675 122.262 101.676 122.27C101.676 122.279 101.678 122.287 101.681 122.294C101.684 122.302 101.689 122.309 101.694 122.314C101.7 122.32 101.706 122.324 101.714 122.327C101.721 122.33 101.728 122.331 101.736 122.331C101.743 122.33 101.75 122.328 101.757 122.325C101.764 122.321 101.77 122.316 101.775 122.31C102.719 121.166 103.778 120.124 104.768 119.023C105.758 117.922 106.671 116.829 107.7 115.83C109.558 113.993 111.768 112.65 114.161 111.903C114.161 111.903 114.169 111.895 114.146 111.903Z" fill="#263238"/>
<path d="M111.919 107.311C109.274 108.264 106.723 109.514 104.306 111.041C101.727 112.808 99.8012 115.489 97.9056 118.076C96.7596 119.624 95.6519 121.2 94.5827 122.805C94.5366 122.874 94.5827 122.968 94.6671 122.899C96.5856 120.236 98.5784 117.638 100.645 115.105C102.546 112.742 104.849 110.821 107.422 109.453C108.887 108.668 110.415 108.019 111.926 107.362C111.957 107.353 111.942 107.302 111.919 107.311Z" fill="#263238"/>
<path d="M108.779 103.409C106.246 104.262 104.036 104.937 101.872 106.678C99.4509 108.802 97.2777 111.254 95.4026 113.978C94.3743 115.42 93.3843 116.906 92.4173 118.4C92.379 118.459 92.4711 118.536 92.5171 118.477C94.739 115.176 97.1512 112.039 99.7386 109.086C100.949 107.659 102.352 106.452 103.898 105.509C105.471 104.653 107.106 103.948 108.787 103.4C108.787 103.4 108.787 103.4 108.779 103.409Z" fill="#263238"/>
<path d="M169.069 71.8305C166.59 90.1083 164.411 104.271 160.205 108.241C156.813 111.417 151.848 113.986 146.676 116.01L168.11 65.0265C169.131 65.9912 169.545 68.3047 169.069 71.8305Z" fill="#263238"/>
<path d="M170.112 68.6723C170.112 68.9541 170.112 69.2529 170.112 69.526C170.112 69.7992 170.112 70.0041 170.066 70.2602C169.717 74.823 169.042 79.3477 168.048 83.7914H167.372H166.712L161.34 83.9878H160.573L155.247 84.1841H154.564L152.607 84.2524L151.072 84.3122C151.072 84.3122 156.444 72.8555 162.584 65.9405C163.157 65.278 163.807 64.7037 164.518 64.2331C167.296 62.5854 170.058 63.5586 170.112 68.6723Z" fill="#FFC727"/>
<path d="M167.057 64.6326C167.278 64.6326 167.456 64.4341 167.456 64.1892C167.456 63.9443 167.278 63.7458 167.057 63.7458C166.837 63.7458 166.658 63.9443 166.658 64.1892C166.658 64.4341 166.837 64.6326 167.057 64.6326Z" fill="white"/>
<path d="M161.378 74.1609C161.378 74.2489 161.355 74.335 161.31 74.408C161.266 74.4811 161.203 74.5379 161.13 74.5712C161.057 74.6045 160.976 74.6128 160.898 74.595C160.821 74.5772 160.75 74.5341 160.694 74.4712C160.639 74.4084 160.601 74.3286 160.587 74.242C160.572 74.1555 160.581 74.066 160.613 73.9852C160.644 73.9043 160.696 73.8357 160.763 73.788C160.83 73.7404 160.908 73.7158 160.987 73.7175C161.039 73.7175 161.09 73.729 161.138 73.7514C161.186 73.7738 161.23 73.8066 161.266 73.8479C161.303 73.8891 161.331 73.9381 161.351 73.9918C161.37 74.0456 161.379 74.103 161.378 74.1609Z" fill="white"/>
<path d="M167.057 74.5868C167.278 74.5868 167.456 74.3883 167.456 74.1434C167.456 73.8986 167.278 73.7001 167.057 73.7001C166.837 73.7001 166.658 73.8986 166.658 74.1434C166.658 74.3883 166.837 74.5868 167.057 74.5868Z" fill="white"/>
<path d="M164.02 69.5503C164.241 69.5503 164.419 69.3518 164.419 69.1069C164.419 68.8621 164.241 68.6636 164.02 68.6636C163.8 68.6636 163.621 68.8621 163.621 69.1069C163.621 69.3518 163.8 69.5503 164.02 69.5503Z" fill="white"/>
<path d="M170.112 68.6721C170.112 68.9535 170.112 69.2519 170.112 69.5247C170.053 69.5436 169.99 69.5468 169.93 69.5343C169.869 69.5217 169.812 69.4937 169.762 69.4524C169.713 69.411 169.673 69.3576 169.645 69.2961C169.618 69.2347 169.604 69.167 169.604 69.0984C169.604 69.0298 169.618 68.9621 169.645 68.9007C169.673 68.8392 169.713 68.7858 169.762 68.7444C169.812 68.7031 169.869 68.6751 169.93 68.6625C169.99 68.65 170.053 68.6532 170.112 68.6721Z" fill="white"/>
<path d="M155.308 84.0902C155.309 84.1618 155.293 84.2324 155.262 84.2951H154.579C154.539 84.2264 154.518 84.1464 154.518 84.0646C154.541 83.9719 154.592 83.8903 154.661 83.8322C154.73 83.7741 154.815 83.7427 154.901 83.7427C154.988 83.7427 155.072 83.7741 155.142 83.8322C155.211 83.8903 155.261 83.9719 155.285 84.0646L155.308 84.0902Z" fill="white"/>
<path d="M161.379 84.0666H160.611C160.635 83.9734 160.685 83.8913 160.755 83.8329C160.824 83.7745 160.908 83.7429 160.995 83.7429C161.082 83.7429 161.166 83.7745 161.235 83.8329C161.305 83.8913 161.355 83.9734 161.379 84.0666Z" fill="white"/>
<path d="M167.383 83.8437H166.723C166.757 83.7782 166.807 83.7239 166.866 83.6862C166.925 83.6486 166.992 83.6288 167.06 83.629C167.126 83.6325 167.189 83.6539 167.245 83.6914C167.302 83.7288 167.349 83.7811 167.383 83.8437Z" fill="white"/>
<path d="M157.948 79.5042C158.168 79.5042 158.347 79.3057 158.347 79.0608C158.347 78.8159 158.168 78.6174 157.948 78.6174C157.727 78.6174 157.549 78.8159 157.549 79.0608C157.549 79.3057 157.727 79.5042 157.948 79.5042Z" fill="white"/>
<path d="M164.02 79.504C164.241 79.504 164.419 79.3055 164.419 79.0607C164.419 78.8158 164.241 78.6173 164.02 78.6173C163.8 78.6173 163.621 78.8158 163.621 79.0607C163.621 79.3055 163.8 79.504 164.02 79.504Z" fill="white"/>
<path d="M170.112 68.6722C170.112 68.9539 170.112 69.2527 170.112 69.5259C170.112 69.7991 170.112 70.004 170.066 70.2601C169.717 74.8229 169.042 79.3476 168.048 83.7913H167.373H166.713L161.341 83.9877H160.573L155.247 84.184H154.564L152.607 84.2523L164.479 64.25C167.296 62.5853 170.059 63.5585 170.112 68.6722Z" fill="#263238"/>
<path d="M132.161 287.758C134.056 287.399 180.102 260.012 181.276 257.733C181.721 256.879 178.529 249.196 174.431 240.002C173.54 238.021 172.619 235.981 171.668 233.915C165.528 220.494 158.714 206.417 158.714 206.417L127.863 224.643L141.677 251.638L144.701 257.571C144.701 257.571 131.278 276.83 130.242 279.477C129.206 282.123 130.265 288.116 132.161 287.758Z" fill="#EB9481"/>
<path d="M132.164 287.758C134.06 287.399 180.105 260.013 181.279 257.733C181.817 256.675 176.989 245.542 171.671 233.915L141.673 251.638L144.696 257.571C144.696 257.571 131.282 276.831 130.246 279.477C129.21 282.124 130.269 288.117 132.164 287.758Z" fill="white"/>
<path d="M132.164 287.758C134.06 287.399 180.105 260.013 181.279 257.733C181.724 256.88 178.532 249.196 174.434 240.002L144.696 257.571C144.696 257.571 131.282 276.831 130.246 279.477C129.21 282.124 130.269 288.117 132.164 287.758Z" fill="#FFC727"/>
<path d="M131.842 285.316C139.462 280.518 170.589 261.942 178.447 257.844C178.509 257.844 178.532 257.844 178.447 257.895C170.996 262.838 139.731 281.125 131.888 285.461C131.742 285.547 131.68 285.419 131.842 285.316Z" fill="#263238"/>
<path d="M132.318 275.874C133.164 275.338 134.101 275.003 135.069 274.892C136.038 274.78 137.017 274.893 137.943 275.225C139.618 275.801 141.027 277.077 141.873 278.785C141.873 278.836 141.811 278.887 141.78 278.836C140.701 277.292 139.201 276.178 137.504 275.664C135.807 275.15 134.006 275.263 132.372 275.985C132.31 276.01 132.257 275.917 132.318 275.874Z" fill="#263238"/>
<path d="M142.11 260.201C145.18 258.314 149.339 257.4 152.608 259.065C152.739 259.133 152.654 259.33 152.532 259.338C149.074 259.37 145.629 259.811 142.256 260.653C142.202 260.674 142.142 260.671 142.091 260.644C142.039 260.617 141.999 260.568 141.979 260.508C141.96 260.448 141.963 260.382 141.987 260.324C142.012 260.266 142.056 260.222 142.11 260.201Z" fill="#263238"/>
<path d="M140.219 262.659C143.289 260.772 147.448 259.85 150.718 261.524C150.848 261.583 150.764 261.788 150.641 261.788C147.183 261.819 143.738 262.262 140.365 263.111C140.338 263.122 140.31 263.127 140.282 263.125C140.253 263.124 140.226 263.116 140.2 263.103C140.174 263.089 140.151 263.07 140.132 263.047C140.113 263.023 140.098 262.996 140.089 262.966C140.079 262.937 140.075 262.905 140.076 262.874C140.078 262.842 140.085 262.811 140.097 262.783C140.109 262.754 140.126 262.728 140.147 262.707C140.168 262.686 140.193 262.67 140.219 262.659Z" fill="#263238"/>
<path d="M138.333 265.109C141.402 263.223 145.562 262.309 148.831 263.974C148.961 264.042 148.877 264.238 148.754 264.238C145.296 264.269 141.851 264.713 138.478 265.562C138.424 265.583 138.365 265.58 138.313 265.553C138.261 265.525 138.221 265.477 138.202 265.417C138.183 265.357 138.186 265.29 138.21 265.233C138.235 265.175 138.279 265.131 138.333 265.109Z" fill="#263238"/>
<path d="M136.446 267.56C139.516 265.673 143.675 264.759 146.944 266.424C147.075 266.492 146.99 266.689 146.868 266.697C143.41 266.728 139.965 267.172 136.592 268.021C136.54 268.031 136.486 268.02 136.441 267.991C136.395 267.961 136.36 267.915 136.343 267.859C136.325 267.804 136.326 267.743 136.345 267.688C136.364 267.633 136.4 267.588 136.446 267.56Z" fill="#263238"/>
<path d="M172.558 250.878C176.027 248.829 178.897 254.831 175.421 256.854C171.944 258.877 169.082 252.91 172.558 250.878Z" fill="#263238"/>
<path d="M137.026 257.913C139.843 259.313 143.104 259.304 146.12 259.688C146.188 259.692 146.255 259.677 146.316 259.645C146.377 259.614 146.431 259.566 146.472 259.507C146.514 259.447 146.542 259.378 146.554 259.304C146.566 259.23 146.562 259.154 146.542 259.082C146.556 259.077 146.568 259.069 146.578 259.058C146.587 259.046 146.595 259.033 146.599 259.018C146.604 259.003 146.605 258.987 146.603 258.972C146.601 258.956 146.596 258.942 146.588 258.929C144.846 255.912 142.422 253.457 139.559 251.809C137.878 250.887 135.231 250.648 134.356 253.021C133.481 255.394 135.376 257.093 137.026 257.913ZM135.491 255.147C134.003 251.228 138.415 252.295 139.628 253.03C140.411 253.521 141.162 254.071 141.876 254.677C143.373 255.907 144.685 257.349 146.059 258.732C144.593 258.442 143.112 258.297 141.639 258.066C139.897 257.793 136.343 257.307 135.515 255.147H135.491Z" fill="#263238"/>
<path d="M156.513 250.204C155.193 248.103 152.676 248.991 151.195 250.306C148.73 252.618 146.854 255.609 145.753 258.98C145.749 258.994 145.747 259.01 145.749 259.025C145.75 259.041 145.755 259.056 145.762 259.069C145.769 259.082 145.779 259.093 145.791 259.101C145.803 259.109 145.816 259.115 145.83 259.116C145.827 259.191 145.84 259.266 145.867 259.335C145.895 259.404 145.936 259.464 145.988 259.512C146.04 259.56 146.102 259.594 146.167 259.612C146.233 259.629 146.302 259.629 146.367 259.611C149.23 258.493 152.415 257.691 154.878 255.633C156.298 254.429 157.756 252.193 156.513 250.204ZM150.373 256.931C148.977 257.52 147.565 258.024 146.183 258.638C147.25 256.931 148.248 255.223 149.468 253.653C150.043 252.887 150.663 252.166 151.325 251.493C152.361 250.477 156.459 248.351 155.784 252.543C155.431 254.882 152.054 256.231 150.396 256.931H150.373Z" fill="#263238"/>
<path d="M149.39 175.752C150.157 185.749 170.832 229.536 170.832 229.536L143.657 244.689L138.216 247.728C138.216 247.728 113.068 198.41 114.426 176.213C115.585 157.381 144.893 133.648 162.92 110.478H187.216C179.542 136.746 151.424 165.747 149.459 174.6C149.385 174.978 149.362 175.366 149.39 175.752Z" fill="#455A64"/>
<path d="M138.185 240.455C143.557 237.27 141.953 238.107 147.325 234.991C149.958 233.463 163.157 225.771 165.82 224.798C165.834 224.794 165.848 224.795 165.861 224.802C165.874 224.808 165.884 224.819 165.891 224.833C165.897 224.847 165.899 224.863 165.896 224.878C165.893 224.894 165.885 224.907 165.874 224.917C163.572 226.744 150.257 234.129 147.602 235.597C142.184 238.602 143.711 237.68 138.262 240.617C138.252 240.626 138.241 240.632 138.229 240.636C138.217 240.64 138.204 240.64 138.191 240.637C138.179 240.635 138.167 240.629 138.157 240.621C138.147 240.612 138.139 240.601 138.133 240.589C138.127 240.576 138.124 240.563 138.123 240.549C138.123 240.535 138.125 240.521 138.13 240.508C138.135 240.495 138.143 240.483 138.152 240.474C138.162 240.465 138.173 240.458 138.185 240.455Z" fill="#263238"/>
<path d="M184.363 114.559C176.654 129.067 167.93 142.877 158.271 155.861C155.907 159.019 153.466 162.093 151.018 165.175C148.946 167.736 146.851 170.664 146.452 174.232C146.015 178.211 147.573 182.078 148.824 185.698C150.205 189.693 151.602 193.68 153.06 197.649C154.641 201.918 156.291 206.187 158.125 210.293C159.066 212.41 160.051 214.502 161.079 216.568C161.591 217.598 162.12 218.622 162.668 219.641C162.937 220.153 164.84 223.645 165.116 224.157C165.208 224.319 165.438 224.516 165.208 224.089C164.686 223.133 162.56 219.171 162.069 218.198C160.135 214.356 158.409 210.404 156.774 206.391C155.139 202.379 153.574 198.213 152.1 194.072C150.627 189.932 149.108 185.868 147.857 181.728C147.117 179.609 146.75 177.351 146.775 175.078C146.936 172.883 147.637 170.78 148.801 168.999C150.888 165.584 153.681 162.613 156.083 159.463C161.077 152.924 165.819 146.163 170.311 139.179C175.419 131.28 180.153 123.091 184.493 114.644C184.493 114.55 184.401 114.499 184.363 114.559Z" fill="#263238"/>
<path d="M170.835 229.536L143.66 244.689L149.393 175.752C150.16 185.749 170.835 229.536 170.835 229.536Z" fill="#263238"/>
<path d="M160.62 341.371C162.546 341.371 212.091 323.016 213.572 320.993C214.14 320.225 212.16 312.046 209.513 302.212C208.945 300.094 208.339 297.943 207.717 295.698C203.696 281.321 199.122 266.16 199.122 266.16L165.946 278.333L175.462 307.53L177.542 313.941C177.542 313.941 161.426 330.409 159.975 332.825C158.525 335.241 158.702 341.32 160.62 341.371Z" fill="#EB9481"/>
<path d="M160.618 341.37C162.545 341.37 212.089 323.016 213.571 320.992C214.261 320.053 211.192 308.187 207.715 295.714L175.483 307.547L177.563 313.958C177.563 313.958 161.447 330.426 159.997 332.842C158.546 335.258 158.7 341.319 160.618 341.37Z" fill="white"/>
<path d="M160.62 341.371C162.546 341.371 212.091 323.016 213.572 320.993C214.14 320.225 212.16 312.046 209.513 302.211L177.542 313.941C177.542 313.941 161.426 330.409 159.975 332.825C158.525 335.241 158.702 341.32 160.62 341.371Z" fill="#FFC727"/>
<path d="M160.671 338.852C168.906 335.557 202.412 323.092 210.777 320.531C210.846 320.531 210.861 320.531 210.777 320.583C202.68 324.057 169.09 336.214 160.702 339.006C160.541 339.065 160.495 338.929 160.671 338.852Z" fill="#263238"/>
<path d="M162.575 329.641C163.49 329.271 164.463 329.117 165.434 329.188C166.405 329.258 167.353 329.552 168.216 330.051C169.783 330.94 170.979 332.47 171.554 334.319C171.554 334.371 171.478 334.405 171.455 334.319C170.625 332.594 169.315 331.214 167.721 330.388C166.127 329.561 164.335 329.332 162.614 329.735C162.545 329.769 162.506 329.667 162.575 329.641Z" fill="#263238"/>
<path d="M174.603 316.033C177.911 314.744 182.155 314.624 185.125 316.887C185.24 316.972 185.125 317.151 185.01 317.134C181.597 316.514 178.134 316.302 174.68 316.502C174.626 316.51 174.571 316.494 174.527 316.457C174.483 316.421 174.453 316.368 174.443 316.308C174.433 316.248 174.444 316.186 174.474 316.135C174.504 316.084 174.55 316.047 174.603 316.033Z" fill="#263238"/>
<path d="M172.368 318.09C175.676 316.809 179.919 316.69 182.889 318.944C183.005 319.038 182.889 319.217 182.774 319.191C179.361 318.574 175.898 318.365 172.445 318.568C172.393 318.567 172.344 318.546 172.305 318.509C172.265 318.472 172.239 318.42 172.23 318.364C172.221 318.308 172.23 318.25 172.255 318.2C172.28 318.15 172.32 318.111 172.368 318.09Z" fill="#263238"/>
<path d="M170.112 320.156C173.42 318.876 177.664 318.748 180.634 321.01C180.749 321.095 180.634 321.275 180.526 321.258C177.11 320.64 173.645 320.432 170.189 320.634C170.137 320.633 170.088 320.612 170.049 320.575C170.01 320.538 169.983 320.487 169.974 320.43C169.965 320.374 169.974 320.316 169.999 320.266C170.024 320.216 170.064 320.177 170.112 320.156Z" fill="#263238"/>
<path d="M167.9 322.222C171.208 320.933 175.452 320.813 178.422 323.076C178.537 323.161 178.422 323.34 178.314 323.323C174.899 322.703 171.433 322.491 167.977 322.691C167.923 322.699 167.868 322.683 167.824 322.647C167.78 322.61 167.75 322.557 167.74 322.497C167.73 322.437 167.741 322.375 167.771 322.324C167.801 322.273 167.847 322.236 167.9 322.222Z" fill="#263238"/>
<path d="M206.039 312.532C209.777 311.166 211.695 317.655 207.95 318.986C204.205 320.318 202.302 313.907 206.039 312.532Z" fill="#263238"/>
<path d="M169.943 312.814C172.506 314.726 175.73 315.332 178.638 316.28C178.937 316.374 179.152 316.049 179.145 315.759C179.159 315.756 179.172 315.75 179.184 315.741C179.196 315.732 179.206 315.72 179.213 315.706C179.22 315.692 179.225 315.677 179.226 315.661C179.228 315.645 179.226 315.629 179.221 315.614C177.96 312.311 175.941 309.435 173.366 307.273C171.831 306.053 169.275 305.318 168.055 307.495C166.835 309.672 168.447 311.695 169.943 312.814ZM168.876 309.783C168.002 305.634 172.184 307.521 173.274 308.477C173.969 309.108 174.625 309.789 175.238 310.517C176.481 312.046 177.651 313.644 178.746 315.307C177.341 314.743 175.906 314.316 174.486 313.813C172.79 313.241 169.345 312.097 168.876 309.783Z" fill="#263238"/>
<path d="M190.321 308.93C189.338 306.608 186.706 307.001 185.064 308.025C182.284 309.842 179.982 312.438 178.387 315.555C178.38 315.568 178.375 315.584 178.373 315.6C178.372 315.616 178.374 315.632 178.379 315.647C178.385 315.662 178.393 315.675 178.404 315.686C178.414 315.697 178.427 315.704 178.441 315.708C178.403 315.99 178.579 316.349 178.894 316.289C181.887 315.726 185.141 315.538 187.888 313.967C189.492 313.011 191.249 311.073 190.321 308.93ZM183.268 314.402C181.802 314.718 180.337 314.957 178.878 315.333C180.191 313.864 181.434 312.345 182.869 311.064C183.552 310.416 184.275 309.823 185.033 309.289C186.207 308.478 190.566 307.146 189.269 311.158C188.533 313.284 185.018 313.984 183.268 314.36V314.402Z" fill="#263238"/>
<path d="M171.807 304.354L207.715 291.19C207.715 291.19 190.463 235.93 186.358 208.193C184.193 193.603 194.393 152.165 198.015 147.973C207.27 137.259 207.684 126.05 200.985 110.41H170.679C170.679 110.41 172.536 126.955 172.275 127.612C165.507 144.678 145.861 182.958 149.053 211.608C154.256 258.383 171.807 304.354 171.807 304.354Z" fill="#455A64"/>
<path d="M170.744 296.124C178.126 292.829 201.686 284.266 204.303 283.771C204.364 283.771 204.395 283.865 204.341 283.891C202.039 285.308 189.668 290.012 170.797 296.303C170.787 296.307 170.776 296.309 170.764 296.308C170.753 296.307 170.742 296.304 170.733 296.298C170.723 296.293 170.714 296.285 170.706 296.276C170.699 296.266 170.693 296.256 170.69 296.244C170.686 296.232 170.685 296.22 170.686 296.207C170.687 296.195 170.69 296.183 170.695 296.172C170.7 296.161 170.706 296.151 170.715 296.142C170.723 296.134 170.733 296.128 170.744 296.124Z" fill="#263238"/>
<path d="M169.917 111.084C170.409 115.412 170.562 122.831 172.826 122.831C175.09 122.831 174.315 113.782 174.292 111.733C174.292 109.838 174.86 110.068 175.021 112.296C175.443 118.323 175.527 123.659 172.626 123.565C169.726 123.471 169.342 114.063 169.342 111.921C169.342 110.811 169.764 109.718 169.917 111.084Z" fill="#263238"/>
<path d="M172.692 123.121C172.896 124.636 172.929 126.173 172.792 127.697C172.792 127.825 172.324 127.748 172.277 127.654C171.978 127.04 172.07 124.06 171.963 123.266C171.946 123.159 171.967 123.048 172.023 122.958C172.08 122.869 172.165 122.807 172.262 122.788C172.359 122.769 172.458 122.793 172.539 122.856C172.62 122.918 172.675 123.014 172.692 123.121Z" fill="#263238"/>
<path d="M172.277 127.654C166.721 138.402 158.601 158.678 158.041 162.417C158.041 162.605 158.195 162.699 158.264 162.511C159.53 159.096 167.995 138.684 172.791 127.697C172.891 127.484 172.369 127.466 172.277 127.654Z" fill="#263238"/>
<path d="M187.577 175.376C189.987 165.021 192.811 154.605 197.722 145.334C199.081 142.773 200.723 140.391 202.005 137.787C203.219 135.367 203.883 132.653 203.938 129.882C204.038 123.906 201.751 118.238 199.533 112.936C199.472 112.782 199.265 112.936 199.334 113.081C201.467 118.203 203.693 123.744 203.654 129.515C203.634 132.35 202.963 135.133 201.705 137.6C200.569 139.879 199.157 141.971 197.945 144.19C193.003 153.188 190.048 163.313 187.631 173.455C185.06 184.272 181.998 195.395 183.218 206.69C183.946 212.271 185.026 217.788 186.449 223.2C187.823 228.937 189.258 234.657 190.716 240.377C193.985 253.183 197.262 266.073 201.068 278.725C201.068 278.768 201.153 278.725 201.137 278.725C198.121 267.252 194.914 255.855 191.997 244.347C190.555 238.627 189.142 232.899 187.761 227.162C186.387 221.442 184.899 215.731 184.001 209.891C183.076 203.978 183.091 197.93 184.047 192.023C184.952 186.397 186.295 180.874 187.577 175.376Z" fill="#263238"/>
<path d="M202.21 111.357C200.788 112.287 199.314 113.114 197.797 113.833L197.076 114.157C192.852 116 188.43 117.22 183.922 117.786C170.438 119.613 157.715 116.488 156.64 114.542L158.075 99.3884L158.152 98.5347L158.344 96.4772C158.344 96.4772 155.013 91.7306 154.837 86.2328C154.829 85.6392 154.88 85.0465 154.99 84.4656C155.029 84.2095 155.082 83.9449 155.144 83.6632C156.126 79.2239 159.303 72.6504 162.012 68.0916C162.886 66.558 163.869 65.1048 164.951 63.7462C168.021 60.1522 171.451 59.3326 174.82 60.3314C176.363 60.8294 177.82 61.6083 179.133 62.6364C182.346 65.23 185.079 68.4879 187.184 72.2321C189.609 76.3554 192.187 82.3997 194.505 88.5037C194.589 88.7171 194.666 88.9305 194.743 89.1439C198.91 100.293 202.21 111.357 202.21 111.357Z" fill="#FFC727"/>
<path d="M167.457 64.1898C167.457 64.3075 167.415 64.4204 167.34 64.5037C167.265 64.5869 167.163 64.6337 167.058 64.6337C166.979 64.6337 166.902 64.6077 166.836 64.5589C166.77 64.5101 166.719 64.4408 166.689 64.3597C166.659 64.2785 166.651 64.1893 166.666 64.1032C166.682 64.0171 166.72 63.938 166.775 63.8759C166.831 63.8138 166.902 63.7715 166.98 63.7544C167.057 63.7372 167.137 63.746 167.21 63.7796C167.283 63.8132 167.346 63.8701 167.389 63.9431C167.433 64.0161 167.457 64.102 167.457 64.1898ZM173.128 63.7544C173.049 63.7544 172.971 63.7807 172.906 63.8298C172.84 63.879 172.789 63.9488 172.759 64.0305C172.729 64.1121 172.721 64.2018 172.737 64.2881C172.753 64.3744 172.792 64.4535 172.849 64.5152C172.905 64.577 172.977 64.6186 173.055 64.6347C173.133 64.6509 173.213 64.6409 173.286 64.6059C173.359 64.571 173.421 64.5128 173.464 64.4387C173.506 64.3646 173.529 64.2779 173.527 64.1898C173.527 64.1319 173.517 64.0745 173.497 64.0212C173.476 63.9678 173.447 63.9194 173.41 63.8789C173.373 63.8383 173.328 63.8064 173.28 63.785C173.232 63.7637 173.18 63.7533 173.128 63.7544ZM179.206 63.7544C179.126 63.7527 179.048 63.7775 178.981 63.8256C178.915 63.8738 178.862 63.943 178.831 64.0245C178.8 64.1059 178.791 64.1959 178.807 64.2828C178.822 64.3697 178.86 64.4495 178.916 64.5121C178.972 64.5747 179.044 64.6172 179.122 64.634C179.201 64.6509 179.281 64.6414 179.355 64.6067C179.428 64.5721 179.49 64.5139 179.533 64.4396C179.577 64.3653 179.599 64.2783 179.597 64.1898C179.597 64.0743 179.556 63.9636 179.483 63.8819C179.409 63.8003 179.31 63.7544 179.206 63.7544ZM160.987 73.7C160.935 73.7 160.883 73.7115 160.835 73.7338C160.786 73.7561 160.742 73.7888 160.705 73.8301C160.668 73.8713 160.639 73.9202 160.619 73.9741C160.599 74.0279 160.588 74.0857 160.588 74.144C160.571 74.21 160.568 74.2796 160.58 74.3471C160.591 74.4147 160.616 74.4784 160.653 74.5332C160.691 74.5881 160.739 74.6326 160.794 74.6632C160.849 74.6939 160.91 74.7098 160.972 74.7098C161.034 74.7098 161.095 74.6939 161.15 74.6632C161.205 74.6326 161.253 74.5881 161.291 74.5332C161.328 74.4784 161.353 74.4147 161.364 74.3471C161.376 74.2796 161.373 74.21 161.356 74.144C161.358 74.0313 161.321 73.9221 161.252 73.8394C161.183 73.7566 161.088 73.7066 160.987 73.7ZM167.058 73.7C167.005 73.7 166.953 73.7115 166.905 73.7338C166.857 73.7561 166.813 73.7888 166.775 73.8301C166.738 73.8713 166.709 73.9202 166.689 73.9741C166.669 74.0279 166.659 74.0857 166.659 74.144C166.659 74.2617 166.701 74.3746 166.775 74.4579C166.85 74.5411 166.952 74.5879 167.058 74.5879C167.163 74.5857 167.263 74.5382 167.338 74.4555C167.412 74.3727 167.455 74.261 167.457 74.144C167.457 74.0842 167.446 74.025 167.425 73.97C167.404 73.915 167.373 73.8653 167.334 73.8239C167.296 73.7824 167.25 73.7501 167.2 73.7288C167.15 73.7075 167.096 73.6977 167.042 73.7H167.058ZM173.128 73.7C173.076 73.7 173.024 73.7116 172.976 73.734C172.928 73.7564 172.885 73.7892 172.848 73.8306C172.812 73.8719 172.783 73.9209 172.764 73.9747C172.745 74.0285 172.736 74.0861 172.737 74.144C172.737 74.2321 172.76 74.3183 172.804 74.3915C172.849 74.4646 172.911 74.5215 172.985 74.5549C173.058 74.5882 173.139 74.5965 173.216 74.5786C173.294 74.5608 173.365 74.5177 173.421 74.4547C173.476 74.3918 173.513 74.3119 173.528 74.2252C173.542 74.1386 173.533 74.049 173.502 73.9681C173.471 73.8871 173.418 73.8184 173.352 73.7707C173.285 73.7229 173.207 73.6983 173.128 73.7ZM179.206 73.7C179.154 73.7 179.102 73.7115 179.053 73.7338C179.005 73.7561 178.961 73.7888 178.924 73.8301C178.887 73.8713 178.857 73.9202 178.837 73.9741C178.817 74.0279 178.807 74.0857 178.807 74.144C178.79 74.21 178.787 74.2796 178.798 74.3471C178.81 74.4147 178.835 74.4784 178.872 74.5332C178.909 74.5881 178.957 74.6326 179.013 74.6632C179.068 74.6939 179.129 74.7098 179.191 74.7098C179.252 74.7098 179.313 74.6939 179.369 74.6632C179.424 74.6326 179.472 74.5881 179.509 74.5332C179.546 74.4784 179.572 74.4147 179.583 74.3471C179.594 74.2796 179.591 74.21 179.574 74.144C179.576 74.0313 179.539 73.9221 179.471 73.8394C179.402 73.7566 179.307 73.7066 179.206 73.7ZM185.276 73.7C185.224 73.7 185.172 73.7115 185.124 73.7338C185.075 73.7561 185.031 73.7888 184.994 73.8301C184.957 73.8713 184.928 73.9202 184.908 73.9741C184.888 74.0279 184.877 74.0857 184.877 74.144C184.877 74.2617 184.919 74.3746 184.994 74.4579C185.069 74.5411 185.17 74.5879 185.276 74.5879C185.382 74.5857 185.482 74.5382 185.556 74.4555C185.631 74.3727 185.673 74.261 185.675 74.144C185.675 74.0857 185.665 74.0279 185.645 73.9741C185.625 73.9202 185.596 73.8713 185.558 73.8301C185.521 73.7888 185.477 73.7561 185.429 73.7338C185.381 73.7115 185.329 73.7 185.276 73.7ZM164.019 68.6717C163.939 68.6717 163.862 68.698 163.796 68.7472C163.73 68.7963 163.679 68.8662 163.649 68.9478C163.619 69.0294 163.612 69.1191 163.628 69.2054C163.644 69.2918 163.683 69.3708 163.739 69.4326C163.796 69.4943 163.868 69.5359 163.946 69.5521C164.024 69.5682 164.104 69.5582 164.177 69.5233C164.25 69.4884 164.311 69.4301 164.354 69.356C164.397 69.2819 164.419 69.1953 164.418 69.1071C164.418 69.0492 164.407 68.9919 164.387 68.9385C164.367 68.8851 164.338 68.8367 164.3 68.7962C164.263 68.7556 164.219 68.7238 164.171 68.7024C164.122 68.681 164.071 68.6706 164.019 68.6717ZM170.097 68.6717C170.017 68.67 169.939 68.6948 169.872 68.743C169.805 68.7911 169.753 68.8603 169.722 68.9418C169.691 69.0232 169.682 69.1132 169.697 69.2001C169.712 69.287 169.751 69.3669 169.807 69.4295C169.863 69.4921 169.935 69.5345 170.013 69.5514C170.091 69.5682 170.172 69.5587 170.245 69.5241C170.318 69.4894 170.381 69.4312 170.424 69.3569C170.467 69.2826 170.49 69.1956 170.488 69.1071C170.488 68.9945 170.449 68.8863 170.379 68.8051C170.309 68.7239 170.213 68.6761 170.112 68.6717H170.097ZM176.167 68.6717C176.108 68.6528 176.045 68.6496 175.984 68.6621C175.924 68.6747 175.866 68.7028 175.817 68.7442C175.768 68.7856 175.728 68.8391 175.7 68.9006C175.673 68.9621 175.658 69.0299 175.658 69.0986C175.658 69.1673 175.673 69.2351 175.7 69.2966C175.728 69.3581 175.768 69.4116 175.817 69.453C175.866 69.4944 175.924 69.5224 175.984 69.535C176.045 69.5476 176.108 69.5443 176.167 69.5254C176.226 69.5443 176.289 69.5476 176.35 69.535C176.41 69.5224 176.468 69.4944 176.517 69.453C176.566 69.4116 176.606 69.3581 176.634 69.2966C176.661 69.2351 176.676 69.1673 176.676 69.0986C176.676 69.0299 176.661 68.9621 176.634 68.9006C176.606 68.8391 176.566 68.7856 176.517 68.7442C176.468 68.7028 176.41 68.6747 176.35 68.6621C176.289 68.6496 176.226 68.6528 176.167 68.6717ZM182.237 68.6717C182.158 68.6717 182.081 68.698 182.015 68.7472C181.949 68.7963 181.898 68.8662 181.868 68.9478C181.838 69.0294 181.831 69.1191 181.847 69.2054C181.863 69.2918 181.901 69.3708 181.958 69.4326C182.015 69.4943 182.086 69.5359 182.164 69.5521C182.242 69.5682 182.323 69.5582 182.395 69.5233C182.468 69.4884 182.53 69.4301 182.573 69.356C182.616 69.2819 182.638 69.1953 182.636 69.1071C182.636 69.0492 182.626 68.9919 182.606 68.9385C182.586 68.8851 182.556 68.8367 182.519 68.7962C182.482 68.7556 182.438 68.7238 182.389 68.7024C182.341 68.681 182.289 68.6706 182.237 68.6717ZM155.124 83.7225C155.063 84.0042 155.009 84.2689 154.971 84.525C155.065 84.5105 155.151 84.4583 155.213 84.3781C155.276 84.298 155.309 84.1954 155.308 84.0896C155.309 84.016 155.292 83.9434 155.26 83.8791C155.227 83.8148 155.181 83.7608 155.124 83.7225ZM160.987 83.6542C160.908 83.6525 160.83 83.6774 160.763 83.7255C160.696 83.7736 160.644 83.8428 160.612 83.9243C160.581 84.0057 160.573 84.0957 160.588 84.1826C160.603 84.2695 160.641 84.3494 160.698 84.412C160.754 84.4746 160.826 84.517 160.904 84.5339C160.982 84.5507 161.063 84.5412 161.136 84.5066C161.209 84.4719 161.271 84.4137 161.315 84.3394C161.358 84.2651 161.38 84.1781 161.379 84.0896C161.379 83.9741 161.337 83.8634 161.264 83.7818C161.191 83.7001 161.091 83.6542 160.987 83.6542ZM167.058 83.6542C166.998 83.6353 166.936 83.6321 166.875 83.6446C166.814 83.6572 166.757 83.6853 166.708 83.7267C166.658 83.7681 166.618 83.8216 166.591 83.8831C166.563 83.9446 166.549 84.0124 166.549 84.0811C166.549 84.1498 166.563 84.2176 166.591 84.2791C166.618 84.3406 166.658 84.3941 166.708 84.4355C166.757 84.4769 166.814 84.5049 166.875 84.5175C166.936 84.5301 166.998 84.5268 167.058 84.5079C167.117 84.5268 167.18 84.5301 167.24 84.5175C167.301 84.5049 167.358 84.4769 167.408 84.4355C167.457 84.3941 167.497 84.3406 167.524 84.2791C167.552 84.2176 167.566 84.1498 167.566 84.0811C167.566 84.0124 167.552 83.9446 167.524 83.8831C167.497 83.8216 167.457 83.7681 167.408 83.7267C167.358 83.6853 167.301 83.6572 167.24 83.6446C167.18 83.6321 167.117 83.6353 167.058 83.6542ZM173.128 83.6542C173.049 83.6542 172.971 83.6805 172.906 83.7297C172.84 83.7788 172.789 83.8487 172.759 83.9303C172.729 84.0119 172.721 84.1016 172.737 84.1879C172.753 84.2743 172.792 84.3534 172.849 84.4151C172.905 84.4768 172.977 84.5184 173.055 84.5346C173.133 84.5507 173.213 84.5407 173.286 84.5058C173.359 84.4709 173.421 84.4126 173.464 84.3385C173.506 84.2644 173.529 84.1778 173.527 84.0896C173.527 84.0317 173.517 83.9744 173.497 83.921C173.476 83.8676 173.447 83.8192 173.41 83.7787C173.373 83.7381 173.328 83.7063 173.28 83.6849C173.232 83.6635 173.18 83.6531 173.128 83.6542ZM179.206 83.6542C179.126 83.6525 179.048 83.6774 178.981 83.7255C178.915 83.7736 178.862 83.8428 178.831 83.9243C178.8 84.0057 178.791 84.0957 178.807 84.1826C178.822 84.2695 178.86 84.3494 178.916 84.412C178.972 84.4746 179.044 84.517 179.122 84.5339C179.201 84.5507 179.281 84.5412 179.355 84.5066C179.428 84.4719 179.49 84.4137 179.533 84.3394C179.577 84.2651 179.599 84.1781 179.597 84.0896C179.597 83.9741 179.556 83.8634 179.483 83.7818C179.409 83.7001 179.31 83.6542 179.206 83.6542ZM185.276 83.6542C185.217 83.6353 185.154 83.6321 185.094 83.6446C185.033 83.6572 184.976 83.6853 184.926 83.7267C184.877 83.7681 184.837 83.8216 184.81 83.8831C184.782 83.9446 184.768 84.0124 184.768 84.0811C184.768 84.1498 184.782 84.2176 184.81 84.2791C184.837 84.3406 184.877 84.3941 184.926 84.4355C184.976 84.4769 185.033 84.5049 185.094 84.5175C185.154 84.5301 185.217 84.5268 185.276 84.5079C185.336 84.5268 185.398 84.5301 185.459 84.5175C185.52 84.5049 185.577 84.4769 185.626 84.4355C185.676 84.3941 185.716 84.3406 185.743 84.2791C185.771 84.2176 185.785 84.1498 185.785 84.0811C185.785 84.0124 185.771 83.9446 185.743 83.8831C185.716 83.8216 185.676 83.7681 185.626 83.7267C185.577 83.6853 185.52 83.6572 185.459 83.6446C185.398 83.6321 185.336 83.6353 185.276 83.6542ZM191.347 83.6542C191.267 83.6542 191.19 83.6805 191.124 83.7297C191.058 83.7788 191.007 83.8487 190.977 83.9303C190.947 84.0119 190.94 84.1016 190.956 84.1879C190.972 84.2743 191.011 84.3534 191.067 84.4151C191.124 84.4768 191.196 84.5184 191.274 84.5346C191.352 84.5507 191.432 84.5407 191.505 84.5058C191.578 84.4709 191.639 84.4126 191.682 84.3385C191.725 84.2644 191.747 84.1778 191.746 84.0896C191.746 84.0317 191.735 83.9744 191.715 83.921C191.695 83.8676 191.666 83.8192 191.628 83.7787C191.591 83.7381 191.547 83.7063 191.499 83.6849C191.45 83.6635 191.399 83.6531 191.347 83.6542ZM157.948 78.6174C157.842 78.6174 157.741 78.6641 157.666 78.7474C157.591 78.8306 157.549 78.9436 157.549 79.0613C157.549 79.179 157.591 79.292 157.666 79.3752C157.741 79.4585 157.842 79.5052 157.948 79.5052C158.054 79.503 158.154 79.4556 158.228 79.3728C158.303 79.29 158.345 79.1784 158.347 79.0613C158.347 79.003 158.337 78.9453 158.317 78.8914C158.297 78.8376 158.268 78.7886 158.231 78.7474C158.193 78.7062 158.149 78.6735 158.101 78.6512C158.053 78.6289 158.001 78.6174 157.948 78.6174ZM164.019 78.6174C163.967 78.6174 163.915 78.6289 163.867 78.6513C163.819 78.6737 163.776 78.7066 163.739 78.7479C163.703 78.7892 163.674 78.8383 163.655 78.8921C163.636 78.9459 163.626 79.0034 163.627 79.0613C163.627 79.1495 163.651 79.2356 163.695 79.3088C163.739 79.382 163.802 79.4389 163.875 79.4722C163.949 79.5055 164.029 79.5138 164.107 79.496C164.185 79.4781 164.256 79.435 164.311 79.3721C164.367 79.3091 164.404 79.2292 164.419 79.1425C164.433 79.0559 164.424 78.9664 164.393 78.8854C164.361 78.8045 164.309 78.7357 164.242 78.688C164.176 78.6403 164.098 78.6157 164.019 78.6174ZM170.097 78.6174C169.991 78.6174 169.889 78.6641 169.814 78.7474C169.74 78.8306 169.698 78.9436 169.698 79.0613C169.681 79.1274 169.678 79.1969 169.689 79.2645C169.7 79.332 169.726 79.3957 169.763 79.4506C169.8 79.5054 169.848 79.5499 169.903 79.5806C169.959 79.6112 170.02 79.6272 170.081 79.6272C170.143 79.6272 170.204 79.6112 170.259 79.5806C170.315 79.5499 170.363 79.5054 170.4 79.4506C170.437 79.3957 170.462 79.332 170.474 79.2645C170.485 79.1969 170.482 79.1274 170.465 79.0613C170.467 78.9514 170.432 78.8445 170.367 78.7622C170.301 78.6799 170.21 78.6281 170.112 78.6174H170.097ZM176.167 78.6174C176.061 78.6174 175.96 78.6641 175.885 78.7474C175.81 78.8306 175.768 78.9436 175.768 79.0613C175.768 79.179 175.81 79.292 175.885 79.3752C175.96 79.4585 176.061 79.5052 176.167 79.5052C176.272 79.503 176.373 79.4556 176.447 79.3728C176.521 79.29 176.564 79.1784 176.566 79.0613C176.566 79.003 176.556 78.9453 176.536 78.8914C176.516 78.8376 176.486 78.7886 176.449 78.7474C176.412 78.7062 176.368 78.6735 176.32 78.6512C176.271 78.6289 176.219 78.6174 176.167 78.6174ZM182.237 78.6174C182.185 78.6174 182.134 78.6289 182.086 78.6513C182.038 78.6737 181.994 78.7066 181.958 78.7479C181.921 78.7892 181.893 78.8383 181.874 78.8921C181.854 78.9459 181.845 79.0034 181.846 79.0613C181.846 79.1495 181.87 79.2356 181.914 79.3088C181.958 79.382 182.021 79.4389 182.094 79.4722C182.167 79.5055 182.248 79.5138 182.326 79.496C182.403 79.4781 182.474 79.435 182.53 79.3721C182.585 79.3091 182.623 79.2292 182.637 79.1425C182.652 79.0559 182.643 78.9664 182.611 78.8854C182.58 78.8045 182.528 78.7357 182.461 78.688C182.394 78.6403 182.317 78.6157 182.237 78.6174ZM188.315 78.6174C188.209 78.6174 188.108 78.6641 188.033 78.7474C187.958 78.8306 187.916 78.9436 187.916 79.0613C187.899 79.1274 187.896 79.1969 187.908 79.2645C187.919 79.332 187.944 79.3957 187.981 79.4506C188.019 79.5054 188.067 79.5499 188.122 79.5806C188.177 79.6112 188.238 79.6272 188.3 79.6272C188.362 79.6272 188.423 79.6112 188.478 79.5806C188.533 79.5499 188.581 79.5054 188.619 79.4506C188.656 79.3957 188.681 79.332 188.692 79.2645C188.704 79.1969 188.701 79.1274 188.684 79.0613C188.686 78.9487 188.649 78.8395 188.58 78.7567C188.511 78.6739 188.416 78.624 188.315 78.6174ZM160.987 93.5999C160.881 93.5999 160.78 93.6466 160.705 93.7299C160.63 93.8132 160.588 93.9261 160.588 94.0438C160.571 94.1099 160.568 94.1794 160.58 94.247C160.591 94.3145 160.616 94.3782 160.653 94.4331C160.691 94.4879 160.739 94.5324 160.794 94.5631C160.849 94.5937 160.91 94.6097 160.972 94.6097C161.034 94.6097 161.095 94.5937 161.15 94.5631C161.205 94.5324 161.253 94.4879 161.291 94.4331C161.328 94.3782 161.353 94.3145 161.364 94.247C161.376 94.1794 161.373 94.1099 161.356 94.0438C161.358 93.9312 161.321 93.822 161.252 93.7392C161.183 93.6564 161.088 93.6065 160.987 93.5999ZM167.058 93.5999C166.952 93.5999 166.85 93.6466 166.775 93.7299C166.701 93.8132 166.659 93.9261 166.659 94.0438C166.659 94.1615 166.701 94.2745 166.775 94.3577C166.85 94.441 166.952 94.4877 167.058 94.4877C167.163 94.4855 167.263 94.4381 167.338 94.3553C167.412 94.2725 167.455 94.1608 167.457 94.0438C167.457 93.984 167.446 93.9249 167.425 93.8699C167.404 93.8149 167.373 93.7652 167.334 93.7237C167.296 93.6823 167.25 93.6499 167.2 93.6286C167.15 93.6074 167.096 93.5976 167.042 93.5999H167.058ZM173.128 93.5999C173.076 93.5999 173.024 93.6114 172.976 93.6338C172.928 93.6562 172.885 93.6891 172.848 93.7304C172.812 93.7717 172.783 93.8208 172.764 93.8746C172.745 93.9284 172.736 93.9859 172.737 94.0438C172.737 94.132 172.76 94.2181 172.804 94.2913C172.849 94.3645 172.911 94.4214 172.985 94.4547C173.058 94.488 173.139 94.4963 173.216 94.4785C173.294 94.4606 173.365 94.4175 173.421 94.3546C173.476 94.2916 173.513 94.2117 173.528 94.1251C173.542 94.0384 173.533 93.9489 173.502 93.8679C173.471 93.787 173.418 93.7182 173.352 93.6705C173.285 93.6228 173.207 93.5982 173.128 93.5999ZM179.206 93.5999C179.1 93.5999 178.999 93.6466 178.924 93.7299C178.849 93.8132 178.807 93.9261 178.807 94.0438C178.79 94.1099 178.787 94.1794 178.798 94.247C178.81 94.3145 178.835 94.3782 178.872 94.4331C178.909 94.4879 178.957 94.5324 179.013 94.5631C179.068 94.5937 179.129 94.6097 179.191 94.6097C179.252 94.6097 179.313 94.5937 179.369 94.5631C179.424 94.5324 179.472 94.4879 179.509 94.4331C179.546 94.3782 179.572 94.3145 179.583 94.247C179.594 94.1794 179.591 94.1099 179.574 94.0438C179.576 93.9312 179.539 93.822 179.471 93.7392C179.402 93.6564 179.307 93.6065 179.206 93.5999ZM185.276 93.5999C185.17 93.5999 185.069 93.6466 184.994 93.7299C184.919 93.8132 184.877 93.9261 184.877 94.0438C184.877 94.1615 184.919 94.2745 184.994 94.3577C185.069 94.441 185.17 94.4877 185.276 94.4877C185.382 94.4855 185.482 94.4381 185.556 94.3553C185.631 94.2725 185.673 94.1608 185.675 94.0438C185.675 93.9855 185.665 93.9278 185.645 93.8739C185.625 93.8201 185.596 93.7711 185.558 93.7299C185.521 93.6887 185.477 93.656 185.429 93.6337C185.381 93.6114 185.329 93.5999 185.276 93.5999ZM191.347 93.5999C191.295 93.5999 191.243 93.6114 191.195 93.6338C191.147 93.6562 191.104 93.6891 191.067 93.7304C191.031 93.7717 191.002 93.8208 190.983 93.8746C190.964 93.9284 190.954 93.9859 190.955 94.0438C190.955 94.132 190.979 94.2181 191.023 94.2913C191.067 94.3645 191.13 94.4214 191.203 94.4547C191.277 94.488 191.357 94.4963 191.435 94.4785C191.513 94.4606 191.584 94.4175 191.639 94.3546C191.695 94.2916 191.732 94.2117 191.747 94.1251C191.761 94.0384 191.752 93.9489 191.721 93.8679C191.689 93.787 191.637 93.7182 191.57 93.6705C191.504 93.6228 191.426 93.5982 191.347 93.5999ZM157.948 88.5716C157.889 88.5527 157.826 88.5494 157.766 88.562C157.705 88.5745 157.648 88.6026 157.598 88.644C157.549 88.6854 157.509 88.7389 157.482 88.8004C157.454 88.8619 157.44 88.9297 157.44 88.9984C157.44 89.0671 157.454 89.1349 157.482 89.1964C157.509 89.2579 157.549 89.3114 157.598 89.3528C157.648 89.3942 157.705 89.4223 157.766 89.4348C157.826 89.4474 157.889 89.4441 157.948 89.4253C158.008 89.4441 158.07 89.4474 158.131 89.4348C158.192 89.4223 158.249 89.3942 158.298 89.3528C158.348 89.3114 158.388 89.2579 158.415 89.1964C158.443 89.1349 158.457 89.0671 158.457 88.9984C158.457 88.9297 158.443 88.8619 158.415 88.8004C158.388 88.7389 158.348 88.6854 158.298 88.644C158.249 88.6026 158.192 88.5745 158.131 88.562C158.07 88.5494 158.008 88.5527 157.948 88.5716ZM164.019 88.5716C163.939 88.5716 163.862 88.5978 163.796 88.647C163.73 88.6962 163.679 88.766 163.649 88.8476C163.619 88.9293 163.612 89.0189 163.628 89.1053C163.644 89.1916 163.683 89.2707 163.739 89.3324C163.796 89.3942 163.868 89.4357 163.946 89.4519C164.024 89.468 164.104 89.458 164.177 89.4231C164.25 89.3882 164.311 89.33 164.354 89.2559C164.397 89.1817 164.419 89.0951 164.418 89.0069C164.418 88.949 164.407 88.8917 164.387 88.8383C164.367 88.7849 164.338 88.7366 164.3 88.696C164.263 88.6555 164.219 88.6236 164.171 88.6022C164.122 88.5808 164.071 88.5704 164.019 88.5716ZM170.097 88.5716C170.017 88.5699 169.939 88.5947 169.872 88.6428C169.805 88.6909 169.753 88.7602 169.722 88.8416C169.691 88.9231 169.682 89.013 169.697 89.0999C169.712 89.1868 169.751 89.2667 169.807 89.3293C169.863 89.3919 169.935 89.4343 170.013 89.4512C170.091 89.4681 170.172 89.4586 170.245 89.4239C170.318 89.3892 170.381 89.331 170.424 89.2567C170.467 89.1824 170.49 89.0955 170.488 89.0069C170.488 88.8944 170.449 88.7861 170.379 88.705C170.309 88.6238 170.213 88.576 170.112 88.5716H170.097ZM176.167 88.5716C176.108 88.5527 176.045 88.5494 175.984 88.562C175.924 88.5745 175.866 88.6026 175.817 88.644C175.768 88.6854 175.728 88.7389 175.7 88.8004C175.673 88.8619 175.658 88.9297 175.658 88.9984C175.658 89.0671 175.673 89.1349 175.7 89.1964C175.728 89.2579 175.768 89.3114 175.817 89.3528C175.866 89.3942 175.924 89.4223 175.984 89.4348C176.045 89.4474 176.108 89.4441 176.167 89.4253C176.226 89.4441 176.289 89.4474 176.35 89.4348C176.41 89.4223 176.468 89.3942 176.517 89.3528C176.566 89.3114 176.606 89.2579 176.634 89.1964C176.661 89.1349 176.676 89.0671 176.676 88.9984C176.676 88.9297 176.661 88.8619 176.634 88.8004C176.606 88.7389 176.566 88.6854 176.517 88.644C176.468 88.6026 176.41 88.5745 176.35 88.562C176.289 88.5494 176.226 88.5527 176.167 88.5716ZM182.237 88.5716C182.158 88.5716 182.081 88.5978 182.015 88.647C181.949 88.6962 181.898 88.766 181.868 88.8476C181.838 88.9293 181.831 89.0189 181.847 89.1053C181.863 89.1916 181.901 89.2707 181.958 89.3324C182.015 89.3942 182.086 89.4357 182.164 89.4519C182.242 89.468 182.323 89.458 182.395 89.4231C182.468 89.3882 182.53 89.33 182.573 89.2559C182.616 89.1817 182.638 89.0951 182.636 89.0069C182.636 88.949 182.626 88.8917 182.606 88.8383C182.586 88.7849 182.556 88.7366 182.519 88.696C182.482 88.6555 182.438 88.6236 182.389 88.6022C182.341 88.5808 182.289 88.5704 182.237 88.5716ZM188.315 88.5716C188.236 88.5699 188.158 88.5947 188.091 88.6428C188.024 88.6909 187.972 88.7602 187.941 88.8416C187.909 88.9231 187.901 89.013 187.916 89.0999C187.931 89.1868 187.969 89.2667 188.026 89.3293C188.082 89.3919 188.154 89.4343 188.232 89.4512C188.31 89.4681 188.391 89.4586 188.464 89.4239C188.537 89.3892 188.599 89.331 188.643 89.2567C188.686 89.1824 188.708 89.0955 188.707 89.0069C188.707 88.9498 188.697 88.8932 188.677 88.8403C188.657 88.7875 188.628 88.7395 188.592 88.6991C188.556 88.6587 188.513 88.6266 188.465 88.6047C188.418 88.5828 188.367 88.5716 188.315 88.5716ZM194.455 88.5716H194.347C194.277 88.5707 194.207 88.5906 194.146 88.6294C194.084 88.6682 194.033 88.7244 193.998 88.7923C193.962 88.8602 193.944 88.9374 193.944 89.0159C193.944 89.0945 193.963 89.1716 193.998 89.2394C194.034 89.3073 194.085 89.3634 194.146 89.402C194.208 89.4406 194.278 89.4604 194.348 89.4593C194.419 89.4583 194.488 89.4364 194.548 89.3959C194.609 89.3554 194.659 89.2978 194.693 89.2289C194.67 89.0155 194.577 88.8021 194.493 88.5886L194.455 88.5716ZM160.949 103.537C160.869 103.535 160.791 103.56 160.724 103.608C160.658 103.656 160.605 103.726 160.574 103.807C160.543 103.889 160.534 103.978 160.55 104.065C160.565 104.152 160.603 104.232 160.659 104.295C160.715 104.357 160.787 104.4 160.865 104.417C160.943 104.433 161.024 104.424 161.098 104.389C161.171 104.355 161.233 104.296 161.276 104.222C161.32 104.148 161.342 104.061 161.34 103.972C161.337 103.867 161.299 103.766 161.235 103.689C161.17 103.612 161.082 103.564 160.987 103.554L160.949 103.537ZM167.019 103.537C166.96 103.518 166.897 103.515 166.837 103.527C166.776 103.54 166.719 103.568 166.669 103.609C166.62 103.651 166.58 103.704 166.552 103.766C166.525 103.827 166.511 103.895 166.511 103.964C166.511 104.033 166.525 104.1 166.552 104.162C166.58 104.223 166.62 104.277 166.669 104.318C166.719 104.36 166.776 104.388 166.837 104.4C166.897 104.413 166.96 104.41 167.019 104.391C167.079 104.41 167.141 104.413 167.202 104.4C167.263 104.388 167.32 104.36 167.369 104.318C167.419 104.277 167.459 104.223 167.486 104.162C167.514 104.1 167.528 104.033 167.528 103.964C167.528 103.895 167.514 103.827 167.486 103.766C167.459 103.704 167.419 103.651 167.369 103.609C167.32 103.568 167.263 103.54 167.202 103.527C167.141 103.515 167.079 103.518 167.019 103.537ZM173.09 103.537C173.01 103.537 172.933 103.563 172.867 103.612C172.801 103.662 172.75 103.731 172.72 103.813C172.69 103.895 172.683 103.984 172.699 104.071C172.715 104.157 172.754 104.236 172.81 104.298C172.867 104.36 172.939 104.401 173.017 104.417C173.094 104.433 173.175 104.423 173.248 104.389C173.32 104.354 173.382 104.295 173.425 104.221C173.468 104.147 173.49 104.061 173.489 103.972C173.485 103.866 173.447 103.764 173.38 103.687C173.313 103.61 173.224 103.562 173.128 103.554L173.09 103.537ZM179.168 103.537C179.088 103.535 179.01 103.56 178.943 103.608C178.876 103.656 178.824 103.726 178.793 103.807C178.762 103.889 178.753 103.978 178.768 104.065C178.783 104.152 178.822 104.232 178.878 104.295C178.934 104.357 179.006 104.4 179.084 104.417C179.162 104.433 179.243 104.424 179.316 104.389C179.389 104.355 179.452 104.296 179.495 104.222C179.538 104.148 179.561 104.061 179.559 103.972C179.556 103.867 179.518 103.766 179.453 103.689C179.388 103.612 179.3 103.564 179.206 103.554L179.168 103.537ZM185.238 103.537C185.179 103.518 185.116 103.515 185.055 103.527C184.995 103.54 184.937 103.568 184.888 103.609C184.839 103.651 184.799 103.704 184.771 103.766C184.744 103.827 184.729 103.895 184.729 103.964C184.729 104.033 184.744 104.1 184.771 104.162C184.799 104.223 184.839 104.277 184.888 104.318C184.937 104.36 184.995 104.388 185.055 104.4C185.116 104.413 185.179 104.41 185.238 104.391C185.297 104.41 185.36 104.413 185.421 104.4C185.481 104.388 185.539 104.36 185.588 104.318C185.637 104.277 185.677 104.223 185.705 104.162C185.732 104.1 185.747 104.033 185.747 103.964C185.747 103.895 185.732 103.827 185.705 103.766C185.677 103.704 185.637 103.651 185.588 103.609C185.539 103.568 185.481 103.54 185.421 103.527C185.36 103.515 185.297 103.518 185.238 103.537ZM191.308 103.537C191.229 103.537 191.152 103.563 191.086 103.612C191.02 103.662 190.969 103.731 190.939 103.813C190.909 103.895 190.902 103.984 190.918 104.071C190.934 104.157 190.972 104.236 191.029 104.298C191.085 104.36 191.157 104.401 191.235 104.417C191.313 104.433 191.394 104.423 191.466 104.389C191.539 104.354 191.601 104.295 191.644 104.221C191.687 104.147 191.709 104.061 191.707 103.972C191.704 103.866 191.665 103.764 191.599 103.687C191.532 103.61 191.442 103.562 191.347 103.554L191.308 103.537ZM197.386 103.537C197.307 103.535 197.229 103.56 197.162 103.608C197.095 103.656 197.043 103.726 197.011 103.807C196.98 103.889 196.972 103.978 196.987 104.065C197.002 104.152 197.04 104.232 197.096 104.295C197.153 104.357 197.225 104.4 197.303 104.417C197.381 104.433 197.462 104.424 197.535 104.389C197.608 104.355 197.67 104.296 197.714 104.222C197.757 104.148 197.779 104.061 197.778 103.972C197.774 103.867 197.737 103.766 197.672 103.689C197.607 103.612 197.519 103.564 197.425 103.554L197.386 103.537ZM157.91 98.5001C157.804 98.5001 157.703 98.5469 157.628 98.6302C157.553 98.7134 157.511 98.8263 157.511 98.9441C157.511 99.0618 157.553 99.1747 157.628 99.258C157.703 99.3412 157.804 99.388 157.91 99.388C158.015 99.3858 158.116 99.3383 158.19 99.2555C158.264 99.1728 158.307 99.0611 158.309 98.9441C158.306 98.8363 158.267 98.7336 158.201 98.6551C158.135 98.5765 158.045 98.5275 157.948 98.5172L157.91 98.5001ZM163.98 98.5001C163.928 98.5001 163.877 98.5117 163.829 98.5341C163.781 98.5565 163.737 98.5893 163.701 98.6307C163.664 98.672 163.636 98.721 163.616 98.7748C163.597 98.8286 163.588 98.8862 163.589 98.9441C163.589 99.0322 163.613 99.1184 163.657 99.1916C163.701 99.2647 163.764 99.3216 163.837 99.355C163.91 99.3883 163.991 99.3966 164.069 99.3787C164.146 99.3609 164.217 99.3178 164.273 99.2548C164.328 99.1919 164.366 99.112 164.38 99.0253C164.395 98.9387 164.386 98.8491 164.354 98.7682C164.323 98.6872 164.271 98.6185 164.204 98.5708C164.137 98.523 164.06 98.4984 163.98 98.5001ZM170.058 98.5001C169.952 98.5001 169.851 98.5469 169.776 98.6302C169.701 98.7134 169.659 98.8263 169.659 98.9441C169.642 99.0101 169.639 99.0797 169.651 99.1472C169.662 99.2148 169.687 99.2785 169.724 99.3333C169.762 99.3882 169.81 99.4327 169.865 99.4633C169.92 99.494 169.981 99.5099 170.043 99.5099C170.105 99.5099 170.166 99.494 170.221 99.4633C170.276 99.4327 170.324 99.3882 170.362 99.3333C170.399 99.2785 170.424 99.2148 170.435 99.1472C170.447 99.0797 170.444 99.0101 170.427 98.9441C170.427 98.8434 170.395 98.7459 170.338 98.6681C170.281 98.5903 170.201 98.5369 170.112 98.5172L170.058 98.5001ZM176.129 98.5001C176.023 98.5001 175.921 98.5469 175.846 98.6302C175.772 98.7134 175.73 98.8263 175.73 98.9441C175.73 99.0618 175.772 99.1747 175.846 99.258C175.921 99.3412 176.023 99.388 176.129 99.388C176.234 99.3858 176.334 99.3383 176.409 99.2555C176.483 99.1728 176.526 99.0611 176.528 98.9441C176.524 98.8363 176.486 98.7336 176.42 98.6551C176.353 98.5765 176.263 98.5275 176.167 98.5172L176.129 98.5001ZM182.199 98.5001C182.147 98.5001 182.095 98.5117 182.047 98.5341C181.999 98.5565 181.956 98.5893 181.919 98.6307C181.883 98.672 181.854 98.721 181.835 98.7748C181.816 98.8286 181.807 98.8862 181.808 98.9441C181.808 99.0322 181.831 99.1184 181.875 99.1916C181.92 99.2647 181.982 99.3216 182.056 99.355C182.129 99.3883 182.21 99.3966 182.287 99.3787C182.365 99.3609 182.436 99.3178 182.492 99.2548C182.547 99.1919 182.584 99.112 182.599 99.0253C182.613 98.9387 182.604 98.8491 182.573 98.7682C182.542 98.6872 182.489 98.6185 182.423 98.5708C182.356 98.523 182.278 98.4984 182.199 98.5001ZM188.277 98.5001C188.171 98.5001 188.07 98.5469 187.995 98.6302C187.92 98.7134 187.878 98.8263 187.878 98.9441C187.861 99.0101 187.858 99.0797 187.869 99.1472C187.881 99.2148 187.906 99.2785 187.943 99.3333C187.98 99.3882 188.028 99.4327 188.084 99.4633C188.139 99.494 188.2 99.5099 188.262 99.5099C188.323 99.5099 188.384 99.494 188.44 99.4633C188.495 99.4327 188.543 99.3882 188.58 99.3333C188.617 99.2785 188.643 99.2148 188.654 99.1472C188.665 99.0797 188.662 99.0101 188.645 98.9441C188.645 98.841 188.611 98.7415 188.551 98.6633C188.49 98.5851 188.407 98.5334 188.315 98.5172L188.277 98.5001ZM194.347 98.5001C194.241 98.5001 194.14 98.5469 194.065 98.6302C193.99 98.7134 193.948 98.8263 193.948 98.9441C193.948 99.0618 193.99 99.1747 194.065 99.258C194.14 99.3412 194.241 99.388 194.347 99.388C194.452 99.3858 194.553 99.3383 194.627 99.2555C194.702 99.1728 194.744 99.0611 194.746 98.9441C194.743 98.8363 194.705 98.7336 194.638 98.6551C194.572 98.5765 194.482 98.5275 194.386 98.5172L194.347 98.5001ZM160.949 113.483C160.897 113.483 160.845 113.494 160.796 113.516C160.748 113.539 160.704 113.571 160.667 113.613C160.63 113.654 160.6 113.703 160.58 113.757C160.56 113.811 160.55 113.868 160.55 113.927C160.533 113.993 160.53 114.062 160.541 114.13C160.553 114.197 160.578 114.261 160.615 114.316C160.652 114.371 160.7 114.415 160.756 114.446C160.811 114.476 160.872 114.492 160.934 114.492C160.995 114.492 161.056 114.476 161.112 114.446C161.167 114.415 161.215 114.371 161.252 114.316C161.289 114.261 161.315 114.197 161.326 114.13C161.337 114.062 161.334 113.993 161.317 113.927C161.317 113.823 161.283 113.724 161.223 113.646C161.162 113.568 161.079 113.516 160.987 113.5L160.949 113.483ZM167.019 113.483C166.913 113.483 166.812 113.529 166.737 113.613C166.662 113.696 166.62 113.809 166.62 113.927C166.62 114.044 166.662 114.157 166.737 114.24C166.812 114.324 166.913 114.37 167.019 114.37C167.125 114.368 167.225 114.321 167.299 114.238C167.374 114.155 167.416 114.044 167.418 113.927C167.415 113.816 167.374 113.711 167.305 113.632C167.235 113.553 167.142 113.506 167.042 113.5L167.019 113.483ZM173.09 113.483C173.038 113.483 172.986 113.494 172.938 113.517C172.89 113.539 172.847 113.572 172.81 113.613C172.774 113.655 172.745 113.704 172.726 113.757C172.707 113.811 172.697 113.869 172.698 113.927C172.698 114.015 172.722 114.101 172.766 114.174C172.81 114.247 172.873 114.304 172.946 114.337C173.02 114.371 173.1 114.379 173.178 114.361C173.256 114.343 173.327 114.3 173.382 114.237C173.438 114.174 173.475 114.094 173.49 114.008C173.504 113.921 173.495 113.832 173.464 113.751C173.432 113.67 173.38 113.601 173.313 113.553C173.247 113.506 173.169 113.481 173.09 113.483ZM179.168 113.483C179.115 113.483 179.063 113.494 179.015 113.516C178.966 113.539 178.922 113.571 178.885 113.613C178.848 113.654 178.819 113.703 178.799 113.757C178.779 113.811 178.769 113.868 178.769 113.927C178.752 113.993 178.749 114.062 178.76 114.13C178.771 114.197 178.796 114.261 178.834 114.316C178.871 114.371 178.919 114.415 178.974 114.446C179.03 114.476 179.091 114.492 179.152 114.492C179.214 114.492 179.275 114.476 179.33 114.446C179.386 114.415 179.434 114.371 179.471 114.316C179.508 114.261 179.533 114.197 179.545 114.13C179.556 114.062 179.553 113.993 179.536 113.927C179.535 113.823 179.502 113.724 179.441 113.646C179.381 113.568 179.298 113.516 179.206 113.5L179.168 113.483ZM185.238 113.483C185.186 113.483 185.134 113.494 185.085 113.516C185.037 113.539 184.993 113.571 184.956 113.613C184.919 113.654 184.889 113.703 184.869 113.757C184.849 113.811 184.839 113.868 184.839 113.927C184.839 114.044 184.881 114.157 184.956 114.24C185.031 114.324 185.132 114.37 185.238 114.37C185.343 114.368 185.444 114.321 185.518 114.238C185.592 114.155 185.635 114.044 185.637 113.927C185.634 113.819 185.595 113.716 185.529 113.638C185.463 113.559 185.373 113.51 185.276 113.5L185.238 113.483ZM191.308 113.483C191.256 113.483 191.205 113.494 191.157 113.517C191.109 113.539 191.065 113.572 191.029 113.613C190.992 113.655 190.964 113.704 190.944 113.757C190.925 113.811 190.916 113.869 190.917 113.927C190.917 114.015 190.941 114.101 190.985 114.174C191.029 114.247 191.092 114.304 191.165 114.337C191.238 114.371 191.319 114.379 191.397 114.361C191.474 114.343 191.545 114.3 191.601 114.237C191.656 114.174 191.694 114.094 191.708 114.008C191.723 113.921 191.714 113.832 191.682 113.751C191.651 113.67 191.599 113.601 191.532 113.553C191.465 113.506 191.388 113.481 191.308 113.483ZM197.386 113.483C197.28 113.483 197.179 113.529 197.104 113.613C197.029 113.696 196.987 113.809 196.987 113.927C196.986 114.002 197.005 114.076 197.041 114.14L197.762 113.816C197.742 113.731 197.699 113.655 197.638 113.598C197.578 113.542 197.503 113.507 197.425 113.5L197.386 113.483ZM157.91 108.454C157.851 108.435 157.788 108.432 157.727 108.445C157.667 108.457 157.609 108.485 157.56 108.527C157.511 108.568 157.471 108.622 157.443 108.683C157.416 108.745 157.401 108.812 157.401 108.881C157.401 108.95 157.416 109.018 157.443 109.079C157.471 109.141 157.511 109.194 157.56 109.236C157.609 109.277 157.667 109.305 157.727 109.318C157.788 109.33 157.851 109.327 157.91 109.308C157.969 109.327 158.032 109.33 158.093 109.318C158.153 109.305 158.211 109.277 158.26 109.236C158.309 109.194 158.349 109.141 158.377 109.079C158.404 109.018 158.419 108.95 158.419 108.881C158.419 108.812 158.404 108.745 158.377 108.683C158.349 108.622 158.309 108.568 158.26 108.527C158.211 108.485 158.153 108.457 158.093 108.445C158.032 108.432 157.969 108.435 157.91 108.454ZM163.98 108.454C163.901 108.454 163.824 108.481 163.758 108.53C163.692 108.579 163.641 108.649 163.611 108.73C163.581 108.812 163.574 108.902 163.59 108.988C163.606 109.074 163.644 109.153 163.701 109.215C163.758 109.277 163.829 109.319 163.907 109.335C163.985 109.351 164.066 109.341 164.138 109.306C164.211 109.271 164.273 109.213 164.316 109.139C164.359 109.065 164.381 108.978 164.379 108.89C164.376 108.783 164.337 108.681 164.271 108.604C164.204 108.527 164.114 108.48 164.019 108.471L163.98 108.454ZM170.058 108.454C169.979 108.453 169.901 108.477 169.834 108.526C169.767 108.574 169.715 108.643 169.683 108.724C169.652 108.806 169.644 108.896 169.659 108.983C169.674 109.07 169.712 109.149 169.769 109.212C169.825 109.275 169.897 109.317 169.975 109.334C170.053 109.351 170.134 109.341 170.207 109.307C170.28 109.272 170.342 109.214 170.386 109.14C170.429 109.065 170.451 108.978 170.45 108.89C170.447 108.787 170.411 108.688 170.35 108.612C170.288 108.535 170.204 108.485 170.112 108.471L170.058 108.454ZM176.129 108.454C176.069 108.435 176.007 108.432 175.946 108.445C175.885 108.457 175.828 108.485 175.779 108.527C175.729 108.568 175.689 108.622 175.662 108.683C175.634 108.745 175.62 108.812 175.62 108.881C175.62 108.95 175.634 109.018 175.662 109.079C175.689 109.141 175.729 109.194 175.779 109.236C175.828 109.277 175.885 109.305 175.946 109.318C176.007 109.33 176.069 109.327 176.129 109.308C176.188 109.327 176.251 109.33 176.311 109.318C176.372 109.305 176.429 109.277 176.479 109.236C176.528 109.194 176.568 109.141 176.595 109.079C176.623 109.018 176.637 108.95 176.637 108.881C176.637 108.812 176.623 108.745 176.595 108.683C176.568 108.622 176.528 108.568 176.479 108.527C176.429 108.485 176.372 108.457 176.311 108.445C176.251 108.432 176.188 108.435 176.129 108.454ZM182.199 108.454C182.12 108.454 182.042 108.481 181.976 108.53C181.911 108.579 181.86 108.649 181.83 108.73C181.8 108.812 181.792 108.902 181.808 108.988C181.824 109.074 181.863 109.153 181.92 109.215C181.976 109.277 182.048 109.319 182.126 109.335C182.204 109.351 182.284 109.341 182.357 109.306C182.43 109.271 182.492 109.213 182.535 109.139C182.577 109.065 182.6 108.978 182.598 108.89C182.595 108.783 182.556 108.681 182.489 108.604C182.423 108.527 182.333 108.48 182.237 108.471L182.199 108.454ZM188.277 108.454C188.197 108.453 188.119 108.477 188.052 108.526C187.986 108.574 187.933 108.643 187.902 108.724C187.871 108.806 187.862 108.896 187.878 108.983C187.893 109.07 187.931 109.149 187.987 109.212C188.043 109.275 188.115 109.317 188.193 109.334C188.271 109.351 188.352 109.341 188.426 109.307C188.499 109.272 188.561 109.214 188.604 109.14C188.648 109.065 188.67 108.978 188.668 108.89C188.665 108.784 188.627 108.684 188.563 108.607C188.498 108.53 188.41 108.482 188.315 108.471L188.277 108.454ZM194.347 108.454C194.288 108.435 194.225 108.432 194.165 108.445C194.104 108.457 194.047 108.485 193.997 108.527C193.948 108.568 193.908 108.622 193.88 108.683C193.853 108.745 193.839 108.812 193.839 108.881C193.839 108.95 193.853 109.018 193.88 109.079C193.908 109.141 193.948 109.194 193.997 109.236C194.047 109.277 194.104 109.305 194.165 109.318C194.225 109.33 194.288 109.327 194.347 109.308C194.407 109.327 194.469 109.33 194.53 109.318C194.591 109.305 194.648 109.277 194.697 109.236C194.747 109.194 194.787 109.141 194.814 109.079C194.842 109.018 194.856 108.95 194.856 108.881C194.856 108.812 194.842 108.745 194.814 108.683C194.787 108.622 194.747 108.568 194.697 108.527C194.648 108.485 194.591 108.457 194.53 108.445C194.469 108.432 194.407 108.435 194.347 108.454ZM200.418 108.454C200.338 108.454 200.261 108.481 200.195 108.53C200.129 108.579 200.078 108.649 200.048 108.73C200.018 108.812 200.011 108.902 200.027 108.988C200.043 109.074 200.082 109.153 200.138 109.215C200.195 109.277 200.267 109.319 200.345 109.335C200.422 109.351 200.503 109.341 200.576 109.306C200.648 109.271 200.71 109.213 200.753 109.139C200.796 109.065 200.818 108.978 200.817 108.89C200.813 108.783 200.775 108.681 200.708 108.604C200.641 108.527 200.552 108.48 200.456 108.471L200.418 108.454Z" fill="white"/>
<path d="M202.213 111.357C196.688 115.003 190.211 116.94 183.903 117.786C180.971 101.121 175.983 68.194 174.809 60.4167C176.351 60.9148 177.808 61.6936 179.122 62.7217C182.334 65.3153 185.067 68.5733 187.172 72.3174C194.079 84.0729 202.213 111.357 202.213 111.357Z" fill="#263238"/>
<path d="M184.44 67.0242C194.516 79.8298 208.445 101.83 203.15 107.336C194.439 116.377 167.848 123.13 161.747 124.41C159.107 124.957 152.669 105.996 154.303 103.375C155.938 100.754 184.233 96.9551 184.309 95.0001C184.363 93.8988 180.419 84.6361 176.973 73.1026C172.99 59.7848 181.554 63.3448 184.44 67.0242Z" fill="#EB9481"/>
<path d="M158.86 101.429C158.86 101.429 150.71 101.941 145.391 102.556C142.422 102.897 137.387 103.99 135.308 105.347C132.238 107.379 120.389 118.093 122.66 121.337C124.717 124.274 133.819 113.654 133.819 113.654C133.819 113.654 123.781 123.488 126.851 126.511C129.92 129.533 138.753 115.993 138.753 115.993C138.753 115.993 128.646 126.348 132.246 128.918C134.97 130.856 143.603 119.092 143.603 119.092C143.603 119.092 134.97 128.064 137.694 130.19C140.703 132.538 149.282 122.242 149.282 122.242C157.018 126.357 162.221 124.803 165.797 123.19C166.665 122.823 158.86 101.429 158.86 101.429Z" fill="#EB9481"/>
<path d="M137.113 110.018C135.9 111.119 134.657 112.237 133.537 113.432C132.416 114.628 131.327 115.925 130.306 117.257C128.949 118.975 127.772 120.86 126.799 122.874C128.763 119.46 132.723 114.986 133.851 113.765C134.98 112.545 136.039 111.256 137.159 110.035C137.174 110.018 137.113 109.966 137.113 110.018Z" fill="#263238"/>
<path d="M141.15 114.422C139.615 115.916 138.081 117.325 136.676 118.896C135.272 120.466 134.006 122.063 132.67 123.728C132.57 123.856 132.67 123.873 132.77 123.728C134.159 122.131 135.556 120.765 136.968 119.186C138.38 117.607 139.731 115.959 141.181 114.439C141.204 114.439 141.173 114.397 141.15 114.422Z" fill="#263238"/>
<path d="M145.232 117.538C142.885 119.757 140.751 122.241 138.863 124.948C138.763 125.085 138.863 125.093 139.001 124.948C141.073 122.438 142.684 120.449 145.301 117.606C145.347 117.581 145.286 117.487 145.232 117.538Z" fill="#263238"/>
<path d="M153.341 101.753C149.619 101.992 145.805 102.24 142.113 102.82C138.91 103.217 135.847 104.5 133.203 106.551C130.712 108.699 128.4 111.094 126.297 113.705C125.087 115.024 124.011 116.487 123.089 118.067C122.575 119.032 121.823 120.552 122.644 121.482C123.641 122.652 127.003 121.201 130.402 117.299C130.525 117.163 130.441 117.086 130.31 117.214C125.506 122.157 123.449 121.773 122.874 121.021C122.506 120.543 122.782 119.638 123.05 118.947C123.491 117.945 124.046 117.009 124.7 116.164C126.862 113.217 129.289 110.525 131.945 108.13C134.792 105.466 138.259 103.752 141.944 103.187C145.72 102.573 149.619 102.624 153.364 101.95C153.44 101.898 153.417 101.753 153.341 101.753Z" fill="#263238"/>
<path d="M196.434 82.4933L179.129 83.6288C177.742 79.2196 176.672 74.695 175.928 70.0976C175.882 69.8244 175.844 69.5512 175.806 69.2951C175.806 69.2097 175.806 69.1329 175.806 69.056C174.831 61.9703 176.819 60.0068 182.981 65.5046C185.9 68.1445 188.586 71.0889 191.001 74.2978L191.223 74.588C192.39 76.1247 193.372 77.5504 194.162 78.7541C194.324 79.0017 194.485 79.2407 194.623 79.4712C195.789 81.2982 196.434 82.4933 196.434 82.4933Z" fill="#FFC727"/>
<path d="M179.597 64.1897C179.598 64.2781 179.576 64.365 179.533 64.4392C179.49 64.5134 179.427 64.5715 179.354 64.6061C179.281 64.6407 179.2 64.6502 179.122 64.6334C179.044 64.6166 178.972 64.5742 178.916 64.5116C178.859 64.4491 178.821 64.3693 178.806 64.2826C178.791 64.1958 178.8 64.1059 178.831 64.0246C178.862 63.9432 178.914 63.8741 178.981 63.826C179.048 63.7779 179.126 63.7532 179.205 63.7548C179.309 63.7548 179.409 63.8007 179.482 63.8822C179.556 63.9638 179.597 64.0744 179.597 64.1897Z" fill="white"/>
<path d="M179.597 74.1609C179.597 74.2489 179.573 74.335 179.529 74.408C179.485 74.4811 179.422 74.5379 179.349 74.5712C179.275 74.6045 179.195 74.6128 179.117 74.595C179.04 74.5772 178.968 74.5341 178.913 74.4712C178.857 74.4084 178.82 74.3286 178.806 74.242C178.791 74.1555 178.8 74.066 178.831 73.9852C178.863 73.9043 178.915 73.8357 178.982 73.788C179.048 73.7404 179.126 73.7158 179.206 73.7175C179.258 73.7175 179.309 73.729 179.357 73.7514C179.405 73.7738 179.449 73.8066 179.485 73.8479C179.522 73.8891 179.55 73.9381 179.569 73.9918C179.589 74.0456 179.598 74.103 179.597 74.1609Z" fill="white"/>
<path d="M185.276 74.5868C185.496 74.5868 185.675 74.3883 185.675 74.1434C185.675 73.8986 185.496 73.7001 185.276 73.7001C185.056 73.7001 184.877 73.8986 184.877 74.1434C184.877 74.3883 185.056 74.5868 185.276 74.5868Z" fill="white"/>
<path d="M176.165 69.5503C176.385 69.5503 176.564 69.3518 176.564 69.1069C176.564 68.8621 176.385 68.6636 176.165 68.6636C175.944 68.6636 175.766 68.8621 175.766 69.1069C175.766 69.3518 175.944 69.5503 176.165 69.5503Z" fill="white"/>
<path d="M182.237 69.5503C182.457 69.5503 182.636 69.3518 182.636 69.1069C182.636 68.8621 182.457 68.6636 182.237 68.6636C182.017 68.6636 181.838 68.8621 181.838 69.1069C181.838 69.3518 182.017 69.5503 182.237 69.5503Z" fill="white"/>
<path d="M182.237 79.5042C182.457 79.5042 182.636 79.3057 182.636 79.0608C182.636 78.8159 182.457 78.6174 182.237 78.6174C182.017 78.6174 181.838 78.8159 181.838 79.0608C181.838 79.3057 182.017 79.5042 182.237 79.5042Z" fill="white"/>
<path d="M188.317 79.5042C188.537 79.5042 188.716 79.3057 188.716 79.0608C188.716 78.8159 188.537 78.6174 188.317 78.6174C188.097 78.6174 187.918 78.8159 187.918 79.0608C187.918 79.3057 188.097 79.5042 188.317 79.5042Z" fill="white"/>
<path d="M194.591 79.4371C194.529 79.4814 194.457 79.5051 194.383 79.5054C194.278 79.5054 194.176 79.4586 194.101 79.3754C194.026 79.2921 193.984 79.1792 193.984 79.0615C193.984 78.996 193.996 78.9311 194.021 78.8719C194.047 78.8127 194.084 78.7607 194.13 78.7201C194.291 78.9676 194.453 79.2066 194.591 79.4371Z" fill="white"/>
<path d="M169.007 29.7688C168.048 29.3675 167.127 23.3831 170.672 20.5317C174.218 17.6803 178.738 20.933 176.812 25.8418C175.638 28.9151 171.049 30.6225 169.007 29.7688Z" fill="#263238"/>
<path d="M179.121 62.7217L179.067 62.79C176.243 66.1536 170.556 72.2576 166.75 71.7283C165.623 71.5237 164.548 71.0567 163.594 70.3579C162.641 69.6591 161.831 68.7443 161.217 67.6732C162.342 66.0919 163.568 64.6026 164.885 63.2169C169.344 58.069 174.463 59.1959 179.121 62.7217Z" fill="#EB9481"/>
<path d="M173.656 61.7912C173.595 62.7046 170.587 69.0989 166.957 69.5428C165.767 69.6794 164.777 62.4912 164.777 62.4912L164.593 61.979L162.053 54.7993L169.121 47.8246L170.149 46.8855C170.149 46.8855 170.732 48.9002 171.431 51.4187C171.431 51.5382 171.492 51.6492 171.53 51.7772C171.569 51.9053 171.615 52.0504 171.646 52.187C171.753 52.5541 171.86 52.9383 171.968 53.3224C172.075 53.7066 172.121 53.9029 172.198 54.1761C172.275 54.4493 172.344 54.7823 172.428 55.0981C172.972 57.296 173.382 59.5321 173.656 61.7912Z" fill="#EB9481"/>
<path d="M171.431 51.4187C171.049 53.6256 170.239 55.7135 169.058 57.5372C167.877 59.3608 166.354 60.8766 164.593 61.979L162.053 54.7993L169.121 47.8246L170.149 46.8855C170.149 46.8855 170.732 48.9002 171.431 51.4187Z" fill="#263238"/>
<path d="M151.277 44.495C152.044 58.0091 159.427 59.0079 162.021 58.8201C164.4 58.6494 172.473 57.7188 172.949 44.1962C173.425 30.6735 167.531 26.7977 162.075 26.8745C156.618 26.9514 150.494 30.9894 151.277 44.495Z" fill="#EB9481"/>
<path d="M153.403 42.284C153.679 42.1986 153.925 42.0791 154.171 41.9681C154.468 41.9014 154.738 41.7274 154.938 41.4729C154.986 41.3813 155.005 41.2746 154.993 41.1695C154.98 41.0645 154.937 40.967 154.869 40.8924C154.712 40.7689 154.529 40.6929 154.338 40.6719C154.147 40.651 153.955 40.6858 153.779 40.7729C153.403 40.8972 153.081 41.1705 152.874 41.5412C152.833 41.6302 152.816 41.7304 152.825 41.8299C152.833 41.9293 152.868 42.0238 152.924 42.1022C152.979 42.1805 153.054 42.2392 153.139 42.2715C153.224 42.3037 153.316 42.3081 153.403 42.284Z" fill="#263238"/>
<path d="M161.785 41.3085C161.502 41.3028 161.221 41.28 160.94 41.2403C160.645 41.2634 160.35 41.1764 160.104 40.9931C160.034 40.9183 159.989 40.8199 159.975 40.7135C159.961 40.607 159.98 40.4984 160.027 40.4048C160.148 40.2397 160.306 40.1132 160.486 40.0383C160.665 39.9634 160.859 39.9428 161.048 39.9784C161.438 39.9778 161.814 40.1424 162.099 40.4389C162.162 40.5098 162.205 40.5996 162.222 40.6971C162.24 40.7946 162.231 40.8957 162.198 40.988C162.165 41.0803 162.108 41.1597 162.034 41.2167C161.961 41.2736 161.874 41.3055 161.785 41.3085Z" fill="#263238"/>
<path d="M160.59 44.9391C160.59 44.9391 160.659 44.9391 160.659 45.0074C160.728 45.9294 160.943 46.9709 161.718 47.1843V47.2356C160.79 47.2014 160.521 45.8184 160.59 44.9391Z" fill="#263238"/>
<path d="M161.227 43.8891C162.539 43.616 162.946 46.5527 161.726 46.8088C160.506 47.0649 160.137 44.1196 161.227 43.8891Z" fill="#263238"/>
<path d="M161.769 43.9573C162.022 44.0852 162.283 44.341 162.537 44.3239C162.79 44.3069 163.066 43.9573 163.235 43.6248C163.235 43.6248 163.281 43.6248 163.289 43.6248C163.373 44.1875 163.289 44.8014 162.721 44.9719C162.153 45.1424 161.815 44.6991 161.608 44.1193C161.6 44.0766 161.669 43.9061 161.769 43.9573Z" fill="#263238"/>
<path d="M155.4 45.3837C155.4 45.3837 155.339 45.4434 155.347 45.4776C155.5 46.3825 155.546 47.4496 154.848 47.885C154.848 47.885 154.848 47.9448 154.848 47.9362C155.746 47.6289 155.676 46.2203 155.4 45.3837Z" fill="#263238"/>
<path d="M154.534 44.5635C153.199 44.683 153.521 47.6454 154.749 47.5259C155.977 47.4064 155.647 44.4611 154.534 44.5635Z" fill="#263238"/>
<path d="M153.995 44.8366C153.803 45.0156 153.626 45.3311 153.381 45.3823C153.135 45.4334 152.844 45.1521 152.613 44.8707C152.659 45.4334 152.89 46.0047 153.381 46.0473C153.872 46.0899 154.11 45.5613 154.148 44.9815C154.163 44.9048 154.071 44.7598 153.995 44.8366Z" fill="#263238"/>
<path d="M157.739 48.4907C157.295 48.6091 156.867 48.7898 156.465 49.0285C156.388 46.1345 156.726 43.249 156.611 40.3635C156.611 40.3408 156.603 40.3191 156.588 40.3031C156.574 40.2871 156.554 40.2781 156.534 40.2781C156.514 40.2781 156.494 40.2871 156.48 40.3031C156.465 40.3191 156.457 40.3408 156.457 40.3635C156.004 43.4437 155.831 46.5671 155.943 49.6859C155.943 50.0018 157.762 48.6444 157.762 48.6444C157.762 48.6444 157.754 48.4907 157.739 48.4907Z" fill="#263238"/>
<path d="M172.199 45.3489C169.183 45.6989 167.019 35.5739 166.766 34.3275C166.889 35.1215 167.533 39.3302 167.257 39.5437C166.934 39.5863 166.608 39.569 166.29 39.4924C166.225 38.9867 166.124 38.4873 165.991 37.9985C165.937 37.768 165.991 38.5192 165.991 39.4498L165.415 39.3644C165.312 38.2792 165.08 37.2142 164.724 36.1972C164.586 35.813 164.724 37.6228 164.571 39.2449C161.906 38.8103 159.206 38.7044 156.521 38.929C155.753 39.0144 155.124 39.1254 154.556 39.2449C154.395 37.9985 154.357 36.6838 154.311 36.9484C154.181 37.7368 154.122 38.5375 154.134 39.3388L153.29 39.5437C152.991 37.8363 153.39 34.8654 153.19 35.3349C152.606 36.7775 152.272 38.3301 152.208 39.9108C151.156 40.312 150.888 40.5937 150.819 40.2864C150.708 36.7664 151.725 33.3171 153.689 30.5542C156.943 26.0381 164.302 23.8867 169.283 29.2822C169.283 29.2822 173.074 31.2627 174.133 35.2581C175.192 39.2534 173.949 45.1354 172.199 45.3489Z" fill="#263238"/>
<path d="M171.098 45.366C171.098 45.366 173.155 40.7475 174.997 41.4988C176.839 42.25 175.703 48.6443 173.815 49.8139C173.582 49.9809 173.321 50.094 173.047 50.1462C172.774 50.1985 172.493 50.1889 172.223 50.1179C171.953 50.047 171.699 49.9162 171.475 49.7335C171.252 49.5507 171.063 49.3196 170.922 49.054L171.098 45.366Z" fill="#EB9481"/>
<path d="M174.632 43.326V43.3773C173.312 44.231 172.775 45.8189 172.46 47.4068C172.52 47.2368 172.613 47.0834 172.732 46.9572C172.851 46.831 172.993 46.735 173.148 46.6758C173.304 46.6165 173.469 46.5955 173.632 46.6141C173.796 46.6327 173.953 46.6905 174.095 46.7836C174.103 46.7875 174.11 46.7941 174.115 46.8024C174.12 46.8108 174.122 46.8205 174.122 46.8305C174.122 46.8405 174.12 46.8502 174.115 46.8586C174.11 46.8669 174.103 46.8735 174.095 46.8775C173.836 46.8288 173.57 46.8718 173.335 47.0005C173.099 47.1292 172.906 47.337 172.782 47.5946C172.573 48.0219 172.408 48.4745 172.291 48.9434C172.245 49.0971 172.007 49.0544 172.03 48.8922V48.8495C171.731 46.8433 172.744 43.8468 174.632 43.326Z" fill="#263238"/>
<path d="M157.703 50.8121C158.072 51.3154 158.55 51.7061 159.092 51.9476C159.394 52.0542 159.719 52.0542 160.021 51.9476C160.688 51.7341 160.688 51.0939 160.55 50.4706C160.475 50.1737 160.369 49.8873 160.236 49.6169C159.527 50.3038 158.64 50.7224 157.703 50.8121Z" fill="#263238"/>
<path d="M159.092 51.965C159.394 52.0716 159.718 52.0716 160.02 51.965C160.688 51.7515 160.688 51.1112 160.55 50.488C160.192 50.514 159.853 50.6743 159.588 50.9426C159.324 51.2109 159.148 51.5714 159.092 51.965Z" fill="#FF9CBD"/>
<path d="M147.433 63.3706C148.461 65.0636 149.016 67.0563 149.03 69.099C149.03 76.3554 141.869 82.2375 133.036 82.2375C124.203 82.2375 117.059 76.3554 117.059 69.099C117.059 61.8425 124.211 55.9605 133.036 55.9605C136.96 55.8895 140.809 57.1589 144.064 59.5972L149.574 58.0435L147.433 63.3706Z" fill="white"/>
<path d="M147.437 63.3706C148.458 64.9651 149.042 66.8546 149.118 68.8104C149.194 70.7663 148.76 72.7049 147.866 74.3919C146.974 76.0731 145.774 77.5273 144.344 78.6604C142.926 79.8144 141.354 80.7133 139.686 81.3239C138.022 81.9477 136.295 82.3405 134.544 82.4935C132.793 82.6348 131.033 82.5402 129.302 82.2118C125.785 81.6257 122.512 79.8561 119.925 77.1408C118.639 75.7453 117.673 74.0267 117.108 72.1295C116.563 70.2037 116.547 68.1409 117.062 66.2048C117.594 64.2986 118.537 62.5664 119.809 61.1595C121.06 59.7539 122.519 58.5987 124.122 57.7446C127.32 56.0818 130.848 55.3643 134.367 55.6616C137.883 55.8762 141.277 57.1673 144.175 59.3923H144.029L149.555 57.9239L149.747 57.8727L149.662 58.0691L147.437 63.3706ZM147.437 63.3706L149.493 58.0008L149.601 58.1374L144.114 59.785H144.037L143.968 59.7338C141.099 57.6356 137.768 56.4544 134.337 56.319C132.632 56.2211 130.924 56.3558 129.249 56.7202C127.571 57.0478 125.944 57.6369 124.414 58.4703C122.889 59.2861 121.502 60.3894 120.316 61.7314C119.135 63.0542 118.263 64.6778 117.776 66.461C117.311 68.2437 117.335 70.1402 117.845 71.9076C118.357 73.6817 119.25 75.2903 120.446 76.5944C122.92 79.2146 126.057 80.9279 129.433 81.5032C132.802 82.168 136.266 81.9221 139.532 80.7861C142.839 79.7282 145.698 77.3947 147.598 74.2041C148.493 72.5751 148.96 70.7005 148.949 68.7916C148.899 66.8649 148.376 64.99 147.437 63.3706Z" fill="#263238"/>
<path d="M127.294 69.0993C127.294 68.7345 127.197 68.378 127.014 68.0748C126.832 67.7715 126.573 67.5352 126.271 67.3956C125.968 67.256 125.634 67.2195 125.313 67.2907C124.991 67.3618 124.696 67.5375 124.464 67.7953C124.232 68.0532 124.074 68.3818 124.01 68.7395C123.946 69.0972 123.979 69.468 124.105 69.8049C124.23 70.1419 124.443 70.4298 124.715 70.6325C124.988 70.8351 125.308 70.9432 125.636 70.9432C126.076 70.9432 126.497 70.749 126.808 70.4032C127.119 70.0573 127.294 69.5883 127.294 69.0993Z" fill="#263238"/>
<path d="M134.702 69.0993C134.702 68.7345 134.605 68.378 134.423 68.0748C134.24 67.7715 133.982 67.5352 133.679 67.3956C133.376 67.256 133.043 67.2195 132.721 67.2907C132.399 67.3618 132.104 67.5375 131.872 67.7953C131.64 68.0532 131.483 68.3818 131.419 68.7395C131.355 69.0972 131.387 69.468 131.513 69.8049C131.638 70.1419 131.851 70.4298 132.123 70.6325C132.396 70.8351 132.717 70.9432 133.044 70.9432C133.484 70.9432 133.906 70.749 134.216 70.4032C134.527 70.0573 134.702 69.5883 134.702 69.0993Z" fill="#263238"/>
<path d="M142.108 69.0993C142.108 68.7345 142.011 68.378 141.829 68.0748C141.647 67.7715 141.388 67.5352 141.085 67.3956C140.782 67.256 140.449 67.2195 140.127 67.2907C139.806 67.3618 139.51 67.5375 139.278 67.7953C139.047 68.0532 138.889 68.3818 138.825 68.7395C138.761 69.0972 138.794 69.468 138.919 69.8049C139.045 70.1419 139.257 70.4298 139.53 70.6325C139.802 70.8351 140.123 70.9432 140.451 70.9432C140.89 70.9432 141.312 70.749 141.623 70.4032C141.934 70.0573 142.108 69.5883 142.108 69.0993Z" fill="#263238"/>
<path d="M149.583 127.534H89.3555V130.539H149.583V127.534Z" fill="#455A64"/>
<path d="M119.669 127.534H89.3555V130.539H119.669V127.534Z" fill="#263238"/>
<path d="M116.408 130.54H57.7153L50.041 86.1897H108.734L116.408 130.54Z" fill="#455A64"/>
<path d="M86.7922 108.36C86.8437 108.866 86.7974 109.378 86.6565 109.863C86.5157 110.347 86.2835 110.793 85.9754 111.169C85.6674 111.546 85.2907 111.845 84.8704 112.047C84.4501 112.248 83.996 112.348 83.5384 112.338C82.5643 112.321 81.6299 111.906 80.9126 111.173C80.1954 110.439 79.7452 109.438 79.6475 108.36C79.5985 107.854 79.6467 107.343 79.789 106.86C79.9313 106.376 80.1644 105.932 80.4729 105.556C80.7814 105.181 81.1582 104.883 81.5782 104.682C81.9982 104.481 82.4519 104.381 82.9091 104.39C83.8811 104.408 84.8136 104.822 85.5294 105.554C86.2452 106.285 86.6946 107.284 86.7922 108.36Z" fill="#A6A6A6"/>
<path d="M190.928 123.539C190.436 124.865 189.546 125.961 188.411 126.643C187.276 127.324 185.964 127.548 184.697 127.278C184.169 127.166 183.655 126.988 183.162 126.749L184.075 124.393C184.342 124.527 184.619 124.633 184.904 124.709C185.694 124.927 186.527 124.821 187.252 124.41C187.977 123.999 188.544 123.311 188.849 122.472C189.854 120.047 189.516 115.062 187.813 113.474C187.698 113.354 187.26 113.218 185.718 113.935C185.434 114.072 185.111 114.225 184.751 114.422C184.474 114.596 184.181 114.733 183.876 114.831L183.623 113.585L183.3 112.356C183.4 112.313 183.553 112.228 183.753 112.117C184.454 111.72 185.183 111.386 185.933 111.118C187.091 110.734 188.358 110.631 189.294 111.51C192.049 114.106 192.187 120.5 190.928 123.539Z" fill="#FFC727"/>
<path d="M184.06 124.393C184.327 124.527 184.604 124.633 184.889 124.709L184.697 127.27C184.169 127.157 183.655 126.979 183.162 126.74L184.06 124.393Z" fill="#263238"/>
<path d="M185.915 111.118L185.701 113.935C185.417 114.072 185.094 114.226 184.734 114.422C184.457 114.596 184.164 114.733 183.859 114.832L183.606 113.585L183.283 112.356C183.383 112.313 183.536 112.228 183.736 112.117C184.437 111.72 185.166 111.386 185.915 111.118Z" fill="#263238"/>
<path d="M184.681 105.697L184.604 107.977L184.558 109.368L184.535 110.205L183.868 130.241H168.327L167.659 110.205L167.636 109.368L167.59 107.977L167.514 105.697H184.681Z" fill="#FFC727"/>
<path d="M184.681 105.697L184.604 107.977H167.59L167.514 105.697H184.681Z" fill="#455A64"/>
<path d="M184.558 109.368L184.535 110.204H167.66L167.637 109.368H184.558Z" fill="#455A64"/>
<path d="M77.5755 135.918L77.3836 152.745L75.2732 337.299H72.9019L70.7915 152.745L70.5996 135.918H77.5755Z" fill="#455A64"/>
<path d="M70.5996 135.918H77.5755L77.3836 152.745H70.7915L70.5996 135.918Z" fill="#263238"/>
<path d="M245.788 135.918L245.597 152.745L243.486 337.299H241.115L239.004 152.745L238.812 135.918H245.788Z" fill="#455A64"/>
<path d="M245.788 135.918L245.597 152.745H239.004L238.812 135.918H245.788Z" fill="#263238"/>
<path d="M53.3802 135.918L53.1883 152.745L51.0779 337.299H48.7066L46.5962 152.745L46.4043 135.918H53.3802Z" fill="#37474F"/>
<path d="M46.4043 135.918H53.3802L53.1883 152.745H46.5962L46.4043 135.918Z" fill="#263238"/>
<path d="M221.581 135.918L221.39 152.745L219.279 337.299H216.908L214.797 152.745L214.605 135.918H221.581Z" fill="#37474F"/>
<path d="M214.605 135.918H221.581L221.39 152.745H214.797L214.605 135.918Z" fill="#263238"/>
<path d="M216.357 278.905H49.8945V282.32H216.357V278.905Z" fill="#37474F"/>
<path d="M249.93 130.241H228.365V139.982H249.93V130.241Z" fill="#455A64"/>
<path d="M228.366 130.241H38.7891V139.982H228.366V130.241Z" fill="#37474F"/>
<path d="M77.6026 231.55C65.2548 251.339 52.4311 274.236 49.7988 298.652C49.7988 299.019 50.3053 299.121 50.3667 298.754C51.6749 292.081 53.4059 285.52 55.5468 279.119C63.9348 276.259 72.1769 273.869 76.3748 264.392C80.6493 254.652 79.7514 242.196 78.6156 231.738C78.5389 231.175 77.8559 231.175 77.6026 231.55Z" fill="#FFC727"/>
<path d="M55.2699 278.666C60.9566 264.196 68.2778 249.64 77.6327 237.689C77.6941 237.612 77.7939 237.689 77.7401 237.808C71.6007 246.302 66.9962 255.539 62.4684 264.939C66.6969 260.09 71.3321 255.744 75.3381 250.614C75.4148 250.52 75.5376 250.614 75.4686 250.759C71.4933 256.137 67.1574 261.985 61.9619 265.98C60.5805 268.866 59.1864 271.754 57.7794 274.645C58.1248 274.432 58.4855 274.236 58.8461 274.031C58.9075 274.031 58.9613 274.099 58.8999 274.133C58.5008 274.364 58.1324 274.603 57.7027 274.799C57.035 276.165 56.3674 277.539 55.6843 278.905C55.5309 279.23 55.1472 278.974 55.2699 278.666Z" fill="#263238"/>
<path d="M59.5369 273.596C62.9817 271.418 66.2663 268.94 69.3599 266.186C69.4443 266.109 69.5671 266.245 69.4827 266.322C66.4858 269.246 63.1977 271.778 59.6827 273.869C59.5215 273.929 59.3757 273.698 59.5369 273.596Z" fill="#263238"/>
<path d="M48.2344 300.931C48.2344 301.23 48.7179 301.204 48.7026 300.931C48.5644 292.923 48.2958 284.89 48.1884 276.848C49.9228 272.656 53.8213 270.24 56.4843 266.834C58.4 264.351 60.0507 261.629 61.4034 258.724C64.5329 251.787 66.3606 244.215 66.7754 236.468C67.3126 227.888 63.6597 199.758 60.4365 200.825C58.7712 201.389 53.6908 215.552 52.3709 220.222C50.2311 227.922 48.7234 235.823 47.8661 243.827C45.7326 262.702 46.454 282.03 48.2344 300.931Z" fill="#FFC727"/>
<path d="M47.3188 266.425C47.4493 256.291 49.2374 246.004 50.895 236.127C52.6908 225.481 54.8473 215.441 59.4979 205.854C59.5823 205.675 59.8202 205.854 59.7435 206.008C56.6827 213.449 54.3665 221.242 52.8366 229.246C53.1513 228.665 53.535 228.119 53.865 227.538C53.9878 227.325 54.3101 227.538 54.1873 227.735C53.7726 228.603 53.2816 229.424 52.7215 230.185C52.6989 230.191 52.6751 230.191 52.6524 230.185C51.1713 237.8 50.1583 245.552 49.3295 253.32C49.3986 253.218 49.4753 253.107 49.5521 253.013C49.6288 252.919 49.6902 253.013 49.6595 253.098C49.5367 253.363 49.3986 253.619 49.2681 253.875C48.846 257.811 48.5007 261.729 48.0786 265.622C54.218 259.458 59.3597 252.27 62.1532 243.52C62.1532 243.477 62.2222 243.52 62.2146 243.52C59.4902 252.595 55.0315 260.722 48.0019 266.399C47.8944 267.449 47.7947 268.499 47.6872 269.541C47.6872 269.754 47.3495 269.711 47.3495 269.541C47.3495 268.619 47.3495 267.697 47.3495 266.766C47.3238 266.749 47.302 266.725 47.2858 266.697C47.2697 266.669 47.2598 266.637 47.2568 266.604C47.2538 266.571 47.2579 266.537 47.2687 266.506C47.2794 266.475 47.2966 266.447 47.3188 266.425Z" fill="#263238"/>
<path d="M49.8514 251.663C54.4559 243.562 58.7074 235.691 61.9843 226.795C61.9843 226.693 62.1685 226.795 62.1378 226.863C59.4135 235.691 55.5073 244.663 50.0969 251.86C49.9895 252.005 49.7593 251.826 49.8514 251.663Z" fill="#263238"/>
<path d="M55.5318 225.037C57.412 221.067 59.4073 217.2 61.1647 213.153C61.2184 213.042 61.3566 213.153 61.3182 213.247C59.8966 217.445 58.0588 221.454 55.8388 225.199C55.8135 225.231 55.7794 225.253 55.7417 225.262C55.704 225.271 55.6648 225.266 55.6301 225.247C55.5953 225.229 55.5669 225.198 55.5492 225.16C55.5314 225.122 55.5253 225.079 55.5318 225.037Z" fill="#263238"/>
<path d="M54.798 226.761C54.845 226.761 54.845 226.818 54.798 226.826C54.751 226.834 54.7588 226.761 54.798 226.761Z" fill="#263238"/>
<path d="M44.4422 276.814C44.4832 282.12 44.0565 287.419 43.1682 292.633C43.2603 293.196 43.3447 293.76 43.4368 294.34C44.7875 288.552 45.5319 277.121 45.5242 276.148C45.5208 268.168 44.7802 260.209 43.314 252.398C40.7048 237.765 35.471 223.807 25.9702 213.127C25.8921 213.057 25.8006 213.008 25.7028 212.983C25.6049 212.959 25.5033 212.959 25.4057 212.985C25.308 213.01 25.2169 213.06 25.1392 213.131C25.0615 213.201 24.9992 213.291 24.9572 213.392C21.5115 224.029 23.1384 236.544 26.5765 246.934C28.4454 252.544 31.0383 257.821 34.2738 262.599C37.5891 267.44 41.7331 271.495 44.4422 276.814Z" fill="#FFC727"/>
<path d="M27.1895 217.968C36.3295 233.454 42.8987 251.963 44.1265 270.565C44.1265 270.898 43.6507 271 43.597 270.659C43.3438 268.994 43.0752 267.346 42.7912 265.699C39.0769 261.968 35.2628 258.015 32.5461 253.294C32.5001 253.218 32.6075 253.115 32.6689 253.183C35.9151 257.085 38.9541 261.08 42.5994 264.529C41.8729 260.431 41.0185 256.402 40.0362 252.441L39.3225 251.587C39.169 251.391 39.4146 251.092 39.5757 251.288L39.7906 251.536C38.4126 246.089 36.7444 240.738 34.7947 235.512C32.4924 232.635 29.9369 230.168 28.2255 226.659C28.2209 226.642 28.2214 226.625 28.2269 226.609C28.2324 226.593 28.2426 226.579 28.2559 226.57C28.2692 226.561 28.2848 226.558 28.3001 226.56C28.3155 226.562 28.3297 226.57 28.3406 226.582C29.6913 228.571 31.0113 230.577 32.5308 232.413C33.1447 233.147 33.8047 233.83 34.434 234.547C32.2752 228.893 29.7408 223.425 26.8518 218.19C26.8359 218.141 26.8358 218.088 26.8516 218.039C26.8673 217.991 26.8978 217.95 26.9379 217.923C26.9779 217.897 27.025 217.887 27.071 217.895C27.1169 217.903 27.1588 217.929 27.1895 217.968Z" fill="#263238"/>
<path d="M29.4627 237.364C32.3942 241.504 35.7172 245.431 38.4569 249.717C38.5336 249.836 38.3724 249.973 38.2727 249.879C34.8116 246.464 31.834 241.752 29.2708 237.492C29.1941 237.364 29.3706 237.219 29.4627 237.364Z" fill="#263238"/>
<path d="M38.8785 250.682L39.0093 250.812C39.094 250.906 38.9632 251.053 38.8785 250.967L38.7554 250.829C38.663 250.743 38.7862 250.588 38.8785 250.682Z" fill="#263238"/>
<path d="M12.5946 244.048C13.5078 252.133 17.5982 261.703 22.4406 267.807C24.5814 270.46 27.1948 272.588 30.1149 274.056C33.3994 275.763 36.8452 277.676 40.2295 279.025C41.9381 283.485 43.244 288.124 44.128 292.872C44.2201 292.462 44.3199 292.018 44.4197 291.625C41.7337 271.136 29.3244 253.977 13.7227 243.203C13.5994 243.129 13.4603 243.094 13.3203 243.101C13.1803 243.109 13.0448 243.159 12.9286 243.246C12.8123 243.333 12.7198 243.454 12.6609 243.595C12.602 243.737 12.5791 243.893 12.5946 244.048Z" fill="#FFC727"/>
<path d="M18.0356 249.922C17.9282 249.82 18.0356 249.598 18.1891 249.692C26.4619 256.103 34.0134 265.605 38.357 275.764C38.4798 276.037 38.1345 276.302 37.981 276.02C37.2136 274.663 36.4461 273.34 35.6787 272.033C32.1716 271.41 28.7719 268.789 26.1396 266.279C26.0705 266.211 26.1396 266.092 26.2394 266.16C27.6096 267.468 29.1232 268.578 30.7442 269.464C32.212 270.152 33.7104 270.756 35.2336 271.274C33.8753 269.037 32.4709 266.894 31.0128 264.811C27.2217 263.513 23.5764 261.063 20.3532 258.596C20.2535 258.519 20.3532 258.331 20.453 258.4C23.6616 260.419 26.9635 262.248 30.3451 263.881C28.1336 260.824 25.7579 257.919 23.2311 255.181C22.0262 254.524 20.806 253.858 19.6395 253.149C19.6233 253.135 19.6118 253.114 19.6065 253.092C19.6012 253.069 19.6025 253.045 19.6102 253.023C19.6178 253.002 19.6315 252.983 19.6491 252.971C19.6668 252.958 19.6876 252.952 19.7086 252.953C20.6738 253.292 21.5988 253.76 22.4636 254.345C21.0593 252.851 19.6011 251.365 18.0356 249.922Z" fill="#263238"/>
<path d="M18.5479 256.999C18.7579 257.132 18.958 257.283 19.1465 257.452C19.2002 257.503 19.1465 257.588 19.0774 257.554C18.857 257.456 18.6462 257.333 18.4481 257.187C18.4306 257.17 18.419 257.147 18.4153 257.121C18.4116 257.096 18.4161 257.069 18.4279 257.047C18.4398 257.025 18.4582 257.008 18.4801 256.999C18.502 256.99 18.526 256.99 18.5479 256.999Z" fill="#263238"/>
<path d="M63.0168 280.562L62.4028 296.176L60.7145 339.006H33.5093L31.821 296.176L31.207 280.562H63.0168Z" fill="#37474F"/>
<path d="M63.0168 280.562L62.4028 296.176H31.821L31.207 280.562H63.0168Z" fill="#263238"/>
<path d="M65.3563 277.36H28.8652V287.203H65.3563V277.36Z" fill="#37474F"/>
</svg>
