<svg width="111" height="31" viewBox="0 0 111 31" fill="none" xmlns="http://www.w3.org/2000/svg">
<g clip-path="url(#clip0_17_3)">
<mask id="mask0_17_3" style="mask-type:luminance" maskUnits="userSpaceOnUse" x="0" y="0" width="111" height="31">
<path d="M111 0H0V30.5447H111V0Z" fill="white"/>
</mask>
<g mask="url(#mask0_17_3)">
<path d="M52.784 5.51065H55.7362L51.4457 18.4213H48.0606L44.8723 8.69895L41.684 18.4607H38.3776L34.0872 5.51065H37.0787L40.1489 15.3511L43.2979 5.51065H46.4862L49.7138 15.3904L52.784 5.51065Z" fill="black"/>
<path d="M68.3319 13.0287H58.8064C58.8851 13.6979 59.1606 14.3277 59.5149 14.8787C59.8691 15.3511 60.3415 15.7447 60.8532 15.9809C61.4043 16.217 61.9947 16.3351 62.5851 16.3351C63.2543 16.3351 63.9234 16.217 64.5532 15.9809C65.183 15.7447 65.8128 15.3904 66.3245 14.9575L67.7415 16.9649C67.033 17.5947 66.2064 18.067 65.3011 18.3426C64.3564 18.6181 63.4117 18.7755 62.4277 18.7755C61.2468 18.8149 60.066 18.5 59.0032 17.949C58.0191 17.3979 57.1926 16.5713 56.6809 15.5479C56.1298 14.5245 55.8543 13.3436 55.8543 11.966C55.8149 10.7458 56.1298 9.52555 56.6809 8.42342C57.1926 7.43938 57.9798 6.61278 58.9638 6.02236C59.9872 5.43193 61.1287 5.1564 62.3096 5.1564C63.4117 5.11704 64.5138 5.43193 65.4979 6.02236C66.4425 6.61278 67.1904 7.43938 67.6628 8.42342C68.2138 9.52555 68.45 10.7458 68.45 11.966C68.3713 12.2415 68.3713 12.5958 68.3319 13.0287ZM65.4979 10.8638C65.3404 9.84044 64.9862 9.09257 64.3957 8.50214C63.8447 7.95108 63.0968 7.67555 62.2309 7.67555C61.2862 7.67555 60.4989 7.95108 59.9085 8.54151C59.3181 9.13193 58.9638 9.8798 58.8064 10.8638H65.4979Z" fill="black"/>
<path d="M80.3766 6.06171C81.3606 6.65213 82.1479 7.47873 82.6989 8.50213C83.2894 9.5649 83.5649 10.7851 83.5649 12.0053C83.5649 13.2255 83.2894 14.4458 82.6989 15.5085C82.1479 16.5319 81.3606 17.3585 80.3766 17.9489C79.3926 18.5394 78.2511 18.8543 77.1096 18.8149C76.3223 18.8149 75.4958 18.6575 74.7872 18.3426C74.1181 18.0277 73.5277 17.5553 73.0553 16.9649V18.5H70.2213V0.0393677H73.0553V7.08511C73.5277 6.49469 74.1181 6.02235 74.7872 5.70745C75.5351 5.3532 76.3223 5.19575 77.1096 5.23511C78.2511 5.19575 79.3926 5.47128 80.3766 6.06171ZM78.8415 15.5872C79.4319 15.233 79.9043 14.7213 80.2192 14.0915C80.5341 13.4223 80.6915 12.7138 80.6915 12.0053C80.6915 11.2968 80.5341 10.5489 80.2192 9.91916C79.9043 9.28937 79.4319 8.77767 78.8415 8.42341C78.2117 8.02979 77.5032 7.87235 76.7947 7.87235C76.0862 7.87235 75.3777 8.02979 74.7479 8.42341C74.1575 8.77767 73.6851 9.28937 73.3702 9.91916C73.0553 10.5883 72.8585 11.2968 72.8979 12.0447C72.8979 12.7926 73.0553 13.5011 73.3702 14.1702C73.6851 14.8 74.1575 15.3117 74.7479 15.666C75.3777 16.0202 76.0468 16.217 76.7947 16.217C77.5032 16.1383 78.2117 15.9415 78.8415 15.5872Z" fill="black"/>
<path d="M97.5383 13.0287H88.0128C88.0915 13.6979 88.367 14.3277 88.7213 14.8787C89.0755 15.3511 89.5479 15.7447 90.0596 15.9809C90.6106 16.217 91.2011 16.3351 91.7915 16.3351C92.4606 16.3351 93.1298 16.217 93.7596 15.9809C94.3894 15.7447 95.0191 15.3904 95.5309 14.9575L96.9479 16.9649C96.2394 17.5947 95.4128 18.067 94.5075 18.3426C93.5628 18.6181 92.6181 18.7755 91.634 18.7755C90.4532 18.8149 89.2723 18.5 88.2096 17.949C87.2255 17.3979 86.3989 16.5713 85.8872 15.5479C85.3362 14.5245 85.0606 13.3436 85.0606 11.966C85.0213 10.7458 85.3362 9.52555 85.8872 8.42342C86.3989 7.43938 87.1862 6.61278 88.1702 6.02236C89.1936 5.43193 90.3351 5.1564 91.516 5.1564C92.6181 5.11704 93.7202 5.43193 94.7043 6.02236C95.6489 6.61278 96.3968 7.43938 96.8692 8.42342C97.4202 9.52555 97.6564 10.7458 97.6564 11.966C97.617 12.2415 97.5777 12.5958 97.5383 13.0287ZM94.7043 10.8638C94.5468 9.84044 94.1926 9.09257 93.6021 8.50214C93.0511 7.95108 92.3032 7.67555 91.3979 7.67555C90.4532 7.67555 89.666 7.95108 89.0755 8.54151C88.4851 9.09257 88.1309 9.8798 87.9734 10.8638H94.7043Z" fill="black"/>
<path d="M111 18.4607H107.536L104.269 13.9734L101.041 18.4607H97.7351L102.616 11.8479L97.7745 5.51065H101.238L104.387 9.84044L107.536 5.51065H110.882L106.119 11.8085L111 18.4607Z" fill="black"/>
<path d="M77.0309 29.1277H76.4404V23.9319H77.1489V25.9C77.3064 25.7032 77.4638 25.5457 77.7 25.4277C77.9362 25.3096 78.1723 25.2702 78.4085 25.2702C78.6447 25.2702 78.8809 25.3096 79.117 25.3883C79.3532 25.5064 79.5106 25.6245 79.6681 25.8213C79.9436 26.1755 80.0617 26.6479 80.0617 27.1989C80.0617 27.8681 79.8649 28.3798 79.5106 28.7734C79.3532 28.9309 79.1564 29.0489 78.9596 29.1277C78.7628 29.2064 78.5266 29.2457 78.3298 29.2457C78.0936 29.2457 77.8575 29.2064 77.6213 29.0883C77.4245 28.9702 77.2277 28.8128 77.0702 28.616L77.0309 29.1277ZM79.3532 27.1989C79.3532 26.7266 79.2351 26.3723 78.9989 26.1362C78.9202 26.0574 78.8021 25.9787 78.6447 25.9C78.5266 25.8606 78.3692 25.8213 78.2511 25.8213C78.0936 25.8213 77.9362 25.8606 77.7787 25.9C77.6213 25.9787 77.5032 26.0574 77.4245 26.1755C77.2277 26.4511 77.1096 26.8053 77.1489 27.1596C77.1489 27.6319 77.267 28.0255 77.5032 28.2617C77.5819 28.3798 77.7394 28.4585 77.8575 28.4979C77.9755 28.5372 78.133 28.5766 78.2904 28.5766C78.4479 28.5766 78.6053 28.5372 78.7628 28.4979C78.9202 28.4192 79.0383 28.3404 79.117 28.183C79.2745 28.0255 79.3532 27.6713 79.3532 27.1989Z" fill="black"/>
<path d="M83.8011 25.3883L82.5021 29.2064C82.3447 29.7181 82.1479 30.0723 81.9904 30.2298C81.9117 30.3479 81.7936 30.4266 81.6755 30.466C81.5575 30.5053 81.4 30.5447 81.2819 30.5447C81.1245 30.5447 80.967 30.5053 80.8489 30.466V29.9149C80.967 29.9543 81.0851 29.9543 81.2032 29.9543C81.2819 29.9543 81.3213 29.9543 81.4 29.9149C81.4787 29.8755 81.5181 29.8362 81.5575 29.7968C81.6755 29.6 81.7936 29.3638 81.8723 29.1277H81.6362L80.2585 25.3489H81.0064L82.0692 28.5372L83.1319 25.3489L83.8011 25.3883Z" fill="black"/>
<path d="M93.3266 23.9319H92.0276V29.167H93.3266V23.9319Z" fill="black"/>
<path d="M103.954 25.4277C103.6 25.2309 103.246 25.1521 102.852 25.1521C101.986 25.1521 101.396 25.7426 101.396 26.5298C101.396 27.317 101.947 27.9075 102.852 27.9075C103.246 27.9075 103.6 27.8287 103.954 27.6319V29.049C103.561 29.167 103.167 29.2458 102.773 29.2458C101.278 29.2458 99.9787 28.2224 99.9787 26.5298C99.9787 24.9553 101.16 23.8138 102.773 23.8138C103.167 23.8138 103.6 23.8926 103.954 24.0107V25.4277Z" fill="black"/>
<path d="M90.217 25.4277C89.8628 25.2309 89.5085 25.1521 89.1149 25.1521C88.2489 25.1521 87.6585 25.7426 87.6585 26.5298C87.6585 27.317 88.2096 27.9075 89.1149 27.9075C89.5085 27.9075 89.8628 27.8287 90.217 27.6319V29.049C89.8234 29.167 89.4298 29.2458 88.9968 29.2458C87.5011 29.2458 86.2021 28.2224 86.2021 26.5298C86.2021 24.9553 87.383 23.8138 88.9968 23.8138C89.3904 23.8138 89.8234 23.8926 90.217 24.0107V25.4277Z" fill="black"/>
<path d="M108.087 25.1915C107.89 25.1915 107.733 25.2309 107.576 25.3096C107.418 25.3883 107.261 25.467 107.143 25.6245C107.024 25.7426 106.906 25.9 106.867 26.0575C106.788 26.2149 106.749 26.4117 106.788 26.5692C106.788 26.766 106.828 26.9234 106.867 27.0809C106.946 27.2383 107.024 27.3958 107.143 27.5138C107.261 27.6319 107.418 27.75 107.576 27.8287C107.733 27.9075 107.93 27.9468 108.087 27.9468C108.284 27.9468 108.441 27.9075 108.599 27.8287C108.756 27.75 108.914 27.6713 109.032 27.5138C109.15 27.3958 109.268 27.2383 109.307 27.0809C109.386 26.9234 109.426 26.7266 109.386 26.5692C109.386 26.3724 109.347 26.2149 109.307 26.0575C109.229 25.9 109.15 25.7426 109.032 25.6245C108.914 25.5064 108.756 25.3883 108.599 25.3096C108.441 25.1915 108.284 25.1915 108.087 25.1915ZM110.843 26.5298C110.843 28.0255 109.701 29.2458 108.087 29.2458C106.473 29.2458 105.332 28.0255 105.332 26.5298C105.332 25.0341 106.473 23.8138 108.087 23.8138C109.701 23.8532 110.843 25.0734 110.843 26.5298Z" fill="black"/>
<path d="M98.3255 25.1128C97.9713 25.0341 97.6564 24.9553 97.3021 24.9553C96.7904 24.9553 96.4755 25.1128 96.4755 25.3883C96.4755 25.7032 96.8691 25.8213 97.066 25.9L97.4202 26.0181C98.2862 26.2936 98.6798 26.8841 98.6798 27.5138C98.6798 28.8128 97.5383 29.2458 96.5149 29.2458C96.0425 29.2458 95.5702 29.2064 95.0979 29.0883V27.8681C95.4915 27.9862 95.9245 28.0649 96.3574 28.0649C97.0266 28.0649 97.3021 27.8681 97.3021 27.5926C97.3021 27.317 97.0266 27.1596 96.7117 27.0809L96.4362 27.0021C95.7277 26.766 95.0979 26.333 95.0979 25.467C95.0979 24.483 95.8064 23.8532 97.0266 23.8532C97.4596 23.8532 97.8925 23.9319 98.3255 24.0107V25.1128Z" fill="black"/>
<path d="M6.33723 10.0372C6.65213 11.1 7.04574 12.1628 7.59681 13.1468C7.83298 13.5798 8.06915 14.0128 8.50213 14.2883C8.58085 14.3277 8.65958 14.367 8.7383 14.4064C9.36809 14.5245 9.72234 14.0128 9.95851 13.5798C10.2734 12.8319 10.5489 12.084 10.7851 11.2968C10.8245 11.1394 10.8638 11.0213 10.9032 10.8638C10.9819 10.5883 11.0606 10.3128 11.1 10.0372L13.8947 2.55851C14.4851 1.77128 15.233 1.14149 16.0989 0.708511C16.9255 0.23617 17.8702 0 18.8543 0C20.2319 0 21.6096 0.47234 22.7117 1.3383C24.5617 2.71596 25.6245 5.47128 25.6245 5.47128C25.7819 5.82553 25.8606 6.21915 25.8606 6.61277C25.8606 6.96702 25.7819 7.32128 25.6638 7.67553C25.5064 7.99043 25.3096 8.30532 25.0734 8.58085C24.8372 8.81702 24.5223 9.05319 24.1681 9.17128C23.8532 9.28936 23.4596 9.36809 23.1053 9.36809C22.7117 9.36809 22.3181 9.28936 21.9638 9.09255C21.6096 8.93511 21.2947 8.65957 21.0192 8.38404C21.0192 8.38404 21.0191 8.34468 20.9798 8.34468C20.8223 8.10851 20.6649 7.83298 20.5468 7.55745C20.3894 7.20319 20.2319 6.8883 20.0351 6.5734C19.917 6.41596 19.8383 6.25851 19.7202 6.10106C19.6415 5.94362 19.5234 5.82553 19.366 5.70745C19.0904 5.51064 18.7755 5.43191 18.5 5.58936L18.4606 5.62872C18.1457 5.82553 17.9489 6.25851 17.7915 6.61277C17.3585 7.55745 17.1223 8.50213 16.8468 9.52553C16.8074 9.72234 16.7681 9.91915 16.7287 10.116L15.5479 13.8947L13.934 17.4766C13.3436 18.2245 12.5957 18.8543 11.7298 19.2479C10.8638 19.6809 9.91915 19.8777 8.97447 19.917C4.99894 19.9957 3.14894 16.4138 3.14894 16.4138C0.905319 12.7138 0.23617 7.83298 0.0787234 6.25851C0 5.90426 0 5.70745 0 5.70745C0 5.23511 0.118085 4.7234 0.393617 4.32979C0.629787 3.89681 0.984043 3.54255 1.41702 3.30638C1.88936 3.07021 2.3617 2.99149 2.8734 2.99149C3.34574 2.99149 3.77872 3.14894 4.2117 3.38511C4.5266 3.58192 4.80213 3.81809 4.99894 4.09362C5.35319 4.60532 5.47128 5.27447 5.51064 5.90426C5.66809 7.32128 5.94362 8.69894 6.33723 10.0372Z" fill="url(#paint0_linear_17_3)"/>
<path d="M6.33723 10.0372C6.65213 11.1 7.04574 12.1628 7.59681 13.1468C7.83298 13.5798 8.06915 14.0128 8.50213 14.2883C8.58085 14.3277 8.65958 14.367 8.7383 14.4064C9.36809 14.5245 9.72234 14.0128 9.95851 13.5798C10.2734 12.8319 10.5489 12.084 10.7851 11.2968C10.8245 11.1394 10.8638 11.0213 10.9032 10.8638C10.9819 10.5883 11.0606 10.3128 11.1 10.0372L13.8947 2.55851C14.4851 1.77128 15.233 1.14149 16.0989 0.708511C16.9255 0.23617 17.8702 0 18.8543 0C20.2319 0 21.6096 0.47234 22.7117 1.3383C24.5617 2.71596 25.6245 5.47128 25.6245 5.47128C25.7819 5.82553 25.8606 6.21915 25.8606 6.61277C25.8606 6.96702 25.7819 7.32128 25.6638 7.67553C25.5064 7.99043 25.3096 8.30532 25.0734 8.58085C24.8372 8.81702 24.5223 9.05319 24.1681 9.17128C23.8532 9.28936 23.4596 9.36809 23.1053 9.36809C22.7117 9.36809 22.3181 9.28936 21.9638 9.09255C21.6096 8.93511 21.2947 8.65957 21.0192 8.38404C21.0192 8.38404 21.0191 8.34468 20.9798 8.34468C20.8223 8.10851 20.6649 7.83298 20.5468 7.55745C20.3894 7.20319 20.2319 6.8883 20.0351 6.5734C19.917 6.41596 19.8383 6.25851 19.7202 6.10106C19.6415 5.94362 19.5234 5.82553 19.366 5.70745C19.0904 5.51064 18.7755 5.43191 18.5 5.58936L18.4606 5.62872C18.1457 5.82553 17.9489 6.25851 17.7915 6.61277C17.3585 7.55745 17.1223 8.50213 16.8468 9.52553C16.8074 9.72234 16.7681 9.91915 16.7287 10.116L15.5479 13.8947L13.934 17.4766C13.3436 18.2245 12.5957 18.8543 11.7298 19.2479C10.8638 19.6809 9.91915 19.8777 8.97447 19.917C4.99894 19.9957 3.14894 16.4138 3.14894 16.4138C0.905319 12.7138 0.23617 7.83298 0.0787234 6.25851C0 5.90426 0 5.70745 0 5.70745C0 5.23511 0.118085 4.7234 0.393617 4.32979C0.629787 3.89681 0.984043 3.54255 1.41702 3.30638C1.88936 3.07021 2.3617 2.99149 2.8734 2.99149C3.34574 2.99149 3.77872 3.14894 4.2117 3.38511C4.5266 3.58192 4.80213 3.81809 4.99894 4.09362C5.35319 4.60532 5.47128 5.27447 5.51064 5.90426C5.66809 7.32128 5.94362 8.69894 6.33723 10.0372Z" fill="url(#paint1_radial_17_3)"/>
<path d="M6.33723 10.0372C6.65213 11.1 7.04574 12.1628 7.59681 13.1468C7.83298 13.5798 8.06915 14.0128 8.50213 14.2883C8.58085 14.3277 8.65958 14.367 8.7383 14.4064C9.36809 14.5245 9.72234 14.0128 9.95851 13.5798C10.2734 12.8319 10.5489 12.084 10.7851 11.2968C10.8245 11.1394 10.8638 11.0213 10.9032 10.8638C10.9819 10.5883 11.0606 10.3128 11.1 10.0372L13.8947 2.55851C14.4851 1.77128 15.233 1.14149 16.0989 0.708511C16.9255 0.23617 17.8702 0 18.8543 0C20.2319 0 21.6096 0.47234 22.7117 1.3383C24.5617 2.71596 25.6245 5.47128 25.6245 5.47128C25.7819 5.82553 25.8606 6.21915 25.8606 6.61277C25.8606 6.96702 25.7819 7.32128 25.6638 7.67553C25.5064 7.99043 25.3096 8.30532 25.0734 8.58085C24.8372 8.81702 24.5223 9.05319 24.1681 9.17128C23.8532 9.28936 23.4596 9.36809 23.1053 9.36809C22.7117 9.36809 22.3181 9.28936 21.9638 9.09255C21.6096 8.93511 21.2947 8.65957 21.0192 8.38404C21.0192 8.38404 21.0191 8.34468 20.9798 8.34468C20.8223 8.10851 20.6649 7.83298 20.5468 7.55745C20.3894 7.20319 20.2319 6.8883 20.0351 6.5734C19.917 6.41596 19.8383 6.25851 19.7202 6.10106C19.6415 5.94362 19.5234 5.82553 19.366 5.70745C19.0904 5.51064 18.7755 5.43191 18.5 5.58936L18.4606 5.62872C18.1457 5.82553 17.9489 6.25851 17.7915 6.61277C17.3585 7.55745 17.1223 8.50213 16.8468 9.52553C16.8074 9.72234 16.7681 9.91915 16.7287 10.116L15.5479 13.8947L13.934 17.4766C13.3436 18.2245 12.5957 18.8543 11.7298 19.2479C10.8638 19.6809 9.91915 19.8777 8.97447 19.917C4.99894 19.9957 3.14894 16.4138 3.14894 16.4138C0.905319 12.7138 0.23617 7.83298 0.0787234 6.25851C0 5.90426 0 5.70745 0 5.70745C0 5.23511 0.118085 4.7234 0.393617 4.32979C0.629787 3.89681 0.984043 3.54255 1.41702 3.30638C1.88936 3.07021 2.3617 2.99149 2.8734 2.99149C3.34574 2.99149 3.77872 3.14894 4.2117 3.38511C4.5266 3.58192 4.80213 3.81809 4.99894 4.09362C5.35319 4.60532 5.47128 5.27447 5.51064 5.90426C5.66809 7.32128 5.94362 8.69894 6.33723 10.0372Z" fill="url(#paint2_radial_17_3)"/>
<path d="M6.33723 10.0372C6.65213 11.1 7.04574 12.1628 7.59681 13.1468C7.83298 13.5798 8.06915 14.0128 8.50213 14.2883C8.58085 14.3277 8.65958 14.367 8.7383 14.4064C9.36809 14.5245 9.72234 14.0128 9.95851 13.5798C10.2734 12.8319 10.5489 12.084 10.7851 11.2968C10.8245 11.1394 10.8638 11.0213 10.9032 10.8638C10.9819 10.5883 11.0606 10.3128 11.1 10.0372L13.8947 2.55851C14.4851 1.77128 15.233 1.14149 16.0989 0.708511C16.9255 0.23617 17.8702 0 18.8543 0C20.2319 0 21.6096 0.47234 22.7117 1.3383C24.5617 2.71596 25.6245 5.47128 25.6245 5.47128C25.7819 5.82553 25.8606 6.21915 25.8606 6.61277C25.8606 6.96702 25.7819 7.32128 25.6638 7.67553C25.5064 7.99043 25.3096 8.30532 25.0734 8.58085C24.8372 8.81702 24.5223 9.05319 24.1681 9.17128C23.8532 9.28936 23.4596 9.36809 23.1053 9.36809C22.7117 9.36809 22.3181 9.28936 21.9638 9.09255C21.6096 8.93511 21.2947 8.65957 21.0192 8.38404C21.0192 8.38404 21.0191 8.34468 20.9798 8.34468C20.8223 8.10851 20.6649 7.83298 20.5468 7.55745C20.3894 7.20319 20.2319 6.8883 20.0351 6.5734C19.917 6.41596 19.8383 6.25851 19.7202 6.10106C19.6415 5.94362 19.5234 5.82553 19.366 5.70745C19.0904 5.51064 18.7755 5.43191 18.5 5.58936L18.4606 5.62872C18.1457 5.82553 17.9489 6.25851 17.7915 6.61277C17.3585 7.55745 17.1223 8.50213 16.8468 9.52553C16.8074 9.72234 16.7681 9.91915 16.7287 10.116L15.5479 13.8947L13.934 17.4766C13.3436 18.2245 12.5957 18.8543 11.7298 19.2479C10.8638 19.6809 9.91915 19.8777 8.97447 19.917C4.99894 19.9957 3.14894 16.4138 3.14894 16.4138C0.905319 12.7138 0.23617 7.83298 0.0787234 6.25851C0 5.90426 0 5.70745 0 5.70745C0 5.23511 0.118085 4.7234 0.393617 4.32979C0.629787 3.89681 0.984043 3.54255 1.41702 3.30638C1.88936 3.07021 2.3617 2.99149 2.8734 2.99149C3.34574 2.99149 3.77872 3.14894 4.2117 3.38511C4.5266 3.58192 4.80213 3.81809 4.99894 4.09362C5.35319 4.60532 5.47128 5.27447 5.51064 5.90426C5.66809 7.32128 5.94362 8.69894 6.33723 10.0372Z" fill="url(#paint3_radial_17_3)"/>
<path d="M6.33723 10.0372C6.65213 11.1 7.04574 12.1628 7.59681 13.1468C7.83298 13.5798 8.06915 14.0128 8.50213 14.2883C8.58085 14.3277 8.65958 14.367 8.7383 14.4064C9.36809 14.5245 9.72234 14.0128 9.95851 13.5798C10.2734 12.8319 10.5489 12.084 10.7851 11.2968C10.8245 11.1394 10.8638 11.0213 10.9032 10.8638C10.9819 10.5883 11.0606 10.3128 11.1 10.0372L13.8947 2.55851C14.4851 1.77128 15.233 1.14149 16.0989 0.708511C16.9255 0.23617 17.8702 0 18.8543 0C20.2319 0 21.6096 0.47234 22.7117 1.3383C24.5617 2.71596 25.6245 5.47128 25.6245 5.47128C25.7819 5.82553 25.8606 6.21915 25.8606 6.61277C25.8606 6.96702 25.7819 7.32128 25.6638 7.67553C25.5064 7.99043 25.3096 8.30532 25.0734 8.58085C24.8372 8.81702 24.5223 9.05319 24.1681 9.17128C23.8532 9.28936 23.4596 9.36809 23.1053 9.36809C22.7117 9.36809 22.3181 9.28936 21.9638 9.09255C21.6096 8.93511 21.2947 8.65957 21.0192 8.38404C21.0192 8.38404 21.0191 8.34468 20.9798 8.34468C20.8223 8.10851 20.6649 7.83298 20.5468 7.55745C20.3894 7.20319 20.2319 6.8883 20.0351 6.5734C19.917 6.41596 19.8383 6.25851 19.7202 6.10106C19.6415 5.94362 19.5234 5.82553 19.366 5.70745C19.0904 5.51064 18.7755 5.43191 18.5 5.58936L18.4606 5.62872C18.1457 5.82553 17.9489 6.25851 17.7915 6.61277C17.3585 7.55745 17.1223 8.50213 16.8468 9.52553C16.8074 9.72234 16.7681 9.91915 16.7287 10.116L15.5479 13.8947L13.934 17.4766C13.3436 18.2245 12.5957 18.8543 11.7298 19.2479C10.8638 19.6809 9.91915 19.8777 8.97447 19.917C4.99894 19.9957 3.14894 16.4138 3.14894 16.4138C0.905319 12.7138 0.23617 7.83298 0.0787234 6.25851C0 5.90426 0 5.70745 0 5.70745C0 5.23511 0.118085 4.7234 0.393617 4.32979C0.629787 3.89681 0.984043 3.54255 1.41702 3.30638C1.88936 3.07021 2.3617 2.99149 2.8734 2.99149C3.34574 2.99149 3.77872 3.14894 4.2117 3.38511C4.5266 3.58192 4.80213 3.81809 4.99894 4.09362C5.35319 4.60532 5.47128 5.27447 5.51064 5.90426C5.66809 7.32128 5.94362 8.69894 6.33723 10.0372Z" fill="url(#paint4_radial_17_3)"/>
<path d="M6.33723 10.0372C6.65213 11.1 7.04574 12.1628 7.59681 13.1468C7.83298 13.5798 8.06915 14.0128 8.50213 14.2883C8.58085 14.3277 8.65958 14.367 8.7383 14.4064C9.36809 14.5245 9.72234 14.0128 9.95851 13.5798C10.2734 12.8319 10.5489 12.084 10.7851 11.2968C10.8245 11.1394 10.8638 11.0213 10.9032 10.8638C10.9819 10.5883 11.0606 10.3128 11.1 10.0372L13.8947 2.55851C14.4851 1.77128 15.233 1.14149 16.0989 0.708511C16.9255 0.23617 17.8702 0 18.8543 0C20.2319 0 21.6096 0.47234 22.7117 1.3383C24.5617 2.71596 25.6245 5.47128 25.6245 5.47128C25.7819 5.82553 25.8606 6.21915 25.8606 6.61277C25.8606 6.96702 25.7819 7.32128 25.6638 7.67553C25.5064 7.99043 25.3096 8.30532 25.0734 8.58085C24.8372 8.81702 24.5223 9.05319 24.1681 9.17128C23.8532 9.28936 23.4596 9.36809 23.1053 9.36809C22.7117 9.36809 22.3181 9.28936 21.9638 9.09255C21.6096 8.93511 21.2947 8.65957 21.0192 8.38404C21.0192 8.38404 21.0191 8.34468 20.9798 8.34468C20.8223 8.10851 20.6649 7.83298 20.5468 7.55745C20.3894 7.20319 20.2319 6.8883 20.0351 6.5734C19.917 6.41596 19.8383 6.25851 19.7202 6.10106C19.6415 5.94362 19.5234 5.82553 19.366 5.70745C19.0904 5.51064 18.7755 5.43191 18.5 5.58936L18.4606 5.62872C18.1457 5.82553 17.9489 6.25851 17.7915 6.61277C17.3585 7.55745 17.1223 8.50213 16.8468 9.52553C16.8074 9.72234 16.7681 9.91915 16.7287 10.116L15.5479 13.8947L13.934 17.4766C13.3436 18.2245 12.5957 18.8543 11.7298 19.2479C10.8638 19.6809 9.91915 19.8777 8.97447 19.917C4.99894 19.9957 3.14894 16.4138 3.14894 16.4138C0.905319 12.7138 0.23617 7.83298 0.0787234 6.25851C0 5.90426 0 5.70745 0 5.70745C0 5.23511 0.118085 4.7234 0.393617 4.32979C0.629787 3.89681 0.984043 3.54255 1.41702 3.30638C1.88936 3.07021 2.3617 2.99149 2.8734 2.99149C3.34574 2.99149 3.77872 3.14894 4.2117 3.38511C4.5266 3.58192 4.80213 3.81809 4.99894 4.09362C5.35319 4.60532 5.47128 5.27447 5.51064 5.90426C5.66809 7.32128 5.94362 8.69894 6.33723 10.0372Z" fill="url(#paint5_radial_17_3)"/>
<path d="M6.33723 10.0372C6.65213 11.1 7.04574 12.1628 7.59681 13.1468C7.83298 13.5798 8.06915 14.0128 8.50213 14.2883C8.58085 14.3277 8.65958 14.367 8.7383 14.4064C9.36809 14.5245 9.72234 14.0128 9.95851 13.5798C10.2734 12.8319 10.5489 12.084 10.7851 11.2968C10.8245 11.1394 10.8638 11.0213 10.9032 10.8638C10.9819 10.5883 11.0606 10.3128 11.1 10.0372L13.8947 2.55851C14.4851 1.77128 15.233 1.14149 16.0989 0.708511C16.9255 0.23617 17.8702 0 18.8543 0C20.2319 0 21.6096 0.47234 22.7117 1.3383C24.5617 2.71596 25.6245 5.47128 25.6245 5.47128C25.7819 5.82553 25.8606 6.21915 25.8606 6.61277C25.8606 6.96702 25.7819 7.32128 25.6638 7.67553C25.5064 7.99043 25.3096 8.30532 25.0734 8.58085C24.8372 8.81702 24.5223 9.05319 24.1681 9.17128C23.8532 9.28936 23.4596 9.36809 23.1053 9.36809C22.7117 9.36809 22.3181 9.28936 21.9638 9.09255C21.6096 8.93511 21.2947 8.65957 21.0192 8.38404C21.0192 8.38404 21.0191 8.34468 20.9798 8.34468C20.8223 8.10851 20.6649 7.83298 20.5468 7.55745C20.3894 7.20319 20.2319 6.8883 20.0351 6.5734C19.917 6.41596 19.8383 6.25851 19.7202 6.10106C19.6415 5.94362 19.5234 5.82553 19.366 5.70745C19.0904 5.51064 18.7755 5.43191 18.5 5.58936L18.4606 5.62872C18.1457 5.82553 17.9489 6.25851 17.7915 6.61277C17.3585 7.55745 17.1223 8.50213 16.8468 9.52553C16.8074 9.72234 16.7681 9.91915 16.7287 10.116L15.5479 13.8947L13.934 17.4766C13.3436 18.2245 12.5957 18.8543 11.7298 19.2479C10.8638 19.6809 9.91915 19.8777 8.97447 19.917C4.99894 19.9957 3.14894 16.4138 3.14894 16.4138C0.905319 12.7138 0.23617 7.83298 0.0787234 6.25851C0 5.90426 0 5.70745 0 5.70745C0 5.23511 0.118085 4.7234 0.393617 4.32979C0.629787 3.89681 0.984043 3.54255 1.41702 3.30638C1.88936 3.07021 2.3617 2.99149 2.8734 2.99149C3.34574 2.99149 3.77872 3.14894 4.2117 3.38511C4.5266 3.58192 4.80213 3.81809 4.99894 4.09362C5.35319 4.60532 5.47128 5.27447 5.51064 5.90426C5.66809 7.32128 5.94362 8.69894 6.33723 10.0372Z" fill="url(#paint6_radial_17_3)"/>
<path d="M6.33723 10.0372C6.65213 11.1 7.04574 12.1628 7.59681 13.1468C7.83298 13.5798 8.06915 14.0128 8.50213 14.2883C8.58085 14.3277 8.65958 14.367 8.7383 14.4064C9.36809 14.5245 9.72234 14.0128 9.95851 13.5798C10.2734 12.8319 10.5489 12.084 10.7851 11.2968C10.8245 11.1394 10.8638 11.0213 10.9032 10.8638C10.9819 10.5883 11.0606 10.3128 11.1 10.0372L13.8947 2.55851C14.4851 1.77128 15.233 1.14149 16.0989 0.708511C16.9255 0.23617 17.8702 0 18.8543 0C20.2319 0 21.6096 0.47234 22.7117 1.3383C24.5617 2.71596 25.6245 5.47128 25.6245 5.47128C25.7819 5.82553 25.8606 6.21915 25.8606 6.61277C25.8606 6.96702 25.7819 7.32128 25.6638 7.67553C25.5064 7.99043 25.3096 8.30532 25.0734 8.58085C24.8372 8.81702 24.5223 9.05319 24.1681 9.17128C23.8532 9.28936 23.4596 9.36809 23.1053 9.36809C22.7117 9.36809 22.3181 9.28936 21.9638 9.09255C21.6096 8.93511 21.2947 8.65957 21.0192 8.38404C21.0192 8.38404 21.0191 8.34468 20.9798 8.34468C20.8223 8.10851 20.6649 7.83298 20.5468 7.55745C20.3894 7.20319 20.2319 6.8883 20.0351 6.5734C19.917 6.41596 19.8383 6.25851 19.7202 6.10106C19.6415 5.94362 19.5234 5.82553 19.366 5.70745C19.0904 5.51064 18.7755 5.43191 18.5 5.58936L18.4606 5.62872C18.1457 5.82553 17.9489 6.25851 17.7915 6.61277C17.3585 7.55745 17.1223 8.50213 16.8468 9.52553C16.8074 9.72234 16.7681 9.91915 16.7287 10.116L15.5479 13.8947L13.934 17.4766C13.3436 18.2245 12.5957 18.8543 11.7298 19.2479C10.8638 19.6809 9.91915 19.8777 8.97447 19.917C4.99894 19.9957 3.14894 16.4138 3.14894 16.4138C0.905319 12.7138 0.23617 7.83298 0.0787234 6.25851C0 5.90426 0 5.70745 0 5.70745C0 5.23511 0.118085 4.7234 0.393617 4.32979C0.629787 3.89681 0.984043 3.54255 1.41702 3.30638C1.88936 3.07021 2.3617 2.99149 2.8734 2.99149C3.34574 2.99149 3.77872 3.14894 4.2117 3.38511C4.5266 3.58192 4.80213 3.81809 4.99894 4.09362C5.35319 4.60532 5.47128 5.27447 5.51064 5.90426C5.66809 7.32128 5.94362 8.69894 6.33723 10.0372Z" fill="url(#paint7_radial_17_3)"/>
<path d="M6.33723 10.0372C6.65213 11.1 7.04574 12.1628 7.59681 13.1468C7.83298 13.5798 8.06915 14.0128 8.50213 14.2883C8.58085 14.3277 8.65958 14.367 8.7383 14.4064C9.36809 14.5245 9.72234 14.0128 9.95851 13.5798C10.2734 12.8319 10.5489 12.084 10.7851 11.2968C10.8245 11.1394 10.8638 11.0213 10.9032 10.8638C10.9819 10.5883 11.0606 10.3128 11.1 10.0372L13.8947 2.55851C14.4851 1.77128 15.233 1.14149 16.0989 0.708511C16.9255 0.23617 17.8702 0 18.8543 0C20.2319 0 21.6096 0.47234 22.7117 1.3383C24.5617 2.71596 25.6245 5.47128 25.6245 5.47128C25.7819 5.82553 25.8606 6.21915 25.8606 6.61277C25.8606 6.96702 25.7819 7.32128 25.6638 7.67553C25.5064 7.99043 25.3096 8.30532 25.0734 8.58085C24.8372 8.81702 24.5223 9.05319 24.1681 9.17128C23.8532 9.28936 23.4596 9.36809 23.1053 9.36809C22.7117 9.36809 22.3181 9.28936 21.9638 9.09255C21.6096 8.93511 21.2947 8.65957 21.0192 8.38404C21.0192 8.38404 21.0191 8.34468 20.9798 8.34468C20.8223 8.10851 20.6649 7.83298 20.5468 7.55745C20.3894 7.20319 20.2319 6.8883 20.0351 6.5734C19.917 6.41596 19.8383 6.25851 19.7202 6.10106C19.6415 5.94362 19.5234 5.82553 19.366 5.70745C19.0904 5.51064 18.7755 5.43191 18.5 5.58936L18.4606 5.62872C18.1457 5.82553 17.9489 6.25851 17.7915 6.61277C17.3585 7.55745 17.1223 8.50213 16.8468 9.52553C16.8074 9.72234 16.7681 9.91915 16.7287 10.116L15.5479 13.8947L13.934 17.4766C13.3436 18.2245 12.5957 18.8543 11.7298 19.2479C10.8638 19.6809 9.91915 19.8777 8.97447 19.917C4.99894 19.9957 3.14894 16.4138 3.14894 16.4138C0.905319 12.7138 0.23617 7.83298 0.0787234 6.25851C0 5.90426 0 5.70745 0 5.70745C0 5.23511 0.118085 4.7234 0.393617 4.32979C0.629787 3.89681 0.984043 3.54255 1.41702 3.30638C1.88936 3.07021 2.3617 2.99149 2.8734 2.99149C3.34574 2.99149 3.77872 3.14894 4.2117 3.38511C4.5266 3.58192 4.80213 3.81809 4.99894 4.09362C5.35319 4.60532 5.47128 5.27447 5.51064 5.90426C5.66809 7.32128 5.94362 8.69894 6.33723 10.0372Z" fill="url(#paint8_radial_17_3)"/>
<path d="M6.33723 10.0372C6.65213 11.1 7.04574 12.1628 7.59681 13.1468C7.83298 13.5798 8.06915 14.0128 8.50213 14.2883C8.58085 14.3277 8.65958 14.367 8.7383 14.4064C9.36809 14.5245 9.72234 14.0128 9.95851 13.5798C10.2734 12.8319 10.5489 12.084 10.7851 11.2968C10.8245 11.1394 10.8638 11.0213 10.9032 10.8638C10.9819 10.5883 11.0606 10.3128 11.1 10.0372L13.8947 2.55851C14.4851 1.77128 15.233 1.14149 16.0989 0.708511C16.9255 0.23617 17.8702 0 18.8543 0C20.2319 0 21.6096 0.47234 22.7117 1.3383C24.5617 2.71596 25.6245 5.47128 25.6245 5.47128C25.7819 5.82553 25.8606 6.21915 25.8606 6.61277C25.8606 6.96702 25.7819 7.32128 25.6638 7.67553C25.5064 7.99043 25.3096 8.30532 25.0734 8.58085C24.8372 8.81702 24.5223 9.05319 24.1681 9.17128C23.8532 9.28936 23.4596 9.36809 23.1053 9.36809C22.7117 9.36809 22.3181 9.28936 21.9638 9.09255C21.6096 8.93511 21.2947 8.65957 21.0192 8.38404C21.0192 8.38404 21.0191 8.34468 20.9798 8.34468C20.8223 8.10851 20.6649 7.83298 20.5468 7.55745C20.3894 7.20319 20.2319 6.8883 20.0351 6.5734C19.917 6.41596 19.8383 6.25851 19.7202 6.10106C19.6415 5.94362 19.5234 5.82553 19.366 5.70745C19.0904 5.51064 18.7755 5.43191 18.5 5.58936L18.4606 5.62872C18.1457 5.82553 17.9489 6.25851 17.7915 6.61277C17.3585 7.55745 17.1223 8.50213 16.8468 9.52553C16.8074 9.72234 16.7681 9.91915 16.7287 10.116L15.5479 13.8947L13.934 17.4766C13.3436 18.2245 12.5957 18.8543 11.7298 19.2479C10.8638 19.6809 9.91915 19.8777 8.97447 19.917C4.99894 19.9957 3.14894 16.4138 3.14894 16.4138C0.905319 12.7138 0.23617 7.83298 0.0787234 6.25851C0 5.90426 0 5.70745 0 5.70745C0 5.23511 0.118085 4.7234 0.393617 4.32979C0.629787 3.89681 0.984043 3.54255 1.41702 3.30638C1.88936 3.07021 2.3617 2.99149 2.8734 2.99149C3.34574 2.99149 3.77872 3.14894 4.2117 3.38511C4.5266 3.58192 4.80213 3.81809 4.99894 4.09362C5.35319 4.60532 5.47128 5.27447 5.51064 5.90426C5.66809 7.32128 5.94362 8.69894 6.33723 10.0372Z" fill="url(#paint9_radial_17_3)"/>
<path d="M6.33723 10.0372C6.65213 11.1 7.04574 12.1628 7.59681 13.1468C7.83298 13.5798 8.06915 14.0128 8.50213 14.2883C8.58085 14.3277 8.65958 14.367 8.7383 14.4064C9.36809 14.5245 9.72234 14.0128 9.95851 13.5798C10.2734 12.8319 10.5489 12.084 10.7851 11.2968C10.8245 11.1394 10.8638 11.0213 10.9032 10.8638C10.9819 10.5883 11.0606 10.3128 11.1 10.0372L13.8947 2.55851C14.4851 1.77128 15.233 1.14149 16.0989 0.708511C16.9255 0.23617 17.8702 0 18.8543 0C20.2319 0 21.6096 0.47234 22.7117 1.3383C24.5617 2.71596 25.6245 5.47128 25.6245 5.47128C25.7819 5.82553 25.8606 6.21915 25.8606 6.61277C25.8606 6.96702 25.7819 7.32128 25.6638 7.67553C25.5064 7.99043 25.3096 8.30532 25.0734 8.58085C24.8372 8.81702 24.5223 9.05319 24.1681 9.17128C23.8532 9.28936 23.4596 9.36809 23.1053 9.36809C22.7117 9.36809 22.3181 9.28936 21.9638 9.09255C21.6096 8.93511 21.2947 8.65957 21.0192 8.38404C21.0192 8.38404 21.0191 8.34468 20.9798 8.34468C20.8223 8.10851 20.6649 7.83298 20.5468 7.55745C20.3894 7.20319 20.2319 6.8883 20.0351 6.5734C19.917 6.41596 19.8383 6.25851 19.7202 6.10106C19.6415 5.94362 19.5234 5.82553 19.366 5.70745C19.0904 5.51064 18.7755 5.43191 18.5 5.58936L18.4606 5.62872C18.1457 5.82553 17.9489 6.25851 17.7915 6.61277C17.3585 7.55745 17.1223 8.50213 16.8468 9.52553C16.8074 9.72234 16.7681 9.91915 16.7287 10.116L15.5479 13.8947L13.934 17.4766C13.3436 18.2245 12.5957 18.8543 11.7298 19.2479C10.8638 19.6809 9.91915 19.8777 8.97447 19.917C4.99894 19.9957 3.14894 16.4138 3.14894 16.4138C0.905319 12.7138 0.23617 7.83298 0.0787234 6.25851C0 5.90426 0 5.70745 0 5.70745C0 5.23511 0.118085 4.7234 0.393617 4.32979C0.629787 3.89681 0.984043 3.54255 1.41702 3.30638C1.88936 3.07021 2.3617 2.99149 2.8734 2.99149C3.34574 2.99149 3.77872 3.14894 4.2117 3.38511C4.5266 3.58192 4.80213 3.81809 4.99894 4.09362C5.35319 4.60532 5.47128 5.27447 5.51064 5.90426C5.66809 7.32128 5.94362 8.69894 6.33723 10.0372Z" fill="url(#paint10_radial_17_3)"/>
<path d="M6.33723 10.0372C6.65213 11.1 7.04574 12.1628 7.59681 13.1468C7.83298 13.5798 8.06915 14.0128 8.50213 14.2883C8.58085 14.3277 8.65958 14.367 8.7383 14.4064C9.36809 14.5245 9.72234 14.0128 9.95851 13.5798C10.2734 12.8319 10.5489 12.084 10.7851 11.2968C10.8245 11.1394 10.8638 11.0213 10.9032 10.8638C10.9819 10.5883 11.0606 10.3128 11.1 10.0372L13.8947 2.55851C14.4851 1.77128 15.233 1.14149 16.0989 0.708511C16.9255 0.23617 17.8702 0 18.8543 0C20.2319 0 21.6096 0.47234 22.7117 1.3383C24.5617 2.71596 25.6245 5.47128 25.6245 5.47128C25.7819 5.82553 25.8606 6.21915 25.8606 6.61277C25.8606 6.96702 25.7819 7.32128 25.6638 7.67553C25.5064 7.99043 25.3096 8.30532 25.0734 8.58085C24.8372 8.81702 24.5223 9.05319 24.1681 9.17128C23.8532 9.28936 23.4596 9.36809 23.1053 9.36809C22.7117 9.36809 22.3181 9.28936 21.9638 9.09255C21.6096 8.93511 21.2947 8.65957 21.0192 8.38404C21.0192 8.38404 21.0191 8.34468 20.9798 8.34468C20.8223 8.10851 20.6649 7.83298 20.5468 7.55745C20.3894 7.20319 20.2319 6.8883 20.0351 6.5734C19.917 6.41596 19.8383 6.25851 19.7202 6.10106C19.6415 5.94362 19.5234 5.82553 19.366 5.70745C19.0904 5.51064 18.7755 5.43191 18.5 5.58936L18.4606 5.62872C18.1457 5.82553 17.9489 6.25851 17.7915 6.61277C17.3585 7.55745 17.1223 8.50213 16.8468 9.52553C16.8074 9.72234 16.7681 9.91915 16.7287 10.116L15.5479 13.8947L13.934 17.4766C13.3436 18.2245 12.5957 18.8543 11.7298 19.2479C10.8638 19.6809 9.91915 19.8777 8.97447 19.917C4.99894 19.9957 3.14894 16.4138 3.14894 16.4138C0.905319 12.7138 0.23617 7.83298 0.0787234 6.25851C0 5.90426 0 5.70745 0 5.70745C0 5.23511 0.118085 4.7234 0.393617 4.32979C0.629787 3.89681 0.984043 3.54255 1.41702 3.30638C1.88936 3.07021 2.3617 2.99149 2.8734 2.99149C3.34574 2.99149 3.77872 3.14894 4.2117 3.38511C4.5266 3.58192 4.80213 3.81809 4.99894 4.09362C5.35319 4.60532 5.47128 5.27447 5.51064 5.90426C5.66809 7.32128 5.94362 8.69894 6.33723 10.0372Z" fill="url(#paint11_radial_17_3)"/>
<path d="M6.33723 10.0372C6.65213 11.1 7.04574 12.1628 7.59681 13.1468C7.83298 13.5798 8.06915 14.0128 8.50213 14.2883C8.58085 14.3277 8.65958 14.367 8.7383 14.4064C9.36809 14.5245 9.72234 14.0128 9.95851 13.5798C10.2734 12.8319 10.5489 12.084 10.7851 11.2968C10.8245 11.1394 10.8638 11.0213 10.9032 10.8638C10.9819 10.5883 11.0606 10.3128 11.1 10.0372L13.8947 2.55851C14.4851 1.77128 15.233 1.14149 16.0989 0.708511C16.9255 0.23617 17.8702 0 18.8543 0C20.2319 0 21.6096 0.47234 22.7117 1.3383C24.5617 2.71596 25.6245 5.47128 25.6245 5.47128C25.7819 5.82553 25.8606 6.21915 25.8606 6.61277C25.8606 6.96702 25.7819 7.32128 25.6638 7.67553C25.5064 7.99043 25.3096 8.30532 25.0734 8.58085C24.8372 8.81702 24.5223 9.05319 24.1681 9.17128C23.8532 9.28936 23.4596 9.36809 23.1053 9.36809C22.7117 9.36809 22.3181 9.28936 21.9638 9.09255C21.6096 8.93511 21.2947 8.65957 21.0192 8.38404C21.0192 8.38404 21.0191 8.34468 20.9798 8.34468C20.8223 8.10851 20.6649 7.83298 20.5468 7.55745C20.3894 7.20319 20.2319 6.8883 20.0351 6.5734C19.917 6.41596 19.8383 6.25851 19.7202 6.10106C19.6415 5.94362 19.5234 5.82553 19.366 5.70745C19.0904 5.51064 18.7755 5.43191 18.5 5.58936L18.4606 5.62872C18.1457 5.82553 17.9489 6.25851 17.7915 6.61277C17.3585 7.55745 17.1223 8.50213 16.8468 9.52553C16.8074 9.72234 16.7681 9.91915 16.7287 10.116L15.5479 13.8947L13.934 17.4766C13.3436 18.2245 12.5957 18.8543 11.7298 19.2479C10.8638 19.6809 9.91915 19.8777 8.97447 19.917C4.99894 19.9957 3.14894 16.4138 3.14894 16.4138C0.905319 12.7138 0.23617 7.83298 0.0787234 6.25851C0 5.90426 0 5.70745 0 5.70745C0 5.23511 0.118085 4.7234 0.393617 4.32979C0.629787 3.89681 0.984043 3.54255 1.41702 3.30638C1.88936 3.07021 2.3617 2.99149 2.8734 2.99149C3.34574 2.99149 3.77872 3.14894 4.2117 3.38511C4.5266 3.58192 4.80213 3.81809 4.99894 4.09362C5.35319 4.60532 5.47128 5.27447 5.51064 5.90426C5.66809 7.32128 5.94362 8.69894 6.33723 10.0372Z" fill="url(#paint12_radial_17_3)"/>
<path d="M6.33723 10.0372C6.65213 11.1 7.04574 12.1628 7.59681 13.1468C7.83298 13.5798 8.06915 14.0128 8.50213 14.2883C8.58085 14.3277 8.65958 14.367 8.7383 14.4064C9.36809 14.5245 9.72234 14.0128 9.95851 13.5798C10.2734 12.8319 10.5489 12.084 10.7851 11.2968C10.8245 11.1394 10.8638 11.0213 10.9032 10.8638C10.9819 10.5883 11.0606 10.3128 11.1 10.0372L13.8947 2.55851C14.4851 1.77128 15.233 1.14149 16.0989 0.708511C16.9255 0.23617 17.8702 0 18.8543 0C20.2319 0 21.6096 0.47234 22.7117 1.3383C24.5617 2.71596 25.6245 5.47128 25.6245 5.47128C25.7819 5.82553 25.8606 6.21915 25.8606 6.61277C25.8606 6.96702 25.7819 7.32128 25.6638 7.67553C25.5064 7.99043 25.3096 8.30532 25.0734 8.58085C24.8372 8.81702 24.5223 9.05319 24.1681 9.17128C23.8532 9.28936 23.4596 9.36809 23.1053 9.36809C22.7117 9.36809 22.3181 9.28936 21.9638 9.09255C21.6096 8.93511 21.2947 8.65957 21.0192 8.38404C21.0192 8.38404 21.0191 8.34468 20.9798 8.34468C20.8223 8.10851 20.6649 7.83298 20.5468 7.55745C20.3894 7.20319 20.2319 6.8883 20.0351 6.5734C19.917 6.41596 19.8383 6.25851 19.7202 6.10106C19.6415 5.94362 19.5234 5.82553 19.366 5.70745C19.0904 5.51064 18.7755 5.43191 18.5 5.58936L18.4606 5.62872C18.1457 5.82553 17.9489 6.25851 17.7915 6.61277C17.3585 7.55745 17.1223 8.50213 16.8468 9.52553C16.8074 9.72234 16.7681 9.91915 16.7287 10.116L15.5479 13.8947L13.934 17.4766C13.3436 18.2245 12.5957 18.8543 11.7298 19.2479C10.8638 19.6809 9.91915 19.8777 8.97447 19.917C4.99894 19.9957 3.14894 16.4138 3.14894 16.4138C0.905319 12.7138 0.23617 7.83298 0.0787234 6.25851C0 5.90426 0 5.70745 0 5.70745C0 5.23511 0.118085 4.7234 0.393617 4.32979C0.629787 3.89681 0.984043 3.54255 1.41702 3.30638C1.88936 3.07021 2.3617 2.99149 2.8734 2.99149C3.34574 2.99149 3.77872 3.14894 4.2117 3.38511C4.5266 3.58192 4.80213 3.81809 4.99894 4.09362C5.35319 4.60532 5.47128 5.27447 5.51064 5.90426C5.66809 7.32128 5.94362 8.69894 6.33723 10.0372Z" fill="url(#paint13_radial_17_3)"/>
<path d="M6.33723 10.0372C6.65213 11.1 7.04574 12.1628 7.59681 13.1468C7.83298 13.5798 8.06915 14.0128 8.50213 14.2883C8.58085 14.3277 8.65958 14.367 8.7383 14.4064C9.36809 14.5245 9.72234 14.0128 9.95851 13.5798C10.2734 12.8319 10.5489 12.084 10.7851 11.2968C10.8245 11.1394 10.8638 11.0213 10.9032 10.8638C10.9819 10.5883 11.0606 10.3128 11.1 10.0372L13.8947 2.55851C14.4851 1.77128 15.233 1.14149 16.0989 0.708511C16.9255 0.23617 17.8702 0 18.8543 0C20.2319 0 21.6096 0.47234 22.7117 1.3383C24.5617 2.71596 25.6245 5.47128 25.6245 5.47128C25.7819 5.82553 25.8606 6.21915 25.8606 6.61277C25.8606 6.96702 25.7819 7.32128 25.6638 7.67553C25.5064 7.99043 25.3096 8.30532 25.0734 8.58085C24.8372 8.81702 24.5223 9.05319 24.1681 9.17128C23.8532 9.28936 23.4596 9.36809 23.1053 9.36809C22.7117 9.36809 22.3181 9.28936 21.9638 9.09255C21.6096 8.93511 21.2947 8.65957 21.0192 8.38404C21.0192 8.38404 21.0191 8.34468 20.9798 8.34468C20.8223 8.10851 20.6649 7.83298 20.5468 7.55745C20.3894 7.20319 20.2319 6.8883 20.0351 6.5734C19.917 6.41596 19.8383 6.25851 19.7202 6.10106C19.6415 5.94362 19.5234 5.82553 19.366 5.70745C19.0904 5.51064 18.7755 5.43191 18.5 5.58936L18.4606 5.62872C18.1457 5.82553 17.9489 6.25851 17.7915 6.61277C17.3585 7.55745 17.1223 8.50213 16.8468 9.52553C16.8074 9.72234 16.7681 9.91915 16.7287 10.116L15.5479 13.8947L13.934 17.4766C13.3436 18.2245 12.5957 18.8543 11.7298 19.2479C10.8638 19.6809 9.91915 19.8777 8.97447 19.917C4.99894 19.9957 3.14894 16.4138 3.14894 16.4138C0.905319 12.7138 0.23617 7.83298 0.0787234 6.25851C0 5.90426 0 5.70745 0 5.70745C0 5.23511 0.118085 4.7234 0.393617 4.32979C0.629787 3.89681 0.984043 3.54255 1.41702 3.30638C1.88936 3.07021 2.3617 2.99149 2.8734 2.99149C3.34574 2.99149 3.77872 3.14894 4.2117 3.38511C4.5266 3.58192 4.80213 3.81809 4.99894 4.09362C5.35319 4.60532 5.47128 5.27447 5.51064 5.90426C5.66809 7.32128 5.94362 8.69894 6.33723 10.0372Z" fill="url(#paint14_radial_17_3)"/>
<path d="M6.33723 10.0372C6.65213 11.1 7.04574 12.1628 7.59681 13.1468C7.83298 13.5798 8.06915 14.0128 8.50213 14.2883C8.58085 14.3277 8.65958 14.367 8.7383 14.4064C9.36809 14.5245 9.72234 14.0128 9.95851 13.5798C10.2734 12.8319 10.5489 12.084 10.7851 11.2968C10.8245 11.1394 10.8638 11.0213 10.9032 10.8638C10.9819 10.5883 11.0606 10.3128 11.1 10.0372L13.8947 2.55851C14.4851 1.77128 15.233 1.14149 16.0989 0.708511C16.9255 0.23617 17.8702 0 18.8543 0C20.2319 0 21.6096 0.47234 22.7117 1.3383C24.5617 2.71596 25.6245 5.47128 25.6245 5.47128C25.7819 5.82553 25.8606 6.21915 25.8606 6.61277C25.8606 6.96702 25.7819 7.32128 25.6638 7.67553C25.5064 7.99043 25.3096 8.30532 25.0734 8.58085C24.8372 8.81702 24.5223 9.05319 24.1681 9.17128C23.8532 9.28936 23.4596 9.36809 23.1053 9.36809C22.7117 9.36809 22.3181 9.28936 21.9638 9.09255C21.6096 8.93511 21.2947 8.65957 21.0192 8.38404C21.0192 8.38404 21.0191 8.34468 20.9798 8.34468C20.8223 8.10851 20.6649 7.83298 20.5468 7.55745C20.3894 7.20319 20.2319 6.8883 20.0351 6.5734C19.917 6.41596 19.8383 6.25851 19.7202 6.10106C19.6415 5.94362 19.5234 5.82553 19.366 5.70745C19.0904 5.51064 18.7755 5.43191 18.5 5.58936L18.4606 5.62872C18.1457 5.82553 17.9489 6.25851 17.7915 6.61277C17.3585 7.55745 17.1223 8.50213 16.8468 9.52553C16.8074 9.72234 16.7681 9.91915 16.7287 10.116L15.5479 13.8947L13.934 17.4766C13.3436 18.2245 12.5957 18.8543 11.7298 19.2479C10.8638 19.6809 9.91915 19.8777 8.97447 19.917C4.99894 19.9957 3.14894 16.4138 3.14894 16.4138C0.905319 12.7138 0.23617 7.83298 0.0787234 6.25851C0 5.90426 0 5.70745 0 5.70745C0 5.23511 0.118085 4.7234 0.393617 4.32979C0.629787 3.89681 0.984043 3.54255 1.41702 3.30638C1.88936 3.07021 2.3617 2.99149 2.8734 2.99149C3.34574 2.99149 3.77872 3.14894 4.2117 3.38511C4.5266 3.58192 4.80213 3.81809 4.99894 4.09362C5.35319 4.60532 5.47128 5.27447 5.51064 5.90426C5.66809 7.32128 5.94362 8.69894 6.33723 10.0372Z" fill="url(#paint15_radial_17_3)"/>
<path d="M6.33723 10.0372C6.65213 11.1 7.04574 12.1628 7.59681 13.1468C7.83298 13.5798 8.06915 14.0128 8.50213 14.2883C8.58085 14.3277 8.65958 14.367 8.7383 14.4064C9.36809 14.5245 9.72234 14.0128 9.95851 13.5798C10.2734 12.8319 10.5489 12.084 10.7851 11.2968C10.8245 11.1394 10.8638 11.0213 10.9032 10.8638C10.9819 10.5883 11.0606 10.3128 11.1 10.0372L13.8947 2.55851C14.4851 1.77128 15.233 1.14149 16.0989 0.708511C16.9255 0.23617 17.8702 0 18.8543 0C20.2319 0 21.6096 0.47234 22.7117 1.3383C24.5617 2.71596 25.6245 5.47128 25.6245 5.47128C25.7819 5.82553 25.8606 6.21915 25.8606 6.61277C25.8606 6.96702 25.7819 7.32128 25.6638 7.67553C25.5064 7.99043 25.3096 8.30532 25.0734 8.58085C24.8372 8.81702 24.5223 9.05319 24.1681 9.17128C23.8532 9.28936 23.4596 9.36809 23.1053 9.36809C22.7117 9.36809 22.3181 9.28936 21.9638 9.09255C21.6096 8.93511 21.2947 8.65957 21.0192 8.38404C21.0192 8.38404 21.0191 8.34468 20.9798 8.34468C20.8223 8.10851 20.6649 7.83298 20.5468 7.55745C20.3894 7.20319 20.2319 6.8883 20.0351 6.5734C19.917 6.41596 19.8383 6.25851 19.7202 6.10106C19.6415 5.94362 19.5234 5.82553 19.366 5.70745C19.0904 5.51064 18.7755 5.43191 18.5 5.58936L18.4606 5.62872C18.1457 5.82553 17.9489 6.25851 17.7915 6.61277C17.3585 7.55745 17.1223 8.50213 16.8468 9.52553C16.8074 9.72234 16.7681 9.91915 16.7287 10.116L15.5479 13.8947L13.934 17.4766C13.3436 18.2245 12.5957 18.8543 11.7298 19.2479C10.8638 19.6809 9.91915 19.8777 8.97447 19.917C4.99894 19.9957 3.14894 16.4138 3.14894 16.4138C0.905319 12.7138 0.23617 7.83298 0.0787234 6.25851C0 5.90426 0 5.70745 0 5.70745C0 5.23511 0.118085 4.7234 0.393617 4.32979C0.629787 3.89681 0.984043 3.54255 1.41702 3.30638C1.88936 3.07021 2.3617 2.99149 2.8734 2.99149C3.34574 2.99149 3.77872 3.14894 4.2117 3.38511C4.5266 3.58192 4.80213 3.81809 4.99894 4.09362C5.35319 4.60532 5.47128 5.27447 5.51064 5.90426C5.66809 7.32128 5.94362 8.69894 6.33723 10.0372Z" fill="url(#paint16_linear_17_3)"/>
<path d="M6.33723 10.0372C6.65213 11.1 7.04574 12.1628 7.59681 13.1468C7.83298 13.5798 8.06915 14.0128 8.50213 14.2883C8.58085 14.3277 8.65958 14.367 8.7383 14.4064C9.36809 14.5245 9.72234 14.0128 9.95851 13.5798C10.2734 12.8319 10.5489 12.084 10.7851 11.2968C10.8245 11.1394 10.8638 11.0213 10.9032 10.8638C10.9819 10.5883 11.0606 10.3128 11.1 10.0372L13.8947 2.55851C14.4851 1.77128 15.233 1.14149 16.0989 0.708511C16.9255 0.23617 17.8702 0 18.8543 0C20.2319 0 21.6096 0.47234 22.7117 1.3383C24.5617 2.71596 25.6245 5.47128 25.6245 5.47128C25.7819 5.82553 25.8606 6.21915 25.8606 6.61277C25.8606 6.96702 25.7819 7.32128 25.6638 7.67553C25.5064 7.99043 25.3096 8.30532 25.0734 8.58085C24.8372 8.81702 24.5223 9.05319 24.1681 9.17128C23.8532 9.28936 23.4596 9.36809 23.1053 9.36809C22.7117 9.36809 22.3181 9.28936 21.9638 9.09255C21.6096 8.93511 21.2947 8.65957 21.0192 8.38404C21.0192 8.38404 21.0191 8.34468 20.9798 8.34468C20.8223 8.10851 20.6649 7.83298 20.5468 7.55745C20.3894 7.20319 20.2319 6.8883 20.0351 6.5734C19.917 6.41596 19.8383 6.25851 19.7202 6.10106C19.6415 5.94362 19.5234 5.82553 19.366 5.70745C19.0904 5.51064 18.7755 5.43191 18.5 5.58936L18.4606 5.62872C18.1457 5.82553 17.9489 6.25851 17.7915 6.61277C17.3585 7.55745 17.1223 8.50213 16.8468 9.52553C16.8074 9.72234 16.7681 9.91915 16.7287 10.116L15.5479 13.8947L13.934 17.4766C13.3436 18.2245 12.5957 18.8543 11.7298 19.2479C10.8638 19.6809 9.91915 19.8777 8.97447 19.917C4.99894 19.9957 3.14894 16.4138 3.14894 16.4138C0.905319 12.7138 0.23617 7.83298 0.0787234 6.25851C0 5.90426 0 5.70745 0 5.70745C0 5.23511 0.118085 4.7234 0.393617 4.32979C0.629787 3.89681 0.984043 3.54255 1.41702 3.30638C1.88936 3.07021 2.3617 2.99149 2.8734 2.99149C3.34574 2.99149 3.77872 3.14894 4.2117 3.38511C4.5266 3.58192 4.80213 3.81809 4.99894 4.09362C5.35319 4.60532 5.47128 5.27447 5.51064 5.90426C5.66809 7.32128 5.94362 8.69894 6.33723 10.0372Z" fill="url(#paint17_linear_17_3)"/>
<path d="M6.33723 10.0372C6.65213 11.1 7.04574 12.1628 7.59681 13.1468C7.83298 13.5798 8.06915 14.0128 8.50213 14.2883C8.58085 14.3277 8.65958 14.367 8.7383 14.4064C9.36809 14.5245 9.72234 14.0128 9.95851 13.5798C10.2734 12.8319 10.5489 12.084 10.7851 11.2968C10.8245 11.1394 10.8638 11.0213 10.9032 10.8638C10.9819 10.5883 11.0606 10.3128 11.1 10.0372L13.8947 2.55851C14.4851 1.77128 15.233 1.14149 16.0989 0.708511C16.9255 0.23617 17.8702 0 18.8543 0C20.2319 0 21.6096 0.47234 22.7117 1.3383C24.5617 2.71596 25.6245 5.47128 25.6245 5.47128C25.7819 5.82553 25.8606 6.21915 25.8606 6.61277C25.8606 6.96702 25.7819 7.32128 25.6638 7.67553C25.5064 7.99043 25.3096 8.30532 25.0734 8.58085C24.8372 8.81702 24.5223 9.05319 24.1681 9.17128C23.8532 9.28936 23.4596 9.36809 23.1053 9.36809C22.7117 9.36809 22.3181 9.28936 21.9638 9.09255C21.6096 8.93511 21.2947 8.65957 21.0192 8.38404C21.0192 8.38404 21.0191 8.34468 20.9798 8.34468C20.8223 8.10851 20.6649 7.83298 20.5468 7.55745C20.3894 7.20319 20.2319 6.8883 20.0351 6.5734C19.917 6.41596 19.8383 6.25851 19.7202 6.10106C19.6415 5.94362 19.5234 5.82553 19.366 5.70745C19.0904 5.51064 18.7755 5.43191 18.5 5.58936L18.4606 5.62872C18.1457 5.82553 17.9489 6.25851 17.7915 6.61277C17.3585 7.55745 17.1223 8.50213 16.8468 9.52553C16.8074 9.72234 16.7681 9.91915 16.7287 10.116L15.5479 13.8947L13.934 17.4766C13.3436 18.2245 12.5957 18.8543 11.7298 19.2479C10.8638 19.6809 9.91915 19.8777 8.97447 19.917C4.99894 19.9957 3.14894 16.4138 3.14894 16.4138C0.905319 12.7138 0.23617 7.83298 0.0787234 6.25851C0 5.90426 0 5.70745 0 5.70745C0 5.23511 0.118085 4.7234 0.393617 4.32979C0.629787 3.89681 0.984043 3.54255 1.41702 3.30638C1.88936 3.07021 2.3617 2.99149 2.8734 2.99149C3.34574 2.99149 3.77872 3.14894 4.2117 3.38511C4.5266 3.58192 4.80213 3.81809 4.99894 4.09362C5.35319 4.60532 5.47128 5.27447 5.51064 5.90426C5.66809 7.32128 5.94362 8.69894 6.33723 10.0372Z" fill="url(#paint18_linear_17_3)"/>
<path d="M6.33723 10.0372C6.65213 11.1 7.04574 12.1628 7.59681 13.1468C7.83298 13.5798 8.06915 14.0128 8.50213 14.2883C8.58085 14.3277 8.65958 14.367 8.7383 14.4064C9.36809 14.5245 9.72234 14.0128 9.95851 13.5798C10.2734 12.8319 10.5489 12.084 10.7851 11.2968C10.8245 11.1394 10.8638 11.0213 10.9032 10.8638C10.9819 10.5883 11.0606 10.3128 11.1 10.0372L13.8947 2.55851C14.4851 1.77128 15.233 1.14149 16.0989 0.708511C16.9255 0.23617 17.8702 0 18.8543 0C20.2319 0 21.6096 0.47234 22.7117 1.3383C24.5617 2.71596 25.6245 5.47128 25.6245 5.47128C25.7819 5.82553 25.8606 6.21915 25.8606 6.61277C25.8606 6.96702 25.7819 7.32128 25.6638 7.67553C25.5064 7.99043 25.3096 8.30532 25.0734 8.58085C24.8372 8.81702 24.5223 9.05319 24.1681 9.17128C23.8532 9.28936 23.4596 9.36809 23.1053 9.36809C22.7117 9.36809 22.3181 9.28936 21.9638 9.09255C21.6096 8.93511 21.2947 8.65957 21.0192 8.38404C21.0192 8.38404 21.0191 8.34468 20.9798 8.34468C20.8223 8.10851 20.6649 7.83298 20.5468 7.55745C20.3894 7.20319 20.2319 6.8883 20.0351 6.5734C19.917 6.41596 19.8383 6.25851 19.7202 6.10106C19.6415 5.94362 19.5234 5.82553 19.366 5.70745C19.0904 5.51064 18.7755 5.43191 18.5 5.58936L18.4606 5.62872C18.1457 5.82553 17.9489 6.25851 17.7915 6.61277C17.3585 7.55745 17.1223 8.50213 16.8468 9.52553C16.8074 9.72234 16.7681 9.91915 16.7287 10.116L15.5479 13.8947L13.934 17.4766C13.3436 18.2245 12.5957 18.8543 11.7298 19.2479C10.8638 19.6809 9.91915 19.8777 8.97447 19.917C4.99894 19.9957 3.14894 16.4138 3.14894 16.4138C0.905319 12.7138 0.23617 7.83298 0.0787234 6.25851C0 5.90426 0 5.70745 0 5.70745C0 5.23511 0.118085 4.7234 0.393617 4.32979C0.629787 3.89681 0.984043 3.54255 1.41702 3.30638C1.88936 3.07021 2.3617 2.99149 2.8734 2.99149C3.34574 2.99149 3.77872 3.14894 4.2117 3.38511C4.5266 3.58192 4.80213 3.81809 4.99894 4.09362C5.35319 4.60532 5.47128 5.27447 5.51064 5.90426C5.66809 7.32128 5.94362 8.69894 6.33723 10.0372Z" fill="url(#paint19_linear_17_3)"/>
<path d="M12.084 7.24255L13.8553 2.47979C14.4457 1.69255 15.1936 1.06277 16.0596 0.629787C16.9255 0.23617 17.8702 0 18.8543 0C20.2319 0 21.6096 0.47234 22.7117 1.3383C24.5617 2.71596 25.6245 5.47128 25.6245 5.47128C25.7819 5.82553 25.8606 6.21915 25.8606 6.61277C25.8606 6.96702 25.7819 7.32128 25.6638 7.67553C25.5064 7.99043 25.3096 8.30532 25.0734 8.58085C24.8372 8.81702 24.5223 9.05319 24.1681 9.17128C23.8532 9.28936 23.4596 9.36808 23.1053 9.36808C22.7117 9.36808 22.3181 9.28936 21.9638 9.09255C21.6096 8.93511 21.2947 8.65957 21.0192 8.38404C21.0192 8.38404 21.0192 8.34468 20.9798 8.34468C20.8223 8.10851 20.6649 7.83298 20.5468 7.55745C20.3894 7.20319 20.2319 6.8883 20.0351 6.5734C19.917 6.41596 19.8383 6.25851 19.7202 6.10106C19.6415 5.94362 19.5234 5.82553 19.366 5.70745C19.0904 5.51064 18.7755 5.43191 18.5 5.58936L18.4606 5.62872C18.1457 5.82553 17.9489 6.25851 17.7915 6.61277C17.3585 7.55745 17.1223 8.50213 16.8468 9.52553C16.8074 9.72234 16.7681 9.91915 16.7287 10.116L15.5479 13.8947L12.084 7.24255Z" fill="url(#paint20_linear_17_3)"/>
<path d="M24.9947 2.9915C24.7585 2.9915 24.5223 3.03086 24.3255 3.07023C24.8372 3.8181 25.2702 4.60533 25.6245 5.43193C25.7819 5.78618 25.8606 6.1798 25.8606 6.57342C25.8606 6.92767 25.7819 7.28193 25.6638 7.63618C25.5064 7.95108 25.3096 8.26597 25.0734 8.5415C24.8372 8.81703 24.5223 9.01384 24.1681 9.13193C23.8532 9.25001 23.4596 9.32874 23.1053 9.32874C22.633 9.32874 22.1213 9.21065 21.7277 8.93512L21.4521 9.99789C20.9404 11.7298 20.5862 12.3596 20.5862 12.3596C20.3894 12.8319 20.1532 13.2649 19.8777 13.6979C19.6809 13.9734 19.4447 14.2489 19.1298 14.367C19.0117 14.4064 18.8936 14.4064 18.7755 14.4064C18.6575 14.4064 18.5394 14.367 18.4213 14.2883C18.2245 14.1309 18.0277 13.8947 17.9096 13.6585C17.7521 13.383 17.634 13.1075 17.516 12.8319C17.2798 12.2415 16.8862 10.7851 16.8862 10.7851L16.4926 9.25001L16.0989 7.71491L15.8234 6.6915C15.1149 4.05427 14.0915 2.75533 14.0915 2.75533C13.3043 1.61384 12.1628 0.787247 10.8638 0.314906C9.36809 -0.236158 7.79362 0.078736 7.79362 0.078736C5.31384 0.551076 4.0149 2.24363 3.46384 3.07023C3.73937 3.14895 3.97554 3.22767 4.21171 3.38512C4.5266 3.58193 4.80213 3.8181 4.99894 4.09363C5.3532 4.60533 5.47128 5.27448 5.51065 5.90427C5.66809 7.28193 5.94362 8.62023 6.29788 9.95852C7.12447 7.16384 8.14788 5.86491 8.14788 5.86491C8.26596 5.70746 8.38405 5.58937 8.5415 5.51065C8.62022 5.47129 8.69894 5.43193 8.81703 5.43193C8.97447 5.43193 9.17128 5.47129 9.28937 5.55001C9.32873 5.55001 9.32873 5.58937 9.36809 5.58937C9.48618 5.70746 9.60426 5.82554 9.72235 5.98299C9.91916 6.37661 10.116 6.73086 10.2734 7.16384C10.5883 8.0298 10.8638 9.13193 10.8638 9.13193L11.6511 12.2809C12.2415 14.4458 12.7138 15.4692 12.7138 15.4692C13.934 18.2638 15.784 19.0511 15.784 19.0511C16.6894 19.5234 17.7128 19.799 18.7362 19.8383C19.7202 19.8777 20.7043 19.6809 21.5702 19.2479C22.5149 18.7755 23.3809 18.067 24.05 17.2404C24.483 16.7287 25.1521 15.4692 25.1521 15.4692C25.9 14.0128 26.4511 12.4777 26.8447 10.9032C27.1202 9.91916 27.317 8.93512 27.4745 7.91172C27.5532 7.40001 27.6319 6.92767 27.6713 6.41597C27.75 5.94363 27.75 5.47129 27.6319 4.99895C27.5926 4.92023 27.5926 4.8415 27.5532 4.76278C27.317 4.17235 26.884 3.70001 26.333 3.38512C25.9394 3.10959 25.467 2.9915 24.9947 2.9915Z" fill="url(#paint21_linear_17_3)"/>
<path d="M24.9947 2.9915C24.7585 2.9915 24.5223 3.03086 24.3255 3.07023C24.8372 3.8181 25.2702 4.60533 25.6245 5.43193C25.7819 5.78618 25.8606 6.1798 25.8606 6.57342C25.8606 6.92767 25.7819 7.28193 25.6638 7.63618C25.5064 7.95108 25.3096 8.26597 25.0734 8.5415C24.8372 8.81703 24.5223 9.01384 24.1681 9.13193C23.8532 9.25001 23.4596 9.32874 23.1053 9.32874C22.633 9.32874 22.1213 9.21065 21.7277 8.93512L21.4521 9.99789C20.9404 11.7298 20.5862 12.3596 20.5862 12.3596C20.3894 12.8319 20.1532 13.2649 19.8777 13.6979C19.6809 13.9734 19.4447 14.2489 19.1298 14.367C19.0117 14.4064 18.8936 14.4064 18.7755 14.4064C18.6575 14.4064 18.5394 14.367 18.4213 14.2883C18.2245 14.1309 18.0277 13.8947 17.9096 13.6585C17.7521 13.383 17.634 13.1075 17.516 12.8319C17.2798 12.2415 16.8862 10.7851 16.8862 10.7851L16.4926 9.25001L16.0989 7.71491L15.8234 6.6915C15.1149 4.05427 14.0915 2.75533 14.0915 2.75533C13.3043 1.61384 12.1628 0.787247 10.8638 0.314906C9.36809 -0.236158 7.79362 0.078736 7.79362 0.078736C5.31384 0.551076 4.0149 2.24363 3.46384 3.07023C3.73937 3.14895 3.97554 3.22767 4.21171 3.38512C4.5266 3.58193 4.80213 3.8181 4.99894 4.09363C5.3532 4.60533 5.47128 5.27448 5.51065 5.90427C5.66809 7.28193 5.94362 8.62023 6.29788 9.95852C7.12447 7.16384 8.14788 5.86491 8.14788 5.86491C8.26596 5.70746 8.38405 5.58937 8.5415 5.51065C8.62022 5.47129 8.69894 5.43193 8.81703 5.43193C8.97447 5.43193 9.17128 5.47129 9.28937 5.55001C9.32873 5.55001 9.32873 5.58937 9.36809 5.58937C9.48618 5.70746 9.60426 5.82554 9.72235 5.98299C9.91916 6.37661 10.116 6.73086 10.2734 7.16384C10.5883 8.0298 10.8638 9.13193 10.8638 9.13193L11.6511 12.2809C12.2415 14.4458 12.7138 15.4692 12.7138 15.4692C13.934 18.2638 15.784 19.0511 15.784 19.0511C16.6894 19.5234 17.7128 19.799 18.7362 19.8383C19.7202 19.8777 20.7043 19.6809 21.5702 19.2479C22.5149 18.7755 23.3809 18.067 24.05 17.2404C24.483 16.7287 25.1521 15.4692 25.1521 15.4692C25.9 14.0128 26.4511 12.4777 26.8447 10.9032C27.1202 9.91916 27.317 8.93512 27.4745 7.91172C27.5532 7.40001 27.6319 6.92767 27.6713 6.41597C27.75 5.94363 27.75 5.47129 27.6319 4.99895C27.5926 4.92023 27.5926 4.8415 27.5532 4.76278C27.317 4.17235 26.884 3.70001 26.333 3.38512C25.9394 3.10959 25.467 2.9915 24.9947 2.9915Z" fill="url(#paint22_radial_17_3)"/>
<path d="M24.9947 2.9915C24.7585 2.9915 24.5223 3.03086 24.3255 3.07023C24.8372 3.8181 25.2702 4.60533 25.6245 5.43193C25.7819 5.78618 25.8606 6.1798 25.8606 6.57342C25.8606 6.92767 25.7819 7.28193 25.6638 7.63618C25.5064 7.95108 25.3096 8.26597 25.0734 8.5415C24.8372 8.81703 24.5223 9.01384 24.1681 9.13193C23.8532 9.25001 23.4596 9.32874 23.1053 9.32874C22.633 9.32874 22.1213 9.21065 21.7277 8.93512L21.4521 9.99789C20.9404 11.7298 20.5862 12.3596 20.5862 12.3596C20.3894 12.8319 20.1532 13.2649 19.8777 13.6979C19.6809 13.9734 19.4447 14.2489 19.1298 14.367C19.0117 14.4064 18.8936 14.4064 18.7755 14.4064C18.6575 14.4064 18.5394 14.367 18.4213 14.2883C18.2245 14.1309 18.0277 13.8947 17.9096 13.6585C17.7521 13.383 17.634 13.1075 17.516 12.8319C17.2798 12.2415 16.8862 10.7851 16.8862 10.7851L16.4926 9.25001L16.0989 7.71491L15.8234 6.6915C15.1149 4.05427 14.0915 2.75533 14.0915 2.75533C13.3043 1.61384 12.1628 0.787247 10.8638 0.314906C9.36809 -0.236158 7.79362 0.078736 7.79362 0.078736C5.31384 0.551076 4.0149 2.24363 3.46384 3.07023C3.73937 3.14895 3.97554 3.22767 4.21171 3.38512C4.5266 3.58193 4.80213 3.8181 4.99894 4.09363C5.3532 4.60533 5.47128 5.27448 5.51065 5.90427C5.66809 7.28193 5.94362 8.62023 6.29788 9.95852C7.12447 7.16384 8.14788 5.86491 8.14788 5.86491C8.26596 5.70746 8.38405 5.58937 8.5415 5.51065C8.62022 5.47129 8.69894 5.43193 8.81703 5.43193C8.97447 5.43193 9.17128 5.47129 9.28937 5.55001C9.32873 5.55001 9.32873 5.58937 9.36809 5.58937C9.48618 5.70746 9.60426 5.82554 9.72235 5.98299C9.91916 6.37661 10.116 6.73086 10.2734 7.16384C10.5883 8.0298 10.8638 9.13193 10.8638 9.13193L11.6511 12.2809C12.2415 14.4458 12.7138 15.4692 12.7138 15.4692C13.934 18.2638 15.784 19.0511 15.784 19.0511C16.6894 19.5234 17.7128 19.799 18.7362 19.8383C19.7202 19.8777 20.7043 19.6809 21.5702 19.2479C22.5149 18.7755 23.3809 18.067 24.05 17.2404C24.483 16.7287 25.1521 15.4692 25.1521 15.4692C25.9 14.0128 26.4511 12.4777 26.8447 10.9032C27.1202 9.91916 27.317 8.93512 27.4745 7.91172C27.5532 7.40001 27.6319 6.92767 27.6713 6.41597C27.75 5.94363 27.75 5.47129 27.6319 4.99895C27.5926 4.92023 27.5926 4.8415 27.5532 4.76278C27.317 4.17235 26.884 3.70001 26.333 3.38512C25.9394 3.10959 25.467 2.9915 24.9947 2.9915Z" fill="url(#paint23_radial_17_3)"/>
<path d="M24.9947 2.9915C24.7585 2.9915 24.5223 3.03086 24.3255 3.07023C24.8372 3.8181 25.2702 4.60533 25.6245 5.43193C25.7819 5.78618 25.8606 6.1798 25.8606 6.57342C25.8606 6.92767 25.7819 7.28193 25.6638 7.63618C25.5064 7.95108 25.3096 8.26597 25.0734 8.5415C24.8372 8.81703 24.5223 9.01384 24.1681 9.13193C23.8532 9.25001 23.4596 9.32874 23.1053 9.32874C22.633 9.32874 22.1213 9.21065 21.7277 8.93512L21.4521 9.99789C20.9404 11.7298 20.5862 12.3596 20.5862 12.3596C20.3894 12.8319 20.1532 13.2649 19.8777 13.6979C19.6809 13.9734 19.4447 14.2489 19.1298 14.367C19.0117 14.4064 18.8936 14.4064 18.7755 14.4064C18.6575 14.4064 18.5394 14.367 18.4213 14.2883C18.2245 14.1309 18.0277 13.8947 17.9096 13.6585C17.7521 13.383 17.634 13.1075 17.516 12.8319C17.2798 12.2415 16.8862 10.7851 16.8862 10.7851L16.4926 9.25001L16.0989 7.71491L15.8234 6.6915C15.1149 4.05427 14.0915 2.75533 14.0915 2.75533C13.3043 1.61384 12.1628 0.787247 10.8638 0.314906C9.36809 -0.236158 7.79362 0.078736 7.79362 0.078736C5.31384 0.551076 4.0149 2.24363 3.46384 3.07023C3.73937 3.14895 3.97554 3.22767 4.21171 3.38512C4.5266 3.58193 4.80213 3.8181 4.99894 4.09363C5.3532 4.60533 5.47128 5.27448 5.51065 5.90427C5.66809 7.28193 5.94362 8.62023 6.29788 9.95852C7.12447 7.16384 8.14788 5.86491 8.14788 5.86491C8.26596 5.70746 8.38405 5.58937 8.5415 5.51065C8.62022 5.47129 8.69894 5.43193 8.81703 5.43193C8.97447 5.43193 9.17128 5.47129 9.28937 5.55001C9.32873 5.55001 9.32873 5.58937 9.36809 5.58937C9.48618 5.70746 9.60426 5.82554 9.72235 5.98299C9.91916 6.37661 10.116 6.73086 10.2734 7.16384C10.5883 8.0298 10.8638 9.13193 10.8638 9.13193L11.6511 12.2809C12.2415 14.4458 12.7138 15.4692 12.7138 15.4692C13.934 18.2638 15.784 19.0511 15.784 19.0511C16.6894 19.5234 17.7128 19.799 18.7362 19.8383C19.7202 19.8777 20.7043 19.6809 21.5702 19.2479C22.5149 18.7755 23.3809 18.067 24.05 17.2404C24.483 16.7287 25.1521 15.4692 25.1521 15.4692C25.9 14.0128 26.4511 12.4777 26.8447 10.9032C27.1202 9.91916 27.317 8.93512 27.4745 7.91172C27.5532 7.40001 27.6319 6.92767 27.6713 6.41597C27.75 5.94363 27.75 5.47129 27.6319 4.99895C27.5926 4.92023 27.5926 4.8415 27.5532 4.76278C27.317 4.17235 26.884 3.70001 26.333 3.38512C25.9394 3.10959 25.467 2.9915 24.9947 2.9915Z" fill="url(#paint24_radial_17_3)"/>
<path d="M24.9947 2.9915C24.7585 2.9915 24.5223 3.03086 24.3255 3.07023C24.8372 3.8181 25.2702 4.60533 25.6245 5.43193C25.7819 5.78618 25.8606 6.1798 25.8606 6.57342C25.8606 6.92767 25.7819 7.28193 25.6638 7.63618C25.5064 7.95108 25.3096 8.26597 25.0734 8.5415C24.8372 8.81703 24.5223 9.01384 24.1681 9.13193C23.8532 9.25001 23.4596 9.32874 23.1053 9.32874C22.633 9.32874 22.1213 9.21065 21.7277 8.93512L21.4521 9.99789C20.9404 11.7298 20.5862 12.3596 20.5862 12.3596C20.3894 12.8319 20.1532 13.2649 19.8777 13.6979C19.6809 13.9734 19.4447 14.2489 19.1298 14.367C19.0117 14.4064 18.8936 14.4064 18.7755 14.4064C18.6575 14.4064 18.5394 14.367 18.4213 14.2883C18.2245 14.1309 18.0277 13.8947 17.9096 13.6585C17.7521 13.383 17.634 13.1075 17.516 12.8319C17.2798 12.2415 16.8862 10.7851 16.8862 10.7851L16.4926 9.25001L16.0989 7.71491L15.8234 6.6915C15.1149 4.05427 14.0915 2.75533 14.0915 2.75533C13.3043 1.61384 12.1628 0.787247 10.8638 0.314906C9.36809 -0.236158 7.79362 0.078736 7.79362 0.078736C5.31384 0.551076 4.0149 2.24363 3.46384 3.07023C3.73937 3.14895 3.97554 3.22767 4.21171 3.38512C4.5266 3.58193 4.80213 3.8181 4.99894 4.09363C5.3532 4.60533 5.47128 5.27448 5.51065 5.90427C5.66809 7.28193 5.94362 8.62023 6.29788 9.95852C7.12447 7.16384 8.14788 5.86491 8.14788 5.86491C8.26596 5.70746 8.38405 5.58937 8.5415 5.51065C8.62022 5.47129 8.69894 5.43193 8.81703 5.43193C8.97447 5.43193 9.17128 5.47129 9.28937 5.55001C9.32873 5.55001 9.32873 5.58937 9.36809 5.58937C9.48618 5.70746 9.60426 5.82554 9.72235 5.98299C9.91916 6.37661 10.116 6.73086 10.2734 7.16384C10.5883 8.0298 10.8638 9.13193 10.8638 9.13193L11.6511 12.2809C12.2415 14.4458 12.7138 15.4692 12.7138 15.4692C13.934 18.2638 15.784 19.0511 15.784 19.0511C16.6894 19.5234 17.7128 19.799 18.7362 19.8383C19.7202 19.8777 20.7043 19.6809 21.5702 19.2479C22.5149 18.7755 23.3809 18.067 24.05 17.2404C24.483 16.7287 25.1521 15.4692 25.1521 15.4692C25.9 14.0128 26.4511 12.4777 26.8447 10.9032C27.1202 9.91916 27.317 8.93512 27.4745 7.91172C27.5532 7.40001 27.6319 6.92767 27.6713 6.41597C27.75 5.94363 27.75 5.47129 27.6319 4.99895C27.5926 4.92023 27.5926 4.8415 27.5532 4.76278C27.317 4.17235 26.884 3.70001 26.333 3.38512C25.9394 3.10959 25.467 2.9915 24.9947 2.9915Z" fill="url(#paint25_radial_17_3)"/>
<path d="M24.9947 2.9915C24.7585 2.9915 24.5223 3.03086 24.3255 3.07023C24.8372 3.8181 25.2702 4.60533 25.6245 5.43193C25.7819 5.78618 25.8606 6.1798 25.8606 6.57342C25.8606 6.92767 25.7819 7.28193 25.6638 7.63618C25.5064 7.95108 25.3096 8.26597 25.0734 8.5415C24.8372 8.81703 24.5223 9.01384 24.1681 9.13193C23.8532 9.25001 23.4596 9.32874 23.1053 9.32874C22.633 9.32874 22.1213 9.21065 21.7277 8.93512L21.4521 9.99789C20.9404 11.7298 20.5862 12.3596 20.5862 12.3596C20.3894 12.8319 20.1532 13.2649 19.8777 13.6979C19.6809 13.9734 19.4447 14.2489 19.1298 14.367C19.0117 14.4064 18.8936 14.4064 18.7755 14.4064C18.6575 14.4064 18.5394 14.367 18.4213 14.2883C18.2245 14.1309 18.0277 13.8947 17.9096 13.6585C17.7521 13.383 17.634 13.1075 17.516 12.8319C17.2798 12.2415 16.8862 10.7851 16.8862 10.7851L16.4926 9.25001L16.0989 7.71491L15.8234 6.6915C15.1149 4.05427 14.0915 2.75533 14.0915 2.75533C13.3043 1.61384 12.1628 0.787247 10.8638 0.314906C9.36809 -0.236158 7.79362 0.078736 7.79362 0.078736C5.31384 0.551076 4.0149 2.24363 3.46384 3.07023C3.73937 3.14895 3.97554 3.22767 4.21171 3.38512C4.5266 3.58193 4.80213 3.8181 4.99894 4.09363C5.3532 4.60533 5.47128 5.27448 5.51065 5.90427C5.66809 7.28193 5.94362 8.62023 6.29788 9.95852C7.12447 7.16384 8.14788 5.86491 8.14788 5.86491C8.26596 5.70746 8.38405 5.58937 8.5415 5.51065C8.62022 5.47129 8.69894 5.43193 8.81703 5.43193C8.97447 5.43193 9.17128 5.47129 9.28937 5.55001C9.32873 5.55001 9.32873 5.58937 9.36809 5.58937C9.48618 5.70746 9.60426 5.82554 9.72235 5.98299C9.91916 6.37661 10.116 6.73086 10.2734 7.16384C10.5883 8.0298 10.8638 9.13193 10.8638 9.13193L11.6511 12.2809C12.2415 14.4458 12.7138 15.4692 12.7138 15.4692C13.934 18.2638 15.784 19.0511 15.784 19.0511C16.6894 19.5234 17.7128 19.799 18.7362 19.8383C19.7202 19.8777 20.7043 19.6809 21.5702 19.2479C22.5149 18.7755 23.3809 18.067 24.05 17.2404C24.483 16.7287 25.1521 15.4692 25.1521 15.4692C25.9 14.0128 26.4511 12.4777 26.8447 10.9032C27.1202 9.91916 27.317 8.93512 27.4745 7.91172C27.5532 7.40001 27.6319 6.92767 27.6713 6.41597C27.75 5.94363 27.75 5.47129 27.6319 4.99895C27.5926 4.92023 27.5926 4.8415 27.5532 4.76278C27.317 4.17235 26.884 3.70001 26.333 3.38512C25.9394 3.10959 25.467 2.9915 24.9947 2.9915Z" fill="url(#paint26_radial_17_3)"/>
<path d="M24.9947 2.9915C24.7585 2.9915 24.5223 3.03086 24.3255 3.07023C24.8372 3.8181 25.2702 4.60533 25.6245 5.43193C25.7819 5.78618 25.8606 6.1798 25.8606 6.57342C25.8606 6.92767 25.7819 7.28193 25.6638 7.63618C25.5064 7.95108 25.3096 8.26597 25.0734 8.5415C24.8372 8.81703 24.5223 9.01384 24.1681 9.13193C23.8532 9.25001 23.4596 9.32874 23.1053 9.32874C22.633 9.32874 22.1213 9.21065 21.7277 8.93512L21.4521 9.99789C20.9404 11.7298 20.5862 12.3596 20.5862 12.3596C20.3894 12.8319 20.1532 13.2649 19.8777 13.6979C19.6809 13.9734 19.4447 14.2489 19.1298 14.367C19.0117 14.4064 18.8936 14.4064 18.7755 14.4064C18.6575 14.4064 18.5394 14.367 18.4213 14.2883C18.2245 14.1309 18.0277 13.8947 17.9096 13.6585C17.7521 13.383 17.634 13.1075 17.516 12.8319C17.2798 12.2415 16.8862 10.7851 16.8862 10.7851L16.4926 9.25001L16.0989 7.71491L15.8234 6.6915C15.1149 4.05427 14.0915 2.75533 14.0915 2.75533C13.3043 1.61384 12.1628 0.787247 10.8638 0.314906C9.36809 -0.236158 7.79362 0.078736 7.79362 0.078736C5.31384 0.551076 4.0149 2.24363 3.46384 3.07023C3.73937 3.14895 3.97554 3.22767 4.21171 3.38512C4.5266 3.58193 4.80213 3.8181 4.99894 4.09363C5.3532 4.60533 5.47128 5.27448 5.51065 5.90427C5.66809 7.28193 5.94362 8.62023 6.29788 9.95852C7.12447 7.16384 8.14788 5.86491 8.14788 5.86491C8.26596 5.70746 8.38405 5.58937 8.5415 5.51065C8.62022 5.47129 8.69894 5.43193 8.81703 5.43193C8.97447 5.43193 9.17128 5.47129 9.28937 5.55001C9.32873 5.55001 9.32873 5.58937 9.36809 5.58937C9.48618 5.70746 9.60426 5.82554 9.72235 5.98299C9.91916 6.37661 10.116 6.73086 10.2734 7.16384C10.5883 8.0298 10.8638 9.13193 10.8638 9.13193L11.6511 12.2809C12.2415 14.4458 12.7138 15.4692 12.7138 15.4692C13.934 18.2638 15.784 19.0511 15.784 19.0511C16.6894 19.5234 17.7128 19.799 18.7362 19.8383C19.7202 19.8777 20.7043 19.6809 21.5702 19.2479C22.5149 18.7755 23.3809 18.067 24.05 17.2404C24.483 16.7287 25.1521 15.4692 25.1521 15.4692C25.9 14.0128 26.4511 12.4777 26.8447 10.9032C27.1202 9.91916 27.317 8.93512 27.4745 7.91172C27.5532 7.40001 27.6319 6.92767 27.6713 6.41597C27.75 5.94363 27.75 5.47129 27.6319 4.99895C27.5926 4.92023 27.5926 4.8415 27.5532 4.76278C27.317 4.17235 26.884 3.70001 26.333 3.38512C25.9394 3.10959 25.467 2.9915 24.9947 2.9915Z" fill="url(#paint27_radial_17_3)"/>
<path d="M24.9947 2.9915C24.7585 2.9915 24.5223 3.03086 24.3255 3.07023C24.8372 3.8181 25.2702 4.60533 25.6245 5.43193C25.7819 5.78618 25.8606 6.1798 25.8606 6.57342C25.8606 6.92767 25.7819 7.28193 25.6638 7.63618C25.5064 7.95108 25.3096 8.26597 25.0734 8.5415C24.8372 8.81703 24.5223 9.01384 24.1681 9.13193C23.8532 9.25001 23.4596 9.32874 23.1053 9.32874C22.633 9.32874 22.1213 9.21065 21.7277 8.93512L21.4521 9.99789C20.9404 11.7298 20.5862 12.3596 20.5862 12.3596C20.3894 12.8319 20.1532 13.2649 19.8777 13.6979C19.6809 13.9734 19.4447 14.2489 19.1298 14.367C19.0117 14.4064 18.8936 14.4064 18.7755 14.4064C18.6575 14.4064 18.5394 14.367 18.4213 14.2883C18.2245 14.1309 18.0277 13.8947 17.9096 13.6585C17.7521 13.383 17.634 13.1075 17.516 12.8319C17.2798 12.2415 16.8862 10.7851 16.8862 10.7851L16.4926 9.25001L16.0989 7.71491L15.8234 6.6915C15.1149 4.05427 14.0915 2.75533 14.0915 2.75533C13.3043 1.61384 12.1628 0.787247 10.8638 0.314906C9.36809 -0.236158 7.79362 0.078736 7.79362 0.078736C5.31384 0.551076 4.0149 2.24363 3.46384 3.07023C3.73937 3.14895 3.97554 3.22767 4.21171 3.38512C4.5266 3.58193 4.80213 3.8181 4.99894 4.09363C5.3532 4.60533 5.47128 5.27448 5.51065 5.90427C5.66809 7.28193 5.94362 8.62023 6.29788 9.95852C7.12447 7.16384 8.14788 5.86491 8.14788 5.86491C8.26596 5.70746 8.38405 5.58937 8.5415 5.51065C8.62022 5.47129 8.69894 5.43193 8.81703 5.43193C8.97447 5.43193 9.17128 5.47129 9.28937 5.55001C9.32873 5.55001 9.32873 5.58937 9.36809 5.58937C9.48618 5.70746 9.60426 5.82554 9.72235 5.98299C9.91916 6.37661 10.116 6.73086 10.2734 7.16384C10.5883 8.0298 10.8638 9.13193 10.8638 9.13193L11.6511 12.2809C12.2415 14.4458 12.7138 15.4692 12.7138 15.4692C13.934 18.2638 15.784 19.0511 15.784 19.0511C16.6894 19.5234 17.7128 19.799 18.7362 19.8383C19.7202 19.8777 20.7043 19.6809 21.5702 19.2479C22.5149 18.7755 23.3809 18.067 24.05 17.2404C24.483 16.7287 25.1521 15.4692 25.1521 15.4692C25.9 14.0128 26.4511 12.4777 26.8447 10.9032C27.1202 9.91916 27.317 8.93512 27.4745 7.91172C27.5532 7.40001 27.6319 6.92767 27.6713 6.41597C27.75 5.94363 27.75 5.47129 27.6319 4.99895C27.5926 4.92023 27.5926 4.8415 27.5532 4.76278C27.317 4.17235 26.884 3.70001 26.333 3.38512C25.9394 3.10959 25.467 2.9915 24.9947 2.9915Z" fill="url(#paint28_radial_17_3)"/>
<path d="M24.9947 2.9915C24.7585 2.9915 24.5223 3.03086 24.3255 3.07023C24.8372 3.8181 25.2702 4.60533 25.6245 5.43193C25.7819 5.78618 25.8606 6.1798 25.8606 6.57342C25.8606 6.92767 25.7819 7.28193 25.6638 7.63618C25.5064 7.95108 25.3096 8.26597 25.0734 8.5415C24.8372 8.81703 24.5223 9.01384 24.1681 9.13193C23.8532 9.25001 23.4596 9.32874 23.1053 9.32874C22.633 9.32874 22.1213 9.21065 21.7277 8.93512L21.4521 9.99789C20.9404 11.7298 20.5862 12.3596 20.5862 12.3596C20.3894 12.8319 20.1532 13.2649 19.8777 13.6979C19.6809 13.9734 19.4447 14.2489 19.1298 14.367C19.0117 14.4064 18.8936 14.4064 18.7755 14.4064C18.6575 14.4064 18.5394 14.367 18.4213 14.2883C18.2245 14.1309 18.0277 13.8947 17.9096 13.6585C17.7521 13.383 17.634 13.1075 17.516 12.8319C17.2798 12.2415 16.8862 10.7851 16.8862 10.7851L16.4926 9.25001L16.0989 7.71491L15.8234 6.6915C15.1149 4.05427 14.0915 2.75533 14.0915 2.75533C13.3043 1.61384 12.1628 0.787247 10.8638 0.314906C9.36809 -0.236158 7.79362 0.078736 7.79362 0.078736C5.31384 0.551076 4.0149 2.24363 3.46384 3.07023C3.73937 3.14895 3.97554 3.22767 4.21171 3.38512C4.5266 3.58193 4.80213 3.8181 4.99894 4.09363C5.3532 4.60533 5.47128 5.27448 5.51065 5.90427C5.66809 7.28193 5.94362 8.62023 6.29788 9.95852C7.12447 7.16384 8.14788 5.86491 8.14788 5.86491C8.26596 5.70746 8.38405 5.58937 8.5415 5.51065C8.62022 5.47129 8.69894 5.43193 8.81703 5.43193C8.97447 5.43193 9.17128 5.47129 9.28937 5.55001C9.32873 5.55001 9.32873 5.58937 9.36809 5.58937C9.48618 5.70746 9.60426 5.82554 9.72235 5.98299C9.91916 6.37661 10.116 6.73086 10.2734 7.16384C10.5883 8.0298 10.8638 9.13193 10.8638 9.13193L11.6511 12.2809C12.2415 14.4458 12.7138 15.4692 12.7138 15.4692C13.934 18.2638 15.784 19.0511 15.784 19.0511C16.6894 19.5234 17.7128 19.799 18.7362 19.8383C19.7202 19.8777 20.7043 19.6809 21.5702 19.2479C22.5149 18.7755 23.3809 18.067 24.05 17.2404C24.483 16.7287 25.1521 15.4692 25.1521 15.4692C25.9 14.0128 26.4511 12.4777 26.8447 10.9032C27.1202 9.91916 27.317 8.93512 27.4745 7.91172C27.5532 7.40001 27.6319 6.92767 27.6713 6.41597C27.75 5.94363 27.75 5.47129 27.6319 4.99895C27.5926 4.92023 27.5926 4.8415 27.5532 4.76278C27.317 4.17235 26.884 3.70001 26.333 3.38512C25.9394 3.10959 25.467 2.9915 24.9947 2.9915Z" fill="url(#paint29_radial_17_3)"/>
<path d="M24.9947 2.9915C24.7585 2.9915 24.5223 3.03086 24.3255 3.07023C24.8372 3.8181 25.2702 4.60533 25.6245 5.43193C25.7819 5.78618 25.8606 6.1798 25.8606 6.57342C25.8606 6.92767 25.7819 7.28193 25.6638 7.63618C25.5064 7.95108 25.3096 8.26597 25.0734 8.5415C24.8372 8.81703 24.5223 9.01384 24.1681 9.13193C23.8532 9.25001 23.4596 9.32874 23.1053 9.32874C22.633 9.32874 22.1213 9.21065 21.7277 8.93512L21.4521 9.99789C20.9404 11.7298 20.5862 12.3596 20.5862 12.3596C20.3894 12.8319 20.1532 13.2649 19.8777 13.6979C19.6809 13.9734 19.4447 14.2489 19.1298 14.367C19.0117 14.4064 18.8936 14.4064 18.7755 14.4064C18.6575 14.4064 18.5394 14.367 18.4213 14.2883C18.2245 14.1309 18.0277 13.8947 17.9096 13.6585C17.7521 13.383 17.634 13.1075 17.516 12.8319C17.2798 12.2415 16.8862 10.7851 16.8862 10.7851L16.4926 9.25001L16.0989 7.71491L15.8234 6.6915C15.1149 4.05427 14.0915 2.75533 14.0915 2.75533C13.3043 1.61384 12.1628 0.787247 10.8638 0.314906C9.36809 -0.236158 7.79362 0.078736 7.79362 0.078736C5.31384 0.551076 4.0149 2.24363 3.46384 3.07023C3.73937 3.14895 3.97554 3.22767 4.21171 3.38512C4.5266 3.58193 4.80213 3.8181 4.99894 4.09363C5.3532 4.60533 5.47128 5.27448 5.51065 5.90427C5.66809 7.28193 5.94362 8.62023 6.29788 9.95852C7.12447 7.16384 8.14788 5.86491 8.14788 5.86491C8.26596 5.70746 8.38405 5.58937 8.5415 5.51065C8.62022 5.47129 8.69894 5.43193 8.81703 5.43193C8.97447 5.43193 9.17128 5.47129 9.28937 5.55001C9.32873 5.55001 9.32873 5.58937 9.36809 5.58937C9.48618 5.70746 9.60426 5.82554 9.72235 5.98299C9.91916 6.37661 10.116 6.73086 10.2734 7.16384C10.5883 8.0298 10.8638 9.13193 10.8638 9.13193L11.6511 12.2809C12.2415 14.4458 12.7138 15.4692 12.7138 15.4692C13.934 18.2638 15.784 19.0511 15.784 19.0511C16.6894 19.5234 17.7128 19.799 18.7362 19.8383C19.7202 19.8777 20.7043 19.6809 21.5702 19.2479C22.5149 18.7755 23.3809 18.067 24.05 17.2404C24.483 16.7287 25.1521 15.4692 25.1521 15.4692C25.9 14.0128 26.4511 12.4777 26.8447 10.9032C27.1202 9.91916 27.317 8.93512 27.4745 7.91172C27.5532 7.40001 27.6319 6.92767 27.6713 6.41597C27.75 5.94363 27.75 5.47129 27.6319 4.99895C27.5926 4.92023 27.5926 4.8415 27.5532 4.76278C27.317 4.17235 26.884 3.70001 26.333 3.38512C25.9394 3.10959 25.467 2.9915 24.9947 2.9915Z" fill="url(#paint30_radial_17_3)"/>
<path d="M24.9947 2.9915C24.7585 2.9915 24.5223 3.03086 24.3255 3.07023C24.8372 3.8181 25.2702 4.60533 25.6245 5.43193C25.7819 5.78618 25.8606 6.1798 25.8606 6.57342C25.8606 6.92767 25.7819 7.28193 25.6638 7.63618C25.5064 7.95108 25.3096 8.26597 25.0734 8.5415C24.8372 8.81703 24.5223 9.01384 24.1681 9.13193C23.8532 9.25001 23.4596 9.32874 23.1053 9.32874C22.633 9.32874 22.1213 9.21065 21.7277 8.93512L21.4521 9.99789C20.9404 11.7298 20.5862 12.3596 20.5862 12.3596C20.3894 12.8319 20.1532 13.2649 19.8777 13.6979C19.6809 13.9734 19.4447 14.2489 19.1298 14.367C19.0117 14.4064 18.8936 14.4064 18.7755 14.4064C18.6575 14.4064 18.5394 14.367 18.4213 14.2883C18.2245 14.1309 18.0277 13.8947 17.9096 13.6585C17.7521 13.383 17.634 13.1075 17.516 12.8319C17.2798 12.2415 16.8862 10.7851 16.8862 10.7851L16.4926 9.25001L16.0989 7.71491L15.8234 6.6915C15.1149 4.05427 14.0915 2.75533 14.0915 2.75533C13.3043 1.61384 12.1628 0.787247 10.8638 0.314906C9.36809 -0.236158 7.79362 0.078736 7.79362 0.078736C5.31384 0.551076 4.0149 2.24363 3.46384 3.07023C3.73937 3.14895 3.97554 3.22767 4.21171 3.38512C4.5266 3.58193 4.80213 3.8181 4.99894 4.09363C5.3532 4.60533 5.47128 5.27448 5.51065 5.90427C5.66809 7.28193 5.94362 8.62023 6.29788 9.95852C7.12447 7.16384 8.14788 5.86491 8.14788 5.86491C8.26596 5.70746 8.38405 5.58937 8.5415 5.51065C8.62022 5.47129 8.69894 5.43193 8.81703 5.43193C8.97447 5.43193 9.17128 5.47129 9.28937 5.55001C9.32873 5.55001 9.32873 5.58937 9.36809 5.58937C9.48618 5.70746 9.60426 5.82554 9.72235 5.98299C9.91916 6.37661 10.116 6.73086 10.2734 7.16384C10.5883 8.0298 10.8638 9.13193 10.8638 9.13193L11.6511 12.2809C12.2415 14.4458 12.7138 15.4692 12.7138 15.4692C13.934 18.2638 15.784 19.0511 15.784 19.0511C16.6894 19.5234 17.7128 19.799 18.7362 19.8383C19.7202 19.8777 20.7043 19.6809 21.5702 19.2479C22.5149 18.7755 23.3809 18.067 24.05 17.2404C24.483 16.7287 25.1521 15.4692 25.1521 15.4692C25.9 14.0128 26.4511 12.4777 26.8447 10.9032C27.1202 9.91916 27.317 8.93512 27.4745 7.91172C27.5532 7.40001 27.6319 6.92767 27.6713 6.41597C27.75 5.94363 27.75 5.47129 27.6319 4.99895C27.5926 4.92023 27.5926 4.8415 27.5532 4.76278C27.317 4.17235 26.884 3.70001 26.333 3.38512C25.9394 3.10959 25.467 2.9915 24.9947 2.9915Z" fill="url(#paint31_radial_17_3)"/>
<path d="M24.9947 2.9915C24.7585 2.9915 24.5223 3.03086 24.3255 3.07023C24.8372 3.8181 25.2702 4.60533 25.6245 5.43193C25.7819 5.78618 25.8606 6.1798 25.8606 6.57342C25.8606 6.92767 25.7819 7.28193 25.6638 7.63618C25.5064 7.95108 25.3096 8.26597 25.0734 8.5415C24.8372 8.81703 24.5223 9.01384 24.1681 9.13193C23.8532 9.25001 23.4596 9.32874 23.1053 9.32874C22.633 9.32874 22.1213 9.21065 21.7277 8.93512L21.4521 9.99789C20.9404 11.7298 20.5862 12.3596 20.5862 12.3596C20.3894 12.8319 20.1532 13.2649 19.8777 13.6979C19.6809 13.9734 19.4447 14.2489 19.1298 14.367C19.0117 14.4064 18.8936 14.4064 18.7755 14.4064C18.6575 14.4064 18.5394 14.367 18.4213 14.2883C18.2245 14.1309 18.0277 13.8947 17.9096 13.6585C17.7521 13.383 17.634 13.1075 17.516 12.8319C17.2798 12.2415 16.8862 10.7851 16.8862 10.7851L16.4926 9.25001L16.0989 7.71491L15.8234 6.6915C15.1149 4.05427 14.0915 2.75533 14.0915 2.75533C13.3043 1.61384 12.1628 0.787247 10.8638 0.314906C9.36809 -0.236158 7.79362 0.078736 7.79362 0.078736C5.31384 0.551076 4.0149 2.24363 3.46384 3.07023C3.73937 3.14895 3.97554 3.22767 4.21171 3.38512C4.5266 3.58193 4.80213 3.8181 4.99894 4.09363C5.3532 4.60533 5.47128 5.27448 5.51065 5.90427C5.66809 7.28193 5.94362 8.62023 6.29788 9.95852C7.12447 7.16384 8.14788 5.86491 8.14788 5.86491C8.26596 5.70746 8.38405 5.58937 8.5415 5.51065C8.62022 5.47129 8.69894 5.43193 8.81703 5.43193C8.97447 5.43193 9.17128 5.47129 9.28937 5.55001C9.32873 5.55001 9.32873 5.58937 9.36809 5.58937C9.48618 5.70746 9.60426 5.82554 9.72235 5.98299C9.91916 6.37661 10.116 6.73086 10.2734 7.16384C10.5883 8.0298 10.8638 9.13193 10.8638 9.13193L11.6511 12.2809C12.2415 14.4458 12.7138 15.4692 12.7138 15.4692C13.934 18.2638 15.784 19.0511 15.784 19.0511C16.6894 19.5234 17.7128 19.799 18.7362 19.8383C19.7202 19.8777 20.7043 19.6809 21.5702 19.2479C22.5149 18.7755 23.3809 18.067 24.05 17.2404C24.483 16.7287 25.1521 15.4692 25.1521 15.4692C25.9 14.0128 26.4511 12.4777 26.8447 10.9032C27.1202 9.91916 27.317 8.93512 27.4745 7.91172C27.5532 7.40001 27.6319 6.92767 27.6713 6.41597C27.75 5.94363 27.75 5.47129 27.6319 4.99895C27.5926 4.92023 27.5926 4.8415 27.5532 4.76278C27.317 4.17235 26.884 3.70001 26.333 3.38512C25.9394 3.10959 25.467 2.9915 24.9947 2.9915Z" fill="url(#paint32_radial_17_3)"/>
<path d="M24.9947 2.9915C24.7585 2.9915 24.5223 3.03086 24.3255 3.07023C24.8372 3.8181 25.2702 4.60533 25.6245 5.43193C25.7819 5.78618 25.8606 6.1798 25.8606 6.57342C25.8606 6.92767 25.7819 7.28193 25.6638 7.63618C25.5064 7.95108 25.3096 8.26597 25.0734 8.5415C24.8372 8.81703 24.5223 9.01384 24.1681 9.13193C23.8532 9.25001 23.4596 9.32874 23.1053 9.32874C22.633 9.32874 22.1213 9.21065 21.7277 8.93512L21.4521 9.99789C20.9404 11.7298 20.5862 12.3596 20.5862 12.3596C20.3894 12.8319 20.1532 13.2649 19.8777 13.6979C19.6809 13.9734 19.4447 14.2489 19.1298 14.367C19.0117 14.4064 18.8936 14.4064 18.7755 14.4064C18.6575 14.4064 18.5394 14.367 18.4213 14.2883C18.2245 14.1309 18.0277 13.8947 17.9096 13.6585C17.7521 13.383 17.634 13.1075 17.516 12.8319C17.2798 12.2415 16.8862 10.7851 16.8862 10.7851L16.4926 9.25001L16.0989 7.71491L15.8234 6.6915C15.1149 4.05427 14.0915 2.75533 14.0915 2.75533C13.3043 1.61384 12.1628 0.787247 10.8638 0.314906C9.36809 -0.236158 7.79362 0.078736 7.79362 0.078736C5.31384 0.551076 4.0149 2.24363 3.46384 3.07023C3.73937 3.14895 3.97554 3.22767 4.21171 3.38512C4.5266 3.58193 4.80213 3.8181 4.99894 4.09363C5.3532 4.60533 5.47128 5.27448 5.51065 5.90427C5.66809 7.28193 5.94362 8.62023 6.29788 9.95852C7.12447 7.16384 8.14788 5.86491 8.14788 5.86491C8.26596 5.70746 8.38405 5.58937 8.5415 5.51065C8.62022 5.47129 8.69894 5.43193 8.81703 5.43193C8.97447 5.43193 9.17128 5.47129 9.28937 5.55001C9.32873 5.55001 9.32873 5.58937 9.36809 5.58937C9.48618 5.70746 9.60426 5.82554 9.72235 5.98299C9.91916 6.37661 10.116 6.73086 10.2734 7.16384C10.5883 8.0298 10.8638 9.13193 10.8638 9.13193L11.6511 12.2809C12.2415 14.4458 12.7138 15.4692 12.7138 15.4692C13.934 18.2638 15.784 19.0511 15.784 19.0511C16.6894 19.5234 17.7128 19.799 18.7362 19.8383C19.7202 19.8777 20.7043 19.6809 21.5702 19.2479C22.5149 18.7755 23.3809 18.067 24.05 17.2404C24.483 16.7287 25.1521 15.4692 25.1521 15.4692C25.9 14.0128 26.4511 12.4777 26.8447 10.9032C27.1202 9.91916 27.317 8.93512 27.4745 7.91172C27.5532 7.40001 27.6319 6.92767 27.6713 6.41597C27.75 5.94363 27.75 5.47129 27.6319 4.99895C27.5926 4.92023 27.5926 4.8415 27.5532 4.76278C27.317 4.17235 26.884 3.70001 26.333 3.38512C25.9394 3.10959 25.467 2.9915 24.9947 2.9915Z" fill="url(#paint33_radial_17_3)"/>
<path d="M24.9947 2.9915C24.7585 2.9915 24.5223 3.03086 24.3255 3.07023C24.8372 3.8181 25.2702 4.60533 25.6245 5.43193C25.7819 5.78618 25.8606 6.1798 25.8606 6.57342C25.8606 6.92767 25.7819 7.28193 25.6638 7.63618C25.5064 7.95108 25.3096 8.26597 25.0734 8.5415C24.8372 8.81703 24.5223 9.01384 24.1681 9.13193C23.8532 9.25001 23.4596 9.32874 23.1053 9.32874C22.633 9.32874 22.1213 9.21065 21.7277 8.93512L21.4521 9.99789C20.9404 11.7298 20.5862 12.3596 20.5862 12.3596C20.3894 12.8319 20.1532 13.2649 19.8777 13.6979C19.6809 13.9734 19.4447 14.2489 19.1298 14.367C19.0117 14.4064 18.8936 14.4064 18.7755 14.4064C18.6575 14.4064 18.5394 14.367 18.4213 14.2883C18.2245 14.1309 18.0277 13.8947 17.9096 13.6585C17.7521 13.383 17.634 13.1075 17.516 12.8319C17.2798 12.2415 16.8862 10.7851 16.8862 10.7851L16.4926 9.25001L16.0989 7.71491L15.8234 6.6915C15.1149 4.05427 14.0915 2.75533 14.0915 2.75533C13.3043 1.61384 12.1628 0.787247 10.8638 0.314906C9.36809 -0.236158 7.79362 0.078736 7.79362 0.078736C5.31384 0.551076 4.0149 2.24363 3.46384 3.07023C3.73937 3.14895 3.97554 3.22767 4.21171 3.38512C4.5266 3.58193 4.80213 3.8181 4.99894 4.09363C5.3532 4.60533 5.47128 5.27448 5.51065 5.90427C5.66809 7.28193 5.94362 8.62023 6.29788 9.95852C7.12447 7.16384 8.14788 5.86491 8.14788 5.86491C8.26596 5.70746 8.38405 5.58937 8.5415 5.51065C8.62022 5.47129 8.69894 5.43193 8.81703 5.43193C8.97447 5.43193 9.17128 5.47129 9.28937 5.55001C9.32873 5.55001 9.32873 5.58937 9.36809 5.58937C9.48618 5.70746 9.60426 5.82554 9.72235 5.98299C9.91916 6.37661 10.116 6.73086 10.2734 7.16384C10.5883 8.0298 10.8638 9.13193 10.8638 9.13193L11.6511 12.2809C12.2415 14.4458 12.7138 15.4692 12.7138 15.4692C13.934 18.2638 15.784 19.0511 15.784 19.0511C16.6894 19.5234 17.7128 19.799 18.7362 19.8383C19.7202 19.8777 20.7043 19.6809 21.5702 19.2479C22.5149 18.7755 23.3809 18.067 24.05 17.2404C24.483 16.7287 25.1521 15.4692 25.1521 15.4692C25.9 14.0128 26.4511 12.4777 26.8447 10.9032C27.1202 9.91916 27.317 8.93512 27.4745 7.91172C27.5532 7.40001 27.6319 6.92767 27.6713 6.41597C27.75 5.94363 27.75 5.47129 27.6319 4.99895C27.5926 4.92023 27.5926 4.8415 27.5532 4.76278C27.317 4.17235 26.884 3.70001 26.333 3.38512C25.9394 3.10959 25.467 2.9915 24.9947 2.9915Z" fill="url(#paint34_linear_17_3)"/>
</g>
</g>
<defs>
<linearGradient id="paint0_linear_17_3" x1="1.24757" y1="13.4112" x2="22.8257" y2="4.68912" gradientUnits="userSpaceOnUse">
<stop offset="0.13" stop-color="#1CBBF3"/>
<stop offset="0.34" stop-color="#1F99A5"/>
<stop offset="0.45" stop-color="#209CA6"/>
<stop offset="0.51" stop-color="#24A4AA"/>
<stop offset="0.57" stop-color="#2BB3B0"/>
<stop offset="0.6" stop-color="#30BDB4"/>
<stop offset="0.79" stop-color="#38BA90"/>
<stop offset="1" stop-color="#60F05A"/>
</linearGradient>
<radialGradient id="paint1_radial_17_3" cx="0" cy="0" r="1" gradientUnits="userSpaceOnUse" gradientTransform="translate(15.628 8.27693) rotate(74.3201) scale(10.3131 7.83795)">
<stop stop-color="#227B60"/>
<stop offset="0.14" stop-color="#227B60" stop-opacity="0.81"/>
<stop offset="0.58" stop-color="#227B60" stop-opacity="0.23"/>
<stop offset="0.78" stop-color="#227B60" stop-opacity="0"/>
</radialGradient>
<radialGradient id="paint2_radial_17_3" cx="0" cy="0" r="1" gradientUnits="userSpaceOnUse" gradientTransform="translate(17.1672 7.5353) rotate(91.1458) scale(6.97385 5.29938)">
<stop stop-color="#227B60"/>
<stop offset="0.25" stop-color="#227B60" stop-opacity="0.7"/>
<stop offset="0.71" stop-color="#227B60" stop-opacity="0.2"/>
<stop offset="0.92" stop-color="#227B60" stop-opacity="0"/>
</radialGradient>
<radialGradient id="paint3_radial_17_3" cx="0" cy="0" r="1" gradientUnits="userSpaceOnUse" gradientTransform="translate(16.8366 7.82484) rotate(88.6) scale(6.50083 4.61555)">
<stop stop-color="#227B60"/>
<stop offset="0.07" stop-color="#227B60" stop-opacity="0.9"/>
<stop offset="0.34" stop-color="#227B60" stop-opacity="0.51"/>
<stop offset="0.59" stop-color="#227B60" stop-opacity="0.23"/>
<stop offset="0.79" stop-color="#227B60" stop-opacity="0.06"/>
<stop offset="0.92" stop-color="#227B60" stop-opacity="0"/>
</radialGradient>
<radialGradient id="paint4_radial_17_3" cx="0" cy="0" r="1" gradientUnits="userSpaceOnUse" gradientTransform="translate(16.9485 7.53364) rotate(88.6) scale(5.24895 3.72678)">
<stop stop-color="#227B60"/>
<stop offset="0.36" stop-color="#227B60" stop-opacity="0.63"/>
<stop offset="0.92" stop-color="#227B60" stop-opacity="0"/>
</radialGradient>
<radialGradient id="paint5_radial_17_3" cx="0" cy="0" r="1" gradientUnits="userSpaceOnUse" gradientTransform="translate(17.1753 7.82445) rotate(88.5997) scale(4.18634 2.67928)">
<stop stop-color="#20735A"/>
<stop offset="0.15" stop-color="#20745A" stop-opacity="0.93"/>
<stop offset="0.38" stop-color="#21755C" stop-opacity="0.74"/>
<stop offset="0.67" stop-color="#21785D" stop-opacity="0.43"/>
<stop offset="1" stop-color="#227B60" stop-opacity="0"/>
</radialGradient>
<radialGradient id="paint6_radial_17_3" cx="0" cy="0" r="1" gradientUnits="userSpaceOnUse" gradientTransform="translate(17.7345 8.50208) rotate(23.7999) scale(6.73661 5.05246)">
<stop stop-color="#227A61"/>
<stop offset="0.36" stop-color="#227A61" stop-opacity="0.56"/>
<stop offset="0.72" stop-color="#227A61" stop-opacity="0.16"/>
<stop offset="0.9" stop-color="#227A61" stop-opacity="0"/>
</radialGradient>
<radialGradient id="paint7_radial_17_3" cx="0" cy="0" r="1" gradientUnits="userSpaceOnUse" gradientTransform="translate(15.4147 -2.44497) rotate(35.2724) scale(8.98408 8.21465)">
<stop stop-color="#3CD9C3"/>
<stop offset="0.07" stop-color="#3BD7C1" stop-opacity="0.9"/>
<stop offset="0.41" stop-color="#38CEB9" stop-opacity="0.42"/>
<stop offset="0.65" stop-color="#36C8B4" stop-opacity="0.12"/>
<stop offset="0.76" stop-color="#35C6B2" stop-opacity="0"/>
</radialGradient>
<radialGradient id="paint8_radial_17_3" cx="0" cy="0" r="1" gradientUnits="userSpaceOnUse" gradientTransform="translate(-14732.8 -20019.7) rotate(35.2724) scale(1596.11 1120.07)">
<stop stop-color="#3CD9C3"/>
<stop offset="0.07" stop-color="#3BD7C1" stop-opacity="0.9"/>
<stop offset="0.41" stop-color="#38CEB9" stop-opacity="0.42"/>
<stop offset="0.65" stop-color="#36C8B4" stop-opacity="0.12"/>
<stop offset="0.76" stop-color="#35C6B2" stop-opacity="0"/>
</radialGradient>
<radialGradient id="paint9_radial_17_3" cx="0" cy="0" r="1" gradientUnits="userSpaceOnUse" gradientTransform="translate(19.0168 10.2173) rotate(100.972) scale(7.92358 9.79138)">
<stop stop-color="#237F66" stop-opacity="0.8"/>
<stop offset="0.06" stop-color="#2C8C70" stop-opacity="0.65"/>
<stop offset="0.21" stop-color="#3DA785" stop-opacity="0.37"/>
<stop offset="0.35" stop-color="#4ABA93" stop-opacity="0.17"/>
<stop offset="0.47" stop-color="#51C59C" stop-opacity="0.04"/>
<stop offset="0.56" stop-color="#54C99F" stop-opacity="0"/>
</radialGradient>
<radialGradient id="paint10_radial_17_3" cx="0" cy="0" r="1" gradientUnits="userSpaceOnUse" gradientTransform="translate(14.6221 10.6099) rotate(-50.82) scale(10.3538 11.1821)">
<stop stop-color="#167C8A"/>
<stop offset="0.04" stop-color="#167C8A" stop-opacity="0.93"/>
<stop offset="0.33" stop-color="#177F8D" stop-opacity="0.43"/>
<stop offset="0.54" stop-color="#17818F" stop-opacity="0.12"/>
<stop offset="0.65" stop-color="#178290" stop-opacity="0"/>
</radialGradient>
<radialGradient id="paint11_radial_17_3" cx="0" cy="0" r="1" gradientUnits="userSpaceOnUse" gradientTransform="translate(13.9937 11.6404) rotate(-31.6599) scale(10.1006 7.97946)">
<stop offset="0.05" stop-color="#177D87"/>
<stop offset="0.11" stop-color="#177E89" stop-opacity="0.8"/>
<stop offset="0.21" stop-color="#177F8B" stop-opacity="0.52"/>
<stop offset="0.32" stop-color="#17818D" stop-opacity="0.29"/>
<stop offset="0.42" stop-color="#17818F" stop-opacity="0.13"/>
<stop offset="0.51" stop-color="#178290" stop-opacity="0.03"/>
<stop offset="0.6" stop-color="#178290" stop-opacity="0"/>
</radialGradient>
<radialGradient id="paint12_radial_17_3" cx="0" cy="0" r="1" gradientUnits="userSpaceOnUse" gradientTransform="translate(11.8963 11.5131) rotate(-130.539) scale(6.01787 4.73855)">
<stop offset="0.26" stop-color="#177F8A"/>
<stop offset="0.27" stop-color="#177F8A" stop-opacity="0.98"/>
<stop offset="0.38" stop-color="#17808C" stop-opacity="0.68"/>
<stop offset="0.5" stop-color="#17818D" stop-opacity="0.43"/>
<stop offset="0.62" stop-color="#17818F" stop-opacity="0.24"/>
<stop offset="0.74" stop-color="#17828F" stop-opacity="0.11"/>
<stop offset="0.86" stop-color="#178290" stop-opacity="0.03"/>
<stop offset="1" stop-color="#178290" stop-opacity="0"/>
</radialGradient>
<radialGradient id="paint13_radial_17_3" cx="0" cy="0" r="1" gradientUnits="userSpaceOnUse" gradientTransform="translate(10.4214 13.2905) rotate(-173.11) scale(5.64489)">
<stop stop-color="#13656E"/>
<stop offset="0.11" stop-color="#13646E" stop-opacity="0.73"/>
<stop offset="0.27" stop-color="#12646E" stop-opacity="0.41"/>
<stop offset="0.42" stop-color="#12636E" stop-opacity="0.18"/>
<stop offset="0.55" stop-color="#12636E" stop-opacity="0.05"/>
<stop offset="0.66" stop-color="#12636E" stop-opacity="0"/>
</radialGradient>
<radialGradient id="paint14_radial_17_3" cx="0" cy="0" r="1" gradientUnits="userSpaceOnUse" gradientTransform="translate(10.2754 14.1483) rotate(-119.32) scale(3.94766 3.31603)">
<stop offset="0.13" stop-color="#146A73"/>
<stop offset="0.24" stop-color="#156F79" stop-opacity="0.79"/>
<stop offset="0.45" stop-color="#167783" stop-opacity="0.45"/>
<stop offset="0.65" stop-color="#167D8A" stop-opacity="0.2"/>
<stop offset="0.82" stop-color="#17818E" stop-opacity="0.05"/>
<stop offset="0.95" stop-color="#178290" stop-opacity="0"/>
</radialGradient>
<radialGradient id="paint15_radial_17_3" cx="0" cy="0" r="1" gradientUnits="userSpaceOnUse" gradientTransform="translate(9.39511 12.3514) rotate(-55.9924) scale(3.71355 2.94195)">
<stop stop-color="#198E9C"/>
<stop offset="0.1" stop-color="#198E9C" stop-opacity="0.87"/>
<stop offset="0.41" stop-color="#198E9C" stop-opacity="0.5"/>
<stop offset="0.67" stop-color="#198E9C" stop-opacity="0.23"/>
<stop offset="0.88" stop-color="#198E9C" stop-opacity="0.06"/>
<stop offset="1" stop-color="#198E9C" stop-opacity="0"/>
</radialGradient>
<linearGradient id="paint16_linear_17_3" x1="2.6355" y1="-0.45077" x2="12.1567" y2="8.36011" gradientUnits="userSpaceOnUse">
<stop offset="0.13" stop-color="#2BF9FF"/>
<stop offset="0.27" stop-color="#29F9FF" stop-opacity="0.64"/>
<stop offset="0.4" stop-color="#27FAFF" stop-opacity="0.3"/>
<stop offset="0.49" stop-color="#26FAFF" stop-opacity="0.08"/>
<stop offset="0.54" stop-color="#26FAFF" stop-opacity="0"/>
</linearGradient>
<linearGradient id="paint17_linear_17_3" x1="-2.75449" y1="13.9262" x2="8.36645" y2="10.7734" gradientUnits="userSpaceOnUse">
<stop stop-color="#26FAFF"/>
<stop offset="0.06" stop-color="#26FAFF" stop-opacity="0.88"/>
<stop offset="0.24" stop-color="#26FAFF" stop-opacity="0.51"/>
<stop offset="0.39" stop-color="#26FAFF" stop-opacity="0.23"/>
<stop offset="0.5" stop-color="#26FAFF" stop-opacity="0.06"/>
<stop offset="0.55" stop-color="#26FAFF" stop-opacity="0"/>
</linearGradient>
<linearGradient id="paint18_linear_17_3" x1="0.191888" y1="13.5399" x2="12.7248" y2="9.07256" gradientUnits="userSpaceOnUse">
<stop stop-color="#21DEFF"/>
<stop offset="0.04" stop-color="#21DEFF" stop-opacity="0.88"/>
<stop offset="0.17" stop-color="#21DEFF" stop-opacity="0.51"/>
<stop offset="0.27" stop-color="#21DEFF" stop-opacity="0.23"/>
<stop offset="0.34" stop-color="#21DEFF" stop-opacity="0.06"/>
<stop offset="0.38" stop-color="#21DEFF" stop-opacity="0"/>
</linearGradient>
<linearGradient id="paint19_linear_17_3" x1="12.1011" y1="7.07475" x2="19.1114" y2="18.5087" gradientUnits="userSpaceOnUse">
<stop offset="0.62" stop-color="#21DEFF" stop-opacity="0"/>
<stop offset="0.66" stop-color="#21DEFF" stop-opacity="0.06"/>
<stop offset="0.73" stop-color="#21DEFF" stop-opacity="0.23"/>
<stop offset="0.83" stop-color="#21DEFF" stop-opacity="0.51"/>
<stop offset="0.96" stop-color="#21DEFF" stop-opacity="0.88"/>
<stop offset="1" stop-color="#21DEFF"/>
</linearGradient>
<linearGradient id="paint20_linear_17_3" x1="19.9027" y1="11.3465" x2="18.8008" y2="5.96802" gradientUnits="userSpaceOnUse">
<stop stop-color="#44B044"/>
<stop offset="0.11" stop-color="#44B044" stop-opacity="0.8"/>
<stop offset="0.27" stop-color="#44B044" stop-opacity="0.52"/>
<stop offset="0.43" stop-color="#44B044" stop-opacity="0.29"/>
<stop offset="0.58" stop-color="#44B044" stop-opacity="0.13"/>
<stop offset="0.7" stop-color="#44B044" stop-opacity="0.03"/>
<stop offset="0.8" stop-color="#44B044" stop-opacity="0"/>
</linearGradient>
<linearGradient id="paint21_linear_17_3" x1="4.52168" y1="5.76505" x2="27.7286" y2="13.4478" gradientUnits="userSpaceOnUse">
<stop stop-color="#3066FB"/>
<stop offset="0.38" stop-color="#2F64F7"/>
<stop offset="0.74" stop-color="#2857D9"/>
<stop offset="1" stop-color="#3C7EFF"/>
</linearGradient>
<radialGradient id="paint22_radial_17_3" cx="0" cy="0" r="1" gradientUnits="userSpaceOnUse" gradientTransform="translate(20.9118 9.2825) rotate(98.6901) scale(12.4106 8.19101)">
<stop stop-color="#1A3D9C"/>
<stop offset="0.4" stop-color="#1A3D9C" stop-opacity="0.42"/>
<stop offset="0.7" stop-color="#1A3D9C" stop-opacity="0"/>
</radialGradient>
<radialGradient id="paint23_radial_17_3" cx="0" cy="0" r="1" gradientUnits="userSpaceOnUse" gradientTransform="translate(7552.56 -19489.3) rotate(98.69) scale(1526.76 823.215)">
<stop stop-color="#1A3D9C"/>
<stop offset="0.4" stop-color="#1A3D9C" stop-opacity="0.42"/>
<stop offset="0.7" stop-color="#1A3D9C" stop-opacity="0"/>
</radialGradient>
<radialGradient id="paint24_radial_17_3" cx="0" cy="0" r="1" gradientUnits="userSpaceOnUse" gradientTransform="translate(6631.46 -19791.9) rotate(98.6156) scale(1818.29 751.175)">
<stop stop-color="#1A3D9C"/>
<stop offset="0.4" stop-color="#1A3D9C" stop-opacity="0.42"/>
<stop offset="0.7" stop-color="#1A3D9C" stop-opacity="0"/>
</radialGradient>
<radialGradient id="paint25_radial_17_3" cx="0" cy="0" r="1" gradientUnits="userSpaceOnUse" gradientTransform="translate(19.3615 8.81612) rotate(83.0887) scale(10.8479 7.56899)">
<stop stop-color="#1A3D9C"/>
<stop offset="0.16" stop-color="#1A3D9C" stop-opacity="0.69"/>
<stop offset="0.33" stop-color="#1A3D9C" stop-opacity="0.4"/>
<stop offset="0.49" stop-color="#1A3D9C" stop-opacity="0.18"/>
<stop offset="0.61" stop-color="#1A3D9C" stop-opacity="0.05"/>
<stop offset="0.7" stop-color="#1A3D9C" stop-opacity="0"/>
</radialGradient>
<radialGradient id="paint26_radial_17_3" cx="0" cy="0" r="1" gradientUnits="userSpaceOnUse" gradientTransform="translate(21.3184 10.4699) rotate(74.6399) scale(10.4252 7.08913)">
<stop stop-color="#18388F"/>
<stop offset="0.37" stop-color="#193B96" stop-opacity="0.45"/>
<stop offset="0.7" stop-color="#1A3D9C" stop-opacity="0"/>
</radialGradient>
<radialGradient id="paint27_radial_17_3" cx="0" cy="0" r="1" gradientUnits="userSpaceOnUse" gradientTransform="translate(20.2768 13.2554) rotate(74.6401) scale(4.84722 4.60484)">
<stop stop-color="#18388F"/>
<stop offset="0.09" stop-color="#183992" stop-opacity="0.78"/>
<stop offset="0.22" stop-color="#193B96" stop-opacity="0.5"/>
<stop offset="0.35" stop-color="#193C98" stop-opacity="0.28"/>
<stop offset="0.47" stop-color="#1A3C9A" stop-opacity="0.13"/>
<stop offset="0.59" stop-color="#1A3D9C" stop-opacity="0.03"/>
<stop offset="0.7" stop-color="#1A3D9C" stop-opacity="0"/>
</radialGradient>
<radialGradient id="paint28_radial_17_3" cx="0" cy="0" r="1" gradientUnits="userSpaceOnUse" gradientTransform="translate(20.3931 14.0823) rotate(74.6401) scale(4.84722 4.60484)">
<stop stop-color="#1A3D9C" stop-opacity="0.8"/>
<stop offset="0.01" stop-color="#1A3D9C" stop-opacity="0.78"/>
<stop offset="0.24" stop-color="#1A3D9C" stop-opacity="0.45"/>
<stop offset="0.44" stop-color="#1A3D9C" stop-opacity="0.2"/>
<stop offset="0.6" stop-color="#1A3D9C" stop-opacity="0.05"/>
<stop offset="0.7" stop-color="#1A3D9C" stop-opacity="0"/>
</radialGradient>
<radialGradient id="paint29_radial_17_3" cx="0" cy="0" r="1" gradientUnits="userSpaceOnUse" gradientTransform="translate(8.39125 11.115) rotate(67.0272) scale(11.5679 7.6764)">
<stop stop-color="#1A3D9C"/>
<stop offset="0.4" stop-color="#1A3D9C" stop-opacity="0.56"/>
<stop offset="0.48" stop-color="#1A3D9C" stop-opacity="0.43"/>
<stop offset="0.69" stop-color="#1A3D9C" stop-opacity="0.12"/>
<stop offset="0.79" stop-color="#1A3D9C" stop-opacity="0"/>
</radialGradient>
<radialGradient id="paint30_radial_17_3" cx="0" cy="0" r="1" gradientUnits="userSpaceOnUse" gradientTransform="translate(7.65476 8.49561) rotate(76.1027) scale(8.58026 5.66461)">
<stop stop-color="#1A3D9C"/>
<stop offset="0.06" stop-color="#1A3D9C" stop-opacity="0.88"/>
<stop offset="0.21" stop-color="#1A3D9C" stop-opacity="0.61"/>
<stop offset="0.36" stop-color="#1A3D9C" stop-opacity="0.39"/>
<stop offset="0.51" stop-color="#1A3D9C" stop-opacity="0.22"/>
<stop offset="0.67" stop-color="#1A3D9C" stop-opacity="0.1"/>
<stop offset="0.83" stop-color="#1A3D9C" stop-opacity="0.02"/>
<stop offset="1" stop-color="#1A3D9C" stop-opacity="0"/>
</radialGradient>
<radialGradient id="paint31_radial_17_3" cx="0" cy="0" r="1" gradientUnits="userSpaceOnUse" gradientTransform="translate(7.65476 8.49561) rotate(76.1027) scale(8.58026 5.66461)">
<stop stop-color="#1B3E9E"/>
<stop offset="0.06" stop-color="#1B3E9E" stop-opacity="0.87"/>
<stop offset="0.21" stop-color="#1B3E9D" stop-opacity="0.61"/>
<stop offset="0.36" stop-color="#1A3D9D" stop-opacity="0.39"/>
<stop offset="0.52" stop-color="#1A3D9C" stop-opacity="0.22"/>
<stop offset="0.67" stop-color="#1A3D9C" stop-opacity="0.1"/>
<stop offset="0.83" stop-color="#1A3D9C" stop-opacity="0.02"/>
<stop offset="1" stop-color="#1A3D9C" stop-opacity="0"/>
</radialGradient>
<radialGradient id="paint32_radial_17_3" cx="0" cy="0" r="1" gradientUnits="userSpaceOnUse" gradientTransform="translate(7.98556 7.65669) rotate(76.1029) scale(6.56425 4.33368)">
<stop stop-color="#183991"/>
<stop offset="0.03" stop-color="#183992" stop-opacity="0.95"/>
<stop offset="0.18" stop-color="#193A95" stop-opacity="0.66"/>
<stop offset="0.34" stop-color="#193B97" stop-opacity="0.42"/>
<stop offset="0.5" stop-color="#1A3C99" stop-opacity="0.24"/>
<stop offset="0.66" stop-color="#1A3D9B" stop-opacity="0.1"/>
<stop offset="0.82" stop-color="#1A3D9C" stop-opacity="0.03"/>
<stop offset="1" stop-color="#1A3D9C" stop-opacity="0"/>
</radialGradient>
<radialGradient id="paint33_radial_17_3" cx="0" cy="0" r="1" gradientUnits="userSpaceOnUse" gradientTransform="translate(9.14303 8.32316) rotate(87.1375) scale(5.18706 4.56614)">
<stop offset="0.04" stop-color="#2453D6" stop-opacity="0.6"/>
<stop offset="0.2" stop-color="#2453D6" stop-opacity="0.49"/>
<stop offset="0.52" stop-color="#2453D6" stop-opacity="0.2"/>
<stop offset="0.73" stop-color="#2453D6" stop-opacity="0"/>
</radialGradient>
<linearGradient id="paint34_linear_17_3" x1="19.5937" y1="-3.70629" x2="13.732" y2="10.783" gradientUnits="userSpaceOnUse">
<stop stop-color="#3774FF"/>
<stop offset="0.05" stop-color="#3774FF" stop-opacity="0.91"/>
<stop offset="0.16" stop-color="#3774FF" stop-opacity="0.66"/>
<stop offset="0.32" stop-color="#3774FF" stop-opacity="0.28"/>
<stop offset="0.43" stop-color="#3774FF" stop-opacity="0"/>
</linearGradient>
<clipPath id="clip0_17_3">
<rect width="111" height="30.7021" fill="white"/>
</clipPath>
</defs>
</svg>
