<svg width="112" height="51" viewBox="0 0 112 51" fill="none" xmlns="http://www.w3.org/2000/svg">
<path d="M110.883 15.939H108.287V32.5509H110.883V15.939Z" fill="#FF7A00"/>
<path fill-rule="evenodd" clip-rule="evenodd" d="M101.756 21.5018C99.3604 21.5018 97.4986 22.6679 97.1836 25.0479H99.7423C99.9237 24.1494 100.582 23.6142 101.756 23.6142C103.122 23.6142 103.752 24.3979 103.752 25.6309V26.1949H101.126C98.7111 26.1949 96.9258 27.2749 96.9258 29.4733C96.9258 31.6716 98.3865 32.8186 100.486 32.8186C102.119 32.8186 103.198 32.1209 103.78 31.0026H103.895V32.5319H106.358V25.7169C106.358 23.0885 105.012 21.5018 101.756 21.5018ZM101.231 30.821C100.219 30.821 99.599 30.3239 99.599 29.5019C99.599 28.5557 100.267 28.0682 101.479 28.0682H103.742L103.752 28.2212C103.752 29.846 102.816 30.821 101.231 30.821Z" fill="#FF7A00"/>
<path fill-rule="evenodd" clip-rule="evenodd" d="M92.3236 32.5414V26.9499C92.3236 25.2868 93.3547 24.2354 94.9873 24.2354H96.0089V21.7694H94.9587C93.7271 21.7694 92.8296 22.2378 92.2663 23.2987H92.1804V21.7694H89.7363V32.5509L92.3236 32.5414Z" fill="#FF7A00"/>
<path fill-rule="evenodd" clip-rule="evenodd" d="M88.0846 30.1615V32.5414H86.3088C83.8169 32.5414 82.4516 31.3849 82.4516 28.8903V23.9009H80.6758V21.7695H82.4516V18.9116H85.0485V21.7695H88.0751V23.9105H85.0485V28.594C85.0485 29.5784 85.6309 30.1615 86.6143 30.1615H88.0846Z" fill="#FF7A00"/>
<path fill-rule="evenodd" clip-rule="evenodd" d="M72.1692 32.5414V26.3C72.1692 24.7707 73.1143 23.7767 74.6324 23.7767C76.1504 23.7767 76.962 24.6178 76.962 26.2713V32.5414H79.5684V25.8508C79.5684 23.1363 78.2509 21.5018 75.5585 21.5018C73.9163 21.5018 72.6656 22.2378 72.1023 23.251H72.0068V21.7695H69.5723V32.551L72.1692 32.5414Z" fill="#FF7A00"/>
<path fill-rule="evenodd" clip-rule="evenodd" d="M62.6028 30.6871C60.9702 30.6871 59.8627 29.5879 59.8245 27.8579H67.7871L67.7775 27.0168C67.7775 23.4038 65.448 21.5209 62.6028 21.5209C59.5286 21.5209 57.2754 23.7192 57.2754 27.1793C57.2754 30.6393 59.3567 32.8376 62.6028 32.8376C65.3143 32.8376 67.0901 31.4039 67.6057 29.2916H65.0852C64.7892 30.0849 64.1113 30.6871 62.6028 30.6871ZM62.5933 23.6714C64.2927 23.6714 65.3048 24.6368 65.3716 25.9845H59.815C60.0632 24.6081 60.8938 23.6714 62.5933 23.6714Z" fill="#FF7A00"/>
<path fill-rule="evenodd" clip-rule="evenodd" d="M49.4945 32.8377C53.3708 32.8377 55.5667 30.6871 56.0822 27.4852H53.4471C53.0557 28.9475 51.9959 30.2857 49.4945 30.2857C46.9931 30.2857 44.8545 28.527 44.8545 24.6751C44.8545 20.8232 46.9167 19.0645 49.4945 19.0645C52.0723 19.0645 53.1034 20.4122 53.4471 21.8459H56.0822C55.6526 18.6535 53.4949 16.5698 49.4945 16.5698C45.1886 16.5698 42.0762 19.5806 42.0762 24.7133C42.0762 29.846 45.1886 32.8568 49.4945 32.8568V32.8377Z" fill="#FF7A00"/>
<path fill-rule="evenodd" clip-rule="evenodd" d="M37.8464 21.7695V23.251H37.7223C37.1399 22.2187 35.9273 21.5018 34.2088 21.5018C31.6883 21.5018 29.416 23.4995 29.416 27.0264C29.416 30.5533 31.6596 32.5701 34.2088 32.5701C35.8701 32.5701 36.8439 31.8915 37.5981 30.7541H37.7127V33.0289C37.7127 34.2428 37.0444 34.8067 35.9369 34.8067H30.6667V37.1293H35.8892C38.782 37.1293 40.3287 35.514 40.3287 32.8664V21.7695H37.8464ZM34.9153 30.2092C33.1872 30.2092 32.0893 29.1292 32.0893 27.0264C32.0893 24.9236 33.1777 23.8436 34.9153 23.8436C36.6529 23.8436 37.7127 24.9236 37.7127 27.0264C37.7127 29.1292 36.6148 30.2092 34.9153 30.2092Z" fill="#0684BC"/>
<path fill-rule="evenodd" clip-rule="evenodd" d="M20.4231 32.5414V26.3C20.4231 24.7707 21.3683 23.7767 22.8864 23.7767C24.4044 23.7767 25.2159 24.6178 25.2159 26.2713V32.5414H27.8224V25.8508C27.8224 23.1363 26.5048 21.5018 23.8125 21.5018C22.1798 21.5018 20.91 22.2378 20.3467 23.251H20.2608V21.7695H17.8262V32.551L20.4231 32.5414Z" fill="#0684BC"/>
<path d="M15.6299 21.7694H13.0234V32.5414H15.6203V21.7694H15.6299Z" fill="#0684BC"/>
<path fill-rule="evenodd" clip-rule="evenodd" d="M8.49829 25.1147V25.0096C10.0927 24.5699 11.162 23.4994 11.162 21.1003C11.162 18.7012 9.31937 16.8374 5.91095 16.8374H0.134766V32.5509H2.82713V26.3095H6.10189C7.62949 26.3095 8.39328 27.0741 8.39328 28.6034V32.5605H11.0856V28.6034C11.0761 26.3764 10.1309 25.4779 8.49829 25.1147ZM5.77728 23.8817H2.82713V19.2652H5.77728C7.23804 19.2652 8.35509 19.8769 8.35509 21.5782C8.35509 23.2796 7.21894 23.8817 5.77728 23.8817Z" fill="#0684BC"/>
<path fill-rule="evenodd" clip-rule="evenodd" d="M14.3218 20.0394C14.6655 20.0394 14.9997 19.9342 15.2861 19.7526C15.5725 19.5615 15.7921 19.2938 15.9258 18.9784C16.0595 18.663 16.088 18.3189 16.0212 17.9748C15.9543 17.6403 15.792 17.3344 15.5438 17.0859C15.2957 16.8374 14.9901 16.6749 14.656 16.608C14.3218 16.5411 13.9685 16.5793 13.6535 16.7036C13.3383 16.8374 13.0711 17.0572 12.8802 17.344C12.6892 17.6307 12.5938 17.9653 12.5938 18.3094C12.5938 18.6534 12.6892 18.988 12.8802 19.2747C13.0711 19.5615 13.3383 19.7813 13.6535 19.9151C13.873 20.0011 14.1022 20.0489 14.3218 20.0394Z" fill="#FF7A00"/>
<path fill-rule="evenodd" clip-rule="evenodd" d="M12.3463 13.5208C11.7162 13.7884 11.1434 14.1708 10.666 14.6582L11.8785 15.8816C12.1936 15.5567 12.5755 15.3082 12.9956 15.1266C13.4156 14.9545 13.8644 14.8589 14.3131 14.8589C14.7618 14.8589 15.2201 14.945 15.6306 15.117C16.0507 15.289 16.4326 15.5471 16.7572 15.8625L17.9793 14.6391C17.2632 13.9222 16.3371 13.4252 15.3347 13.2245C14.3322 13.0333 13.2915 13.1289 12.3463 13.5208Z" fill="#FF7A00"/>
</svg>
