<svg width="123" height="51" viewBox="0 0 123 51" fill="none" xmlns="http://www.w3.org/2000/svg">
<path d="M24.4729 14.0928C21.513 12.2646 17.6825 12.6999 14.2873 14.8763C10.8921 12.6999 7.06168 12.2646 4.10175 14.0928C-0.512243 16.9656 -1.03458 24.3654 2.88296 30.6335C5.75583 35.2475 10.2827 37.9463 14.2873 37.9463C18.2919 38.0333 22.8189 35.2475 25.6917 30.6335C29.6963 24.3654 29.0869 16.9656 24.4729 14.0928ZM4.97232 29.3277C4.18881 28.0218 3.57941 26.6289 3.14413 25.1489C2.7959 23.8431 2.62179 22.5372 2.70885 21.2314C2.97002 18.9679 3.92764 17.1397 5.49466 16.1821C7.06167 15.2245 9.06398 15.1374 11.2403 16.008C11.5886 16.0951 11.8497 16.2692 12.198 16.4433C10.9792 17.575 9.93454 18.7938 9.06398 20.1867C6.71345 24.0172 5.92994 28.1959 6.80051 31.5911C6.10405 30.8947 5.49466 30.1112 4.97232 29.3277ZM25.4306 25.1489C25.0823 26.6289 24.4729 28.0218 23.6024 29.3277C23.08 30.1982 22.4706 30.8947 21.8612 31.6782C22.6448 28.6312 22.1224 24.9748 20.2942 21.4926L20.0331 21.2314C19.946 21.2314 19.7719 21.2314 19.6848 21.3185L14.0262 24.8878C13.9391 24.9748 13.852 25.0619 13.852 25.1489C13.852 25.236 13.852 25.4101 13.9391 25.4972L14.8097 26.803C14.8967 26.8901 14.9838 26.9771 15.0708 26.9771C15.1579 26.9771 15.332 26.9771 15.4191 26.8901L19.0754 24.6266C19.1625 24.9748 19.3366 25.3231 19.4237 25.6713C19.7719 26.9771 19.946 28.283 19.8589 29.5888C19.6848 31.9394 18.7272 33.6805 17.1602 34.6381C16.3767 35.1604 15.4191 35.4216 14.5485 35.4216H14.3744C13.4168 35.4216 12.5462 35.1604 11.7627 34.6381C10.1957 33.6805 9.23809 31.8523 9.06398 29.5888C8.97692 28.283 9.15103 26.9771 9.49926 25.6713C10.2827 22.7114 11.9368 20.0997 14.2003 18.0974C15.1579 17.2268 16.2896 16.5303 17.5084 16.008C19.6848 15.1374 21.6871 15.2245 23.2542 16.1821C24.8212 17.1397 25.6917 18.9679 25.9529 21.2314C25.8659 22.5372 25.7788 23.9302 25.4306 25.1489ZM54.7686 22.3631C51.8087 22.3631 49.3711 24.7137 49.3711 27.6736C49.3711 30.6335 51.8087 32.897 54.7686 32.897C57.7285 32.897 60.1661 30.6335 60.1661 27.6736C60.1661 24.7137 57.7285 22.3631 54.7686 22.3631ZM54.7686 30.1112C53.3757 30.1112 52.331 28.9794 52.331 27.5865C52.331 26.1936 53.3757 25.0619 54.7686 25.0619C56.1615 25.0619 57.2062 26.1936 57.2062 27.5865C57.2062 29.0665 56.1615 30.1982 54.7686 30.1112ZM66.8695 18.3585H61.3849C61.2979 18.3585 61.1238 18.4456 61.0367 18.4456C60.9496 18.5326 60.8626 18.6197 60.9496 18.7938V32.2005C60.9496 32.2876 60.9496 32.4617 61.0367 32.5488C61.1238 32.6358 61.2108 32.7229 61.3849 32.7229H66.8695C71.2223 32.7229 74.3564 29.7629 74.3564 25.5842C74.3564 21.1443 71.3094 18.3585 66.8695 18.3585ZM67.0436 29.85H63.9966V21.1443H67.0436C69.4812 21.1443 71.1353 22.9725 71.1353 25.4972C71.1353 28.0218 69.4812 29.85 67.0436 29.85ZM85.2384 22.7114H83.1491C82.8879 22.7114 82.7138 22.8855 82.7138 23.1466V23.756C82.2785 22.9725 81.2338 22.3631 79.928 22.3631C77.3163 22.3631 74.9658 24.3654 74.9658 27.5865C74.9658 30.8076 77.3163 32.897 79.928 32.897C81.2338 32.897 82.3656 32.2876 82.8008 31.5911V32.2005C82.8008 32.4617 82.975 32.6358 83.2361 32.6358H85.3255C85.4125 32.6358 85.5866 32.6358 85.6737 32.5488C85.7608 32.4617 85.7608 32.3746 85.7608 32.2005V23.1466C85.7608 23.0596 85.7608 22.8855 85.6737 22.7984C85.4996 22.7114 85.4125 22.7114 85.2384 22.7114ZM80.4503 30.1982C79.0574 30.1982 78.0127 29.1535 78.0127 27.6736C78.0127 26.1936 79.0574 25.1489 80.4503 25.1489C81.8432 25.1489 82.8879 26.1936 82.8879 27.6736C82.8879 29.1535 81.8432 30.1982 80.4503 30.1982ZM96.8169 18.3585H94.7276C94.6405 18.3585 94.4664 18.3585 94.3794 18.4456C94.2924 18.5326 94.2052 18.6197 94.2052 18.7938V23.756C93.77 23.0596 92.6382 22.4502 91.3324 22.4502C88.8077 22.4502 86.3702 24.4525 86.3702 27.6736C86.3702 30.8947 88.7207 32.984 91.3324 32.984C92.6382 32.984 93.6829 32.3746 94.2052 31.6782V32.2876C94.2052 32.5488 94.3794 32.7229 94.6405 32.7229H96.7299C96.8169 32.7229 96.9911 32.7229 97.0781 32.6358C97.1652 32.5488 97.1652 32.4617 97.1652 32.2876V18.7938C97.1652 18.7068 97.1652 18.5326 97.0781 18.4456C97.0781 18.3585 96.9911 18.3585 96.8169 18.3585ZM92.0288 30.1982C90.6359 30.1982 89.6783 29.1535 89.6783 27.6736C89.6783 26.1936 90.723 25.1489 92.0288 25.1489C93.4217 25.1489 94.3794 26.1936 94.3794 27.6736C94.3794 29.1535 93.4217 30.1982 92.0288 30.1982ZM108.395 18.3585H106.306C106.219 18.3585 106.045 18.3585 105.958 18.4456C105.871 18.5326 105.784 18.6197 105.784 18.7938V23.756C105.348 23.0596 104.217 22.4502 102.911 22.4502C100.386 22.4502 97.9487 24.4525 97.9487 27.6736C97.9487 30.8947 100.299 32.984 102.911 32.984C104.217 32.984 105.261 32.3746 105.784 31.6782V32.2876C105.784 32.5488 105.958 32.7229 106.219 32.7229H108.308C108.395 32.7229 108.569 32.7229 108.656 32.6358C108.743 32.5488 108.743 32.4617 108.743 32.2876V18.7938C108.743 18.7068 108.743 18.5326 108.656 18.4456C108.656 18.3585 108.569 18.3585 108.395 18.3585ZM103.607 30.1982C102.214 30.1982 101.257 29.1535 101.257 27.6736C101.257 26.1936 102.301 25.1489 103.607 25.1489C105 25.1489 105.958 26.1936 105.958 27.6736C105.958 29.1535 105 30.1982 103.607 30.1982ZM119.713 23.4078L116.666 33.9417C116.056 35.8569 114.75 36.9886 112.661 36.9886C111.703 36.9886 110.833 36.8145 110.223 36.3792C109.875 36.1181 109.527 35.944 109.527 35.5957C109.527 35.4216 109.614 35.2475 109.701 35.0734L110.311 34.1158C110.485 33.8546 110.572 33.7675 110.833 33.7675C111.007 33.7675 111.094 33.8546 111.268 33.9417C111.616 34.2028 112.052 34.3769 112.574 34.3769C113.183 34.3769 113.706 34.2028 113.967 33.4193L114.228 32.5488H113.009C112.661 32.5488 112.574 32.3746 112.487 32.1135L109.701 23.3208C109.614 22.9725 109.701 22.6243 110.223 22.6243H112.4C112.661 22.6243 112.835 22.7114 113.009 23.0596L115.012 30.1982L116.927 23.0596C117.014 22.7984 117.188 22.6243 117.449 22.6243H119.539C119.713 22.7114 119.887 22.9725 119.713 23.4078ZM48.5876 26.5418V32.2005C48.5876 32.2876 48.5006 32.4617 48.4135 32.5488C48.3264 32.6358 48.2394 32.7229 48.0653 32.7229H46.3241C46.2371 32.7229 46.063 32.6358 45.9759 32.5488C45.8889 32.4617 45.8018 32.3746 45.8018 32.2005V30.7206C44.7571 32.1135 42.8419 32.984 40.7525 32.984C36.7479 32.984 33.6139 29.9371 33.6139 25.6713C33.6139 21.4055 37.0091 18.1844 41.2749 18.1844C44.4089 18.1844 46.9335 19.5773 48.0653 22.2761C48.1523 22.2761 48.1523 22.3631 48.1523 22.3631C48.1523 22.4502 48.0653 22.6243 47.8041 22.7114L45.8018 23.4949C45.7147 23.5819 45.5406 23.5819 45.4536 23.4949C45.3665 23.4078 45.2795 23.3208 45.1924 23.2337C44.4959 21.8408 43.1901 20.9702 41.2749 20.9702C38.7502 20.9702 36.922 22.9725 36.922 25.4972C36.922 28.0218 38.489 30.0241 41.3619 30.0241C42.8419 30.0241 44.0607 29.3277 44.6701 28.5442H42.8419C42.7548 28.5442 42.5807 28.4571 42.4937 28.37C42.4066 28.283 42.3195 28.1959 42.3195 28.0218V26.4548C42.3195 26.3677 42.4066 26.1936 42.4937 26.1066C42.5807 26.0195 42.6678 25.9325 42.8419 25.9325H48.0653C48.1523 25.9325 48.3264 25.9325 48.4135 26.0195C48.5006 26.2807 48.5876 26.3677 48.5876 26.5418ZM119.8 20.622V20.4479H120.67V20.622H120.409V21.4926H120.235V20.622H119.8ZM121.28 20.4479L121.541 20.9702L121.802 20.4479H122.063V21.4926H121.889V20.7091L121.628 21.3185H121.541L121.28 20.7091V21.4926H121.106V20.4479H121.28Z" fill="black"/>
</svg>
