<svg width="85" height="51" viewBox="0 0 85 51" fill="none" xmlns="http://www.w3.org/2000/svg">
<path d="M6.34705 28.2594C9.18134 28.2594 10.2832 26.5386 10.2832 23.5868C10.2832 20.6349 8.98885 18.5832 6.4267 18.5832H3.55922V28.2594H6.34705ZM0.539062 16.0087H6.80505C10.7811 16.0087 13.3432 19.2054 13.3432 23.5868C13.3432 25.9959 12.5334 28.1138 10.9669 29.4242C9.86502 30.3376 8.42464 30.8538 6.55281 30.8538H0.539062V16.0087ZM21.9722 25.5392C21.9722 23.461 20.9965 22.0513 19.264 22.0513C17.5316 22.0513 16.5558 23.461 16.5558 25.5392C16.5558 27.6174 17.5117 29.0072 19.264 29.0072C21.0164 29.0072 21.9722 27.6174 21.9722 25.5392ZM13.6817 25.5392C13.6817 22.3623 15.9518 19.9135 19.264 19.9135C22.5762 19.9135 24.8463 22.3623 24.8463 25.5392C24.8463 28.716 22.5762 31.1649 19.264 31.1649C15.9518 31.1649 13.6817 28.716 13.6817 25.5392ZM25.311 25.5392C25.311 22.3623 27.3952 19.9135 30.641 19.9135C33.4089 19.9135 35.1215 21.5152 35.4932 23.8184H32.7253C32.5394 22.8852 31.8093 22.177 30.7671 22.177C29.0613 22.177 28.1851 23.4875 28.1851 25.5392C28.1851 27.5909 28.9949 28.9014 30.7273 28.9014C31.8756 28.9014 32.6854 28.2991 32.8713 27.0945H35.5994C35.4135 29.358 33.6413 31.1649 30.7871 31.1649C27.4151 31.1649 25.311 28.716 25.311 25.5392ZM42.9739 30.8538V29.6095H42.9141C42.184 30.5891 41.3543 31.145 39.8542 31.145C37.4779 31.145 36.1503 29.6294 36.1503 27.2997V20.2047H38.9581V26.8298C38.9581 28.0741 39.5223 28.7624 40.7303 28.7624C42.0645 28.7624 42.8743 27.763 42.8743 26.3533V20.2047H45.7086V30.8604H42.9805M59.5084 30.8604H62.3427V20.2047H59.5084V30.8604ZM59.5084 18.7156H62.3427V16.0748H59.5084V18.7156ZM70.9916 25.0627C70.9916 23.5073 70.1619 22.177 68.4493 22.177C67.009 22.177 66.0531 23.2955 66.0531 25.0825C66.0531 26.8695 67.009 27.9483 68.4692 27.9483C70.2614 27.9483 70.9916 26.6379 70.9916 25.0627ZM63.5175 31.1715H66.3253C66.5576 31.8333 67.1616 32.3562 68.4692 32.3562C70.0756 32.3562 70.8455 31.5884 70.8455 30.1324V28.9675H70.7858C70.1619 29.6757 69.3454 30.2118 67.9913 30.2118C65.615 30.2118 63.2852 28.3454 63.2852 25.1222C63.2852 21.8991 65.2035 19.9069 67.9117 19.9069C69.2459 19.9069 70.2216 20.4232 70.8721 21.3166H70.9119V20.1915H73.64V30.0397C73.64 31.5355 73.1621 32.5547 72.3722 33.2828C71.4761 34.1101 70.1021 34.4873 68.5223 34.4873C65.6084 34.4873 63.8162 33.243 63.5242 31.1649M77.6293 21.6542H77.689C78.4191 20.5092 79.3949 19.9069 80.8552 19.9069C83.0655 19.9069 84.5391 21.5681 84.5391 23.8912V30.8472H81.7048V24.3082C81.7048 23.1632 81.041 22.3557 79.8529 22.3557C78.605 22.3557 77.689 23.3551 77.689 24.8045V30.8472H74.8547V20.2047H77.6226V21.6608L77.6293 21.6542ZM53.0632 21.9057C50.8528 21.4292 49.8107 21.0784 49.8107 19.8738C49.8107 18.8149 50.8727 18.1266 52.499 18.1266C53.9792 18.1266 55.1142 18.8215 55.3465 20.2047H58.2538C57.9618 17.3191 55.8112 15.7373 52.5255 15.7373C49.2398 15.7373 46.8171 17.2529 46.8171 20.1849C46.8171 23.2823 49.2531 23.9839 51.9215 24.5861C54.1916 25.109 55.6054 25.3936 55.6054 26.8496C55.6054 28.2197 54.2513 28.7624 52.7114 28.7624C50.5873 28.7624 49.5651 28.0542 49.3593 26.2672H46.4056C46.5118 29.4044 48.8018 31.1913 52.8375 31.1913C56.1895 31.1913 58.6255 29.5102 58.6255 26.4989C58.6255 23.3022 56.1298 22.5741 53.0632 21.9057Z" fill="black"/>
</svg>
