<svg width="52" height="51" viewBox="0 0 52 51" fill="none" xmlns="http://www.w3.org/2000/svg">
<path d="M3.89431 29.1962C4.10761 29.7614 4.40329 30.245 4.78079 30.6463C5.15829 31.0477 5.60533 31.3551 6.12249 31.568C6.63965 31.7809 7.20181 31.8877 7.80896 31.8877C8.41611 31.8877 8.95372 31.7768 9.47089 31.5557C9.98805 31.3347 10.4392 31.0232 10.8248 30.6218C11.2105 30.2205 11.5103 29.741 11.7236 29.1839C11.9369 28.6268 12.0438 28.0044 12.0438 27.3161V16.6982H14.629V33.9031H12.0684V32.3053C11.4939 32.9114 10.8167 33.3787 10.0371 33.7065C9.25759 34.0343 8.41611 34.1982 7.51327 34.1982C6.61043 34.1982 5.73622 34.0384 4.94032 33.7187C4.14442 33.3991 3.45487 32.9447 2.87226 32.3549C2.28966 31.7652 1.82976 31.0564 1.49317 30.2287C1.15658 29.4015 0.988281 28.4798 0.988281 27.4637V16.6982H3.5735V27.3161C3.5735 28.0044 3.68102 28.6309 3.89431 29.1962Z" fill="#010202"/>
<path d="M19.0867 16.6982V22.9656C19.6611 22.3922 20.3261 21.9377 21.0811 21.6017C21.8361 21.2657 22.6571 21.0977 23.543 21.0977C24.4289 21.0977 25.3241 21.2698 26.1282 21.614C26.9323 21.9582 27.63 22.4248 28.2208 23.0152C28.8116 23.6049 29.2797 24.3014 29.6245 25.1041C29.9692 25.9067 30.1416 26.759 30.1416 27.6602C30.1416 28.5615 29.9692 29.4097 29.6245 30.2042C29.2797 30.9987 28.8122 31.6911 28.2208 32.2808C27.63 32.8706 26.9323 33.3378 26.1282 33.682C25.3236 34.0262 24.4622 34.1982 23.543 34.1982C22.6238 34.1982 21.832 34.0302 21.0682 33.6942C20.3051 33.3582 19.636 32.9038 19.0615 32.3304V33.9037H16.5996V16.6982H19.0867ZM19.3701 29.356C19.5915 29.8804 19.8995 30.3395 20.2934 30.7327C20.6872 31.1258 21.1471 31.4373 21.6725 31.6666C22.1978 31.8958 22.764 32.0107 23.3712 32.0107C23.9784 32.0107 24.5201 31.8958 25.0454 31.6666C25.5707 31.4373 26.026 31.1258 26.4116 30.7327C26.7973 30.3395 27.1053 29.8804 27.3349 29.356C27.5646 28.8316 27.6797 28.2663 27.6797 27.6602C27.6797 27.0542 27.5646 26.4848 27.3349 25.9522C27.1053 25.4197 26.7973 24.9571 26.4116 24.5633C26.026 24.1702 25.5702 23.8627 25.0454 23.6417C24.5201 23.4206 23.962 23.3097 23.3712 23.3097C22.7804 23.3097 22.2223 23.4206 21.697 23.6417C21.1717 23.8627 20.7124 24.1702 20.3179 24.5633C19.924 24.9565 19.612 25.4197 19.3823 25.9522C19.1527 26.4848 19.0376 27.0542 19.0376 27.6602C19.0376 28.2663 19.148 28.8316 19.3701 29.356Z" fill="#010202"/>
<path d="M31.5454 25.1285C31.8738 24.3422 32.3249 23.6498 32.8993 23.0519C33.4738 22.4539 34.1551 21.9826 34.9428 21.6384C35.7306 21.2943 36.5843 21.1222 37.5035 21.1222C38.4227 21.1222 39.2438 21.2861 40.0151 21.6139C40.7865 21.9418 41.4515 22.3962 42.0095 22.9784C42.5676 23.5599 43.003 24.2483 43.3144 25.0428C43.6265 25.8373 43.7825 26.7018 43.7825 27.6357V28.4465H33.5643C33.6467 28.9546 33.8104 29.4254 34.057 29.8599C34.303 30.2939 34.6109 30.6708 34.9802 30.9904C35.3496 31.3101 35.768 31.5598 36.236 31.74C36.7041 31.9203 37.2002 32.0107 37.7256 32.0107C39.2192 32.0107 40.4259 31.3959 41.3451 30.1674L43.1426 31.4944C42.5191 32.3304 41.7472 32.9854 40.828 33.4609C39.9088 33.9363 38.8744 34.1737 37.7256 34.1737C36.79 34.1737 35.9158 34.0098 35.1035 33.6819C34.2913 33.3541 33.5854 32.8956 32.9858 32.3053C32.3868 31.7155 31.9147 31.0231 31.5699 30.2286C31.2251 29.4341 31.0527 28.5696 31.0527 27.6357C31.0527 26.7508 31.2176 25.9154 31.5454 25.1285ZM35.0042 24.1579C34.3065 24.7394 33.8431 25.5141 33.6128 26.4807H41.2703C41.057 25.5141 40.6012 24.7394 39.9035 24.1579C39.2058 23.5763 38.3894 23.2852 37.4539 23.2852C36.5183 23.2852 35.7013 23.5763 35.0042 24.1579Z" fill="#010202"/>
<path d="M48.435 24.4402C47.9097 25.0136 47.6473 25.7918 47.6473 26.7753V33.9031H45.1602V21.3684H47.6222V22.9171C47.9342 22.4091 48.3403 22.0077 48.8411 21.7126C49.3419 21.4174 49.9368 21.2704 50.6264 21.2704H51.4883V23.581H50.454C49.633 23.581 48.9604 23.868 48.435 24.4414" fill="#010202"/>
</svg>
