<svg width="67" height="51" viewBox="0 0 67 51" fill="none" xmlns="http://www.w3.org/2000/svg">
<path d="M14.5319 32.6141H2.76052C1.98304 32.6141 1.26767 32.1961 0.908106 31.5391C0.490184 30.7033 0.608783 29.747 1.26579 29.1483L9.45292 20.9612H3.53612C1.86255 20.9612 0.667142 19.6472 0.667142 18.0922H11.5425C12.32 18.0922 13.0372 18.5102 13.3949 19.1672C13.8128 20.003 13.6942 20.9593 13.0372 21.558L4.85201 29.7451H11.6649C13.2179 29.7451 14.5338 31.0591 14.5338 32.6141M61.0832 17.8531C59.3512 17.8531 57.9168 18.6306 56.8399 19.7658C55.8234 18.5704 54.2703 17.8531 52.5967 17.8531C49.4887 17.8531 46.919 20.5414 46.919 23.6495V32.6724C48.5926 32.6724 49.788 31.3584 49.788 29.8035V23.6495C49.788 22.1547 50.9834 20.901 52.4762 20.8407C54.0293 20.7805 55.3452 22.0361 55.3452 23.5892V29.7432C55.3452 31.4168 56.6592 32.6122 58.2142 32.6122V23.5911C58.2142 22.0964 59.4096 20.8426 60.9024 20.7824C62.4555 20.7221 63.7714 21.9778 63.7714 23.5309V29.6849C63.7714 31.3584 65.0854 32.5538 66.6404 32.5538V23.6495C66.7609 20.483 64.1912 17.8531 61.0832 17.8531ZM29.2326 25.3833C29.2326 29.4458 25.8855 32.8531 21.7627 32.8531C17.64 32.8531 14.2929 29.506 14.2929 25.3833C14.2929 21.2605 17.64 17.8531 21.7627 17.8531C25.8855 17.8531 29.2326 21.2586 29.2326 25.3833ZM26.3637 25.3833C26.3637 22.8136 24.3324 20.7824 21.7627 20.7824C19.1931 20.7824 17.1618 22.8136 17.1618 25.3833C17.1618 27.9529 19.1931 29.9842 21.7627 29.9842C24.3324 29.9842 26.3637 27.8927 26.3637 25.3833ZM45.4262 25.3833C45.4262 29.506 42.0809 32.8531 37.9563 32.8531C33.8317 32.8531 30.4262 29.506 30.4262 25.3833C30.4262 21.2605 33.7752 17.8531 37.8979 17.8531C42.0207 17.8531 45.4262 21.2586 45.4262 25.3833ZM42.5572 25.3833C42.5572 22.8136 40.5259 20.7824 37.9563 20.7824C35.3866 20.7824 33.3554 22.8136 33.3554 25.3833C33.3554 27.9529 35.3866 29.9842 37.9563 29.9842C40.5259 29.9842 42.5572 27.8927 42.5572 25.3833Z" fill="#0B5CFF"/>
</svg>
