<svg width="106" height="51" viewBox="0 0 106 51" fill="none" xmlns="http://www.w3.org/2000/svg">
<path d="M0.335938 14.0728H11.0392C11.0392 17.6405 11.0392 21.2083 11.0392 24.776H0.335938V14.0728Z" fill="#F25022"/>
<path d="M12.1309 14.0728H22.8342C22.8342 17.6405 22.8342 21.2083 22.8336 24.776C19.2664 24.776 15.6987 24.776 12.1316 24.776C12.1303 21.2083 12.1309 17.6405 12.1309 14.0728Z" fill="#80BA01"/>
<path d="M96.8547 18.1509C97.8415 17.5087 99.1162 17.4489 100.228 17.7549C100.238 18.4158 100.23 19.0772 100.233 19.7387C99.7044 19.506 99.0828 19.3543 98.5267 19.5825C98.0857 19.7574 97.8235 20.2099 97.7547 20.6625C97.6718 21.2365 97.7258 21.8183 97.7116 22.3956C98.8404 22.3981 99.9693 22.3962 101.098 22.3969C101.106 21.664 101.089 20.9305 101.108 20.1977C101.875 19.9791 102.634 19.7342 103.398 19.5041C103.405 20.4696 103.389 21.4358 103.407 22.402C104.17 22.3911 104.933 22.3994 105.697 22.3969V24.2765C104.931 24.245 104.164 24.2682 103.398 24.2656C103.401 25.3462 103.398 26.4268 103.399 27.5081C103.411 28.1066 103.367 28.7083 103.437 29.3048C103.479 29.6564 103.607 30.046 103.937 30.2279C104.489 30.5371 105.19 30.4021 105.697 30.0627V31.961C105.035 32.2484 104.296 32.3358 103.581 32.285C102.902 32.2349 102.199 31.988 101.756 31.448C101.244 30.838 101.112 30.0119 101.102 29.2392C101.096 27.5807 101.103 25.9222 101.099 24.263C99.9699 24.263 98.8404 24.2617 97.7116 24.263C97.7103 26.8659 97.711 29.4687 97.711 32.0716H95.3961C95.3961 29.4694 95.3929 26.8678 95.3974 24.2656C94.8606 24.2553 94.3232 24.2682 93.7864 24.2572C93.7884 23.6395 93.7909 23.0211 93.7852 22.4026C94.3194 22.3904 94.8542 22.3956 95.3897 22.3994C95.4289 21.5779 95.3035 20.7326 95.5491 19.9322C95.7567 19.2097 96.2183 18.5584 96.8547 18.1509Z" fill="#777777"/>
<path d="M47.294 18.2859C47.7607 18.2152 48.2659 18.3746 48.5752 18.7398C48.9377 19.1396 49.0046 19.776 48.7359 20.2434C48.4389 20.7705 47.7742 21.0154 47.195 20.8888C46.5939 20.7808 46.0932 20.2221 46.1202 19.5992C46.1028 18.9435 46.6511 18.3592 47.294 18.2859Z" fill="#777777"/>
<path d="M29.5534 18.5726H32.92C33.9678 21.2333 35.0234 23.8914 36.0725 26.5522C36.3405 27.2175 36.5912 27.8905 36.8722 28.5507C38.2202 25.226 39.5875 21.9096 40.9253 18.5803C42.0046 18.563 43.0846 18.5765 44.1645 18.5739C44.162 23.0731 44.1632 27.5723 44.1639 32.0716C43.3848 32.0696 42.6063 32.078 41.8278 32.0671C41.8362 28.7468 41.8272 25.4265 41.8317 22.1056C41.8329 21.9565 41.8278 21.8074 41.8175 21.6582C41.7719 21.7276 41.7314 21.7996 41.696 21.8742C40.3583 25.2729 38.9948 28.6619 37.6648 32.0639C37.1107 32.0838 36.5559 32.0651 36.0011 32.0741C34.6209 28.6754 33.2581 25.269 31.885 21.8678C31.849 21.7971 31.8105 21.7283 31.7687 21.6621C31.7404 23.1168 31.7642 24.5729 31.7565 26.0276C31.7571 28.0423 31.7552 30.0569 31.7571 32.0716C31.0223 32.0735 30.2876 32.0716 29.5534 32.0716C29.5528 27.5717 29.5522 23.0724 29.5534 18.5726Z" fill="#777777"/>
<path d="M53.6631 22.3879C54.7803 22.0697 55.985 22.0826 57.1016 22.3982C57.3318 22.4625 57.5548 22.5518 57.7618 22.6733C57.749 23.4107 57.7618 24.1486 57.7547 24.8866C57.0084 24.3164 56.0615 23.9551 55.1127 24.0747C54.3593 24.1428 53.6406 24.5337 53.1899 25.1425C52.6107 25.8972 52.477 26.8993 52.5767 27.8225C52.6512 28.545 52.9502 29.2669 53.512 29.7458C54.0957 30.2646 54.914 30.4485 55.6777 30.3906C56.4324 30.3038 57.1447 29.9843 57.7547 29.5382C57.7612 30.237 57.7515 30.9357 57.7599 31.6345C56.8136 32.1976 55.679 32.3429 54.5958 32.2895C53.4876 32.231 52.3825 31.8113 51.5803 31.0322C50.7086 30.192 50.2355 28.9937 50.1795 27.7935C50.123 26.5458 50.3769 25.244 51.0949 24.202C51.6966 23.3129 52.6377 22.6836 53.6631 22.3879Z" fill="#777777"/>
<path d="M78.9491 22.2406C80.0195 22.0523 81.1399 22.1905 82.153 22.5743C82.1543 23.284 82.153 23.993 82.1537 24.7021C81.4459 24.2154 80.5813 23.9538 79.7225 23.984C79.2898 24.0007 78.8141 24.1839 78.6168 24.5954C78.4599 25.0023 78.5686 25.5358 78.9523 25.7795C79.6087 26.2185 80.3917 26.4049 81.0718 26.7984C81.6073 27.0992 82.1267 27.4926 82.398 28.0596C82.9077 29.1216 82.6917 30.5249 81.7956 31.3169C80.94 32.1166 79.7077 32.3377 78.5744 32.2953C77.7695 32.2432 76.9608 32.0844 76.2209 31.7553C76.2241 31.009 76.2164 30.2633 76.2248 29.5176C76.847 29.9695 77.5651 30.2928 78.3249 30.424C78.854 30.5101 79.4293 30.514 79.9224 30.2774C80.3942 30.0428 80.4791 29.3723 80.1988 28.9622C79.9365 28.6459 79.5515 28.4717 79.1883 28.3007C78.5062 27.994 77.7895 27.7376 77.1903 27.2779C76.7693 26.9494 76.4504 26.4866 76.3257 25.9646C76.1406 25.1951 76.1984 24.3279 76.6458 23.6555C77.1569 22.8719 78.0447 22.402 78.9491 22.2406Z" fill="#777777"/>
<path d="M62.9387 22.5453C63.5777 22.1616 64.3896 22.1294 65.087 22.364C65.0838 23.1361 65.087 23.9081 65.0851 24.6802C64.6287 24.3845 64.0591 24.2578 63.5204 24.3125C62.8635 24.3871 62.3428 24.8917 62.0728 25.4702C61.7796 26.0829 61.7243 26.7758 61.743 27.4457C61.743 28.9879 61.7436 30.53 61.743 32.0722H59.4609C59.459 28.849 59.4635 25.6252 59.459 22.402C60.2207 22.3923 60.9825 22.3962 61.7443 22.4C61.7411 22.9535 61.7443 23.507 61.7423 24.0611C61.9898 23.4588 62.3582 22.8738 62.9387 22.5453Z" fill="#777777"/>
<path d="M46.3301 22.4C47.0976 22.3968 47.8658 22.3891 48.6334 22.4039C48.6244 25.6264 48.6327 28.8496 48.6295 32.0722H46.3314C46.3294 28.8484 46.332 25.6245 46.3301 22.4Z" fill="#777777"/>
<path d="M74.6828 24.6559C74.281 23.7623 73.5559 23.016 72.6611 22.6123C71.63 22.143 70.4581 22.08 69.3472 22.2214C68.1805 22.3686 67.0446 22.9176 66.3041 23.8478C65.6278 24.6784 65.2987 25.7455 65.2357 26.8042C65.1424 28.052 65.3507 29.3762 66.0836 30.4176C66.7078 31.3163 67.6932 31.9341 68.7578 32.1616C69.6475 32.3487 70.5783 32.3493 71.468 32.1642C72.5087 31.9501 73.4807 31.3742 74.1255 30.5243C74.7554 29.724 75.0717 28.7147 75.1431 27.7074C75.2157 26.6757 75.1116 25.6073 74.6828 24.6559ZM72.447 29.0966C72.2259 29.5941 71.8209 30.0146 71.3098 30.2138C70.712 30.4433 70.0402 30.4568 69.4231 30.2968C68.7951 30.1316 68.2621 29.6777 67.9722 29.0998C67.5994 28.3554 67.5434 27.4946 67.6206 26.6782C67.6907 25.9357 67.9491 25.1721 68.5148 24.6597C68.9249 24.2766 69.4842 24.0895 70.0377 24.0587C70.7332 24.013 71.4738 24.2097 71.9739 24.7156C72.5087 25.2415 72.7157 26.0045 72.7729 26.7322C72.8141 27.5287 72.7813 28.3586 72.447 29.0966Z" fill="#777777"/>
<path d="M93.2207 24.9355C92.8646 23.9751 92.1517 23.1445 91.2324 22.6849C90.1782 22.1526 88.9516 22.0748 87.7964 22.2182C86.865 22.3378 85.9496 22.6913 85.2386 23.3155C84.3707 24.0631 83.8616 25.1624 83.7118 26.2867C83.5691 27.411 83.6173 28.5952 84.0757 29.6475C84.5154 30.6799 85.3832 31.5181 86.4272 31.9289C87.4577 32.3345 88.6032 32.3802 89.6877 32.2047C90.7966 32.0215 91.847 31.4384 92.5335 30.541C93.267 29.6141 93.5826 28.4145 93.5807 27.2458C93.5968 26.4635 93.4991 25.6702 93.2207 24.9355ZM91.1328 28.2152C91.0441 28.7244 90.8679 29.2322 90.5343 29.6353C90.1981 30.0403 89.698 30.2871 89.1818 30.363C88.6276 30.4459 88.0439 30.406 87.5258 30.183C86.9665 29.9464 86.5333 29.4623 86.3051 28.9056C86.0306 28.2422 85.9759 27.5075 86.0306 26.7978C86.0833 26.1106 86.2781 25.4054 86.7319 24.8712C87.1459 24.3723 87.781 24.0966 88.4213 24.0606C89.075 24.0149 89.7732 24.166 90.2759 24.6076C90.7393 24.992 90.9958 25.568 91.1135 26.1479C91.2459 26.828 91.2446 27.5319 91.1328 28.2152Z" fill="#777777"/>
<path d="M0.335938 25.8682C3.90369 25.8694 7.47144 25.8682 11.0392 25.8694C11.0392 29.4372 11.0392 33.0043 11.0392 36.5721H0.335938V25.8682Z" fill="#02A4EF"/>
<path d="M12.1316 25.8695C15.6987 25.8682 19.2664 25.8695 22.8342 25.8695V36.5727H12.1309C12.1316 33.005 12.1309 29.4366 12.1316 25.8695Z" fill="#FFB902"/>
</svg>
