<svg width="79" height="51" viewBox="0 0 79 51" fill="none" xmlns="http://www.w3.org/2000/svg">
<path d="M13.0781 29.166L11.0121 27.9727L10.3683 27.601C10.1151 27.4071 9.95354 27.1054 9.95354 26.7633C9.95354 26.4212 10.1151 26.1196 10.3683 25.9256L11.0121 25.5539L8.95154 24.358C8.27277 24.9398 7.8418 25.8017 7.8418 26.7633C7.8418 27.7249 8.27007 28.5842 8.94615 29.166C9.05928 29.2629 9.18049 29.3518 9.30709 29.4326L16.7171 33.7073C17.1857 33.9794 17.7298 34.1356 18.3116 34.1356C20.0625 34.1356 21.482 32.7161 21.482 30.968V22.5398C21.482 20.7917 20.0625 19.3722 18.3116 19.3722C17.7271 19.3722 17.1803 19.5311 16.709 19.8059L11.0121 23.1055L12.7198 24.094C12.8437 24.1748 12.9622 24.261 13.0754 24.358L17.7702 21.6348C17.9292 21.5405 18.1123 21.4839 18.3116 21.4839C18.8961 21.4839 19.3675 21.958 19.3675 22.5398V30.968C19.3675 31.5498 18.8935 32.0238 18.3116 32.0238C18.1177 32.0238 17.9345 31.97 17.7783 31.8784L13.0808 29.166" fill="#249FDA"/>
<path d="M54.0405 29.7531V23.5418H56.998V21.4974H54.0405V18.7203H51.918V29.7531C51.918 33.0608 54.0163 34.8521 57.0492 34.4992V32.5302C55.4304 32.6326 54.0405 32.0508 54.0405 29.7531Z" fill="#003257"/>
<path d="M48.2097 17.4382C47.4933 17.4382 46.9141 18.0173 46.9141 18.7311C46.9141 19.4449 47.4933 20.024 48.2097 20.024C48.9262 20.024 49.5053 19.4449 49.5053 18.7311C49.5053 18.0173 48.9262 17.4382 48.2097 17.4382Z" fill="#249FDA"/>
<path d="M74.8661 30.0818V16.4928H72.6816V30.0818C72.6816 32.471 74.6264 34.413 77.0183 34.413V32.2313C75.8304 32.2313 74.8661 31.267 74.8661 30.0818Z" fill="#003257"/>
<path d="M41.582 17.6456L36.378 30.1868L31.201 17.6456H28.2246V34.3107H30.3014V20.5924L35.9551 34.3107H36.8036L42.4816 20.5924V34.3107H44.5584V17.6456H41.582Z" fill="#003257"/>
<path d="M11.0094 25.5539L11.6531 25.9283C11.9063 26.1222 12.0679 26.4239 12.0679 26.766C12.0679 27.1081 11.9036 27.4098 11.6531 27.6037L11.0094 27.9754L13.0753 29.1687C13.7514 28.5868 14.1824 27.7276 14.1824 26.766C14.1824 25.8044 13.7514 24.9398 13.0726 24.3607C12.9595 24.2637 12.841 24.1775 12.7171 24.0967L5.31521 19.8085C4.84653 19.5338 4.29705 19.3749 3.71524 19.3749C1.96443 19.3749 0.544922 20.7944 0.544922 22.5425V30.9706C0.544922 32.7215 1.96443 34.1383 3.71524 34.1383C4.29705 34.1383 4.84114 33.982 5.30982 33.71L11.0148 30.4185L9.30706 29.4353C9.18046 29.3545 9.05926 29.2656 8.94613 29.1687L4.24856 31.8811C4.09234 31.9726 3.90917 32.0265 3.71524 32.0265C3.13074 32.0265 2.65936 31.5525 2.65936 30.9706V22.5425C2.65936 21.958 3.13343 21.4866 3.71524 21.4866C3.91456 21.4866 4.09772 21.5432 4.25664 21.6375L8.95151 24.3607L11.0148 25.5566L11.0094 25.5539Z" fill="#003257"/>
<path d="M76.9707 16.5117C77.6279 16.5117 78.1801 17.0289 78.1801 17.7104C78.1801 18.3918 77.6306 18.9225 76.9707 18.9225C76.3108 18.9225 75.7559 18.4026 75.7559 17.7104C75.7559 17.0181 76.3108 16.5117 76.9707 16.5117ZM76.9707 18.742C77.5282 18.742 77.9592 18.2975 77.9592 17.7077C77.9592 17.1178 77.5282 16.6868 76.9707 16.6868C76.4131 16.6868 75.9741 17.1312 75.9741 17.7077C75.9741 18.2841 76.405 18.742 76.9707 18.742ZM76.4993 17.01H77.0434C77.3774 17.01 77.5363 17.142 77.5363 17.4114C77.5363 17.6646 77.3747 17.7723 77.1646 17.7939L77.5686 18.4161H77.3343L76.9518 17.81H76.7202V18.4161H76.502V17.01H76.4993ZM76.7175 17.6349H76.9464C77.1404 17.6349 77.3182 17.6269 77.3182 17.4033C77.3182 17.2174 77.1565 17.1878 77.0084 17.1878H76.7175V17.6349Z" fill="#003257"/>
<path d="M49.287 21.3035H47.1348V34.3214H49.287V21.3035Z" fill="#003257"/>
<path d="M64.493 32.8589C62.3435 32.8589 60.2722 31.267 59.9921 28.568H70.936C70.9602 23.9486 67.728 21.1715 64.3637 21.1715C60.7489 21.1715 57.8184 24.2502 57.8184 28.0131C57.8184 31.776 60.7489 34.8036 64.4903 34.8036C67.4963 34.8036 69.7212 33.2386 70.6316 30.4616H68.3582C67.6498 31.9754 66.3354 32.8589 64.4903 32.8589M64.3395 23.1136C66.2357 23.1136 68.0054 24.5277 68.536 26.6475H60.0944C60.652 24.4253 62.5455 23.1136 64.3422 23.1136" fill="#003257"/>
</svg>
