<svg width="113" height="51" viewBox="0 0 113 51" fill="none" xmlns="http://www.w3.org/2000/svg">
<path d="M19.5206 19.192C16.3416 19.192 13.6447 21.5077 13.2046 24.6183V15.95C13.2046 15.8947 13.1627 15.8533 13.1068 15.8533C13.0788 15.8533 13.0579 15.8671 13.0369 15.8809L9.30592 19.6828C6.07103 18.3348 2.34008 19.8418 0.977649 23.0422C-0.384777 26.2427 1.13835 29.9339 4.37324 31.2749C7.60813 32.6159 11.3391 31.1159 12.7015 27.9155C12.9181 27.4109 13.0648 26.8786 13.1347 26.3394V35.0077C13.1347 35.063 13.1766 35.1044 13.2325 35.1044C13.2605 35.1044 13.2814 35.0975 13.3024 35.0768L17.0333 31.2749C20.2682 32.6367 24.0062 31.1505 25.3826 27.95C26.759 24.7496 25.2568 21.0514 22.0219 19.6897C21.2254 19.3579 20.373 19.1851 19.5137 19.1851" fill="#1738FA"/>
<path fill-rule="evenodd" clip-rule="evenodd" d="M49.9965 16.5583C49.9965 17.3394 49.3607 17.9685 48.5712 17.9685C47.7816 17.9685 47.1459 17.3394 47.1459 16.5583C47.1459 15.7772 47.7816 15.1482 48.5712 15.1482C49.3607 15.1482 49.9965 15.7772 49.9965 16.5583ZM66.7648 15.3556V31.5722C66.7648 31.6551 66.8346 31.7242 66.9185 31.7242H68.9237C69.0075 31.7242 69.0774 31.6551 69.0774 31.5722V15.3556C69.0774 15.2726 69.0075 15.2035 68.9237 15.2035H66.9185C66.8346 15.2035 66.7648 15.2726 66.7648 15.3556ZM42.4647 21.0445V15.3625C42.4647 15.2795 42.5346 15.2104 42.6184 15.2104H44.6236C44.7075 15.2104 44.7773 15.2795 44.7773 15.3625V31.5791C44.7773 31.662 44.7075 31.7311 44.6236 31.7311H42.6254C42.5415 31.7311 42.4717 31.662 42.4717 31.5791V30.1828C41.4656 31.3233 40.0053 31.9593 38.4752 31.9316C34.9469 31.8694 32.1452 28.9869 32.2081 25.503C32.271 22.1021 35.0377 19.3648 38.4752 19.3026C40.0053 19.2749 41.4656 19.9109 42.4717 21.0514L42.4647 21.0445ZM34.7583 25.6136C34.6954 27.7496 36.3862 29.5261 38.5451 29.5883C38.5661 29.5883 38.58 29.5883 38.601 29.5883C40.7739 29.5883 42.2481 27.8049 42.2481 25.6067C42.2481 23.4086 40.7809 21.6321 38.608 21.6321C36.4491 21.6666 34.7303 23.4224 34.7652 25.5514C34.7652 25.5722 34.7652 25.5929 34.7652 25.6067M74.038 21.0376C75.0441 19.897 76.5044 19.2611 78.0345 19.2887C81.5628 19.3648 84.3576 22.2473 84.2877 25.7381C84.2178 29.1252 81.458 31.8487 78.0345 31.9247C76.5044 31.9523 75.0441 31.3164 74.038 30.1758V35.9961C74.038 36.0791 73.9682 36.1482 73.8843 36.1482H71.8791C71.7953 36.1482 71.7254 36.0791 71.7254 35.9961V19.7795C71.7254 19.6966 71.7953 19.6275 71.8791 19.6275H73.8843C73.9682 19.6275 74.038 19.6966 74.038 19.7795V21.0376ZM74.2616 25.6067C74.2616 27.798 75.7288 29.5883 77.9017 29.5883C80.0607 29.5537 81.7794 27.798 81.7445 25.6689C81.7445 25.6482 81.7445 25.6275 81.7445 25.6136C81.8074 23.4846 80.1166 21.7012 77.9576 21.639C77.9367 21.639 77.9157 21.639 77.9017 21.639C75.7288 21.639 74.2616 23.4224 74.2616 25.6205M61.8251 21.0583V19.7934C61.8251 19.7104 61.895 19.6413 61.9788 19.6413H63.984C64.0679 19.6413 64.1377 19.7104 64.1377 19.7934V31.586C64.1377 31.6689 64.0679 31.7381 63.984 31.7381H61.9788C61.895 31.7381 61.8251 31.6689 61.8181 31.586V30.1897C60.812 31.3302 59.3518 31.9662 57.8217 31.9385C54.2933 31.8763 51.4916 28.9938 51.5545 25.5099C51.6174 22.109 54.3842 19.3717 57.8217 19.3095C59.3518 19.2818 60.812 19.9178 61.8181 21.0583H61.8251ZM54.1187 25.6205C54.0558 27.7496 55.7466 29.533 57.9055 29.5952C57.9265 29.5952 57.9474 29.5952 57.9614 29.5952C60.1343 29.5952 61.6015 27.8118 61.6015 25.6136C61.6015 23.4155 60.1343 21.639 57.9614 21.639C55.8025 21.6735 54.0837 23.4293 54.1187 25.5583C54.1187 25.5791 54.1187 25.5998 54.1187 25.6136V25.6205ZM95.8019 19.7934V21.0514C94.7958 19.9109 93.3356 19.2749 91.8055 19.3026C88.2771 19.3786 85.4824 22.2611 85.5523 25.7519C85.6222 29.139 88.3819 31.8625 91.8055 31.9385C93.3356 31.9662 94.7958 31.3233 95.8019 30.1897V31.586C95.8019 31.6689 95.8718 31.7381 95.9556 31.7381H97.9608C98.0447 31.7381 98.1146 31.6689 98.1146 31.586V19.7934C98.1146 19.7104 98.0447 19.6413 97.9608 19.6413H95.9556C95.8718 19.6413 95.8019 19.7104 95.8019 19.7934ZM91.9312 29.6021C89.7723 29.5675 88.0536 27.8118 88.0885 25.6828C88.0885 25.662 88.0885 25.6413 88.0885 25.6275C88.0256 23.4984 89.7164 21.715 91.8753 21.6528C91.8963 21.6528 91.9173 21.6528 91.9312 21.6528C94.1041 21.6528 95.5714 23.4362 95.5714 25.6275C95.5714 27.8187 94.1041 29.609 91.9312 29.609M109.915 15.3832V21.0652C108.909 19.9247 107.449 19.2887 105.919 19.3164C102.39 19.3786 99.5888 22.2611 99.6516 25.745C99.7145 29.1459 102.481 31.8832 105.919 31.9454C107.449 31.9731 108.909 31.3371 109.915 30.1966V31.5929C109.915 31.6758 109.985 31.745 110.069 31.745H112.074C112.158 31.745 112.228 31.6758 112.228 31.5929V15.3763C112.228 15.2934 112.158 15.2242 112.074 15.2242H110.069C109.985 15.2242 109.915 15.2934 109.915 15.3763V15.3832ZM106.045 29.609C103.886 29.5745 102.167 27.8187 102.202 25.6897C102.202 25.6689 102.202 25.6482 102.202 25.6344C102.139 23.5053 103.83 21.7219 105.989 21.6597C106.01 21.6597 106.024 21.6597 106.045 21.6597C108.217 21.6597 109.685 23.4431 109.685 25.6344C109.685 27.8256 108.217 29.6159 106.045 29.6159M47.4113 31.5998V19.8141C47.4113 19.7311 47.4812 19.662 47.5651 19.662H49.5703C49.6541 19.662 49.724 19.7311 49.724 19.8141V31.5998C49.724 31.6828 49.6541 31.7519 49.5703 31.7519H47.5651C47.4812 31.7519 47.4113 31.6828 47.4113 31.5998Z" fill="#1738FA"/>
</svg>
