<svg width="178" height="51" viewBox="0 0 178 51" fill="none" xmlns="http://www.w3.org/2000/svg">
<path d="M10.9526 21.7042C10.9526 19.3966 8.78444 17.9747 6.11621 17.9747H0.246094V33.0732H6.9548C9.62913 33.0732 11.5655 31.2658 11.5655 29.0185C11.5594 27.2471 10.2756 25.7831 8.56794 25.1806C9.96457 24.5329 10.9526 23.1984 10.9526 21.7072V21.7042ZM2.49351 31.3019V26.1476H6.49738C8.04954 26.1476 9.30894 27.2712 9.30894 28.7142C9.30894 30.1572 8.04954 31.3019 6.49738 31.3019H2.49351ZM8.78444 22.0747C8.78444 23.3882 7.56468 24.4455 6.21684 24.4455H2.49351V19.7581H6.22599C7.57993 19.7581 8.78444 20.7763 8.78444 22.0747ZM16.6397 27.4008H19.25L23.4216 33.0732H25.9404L21.592 27.1839C23.9979 26.7109 25.5288 24.8763 25.5288 22.6652C25.5288 20.0112 23.6625 17.9627 20.3448 17.9627H14.3923V33.0732H16.6397V27.4008ZM20.2167 19.957C22.2415 19.957 23.3423 21.0595 23.3423 22.6682C23.3423 24.2768 22.2415 25.4276 20.2167 25.4276H16.6397V19.957H20.2167ZM28.6239 17.9747H30.8744V33.0732H28.6239V17.9747ZM40.3824 26.9037H45.8012V30.1813C44.6945 31.0043 43.3409 31.438 41.9559 31.4134C38.2234 31.4134 35.9242 28.7353 35.9242 25.521C35.9242 22.2223 38.2661 19.6979 42.0871 19.6979C43.4476 19.6728 44.7881 20.0244 45.9568 20.7131L46.9692 18.9628C45.4529 18.0761 43.7177 17.6215 41.9559 17.6494C36.717 17.6494 33.6127 21.1439 33.6127 25.521C33.6127 29.8981 36.717 33.3956 41.9559 33.3956C44.1512 33.4473 46.2943 32.7302 48.006 31.3712V25.2438H40.3824V26.9037ZM60.7495 33.0732H63.003V17.9747H60.7495V24.2768H52.9704V17.9747H50.7199V33.0732H52.9704V26.2319H60.7495V33.0732ZM77.3504 17.9747H65.3449V19.957H70.224V33.0732H72.4775V19.957H77.3565L77.3504 17.9747ZM87.5843 27.4008H91.2771C94.4241 27.4008 96.5404 25.3523 96.5404 22.6983C96.5404 20.0443 94.604 17.9747 91.2771 17.9747H85.3247V33.0732H87.5721L87.5843 27.4008ZM91.1612 19.957C93.1891 19.957 94.2869 21.0595 94.2869 22.6682C94.2869 24.2768 93.1891 25.4276 91.1612 25.4276H87.5843V19.957H91.1612ZM104.591 17.9747H102.024L96.0189 33.0732H98.2694L99.7545 29.3649H106.839L108.345 33.0732H110.596L104.591 17.9747ZM103.317 20.454L106.171 27.5514H100.429L103.317 20.454ZM121.634 17.9747H109.623V19.957H114.502V33.0732H116.749V19.957H121.628L121.634 17.9747ZM134.771 17.9747H122.757V19.957H127.636V33.0732H129.886V19.957H134.765L134.771 17.9747ZM147.655 31.1513H139.382V26.2319H146.554V24.3582H139.382V19.9148H147.5V17.9747H137.132V33.0732H147.655V31.1513ZM152.735 27.4008H155.343L159.502 33.0732H162.024L157.685 27.1839C160.088 26.7109 161.618 24.8763 161.618 22.6652C161.618 20.0112 159.752 17.9627 156.434 17.9627H150.485V33.0732H152.735V27.4008ZM156.309 19.957C158.337 19.957 159.435 21.0595 159.435 22.6682C159.435 24.2768 158.337 25.4276 156.309 25.4276H152.735V19.957H156.309ZM166.97 21.5987L174.999 33.0732H177.247V17.9747H175.021V29.4914L166.97 17.9747H164.717V33.0732H166.97V21.5987Z" fill="#E03452"/>
<path d="M124.075 26.1837C124.077 26.6321 123.944 27.071 123.693 27.4447C123.442 27.8185 123.085 28.1102 122.666 28.2831C122.247 28.4559 121.786 28.5021 121.34 28.4157C120.895 28.3293 120.485 28.1143 120.164 27.7978C119.842 27.4814 119.623 27.0777 119.534 26.638C119.444 26.1983 119.489 25.7424 119.662 25.3279C119.836 24.9135 120.13 24.5591 120.507 24.3098C120.884 24.0605 121.328 23.9274 121.782 23.9274C122.388 23.9282 122.97 24.1658 123.399 24.5886C123.829 25.0113 124.072 25.5847 124.075 26.1837Z" fill="#58595B"/>
</svg>
