<svg width="71" height="51" viewBox="0 0 71 51" fill="none" xmlns="http://www.w3.org/2000/svg">
<path d="M9.41656 22.888V25.2432H15.0426C14.8699 26.5647 14.4312 27.5298 13.7595 28.2098C12.937 29.0323 11.6538 29.9316 9.41382 29.9316C5.94821 29.9316 3.24208 27.1377 3.24208 23.6721C3.24208 20.2065 5.95095 17.4127 9.41382 17.4127C11.2809 17.4127 12.6491 18.1502 13.6526 19.0961L15.3086 17.4401C13.9103 16.0802 12.0349 15.0465 9.41382 15.0465C4.6678 15.0465 0.675781 18.9124 0.675781 23.6612C0.675781 28.4099 4.6678 32.2758 9.41382 32.2758C11.9773 32.2758 13.913 31.4341 15.4238 29.8631C16.9756 28.3112 17.4636 26.1205 17.4636 24.3603C17.4636 23.8147 17.4252 23.3075 17.3403 22.8852H9.41656V22.888Z" fill="#4285F4"/>
<path d="M24.4994 20.9714C21.4259 20.9714 18.9199 23.3074 18.9199 26.5318C18.9199 29.7561 21.4287 32.0921 24.4994 32.0921C27.5702 32.0921 30.079 29.7369 30.079 26.5318C30.079 23.3266 27.5702 20.9714 24.4994 20.9714ZM24.4994 29.9014C22.816 29.9014 21.3601 28.5141 21.3601 26.5318C21.3601 24.5495 22.816 23.1621 24.4994 23.1621C26.1829 23.1621 27.6388 24.5303 27.6388 26.5318C27.6388 28.5333 26.1829 29.9014 24.4994 29.9014Z" fill="#EA4335"/>
<path d="M51.8503 22.2162H51.7625C51.2169 21.5664 50.1641 20.9714 48.8343 20.9714C46.0596 20.9714 43.6387 23.3924 43.6387 26.5318C43.6387 29.6711 46.0596 32.0921 48.8343 32.0921C50.1641 32.0921 51.2169 31.4971 51.7625 30.8281H51.8503V31.604C51.8503 33.7289 50.7124 34.8668 48.8837 34.8668C47.3894 34.8668 46.4627 33.7947 46.0788 32.8844L43.954 33.7646C44.5654 35.2396 46.183 37.0465 48.8837 37.0465C51.7461 37.0465 54.1671 35.363 54.1671 31.2558V21.2538H51.8503V22.2107V22.2162ZM49.0454 29.9014C47.362 29.9014 46.0788 28.4647 46.0788 26.5318C46.0788 24.5988 47.362 23.1621 49.0454 23.1621C50.7289 23.1621 52.012 24.5988 52.012 26.5509C52.0203 28.4949 50.7097 29.9014 49.0454 29.9014Z" fill="#4285F4"/>
<path d="M36.9408 20.9714C33.8673 20.9714 31.3613 23.3074 31.3613 26.5318C31.3613 29.7561 33.87 32.0921 36.9408 32.0921C40.0116 32.0921 42.5203 29.7369 42.5203 26.5318C42.5203 23.3266 40.0116 20.9714 36.9408 20.9714ZM36.9408 29.9014C35.2573 29.9014 33.8015 28.5141 33.8015 26.5318C33.8015 24.5495 35.2546 23.1621 36.9408 23.1621C38.627 23.1621 40.0801 24.5303 40.0801 26.5318C40.0801 28.5333 38.6242 29.9014 36.9408 29.9014Z" fill="#FBBC05"/>
<path d="M58.4838 15.2795H56.082V32.0948H58.4838V15.2795Z" fill="#34A853"/>
<path d="M65.9024 29.9014C64.6576 29.9014 63.7775 29.3366 63.2045 28.2179L70.6402 25.1444L70.3907 24.5138C69.93 23.269 68.5153 20.9714 65.6337 20.9714C62.7521 20.9714 60.3887 23.2197 60.3887 26.5318C60.3887 29.6519 62.7439 32.0921 65.9024 32.0921C68.4468 32.0921 69.9218 30.532 70.536 29.6327L68.6414 28.3687C68.0108 29.2872 67.1499 29.8987 65.9051 29.8987M65.7324 23.0552C66.7194 23.0552 67.5612 23.5624 67.8381 24.2808L62.8124 26.3563C62.8124 24.0203 64.4684 23.0552 65.7324 23.0552Z" fill="#EA4335"/>
</svg>
