<svg width="113" height="51" viewBox="0 0 113 51" fill="none" xmlns="http://www.w3.org/2000/svg">
<path d="M6.21953 18.3497H15.1901C22.3325 18.3497 21.5002 21.7252 20.177 25.4482C18.8609 29.164 17.2887 32.5395 10.1464 32.5395H1.17578L6.21242 18.3568L6.21953 18.3497ZM8.3039 29.8732H9.5346C11.9249 29.8732 12.4371 29.2775 13.7958 25.4411C15.1617 21.6047 15.0692 21.009 12.6789 21.009H11.4553L8.3039 29.8732Z" fill="#014DA2"/>
<path d="M32.1579 18.0732C38.4679 18.0732 39.8978 20.1368 38.0126 25.4412C36.1274 30.7455 33.2321 32.8091 26.922 32.8091C20.612 32.8091 19.1821 30.7455 21.0744 25.4412C22.9525 20.1368 25.8478 18.0732 32.165 18.0732M27.8113 30.3058C29.7036 30.3058 30.2727 29.2776 31.6314 25.4412C32.9973 21.6047 33.1609 20.5694 31.2686 20.5694C29.3763 20.5694 28.8072 21.6047 27.4485 25.4412C26.0897 29.2776 25.919 30.3058 27.8113 30.3058Z" fill="#014DA2"/>
<path d="M50.0212 18.0732C56.3312 18.0732 57.7611 20.1368 55.8759 25.4412C53.9907 30.7455 51.0954 32.8091 44.7853 32.8091C38.4753 32.8091 37.0454 30.7455 38.9377 25.4412C40.8229 20.1368 43.7183 18.0732 50.0283 18.0732M45.6746 30.3058C47.574 30.3058 48.136 29.2776 49.5018 25.4412C50.8606 21.6047 51.0313 20.5694 49.139 20.5694C47.2467 20.5694 46.6776 21.6047 45.3118 25.4412C43.9459 29.2776 43.7823 30.3058 45.6746 30.3058Z" fill="#014DA2"/>
<path d="M67.3581 22.4486L67.4719 22.1082C67.7707 21.2714 67.4577 20.5765 66.2554 20.5765C64.9323 20.5765 64.107 21.1934 63.8865 21.8317C62.8906 24.6327 73.476 23.2641 71.6335 28.4479C70.5593 31.4688 67.1233 32.8232 61.6741 32.8232C56.5592 32.8232 54.0765 31.7666 55.1222 28.8308L55.3001 28.3273H61.2757L61.1548 28.6606C60.728 29.8803 61.4038 30.3129 62.5918 30.3129C63.8581 30.3129 64.7971 29.7172 65.0745 28.9443C66.0705 26.1432 55.8692 27.5331 57.6547 22.5053C58.672 19.6404 61.7879 18.0732 67.0095 18.0732C72.2311 18.0732 74.2088 19.3993 73.1275 22.4415H67.351L67.3581 22.4486Z" fill="#014DA2"/>
<path d="M80.61 18.3497H88.3855L89.1253 32.5324H82.5521L82.8011 30.0505H77.8925L76.3772 32.5324H69.7969L80.6171 18.3497H80.61ZM83.4982 21.2501H83.4342L79.5998 27.2706H83.0501L83.4982 21.2501Z" fill="#014DA2"/>
<path d="M94.9305 18.3497H101.838L102.72 27.0934H102.784L105.893 18.3497H111.677L106.633 32.5395H99.8533L98.8502 23.7746H98.7862L95.6703 32.5395H89.8867L94.9305 18.3497Z" fill="#014DA2"/>
</svg>
