<svg width="100" height="32" viewBox="0 0 100 32" fill="none" xmlns="http://www.w3.org/2000/svg">
<g clip-path="url(#clip0_340_1230)">
<path d="M30.4857 0H1.82693C0.824685 0 0 0.812798 0 1.80926V30.1907C0 31.1872 0.824685 32 1.82693 32H30.4857C31.4919 32 32.3127 31.1872 32.3127 30.1907V1.80926C32.3127 0.812798 31.4919 0 30.4857 0ZM23.1149 22.8756C23.1149 22.8756 23.107 22.8912 23.0991 22.8912H9.21359C9.21359 22.8912 9.19781 22.8834 9.19781 22.8756V9.12444C9.19781 9.12444 9.2057 9.1088 9.21359 9.1088H23.0991C23.0991 9.1088 23.1149 9.11662 23.1149 9.12444V22.8756Z" fill="#FED432"/>
<path d="M46.9325 14.7163C48.057 13.3135 48.6252 11.2111 48.6252 8.47184C48.6252 5.73255 48.0531 3.57942 46.9285 2.17656C45.729 0.761981 43.8665 0.046875 41.3964 0.046875H36.9139C36.6377 0.046875 36.4089 0.136752 36.2273 0.316505C36.0458 0.496258 35.9551 0.707273 35.9551 0.949549V30.9918C35.9551 31.6053 36.2944 31.9414 36.9139 31.9414H41.3964C43.8705 31.9414 45.729 31.2263 46.9364 29.8078C48.061 28.4049 48.6292 26.287 48.6292 23.5164C48.6292 20.7459 48.057 18.624 46.9325 17.2211C46.5221 16.7327 46.021 16.3224 45.4449 15.9863C45.6816 15.8456 45.8987 15.6971 46.0959 15.5447C46.3879 15.322 46.6681 15.0446 46.9325 14.7163ZM41.3964 30.0891H37.8728V16.8968H41.3964C43.2707 16.8968 44.632 17.4048 45.437 18.413C46.2814 19.429 46.7115 21.1484 46.7115 23.5164C46.7115 25.8845 46.2972 27.5999 45.4843 28.6003C44.6794 29.5889 43.3023 30.0891 41.3964 30.0891ZM41.3964 15.0446H37.8728V1.89912H41.3964C43.3023 1.89912 44.6794 2.3993 45.4843 3.38794C46.3011 4.38831 46.7115 6.09987 46.7115 8.47184C46.7115 10.8438 46.2814 12.5124 45.433 13.5323C44.6281 14.5366 43.2707 15.0446 41.3925 15.0446H41.3964Z" fill="#FED432"/>
<path d="M62.5769 16.5764C62.4073 16.4592 62.2297 16.3458 62.0364 16.2364C62.6874 15.9043 63.2359 15.4744 63.6778 14.9547C64.8695 13.5518 65.4732 11.387 65.4732 8.51874C65.4732 5.65051 64.8537 3.45048 63.6305 2.07889C62.3954 0.699475 60.4738 0 57.905 0H52.9056C52.661 0 52.444 0.0898767 52.2664 0.26963C52.0849 0.445476 51.9941 0.660398 51.9941 0.902674V30.9449C51.9941 31.2185 52.0849 31.4451 52.2664 31.6249C52.4479 31.8046 52.6649 31.8945 52.9056 31.8945C53.5251 31.8945 53.8645 31.5584 53.8645 30.9449V17.1274H57.909C59.732 17.1274 61.1604 17.6354 62.1508 18.6357C63.1451 19.6322 63.6502 21.0858 63.6502 22.9537V30.9449C63.6502 31.2146 63.741 31.4451 63.9225 31.6249C64.104 31.8046 64.321 31.8945 64.5617 31.8945C65.1773 31.8945 65.5206 31.5584 65.5206 30.9449V22.9537C65.5206 20.5075 64.8024 18.5888 63.3858 17.2485C63.1136 16.9789 62.8492 16.76 62.5809 16.5725L62.5769 16.5764ZM63.5516 8.51874C63.5516 10.9806 63.1096 12.7273 62.2337 13.7121C61.334 14.7515 59.878 15.279 57.905 15.279H53.8605V1.85224H57.905C59.9095 1.85224 61.3656 2.36805 62.2337 3.39187C63.1096 4.4274 63.5555 6.15069 63.5555 8.51874H63.5516Z" fill="#FED432"/>
<path d="M71.7 3.4583C72.5365 2.42277 73.7992 1.89914 75.4564 1.89914C77.1137 1.89914 78.4356 2.42277 79.2129 3.4583C80.0928 4.57199 80.5387 6.29137 80.5387 8.56564C80.5387 9.17915 80.878 9.51521 81.4975 9.51521C82.117 9.51521 82.4564 9.17915 82.4564 8.56564C82.4564 6.84236 82.2473 5.40433 81.8329 4.29064C81.4147 3.17695 80.8544 2.29382 80.1757 1.66859C79.497 1.03945 78.7276 0.609605 77.8989 0.38296C76.2969 -0.0507929 74.7383 -0.0664236 73.0731 0.38296C72.2445 0.609605 71.479 1.03945 70.7964 1.66859C70.1137 2.29382 69.5574 3.17695 69.1391 4.29064C68.7248 5.39651 68.5117 6.83454 68.5117 8.56564V23.3758C68.5117 25.1381 68.7208 26.584 69.1391 27.6742C69.5574 28.7723 70.1137 29.6515 70.7924 30.2963C71.4751 30.9371 72.2406 31.3787 73.0731 31.6092C73.8899 31.832 74.6909 31.9453 75.4604 31.9453C76.2298 31.9453 77.0821 31.832 77.8989 31.6092C78.7315 31.3826 79.5009 30.941 80.1796 30.3002C80.8583 29.6593 81.4186 28.7762 81.8369 27.6781C82.2512 26.584 82.4603 25.1342 82.4603 23.3797C82.4603 22.7662 82.121 22.4301 81.5015 22.4301C80.882 22.4301 80.5427 22.7662 80.5427 23.3797C80.5427 25.6578 80.0968 27.3929 79.2168 28.5378C78.4158 29.5733 77.1532 30.097 75.4604 30.097C73.7676 30.097 72.5681 29.5694 71.7079 28.5417C70.8279 27.4007 70.3821 25.6657 70.3821 23.3836V8.56564C70.3821 6.28747 70.8279 4.56809 71.7039 3.4583H71.7Z" fill="#FED432"/>
<path d="M90.9358 14.7398L99.8219 1.49272C99.9837 1.28561 100.039 1.04725 99.9797 0.785431C99.9205 0.539247 99.7943 0.336047 99.5772 0.168017C99.38 0.0507866 99.1511 0.0117098 98.8986 0.0507866C98.6381 0.0898634 98.4251 0.23054 98.2672 0.465001L86.7532 17.483V0.949553C86.7532 0.711185 86.6624 0.496262 86.4809 0.316509C86.2994 0.136756 86.0863 0.0468789 85.8377 0.0468789C85.5615 0.0468789 85.3327 0.136756 85.1512 0.316509C84.9697 0.496262 84.8789 0.707277 84.8789 0.949553V30.9918C84.8789 31.6053 85.2182 31.9414 85.8338 31.9414C86.0784 31.9414 86.2955 31.8515 86.477 31.6717C86.6585 31.492 86.7492 31.2614 86.7492 30.9918V20.9139L89.7363 16.4709L98.212 31.4725C98.4093 31.7773 98.6973 31.9414 99.0446 31.9414C99.1077 31.9414 99.2103 31.9296 99.4865 31.8359L99.5259 31.8163C99.7232 31.6991 99.8653 31.5115 99.9482 31.2575C100.027 30.9996 100.003 30.7652 99.885 30.5659L90.9319 14.7398H90.9358Z" fill="#FED432"/>
</g>
<defs>
<clipPath id="clip0_340_1230">
<rect width="100" height="32" fill="white"/>
</clipPath>
</defs>
</svg>
