<svg width="87" height="28" viewBox="0 0 87 28" fill="none" xmlns="http://www.w3.org/2000/svg">
<g clip-path="url(#clip0_340_387)">
<path d="M1.5831 0H26.4169C27.2922 0 28 0.711198 28 1.5831V26.4169C28 27.2922 27.2922 28 26.4169 28H1.5831C0.707779 28 0 27.2888 0 26.4169V1.5831C0 0.707779 0.707779 0 1.5831 0Z" fill="#191919"/>
<path d="M7.98438 7.97021H20.0166C20.0166 7.97021 20.0303 7.97705 20.0303 7.98389V20.0161C20.0303 20.0161 20.0235 20.0298 20.0166 20.0298H7.98438C7.98438 20.0298 7.9707 20.023 7.9707 20.0161V7.98389C7.9707 7.98389 7.97754 7.97021 7.98438 7.97021Z" fill="#FED432"/>
<path d="M40.6685 12.8768C41.643 11.6493 42.1354 9.80973 42.1354 7.41285C42.1354 5.01598 41.6396 3.13199 40.6651 1.90449C39.6257 0.666733 38.0118 0.0410156 35.8714 0.0410156H31.9871C31.7478 0.0410156 31.5495 0.119658 31.3922 0.276942C31.2349 0.434226 31.1562 0.618864 31.1562 0.830856V27.1178C31.1562 27.6546 31.4503 27.9487 31.9871 27.9487H35.8714C38.0152 27.9487 39.6257 27.323 40.6719 26.0818C41.6464 24.8543 42.1388 23.0011 42.1388 20.5769C42.1388 18.1526 41.643 16.296 40.6685 15.0685C40.3129 14.6411 39.8787 14.2821 39.3795 13.988C39.5846 13.8649 39.7727 13.735 39.9436 13.6016C40.1967 13.4067 40.4394 13.164 40.6685 12.8768ZM35.8714 26.328H32.818V14.7847H35.8714C37.4955 14.7847 38.6751 15.2292 39.3726 16.1114C40.1044 17.0003 40.477 18.5048 40.477 20.5769C40.477 22.6489 40.118 24.1499 39.4137 25.0253C38.7161 25.8903 37.5228 26.328 35.8714 26.328ZM35.8714 13.164H32.818V1.66173H35.8714C37.5228 1.66173 38.7161 2.09939 39.4137 2.96445C40.1214 3.83977 40.477 5.33739 40.477 7.41285C40.477 9.48832 40.1044 10.9483 39.3692 11.8407C38.6717 12.7195 37.4955 13.164 35.8679 13.164H35.8714Z" fill="#231F20"/>
<path d="M54.2255 14.5043C54.0785 14.4018 53.9246 14.3026 53.7571 14.2069C54.3213 13.9162 54.7965 13.5401 55.1795 13.0854C56.2121 11.8579 56.7352 9.96361 56.7352 7.4539C56.7352 4.94419 56.1984 3.01917 55.1385 1.81902C54.0717 0.612039 52.4065 0.00341797 50.1806 0.00341797H45.8484C45.6364 0.00341797 45.4484 0.08206 45.2945 0.239344C45.1372 0.393209 45.0586 0.581266 45.0586 0.793258V27.0802C45.0586 27.3196 45.1372 27.5179 45.2945 27.6752C45.4518 27.8325 45.6399 27.9111 45.8484 27.9111C46.3853 27.9111 46.6793 27.617 46.6793 27.0802V14.9899H50.184C51.7637 14.9899 53.0014 15.4344 53.8597 16.3097C54.7213 17.1816 55.159 18.4535 55.159 20.0879V27.0802C55.159 27.3161 55.2376 27.5179 55.3949 27.6752C55.5522 27.8325 55.7402 27.9111 55.9488 27.9111C56.4822 27.9111 56.7797 27.617 56.7797 27.0802V20.0879C56.7797 17.9475 56.1574 16.2687 54.9299 15.0959C54.694 14.8599 54.4649 14.6685 54.2324 14.5043H54.2255ZM55.0701 7.4539C55.0701 9.60801 54.6871 11.1364 53.9281 11.998C53.1485 12.9076 51.8868 13.3692 50.1772 13.3692H46.6725V1.62071H50.1772C51.9141 1.62071 53.1758 2.07205 53.9281 2.96788C54.6871 3.87398 55.0735 5.38185 55.0735 7.4539H55.0701Z" fill="#231F20"/>
<path d="M62.1319 3.02614C62.8567 2.12005 63.9509 1.66187 65.387 1.66187C66.823 1.66187 67.9685 2.12005 68.6421 3.02614C69.4046 4.00062 69.7909 5.50507 69.7909 7.49506C69.7909 8.03188 70.085 8.32593 70.6218 8.32593C71.1586 8.32593 71.4527 8.03188 71.4527 7.49506C71.4527 5.98719 71.2714 4.72891 70.9124 3.75443C70.55 2.77995 70.0645 2.00721 69.4764 1.46014C68.8883 0.909641 68.2215 0.533527 67.5035 0.335212C66.1153 -0.0443217 64.7647 -0.0579986 63.3218 0.335212C62.6037 0.533527 61.9404 0.909641 61.3489 1.46014C60.7573 2.00721 60.2752 2.77995 59.9128 3.75443C59.5538 4.72207 59.3691 5.98035 59.3691 7.49506V20.4539C59.3691 21.996 59.5504 23.2611 59.9128 24.2151C60.2752 25.1759 60.7573 25.9452 61.3454 26.5094C61.937 27.0701 62.6003 27.4565 63.3218 27.6582C64.0295 27.8531 64.7236 27.9523 65.3904 27.9523C66.0571 27.9523 66.7957 27.8531 67.5035 27.6582C68.2249 27.4599 68.8917 27.0735 69.4798 26.5128C70.0679 25.952 70.5534 25.1793 70.9158 24.2185C71.2749 23.2611 71.4561 21.9926 71.4561 20.4573C71.4561 19.9205 71.162 19.6265 70.6252 19.6265C70.0884 19.6265 69.7943 19.9205 69.7943 20.4573C69.7943 22.4507 69.408 23.9689 68.6455 24.9707C67.9514 25.8768 66.8572 26.335 65.3904 26.335C63.9235 26.335 62.8841 25.8734 62.1387 24.9741C61.3762 23.9757 60.9898 22.4576 60.9898 20.4607V7.49506C60.9898 5.50166 61.3762 3.9972 62.1353 3.02614H62.1319Z" fill="#231F20"/>
<path d="M78.7993 12.8974L86.4994 1.30625C86.6396 1.12503 86.6874 0.916462 86.6361 0.687374C86.5849 0.471963 86.4754 0.294163 86.2874 0.147137C86.1164 0.0445604 85.9181 0.0103681 85.6993 0.0445604C85.4736 0.0787526 85.289 0.201845 85.1522 0.406998L75.1749 15.2977V0.830981C75.1749 0.622409 75.0963 0.434352 74.939 0.277067C74.7817 0.119783 74.5971 0.0411411 74.3816 0.0411411C74.1423 0.0411411 73.944 0.119783 73.7867 0.277067C73.6294 0.434352 73.5508 0.61899 73.5508 0.830981V27.118C73.5508 27.6548 73.8448 27.9488 74.3782 27.9488C74.5902 27.9488 74.7783 27.8702 74.9356 27.7129C75.0929 27.5556 75.1715 27.3539 75.1715 27.118V18.2998L77.7598 14.4121L85.1043 27.5385C85.2753 27.8052 85.5249 27.9488 85.8258 27.9488C85.8805 27.9488 85.9694 27.9386 86.2087 27.8565L86.2429 27.8394C86.4139 27.7368 86.537 27.5727 86.6088 27.3505C86.6772 27.1248 86.6567 26.9196 86.5541 26.7453L78.7959 12.8974H78.7993Z" fill="#231F20"/>
</g>
<defs>
<clipPath id="clip0_340_387">
<rect width="86.6533" height="28" fill="white"/>
</clipPath>
</defs>
</svg>
